%TF.GenerationSoftware,KiCad,Pcbnew,9.0.6*%
%TF.CreationDate,2025-12-29T21:08:54-05:00*%
%TF.ProjectId,plimsoll,706c696d-736f-46c6-9c2e-6b696361645f,rev?*%
%TF.SameCoordinates,Original*%
%TF.FileFunction,Legend,Bot*%
%TF.FilePolarity,Positive*%
%FSLAX46Y46*%
G04 Gerber Fmt 4.6, Leading zero omitted, Abs format (unit mm)*
G04 Created by KiCad (PCBNEW 9.0.6) date 2025-12-29 21:08:54*
%MOMM*%
%LPD*%
G01*
G04 APERTURE LIST*
G04 Aperture macros list*
%AMRoundRect*
0 Rectangle with rounded corners*
0 $1 Rounding radius*
0 $2 $3 $4 $5 $6 $7 $8 $9 X,Y pos of 4 corners*
0 Add a 4 corners polygon primitive as box body*
4,1,4,$2,$3,$4,$5,$6,$7,$8,$9,$2,$3,0*
0 Add four circle primitives for the rounded corners*
1,1,$1+$1,$2,$3*
1,1,$1+$1,$4,$5*
1,1,$1+$1,$6,$7*
1,1,$1+$1,$8,$9*
0 Add four rect primitives between the rounded corners*
20,1,$1+$1,$2,$3,$4,$5,0*
20,1,$1+$1,$4,$5,$6,$7,0*
20,1,$1+$1,$6,$7,$8,$9,0*
20,1,$1+$1,$8,$9,$2,$3,0*%
G04 Aperture macros list end*
%ADD10C,0.200000*%
%ADD11C,0.150000*%
%ADD12C,3.200000*%
%ADD13R,1.700000X1.700000*%
%ADD14C,1.700000*%
%ADD15RoundRect,0.250000X0.725000X-0.600000X0.725000X0.600000X-0.725000X0.600000X-0.725000X-0.600000X0*%
%ADD16O,1.950000X1.700000*%
%ADD17RoundRect,0.250000X0.600000X0.725000X-0.600000X0.725000X-0.600000X-0.725000X0.600000X-0.725000X0*%
%ADD18O,1.700000X1.950000*%
%ADD19RoundRect,0.250000X-0.725000X0.600000X-0.725000X-0.600000X0.725000X-0.600000X0.725000X0.600000X0*%
%ADD20RoundRect,0.250000X-0.600000X-0.725000X0.600000X-0.725000X0.600000X0.725000X-0.600000X0.725000X0*%
G04 APERTURE END LIST*
D10*
X131975564Y-119817499D02*
X131356517Y-119817499D01*
X131356517Y-119817499D02*
X131689850Y-120198451D01*
X131689850Y-120198451D02*
X131546993Y-120198451D01*
X131546993Y-120198451D02*
X131451755Y-120246070D01*
X131451755Y-120246070D02*
X131404136Y-120293689D01*
X131404136Y-120293689D02*
X131356517Y-120388927D01*
X131356517Y-120388927D02*
X131356517Y-120627022D01*
X131356517Y-120627022D02*
X131404136Y-120722260D01*
X131404136Y-120722260D02*
X131451755Y-120769880D01*
X131451755Y-120769880D02*
X131546993Y-120817499D01*
X131546993Y-120817499D02*
X131832707Y-120817499D01*
X131832707Y-120817499D02*
X131927945Y-120769880D01*
X131927945Y-120769880D02*
X131975564Y-120722260D01*
X131023183Y-120150832D02*
X130785088Y-120817499D01*
X130785088Y-120817499D02*
X130546993Y-120150832D01*
X130261278Y-119817499D02*
X129642231Y-119817499D01*
X129642231Y-119817499D02*
X129975564Y-120198451D01*
X129975564Y-120198451D02*
X129832707Y-120198451D01*
X129832707Y-120198451D02*
X129737469Y-120246070D01*
X129737469Y-120246070D02*
X129689850Y-120293689D01*
X129689850Y-120293689D02*
X129642231Y-120388927D01*
X129642231Y-120388927D02*
X129642231Y-120627022D01*
X129642231Y-120627022D02*
X129689850Y-120722260D01*
X129689850Y-120722260D02*
X129737469Y-120769880D01*
X129737469Y-120769880D02*
X129832707Y-120817499D01*
X129832707Y-120817499D02*
X130118421Y-120817499D01*
X130118421Y-120817499D02*
X130213659Y-120769880D01*
X130213659Y-120769880D02*
X130261278Y-120722260D01*
X127689849Y-120293689D02*
X127356516Y-120293689D01*
X127213659Y-120817499D02*
X127689849Y-120817499D01*
X127689849Y-120817499D02*
X127689849Y-119817499D01*
X127689849Y-119817499D02*
X127213659Y-119817499D01*
X126070802Y-119769880D02*
X126927944Y-121055594D01*
X125166040Y-120722260D02*
X125213659Y-120769880D01*
X125213659Y-120769880D02*
X125356516Y-120817499D01*
X125356516Y-120817499D02*
X125451754Y-120817499D01*
X125451754Y-120817499D02*
X125594611Y-120769880D01*
X125594611Y-120769880D02*
X125689849Y-120674641D01*
X125689849Y-120674641D02*
X125737468Y-120579403D01*
X125737468Y-120579403D02*
X125785087Y-120388927D01*
X125785087Y-120388927D02*
X125785087Y-120246070D01*
X125785087Y-120246070D02*
X125737468Y-120055594D01*
X125737468Y-120055594D02*
X125689849Y-119960356D01*
X125689849Y-119960356D02*
X125594611Y-119865118D01*
X125594611Y-119865118D02*
X125451754Y-119817499D01*
X125451754Y-119817499D02*
X125356516Y-119817499D01*
X125356516Y-119817499D02*
X125213659Y-119865118D01*
X125213659Y-119865118D02*
X125166040Y-119912737D01*
X131880326Y-122427443D02*
X131880326Y-121427443D01*
X131880326Y-121427443D02*
X131642231Y-121427443D01*
X131642231Y-121427443D02*
X131499374Y-121475062D01*
X131499374Y-121475062D02*
X131404136Y-121570300D01*
X131404136Y-121570300D02*
X131356517Y-121665538D01*
X131356517Y-121665538D02*
X131308898Y-121856014D01*
X131308898Y-121856014D02*
X131308898Y-121998871D01*
X131308898Y-121998871D02*
X131356517Y-122189347D01*
X131356517Y-122189347D02*
X131404136Y-122284585D01*
X131404136Y-122284585D02*
X131499374Y-122379824D01*
X131499374Y-122379824D02*
X131642231Y-122427443D01*
X131642231Y-122427443D02*
X131880326Y-122427443D01*
X130689850Y-121427443D02*
X130499374Y-121427443D01*
X130499374Y-121427443D02*
X130404136Y-121475062D01*
X130404136Y-121475062D02*
X130308898Y-121570300D01*
X130308898Y-121570300D02*
X130261279Y-121760776D01*
X130261279Y-121760776D02*
X130261279Y-122094109D01*
X130261279Y-122094109D02*
X130308898Y-122284585D01*
X130308898Y-122284585D02*
X130404136Y-122379824D01*
X130404136Y-122379824D02*
X130499374Y-122427443D01*
X130499374Y-122427443D02*
X130689850Y-122427443D01*
X130689850Y-122427443D02*
X130785088Y-122379824D01*
X130785088Y-122379824D02*
X130880326Y-122284585D01*
X130880326Y-122284585D02*
X130927945Y-122094109D01*
X130927945Y-122094109D02*
X130927945Y-121760776D01*
X130927945Y-121760776D02*
X130880326Y-121570300D01*
X130880326Y-121570300D02*
X130785088Y-121475062D01*
X130785088Y-121475062D02*
X130689850Y-121427443D01*
X129832707Y-121427443D02*
X129832707Y-122236966D01*
X129832707Y-122236966D02*
X129785088Y-122332204D01*
X129785088Y-122332204D02*
X129737469Y-122379824D01*
X129737469Y-122379824D02*
X129642231Y-122427443D01*
X129642231Y-122427443D02*
X129451755Y-122427443D01*
X129451755Y-122427443D02*
X129356517Y-122379824D01*
X129356517Y-122379824D02*
X129308898Y-122332204D01*
X129308898Y-122332204D02*
X129261279Y-122236966D01*
X129261279Y-122236966D02*
X129261279Y-121427443D01*
X128927945Y-121427443D02*
X128356517Y-121427443D01*
X128642231Y-122427443D02*
X128642231Y-121427443D01*
X127261278Y-122427443D02*
X127261278Y-121427443D01*
X127261278Y-121427443D02*
X127023183Y-121427443D01*
X127023183Y-121427443D02*
X126880326Y-121475062D01*
X126880326Y-121475062D02*
X126785088Y-121570300D01*
X126785088Y-121570300D02*
X126737469Y-121665538D01*
X126737469Y-121665538D02*
X126689850Y-121856014D01*
X126689850Y-121856014D02*
X126689850Y-121998871D01*
X126689850Y-121998871D02*
X126737469Y-122189347D01*
X126737469Y-122189347D02*
X126785088Y-122284585D01*
X126785088Y-122284585D02*
X126880326Y-122379824D01*
X126880326Y-122379824D02*
X127023183Y-122427443D01*
X127023183Y-122427443D02*
X127261278Y-122427443D01*
X126261278Y-122427443D02*
X126261278Y-121427443D01*
X125785088Y-122427443D02*
X125785088Y-121427443D01*
X125785088Y-121427443D02*
X125213660Y-122427443D01*
X125213660Y-122427443D02*
X125213660Y-121427443D01*
X131356517Y-123085006D02*
X131451755Y-123037387D01*
X131451755Y-123037387D02*
X131594612Y-123037387D01*
X131594612Y-123037387D02*
X131737469Y-123085006D01*
X131737469Y-123085006D02*
X131832707Y-123180244D01*
X131832707Y-123180244D02*
X131880326Y-123275482D01*
X131880326Y-123275482D02*
X131927945Y-123465958D01*
X131927945Y-123465958D02*
X131927945Y-123608815D01*
X131927945Y-123608815D02*
X131880326Y-123799291D01*
X131880326Y-123799291D02*
X131832707Y-123894529D01*
X131832707Y-123894529D02*
X131737469Y-123989768D01*
X131737469Y-123989768D02*
X131594612Y-124037387D01*
X131594612Y-124037387D02*
X131499374Y-124037387D01*
X131499374Y-124037387D02*
X131356517Y-123989768D01*
X131356517Y-123989768D02*
X131308898Y-123942148D01*
X131308898Y-123942148D02*
X131308898Y-123608815D01*
X131308898Y-123608815D02*
X131499374Y-123608815D01*
X130880326Y-124037387D02*
X130880326Y-123037387D01*
X130880326Y-123037387D02*
X130308898Y-124037387D01*
X130308898Y-124037387D02*
X130308898Y-123037387D01*
X129832707Y-124037387D02*
X129832707Y-123037387D01*
X129832707Y-123037387D02*
X129594612Y-123037387D01*
X129594612Y-123037387D02*
X129451755Y-123085006D01*
X129451755Y-123085006D02*
X129356517Y-123180244D01*
X129356517Y-123180244D02*
X129308898Y-123275482D01*
X129308898Y-123275482D02*
X129261279Y-123465958D01*
X129261279Y-123465958D02*
X129261279Y-123608815D01*
X129261279Y-123608815D02*
X129308898Y-123799291D01*
X129308898Y-123799291D02*
X129356517Y-123894529D01*
X129356517Y-123894529D02*
X129451755Y-123989768D01*
X129451755Y-123989768D02*
X129594612Y-124037387D01*
X129594612Y-124037387D02*
X129832707Y-124037387D01*
X127356516Y-123989768D02*
X127213659Y-124037387D01*
X127213659Y-124037387D02*
X126975564Y-124037387D01*
X126975564Y-124037387D02*
X126880326Y-123989768D01*
X126880326Y-123989768D02*
X126832707Y-123942148D01*
X126832707Y-123942148D02*
X126785088Y-123846910D01*
X126785088Y-123846910D02*
X126785088Y-123751672D01*
X126785088Y-123751672D02*
X126832707Y-123656434D01*
X126832707Y-123656434D02*
X126880326Y-123608815D01*
X126880326Y-123608815D02*
X126975564Y-123561196D01*
X126975564Y-123561196D02*
X127166040Y-123513577D01*
X127166040Y-123513577D02*
X127261278Y-123465958D01*
X127261278Y-123465958D02*
X127308897Y-123418339D01*
X127308897Y-123418339D02*
X127356516Y-123323101D01*
X127356516Y-123323101D02*
X127356516Y-123227863D01*
X127356516Y-123227863D02*
X127308897Y-123132625D01*
X127308897Y-123132625D02*
X127261278Y-123085006D01*
X127261278Y-123085006D02*
X127166040Y-123037387D01*
X127166040Y-123037387D02*
X126927945Y-123037387D01*
X126927945Y-123037387D02*
X126785088Y-123085006D01*
X125785088Y-123942148D02*
X125832707Y-123989768D01*
X125832707Y-123989768D02*
X125975564Y-124037387D01*
X125975564Y-124037387D02*
X126070802Y-124037387D01*
X126070802Y-124037387D02*
X126213659Y-123989768D01*
X126213659Y-123989768D02*
X126308897Y-123894529D01*
X126308897Y-123894529D02*
X126356516Y-123799291D01*
X126356516Y-123799291D02*
X126404135Y-123608815D01*
X126404135Y-123608815D02*
X126404135Y-123465958D01*
X126404135Y-123465958D02*
X126356516Y-123275482D01*
X126356516Y-123275482D02*
X126308897Y-123180244D01*
X126308897Y-123180244D02*
X126213659Y-123085006D01*
X126213659Y-123085006D02*
X126070802Y-123037387D01*
X126070802Y-123037387D02*
X125975564Y-123037387D01*
X125975564Y-123037387D02*
X125832707Y-123085006D01*
X125832707Y-123085006D02*
X125785088Y-123132625D01*
X124880326Y-124037387D02*
X125356516Y-124037387D01*
X125356516Y-124037387D02*
X125356516Y-123037387D01*
X124546992Y-124037387D02*
X124546992Y-123037387D01*
X123975564Y-124037387D02*
X124404135Y-123465958D01*
X123975564Y-123037387D02*
X124546992Y-123608815D01*
X131308898Y-125552092D02*
X131356517Y-125599712D01*
X131356517Y-125599712D02*
X131499374Y-125647331D01*
X131499374Y-125647331D02*
X131594612Y-125647331D01*
X131594612Y-125647331D02*
X131737469Y-125599712D01*
X131737469Y-125599712D02*
X131832707Y-125504473D01*
X131832707Y-125504473D02*
X131880326Y-125409235D01*
X131880326Y-125409235D02*
X131927945Y-125218759D01*
X131927945Y-125218759D02*
X131927945Y-125075902D01*
X131927945Y-125075902D02*
X131880326Y-124885426D01*
X131880326Y-124885426D02*
X131832707Y-124790188D01*
X131832707Y-124790188D02*
X131737469Y-124694950D01*
X131737469Y-124694950D02*
X131594612Y-124647331D01*
X131594612Y-124647331D02*
X131499374Y-124647331D01*
X131499374Y-124647331D02*
X131356517Y-124694950D01*
X131356517Y-124694950D02*
X131308898Y-124742569D01*
X130927945Y-125599712D02*
X130785088Y-125647331D01*
X130785088Y-125647331D02*
X130546993Y-125647331D01*
X130546993Y-125647331D02*
X130451755Y-125599712D01*
X130451755Y-125599712D02*
X130404136Y-125552092D01*
X130404136Y-125552092D02*
X130356517Y-125456854D01*
X130356517Y-125456854D02*
X130356517Y-125361616D01*
X130356517Y-125361616D02*
X130404136Y-125266378D01*
X130404136Y-125266378D02*
X130451755Y-125218759D01*
X130451755Y-125218759D02*
X130546993Y-125171140D01*
X130546993Y-125171140D02*
X130737469Y-125123521D01*
X130737469Y-125123521D02*
X130832707Y-125075902D01*
X130832707Y-125075902D02*
X130880326Y-125028283D01*
X130880326Y-125028283D02*
X130927945Y-124933045D01*
X130927945Y-124933045D02*
X130927945Y-124837807D01*
X130927945Y-124837807D02*
X130880326Y-124742569D01*
X130880326Y-124742569D02*
X130832707Y-124694950D01*
X130832707Y-124694950D02*
X130737469Y-124647331D01*
X130737469Y-124647331D02*
X130499374Y-124647331D01*
X130499374Y-124647331D02*
X130356517Y-124694950D01*
X127642230Y-125647331D02*
X127642230Y-124647331D01*
X127642230Y-124647331D02*
X127404135Y-124647331D01*
X127404135Y-124647331D02*
X127261278Y-124694950D01*
X127261278Y-124694950D02*
X127166040Y-124790188D01*
X127166040Y-124790188D02*
X127118421Y-124885426D01*
X127118421Y-124885426D02*
X127070802Y-125075902D01*
X127070802Y-125075902D02*
X127070802Y-125218759D01*
X127070802Y-125218759D02*
X127118421Y-125409235D01*
X127118421Y-125409235D02*
X127166040Y-125504473D01*
X127166040Y-125504473D02*
X127261278Y-125599712D01*
X127261278Y-125599712D02*
X127404135Y-125647331D01*
X127404135Y-125647331D02*
X127642230Y-125647331D01*
X126070802Y-125647331D02*
X126404135Y-125171140D01*
X126642230Y-125647331D02*
X126642230Y-124647331D01*
X126642230Y-124647331D02*
X126261278Y-124647331D01*
X126261278Y-124647331D02*
X126166040Y-124694950D01*
X126166040Y-124694950D02*
X126118421Y-124742569D01*
X126118421Y-124742569D02*
X126070802Y-124837807D01*
X126070802Y-124837807D02*
X126070802Y-124980664D01*
X126070802Y-124980664D02*
X126118421Y-125075902D01*
X126118421Y-125075902D02*
X126166040Y-125123521D01*
X126166040Y-125123521D02*
X126261278Y-125171140D01*
X126261278Y-125171140D02*
X126642230Y-125171140D01*
X125642230Y-125647331D02*
X125642230Y-124647331D01*
X125642230Y-124647331D02*
X125404135Y-124647331D01*
X125404135Y-124647331D02*
X125261278Y-124694950D01*
X125261278Y-124694950D02*
X125166040Y-124790188D01*
X125166040Y-124790188D02*
X125118421Y-124885426D01*
X125118421Y-124885426D02*
X125070802Y-125075902D01*
X125070802Y-125075902D02*
X125070802Y-125218759D01*
X125070802Y-125218759D02*
X125118421Y-125409235D01*
X125118421Y-125409235D02*
X125166040Y-125504473D01*
X125166040Y-125504473D02*
X125261278Y-125599712D01*
X125261278Y-125599712D02*
X125404135Y-125647331D01*
X125404135Y-125647331D02*
X125642230Y-125647331D01*
X124451754Y-125171140D02*
X124451754Y-125647331D01*
X124785087Y-124647331D02*
X124451754Y-125171140D01*
X124451754Y-125171140D02*
X124118421Y-124647331D01*
X131356517Y-126304894D02*
X131451755Y-126257275D01*
X131451755Y-126257275D02*
X131594612Y-126257275D01*
X131594612Y-126257275D02*
X131737469Y-126304894D01*
X131737469Y-126304894D02*
X131832707Y-126400132D01*
X131832707Y-126400132D02*
X131880326Y-126495370D01*
X131880326Y-126495370D02*
X131927945Y-126685846D01*
X131927945Y-126685846D02*
X131927945Y-126828703D01*
X131927945Y-126828703D02*
X131880326Y-127019179D01*
X131880326Y-127019179D02*
X131832707Y-127114417D01*
X131832707Y-127114417D02*
X131737469Y-127209656D01*
X131737469Y-127209656D02*
X131594612Y-127257275D01*
X131594612Y-127257275D02*
X131499374Y-127257275D01*
X131499374Y-127257275D02*
X131356517Y-127209656D01*
X131356517Y-127209656D02*
X131308898Y-127162036D01*
X131308898Y-127162036D02*
X131308898Y-126828703D01*
X131308898Y-126828703D02*
X131499374Y-126828703D01*
X130880326Y-127257275D02*
X130880326Y-126257275D01*
X130880326Y-126257275D02*
X130308898Y-127257275D01*
X130308898Y-127257275D02*
X130308898Y-126257275D01*
X129832707Y-127257275D02*
X129832707Y-126257275D01*
X129832707Y-126257275D02*
X129594612Y-126257275D01*
X129594612Y-126257275D02*
X129451755Y-126304894D01*
X129451755Y-126304894D02*
X129356517Y-126400132D01*
X129356517Y-126400132D02*
X129308898Y-126495370D01*
X129308898Y-126495370D02*
X129261279Y-126685846D01*
X129261279Y-126685846D02*
X129261279Y-126828703D01*
X129261279Y-126828703D02*
X129308898Y-127019179D01*
X129308898Y-127019179D02*
X129356517Y-127114417D01*
X129356517Y-127114417D02*
X129451755Y-127209656D01*
X129451755Y-127209656D02*
X129594612Y-127257275D01*
X129594612Y-127257275D02*
X129832707Y-127257275D01*
X126737469Y-127257275D02*
X127070802Y-126781084D01*
X127308897Y-127257275D02*
X127308897Y-126257275D01*
X127308897Y-126257275D02*
X126927945Y-126257275D01*
X126927945Y-126257275D02*
X126832707Y-126304894D01*
X126832707Y-126304894D02*
X126785088Y-126352513D01*
X126785088Y-126352513D02*
X126737469Y-126447751D01*
X126737469Y-126447751D02*
X126737469Y-126590608D01*
X126737469Y-126590608D02*
X126785088Y-126685846D01*
X126785088Y-126685846D02*
X126832707Y-126733465D01*
X126832707Y-126733465D02*
X126927945Y-126781084D01*
X126927945Y-126781084D02*
X127308897Y-126781084D01*
X126356516Y-127209656D02*
X126213659Y-127257275D01*
X126213659Y-127257275D02*
X125975564Y-127257275D01*
X125975564Y-127257275D02*
X125880326Y-127209656D01*
X125880326Y-127209656D02*
X125832707Y-127162036D01*
X125832707Y-127162036D02*
X125785088Y-127066798D01*
X125785088Y-127066798D02*
X125785088Y-126971560D01*
X125785088Y-126971560D02*
X125832707Y-126876322D01*
X125832707Y-126876322D02*
X125880326Y-126828703D01*
X125880326Y-126828703D02*
X125975564Y-126781084D01*
X125975564Y-126781084D02*
X126166040Y-126733465D01*
X126166040Y-126733465D02*
X126261278Y-126685846D01*
X126261278Y-126685846D02*
X126308897Y-126638227D01*
X126308897Y-126638227D02*
X126356516Y-126542989D01*
X126356516Y-126542989D02*
X126356516Y-126447751D01*
X126356516Y-126447751D02*
X126308897Y-126352513D01*
X126308897Y-126352513D02*
X126261278Y-126304894D01*
X126261278Y-126304894D02*
X126166040Y-126257275D01*
X126166040Y-126257275D02*
X125927945Y-126257275D01*
X125927945Y-126257275D02*
X125785088Y-126304894D01*
X125499373Y-126257275D02*
X124927945Y-126257275D01*
X125213659Y-127257275D02*
X125213659Y-126257275D01*
X131356517Y-127914838D02*
X131451755Y-127867219D01*
X131451755Y-127867219D02*
X131594612Y-127867219D01*
X131594612Y-127867219D02*
X131737469Y-127914838D01*
X131737469Y-127914838D02*
X131832707Y-128010076D01*
X131832707Y-128010076D02*
X131880326Y-128105314D01*
X131880326Y-128105314D02*
X131927945Y-128295790D01*
X131927945Y-128295790D02*
X131927945Y-128438647D01*
X131927945Y-128438647D02*
X131880326Y-128629123D01*
X131880326Y-128629123D02*
X131832707Y-128724361D01*
X131832707Y-128724361D02*
X131737469Y-128819600D01*
X131737469Y-128819600D02*
X131594612Y-128867219D01*
X131594612Y-128867219D02*
X131499374Y-128867219D01*
X131499374Y-128867219D02*
X131356517Y-128819600D01*
X131356517Y-128819600D02*
X131308898Y-128771980D01*
X131308898Y-128771980D02*
X131308898Y-128438647D01*
X131308898Y-128438647D02*
X131499374Y-128438647D01*
X130880326Y-128867219D02*
X130880326Y-127867219D01*
X130880326Y-127867219D02*
X130308898Y-128867219D01*
X130308898Y-128867219D02*
X130308898Y-127867219D01*
X129832707Y-128867219D02*
X129832707Y-127867219D01*
X129832707Y-127867219D02*
X129594612Y-127867219D01*
X129594612Y-127867219D02*
X129451755Y-127914838D01*
X129451755Y-127914838D02*
X129356517Y-128010076D01*
X129356517Y-128010076D02*
X129308898Y-128105314D01*
X129308898Y-128105314D02*
X129261279Y-128295790D01*
X129261279Y-128295790D02*
X129261279Y-128438647D01*
X129261279Y-128438647D02*
X129308898Y-128629123D01*
X129308898Y-128629123D02*
X129356517Y-128724361D01*
X129356517Y-128724361D02*
X129451755Y-128819600D01*
X129451755Y-128819600D02*
X129594612Y-128867219D01*
X129594612Y-128867219D02*
X129832707Y-128867219D01*
X127308897Y-128486266D02*
X126546993Y-128486266D01*
X126927945Y-128867219D02*
X126927945Y-128105314D01*
X125594612Y-127867219D02*
X126070802Y-127867219D01*
X126070802Y-127867219D02*
X126118421Y-128343409D01*
X126118421Y-128343409D02*
X126070802Y-128295790D01*
X126070802Y-128295790D02*
X125975564Y-128248171D01*
X125975564Y-128248171D02*
X125737469Y-128248171D01*
X125737469Y-128248171D02*
X125642231Y-128295790D01*
X125642231Y-128295790D02*
X125594612Y-128343409D01*
X125594612Y-128343409D02*
X125546993Y-128438647D01*
X125546993Y-128438647D02*
X125546993Y-128676742D01*
X125546993Y-128676742D02*
X125594612Y-128771980D01*
X125594612Y-128771980D02*
X125642231Y-128819600D01*
X125642231Y-128819600D02*
X125737469Y-128867219D01*
X125737469Y-128867219D02*
X125975564Y-128867219D01*
X125975564Y-128867219D02*
X126070802Y-128819600D01*
X126070802Y-128819600D02*
X126118421Y-128771980D01*
X125261278Y-127867219D02*
X124927945Y-128867219D01*
X124927945Y-128867219D02*
X124594612Y-127867219D01*
D11*
X113863409Y-109721431D02*
X114663409Y-109721431D01*
X113406267Y-109435716D02*
X114263409Y-109150002D01*
X114263409Y-109150002D02*
X114263409Y-109892859D01*
X114549124Y-111035716D02*
X114606267Y-110978573D01*
X114606267Y-110978573D02*
X114663409Y-110807145D01*
X114663409Y-110807145D02*
X114663409Y-110692859D01*
X114663409Y-110692859D02*
X114606267Y-110521430D01*
X114606267Y-110521430D02*
X114491981Y-110407145D01*
X114491981Y-110407145D02*
X114377695Y-110350002D01*
X114377695Y-110350002D02*
X114149124Y-110292859D01*
X114149124Y-110292859D02*
X113977695Y-110292859D01*
X113977695Y-110292859D02*
X113749124Y-110350002D01*
X113749124Y-110350002D02*
X113634838Y-110407145D01*
X113634838Y-110407145D02*
X113520552Y-110521430D01*
X113520552Y-110521430D02*
X113463409Y-110692859D01*
X113463409Y-110692859D02*
X113463409Y-110807145D01*
X113463409Y-110807145D02*
X113520552Y-110978573D01*
X113520552Y-110978573D02*
X113577695Y-111035716D01*
X114663409Y-111550002D02*
X113463409Y-111550002D01*
X114034838Y-111550002D02*
X114034838Y-112235716D01*
X114663409Y-112235716D02*
X113463409Y-112235716D01*
X113463409Y-113721431D02*
X114434838Y-113721431D01*
X114434838Y-113721431D02*
X114549124Y-113778574D01*
X114549124Y-113778574D02*
X114606267Y-113835717D01*
X114606267Y-113835717D02*
X114663409Y-113950002D01*
X114663409Y-113950002D02*
X114663409Y-114178574D01*
X114663409Y-114178574D02*
X114606267Y-114292859D01*
X114606267Y-114292859D02*
X114549124Y-114350002D01*
X114549124Y-114350002D02*
X114434838Y-114407145D01*
X114434838Y-114407145D02*
X113463409Y-114407145D01*
X113863409Y-114978574D02*
X114663409Y-114978574D01*
X113977695Y-114978574D02*
X113920552Y-115035717D01*
X113920552Y-115035717D02*
X113863409Y-115150002D01*
X113863409Y-115150002D02*
X113863409Y-115321431D01*
X113863409Y-115321431D02*
X113920552Y-115435717D01*
X113920552Y-115435717D02*
X114034838Y-115492860D01*
X114034838Y-115492860D02*
X114663409Y-115492860D01*
X114663409Y-116578574D02*
X113463409Y-116578574D01*
X114606267Y-116578574D02*
X114663409Y-116464288D01*
X114663409Y-116464288D02*
X114663409Y-116235716D01*
X114663409Y-116235716D02*
X114606267Y-116121431D01*
X114606267Y-116121431D02*
X114549124Y-116064288D01*
X114549124Y-116064288D02*
X114434838Y-116007145D01*
X114434838Y-116007145D02*
X114091981Y-116007145D01*
X114091981Y-116007145D02*
X113977695Y-116064288D01*
X113977695Y-116064288D02*
X113920552Y-116121431D01*
X113920552Y-116121431D02*
X113863409Y-116235716D01*
X113863409Y-116235716D02*
X113863409Y-116464288D01*
X113863409Y-116464288D02*
X113920552Y-116578574D01*
X114606267Y-117607145D02*
X114663409Y-117492859D01*
X114663409Y-117492859D02*
X114663409Y-117264288D01*
X114663409Y-117264288D02*
X114606267Y-117150002D01*
X114606267Y-117150002D02*
X114491981Y-117092859D01*
X114491981Y-117092859D02*
X114034838Y-117092859D01*
X114034838Y-117092859D02*
X113920552Y-117150002D01*
X113920552Y-117150002D02*
X113863409Y-117264288D01*
X113863409Y-117264288D02*
X113863409Y-117492859D01*
X113863409Y-117492859D02*
X113920552Y-117607145D01*
X113920552Y-117607145D02*
X114034838Y-117664288D01*
X114034838Y-117664288D02*
X114149124Y-117664288D01*
X114149124Y-117664288D02*
X114263409Y-117092859D01*
X114663409Y-118178573D02*
X113863409Y-118178573D01*
X114091981Y-118178573D02*
X113977695Y-118235716D01*
X113977695Y-118235716D02*
X113920552Y-118292859D01*
X113920552Y-118292859D02*
X113863409Y-118407144D01*
X113863409Y-118407144D02*
X113863409Y-118521430D01*
X114663409Y-118921430D02*
X113463409Y-118921430D01*
X113920552Y-118921430D02*
X113863409Y-119035716D01*
X113863409Y-119035716D02*
X113863409Y-119264287D01*
X113863409Y-119264287D02*
X113920552Y-119378573D01*
X113920552Y-119378573D02*
X113977695Y-119435716D01*
X113977695Y-119435716D02*
X114091981Y-119492858D01*
X114091981Y-119492858D02*
X114434838Y-119492858D01*
X114434838Y-119492858D02*
X114549124Y-119435716D01*
X114549124Y-119435716D02*
X114606267Y-119378573D01*
X114606267Y-119378573D02*
X114663409Y-119264287D01*
X114663409Y-119264287D02*
X114663409Y-119035716D01*
X114663409Y-119035716D02*
X114606267Y-118921430D01*
X114606267Y-120464287D02*
X114663409Y-120350001D01*
X114663409Y-120350001D02*
X114663409Y-120121430D01*
X114663409Y-120121430D02*
X114606267Y-120007144D01*
X114606267Y-120007144D02*
X114491981Y-119950001D01*
X114491981Y-119950001D02*
X114034838Y-119950001D01*
X114034838Y-119950001D02*
X113920552Y-120007144D01*
X113920552Y-120007144D02*
X113863409Y-120121430D01*
X113863409Y-120121430D02*
X113863409Y-120350001D01*
X113863409Y-120350001D02*
X113920552Y-120464287D01*
X113920552Y-120464287D02*
X114034838Y-120521430D01*
X114034838Y-120521430D02*
X114149124Y-120521430D01*
X114149124Y-120521430D02*
X114263409Y-119950001D01*
X114663409Y-121550001D02*
X113463409Y-121550001D01*
X114606267Y-121550001D02*
X114663409Y-121435715D01*
X114663409Y-121435715D02*
X114663409Y-121207143D01*
X114663409Y-121207143D02*
X114606267Y-121092858D01*
X114606267Y-121092858D02*
X114549124Y-121035715D01*
X114549124Y-121035715D02*
X114434838Y-120978572D01*
X114434838Y-120978572D02*
X114091981Y-120978572D01*
X114091981Y-120978572D02*
X113977695Y-121035715D01*
X113977695Y-121035715D02*
X113920552Y-121092858D01*
X113920552Y-121092858D02*
X113863409Y-121207143D01*
X113863409Y-121207143D02*
X113863409Y-121435715D01*
X113863409Y-121435715D02*
X113920552Y-121550001D01*
X114663409Y-123607143D02*
X114663409Y-123035715D01*
X114663409Y-123035715D02*
X113463409Y-123035715D01*
X114663409Y-124178572D02*
X114606267Y-124064287D01*
X114606267Y-124064287D02*
X114549124Y-124007144D01*
X114549124Y-124007144D02*
X114434838Y-123950001D01*
X114434838Y-123950001D02*
X114091981Y-123950001D01*
X114091981Y-123950001D02*
X113977695Y-124007144D01*
X113977695Y-124007144D02*
X113920552Y-124064287D01*
X113920552Y-124064287D02*
X113863409Y-124178572D01*
X113863409Y-124178572D02*
X113863409Y-124350001D01*
X113863409Y-124350001D02*
X113920552Y-124464287D01*
X113920552Y-124464287D02*
X113977695Y-124521430D01*
X113977695Y-124521430D02*
X114091981Y-124578572D01*
X114091981Y-124578572D02*
X114434838Y-124578572D01*
X114434838Y-124578572D02*
X114549124Y-124521430D01*
X114549124Y-124521430D02*
X114606267Y-124464287D01*
X114606267Y-124464287D02*
X114663409Y-124350001D01*
X114663409Y-124350001D02*
X114663409Y-124178572D01*
X114663409Y-125607144D02*
X114034838Y-125607144D01*
X114034838Y-125607144D02*
X113920552Y-125550001D01*
X113920552Y-125550001D02*
X113863409Y-125435715D01*
X113863409Y-125435715D02*
X113863409Y-125207144D01*
X113863409Y-125207144D02*
X113920552Y-125092858D01*
X114606267Y-125607144D02*
X114663409Y-125492858D01*
X114663409Y-125492858D02*
X114663409Y-125207144D01*
X114663409Y-125207144D02*
X114606267Y-125092858D01*
X114606267Y-125092858D02*
X114491981Y-125035715D01*
X114491981Y-125035715D02*
X114377695Y-125035715D01*
X114377695Y-125035715D02*
X114263409Y-125092858D01*
X114263409Y-125092858D02*
X114206267Y-125207144D01*
X114206267Y-125207144D02*
X114206267Y-125492858D01*
X114206267Y-125492858D02*
X114149124Y-125607144D01*
X114663409Y-126692858D02*
X113463409Y-126692858D01*
X114606267Y-126692858D02*
X114663409Y-126578572D01*
X114663409Y-126578572D02*
X114663409Y-126350000D01*
X114663409Y-126350000D02*
X114606267Y-126235715D01*
X114606267Y-126235715D02*
X114549124Y-126178572D01*
X114549124Y-126178572D02*
X114434838Y-126121429D01*
X114434838Y-126121429D02*
X114091981Y-126121429D01*
X114091981Y-126121429D02*
X113977695Y-126178572D01*
X113977695Y-126178572D02*
X113920552Y-126235715D01*
X113920552Y-126235715D02*
X113863409Y-126350000D01*
X113863409Y-126350000D02*
X113863409Y-126578572D01*
X113863409Y-126578572D02*
X113920552Y-126692858D01*
X114549124Y-128864286D02*
X114606267Y-128807143D01*
X114606267Y-128807143D02*
X114663409Y-128635715D01*
X114663409Y-128635715D02*
X114663409Y-128521429D01*
X114663409Y-128521429D02*
X114606267Y-128350000D01*
X114606267Y-128350000D02*
X114491981Y-128235715D01*
X114491981Y-128235715D02*
X114377695Y-128178572D01*
X114377695Y-128178572D02*
X114149124Y-128121429D01*
X114149124Y-128121429D02*
X113977695Y-128121429D01*
X113977695Y-128121429D02*
X113749124Y-128178572D01*
X113749124Y-128178572D02*
X113634838Y-128235715D01*
X113634838Y-128235715D02*
X113520552Y-128350000D01*
X113520552Y-128350000D02*
X113463409Y-128521429D01*
X113463409Y-128521429D02*
X113463409Y-128635715D01*
X113463409Y-128635715D02*
X113520552Y-128807143D01*
X113520552Y-128807143D02*
X113577695Y-128864286D01*
X114606267Y-129835715D02*
X114663409Y-129721429D01*
X114663409Y-129721429D02*
X114663409Y-129492858D01*
X114663409Y-129492858D02*
X114606267Y-129378572D01*
X114606267Y-129378572D02*
X114491981Y-129321429D01*
X114491981Y-129321429D02*
X114034838Y-129321429D01*
X114034838Y-129321429D02*
X113920552Y-129378572D01*
X113920552Y-129378572D02*
X113863409Y-129492858D01*
X113863409Y-129492858D02*
X113863409Y-129721429D01*
X113863409Y-129721429D02*
X113920552Y-129835715D01*
X113920552Y-129835715D02*
X114034838Y-129892858D01*
X114034838Y-129892858D02*
X114149124Y-129892858D01*
X114149124Y-129892858D02*
X114263409Y-129321429D01*
X114663409Y-130578571D02*
X114606267Y-130464286D01*
X114606267Y-130464286D02*
X114491981Y-130407143D01*
X114491981Y-130407143D02*
X113463409Y-130407143D01*
X114663409Y-131207142D02*
X114606267Y-131092857D01*
X114606267Y-131092857D02*
X114491981Y-131035714D01*
X114491981Y-131035714D02*
X113463409Y-131035714D01*
X114663409Y-132578571D02*
X113463409Y-132578571D01*
X113463409Y-132578571D02*
X114320552Y-132978571D01*
X114320552Y-132978571D02*
X113463409Y-133378571D01*
X113463409Y-133378571D02*
X114663409Y-133378571D01*
X114663409Y-134121428D02*
X114606267Y-134007143D01*
X114606267Y-134007143D02*
X114549124Y-133950000D01*
X114549124Y-133950000D02*
X114434838Y-133892857D01*
X114434838Y-133892857D02*
X114091981Y-133892857D01*
X114091981Y-133892857D02*
X113977695Y-133950000D01*
X113977695Y-133950000D02*
X113920552Y-134007143D01*
X113920552Y-134007143D02*
X113863409Y-134121428D01*
X113863409Y-134121428D02*
X113863409Y-134292857D01*
X113863409Y-134292857D02*
X113920552Y-134407143D01*
X113920552Y-134407143D02*
X113977695Y-134464286D01*
X113977695Y-134464286D02*
X114091981Y-134521428D01*
X114091981Y-134521428D02*
X114434838Y-134521428D01*
X114434838Y-134521428D02*
X114549124Y-134464286D01*
X114549124Y-134464286D02*
X114606267Y-134407143D01*
X114606267Y-134407143D02*
X114663409Y-134292857D01*
X114663409Y-134292857D02*
X114663409Y-134121428D01*
X114663409Y-135550000D02*
X113463409Y-135550000D01*
X114606267Y-135550000D02*
X114663409Y-135435714D01*
X114663409Y-135435714D02*
X114663409Y-135207142D01*
X114663409Y-135207142D02*
X114606267Y-135092857D01*
X114606267Y-135092857D02*
X114549124Y-135035714D01*
X114549124Y-135035714D02*
X114434838Y-134978571D01*
X114434838Y-134978571D02*
X114091981Y-134978571D01*
X114091981Y-134978571D02*
X113977695Y-135035714D01*
X113977695Y-135035714D02*
X113920552Y-135092857D01*
X113920552Y-135092857D02*
X113863409Y-135207142D01*
X113863409Y-135207142D02*
X113863409Y-135435714D01*
X113863409Y-135435714D02*
X113920552Y-135550000D01*
X113863409Y-136635714D02*
X114663409Y-136635714D01*
X113863409Y-136121428D02*
X114491981Y-136121428D01*
X114491981Y-136121428D02*
X114606267Y-136178571D01*
X114606267Y-136178571D02*
X114663409Y-136292856D01*
X114663409Y-136292856D02*
X114663409Y-136464285D01*
X114663409Y-136464285D02*
X114606267Y-136578571D01*
X114606267Y-136578571D02*
X114549124Y-136635714D01*
X114663409Y-137378570D02*
X114606267Y-137264285D01*
X114606267Y-137264285D02*
X114491981Y-137207142D01*
X114491981Y-137207142D02*
X113463409Y-137207142D01*
X114606267Y-138292856D02*
X114663409Y-138178570D01*
X114663409Y-138178570D02*
X114663409Y-137949999D01*
X114663409Y-137949999D02*
X114606267Y-137835713D01*
X114606267Y-137835713D02*
X114491981Y-137778570D01*
X114491981Y-137778570D02*
X114034838Y-137778570D01*
X114034838Y-137778570D02*
X113920552Y-137835713D01*
X113920552Y-137835713D02*
X113863409Y-137949999D01*
X113863409Y-137949999D02*
X113863409Y-138178570D01*
X113863409Y-138178570D02*
X113920552Y-138292856D01*
X113920552Y-138292856D02*
X114034838Y-138349999D01*
X114034838Y-138349999D02*
X114149124Y-138349999D01*
X114149124Y-138349999D02*
X114263409Y-137778570D01*
X116595342Y-106921430D02*
X115395342Y-106921430D01*
X116595342Y-107435716D02*
X115966771Y-107435716D01*
X115966771Y-107435716D02*
X115852485Y-107378573D01*
X115852485Y-107378573D02*
X115795342Y-107264287D01*
X115795342Y-107264287D02*
X115795342Y-107092858D01*
X115795342Y-107092858D02*
X115852485Y-106978573D01*
X115852485Y-106978573D02*
X115909628Y-106921430D01*
X115795342Y-107835715D02*
X115795342Y-108292858D01*
X115395342Y-108007144D02*
X116423914Y-108007144D01*
X116423914Y-108007144D02*
X116538200Y-108064287D01*
X116538200Y-108064287D02*
X116595342Y-108178572D01*
X116595342Y-108178572D02*
X116595342Y-108292858D01*
X115795342Y-108521429D02*
X115795342Y-108978572D01*
X115395342Y-108692858D02*
X116423914Y-108692858D01*
X116423914Y-108692858D02*
X116538200Y-108750001D01*
X116538200Y-108750001D02*
X116595342Y-108864286D01*
X116595342Y-108864286D02*
X116595342Y-108978572D01*
X115795342Y-109378572D02*
X116995342Y-109378572D01*
X115852485Y-109378572D02*
X115795342Y-109492858D01*
X115795342Y-109492858D02*
X115795342Y-109721429D01*
X115795342Y-109721429D02*
X115852485Y-109835715D01*
X115852485Y-109835715D02*
X115909628Y-109892858D01*
X115909628Y-109892858D02*
X116023914Y-109950000D01*
X116023914Y-109950000D02*
X116366771Y-109950000D01*
X116366771Y-109950000D02*
X116481057Y-109892858D01*
X116481057Y-109892858D02*
X116538200Y-109835715D01*
X116538200Y-109835715D02*
X116595342Y-109721429D01*
X116595342Y-109721429D02*
X116595342Y-109492858D01*
X116595342Y-109492858D02*
X116538200Y-109378572D01*
X116538200Y-110407143D02*
X116595342Y-110521429D01*
X116595342Y-110521429D02*
X116595342Y-110750000D01*
X116595342Y-110750000D02*
X116538200Y-110864286D01*
X116538200Y-110864286D02*
X116423914Y-110921429D01*
X116423914Y-110921429D02*
X116366771Y-110921429D01*
X116366771Y-110921429D02*
X116252485Y-110864286D01*
X116252485Y-110864286D02*
X116195342Y-110750000D01*
X116195342Y-110750000D02*
X116195342Y-110578572D01*
X116195342Y-110578572D02*
X116138200Y-110464286D01*
X116138200Y-110464286D02*
X116023914Y-110407143D01*
X116023914Y-110407143D02*
X115966771Y-110407143D01*
X115966771Y-110407143D02*
X115852485Y-110464286D01*
X115852485Y-110464286D02*
X115795342Y-110578572D01*
X115795342Y-110578572D02*
X115795342Y-110750000D01*
X115795342Y-110750000D02*
X115852485Y-110864286D01*
X116481057Y-111435715D02*
X116538200Y-111492858D01*
X116538200Y-111492858D02*
X116595342Y-111435715D01*
X116595342Y-111435715D02*
X116538200Y-111378572D01*
X116538200Y-111378572D02*
X116481057Y-111435715D01*
X116481057Y-111435715D02*
X116595342Y-111435715D01*
X115852485Y-111435715D02*
X115909628Y-111492858D01*
X115909628Y-111492858D02*
X115966771Y-111435715D01*
X115966771Y-111435715D02*
X115909628Y-111378572D01*
X115909628Y-111378572D02*
X115852485Y-111435715D01*
X115852485Y-111435715D02*
X115966771Y-111435715D01*
X115338200Y-112864287D02*
X116881057Y-111835715D01*
X115338200Y-114121430D02*
X116881057Y-113092858D01*
X115795342Y-115035716D02*
X116766771Y-115035716D01*
X116766771Y-115035716D02*
X116881057Y-114978573D01*
X116881057Y-114978573D02*
X116938200Y-114921430D01*
X116938200Y-114921430D02*
X116995342Y-114807144D01*
X116995342Y-114807144D02*
X116995342Y-114635716D01*
X116995342Y-114635716D02*
X116938200Y-114521430D01*
X116538200Y-115035716D02*
X116595342Y-114921430D01*
X116595342Y-114921430D02*
X116595342Y-114692858D01*
X116595342Y-114692858D02*
X116538200Y-114578573D01*
X116538200Y-114578573D02*
X116481057Y-114521430D01*
X116481057Y-114521430D02*
X116366771Y-114464287D01*
X116366771Y-114464287D02*
X116023914Y-114464287D01*
X116023914Y-114464287D02*
X115909628Y-114521430D01*
X115909628Y-114521430D02*
X115852485Y-114578573D01*
X115852485Y-114578573D02*
X115795342Y-114692858D01*
X115795342Y-114692858D02*
X115795342Y-114921430D01*
X115795342Y-114921430D02*
X115852485Y-115035716D01*
X116595342Y-115607144D02*
X115795342Y-115607144D01*
X115395342Y-115607144D02*
X115452485Y-115550001D01*
X115452485Y-115550001D02*
X115509628Y-115607144D01*
X115509628Y-115607144D02*
X115452485Y-115664287D01*
X115452485Y-115664287D02*
X115395342Y-115607144D01*
X115395342Y-115607144D02*
X115509628Y-115607144D01*
X115795342Y-116007144D02*
X115795342Y-116464287D01*
X115395342Y-116178573D02*
X116423914Y-116178573D01*
X116423914Y-116178573D02*
X116538200Y-116235716D01*
X116538200Y-116235716D02*
X116595342Y-116350001D01*
X116595342Y-116350001D02*
X116595342Y-116464287D01*
X116595342Y-116864287D02*
X115395342Y-116864287D01*
X116595342Y-117378573D02*
X115966771Y-117378573D01*
X115966771Y-117378573D02*
X115852485Y-117321430D01*
X115852485Y-117321430D02*
X115795342Y-117207144D01*
X115795342Y-117207144D02*
X115795342Y-117035715D01*
X115795342Y-117035715D02*
X115852485Y-116921430D01*
X115852485Y-116921430D02*
X115909628Y-116864287D01*
X115795342Y-118464287D02*
X116595342Y-118464287D01*
X115795342Y-117950001D02*
X116423914Y-117950001D01*
X116423914Y-117950001D02*
X116538200Y-118007144D01*
X116538200Y-118007144D02*
X116595342Y-118121429D01*
X116595342Y-118121429D02*
X116595342Y-118292858D01*
X116595342Y-118292858D02*
X116538200Y-118407144D01*
X116538200Y-118407144D02*
X116481057Y-118464287D01*
X116595342Y-119035715D02*
X115395342Y-119035715D01*
X115852485Y-119035715D02*
X115795342Y-119150001D01*
X115795342Y-119150001D02*
X115795342Y-119378572D01*
X115795342Y-119378572D02*
X115852485Y-119492858D01*
X115852485Y-119492858D02*
X115909628Y-119550001D01*
X115909628Y-119550001D02*
X116023914Y-119607143D01*
X116023914Y-119607143D02*
X116366771Y-119607143D01*
X116366771Y-119607143D02*
X116481057Y-119550001D01*
X116481057Y-119550001D02*
X116538200Y-119492858D01*
X116538200Y-119492858D02*
X116595342Y-119378572D01*
X116595342Y-119378572D02*
X116595342Y-119150001D01*
X116595342Y-119150001D02*
X116538200Y-119035715D01*
X116481057Y-120121429D02*
X116538200Y-120178572D01*
X116538200Y-120178572D02*
X116595342Y-120121429D01*
X116595342Y-120121429D02*
X116538200Y-120064286D01*
X116538200Y-120064286D02*
X116481057Y-120121429D01*
X116481057Y-120121429D02*
X116595342Y-120121429D01*
X116538200Y-121207144D02*
X116595342Y-121092858D01*
X116595342Y-121092858D02*
X116595342Y-120864286D01*
X116595342Y-120864286D02*
X116538200Y-120750001D01*
X116538200Y-120750001D02*
X116481057Y-120692858D01*
X116481057Y-120692858D02*
X116366771Y-120635715D01*
X116366771Y-120635715D02*
X116023914Y-120635715D01*
X116023914Y-120635715D02*
X115909628Y-120692858D01*
X115909628Y-120692858D02*
X115852485Y-120750001D01*
X115852485Y-120750001D02*
X115795342Y-120864286D01*
X115795342Y-120864286D02*
X115795342Y-121092858D01*
X115795342Y-121092858D02*
X115852485Y-121207144D01*
X116595342Y-121892857D02*
X116538200Y-121778572D01*
X116538200Y-121778572D02*
X116481057Y-121721429D01*
X116481057Y-121721429D02*
X116366771Y-121664286D01*
X116366771Y-121664286D02*
X116023914Y-121664286D01*
X116023914Y-121664286D02*
X115909628Y-121721429D01*
X115909628Y-121721429D02*
X115852485Y-121778572D01*
X115852485Y-121778572D02*
X115795342Y-121892857D01*
X115795342Y-121892857D02*
X115795342Y-122064286D01*
X115795342Y-122064286D02*
X115852485Y-122178572D01*
X115852485Y-122178572D02*
X115909628Y-122235715D01*
X115909628Y-122235715D02*
X116023914Y-122292857D01*
X116023914Y-122292857D02*
X116366771Y-122292857D01*
X116366771Y-122292857D02*
X116481057Y-122235715D01*
X116481057Y-122235715D02*
X116538200Y-122178572D01*
X116538200Y-122178572D02*
X116595342Y-122064286D01*
X116595342Y-122064286D02*
X116595342Y-121892857D01*
X116595342Y-122807143D02*
X115795342Y-122807143D01*
X115909628Y-122807143D02*
X115852485Y-122864286D01*
X115852485Y-122864286D02*
X115795342Y-122978571D01*
X115795342Y-122978571D02*
X115795342Y-123150000D01*
X115795342Y-123150000D02*
X115852485Y-123264286D01*
X115852485Y-123264286D02*
X115966771Y-123321429D01*
X115966771Y-123321429D02*
X116595342Y-123321429D01*
X115966771Y-123321429D02*
X115852485Y-123378571D01*
X115852485Y-123378571D02*
X115795342Y-123492857D01*
X115795342Y-123492857D02*
X115795342Y-123664286D01*
X115795342Y-123664286D02*
X115852485Y-123778571D01*
X115852485Y-123778571D02*
X115966771Y-123835714D01*
X115966771Y-123835714D02*
X116595342Y-123835714D01*
X115338200Y-125264286D02*
X116881057Y-124235714D01*
X116595342Y-125664286D02*
X115795342Y-125664286D01*
X115909628Y-125664286D02*
X115852485Y-125721429D01*
X115852485Y-125721429D02*
X115795342Y-125835714D01*
X115795342Y-125835714D02*
X115795342Y-126007143D01*
X115795342Y-126007143D02*
X115852485Y-126121429D01*
X115852485Y-126121429D02*
X115966771Y-126178572D01*
X115966771Y-126178572D02*
X116595342Y-126178572D01*
X115966771Y-126178572D02*
X115852485Y-126235714D01*
X115852485Y-126235714D02*
X115795342Y-126350000D01*
X115795342Y-126350000D02*
X115795342Y-126521429D01*
X115795342Y-126521429D02*
X115852485Y-126635714D01*
X115852485Y-126635714D02*
X115966771Y-126692857D01*
X115966771Y-126692857D02*
X116595342Y-126692857D01*
X115795342Y-127778572D02*
X116595342Y-127778572D01*
X115795342Y-127264286D02*
X116423914Y-127264286D01*
X116423914Y-127264286D02*
X116538200Y-127321429D01*
X116538200Y-127321429D02*
X116595342Y-127435714D01*
X116595342Y-127435714D02*
X116595342Y-127607143D01*
X116595342Y-127607143D02*
X116538200Y-127721429D01*
X116538200Y-127721429D02*
X116481057Y-127778572D01*
X116595342Y-128521428D02*
X116538200Y-128407143D01*
X116538200Y-128407143D02*
X116423914Y-128350000D01*
X116423914Y-128350000D02*
X115395342Y-128350000D01*
X116538200Y-129492857D02*
X116595342Y-129378571D01*
X116595342Y-129378571D02*
X116595342Y-129149999D01*
X116595342Y-129149999D02*
X116538200Y-129035714D01*
X116538200Y-129035714D02*
X116481057Y-128978571D01*
X116481057Y-128978571D02*
X116366771Y-128921428D01*
X116366771Y-128921428D02*
X116023914Y-128921428D01*
X116023914Y-128921428D02*
X115909628Y-128978571D01*
X115909628Y-128978571D02*
X115852485Y-129035714D01*
X115852485Y-129035714D02*
X115795342Y-129149999D01*
X115795342Y-129149999D02*
X115795342Y-129378571D01*
X115795342Y-129378571D02*
X115852485Y-129492857D01*
X116595342Y-130007142D02*
X115795342Y-130007142D01*
X115909628Y-130007142D02*
X115852485Y-130064285D01*
X115852485Y-130064285D02*
X115795342Y-130178570D01*
X115795342Y-130178570D02*
X115795342Y-130349999D01*
X115795342Y-130349999D02*
X115852485Y-130464285D01*
X115852485Y-130464285D02*
X115966771Y-130521428D01*
X115966771Y-130521428D02*
X116595342Y-130521428D01*
X115966771Y-130521428D02*
X115852485Y-130578570D01*
X115852485Y-130578570D02*
X115795342Y-130692856D01*
X115795342Y-130692856D02*
X115795342Y-130864285D01*
X115795342Y-130864285D02*
X115852485Y-130978570D01*
X115852485Y-130978570D02*
X115966771Y-131035713D01*
X115966771Y-131035713D02*
X116595342Y-131035713D01*
X115795342Y-132121428D02*
X116595342Y-132121428D01*
X115795342Y-131607142D02*
X116423914Y-131607142D01*
X116423914Y-131607142D02*
X116538200Y-131664285D01*
X116538200Y-131664285D02*
X116595342Y-131778570D01*
X116595342Y-131778570D02*
X116595342Y-131949999D01*
X116595342Y-131949999D02*
X116538200Y-132064285D01*
X116538200Y-132064285D02*
X116481057Y-132121428D01*
X115338200Y-133549999D02*
X116881057Y-132521427D01*
X115795342Y-133949999D02*
X116995342Y-133949999D01*
X115852485Y-133949999D02*
X115795342Y-134064285D01*
X115795342Y-134064285D02*
X115795342Y-134292856D01*
X115795342Y-134292856D02*
X115852485Y-134407142D01*
X115852485Y-134407142D02*
X115909628Y-134464285D01*
X115909628Y-134464285D02*
X116023914Y-134521427D01*
X116023914Y-134521427D02*
X116366771Y-134521427D01*
X116366771Y-134521427D02*
X116481057Y-134464285D01*
X116481057Y-134464285D02*
X116538200Y-134407142D01*
X116538200Y-134407142D02*
X116595342Y-134292856D01*
X116595342Y-134292856D02*
X116595342Y-134064285D01*
X116595342Y-134064285D02*
X116538200Y-133949999D01*
X116595342Y-135207141D02*
X116538200Y-135092856D01*
X116538200Y-135092856D02*
X116423914Y-135035713D01*
X116423914Y-135035713D02*
X115395342Y-135035713D01*
X116595342Y-135664284D02*
X115795342Y-135664284D01*
X115395342Y-135664284D02*
X115452485Y-135607141D01*
X115452485Y-135607141D02*
X115509628Y-135664284D01*
X115509628Y-135664284D02*
X115452485Y-135721427D01*
X115452485Y-135721427D02*
X115395342Y-135664284D01*
X115395342Y-135664284D02*
X115509628Y-135664284D01*
X116595342Y-136235713D02*
X115795342Y-136235713D01*
X115909628Y-136235713D02*
X115852485Y-136292856D01*
X115852485Y-136292856D02*
X115795342Y-136407141D01*
X115795342Y-136407141D02*
X115795342Y-136578570D01*
X115795342Y-136578570D02*
X115852485Y-136692856D01*
X115852485Y-136692856D02*
X115966771Y-136749999D01*
X115966771Y-136749999D02*
X116595342Y-136749999D01*
X115966771Y-136749999D02*
X115852485Y-136807141D01*
X115852485Y-136807141D02*
X115795342Y-136921427D01*
X115795342Y-136921427D02*
X115795342Y-137092856D01*
X115795342Y-137092856D02*
X115852485Y-137207141D01*
X115852485Y-137207141D02*
X115966771Y-137264284D01*
X115966771Y-137264284D02*
X116595342Y-137264284D01*
X116538200Y-137778570D02*
X116595342Y-137892856D01*
X116595342Y-137892856D02*
X116595342Y-138121427D01*
X116595342Y-138121427D02*
X116538200Y-138235713D01*
X116538200Y-138235713D02*
X116423914Y-138292856D01*
X116423914Y-138292856D02*
X116366771Y-138292856D01*
X116366771Y-138292856D02*
X116252485Y-138235713D01*
X116252485Y-138235713D02*
X116195342Y-138121427D01*
X116195342Y-138121427D02*
X116195342Y-137949999D01*
X116195342Y-137949999D02*
X116138200Y-137835713D01*
X116138200Y-137835713D02*
X116023914Y-137778570D01*
X116023914Y-137778570D02*
X115966771Y-137778570D01*
X115966771Y-137778570D02*
X115852485Y-137835713D01*
X115852485Y-137835713D02*
X115795342Y-137949999D01*
X115795342Y-137949999D02*
X115795342Y-138121427D01*
X115795342Y-138121427D02*
X115852485Y-138235713D01*
X116595342Y-138978570D02*
X116538200Y-138864285D01*
X116538200Y-138864285D02*
X116481057Y-138807142D01*
X116481057Y-138807142D02*
X116366771Y-138749999D01*
X116366771Y-138749999D02*
X116023914Y-138749999D01*
X116023914Y-138749999D02*
X115909628Y-138807142D01*
X115909628Y-138807142D02*
X115852485Y-138864285D01*
X115852485Y-138864285D02*
X115795342Y-138978570D01*
X115795342Y-138978570D02*
X115795342Y-139149999D01*
X115795342Y-139149999D02*
X115852485Y-139264285D01*
X115852485Y-139264285D02*
X115909628Y-139321428D01*
X115909628Y-139321428D02*
X116023914Y-139378570D01*
X116023914Y-139378570D02*
X116366771Y-139378570D01*
X116366771Y-139378570D02*
X116481057Y-139321428D01*
X116481057Y-139321428D02*
X116538200Y-139264285D01*
X116538200Y-139264285D02*
X116595342Y-139149999D01*
X116595342Y-139149999D02*
X116595342Y-138978570D01*
X116595342Y-140064284D02*
X116538200Y-139949999D01*
X116538200Y-139949999D02*
X116423914Y-139892856D01*
X116423914Y-139892856D02*
X115395342Y-139892856D01*
X116595342Y-140692855D02*
X116538200Y-140578570D01*
X116538200Y-140578570D02*
X116423914Y-140521427D01*
X116423914Y-140521427D02*
X115395342Y-140521427D01*
%LPC*%
D12*
%TO.C,H4*%
X138000000Y-146000000D03*
%TD*%
%TO.C,H3*%
X138000000Y-104000000D03*
%TD*%
D13*
%TO.C,J1*%
X136710000Y-131325000D03*
D14*
X139250000Y-131325000D03*
X136710000Y-128785000D03*
X139250000Y-128785000D03*
X136710000Y-126245000D03*
X139250000Y-126245000D03*
X136710000Y-123705000D03*
X139250000Y-123705000D03*
X136710000Y-121165000D03*
X139250000Y-121165000D03*
X136710000Y-118625000D03*
X139250000Y-118625000D03*
%TD*%
D15*
%TO.C,LC3*%
X103475000Y-136750000D03*
D16*
X103475000Y-134250000D03*
X103475000Y-131750000D03*
X103475000Y-129250000D03*
%TD*%
D17*
%TO.C,LC4*%
X120000000Y-146525000D03*
D18*
X117500000Y-146525000D03*
X115000000Y-146525000D03*
X112500000Y-146525000D03*
%TD*%
D12*
%TO.C,H1*%
X104000000Y-104000000D03*
%TD*%
D19*
%TO.C,LC2*%
X104525000Y-113250000D03*
D16*
X104525000Y-115750000D03*
X104525000Y-118250000D03*
X104525000Y-120750000D03*
%TD*%
D12*
%TO.C,H2*%
X104000000Y-146000000D03*
%TD*%
D20*
%TO.C,LC1*%
X112500000Y-103475000D03*
D18*
X115000000Y-103475000D03*
X117500000Y-103475000D03*
X120000000Y-103475000D03*
%TD*%
%LPD*%
M02*
