%TF.GenerationSoftware,KiCad,Pcbnew,9.0.6*%
%TF.CreationDate,2025-12-29T21:08:54-05:00*%
%TF.ProjectId,plimsoll,706c696d-736f-46c6-9c2e-6b696361645f,rev?*%
%TF.SameCoordinates,Original*%
%TF.FileFunction,Soldermask,Top*%
%TF.FilePolarity,Negative*%
%FSLAX46Y46*%
G04 Gerber Fmt 4.6, Leading zero omitted, Abs format (unit mm)*
G04 Created by KiCad (PCBNEW 9.0.6) date 2025-12-29 21:08:54*
%MOMM*%
%LPD*%
G01*
G04 APERTURE LIST*
G04 Aperture macros list*
%AMRoundRect*
0 Rectangle with rounded corners*
0 $1 Rounding radius*
0 $2 $3 $4 $5 $6 $7 $8 $9 X,Y pos of 4 corners*
0 Add a 4 corners polygon primitive as box body*
4,1,4,$2,$3,$4,$5,$6,$7,$8,$9,$2,$3,0*
0 Add four circle primitives for the rounded corners*
1,1,$1+$1,$2,$3*
1,1,$1+$1,$4,$5*
1,1,$1+$1,$6,$7*
1,1,$1+$1,$8,$9*
0 Add four rect primitives between the rounded corners*
20,1,$1+$1,$2,$3,$4,$5,0*
20,1,$1+$1,$4,$5,$6,$7,0*
20,1,$1+$1,$6,$7,$8,$9,0*
20,1,$1+$1,$8,$9,$2,$3,0*%
%AMFreePoly0*
4,1,23,0.550000,-0.750000,0.000000,-0.750000,0.000000,-0.745722,-0.065263,-0.745722,-0.191342,-0.711940,-0.304381,-0.646677,-0.396677,-0.554381,-0.461940,-0.441342,-0.495722,-0.315263,-0.495722,-0.250000,-0.500000,-0.250000,-0.500000,0.250000,-0.495722,0.250000,-0.495722,0.315263,-0.461940,0.441342,-0.396677,0.554381,-0.304381,0.646677,-0.191342,0.711940,-0.065263,0.745722,0.000000,0.745722,
0.000000,0.750000,0.550000,0.750000,0.550000,-0.750000,0.550000,-0.750000,$1*%
%AMFreePoly1*
4,1,23,0.000000,0.745722,0.065263,0.745722,0.191342,0.711940,0.304381,0.646677,0.396677,0.554381,0.461940,0.441342,0.495722,0.315263,0.495722,0.250000,0.500000,0.250000,0.500000,-0.250000,0.495722,-0.250000,0.495722,-0.315263,0.461940,-0.441342,0.396677,-0.554381,0.304381,-0.646677,0.191342,-0.711940,0.065263,-0.745722,0.000000,-0.745722,0.000000,-0.750000,-0.550000,-0.750000,
-0.550000,0.750000,0.000000,0.750000,0.000000,0.745722,0.000000,0.745722,$1*%
G04 Aperture macros list end*
%ADD10RoundRect,0.200000X0.200000X0.275000X-0.200000X0.275000X-0.200000X-0.275000X0.200000X-0.275000X0*%
%ADD11RoundRect,0.250000X0.475000X-0.250000X0.475000X0.250000X-0.475000X0.250000X-0.475000X-0.250000X0*%
%ADD12RoundRect,0.225000X-0.225000X-0.250000X0.225000X-0.250000X0.225000X0.250000X-0.225000X0.250000X0*%
%ADD13RoundRect,0.100000X-0.637500X-0.100000X0.637500X-0.100000X0.637500X0.100000X-0.637500X0.100000X0*%
%ADD14RoundRect,0.225000X0.250000X-0.225000X0.250000X0.225000X-0.250000X0.225000X-0.250000X-0.225000X0*%
%ADD15RoundRect,0.200000X-0.200000X-0.275000X0.200000X-0.275000X0.200000X0.275000X-0.200000X0.275000X0*%
%ADD16RoundRect,0.225000X-0.250000X0.225000X-0.250000X-0.225000X0.250000X-0.225000X0.250000X0.225000X0*%
%ADD17R,1.700000X1.700000*%
%ADD18C,1.700000*%
%ADD19FreePoly0,270.000000*%
%ADD20R,1.500000X1.000000*%
%ADD21FreePoly1,270.000000*%
%ADD22RoundRect,0.200000X0.275000X-0.200000X0.275000X0.200000X-0.275000X0.200000X-0.275000X-0.200000X0*%
%ADD23RoundRect,0.250000X0.250000X0.475000X-0.250000X0.475000X-0.250000X-0.475000X0.250000X-0.475000X0*%
%ADD24RoundRect,0.250000X0.725000X-0.600000X0.725000X0.600000X-0.725000X0.600000X-0.725000X-0.600000X0*%
%ADD25O,1.950000X1.700000*%
%ADD26RoundRect,0.225000X0.225000X0.250000X-0.225000X0.250000X-0.225000X-0.250000X0.225000X-0.250000X0*%
%ADD27RoundRect,0.250000X0.600000X0.725000X-0.600000X0.725000X-0.600000X-0.725000X0.600000X-0.725000X0*%
%ADD28O,1.700000X1.950000*%
%ADD29RoundRect,0.200000X0.250000X0.200000X-0.250000X0.200000X-0.250000X-0.200000X0.250000X-0.200000X0*%
%ADD30RoundRect,0.200000X-0.275000X0.200000X-0.275000X-0.200000X0.275000X-0.200000X0.275000X0.200000X0*%
%ADD31RoundRect,0.250000X-0.725000X0.600000X-0.725000X-0.600000X0.725000X-0.600000X0.725000X0.600000X0*%
%ADD32RoundRect,0.150000X0.512500X0.150000X-0.512500X0.150000X-0.512500X-0.150000X0.512500X-0.150000X0*%
%ADD33RoundRect,0.250000X-0.600000X-0.725000X0.600000X-0.725000X0.600000X0.725000X-0.600000X0.725000X0*%
G04 APERTURE END LIST*
%TO.C,JP1*%
G36*
X130750000Y-122950000D02*
G01*
X129250000Y-122950000D01*
X129250000Y-124450000D01*
X130750000Y-124450000D01*
X130750000Y-122950000D01*
G37*
%TD*%
D10*
%TO.C,R5*%
X110000000Y-129250000D03*
X108350000Y-129250000D03*
%TD*%
D11*
%TO.C,C16*%
X130275000Y-117000000D03*
X130275000Y-115100000D03*
%TD*%
D12*
%TO.C,C20*%
X122225000Y-120000000D03*
X123775000Y-120000000D03*
%TD*%
D13*
%TO.C,U1*%
X120000000Y-121700000D03*
X120000000Y-122350000D03*
X120000000Y-123000000D03*
X120000000Y-123650000D03*
X120000000Y-124300000D03*
X120000000Y-124950000D03*
X120000000Y-125600000D03*
X120000000Y-126250000D03*
X120000000Y-126900000D03*
X120000000Y-127550000D03*
X125725000Y-127550000D03*
X125725000Y-126900000D03*
X125725000Y-126250000D03*
X125725000Y-125600000D03*
X125725000Y-124950000D03*
X125725000Y-124300000D03*
X125725000Y-123650000D03*
X125725000Y-123000000D03*
X125725000Y-122350000D03*
X125725000Y-121700000D03*
%TD*%
D14*
%TO.C,C13*%
X126000000Y-120275000D03*
X126000000Y-118725000D03*
%TD*%
D15*
%TO.C,R9*%
X124350000Y-129000000D03*
X126000000Y-129000000D03*
%TD*%
D14*
%TO.C,C23*%
X108425000Y-136750000D03*
X108425000Y-135200000D03*
%TD*%
D16*
%TO.C,C2*%
X115750000Y-108225000D03*
X115750000Y-109775000D03*
%TD*%
D17*
%TO.C,J1*%
X136710000Y-131325000D03*
D18*
X139250000Y-131325000D03*
X136710000Y-128785000D03*
X139250000Y-128785000D03*
X136710000Y-126245000D03*
X139250000Y-126245000D03*
X136710000Y-123705000D03*
X139250000Y-123705000D03*
X136710000Y-121165000D03*
X139250000Y-121165000D03*
X136710000Y-118625000D03*
X139250000Y-118625000D03*
%TD*%
D19*
%TO.C,JP1*%
X130000000Y-122400000D03*
D20*
X130000000Y-123700000D03*
D21*
X130000000Y-125000000D03*
%TD*%
D22*
%TO.C,R1*%
X120000000Y-109825000D03*
X120000000Y-108175000D03*
%TD*%
D16*
%TO.C,C1*%
X121750000Y-108200000D03*
X121750000Y-109750000D03*
%TD*%
D14*
%TO.C,C15*%
X127750000Y-122750000D03*
X127750000Y-121200000D03*
%TD*%
D23*
%TO.C,C19*%
X123950000Y-118000000D03*
X122050000Y-118000000D03*
%TD*%
D12*
%TO.C,C9*%
X117975000Y-111500000D03*
X119525000Y-111500000D03*
%TD*%
D24*
%TO.C,LC3*%
X103475000Y-136750000D03*
D25*
X103475000Y-134250000D03*
X103475000Y-131750000D03*
X103475000Y-129250000D03*
%TD*%
D14*
%TO.C,C8*%
X116750000Y-141700000D03*
X116750000Y-140150000D03*
%TD*%
D12*
%TO.C,C3*%
X108300000Y-122500000D03*
X109850000Y-122500000D03*
%TD*%
D10*
%TO.C,R6*%
X110000000Y-131750000D03*
X108350000Y-131750000D03*
%TD*%
D26*
%TO.C,C24*%
X120275000Y-141675000D03*
X118725000Y-141675000D03*
%TD*%
D22*
%TO.C,R10*%
X132750000Y-120750000D03*
X132750000Y-119100000D03*
%TD*%
D27*
%TO.C,LC4*%
X120000000Y-146525000D03*
D28*
X117500000Y-146525000D03*
X115000000Y-146525000D03*
X112500000Y-146525000D03*
%TD*%
D29*
%TO.C,Y1*%
X131000000Y-119300000D03*
X129500000Y-119300000D03*
X129500000Y-120500000D03*
X131000000Y-120500000D03*
%TD*%
D26*
%TO.C,C12*%
X114550000Y-138500000D03*
X113000000Y-138500000D03*
%TD*%
D12*
%TO.C,C5*%
X108400000Y-127500000D03*
X109950000Y-127500000D03*
%TD*%
D22*
%TO.C,R2*%
X117500000Y-109825000D03*
X117500000Y-108175000D03*
%TD*%
D10*
%TO.C,R4*%
X109900000Y-118250000D03*
X108250000Y-118250000D03*
%TD*%
D30*
%TO.C,R7*%
X112500000Y-140100000D03*
X112500000Y-141750000D03*
%TD*%
D16*
%TO.C,C10*%
X111500000Y-118725000D03*
X111500000Y-120275000D03*
%TD*%
D30*
%TO.C,R8*%
X115000000Y-140100000D03*
X115000000Y-141750000D03*
%TD*%
D16*
%TO.C,C22*%
X108325000Y-113200000D03*
X108325000Y-114750000D03*
%TD*%
D26*
%TO.C,C14*%
X123550000Y-114000000D03*
X122000000Y-114000000D03*
%TD*%
D23*
%TO.C,C18*%
X123950000Y-116000000D03*
X122050000Y-116000000D03*
%TD*%
D16*
%TO.C,C17*%
X132750000Y-122250000D03*
X132750000Y-123800000D03*
%TD*%
D12*
%TO.C,C21*%
X112475000Y-108250000D03*
X114025000Y-108250000D03*
%TD*%
D31*
%TO.C,LC2*%
X104525000Y-113250000D03*
D25*
X104525000Y-115750000D03*
X104525000Y-118250000D03*
X104525000Y-120750000D03*
%TD*%
D12*
%TO.C,C6*%
X108400000Y-133500000D03*
X109950000Y-133500000D03*
%TD*%
D14*
%TO.C,C7*%
X110750000Y-141700000D03*
X110750000Y-140150000D03*
%TD*%
D32*
%TO.C,U2*%
X128275000Y-116950000D03*
X128275000Y-116000000D03*
X128275000Y-115050000D03*
X126000000Y-115050000D03*
X126000000Y-116950000D03*
%TD*%
D12*
%TO.C,C4*%
X108300000Y-116500000D03*
X109850000Y-116500000D03*
%TD*%
D33*
%TO.C,LC1*%
X112500000Y-103475000D03*
D28*
X115000000Y-103475000D03*
X117500000Y-103475000D03*
X120000000Y-103475000D03*
%TD*%
D10*
%TO.C,R3*%
X109900000Y-120750000D03*
X108250000Y-120750000D03*
%TD*%
D14*
%TO.C,C11*%
X111750000Y-131300000D03*
X111750000Y-129750000D03*
%TD*%
M02*
