%TF.GenerationSoftware,KiCad,Pcbnew,9.0.6*%
%TF.CreationDate,2025-12-29T21:08:54-05:00*%
%TF.ProjectId,plimsoll,706c696d-736f-46c6-9c2e-6b696361645f,rev?*%
%TF.SameCoordinates,Original*%
%TF.FileFunction,Copper,L2,Inr*%
%TF.FilePolarity,Positive*%
%FSLAX46Y46*%
G04 Gerber Fmt 4.6, Leading zero omitted, Abs format (unit mm)*
G04 Created by KiCad (PCBNEW 9.0.6) date 2025-12-29 21:08:54*
%MOMM*%
%LPD*%
G01*
G04 APERTURE LIST*
G04 Aperture macros list*
%AMRoundRect*
0 Rectangle with rounded corners*
0 $1 Rounding radius*
0 $2 $3 $4 $5 $6 $7 $8 $9 X,Y pos of 4 corners*
0 Add a 4 corners polygon primitive as box body*
4,1,4,$2,$3,$4,$5,$6,$7,$8,$9,$2,$3,0*
0 Add four circle primitives for the rounded corners*
1,1,$1+$1,$2,$3*
1,1,$1+$1,$4,$5*
1,1,$1+$1,$6,$7*
1,1,$1+$1,$8,$9*
0 Add four rect primitives between the rounded corners*
20,1,$1+$1,$2,$3,$4,$5,0*
20,1,$1+$1,$4,$5,$6,$7,0*
20,1,$1+$1,$6,$7,$8,$9,0*
20,1,$1+$1,$8,$9,$2,$3,0*%
G04 Aperture macros list end*
%TA.AperFunction,ComponentPad*%
%ADD10R,1.700000X1.700000*%
%TD*%
%TA.AperFunction,ComponentPad*%
%ADD11C,1.700000*%
%TD*%
%TA.AperFunction,ComponentPad*%
%ADD12RoundRect,0.250000X0.725000X-0.600000X0.725000X0.600000X-0.725000X0.600000X-0.725000X-0.600000X0*%
%TD*%
%TA.AperFunction,ComponentPad*%
%ADD13O,1.950000X1.700000*%
%TD*%
%TA.AperFunction,ComponentPad*%
%ADD14RoundRect,0.250000X0.600000X0.725000X-0.600000X0.725000X-0.600000X-0.725000X0.600000X-0.725000X0*%
%TD*%
%TA.AperFunction,ComponentPad*%
%ADD15O,1.700000X1.950000*%
%TD*%
%TA.AperFunction,ComponentPad*%
%ADD16RoundRect,0.250000X-0.725000X0.600000X-0.725000X-0.600000X0.725000X-0.600000X0.725000X0.600000X0*%
%TD*%
%TA.AperFunction,ComponentPad*%
%ADD17RoundRect,0.250000X-0.600000X-0.725000X0.600000X-0.725000X0.600000X0.725000X-0.600000X0.725000X0*%
%TD*%
%TA.AperFunction,ViaPad*%
%ADD18C,0.600000*%
%TD*%
G04 APERTURE END LIST*
D10*
%TO.N,+5V*%
%TO.C,J1*%
X136710000Y-131325000D03*
D11*
%TO.N,GND*%
X139250000Y-131325000D03*
%TO.N,/RSET*%
X136710000Y-128785000D03*
%TO.N,GND*%
X139250000Y-128785000D03*
%TO.N,/~{DRDY}*%
X136710000Y-126245000D03*
%TO.N,/~{CS}*%
X139250000Y-126245000D03*
%TO.N,/SCLK*%
X136710000Y-123705000D03*
%TO.N,GND*%
X139250000Y-123705000D03*
%TO.N,/DIN*%
X136710000Y-121165000D03*
%TO.N,/DOUT*%
X139250000Y-121165000D03*
%TO.N,/EXT_CLK*%
X136710000Y-118625000D03*
%TO.N,+3V3*%
X139250000Y-118625000D03*
%TD*%
D12*
%TO.N,+3.3VADC*%
%TO.C,LC3*%
X103475000Y-136750000D03*
D13*
%TO.N,GND*%
X103475000Y-134250000D03*
%TO.N,/LC3_Signal-*%
X103475000Y-131750000D03*
%TO.N,/LC3_Signal+*%
X103475000Y-129250000D03*
%TD*%
D14*
%TO.N,+3.3VADC*%
%TO.C,LC4*%
X120000000Y-146525000D03*
D15*
%TO.N,GND*%
X117500000Y-146525000D03*
%TO.N,/LC4_Signal-*%
X115000000Y-146525000D03*
%TO.N,/LC4_Signal+*%
X112500000Y-146525000D03*
%TD*%
D16*
%TO.N,+3.3VADC*%
%TO.C,LC2*%
X104525000Y-113250000D03*
D13*
%TO.N,GND*%
X104525000Y-115750000D03*
%TO.N,/LC2_Signal-*%
X104525000Y-118250000D03*
%TO.N,/LC2_Signal+*%
X104525000Y-120750000D03*
%TD*%
D17*
%TO.N,+3.3VADC*%
%TO.C,LC1*%
X112500000Y-103475000D03*
D15*
%TO.N,GND*%
X115000000Y-103475000D03*
%TO.N,/LC1_Signal-*%
X117500000Y-103475000D03*
%TO.N,/LC1_Signal+*%
X120000000Y-103475000D03*
%TD*%
D18*
%TO.N,GND*%
X130750000Y-109250000D03*
X140500000Y-135000000D03*
X133500000Y-102000000D03*
X125500000Y-147750000D03*
X133250000Y-147750000D03*
X127000000Y-116000000D03*
X131750000Y-115000000D03*
X129000000Y-102500000D03*
X109500000Y-115000000D03*
X123250000Y-108250000D03*
X121000000Y-116000000D03*
X118750000Y-122250000D03*
X102750000Y-125000000D03*
X129500000Y-116000000D03*
X124600000Y-122500000D03*
X111500000Y-127750000D03*
X108500000Y-148250000D03*
X127000000Y-118000000D03*
X125750000Y-116000000D03*
X131500000Y-124000000D03*
X115000000Y-118500000D03*
X117250000Y-134500000D03*
X136250000Y-135000000D03*
X121000000Y-114000000D03*
X130250000Y-113750000D03*
X121250000Y-122450000D03*
X121000000Y-120000000D03*
X128500000Y-139750000D03*
X128000000Y-119500000D03*
X108250000Y-125500000D03*
X101750000Y-141250000D03*
X127000000Y-122000000D03*
X131750000Y-117500000D03*
X127250000Y-120000000D03*
X131500000Y-121750000D03*
X114500000Y-109500000D03*
X121000000Y-118000000D03*
X123750000Y-133750000D03*
%TO.N,+3.3VADC*%
X122000000Y-112250000D03*
X122750000Y-125500000D03*
X122750000Y-126250000D03*
X123500000Y-112250000D03*
X122750000Y-112250000D03*
X122750000Y-123250000D03*
X122750000Y-124000000D03*
X122750000Y-124750000D03*
%TD*%
%TA.AperFunction,Conductor*%
%TO.N,GND*%
G36*
X141442539Y-100520185D02*
G01*
X141488294Y-100572989D01*
X141499500Y-100624500D01*
X141499500Y-149375500D01*
X141479815Y-149442539D01*
X141427011Y-149488294D01*
X141375500Y-149499500D01*
X100624500Y-149499500D01*
X100557461Y-149479815D01*
X100511706Y-149427011D01*
X100500500Y-149375500D01*
X100500500Y-145878711D01*
X102149500Y-145878711D01*
X102149500Y-146121288D01*
X102181161Y-146361785D01*
X102243947Y-146596104D01*
X102335303Y-146816657D01*
X102336776Y-146820212D01*
X102458064Y-147030289D01*
X102458066Y-147030292D01*
X102458067Y-147030293D01*
X102605733Y-147222736D01*
X102605739Y-147222743D01*
X102777256Y-147394260D01*
X102777262Y-147394265D01*
X102969711Y-147541936D01*
X103179788Y-147663224D01*
X103403900Y-147756054D01*
X103638211Y-147818838D01*
X103818586Y-147842584D01*
X103878711Y-147850500D01*
X103878712Y-147850500D01*
X104121289Y-147850500D01*
X104169388Y-147844167D01*
X104361789Y-147818838D01*
X104596100Y-147756054D01*
X104820212Y-147663224D01*
X105030289Y-147541936D01*
X105222738Y-147394265D01*
X105394265Y-147222738D01*
X105541936Y-147030289D01*
X105663224Y-146820212D01*
X105756054Y-146596100D01*
X105818838Y-146361789D01*
X105825210Y-146313389D01*
X111399500Y-146313389D01*
X111399500Y-146736610D01*
X111426579Y-146907585D01*
X111426598Y-146907701D01*
X111480127Y-147072445D01*
X111558768Y-147226788D01*
X111660586Y-147366928D01*
X111783072Y-147489414D01*
X111923212Y-147591232D01*
X112077555Y-147669873D01*
X112242299Y-147723402D01*
X112413389Y-147750500D01*
X112413390Y-147750500D01*
X112586610Y-147750500D01*
X112586611Y-147750500D01*
X112757701Y-147723402D01*
X112922445Y-147669873D01*
X113076788Y-147591232D01*
X113216928Y-147489414D01*
X113339414Y-147366928D01*
X113441232Y-147226788D01*
X113519873Y-147072445D01*
X113573402Y-146907701D01*
X113600500Y-146736611D01*
X113600500Y-146313389D01*
X113899500Y-146313389D01*
X113899500Y-146736610D01*
X113926579Y-146907585D01*
X113926598Y-146907701D01*
X113980127Y-147072445D01*
X114058768Y-147226788D01*
X114160586Y-147366928D01*
X114283072Y-147489414D01*
X114423212Y-147591232D01*
X114577555Y-147669873D01*
X114742299Y-147723402D01*
X114913389Y-147750500D01*
X114913390Y-147750500D01*
X115086610Y-147750500D01*
X115086611Y-147750500D01*
X115257701Y-147723402D01*
X115422445Y-147669873D01*
X115576788Y-147591232D01*
X115716928Y-147489414D01*
X115839414Y-147366928D01*
X115941232Y-147226788D01*
X116019873Y-147072445D01*
X116073402Y-146907701D01*
X116100500Y-146736611D01*
X116100500Y-146313389D01*
X116094420Y-146275000D01*
X116406086Y-146275000D01*
X117095854Y-146275000D01*
X117057370Y-146341657D01*
X117025000Y-146462465D01*
X117025000Y-146587535D01*
X117057370Y-146708343D01*
X117095854Y-146775000D01*
X116406086Y-146775000D01*
X116427086Y-146907585D01*
X116480591Y-147072257D01*
X116559195Y-147226524D01*
X116660967Y-147366602D01*
X116783397Y-147489032D01*
X116923475Y-147590804D01*
X117077744Y-147669408D01*
X117242415Y-147722914D01*
X117242414Y-147722914D01*
X117249999Y-147724115D01*
X117250000Y-147724114D01*
X117250000Y-146929145D01*
X117316657Y-146967630D01*
X117437465Y-147000000D01*
X117562535Y-147000000D01*
X117683343Y-146967630D01*
X117750000Y-146929145D01*
X117750000Y-147724115D01*
X117757584Y-147722914D01*
X117922255Y-147669408D01*
X118076524Y-147590804D01*
X118216602Y-147489032D01*
X118339032Y-147366602D01*
X118440804Y-147226524D01*
X118519408Y-147072257D01*
X118572913Y-146907585D01*
X118593914Y-146775000D01*
X117904146Y-146775000D01*
X117942630Y-146708343D01*
X117975000Y-146587535D01*
X117975000Y-146462465D01*
X117942630Y-146341657D01*
X117904146Y-146275000D01*
X118593914Y-146275000D01*
X118572913Y-146142414D01*
X118519408Y-145977742D01*
X118440802Y-145823471D01*
X118439505Y-145821686D01*
X118439504Y-145821685D01*
X118388973Y-145752135D01*
X118899500Y-145752135D01*
X118899500Y-147297870D01*
X118899501Y-147297876D01*
X118905908Y-147357483D01*
X118956202Y-147492328D01*
X118956206Y-147492335D01*
X119042452Y-147607544D01*
X119042455Y-147607547D01*
X119157664Y-147693793D01*
X119157671Y-147693797D01*
X119292517Y-147744091D01*
X119292516Y-147744091D01*
X119299444Y-147744835D01*
X119352127Y-147750500D01*
X120647872Y-147750499D01*
X120707483Y-147744091D01*
X120842331Y-147693796D01*
X120957546Y-147607546D01*
X121043796Y-147492331D01*
X121094091Y-147357483D01*
X121100500Y-147297873D01*
X121100499Y-145878711D01*
X136149500Y-145878711D01*
X136149500Y-146121288D01*
X136181161Y-146361785D01*
X136243947Y-146596104D01*
X136335303Y-146816657D01*
X136336776Y-146820212D01*
X136458064Y-147030289D01*
X136458066Y-147030292D01*
X136458067Y-147030293D01*
X136605733Y-147222736D01*
X136605739Y-147222743D01*
X136777256Y-147394260D01*
X136777262Y-147394265D01*
X136969711Y-147541936D01*
X137179788Y-147663224D01*
X137403900Y-147756054D01*
X137638211Y-147818838D01*
X137818586Y-147842584D01*
X137878711Y-147850500D01*
X137878712Y-147850500D01*
X138121289Y-147850500D01*
X138169388Y-147844167D01*
X138361789Y-147818838D01*
X138596100Y-147756054D01*
X138820212Y-147663224D01*
X139030289Y-147541936D01*
X139222738Y-147394265D01*
X139394265Y-147222738D01*
X139541936Y-147030289D01*
X139663224Y-146820212D01*
X139756054Y-146596100D01*
X139818838Y-146361789D01*
X139850500Y-146121288D01*
X139850500Y-145878712D01*
X139818838Y-145638211D01*
X139756054Y-145403900D01*
X139663224Y-145179788D01*
X139541936Y-144969711D01*
X139394265Y-144777262D01*
X139394260Y-144777256D01*
X139222743Y-144605739D01*
X139222736Y-144605733D01*
X139030293Y-144458067D01*
X139030292Y-144458066D01*
X139030289Y-144458064D01*
X138820212Y-144336776D01*
X138820205Y-144336773D01*
X138596104Y-144243947D01*
X138361785Y-144181161D01*
X138121289Y-144149500D01*
X138121288Y-144149500D01*
X137878712Y-144149500D01*
X137878711Y-144149500D01*
X137638214Y-144181161D01*
X137403895Y-144243947D01*
X137179794Y-144336773D01*
X137179785Y-144336777D01*
X136969706Y-144458067D01*
X136777263Y-144605733D01*
X136777256Y-144605739D01*
X136605739Y-144777256D01*
X136605733Y-144777263D01*
X136458067Y-144969706D01*
X136336777Y-145179785D01*
X136336773Y-145179794D01*
X136243947Y-145403895D01*
X136181161Y-145638214D01*
X136149500Y-145878711D01*
X121100499Y-145878711D01*
X121100499Y-145752128D01*
X121094091Y-145692517D01*
X121090690Y-145683399D01*
X121043797Y-145557671D01*
X121043793Y-145557664D01*
X120957547Y-145442455D01*
X120957544Y-145442452D01*
X120842335Y-145356206D01*
X120842328Y-145356202D01*
X120707482Y-145305908D01*
X120707483Y-145305908D01*
X120647883Y-145299501D01*
X120647881Y-145299500D01*
X120647873Y-145299500D01*
X120647864Y-145299500D01*
X119352129Y-145299500D01*
X119352123Y-145299501D01*
X119292516Y-145305908D01*
X119157671Y-145356202D01*
X119157664Y-145356206D01*
X119042455Y-145442452D01*
X119042452Y-145442455D01*
X118956206Y-145557664D01*
X118956202Y-145557671D01*
X118905908Y-145692517D01*
X118899501Y-145752116D01*
X118899501Y-145752123D01*
X118899500Y-145752135D01*
X118388973Y-145752135D01*
X118339038Y-145683404D01*
X118339034Y-145683399D01*
X118216602Y-145560967D01*
X118076524Y-145459195D01*
X117922257Y-145380591D01*
X117757589Y-145327087D01*
X117757581Y-145327085D01*
X117750000Y-145325884D01*
X117750000Y-146120854D01*
X117683343Y-146082370D01*
X117562535Y-146050000D01*
X117437465Y-146050000D01*
X117316657Y-146082370D01*
X117250000Y-146120854D01*
X117250000Y-145325884D01*
X117249999Y-145325884D01*
X117242418Y-145327085D01*
X117242410Y-145327087D01*
X117077742Y-145380591D01*
X116923475Y-145459195D01*
X116783397Y-145560967D01*
X116660967Y-145683397D01*
X116559195Y-145823475D01*
X116480591Y-145977742D01*
X116427086Y-146142414D01*
X116406086Y-146275000D01*
X116094420Y-146275000D01*
X116073402Y-146142299D01*
X116019873Y-145977555D01*
X115941232Y-145823212D01*
X115839414Y-145683072D01*
X115716928Y-145560586D01*
X115576788Y-145458768D01*
X115422445Y-145380127D01*
X115257701Y-145326598D01*
X115257699Y-145326597D01*
X115257698Y-145326597D01*
X115126271Y-145305781D01*
X115086611Y-145299500D01*
X114913389Y-145299500D01*
X114873728Y-145305781D01*
X114742302Y-145326597D01*
X114577552Y-145380128D01*
X114423211Y-145458768D01*
X114343256Y-145516859D01*
X114283072Y-145560586D01*
X114283070Y-145560588D01*
X114283069Y-145560588D01*
X114160588Y-145683069D01*
X114160588Y-145683070D01*
X114160586Y-145683072D01*
X114160345Y-145683404D01*
X114058768Y-145823211D01*
X113980128Y-145977552D01*
X113926597Y-146142302D01*
X113899500Y-146313389D01*
X113600500Y-146313389D01*
X113573402Y-146142299D01*
X113519873Y-145977555D01*
X113441232Y-145823212D01*
X113339414Y-145683072D01*
X113216928Y-145560586D01*
X113076788Y-145458768D01*
X112922445Y-145380127D01*
X112757701Y-145326598D01*
X112757699Y-145326597D01*
X112757698Y-145326597D01*
X112626271Y-145305781D01*
X112586611Y-145299500D01*
X112413389Y-145299500D01*
X112373728Y-145305781D01*
X112242302Y-145326597D01*
X112077552Y-145380128D01*
X111923211Y-145458768D01*
X111843256Y-145516859D01*
X111783072Y-145560586D01*
X111783070Y-145560588D01*
X111783069Y-145560588D01*
X111660588Y-145683069D01*
X111660588Y-145683070D01*
X111660586Y-145683072D01*
X111660345Y-145683404D01*
X111558768Y-145823211D01*
X111480128Y-145977552D01*
X111426597Y-146142302D01*
X111399500Y-146313389D01*
X105825210Y-146313389D01*
X105850500Y-146121288D01*
X105850500Y-145878712D01*
X105818838Y-145638211D01*
X105756054Y-145403900D01*
X105663224Y-145179788D01*
X105541936Y-144969711D01*
X105394265Y-144777262D01*
X105394260Y-144777256D01*
X105222743Y-144605739D01*
X105222736Y-144605733D01*
X105030293Y-144458067D01*
X105030292Y-144458066D01*
X105030289Y-144458064D01*
X104820212Y-144336776D01*
X104820205Y-144336773D01*
X104596104Y-144243947D01*
X104361785Y-144181161D01*
X104121289Y-144149500D01*
X104121288Y-144149500D01*
X103878712Y-144149500D01*
X103878711Y-144149500D01*
X103638214Y-144181161D01*
X103403895Y-144243947D01*
X103179794Y-144336773D01*
X103179785Y-144336777D01*
X102969706Y-144458067D01*
X102777263Y-144605733D01*
X102777256Y-144605739D01*
X102605739Y-144777256D01*
X102605733Y-144777263D01*
X102458067Y-144969706D01*
X102336777Y-145179785D01*
X102336773Y-145179794D01*
X102243947Y-145403895D01*
X102181161Y-145638214D01*
X102149500Y-145878711D01*
X100500500Y-145878711D01*
X100500500Y-136102135D01*
X102249500Y-136102135D01*
X102249500Y-137397870D01*
X102249501Y-137397876D01*
X102255908Y-137457483D01*
X102306202Y-137592328D01*
X102306206Y-137592335D01*
X102392452Y-137707544D01*
X102392455Y-137707547D01*
X102507664Y-137793793D01*
X102507671Y-137793797D01*
X102642517Y-137844091D01*
X102642516Y-137844091D01*
X102649444Y-137844835D01*
X102702127Y-137850500D01*
X104247872Y-137850499D01*
X104307483Y-137844091D01*
X104442331Y-137793796D01*
X104557546Y-137707546D01*
X104643796Y-137592331D01*
X104694091Y-137457483D01*
X104700500Y-137397873D01*
X104700499Y-136102128D01*
X104694091Y-136042517D01*
X104643796Y-135907669D01*
X104643795Y-135907668D01*
X104643793Y-135907664D01*
X104557547Y-135792455D01*
X104557544Y-135792452D01*
X104442335Y-135706206D01*
X104442328Y-135706202D01*
X104307482Y-135655908D01*
X104307483Y-135655908D01*
X104247883Y-135649501D01*
X104247881Y-135649500D01*
X104247873Y-135649500D01*
X104247864Y-135649500D01*
X102702129Y-135649500D01*
X102702123Y-135649501D01*
X102642516Y-135655908D01*
X102507671Y-135706202D01*
X102507664Y-135706206D01*
X102392455Y-135792452D01*
X102392452Y-135792455D01*
X102306206Y-135907664D01*
X102306202Y-135907671D01*
X102255908Y-136042517D01*
X102249501Y-136102116D01*
X102249501Y-136102123D01*
X102249500Y-136102135D01*
X100500500Y-136102135D01*
X100500500Y-133999999D01*
X102275884Y-133999999D01*
X102275885Y-134000000D01*
X103070854Y-134000000D01*
X103032370Y-134066657D01*
X103000000Y-134187465D01*
X103000000Y-134312535D01*
X103032370Y-134433343D01*
X103070854Y-134500000D01*
X102275885Y-134500000D01*
X102277085Y-134507584D01*
X102330591Y-134672255D01*
X102409195Y-134826524D01*
X102510967Y-134966602D01*
X102633397Y-135089032D01*
X102773475Y-135190804D01*
X102927744Y-135269408D01*
X103092415Y-135322913D01*
X103225000Y-135343913D01*
X103225000Y-134654145D01*
X103291657Y-134692630D01*
X103412465Y-134725000D01*
X103537535Y-134725000D01*
X103658343Y-134692630D01*
X103725000Y-134654145D01*
X103725000Y-135343912D01*
X103857584Y-135322913D01*
X104022255Y-135269408D01*
X104176524Y-135190804D01*
X104316602Y-135089032D01*
X104439032Y-134966602D01*
X104540804Y-134826524D01*
X104619408Y-134672255D01*
X104672914Y-134507584D01*
X104674115Y-134500000D01*
X103879146Y-134500000D01*
X103917630Y-134433343D01*
X103950000Y-134312535D01*
X103950000Y-134187465D01*
X103917630Y-134066657D01*
X103879146Y-134000000D01*
X104674115Y-134000000D01*
X104674115Y-133999999D01*
X104672914Y-133992415D01*
X104619408Y-133827744D01*
X104540804Y-133673475D01*
X104439032Y-133533397D01*
X104316602Y-133410967D01*
X104176524Y-133309195D01*
X104022257Y-133230591D01*
X103857585Y-133177086D01*
X103725000Y-133156086D01*
X103725000Y-133845854D01*
X103658343Y-133807370D01*
X103537535Y-133775000D01*
X103412465Y-133775000D01*
X103291657Y-133807370D01*
X103225000Y-133845854D01*
X103225000Y-133156086D01*
X103092414Y-133177086D01*
X102927742Y-133230591D01*
X102773475Y-133309195D01*
X102633397Y-133410967D01*
X102510967Y-133533397D01*
X102409195Y-133673475D01*
X102330591Y-133827744D01*
X102277085Y-133992415D01*
X102275884Y-133999999D01*
X100500500Y-133999999D01*
X100500500Y-131663389D01*
X102249500Y-131663389D01*
X102249500Y-131836611D01*
X102276598Y-132007701D01*
X102330127Y-132172445D01*
X102408768Y-132326788D01*
X102510586Y-132466928D01*
X102633072Y-132589414D01*
X102773212Y-132691232D01*
X102927555Y-132769873D01*
X103092299Y-132823402D01*
X103263389Y-132850500D01*
X103263390Y-132850500D01*
X103686610Y-132850500D01*
X103686611Y-132850500D01*
X103857701Y-132823402D01*
X104022445Y-132769873D01*
X104176788Y-132691232D01*
X104316928Y-132589414D01*
X104439414Y-132466928D01*
X104541232Y-132326788D01*
X104619873Y-132172445D01*
X104673402Y-132007701D01*
X104700500Y-131836611D01*
X104700500Y-131663389D01*
X104673402Y-131492299D01*
X104619873Y-131327555D01*
X104541232Y-131173212D01*
X104439414Y-131033072D01*
X104316928Y-130910586D01*
X104176788Y-130808768D01*
X104058432Y-130748463D01*
X104022447Y-130730128D01*
X104022446Y-130730127D01*
X104022445Y-130730127D01*
X103857701Y-130676598D01*
X103857699Y-130676597D01*
X103857698Y-130676597D01*
X103726271Y-130655781D01*
X103686611Y-130649500D01*
X103263389Y-130649500D01*
X103223728Y-130655781D01*
X103092302Y-130676597D01*
X102927552Y-130730128D01*
X102773211Y-130808768D01*
X102693256Y-130866859D01*
X102633072Y-130910586D01*
X102633070Y-130910588D01*
X102633069Y-130910588D01*
X102510588Y-131033069D01*
X102510588Y-131033070D01*
X102510586Y-131033072D01*
X102466859Y-131093256D01*
X102408768Y-131173211D01*
X102330128Y-131327552D01*
X102276597Y-131492302D01*
X102272528Y-131517993D01*
X102249500Y-131663389D01*
X100500500Y-131663389D01*
X100500500Y-130450321D01*
X135609500Y-130450321D01*
X135609500Y-132199678D01*
X135624032Y-132272735D01*
X135624033Y-132272739D01*
X135624034Y-132272740D01*
X135679399Y-132355601D01*
X135742726Y-132397914D01*
X135762260Y-132410966D01*
X135762264Y-132410967D01*
X135835321Y-132425499D01*
X135835324Y-132425500D01*
X135835326Y-132425500D01*
X137584676Y-132425500D01*
X137584677Y-132425499D01*
X137657740Y-132410966D01*
X137740601Y-132355601D01*
X137795966Y-132272740D01*
X137810500Y-132199674D01*
X137810500Y-131238428D01*
X138150000Y-131238428D01*
X138150000Y-131411571D01*
X138177085Y-131582584D01*
X138230592Y-131747259D01*
X138309196Y-131901525D01*
X138313709Y-131907736D01*
X138313709Y-131907737D01*
X138767037Y-131454409D01*
X138784075Y-131517993D01*
X138849901Y-131632007D01*
X138942993Y-131725099D01*
X139057007Y-131790925D01*
X139120589Y-131807962D01*
X138667261Y-132261289D01*
X138667262Y-132261290D01*
X138673471Y-132265801D01*
X138827742Y-132344408D01*
X138992415Y-132397914D01*
X139163429Y-132425000D01*
X139336571Y-132425000D01*
X139507584Y-132397914D01*
X139672257Y-132344408D01*
X139826525Y-132265803D01*
X139832736Y-132261289D01*
X139832737Y-132261289D01*
X139379410Y-131807962D01*
X139442993Y-131790925D01*
X139557007Y-131725099D01*
X139650099Y-131632007D01*
X139715925Y-131517993D01*
X139732962Y-131454409D01*
X140186289Y-131907736D01*
X140190803Y-131901525D01*
X140269408Y-131747257D01*
X140322914Y-131582584D01*
X140350000Y-131411571D01*
X140350000Y-131238428D01*
X140322914Y-131067415D01*
X140269408Y-130902742D01*
X140190801Y-130748471D01*
X140186290Y-130742262D01*
X140186289Y-130742261D01*
X139732962Y-131195589D01*
X139715925Y-131132007D01*
X139650099Y-131017993D01*
X139557007Y-130924901D01*
X139442993Y-130859075D01*
X139379409Y-130842037D01*
X139832737Y-130388709D01*
X139826525Y-130384196D01*
X139672259Y-130305592D01*
X139507584Y-130252085D01*
X139336571Y-130225000D01*
X139163429Y-130225000D01*
X138992415Y-130252085D01*
X138827740Y-130305592D01*
X138673480Y-130384193D01*
X138673463Y-130384203D01*
X138667261Y-130388708D01*
X138667261Y-130388709D01*
X139120590Y-130842037D01*
X139057007Y-130859075D01*
X138942993Y-130924901D01*
X138849901Y-131017993D01*
X138784075Y-131132007D01*
X138767037Y-131195590D01*
X138313709Y-130742261D01*
X138313708Y-130742261D01*
X138309203Y-130748463D01*
X138309193Y-130748480D01*
X138230592Y-130902740D01*
X138177085Y-131067415D01*
X138150000Y-131238428D01*
X137810500Y-131238428D01*
X137810500Y-130450326D01*
X137810500Y-130450322D01*
X137795967Y-130377264D01*
X137795966Y-130377260D01*
X137778086Y-130350500D01*
X137740601Y-130294399D01*
X137657740Y-130239034D01*
X137657739Y-130239033D01*
X137657735Y-130239032D01*
X137584677Y-130224500D01*
X137584674Y-130224500D01*
X135835326Y-130224500D01*
X135835323Y-130224500D01*
X135762264Y-130239032D01*
X135762260Y-130239033D01*
X135679399Y-130294399D01*
X135624033Y-130377260D01*
X135624032Y-130377264D01*
X135609500Y-130450321D01*
X100500500Y-130450321D01*
X100500500Y-129163389D01*
X102249500Y-129163389D01*
X102249500Y-129336610D01*
X102275683Y-129501929D01*
X102276598Y-129507701D01*
X102330127Y-129672445D01*
X102408768Y-129826788D01*
X102510586Y-129966928D01*
X102633072Y-130089414D01*
X102773212Y-130191232D01*
X102927555Y-130269873D01*
X103092299Y-130323402D01*
X103263389Y-130350500D01*
X103263390Y-130350500D01*
X103686610Y-130350500D01*
X103686611Y-130350500D01*
X103857701Y-130323402D01*
X104022445Y-130269873D01*
X104176788Y-130191232D01*
X104316928Y-130089414D01*
X104439414Y-129966928D01*
X104541232Y-129826788D01*
X104619873Y-129672445D01*
X104673402Y-129507701D01*
X104700500Y-129336611D01*
X104700500Y-129163389D01*
X104673402Y-128992299D01*
X104619873Y-128827555D01*
X104554060Y-128698389D01*
X135609500Y-128698389D01*
X135609500Y-128871610D01*
X135628615Y-128992302D01*
X135636598Y-129042701D01*
X135690127Y-129207445D01*
X135768768Y-129361788D01*
X135870586Y-129501928D01*
X135993072Y-129624414D01*
X136133212Y-129726232D01*
X136287555Y-129804873D01*
X136452299Y-129858402D01*
X136623389Y-129885500D01*
X136623390Y-129885500D01*
X136796610Y-129885500D01*
X136796611Y-129885500D01*
X136967701Y-129858402D01*
X137132445Y-129804873D01*
X137286788Y-129726232D01*
X137426928Y-129624414D01*
X137549414Y-129501928D01*
X137651232Y-129361788D01*
X137729873Y-129207445D01*
X137783402Y-129042701D01*
X137810500Y-128871611D01*
X137810500Y-128698428D01*
X138150000Y-128698428D01*
X138150000Y-128871571D01*
X138177085Y-129042584D01*
X138230592Y-129207259D01*
X138309196Y-129361525D01*
X138313709Y-129367736D01*
X138313709Y-129367737D01*
X138767037Y-128914409D01*
X138784075Y-128977993D01*
X138849901Y-129092007D01*
X138942993Y-129185099D01*
X139057007Y-129250925D01*
X139120589Y-129267962D01*
X138667261Y-129721289D01*
X138667262Y-129721290D01*
X138673471Y-129725801D01*
X138827742Y-129804408D01*
X138992415Y-129857914D01*
X139163429Y-129885000D01*
X139336571Y-129885000D01*
X139507584Y-129857914D01*
X139672257Y-129804408D01*
X139826525Y-129725803D01*
X139832736Y-129721289D01*
X139832737Y-129721289D01*
X139379410Y-129267962D01*
X139442993Y-129250925D01*
X139557007Y-129185099D01*
X139650099Y-129092007D01*
X139715925Y-128977993D01*
X139732962Y-128914409D01*
X140186289Y-129367736D01*
X140190803Y-129361525D01*
X140269408Y-129207257D01*
X140322914Y-129042584D01*
X140350000Y-128871571D01*
X140350000Y-128698428D01*
X140322914Y-128527415D01*
X140269408Y-128362742D01*
X140190801Y-128208471D01*
X140186290Y-128202262D01*
X140186289Y-128202261D01*
X139732962Y-128655589D01*
X139715925Y-128592007D01*
X139650099Y-128477993D01*
X139557007Y-128384901D01*
X139442993Y-128319075D01*
X139379409Y-128302037D01*
X139832737Y-127848709D01*
X139826525Y-127844196D01*
X139672259Y-127765592D01*
X139507584Y-127712085D01*
X139336571Y-127685000D01*
X139163429Y-127685000D01*
X138992415Y-127712085D01*
X138827740Y-127765592D01*
X138673480Y-127844193D01*
X138673463Y-127844203D01*
X138667261Y-127848708D01*
X138667261Y-127848709D01*
X139120590Y-128302037D01*
X139057007Y-128319075D01*
X138942993Y-128384901D01*
X138849901Y-128477993D01*
X138784075Y-128592007D01*
X138767037Y-128655590D01*
X138313709Y-128202261D01*
X138313708Y-128202261D01*
X138309203Y-128208463D01*
X138309193Y-128208480D01*
X138230592Y-128362740D01*
X138177085Y-128527415D01*
X138150000Y-128698428D01*
X137810500Y-128698428D01*
X137810500Y-128698389D01*
X137783402Y-128527299D01*
X137729873Y-128362555D01*
X137651232Y-128208212D01*
X137549414Y-128068072D01*
X137426928Y-127945586D01*
X137286788Y-127843768D01*
X137132445Y-127765127D01*
X136967701Y-127711598D01*
X136967699Y-127711597D01*
X136967698Y-127711597D01*
X136836271Y-127690781D01*
X136796611Y-127684500D01*
X136623389Y-127684500D01*
X136583728Y-127690781D01*
X136452302Y-127711597D01*
X136287552Y-127765128D01*
X136133211Y-127843768D01*
X136053256Y-127901859D01*
X135993072Y-127945586D01*
X135993070Y-127945588D01*
X135993069Y-127945588D01*
X135870588Y-128068069D01*
X135870588Y-128068070D01*
X135870586Y-128068072D01*
X135826859Y-128128256D01*
X135768768Y-128208211D01*
X135690128Y-128362552D01*
X135636597Y-128527302D01*
X135609500Y-128698389D01*
X104554060Y-128698389D01*
X104541232Y-128673212D01*
X104541231Y-128673211D01*
X104525937Y-128652160D01*
X104439414Y-128533072D01*
X104316928Y-128410586D01*
X104176788Y-128308768D01*
X104022445Y-128230127D01*
X103857701Y-128176598D01*
X103857699Y-128176597D01*
X103857698Y-128176597D01*
X103726271Y-128155781D01*
X103686611Y-128149500D01*
X103263389Y-128149500D01*
X103223728Y-128155781D01*
X103092302Y-128176597D01*
X102927552Y-128230128D01*
X102773211Y-128308768D01*
X102699185Y-128362552D01*
X102633072Y-128410586D01*
X102633070Y-128410588D01*
X102633069Y-128410588D01*
X102510588Y-128533069D01*
X102510588Y-128533070D01*
X102510586Y-128533072D01*
X102467767Y-128592007D01*
X102408768Y-128673211D01*
X102330128Y-128827552D01*
X102276597Y-128992302D01*
X102249500Y-129163389D01*
X100500500Y-129163389D01*
X100500500Y-123177525D01*
X122199500Y-123177525D01*
X122199500Y-123322475D01*
X122232947Y-123447299D01*
X122237017Y-123462488D01*
X122295048Y-123563000D01*
X122311521Y-123630900D01*
X122295048Y-123687000D01*
X122237017Y-123787511D01*
X122237016Y-123787515D01*
X122199500Y-123927525D01*
X122199500Y-124072475D01*
X122237016Y-124212485D01*
X122237017Y-124212488D01*
X122295048Y-124313000D01*
X122311521Y-124380900D01*
X122295048Y-124437000D01*
X122237017Y-124537511D01*
X122237016Y-124537515D01*
X122199500Y-124677525D01*
X122199500Y-124822475D01*
X122237016Y-124962485D01*
X122237017Y-124962488D01*
X122295048Y-125063000D01*
X122311521Y-125130900D01*
X122295048Y-125187000D01*
X122237017Y-125287511D01*
X122237016Y-125287515D01*
X122199500Y-125427525D01*
X122199500Y-125572475D01*
X122225153Y-125668211D01*
X122237017Y-125712488D01*
X122295048Y-125813000D01*
X122311521Y-125880900D01*
X122295048Y-125937000D01*
X122237017Y-126037511D01*
X122237016Y-126037515D01*
X122199500Y-126177525D01*
X122199500Y-126322475D01*
X122237016Y-126462485D01*
X122237017Y-126462488D01*
X122309488Y-126588011D01*
X122309490Y-126588013D01*
X122309491Y-126588015D01*
X122411985Y-126690509D01*
X122411986Y-126690510D01*
X122411988Y-126690511D01*
X122537511Y-126762982D01*
X122537512Y-126762982D01*
X122537515Y-126762984D01*
X122677525Y-126800500D01*
X122677528Y-126800500D01*
X122822472Y-126800500D01*
X122822475Y-126800500D01*
X122962485Y-126762984D01*
X123088015Y-126690509D01*
X123190509Y-126588015D01*
X123262984Y-126462485D01*
X123300500Y-126322475D01*
X123300500Y-126177525D01*
X123295372Y-126158389D01*
X135609500Y-126158389D01*
X135609500Y-126331611D01*
X135636598Y-126502701D01*
X135690127Y-126667445D01*
X135768768Y-126821788D01*
X135870586Y-126961928D01*
X135993072Y-127084414D01*
X136133212Y-127186232D01*
X136287555Y-127264873D01*
X136452299Y-127318402D01*
X136623389Y-127345500D01*
X136623390Y-127345500D01*
X136796610Y-127345500D01*
X136796611Y-127345500D01*
X136967701Y-127318402D01*
X137132445Y-127264873D01*
X137286788Y-127186232D01*
X137426928Y-127084414D01*
X137549414Y-126961928D01*
X137651232Y-126821788D01*
X137729873Y-126667445D01*
X137783402Y-126502701D01*
X137810500Y-126331611D01*
X137810500Y-126158389D01*
X138149500Y-126158389D01*
X138149500Y-126331611D01*
X138176598Y-126502701D01*
X138230127Y-126667445D01*
X138308768Y-126821788D01*
X138410586Y-126961928D01*
X138533072Y-127084414D01*
X138673212Y-127186232D01*
X138827555Y-127264873D01*
X138992299Y-127318402D01*
X139163389Y-127345500D01*
X139163390Y-127345500D01*
X139336610Y-127345500D01*
X139336611Y-127345500D01*
X139507701Y-127318402D01*
X139672445Y-127264873D01*
X139826788Y-127186232D01*
X139966928Y-127084414D01*
X140089414Y-126961928D01*
X140191232Y-126821788D01*
X140269873Y-126667445D01*
X140323402Y-126502701D01*
X140350500Y-126331611D01*
X140350500Y-126158389D01*
X140323402Y-125987299D01*
X140269873Y-125822555D01*
X140191232Y-125668212D01*
X140089414Y-125528072D01*
X139966928Y-125405586D01*
X139826788Y-125303768D01*
X139672445Y-125225127D01*
X139507701Y-125171598D01*
X139507699Y-125171597D01*
X139507698Y-125171597D01*
X139376271Y-125150781D01*
X139336611Y-125144500D01*
X139163389Y-125144500D01*
X139123728Y-125150781D01*
X138992302Y-125171597D01*
X138827552Y-125225128D01*
X138673211Y-125303768D01*
X138593256Y-125361859D01*
X138533072Y-125405586D01*
X138533070Y-125405588D01*
X138533069Y-125405588D01*
X138410588Y-125528069D01*
X138410588Y-125528070D01*
X138410586Y-125528072D01*
X138378325Y-125572475D01*
X138308768Y-125668211D01*
X138230128Y-125822552D01*
X138176597Y-125987302D01*
X138149500Y-126158389D01*
X137810500Y-126158389D01*
X137783402Y-125987299D01*
X137729873Y-125822555D01*
X137651232Y-125668212D01*
X137549414Y-125528072D01*
X137426928Y-125405586D01*
X137286788Y-125303768D01*
X137132445Y-125225127D01*
X136967701Y-125171598D01*
X136967699Y-125171597D01*
X136967698Y-125171597D01*
X136836271Y-125150781D01*
X136796611Y-125144500D01*
X136623389Y-125144500D01*
X136583728Y-125150781D01*
X136452302Y-125171597D01*
X136287552Y-125225128D01*
X136133211Y-125303768D01*
X136053256Y-125361859D01*
X135993072Y-125405586D01*
X135993070Y-125405588D01*
X135993069Y-125405588D01*
X135870588Y-125528069D01*
X135870588Y-125528070D01*
X135870586Y-125528072D01*
X135838325Y-125572475D01*
X135768768Y-125668211D01*
X135690128Y-125822552D01*
X135636597Y-125987302D01*
X135609500Y-126158389D01*
X123295372Y-126158389D01*
X123262984Y-126037515D01*
X123204950Y-125936997D01*
X123188478Y-125869101D01*
X123204951Y-125813000D01*
X123262984Y-125712485D01*
X123300500Y-125572475D01*
X123300500Y-125427525D01*
X123262984Y-125287515D01*
X123204950Y-125186997D01*
X123188478Y-125119101D01*
X123204951Y-125063000D01*
X123262984Y-124962485D01*
X123300500Y-124822475D01*
X123300500Y-124677525D01*
X123262984Y-124537515D01*
X123204950Y-124436997D01*
X123188478Y-124369101D01*
X123204951Y-124313000D01*
X123262984Y-124212485D01*
X123300500Y-124072475D01*
X123300500Y-123927525D01*
X123262984Y-123787515D01*
X123204950Y-123686997D01*
X123202120Y-123675333D01*
X123195157Y-123665554D01*
X123194035Y-123642010D01*
X123188478Y-123619101D01*
X123188687Y-123618389D01*
X135609500Y-123618389D01*
X135609500Y-123791610D01*
X135631026Y-123927525D01*
X135636598Y-123962701D01*
X135690127Y-124127445D01*
X135768768Y-124281788D01*
X135870586Y-124421928D01*
X135993072Y-124544414D01*
X136133212Y-124646232D01*
X136287555Y-124724873D01*
X136452299Y-124778402D01*
X136623389Y-124805500D01*
X136623390Y-124805500D01*
X136796610Y-124805500D01*
X136796611Y-124805500D01*
X136967701Y-124778402D01*
X137132445Y-124724873D01*
X137286788Y-124646232D01*
X137426928Y-124544414D01*
X137549414Y-124421928D01*
X137651232Y-124281788D01*
X137729873Y-124127445D01*
X137783402Y-123962701D01*
X137810500Y-123791611D01*
X137810500Y-123618428D01*
X138150000Y-123618428D01*
X138150000Y-123791571D01*
X138177085Y-123962584D01*
X138230592Y-124127259D01*
X138309196Y-124281525D01*
X138313709Y-124287736D01*
X138313709Y-124287737D01*
X138767037Y-123834409D01*
X138784075Y-123897993D01*
X138849901Y-124012007D01*
X138942993Y-124105099D01*
X139057007Y-124170925D01*
X139120589Y-124187962D01*
X138667261Y-124641289D01*
X138667262Y-124641290D01*
X138673471Y-124645801D01*
X138827742Y-124724408D01*
X138992415Y-124777914D01*
X139163429Y-124805000D01*
X139336571Y-124805000D01*
X139507584Y-124777914D01*
X139672257Y-124724408D01*
X139826525Y-124645803D01*
X139832736Y-124641289D01*
X139832737Y-124641289D01*
X139379410Y-124187962D01*
X139442993Y-124170925D01*
X139557007Y-124105099D01*
X139650099Y-124012007D01*
X139715925Y-123897993D01*
X139732962Y-123834409D01*
X140186289Y-124287736D01*
X140190803Y-124281525D01*
X140269408Y-124127257D01*
X140322914Y-123962584D01*
X140350000Y-123791571D01*
X140350000Y-123618428D01*
X140322914Y-123447415D01*
X140269408Y-123282742D01*
X140190801Y-123128471D01*
X140186290Y-123122262D01*
X140186289Y-123122261D01*
X139732962Y-123575589D01*
X139715925Y-123512007D01*
X139650099Y-123397993D01*
X139557007Y-123304901D01*
X139442993Y-123239075D01*
X139379409Y-123222037D01*
X139832737Y-122768709D01*
X139826525Y-122764196D01*
X139672259Y-122685592D01*
X139507584Y-122632085D01*
X139336571Y-122605000D01*
X139163429Y-122605000D01*
X138992415Y-122632085D01*
X138827740Y-122685592D01*
X138673480Y-122764193D01*
X138673463Y-122764203D01*
X138667261Y-122768708D01*
X138667261Y-122768709D01*
X139120590Y-123222037D01*
X139057007Y-123239075D01*
X138942993Y-123304901D01*
X138849901Y-123397993D01*
X138784075Y-123512007D01*
X138767037Y-123575590D01*
X138313709Y-123122261D01*
X138313708Y-123122261D01*
X138309203Y-123128463D01*
X138309193Y-123128480D01*
X138230592Y-123282740D01*
X138177085Y-123447415D01*
X138150000Y-123618428D01*
X137810500Y-123618428D01*
X137810500Y-123618389D01*
X137783402Y-123447299D01*
X137729873Y-123282555D01*
X137651232Y-123128212D01*
X137549414Y-122988072D01*
X137426928Y-122865586D01*
X137286788Y-122763768D01*
X137132445Y-122685127D01*
X136967701Y-122631598D01*
X136967699Y-122631597D01*
X136967698Y-122631597D01*
X136836271Y-122610781D01*
X136796611Y-122604500D01*
X136623389Y-122604500D01*
X136583728Y-122610781D01*
X136452302Y-122631597D01*
X136287552Y-122685128D01*
X136133211Y-122763768D01*
X136070284Y-122809488D01*
X135993072Y-122865586D01*
X135993070Y-122865588D01*
X135993069Y-122865588D01*
X135870588Y-122988069D01*
X135870588Y-122988070D01*
X135870586Y-122988072D01*
X135826859Y-123048256D01*
X135768768Y-123128211D01*
X135690128Y-123282552D01*
X135636597Y-123447302D01*
X135609500Y-123618389D01*
X123188687Y-123618389D01*
X123192321Y-123606010D01*
X123191834Y-123595764D01*
X123204951Y-123563000D01*
X123262984Y-123462485D01*
X123300500Y-123322475D01*
X123300500Y-123177525D01*
X123262984Y-123037515D01*
X123234436Y-122988069D01*
X123190511Y-122911988D01*
X123190506Y-122911982D01*
X123088017Y-122809493D01*
X123088011Y-122809488D01*
X122962488Y-122737017D01*
X122962489Y-122737017D01*
X122951006Y-122733940D01*
X122822475Y-122699500D01*
X122677525Y-122699500D01*
X122548993Y-122733940D01*
X122537511Y-122737017D01*
X122411988Y-122809488D01*
X122411982Y-122809493D01*
X122309493Y-122911982D01*
X122309488Y-122911988D01*
X122237017Y-123037511D01*
X122237016Y-123037515D01*
X122199500Y-123177525D01*
X100500500Y-123177525D01*
X100500500Y-120663389D01*
X103299500Y-120663389D01*
X103299500Y-120836610D01*
X103326597Y-121007697D01*
X103326597Y-121007699D01*
X103326598Y-121007701D01*
X103380127Y-121172445D01*
X103458768Y-121326788D01*
X103560586Y-121466928D01*
X103683072Y-121589414D01*
X103823212Y-121691232D01*
X103977555Y-121769873D01*
X104142299Y-121823402D01*
X104313389Y-121850500D01*
X104313390Y-121850500D01*
X104736610Y-121850500D01*
X104736611Y-121850500D01*
X104907701Y-121823402D01*
X105072445Y-121769873D01*
X105226788Y-121691232D01*
X105366928Y-121589414D01*
X105489414Y-121466928D01*
X105591232Y-121326788D01*
X105669873Y-121172445D01*
X105700434Y-121078389D01*
X135609500Y-121078389D01*
X135609500Y-121251611D01*
X135636598Y-121422701D01*
X135690127Y-121587445D01*
X135768768Y-121741788D01*
X135870586Y-121881928D01*
X135993072Y-122004414D01*
X136133212Y-122106232D01*
X136287555Y-122184873D01*
X136452299Y-122238402D01*
X136623389Y-122265500D01*
X136623390Y-122265500D01*
X136796610Y-122265500D01*
X136796611Y-122265500D01*
X136967701Y-122238402D01*
X137132445Y-122184873D01*
X137286788Y-122106232D01*
X137426928Y-122004414D01*
X137549414Y-121881928D01*
X137651232Y-121741788D01*
X137729873Y-121587445D01*
X137783402Y-121422701D01*
X137810500Y-121251611D01*
X137810500Y-121078389D01*
X138149500Y-121078389D01*
X138149500Y-121251611D01*
X138176598Y-121422701D01*
X138230127Y-121587445D01*
X138308768Y-121741788D01*
X138410586Y-121881928D01*
X138533072Y-122004414D01*
X138673212Y-122106232D01*
X138827555Y-122184873D01*
X138992299Y-122238402D01*
X139163389Y-122265500D01*
X139163390Y-122265500D01*
X139336610Y-122265500D01*
X139336611Y-122265500D01*
X139507701Y-122238402D01*
X139672445Y-122184873D01*
X139826788Y-122106232D01*
X139966928Y-122004414D01*
X140089414Y-121881928D01*
X140191232Y-121741788D01*
X140269873Y-121587445D01*
X140323402Y-121422701D01*
X140350500Y-121251611D01*
X140350500Y-121078389D01*
X140323402Y-120907299D01*
X140269873Y-120742555D01*
X140191232Y-120588212D01*
X140089414Y-120448072D01*
X139966928Y-120325586D01*
X139826788Y-120223768D01*
X139672445Y-120145127D01*
X139507701Y-120091598D01*
X139507699Y-120091597D01*
X139507698Y-120091597D01*
X139376271Y-120070781D01*
X139336611Y-120064500D01*
X139163389Y-120064500D01*
X139123728Y-120070781D01*
X138992302Y-120091597D01*
X138827552Y-120145128D01*
X138673211Y-120223768D01*
X138593256Y-120281859D01*
X138533072Y-120325586D01*
X138533070Y-120325588D01*
X138533069Y-120325588D01*
X138410588Y-120448069D01*
X138410588Y-120448070D01*
X138410586Y-120448072D01*
X138378453Y-120492299D01*
X138308768Y-120588211D01*
X138230128Y-120742552D01*
X138176597Y-120907302D01*
X138149500Y-121078389D01*
X137810500Y-121078389D01*
X137783402Y-120907299D01*
X137729873Y-120742555D01*
X137651232Y-120588212D01*
X137549414Y-120448072D01*
X137426928Y-120325586D01*
X137286788Y-120223768D01*
X137132445Y-120145127D01*
X136967701Y-120091598D01*
X136967699Y-120091597D01*
X136967698Y-120091597D01*
X136836271Y-120070781D01*
X136796611Y-120064500D01*
X136623389Y-120064500D01*
X136583728Y-120070781D01*
X136452302Y-120091597D01*
X136287552Y-120145128D01*
X136133211Y-120223768D01*
X136053256Y-120281859D01*
X135993072Y-120325586D01*
X135993070Y-120325588D01*
X135993069Y-120325588D01*
X135870588Y-120448069D01*
X135870588Y-120448070D01*
X135870586Y-120448072D01*
X135838453Y-120492299D01*
X135768768Y-120588211D01*
X135690128Y-120742552D01*
X135636597Y-120907302D01*
X135609500Y-121078389D01*
X105700434Y-121078389D01*
X105723402Y-121007701D01*
X105750500Y-120836611D01*
X105750500Y-120663389D01*
X105723402Y-120492299D01*
X105669873Y-120327555D01*
X105591232Y-120173212D01*
X105489414Y-120033072D01*
X105366928Y-119910586D01*
X105226788Y-119808768D01*
X105072445Y-119730127D01*
X104907701Y-119676598D01*
X104907699Y-119676597D01*
X104907698Y-119676597D01*
X104776271Y-119655781D01*
X104736611Y-119649500D01*
X104313389Y-119649500D01*
X104273728Y-119655781D01*
X104142302Y-119676597D01*
X103977552Y-119730128D01*
X103823211Y-119808768D01*
X103743256Y-119866859D01*
X103683072Y-119910586D01*
X103683070Y-119910588D01*
X103683069Y-119910588D01*
X103560588Y-120033069D01*
X103560588Y-120033070D01*
X103560586Y-120033072D01*
X103537752Y-120064500D01*
X103458768Y-120173211D01*
X103380128Y-120327552D01*
X103326597Y-120492302D01*
X103299500Y-120663389D01*
X100500500Y-120663389D01*
X100500500Y-118163389D01*
X103299500Y-118163389D01*
X103299500Y-118336610D01*
X103326597Y-118507697D01*
X103326597Y-118507699D01*
X103326598Y-118507701D01*
X103380127Y-118672445D01*
X103458768Y-118826788D01*
X103560586Y-118966928D01*
X103683072Y-119089414D01*
X103823212Y-119191232D01*
X103977555Y-119269873D01*
X104142299Y-119323402D01*
X104313389Y-119350500D01*
X104313390Y-119350500D01*
X104736610Y-119350500D01*
X104736611Y-119350500D01*
X104907701Y-119323402D01*
X105072445Y-119269873D01*
X105226788Y-119191232D01*
X105366928Y-119089414D01*
X105489414Y-118966928D01*
X105591232Y-118826788D01*
X105669873Y-118672445D01*
X105713431Y-118538389D01*
X135609500Y-118538389D01*
X135609500Y-118711611D01*
X135636598Y-118882701D01*
X135690127Y-119047445D01*
X135768768Y-119201788D01*
X135870586Y-119341928D01*
X135993072Y-119464414D01*
X136133212Y-119566232D01*
X136287555Y-119644873D01*
X136452299Y-119698402D01*
X136623389Y-119725500D01*
X136623390Y-119725500D01*
X136796610Y-119725500D01*
X136796611Y-119725500D01*
X136967701Y-119698402D01*
X137132445Y-119644873D01*
X137286788Y-119566232D01*
X137426928Y-119464414D01*
X137549414Y-119341928D01*
X137651232Y-119201788D01*
X137729873Y-119047445D01*
X137783402Y-118882701D01*
X137810500Y-118711611D01*
X137810500Y-118538389D01*
X138149500Y-118538389D01*
X138149500Y-118711611D01*
X138176598Y-118882701D01*
X138230127Y-119047445D01*
X138308768Y-119201788D01*
X138410586Y-119341928D01*
X138533072Y-119464414D01*
X138673212Y-119566232D01*
X138827555Y-119644873D01*
X138992299Y-119698402D01*
X139163389Y-119725500D01*
X139163390Y-119725500D01*
X139336610Y-119725500D01*
X139336611Y-119725500D01*
X139507701Y-119698402D01*
X139672445Y-119644873D01*
X139826788Y-119566232D01*
X139966928Y-119464414D01*
X140089414Y-119341928D01*
X140191232Y-119201788D01*
X140269873Y-119047445D01*
X140323402Y-118882701D01*
X140350500Y-118711611D01*
X140350500Y-118538389D01*
X140323402Y-118367299D01*
X140269873Y-118202555D01*
X140191232Y-118048212D01*
X140089414Y-117908072D01*
X139966928Y-117785586D01*
X139826788Y-117683768D01*
X139672445Y-117605127D01*
X139507701Y-117551598D01*
X139507699Y-117551597D01*
X139507698Y-117551597D01*
X139376271Y-117530781D01*
X139336611Y-117524500D01*
X139163389Y-117524500D01*
X139123728Y-117530781D01*
X138992302Y-117551597D01*
X138827552Y-117605128D01*
X138673211Y-117683768D01*
X138593256Y-117741859D01*
X138533072Y-117785586D01*
X138533070Y-117785588D01*
X138533069Y-117785588D01*
X138410588Y-117908069D01*
X138410588Y-117908070D01*
X138410586Y-117908072D01*
X138366859Y-117968256D01*
X138308768Y-118048211D01*
X138230128Y-118202552D01*
X138176597Y-118367302D01*
X138149500Y-118538389D01*
X137810500Y-118538389D01*
X137783402Y-118367299D01*
X137729873Y-118202555D01*
X137651232Y-118048212D01*
X137549414Y-117908072D01*
X137426928Y-117785586D01*
X137286788Y-117683768D01*
X137132445Y-117605127D01*
X136967701Y-117551598D01*
X136967699Y-117551597D01*
X136967698Y-117551597D01*
X136836271Y-117530781D01*
X136796611Y-117524500D01*
X136623389Y-117524500D01*
X136583728Y-117530781D01*
X136452302Y-117551597D01*
X136287552Y-117605128D01*
X136133211Y-117683768D01*
X136053256Y-117741859D01*
X135993072Y-117785586D01*
X135993070Y-117785588D01*
X135993069Y-117785588D01*
X135870588Y-117908069D01*
X135870588Y-117908070D01*
X135870586Y-117908072D01*
X135826859Y-117968256D01*
X135768768Y-118048211D01*
X135690128Y-118202552D01*
X135636597Y-118367302D01*
X135609500Y-118538389D01*
X105713431Y-118538389D01*
X105723402Y-118507701D01*
X105750500Y-118336611D01*
X105750500Y-118163389D01*
X105723402Y-117992299D01*
X105669873Y-117827555D01*
X105591232Y-117673212D01*
X105489414Y-117533072D01*
X105366928Y-117410586D01*
X105226788Y-117308768D01*
X105072445Y-117230127D01*
X104907701Y-117176598D01*
X104907699Y-117176597D01*
X104907698Y-117176597D01*
X104776271Y-117155781D01*
X104736611Y-117149500D01*
X104313389Y-117149500D01*
X104273728Y-117155781D01*
X104142302Y-117176597D01*
X103977552Y-117230128D01*
X103823211Y-117308768D01*
X103743256Y-117366859D01*
X103683072Y-117410586D01*
X103683070Y-117410588D01*
X103683069Y-117410588D01*
X103560588Y-117533069D01*
X103560588Y-117533070D01*
X103560586Y-117533072D01*
X103547127Y-117551597D01*
X103458768Y-117673211D01*
X103380128Y-117827552D01*
X103326597Y-117992302D01*
X103299500Y-118163389D01*
X100500500Y-118163389D01*
X100500500Y-115499999D01*
X103325884Y-115499999D01*
X103325885Y-115500000D01*
X104120854Y-115500000D01*
X104082370Y-115566657D01*
X104050000Y-115687465D01*
X104050000Y-115812535D01*
X104082370Y-115933343D01*
X104120854Y-116000000D01*
X103325885Y-116000000D01*
X103327085Y-116007584D01*
X103380591Y-116172255D01*
X103459195Y-116326524D01*
X103560967Y-116466602D01*
X103683397Y-116589032D01*
X103823475Y-116690804D01*
X103977744Y-116769408D01*
X104142415Y-116822913D01*
X104275000Y-116843913D01*
X104275000Y-116154145D01*
X104341657Y-116192630D01*
X104462465Y-116225000D01*
X104587535Y-116225000D01*
X104708343Y-116192630D01*
X104775000Y-116154145D01*
X104775000Y-116843912D01*
X104907584Y-116822913D01*
X105072255Y-116769408D01*
X105226524Y-116690804D01*
X105366602Y-116589032D01*
X105489032Y-116466602D01*
X105590804Y-116326524D01*
X105669408Y-116172255D01*
X105722914Y-116007584D01*
X105724115Y-116000000D01*
X104929146Y-116000000D01*
X104967630Y-115933343D01*
X105000000Y-115812535D01*
X105000000Y-115687465D01*
X104967630Y-115566657D01*
X104929146Y-115500000D01*
X105724115Y-115500000D01*
X105724115Y-115499999D01*
X105722914Y-115492415D01*
X105669408Y-115327744D01*
X105590804Y-115173475D01*
X105489032Y-115033397D01*
X105366602Y-114910967D01*
X105226524Y-114809195D01*
X105072257Y-114730591D01*
X104907585Y-114677086D01*
X104775000Y-114656086D01*
X104775000Y-115345854D01*
X104708343Y-115307370D01*
X104587535Y-115275000D01*
X104462465Y-115275000D01*
X104341657Y-115307370D01*
X104275000Y-115345854D01*
X104275000Y-114656086D01*
X104142414Y-114677086D01*
X103977742Y-114730591D01*
X103823475Y-114809195D01*
X103683397Y-114910967D01*
X103560967Y-115033397D01*
X103459195Y-115173475D01*
X103380591Y-115327744D01*
X103327085Y-115492415D01*
X103325884Y-115499999D01*
X100500500Y-115499999D01*
X100500500Y-112602135D01*
X103299500Y-112602135D01*
X103299500Y-113897870D01*
X103299501Y-113897876D01*
X103305908Y-113957483D01*
X103356202Y-114092328D01*
X103356206Y-114092335D01*
X103442452Y-114207544D01*
X103442455Y-114207547D01*
X103557664Y-114293793D01*
X103557671Y-114293797D01*
X103692517Y-114344091D01*
X103692516Y-114344091D01*
X103699444Y-114344835D01*
X103752127Y-114350500D01*
X105297872Y-114350499D01*
X105357483Y-114344091D01*
X105492331Y-114293796D01*
X105607546Y-114207546D01*
X105693796Y-114092331D01*
X105744091Y-113957483D01*
X105750500Y-113897873D01*
X105750499Y-112602128D01*
X105744091Y-112542517D01*
X105693796Y-112407669D01*
X105693795Y-112407668D01*
X105693793Y-112407664D01*
X105607547Y-112292456D01*
X105607548Y-112292456D01*
X105607546Y-112292454D01*
X105492331Y-112206204D01*
X105492328Y-112206202D01*
X105415441Y-112177525D01*
X121449500Y-112177525D01*
X121449500Y-112322475D01*
X121487016Y-112462485D01*
X121487017Y-112462488D01*
X121559488Y-112588011D01*
X121559490Y-112588013D01*
X121559491Y-112588015D01*
X121661985Y-112690509D01*
X121661986Y-112690510D01*
X121661988Y-112690511D01*
X121787511Y-112762982D01*
X121787512Y-112762982D01*
X121787515Y-112762984D01*
X121927525Y-112800500D01*
X121927528Y-112800500D01*
X122072472Y-112800500D01*
X122072475Y-112800500D01*
X122212485Y-112762984D01*
X122313002Y-112704950D01*
X122380899Y-112688478D01*
X122436997Y-112704949D01*
X122537515Y-112762984D01*
X122677525Y-112800500D01*
X122677528Y-112800500D01*
X122822472Y-112800500D01*
X122822475Y-112800500D01*
X122962485Y-112762984D01*
X123063002Y-112704950D01*
X123130899Y-112688478D01*
X123186997Y-112704949D01*
X123287515Y-112762984D01*
X123427525Y-112800500D01*
X123427528Y-112800500D01*
X123572472Y-112800500D01*
X123572475Y-112800500D01*
X123712485Y-112762984D01*
X123838015Y-112690509D01*
X123940509Y-112588015D01*
X124012984Y-112462485D01*
X124050500Y-112322475D01*
X124050500Y-112177525D01*
X124012984Y-112037515D01*
X123940509Y-111911985D01*
X123838015Y-111809491D01*
X123838013Y-111809490D01*
X123838011Y-111809488D01*
X123712488Y-111737017D01*
X123712489Y-111737017D01*
X123701006Y-111733940D01*
X123572475Y-111699500D01*
X123427525Y-111699500D01*
X123298993Y-111733940D01*
X123287511Y-111737017D01*
X123187000Y-111795048D01*
X123119100Y-111811521D01*
X123063000Y-111795048D01*
X122962488Y-111737017D01*
X122962489Y-111737017D01*
X122951006Y-111733940D01*
X122822475Y-111699500D01*
X122677525Y-111699500D01*
X122548993Y-111733940D01*
X122537511Y-111737017D01*
X122437000Y-111795048D01*
X122369100Y-111811521D01*
X122313000Y-111795048D01*
X122212488Y-111737017D01*
X122212489Y-111737017D01*
X122201006Y-111733940D01*
X122072475Y-111699500D01*
X121927525Y-111699500D01*
X121798993Y-111733940D01*
X121787511Y-111737017D01*
X121661988Y-111809488D01*
X121661982Y-111809493D01*
X121559493Y-111911982D01*
X121559488Y-111911988D01*
X121487017Y-112037511D01*
X121487016Y-112037515D01*
X121449500Y-112177525D01*
X105415441Y-112177525D01*
X105357482Y-112155908D01*
X105357483Y-112155908D01*
X105297883Y-112149501D01*
X105297881Y-112149500D01*
X105297873Y-112149500D01*
X105297864Y-112149500D01*
X103752129Y-112149500D01*
X103752123Y-112149501D01*
X103692516Y-112155908D01*
X103557671Y-112206202D01*
X103557664Y-112206206D01*
X103442455Y-112292452D01*
X103442452Y-112292455D01*
X103356206Y-112407664D01*
X103356202Y-112407671D01*
X103305908Y-112542517D01*
X103301017Y-112588015D01*
X103299501Y-112602123D01*
X103299500Y-112602135D01*
X100500500Y-112602135D01*
X100500500Y-103878711D01*
X102149500Y-103878711D01*
X102149500Y-104121288D01*
X102181161Y-104361785D01*
X102243947Y-104596104D01*
X102336773Y-104820205D01*
X102336776Y-104820212D01*
X102458064Y-105030289D01*
X102458066Y-105030292D01*
X102458067Y-105030293D01*
X102605733Y-105222736D01*
X102605739Y-105222743D01*
X102777256Y-105394260D01*
X102777262Y-105394265D01*
X102969711Y-105541936D01*
X103179788Y-105663224D01*
X103403900Y-105756054D01*
X103638211Y-105818838D01*
X103818586Y-105842584D01*
X103878711Y-105850500D01*
X103878712Y-105850500D01*
X104121289Y-105850500D01*
X104169388Y-105844167D01*
X104361789Y-105818838D01*
X104596100Y-105756054D01*
X104820212Y-105663224D01*
X105030289Y-105541936D01*
X105222738Y-105394265D01*
X105394265Y-105222738D01*
X105541936Y-105030289D01*
X105663224Y-104820212D01*
X105756054Y-104596100D01*
X105818838Y-104361789D01*
X105850500Y-104121288D01*
X105850500Y-103878712D01*
X105818838Y-103638211D01*
X105756054Y-103403900D01*
X105663224Y-103179788D01*
X105541936Y-102969711D01*
X105394265Y-102777262D01*
X105394264Y-102777261D01*
X105394260Y-102777256D01*
X105319139Y-102702135D01*
X111399500Y-102702135D01*
X111399500Y-104247870D01*
X111399501Y-104247876D01*
X111405908Y-104307483D01*
X111456202Y-104442328D01*
X111456206Y-104442335D01*
X111542452Y-104557544D01*
X111542455Y-104557547D01*
X111657664Y-104643793D01*
X111657671Y-104643797D01*
X111792517Y-104694091D01*
X111792516Y-104694091D01*
X111799444Y-104694835D01*
X111852127Y-104700500D01*
X113147872Y-104700499D01*
X113207483Y-104694091D01*
X113342331Y-104643796D01*
X113457546Y-104557546D01*
X113543796Y-104442331D01*
X113594091Y-104307483D01*
X113600500Y-104247873D01*
X113600499Y-103225000D01*
X113906086Y-103225000D01*
X114595854Y-103225000D01*
X114557370Y-103291657D01*
X114525000Y-103412465D01*
X114525000Y-103537535D01*
X114557370Y-103658343D01*
X114595854Y-103725000D01*
X113906086Y-103725000D01*
X113927086Y-103857585D01*
X113980591Y-104022257D01*
X114059195Y-104176524D01*
X114160967Y-104316602D01*
X114283397Y-104439032D01*
X114423475Y-104540804D01*
X114577744Y-104619408D01*
X114742415Y-104672914D01*
X114742414Y-104672914D01*
X114749999Y-104674115D01*
X114750000Y-104674114D01*
X114750000Y-103879145D01*
X114816657Y-103917630D01*
X114937465Y-103950000D01*
X115062535Y-103950000D01*
X115183343Y-103917630D01*
X115250000Y-103879145D01*
X115250000Y-104674115D01*
X115257584Y-104672914D01*
X115422255Y-104619408D01*
X115576524Y-104540804D01*
X115716602Y-104439032D01*
X115839032Y-104316602D01*
X115940804Y-104176524D01*
X116019408Y-104022257D01*
X116072913Y-103857585D01*
X116093914Y-103725000D01*
X115404146Y-103725000D01*
X115442630Y-103658343D01*
X115475000Y-103537535D01*
X115475000Y-103412465D01*
X115442630Y-103291657D01*
X115426310Y-103263389D01*
X116399500Y-103263389D01*
X116399500Y-103686610D01*
X116426579Y-103857585D01*
X116426598Y-103857701D01*
X116480127Y-104022445D01*
X116558768Y-104176788D01*
X116660586Y-104316928D01*
X116783072Y-104439414D01*
X116923212Y-104541232D01*
X117077555Y-104619873D01*
X117242299Y-104673402D01*
X117413389Y-104700500D01*
X117413390Y-104700500D01*
X117586610Y-104700500D01*
X117586611Y-104700500D01*
X117757701Y-104673402D01*
X117922445Y-104619873D01*
X118076788Y-104541232D01*
X118216928Y-104439414D01*
X118339414Y-104316928D01*
X118441232Y-104176788D01*
X118519873Y-104022445D01*
X118573402Y-103857701D01*
X118600500Y-103686611D01*
X118600500Y-103263389D01*
X118899500Y-103263389D01*
X118899500Y-103686610D01*
X118926579Y-103857585D01*
X118926598Y-103857701D01*
X118980127Y-104022445D01*
X119058768Y-104176788D01*
X119160586Y-104316928D01*
X119283072Y-104439414D01*
X119423212Y-104541232D01*
X119577555Y-104619873D01*
X119742299Y-104673402D01*
X119913389Y-104700500D01*
X119913390Y-104700500D01*
X120086610Y-104700500D01*
X120086611Y-104700500D01*
X120257701Y-104673402D01*
X120422445Y-104619873D01*
X120576788Y-104541232D01*
X120716928Y-104439414D01*
X120839414Y-104316928D01*
X120941232Y-104176788D01*
X121019873Y-104022445D01*
X121066575Y-103878711D01*
X136149500Y-103878711D01*
X136149500Y-104121288D01*
X136181161Y-104361785D01*
X136243947Y-104596104D01*
X136336773Y-104820205D01*
X136336776Y-104820212D01*
X136458064Y-105030289D01*
X136458066Y-105030292D01*
X136458067Y-105030293D01*
X136605733Y-105222736D01*
X136605739Y-105222743D01*
X136777256Y-105394260D01*
X136777262Y-105394265D01*
X136969711Y-105541936D01*
X137179788Y-105663224D01*
X137403900Y-105756054D01*
X137638211Y-105818838D01*
X137818586Y-105842584D01*
X137878711Y-105850500D01*
X137878712Y-105850500D01*
X138121289Y-105850500D01*
X138169388Y-105844167D01*
X138361789Y-105818838D01*
X138596100Y-105756054D01*
X138820212Y-105663224D01*
X139030289Y-105541936D01*
X139222738Y-105394265D01*
X139394265Y-105222738D01*
X139541936Y-105030289D01*
X139663224Y-104820212D01*
X139756054Y-104596100D01*
X139818838Y-104361789D01*
X139850500Y-104121288D01*
X139850500Y-103878712D01*
X139818838Y-103638211D01*
X139756054Y-103403900D01*
X139663224Y-103179788D01*
X139541936Y-102969711D01*
X139394265Y-102777262D01*
X139394260Y-102777256D01*
X139222743Y-102605739D01*
X139222736Y-102605733D01*
X139030293Y-102458067D01*
X139030292Y-102458066D01*
X139030289Y-102458064D01*
X138820212Y-102336776D01*
X138805280Y-102330591D01*
X138596104Y-102243947D01*
X138361785Y-102181161D01*
X138121289Y-102149500D01*
X138121288Y-102149500D01*
X137878712Y-102149500D01*
X137878711Y-102149500D01*
X137638214Y-102181161D01*
X137403895Y-102243947D01*
X137179794Y-102336773D01*
X137179785Y-102336777D01*
X136969706Y-102458067D01*
X136777263Y-102605733D01*
X136777256Y-102605739D01*
X136605739Y-102777256D01*
X136605733Y-102777263D01*
X136458067Y-102969706D01*
X136336777Y-103179785D01*
X136336773Y-103179794D01*
X136243947Y-103403895D01*
X136181161Y-103638214D01*
X136149500Y-103878711D01*
X121066575Y-103878711D01*
X121073402Y-103857701D01*
X121100500Y-103686611D01*
X121100500Y-103263389D01*
X121073402Y-103092299D01*
X121019873Y-102927555D01*
X120941232Y-102773212D01*
X120839414Y-102633072D01*
X120716928Y-102510586D01*
X120576788Y-102408768D01*
X120544766Y-102392452D01*
X120422447Y-102330128D01*
X120422446Y-102330127D01*
X120422445Y-102330127D01*
X120257701Y-102276598D01*
X120257699Y-102276597D01*
X120257698Y-102276597D01*
X120126271Y-102255781D01*
X120086611Y-102249500D01*
X119913389Y-102249500D01*
X119873728Y-102255781D01*
X119742302Y-102276597D01*
X119577552Y-102330128D01*
X119423211Y-102408768D01*
X119355362Y-102458064D01*
X119283072Y-102510586D01*
X119283070Y-102510588D01*
X119283069Y-102510588D01*
X119160588Y-102633069D01*
X119160588Y-102633070D01*
X119160586Y-102633072D01*
X119160350Y-102633397D01*
X119058768Y-102773211D01*
X118980128Y-102927552D01*
X118926597Y-103092302D01*
X118899500Y-103263389D01*
X118600500Y-103263389D01*
X118573402Y-103092299D01*
X118519873Y-102927555D01*
X118441232Y-102773212D01*
X118339414Y-102633072D01*
X118216928Y-102510586D01*
X118076788Y-102408768D01*
X118044766Y-102392452D01*
X117922447Y-102330128D01*
X117922446Y-102330127D01*
X117922445Y-102330127D01*
X117757701Y-102276598D01*
X117757699Y-102276597D01*
X117757698Y-102276597D01*
X117626271Y-102255781D01*
X117586611Y-102249500D01*
X117413389Y-102249500D01*
X117373728Y-102255781D01*
X117242302Y-102276597D01*
X117077552Y-102330128D01*
X116923211Y-102408768D01*
X116855362Y-102458064D01*
X116783072Y-102510586D01*
X116783070Y-102510588D01*
X116783069Y-102510588D01*
X116660588Y-102633069D01*
X116660588Y-102633070D01*
X116660586Y-102633072D01*
X116660350Y-102633397D01*
X116558768Y-102773211D01*
X116480128Y-102927552D01*
X116426597Y-103092302D01*
X116399500Y-103263389D01*
X115426310Y-103263389D01*
X115404146Y-103225000D01*
X116093914Y-103225000D01*
X116072914Y-103092415D01*
X116019408Y-102927742D01*
X115940804Y-102773475D01*
X115839032Y-102633397D01*
X115716602Y-102510967D01*
X115576524Y-102409195D01*
X115422257Y-102330591D01*
X115257589Y-102277087D01*
X115257581Y-102277085D01*
X115250000Y-102275884D01*
X115250000Y-103070854D01*
X115183343Y-103032370D01*
X115062535Y-103000000D01*
X114937465Y-103000000D01*
X114816657Y-103032370D01*
X114750000Y-103070854D01*
X114750000Y-102275884D01*
X114749999Y-102275884D01*
X114742418Y-102277085D01*
X114742410Y-102277087D01*
X114577742Y-102330591D01*
X114423475Y-102409195D01*
X114283397Y-102510967D01*
X114160967Y-102633397D01*
X114059195Y-102773475D01*
X113980591Y-102927742D01*
X113927086Y-103092414D01*
X113906086Y-103225000D01*
X113600499Y-103225000D01*
X113600499Y-102702128D01*
X113594091Y-102642517D01*
X113590689Y-102633397D01*
X113543797Y-102507671D01*
X113543793Y-102507664D01*
X113457547Y-102392455D01*
X113457544Y-102392452D01*
X113342335Y-102306206D01*
X113342328Y-102306202D01*
X113207482Y-102255908D01*
X113207483Y-102255908D01*
X113147883Y-102249501D01*
X113147881Y-102249500D01*
X113147873Y-102249500D01*
X113147864Y-102249500D01*
X111852129Y-102249500D01*
X111852123Y-102249501D01*
X111792516Y-102255908D01*
X111657671Y-102306202D01*
X111657664Y-102306206D01*
X111542455Y-102392452D01*
X111542452Y-102392455D01*
X111456206Y-102507664D01*
X111456202Y-102507671D01*
X111405908Y-102642517D01*
X111399501Y-102702116D01*
X111399501Y-102702123D01*
X111399500Y-102702135D01*
X105319139Y-102702135D01*
X105222743Y-102605739D01*
X105222736Y-102605733D01*
X105030293Y-102458067D01*
X105030292Y-102458066D01*
X105030289Y-102458064D01*
X104820212Y-102336776D01*
X104805280Y-102330591D01*
X104596104Y-102243947D01*
X104361785Y-102181161D01*
X104121289Y-102149500D01*
X104121288Y-102149500D01*
X103878712Y-102149500D01*
X103878711Y-102149500D01*
X103638214Y-102181161D01*
X103403895Y-102243947D01*
X103179794Y-102336773D01*
X103179785Y-102336777D01*
X102969706Y-102458067D01*
X102777263Y-102605733D01*
X102777256Y-102605739D01*
X102605739Y-102777256D01*
X102605733Y-102777263D01*
X102458067Y-102969706D01*
X102336777Y-103179785D01*
X102336773Y-103179794D01*
X102243947Y-103403895D01*
X102181161Y-103638214D01*
X102149500Y-103878711D01*
X100500500Y-103878711D01*
X100500500Y-100624500D01*
X100520185Y-100557461D01*
X100572989Y-100511706D01*
X100624500Y-100500500D01*
X141375500Y-100500500D01*
X141442539Y-100520185D01*
G37*
%TD.AperFunction*%
%TD*%
M02*
