M48
; DRILL file {KiCad 9.0.6} date 2025-12-29T21:08:54-0500
; FORMAT={-:-/ absolute / inch / decimal}
; #@! TF.CreationDate,2025-12-29T21:08:54-05:00
; #@! TF.GenerationSoftware,Kicad,Pcbnew,9.0.6
; #@! TF.FileFunction,Plated,1,4,PTH
FMAT,2
INCH
; #@! TA.AperFunction,Plated,PTH,ViaDrill
T1C0.0118
; #@! TA.AperFunction,Plated,PTH,ComponentDrill
T2C0.0374
; #@! TA.AperFunction,Plated,PTH,ComponentDrill
T3C0.0394
%
G90
G05
T1
X4.0059Y-5.561
X4.0453Y-4.9213
X4.2618Y-4.9409
X4.2717Y-5.8366
X4.311Y-4.5276
X4.3898Y-5.0295
X4.5079Y-4.311
X4.5276Y-4.6654
X4.6161Y-5.2953
X4.6752Y-4.813
X4.7638Y-4.4882
X4.7638Y-4.5669
X4.7638Y-4.6457
X4.7638Y-4.7244
X4.7736Y-4.8209
X4.8031Y-4.4193
X4.8327Y-4.4193
X4.8327Y-4.8524
X4.8327Y-4.8819
X4.8327Y-4.9114
X4.8327Y-4.9409
X4.8327Y-4.9705
X4.8524Y-4.2618
X4.8622Y-4.4193
X4.872Y-5.2657
X4.9055Y-4.8228
X4.9409Y-5.8169
X4.9508Y-4.5669
X5.0Y-4.5669
X5.0Y-4.6457
X5.0Y-4.8031
X5.0098Y-4.7244
X5.0394Y-4.7047
X5.0591Y-5.502
X5.0787Y-4.0354
X5.0984Y-4.5669
X5.128Y-4.4783
X5.1476Y-4.3012
X5.1772Y-4.7933
X5.1772Y-4.8819
X5.187Y-4.5276
X5.187Y-4.626
X5.2461Y-5.8169
X5.2559Y-4.0157
X5.3642Y-5.315
X5.5315Y-5.315
T2
X4.0738Y-5.0886
X4.0738Y-5.187
X4.0738Y-5.2854
X4.0738Y-5.3839
X4.1152Y-4.4587
X4.1152Y-4.5571
X4.1152Y-4.6555
X4.1152Y-4.7539
X4.4291Y-4.0738
X4.4291Y-5.7687
X4.5276Y-4.0738
X4.5276Y-5.7687
X4.626Y-4.0738
X4.626Y-5.7687
X4.7244Y-4.0738
X4.7244Y-5.7687
T3
X5.3823Y-4.6703
X5.3823Y-4.7703
X5.3823Y-4.8703
X5.3823Y-4.9703
X5.3823Y-5.0703
X5.3823Y-5.1703
X5.4823Y-4.6703
X5.4823Y-4.7703
X5.4823Y-4.8703
X5.4823Y-4.9703
X5.4823Y-5.0703
X5.4823Y-5.1703
M30
