M48
; DRILL file {KiCad 9.0.6} date 2026-01-02T14:20:19-0500
; FORMAT={-:-/ absolute / inch / decimal}
; #@! TF.CreationDate,2026-01-02T14:20:19-05:00
; #@! TF.GenerationSoftware,Kicad,Pcbnew,9.0.6
; #@! TF.FileFunction,Plated,1,4,PTH
FMAT,2
INCH
; #@! TA.AperFunction,Plated,PTH,ViaDrill
T1C0.0118
; #@! TA.AperFunction,Plated,PTH,ComponentDrill
T2C0.0236
; #@! TA.AperFunction,Plated,PTH,ComponentDrill
T3C0.0394
%
G90
G05
T1
X2.3228Y-3.2677
X2.4803Y-3.1102
X2.4803Y-5.0394
X2.4882Y-4.5768
X2.5197Y-3.5433
X2.5591Y-4.9213
X2.6998Y-4.0768
X2.7165Y-3.7795
X2.7165Y-5.1969
X2.7559Y-3.3465
X2.7795Y-3.6772
X2.8012Y-4.5059
X2.8268Y-3.6299
X2.8622Y-3.4921
X2.8622Y-3.5945
X2.9528Y-3.6929
X2.9528Y-5.3937
X3.0118Y-3.626
X3.0669Y-3.5118
X3.1263Y-4.2247
X3.1378Y-3.6299
X3.1496Y-3.7402
X3.1575Y-4.5315
X3.2205Y-3.3504
X3.2283Y-5.315
X3.2638Y-4.1929
X3.2638Y-4.2244
X3.2638Y-4.4606
X3.2677Y-4.7244
X3.311Y-4.5197
X3.311Y-4.6339
X3.3465Y-4.7244
X3.3465Y-4.9606
X3.3583Y-4.0748
X3.3701Y-4.2165
X3.374Y-4.4567
X3.3898Y-4.0512
X3.4252Y-4.8189
X3.4323Y-4.048
X3.4369Y-3.5009
X3.4409Y-4.1614
X3.4488Y-4.7953
X3.4488Y-4.8661
X3.4567Y-3.9016
X3.4606Y-4.7638
X3.4646Y-3.8425
X3.4764Y-4.1614
X3.4909Y-4.7551
X3.4998Y-4.0487
X3.5079Y-4.1654
X3.5197Y-4.7047
X3.5276Y-3.9567
X3.5276Y-4.7402
X3.5295Y-4.0383
X3.5315Y-3.9961
X3.5318Y-5.1335
X3.5433Y-5.4331
X3.5571Y-4.6673
X3.5581Y-4.7018
X3.5945Y-4.8898
X3.5954Y-4.6723
X3.5965Y-4.6369
X3.6063Y-4.9606
X3.6063Y-5.0354
X3.6102Y-3.8898
X3.6614Y-3.2677
X3.6614Y-4.4882
X3.6654Y-3.6299
X3.6691Y-4.6055
X3.7126Y-4.2638
X3.7165Y-4.2047
X3.752Y-4.0945
X3.7795Y-3.6929
X3.7795Y-4.5669
X3.7997Y-4.1501
X3.8101Y-5.313
X3.8346Y-4.2047
X3.8583Y-5.0
X3.878Y-4.3701
X3.8976Y-3.937
X3.9016Y-5.0787
X3.9173Y-4.0906
X3.937Y-3.2677
X3.937Y-3.5039
X3.9764Y-4.9449
X3.9921Y-3.3307
X4.0197Y-4.374
X4.0551Y-3.5945
X4.0945Y-4.9213
X4.1339Y-5.1575
X4.189Y-5.1575
X4.2559Y-5.0
X4.2677Y-3.5079
X4.2756Y-5.2402
X4.2992Y-5.2677
X4.3248Y-5.0649
X4.3425Y-4.378
X4.3543Y-4.4843
X4.3661Y-4.9685
X4.3701Y-3.7008
X4.4488Y-3.3465
X4.4764Y-5.0591
X4.4803Y-5.0906
X4.5276Y-4.1732
X4.5669Y-3.3858
X4.5669Y-4.4882
X4.5669Y-4.9213
X4.5747Y-3.9699
X4.6063Y-4.7244
T3
X2.3228Y-3.5819
X2.3228Y-3.6819
X2.3228Y-3.7819
X2.3228Y-3.8819
X2.3228Y-3.9819
X2.3228Y-4.0819
X2.3228Y-4.1819
X2.3228Y-4.2819
X2.3228Y-4.3819
X2.3228Y-4.4819
X2.3228Y-4.5819
X2.3228Y-4.6819
X2.3228Y-4.7819
X2.3228Y-4.8819
X2.3228Y-4.9819
X2.3228Y-5.0819
X2.3228Y-5.1819
X2.3228Y-5.2819
X2.4803Y-3.3465
X2.551Y-3.2757
X2.5827Y-5.5118
X2.6827Y-5.5118
X2.7827Y-5.5118
X2.8039Y-3.1102
X2.8827Y-5.5118
X2.9039Y-3.1102
X2.9827Y-5.5118
X3.0039Y-3.1102
X3.0827Y-5.5118
X3.1039Y-3.1102
X3.1827Y-5.5118
X3.2039Y-3.1102
X3.2827Y-5.5118
X3.3039Y-3.1102
X3.3827Y-5.5118
X3.4039Y-3.1102
X3.4827Y-5.5118
X3.5039Y-3.1102
X3.5827Y-5.5118
X3.6039Y-3.1102
X3.6827Y-5.5118
X3.7039Y-3.1102
X3.7827Y-5.5118
X3.8039Y-3.1102
X3.8827Y-5.5118
X3.9039Y-3.1102
X3.9827Y-5.5118
X4.0039Y-3.1102
X4.0827Y-5.5118
X4.1039Y-3.1102
X4.1827Y-5.5118
X4.2039Y-3.1102
X4.2827Y-5.5118
X4.3039Y-3.1102
X4.4039Y-3.1102
X4.5039Y-3.1102
X4.7244Y-3.3606
X4.7244Y-3.4606
X4.7244Y-3.5606
X4.7244Y-3.6606
X4.7244Y-3.7606
X4.7244Y-3.8606
X4.7244Y-3.9606
X4.7244Y-4.0606
X4.7244Y-4.1606
X4.7244Y-4.2606
X4.7244Y-4.3606
X4.7244Y-4.4606
X4.7244Y-4.5606
X4.7244Y-4.6606
X4.7244Y-4.7606
X4.7244Y-4.8606
X4.7244Y-4.9606
X4.7244Y-5.0606
T2
G00X4.305Y-5.3329
M15
G01X4.3356Y-5.3635
M16
G05
G00X4.4261Y-5.454
M15
G01X4.4484Y-5.4763
M16
G05
G00X4.5455Y-5.0924
M15
G01X4.5761Y-5.123
M16
G05
G00X4.6666Y-5.2135
M15
G01X4.6889Y-5.2358
M16
G05
M30
