%TF.GenerationSoftware,KiCad,Pcbnew,9.0.6*%
%TF.CreationDate,2026-01-02T14:20:19-05:00*%
%TF.ProjectId,plimsoll,706c696d-736f-46c6-9c2e-6b696361645f,rev?*%
%TF.SameCoordinates,Original*%
%TF.FileFunction,Copper,L4,Bot*%
%TF.FilePolarity,Positive*%
%FSLAX46Y46*%
G04 Gerber Fmt 4.6, Leading zero omitted, Abs format (unit mm)*
G04 Created by KiCad (PCBNEW 9.0.6) date 2026-01-02 14:20:19*
%MOMM*%
%LPD*%
G01*
G04 APERTURE LIST*
G04 Aperture macros list*
%AMHorizOval*
0 Thick line with rounded ends*
0 $1 width*
0 $2 $3 position (X,Y) of the first rounded end (center of the circle)*
0 $4 $5 position (X,Y) of the second rounded end (center of the circle)*
0 Add line between two ends*
20,1,$1,$2,$3,$4,$5,0*
0 Add two circle primitives to create the rounded ends*
1,1,$1,$2,$3*
1,1,$1,$4,$5*%
%AMRotRect*
0 Rectangle, with rotation*
0 The origin of the aperture is its center*
0 $1 length*
0 $2 width*
0 $3 Rotation angle, in degrees counterclockwise*
0 Add horizontal line*
21,1,$1,$2,0,0,$3*%
G04 Aperture macros list end*
%TA.AperFunction,HeatsinkPad*%
%ADD10HorizOval,1.000000X-0.282843X0.282843X0.282843X-0.282843X0*%
%TD*%
%TA.AperFunction,HeatsinkPad*%
%ADD11HorizOval,1.000000X-0.388909X0.388909X0.388909X-0.388909X0*%
%TD*%
%TA.AperFunction,ComponentPad*%
%ADD12R,1.700000X1.700000*%
%TD*%
%TA.AperFunction,ComponentPad*%
%ADD13C,1.700000*%
%TD*%
%TA.AperFunction,ComponentPad*%
%ADD14RotRect,1.700000X1.700000X135.000000*%
%TD*%
%TA.AperFunction,ViaPad*%
%ADD15C,0.600000*%
%TD*%
%TA.AperFunction,Conductor*%
%ADD16C,0.200000*%
%TD*%
G04 APERTURE END LIST*
D10*
%TO.P,J2,S1,SHIELD*%
%TO.N,Net-(J2-SHIELD)*%
X118814841Y-132705438D03*
D11*
X115844993Y-129735590D03*
D10*
X112705438Y-138814841D03*
D11*
X109735590Y-135844993D03*
%TD*%
D12*
%TO.P,J3,1,Pin_1*%
%TO.N,GND*%
X59000000Y-90980000D03*
D13*
%TO.P,J3,2,Pin_2*%
%TO.N,+3V3*%
X59000000Y-93520000D03*
%TO.P,J3,3,Pin_3*%
%TO.N,/PC0*%
X59000000Y-96060000D03*
%TO.P,J3,4,Pin_4*%
%TO.N,/PC1*%
X59000000Y-98600000D03*
%TO.P,J3,5,Pin_5*%
%TO.N,/PC2*%
X59000000Y-101140000D03*
%TO.P,J3,6,Pin_6*%
%TO.N,/PC3*%
X59000000Y-103680000D03*
%TO.P,J3,7,Pin_7*%
%TO.N,/PA0*%
X59000000Y-106220000D03*
%TO.P,J3,8,Pin_8*%
%TO.N,GND*%
X59000000Y-108760000D03*
%TO.P,J3,9,Pin_9*%
%TO.N,+3V3*%
X59000000Y-111300000D03*
%TO.P,J3,10,Pin_10*%
%TO.N,VBUS*%
X59000000Y-113840000D03*
%TO.P,J3,11,Pin_11*%
%TO.N,GND*%
X59000000Y-116380000D03*
%TO.P,J3,12,Pin_12*%
%TO.N,/PA1*%
X59000000Y-118920000D03*
%TO.P,J3,13,Pin_13*%
%TO.N,/PA2*%
X59000000Y-121460000D03*
%TO.P,J3,14,Pin_14*%
%TO.N,/PA3*%
X59000000Y-124000000D03*
%TO.P,J3,15,Pin_15*%
%TO.N,/PA4*%
X59000000Y-126540000D03*
%TO.P,J3,16,Pin_16*%
%TO.N,/PA5*%
X59000000Y-129080000D03*
%TO.P,J3,17,Pin_17*%
%TO.N,+3V3*%
X59000000Y-131620000D03*
%TO.P,J3,18,Pin_18*%
%TO.N,GND*%
X59000000Y-134160000D03*
%TD*%
%TO.P,J7,18,Pin_18*%
%TO.N,GND*%
X71220000Y-79000000D03*
%TO.P,J7,17,Pin_17*%
%TO.N,+3V3*%
X73760000Y-79000000D03*
%TO.P,J7,16,Pin_16*%
%TO.N,/PB9*%
X76300000Y-79000000D03*
%TO.P,J7,15,Pin_15*%
%TO.N,/PB8*%
X78840000Y-79000000D03*
%TO.P,J7,14,Pin_14*%
%TO.N,/PB7*%
X81380000Y-79000000D03*
%TO.P,J7,13,Pin_13*%
%TO.N,/PB6*%
X83920000Y-79000000D03*
%TO.P,J7,12,Pin_12*%
%TO.N,/PB5*%
X86460000Y-79000000D03*
%TO.P,J7,11,Pin_11*%
%TO.N,GND*%
X89000000Y-79000000D03*
%TO.P,J7,10,Pin_10*%
%TO.N,VBUS*%
X91540000Y-79000000D03*
%TO.P,J7,9,Pin_9*%
%TO.N,+3V3*%
X94080000Y-79000000D03*
%TO.P,J7,8,Pin_8*%
%TO.N,GND*%
X96620000Y-79000000D03*
%TO.P,J7,7,Pin_7*%
%TO.N,/PB4*%
X99160000Y-79000000D03*
%TO.P,J7,6,Pin_6*%
%TO.N,/PB3*%
X101700000Y-79000000D03*
%TO.P,J7,5,Pin_5*%
%TO.N,/PC12*%
X104240000Y-79000000D03*
%TO.P,J7,4,Pin_4*%
%TO.N,/PC11*%
X106780000Y-79000000D03*
%TO.P,J7,3,Pin_3*%
%TO.N,/PC10*%
X109320000Y-79000000D03*
%TO.P,J7,2,Pin_2*%
%TO.N,+3V3*%
X111860000Y-79000000D03*
D12*
%TO.P,J7,1,Pin_1*%
%TO.N,GND*%
X114400000Y-79000000D03*
%TD*%
%TO.P,J6,1,Pin_1*%
%TO.N,GND*%
X120000000Y-128540000D03*
D13*
%TO.P,J6,2,Pin_2*%
%TO.N,+3V3*%
X120000000Y-126000000D03*
%TO.P,J6,3,Pin_3*%
%TO.N,/PB13*%
X120000000Y-123460000D03*
%TO.P,J6,4,Pin_4*%
%TO.N,/PB14*%
X120000000Y-120920000D03*
%TO.P,J6,5,Pin_5*%
%TO.N,/PB15*%
X120000000Y-118380000D03*
%TO.P,J6,6,Pin_6*%
%TO.N,/PC6*%
X120000000Y-115840000D03*
%TO.P,J6,7,Pin_7*%
%TO.N,/PC7*%
X120000000Y-113300000D03*
%TO.P,J6,8,Pin_8*%
%TO.N,GND*%
X120000000Y-110760000D03*
%TO.P,J6,9,Pin_9*%
%TO.N,+3V3*%
X120000000Y-108220000D03*
%TO.P,J6,10,Pin_10*%
%TO.N,VBUS*%
X120000000Y-105680000D03*
%TO.P,J6,11,Pin_11*%
%TO.N,GND*%
X120000000Y-103140000D03*
%TO.P,J6,12,Pin_12*%
%TO.N,/PC8*%
X120000000Y-100600000D03*
%TO.P,J6,13,Pin_13*%
%TO.N,/PC9*%
X120000000Y-98060000D03*
%TO.P,J6,14,Pin_14*%
%TO.N,/PA8*%
X120000000Y-95520000D03*
%TO.P,J6,15,Pin_15*%
%TO.N,/PA9*%
X120000000Y-92980000D03*
%TO.P,J6,16,Pin_16*%
%TO.N,/PA10*%
X120000000Y-90440000D03*
%TO.P,J6,17,Pin_17*%
%TO.N,+3V3*%
X120000000Y-87900000D03*
%TO.P,J6,18,Pin_18*%
%TO.N,GND*%
X120000000Y-85360000D03*
%TD*%
D12*
%TO.P,J5,1,Pin_1*%
%TO.N,GND*%
X65600000Y-140000000D03*
D13*
%TO.P,J5,2,Pin_2*%
%TO.N,+3V3*%
X68140000Y-140000000D03*
%TO.P,J5,3,Pin_3*%
%TO.N,/PA6*%
X70680000Y-140000000D03*
%TO.P,J5,4,Pin_4*%
%TO.N,/PA7*%
X73220000Y-140000000D03*
%TO.P,J5,5,Pin_5*%
%TO.N,/PC4*%
X75760000Y-140000000D03*
%TO.P,J5,6,Pin_6*%
%TO.N,/PC5*%
X78300000Y-140000000D03*
%TO.P,J5,7,Pin_7*%
%TO.N,/PB0*%
X80840000Y-140000000D03*
%TO.P,J5,8,Pin_8*%
%TO.N,GND*%
X83380000Y-140000000D03*
%TO.P,J5,9,Pin_9*%
%TO.N,+3V3*%
X85920000Y-140000000D03*
%TO.P,J5,10,Pin_10*%
%TO.N,VBUS*%
X88460000Y-140000000D03*
%TO.P,J5,11,Pin_11*%
%TO.N,GND*%
X91000000Y-140000000D03*
%TO.P,J5,12,Pin_12*%
%TO.N,/PB1*%
X93540000Y-140000000D03*
%TO.P,J5,13,Pin_13*%
%TO.N,/PB2*%
X96080000Y-140000000D03*
%TO.P,J5,14,Pin_14*%
%TO.N,/PB10*%
X98620000Y-140000000D03*
%TO.P,J5,15,Pin_15*%
%TO.N,/PB11*%
X101160000Y-140000000D03*
%TO.P,J5,16,Pin_16*%
%TO.N,/PB12*%
X103700000Y-140000000D03*
%TO.P,J5,17,Pin_17*%
%TO.N,+3V3*%
X106240000Y-140000000D03*
%TO.P,J5,18,Pin_18*%
%TO.N,GND*%
X108780000Y-140000000D03*
%TD*%
%TO.P,J4,2,Pin_2*%
%TO.N,VBUS*%
X64796051Y-83203949D03*
D14*
%TO.P,J4,1,Pin_1*%
%TO.N,GND*%
X63000000Y-85000000D03*
%TD*%
D15*
%TO.N,GND*%
X59000000Y-83000000D03*
X63000000Y-79000000D03*
X117000000Y-120000000D03*
X75000000Y-137000000D03*
X85000000Y-120000000D03*
X83000000Y-120000000D03*
X82000000Y-135000000D03*
X69000000Y-132000000D03*
X70000000Y-85000000D03*
X64000000Y-90000000D03*
X69000000Y-96000000D03*
X80000000Y-95000000D03*
X87298263Y-88922320D03*
X99000000Y-100000000D03*
X111000000Y-94000000D03*
X116198537Y-100835846D03*
X116000000Y-114000000D03*
X116000000Y-125000000D03*
X104000000Y-125000000D03*
X96777092Y-134950879D03*
X89708780Y-130390678D03*
X85000000Y-126000000D03*
X63000000Y-128000000D03*
X65000000Y-125000000D03*
X90000000Y-138000000D03*
X116000000Y-86000000D03*
X113000000Y-85000000D03*
X100000000Y-83000000D03*
X93000000Y-83000000D03*
X100000000Y-89000000D03*
X115000000Y-106000000D03*
X68575000Y-103550000D03*
X71150000Y-114450000D03*
X63200000Y-116250000D03*
%TO.N,+3V3*%
X84100000Y-117700000D03*
%TO.N,GND*%
X81800000Y-85100000D03*
X77900000Y-89200000D03*
%TO.N,+3V3*%
X89600000Y-100500000D03*
X87400000Y-105700000D03*
X79700000Y-92200000D03*
X101400000Y-84600000D03*
%TO.N,VBUS*%
X87600000Y-123600000D03*
X108100000Y-127000000D03*
%TO.N,GND*%
X113700000Y-128500000D03*
X108600000Y-133100000D03*
X113800000Y-129300000D03*
X109200000Y-133800000D03*
X105000000Y-131000000D03*
X106400000Y-131000000D03*
X110900000Y-126200000D03*
X109851041Y-128648959D03*
%TO.N,+3V3*%
X108400000Y-89100000D03*
X96512500Y-105412500D03*
X95300000Y-104000000D03*
X96000000Y-116000000D03*
X84100000Y-114800000D03*
X82900000Y-107300003D03*
%TO.N,GND*%
X91600000Y-127900000D03*
X91300000Y-124200000D03*
X91600000Y-126000000D03*
X101000000Y-125600000D03*
X98000000Y-127000000D03*
X99100000Y-129000000D03*
%TO.N,/PA10*%
X91350000Y-117776443D03*
%TO.N,/PA9*%
X91324265Y-118675735D03*
%TO.N,/PA8*%
X90350000Y-118550000D03*
%TO.N,/PC9*%
X90375461Y-119424931D03*
%TO.N,/PC8*%
X89400000Y-119500000D03*
%TO.N,/BOOT0*%
X103000000Y-91300000D03*
X94300000Y-108300000D03*
%TO.N,GND*%
X110600000Y-113900000D03*
X110300000Y-111200000D03*
%TO.N,/PD2*%
X102100000Y-111100000D03*
X98500000Y-111000000D03*
%TO.N,/PC7*%
X89600000Y-120400000D03*
%TO.N,/PC6*%
X88669222Y-120780222D03*
%TO.N,/PB15*%
X87900000Y-121000000D03*
%TO.N,/PB14*%
X87600000Y-121800000D03*
%TO.N,/PB13*%
X87000000Y-122400000D03*
%TO.N,/PA1*%
X86100000Y-102900000D03*
%TO.N,/PA2*%
X85300000Y-103500000D03*
%TO.N,/PA0*%
X87179828Y-102820172D03*
%TO.N,/PC3*%
X89100000Y-105800000D03*
%TO.N,/PC2*%
X88894909Y-102836781D03*
%TO.N,/PC1*%
X89650000Y-102572507D03*
%TO.N,/PC0*%
X89700000Y-101500000D03*
%TO.N,GND*%
X80200000Y-115100000D03*
X79407165Y-107307165D03*
X72700000Y-91300000D03*
%TO.N,+3V3*%
X70600000Y-93400000D03*
%TO.N,/PA15*%
X75000000Y-93800000D03*
X72700000Y-88700000D03*
%TO.N,/nRESET*%
X71800000Y-92200000D03*
X76500000Y-92100000D03*
%TO.N,GND*%
X99500000Y-103900000D03*
X87800000Y-99100000D03*
X88000000Y-97600000D03*
X96000000Y-93800000D03*
X91700000Y-98800000D03*
X93100000Y-92200000D03*
X82900000Y-113300000D03*
X85700000Y-113200000D03*
X82900000Y-106500000D03*
X85600000Y-107100000D03*
X88300000Y-105700000D03*
X94400000Y-106800000D03*
X97400000Y-106800000D03*
X93195672Y-116979611D03*
X93000000Y-114000000D03*
%TD*%
D16*
%TO.N,GND*%
X90100000Y-138000000D02*
X99100000Y-129000000D01*
X90000000Y-138000000D02*
X90100000Y-138000000D01*
%TO.N,VBUS*%
X87600000Y-138000000D02*
X87600000Y-139140000D01*
X98248943Y-127601000D02*
X97999000Y-127601000D01*
X98849943Y-127000000D02*
X98248943Y-127601000D01*
X108100000Y-127000000D02*
X98849943Y-127000000D01*
X97999000Y-127601000D02*
X87600000Y-138000000D01*
%TO.N,GND*%
X117640000Y-85360000D02*
X120000000Y-85360000D01*
X117000000Y-86000000D02*
X117640000Y-85360000D01*
X116000000Y-86000000D02*
X117000000Y-86000000D01*
X112000000Y-85000000D02*
X113000000Y-85000000D01*
X110000000Y-83000000D02*
X112000000Y-85000000D01*
X110000000Y-83000000D02*
X110400000Y-83000000D01*
X110400000Y-83000000D02*
X114400000Y-79000000D01*
X100000000Y-83000000D02*
X110000000Y-83000000D01*
X93000000Y-83000000D02*
X99000000Y-89000000D01*
X99000000Y-89000000D02*
X100000000Y-89000000D01*
X110300000Y-110700000D02*
X110300000Y-111200000D01*
X115000000Y-106000000D02*
X110300000Y-110700000D01*
X64085000Y-103675000D02*
X59000000Y-108760000D01*
X68450000Y-103675000D02*
X64085000Y-103675000D01*
X68575000Y-103550000D02*
X68450000Y-103675000D01*
X63200000Y-116250000D02*
X69350000Y-116250000D01*
X69350000Y-116250000D02*
X71150000Y-114450000D01*
%TO.N,+3V3*%
X96512500Y-105212500D02*
X95300000Y-104000000D01*
X96512500Y-105412500D02*
X96512500Y-105212500D01*
X84100000Y-108500003D02*
X82900000Y-107300003D01*
X84100000Y-114800000D02*
X84100000Y-108500003D01*
X69630000Y-94370000D02*
X70600000Y-93400000D01*
X59850000Y-94370000D02*
X69630000Y-94370000D01*
X59000000Y-93520000D02*
X59850000Y-94370000D01*
X94800000Y-114800000D02*
X84100000Y-114800000D01*
X96000000Y-116000000D02*
X94800000Y-114800000D01*
X114655084Y-129678467D02*
X114655084Y-129014895D01*
X114655084Y-129014895D02*
X117669979Y-126000000D01*
X109268979Y-134401000D02*
X109932551Y-134401000D01*
X117669979Y-126000000D02*
X120000000Y-126000000D01*
X106240000Y-140000000D02*
X106240000Y-137429979D01*
X106240000Y-137429979D02*
X109268979Y-134401000D01*
X109932551Y-134401000D02*
X114655084Y-129678467D01*
X84100000Y-117700000D02*
X84100000Y-114800000D01*
X59760000Y-131620000D02*
X68140000Y-140000000D01*
X59000000Y-131620000D02*
X59760000Y-131620000D01*
X84769000Y-138849000D02*
X85920000Y-140000000D01*
X69291000Y-138849000D02*
X84769000Y-138849000D01*
X68140000Y-140000000D02*
X69291000Y-138849000D01*
X87071000Y-141151000D02*
X85920000Y-140000000D01*
X105089000Y-141151000D02*
X87071000Y-141151000D01*
X106240000Y-140000000D02*
X105089000Y-141151000D01*
%TO.N,/PC0*%
X85550057Y-97700000D02*
X60640000Y-97700000D01*
X89850057Y-102000000D02*
X85550057Y-97700000D01*
X60640000Y-97700000D02*
X59000000Y-96060000D01*
X89700000Y-101500000D02*
X89850057Y-102000000D01*
%TO.N,+3V3*%
X81749943Y-92200000D02*
X79700000Y-92200000D01*
X89600000Y-100050057D02*
X81749943Y-92200000D01*
X89600000Y-100500000D02*
X89600000Y-100050057D01*
X91800000Y-100500000D02*
X95300000Y-104000000D01*
X89600000Y-100500000D02*
X91800000Y-100500000D01*
X84550054Y-107300003D02*
X82900000Y-107300003D01*
X87400000Y-105700000D02*
X86150057Y-105700000D01*
X86150057Y-105700000D02*
X84550054Y-107300003D01*
X77499000Y-94401000D02*
X79700000Y-92200000D01*
X71601000Y-94401000D02*
X77499000Y-94401000D01*
X70600000Y-93400000D02*
X71601000Y-94401000D01*
X101400000Y-84600000D02*
X103900000Y-84600000D01*
X103900000Y-84600000D02*
X108400000Y-89100000D01*
%TO.N,VBUS*%
X121151000Y-104529000D02*
X120000000Y-105680000D01*
X121151000Y-89952000D02*
X121151000Y-104529000D01*
X119523240Y-89289000D02*
X120488000Y-89289000D01*
X120488000Y-89289000D02*
X121151000Y-89952000D01*
X119111240Y-89701000D02*
X119523240Y-89289000D01*
X102241000Y-89701000D02*
X119111240Y-89701000D01*
X91540000Y-79000000D02*
X102241000Y-89701000D01*
X90141000Y-77601000D02*
X91540000Y-79000000D01*
X70399000Y-77601000D02*
X90141000Y-77601000D01*
X64796051Y-83203949D02*
X70399000Y-77601000D01*
X61303949Y-83203949D02*
X64796051Y-83203949D01*
X61300000Y-83200000D02*
X61303949Y-83203949D01*
X57849000Y-86651000D02*
X61300000Y-83200000D01*
X57849000Y-112689000D02*
X57849000Y-86651000D01*
X59000000Y-113840000D02*
X57849000Y-112689000D01*
X87350057Y-123600000D02*
X87600000Y-123600000D01*
X58761240Y-122849000D02*
X86599057Y-122849000D01*
X57849000Y-121936760D02*
X58761240Y-122849000D01*
X57849000Y-114991000D02*
X57849000Y-121936760D01*
X59000000Y-113840000D02*
X57849000Y-114991000D01*
X86599057Y-122849000D02*
X87350057Y-123600000D01*
X87600000Y-139140000D02*
X88460000Y-140000000D01*
X87600000Y-123600000D02*
X87600000Y-139140000D01*
%TO.N,Net-(J2-SHIELD)*%
X115844993Y-129735590D02*
X118814841Y-132705438D01*
X109735590Y-135844993D02*
X112705438Y-138814841D01*
%TO.N,/PA10*%
X91350000Y-117851527D02*
X91350000Y-117776443D01*
X106896000Y-105435600D02*
X106896000Y-115002700D01*
X92092473Y-118594000D02*
X91350000Y-117851527D01*
X117700000Y-94631600D02*
X106896000Y-105435600D01*
X106896000Y-115002700D02*
X103304700Y-118594000D01*
X117700000Y-92740000D02*
X117700000Y-94631600D01*
X120000000Y-90440000D02*
X117700000Y-92740000D01*
X103304700Y-118594000D02*
X92092473Y-118594000D01*
%TO.N,/PA9*%
X119918700Y-92980000D02*
X120000000Y-92980000D01*
X107297000Y-105601700D02*
X119918700Y-92980000D01*
X107297000Y-115168800D02*
X107297000Y-105601700D01*
X91643530Y-118995000D02*
X103470800Y-118995000D01*
X91324265Y-118675735D02*
X91643530Y-118995000D01*
X103470800Y-118995000D02*
X107297000Y-115168800D01*
%TO.N,/PA8*%
X117945800Y-95520000D02*
X120000000Y-95520000D01*
X107698000Y-105767800D02*
X117945800Y-95520000D01*
X107698000Y-115334900D02*
X107698000Y-105767800D01*
X103636900Y-119396000D02*
X107698000Y-115334900D01*
X91196000Y-119396000D02*
X103636900Y-119396000D01*
X90350000Y-118550000D02*
X91196000Y-119396000D01*
%TO.N,/PC9*%
X108099000Y-105933900D02*
X115972900Y-98060000D01*
X108099000Y-115501000D02*
X108099000Y-105933900D01*
X115972900Y-98060000D02*
X120000000Y-98060000D01*
X103803000Y-119797000D02*
X108099000Y-115501000D01*
X90375461Y-119424931D02*
X90747530Y-119797000D01*
X90747530Y-119797000D02*
X103803000Y-119797000D01*
%TO.N,/PC8*%
X118000000Y-102600000D02*
X120000000Y-100600000D01*
X108500000Y-115667100D02*
X108500000Y-106100000D01*
X90300000Y-120198000D02*
X103969100Y-120198000D01*
X89602000Y-119500000D02*
X90300000Y-120198000D01*
X103969100Y-120198000D02*
X108500000Y-115667100D01*
X112000000Y-102600000D02*
X118000000Y-102600000D01*
X89400000Y-119500000D02*
X89602000Y-119500000D01*
X108500000Y-106100000D02*
X112000000Y-102600000D01*
%TO.N,/PC7*%
X112801000Y-120599000D02*
X89799000Y-120599000D01*
X120000000Y-113400000D02*
X112801000Y-120599000D01*
X120000000Y-113300000D02*
X120000000Y-113400000D01*
X89799000Y-120599000D02*
X89600000Y-120400000D01*
%TO.N,/PB13*%
X118742000Y-122202000D02*
X120000000Y-123460000D01*
X88047943Y-122202000D02*
X118742000Y-122202000D01*
X87849943Y-122400000D02*
X88047943Y-122202000D01*
X87000000Y-122400000D02*
X87849943Y-122400000D01*
%TO.N,/BOOT0*%
X103000000Y-107300000D02*
X103000000Y-91300000D01*
X102800000Y-107500000D02*
X103000000Y-107300000D01*
X94300000Y-108300000D02*
X102000000Y-108300000D01*
X102000000Y-108300000D02*
X102800000Y-107500000D01*
%TO.N,/PD2*%
X102000000Y-111000000D02*
X102100000Y-111100000D01*
X98500000Y-111000000D02*
X102000000Y-111000000D01*
%TO.N,/PB14*%
X113433200Y-121801000D02*
X87601000Y-121801000D01*
X87601000Y-121801000D02*
X87600000Y-121800000D01*
X114314200Y-120920000D02*
X113433200Y-121801000D01*
X120000000Y-120920000D02*
X114314200Y-120920000D01*
%TO.N,/PB15*%
X119980000Y-118400000D02*
X120000000Y-118380000D01*
X113267100Y-121400000D02*
X116267100Y-118400000D01*
X88300000Y-121400000D02*
X113267100Y-121400000D01*
X116267100Y-118400000D02*
X119980000Y-118400000D01*
X87900000Y-121000000D02*
X88300000Y-121400000D01*
%TO.N,/PC6*%
X118260000Y-115840000D02*
X120000000Y-115840000D01*
X88889000Y-121000000D02*
X113100000Y-121000000D01*
X113100000Y-121000000D02*
X118260000Y-115840000D01*
X88669222Y-120780222D02*
X88889000Y-121000000D01*
%TO.N,/PA2*%
X60151000Y-119396760D02*
X59000000Y-120547760D01*
X60151000Y-118336100D02*
X60151000Y-119396760D01*
X75187100Y-103300000D02*
X60151000Y-118336100D01*
X59000000Y-120547760D02*
X59000000Y-121460000D01*
X85100000Y-103300000D02*
X75187100Y-103300000D01*
X85300000Y-103500000D02*
X85100000Y-103300000D01*
%TO.N,/PA1*%
X75021000Y-102899000D02*
X86099000Y-102899000D01*
X86099000Y-102899000D02*
X86100000Y-102900000D01*
X59000000Y-118920000D02*
X75021000Y-102899000D01*
%TO.N,/PA0*%
X85193178Y-99611521D02*
X65608479Y-99611521D01*
X65608479Y-99611521D02*
X59000000Y-106220000D01*
X87179828Y-101598171D02*
X85193178Y-99611521D01*
X87179828Y-102820172D02*
X87179828Y-101598171D01*
%TO.N,/PC3*%
X89100000Y-103891815D02*
X89100000Y-105800000D01*
X88293909Y-103085724D02*
X89100000Y-103891815D01*
X85359278Y-99210521D02*
X88293909Y-102145152D01*
X63469479Y-99210521D02*
X85359278Y-99210521D01*
X59000000Y-103680000D02*
X63469479Y-99210521D01*
X88293909Y-102145152D02*
X88293909Y-103085724D01*
%TO.N,/PC2*%
X61330479Y-98809521D02*
X59000000Y-101140000D01*
X85525378Y-98809521D02*
X61330479Y-98809521D01*
X88894909Y-102179052D02*
X85525378Y-98809521D01*
X88894909Y-102836781D02*
X88894909Y-102179052D01*
%TO.N,/PC1*%
X60517042Y-98600000D02*
X59000000Y-98600000D01*
X60708521Y-98408521D02*
X60517042Y-98600000D01*
X85691478Y-98408521D02*
X60708521Y-98408521D01*
X89650000Y-102367043D02*
X85691478Y-98408521D01*
X89650000Y-102572507D02*
X89650000Y-102367043D01*
%TO.N,/PA15*%
X72700000Y-88700000D02*
X71199000Y-90201000D01*
X71199000Y-92448943D02*
X72550057Y-93800000D01*
X72550057Y-93800000D02*
X75000000Y-93800000D01*
X71199000Y-90201000D02*
X71199000Y-92448943D01*
%TO.N,/nRESET*%
X76400000Y-92200000D02*
X76500000Y-92100000D01*
X71800000Y-92200000D02*
X76400000Y-92200000D01*
%TD*%
%TA.AperFunction,Conductor*%
%TO.N,GND*%
G36*
X59963346Y-132678996D02*
G01*
X59990053Y-132699288D01*
X65813681Y-138522916D01*
X65847166Y-138584239D01*
X65850000Y-138610597D01*
X65850000Y-139566988D01*
X65792993Y-139534075D01*
X65665826Y-139500000D01*
X65534174Y-139500000D01*
X65407007Y-139534075D01*
X65350000Y-139566988D01*
X65350000Y-138650000D01*
X64702155Y-138650000D01*
X64642627Y-138656401D01*
X64642620Y-138656403D01*
X64507913Y-138706645D01*
X64507906Y-138706649D01*
X64392812Y-138792809D01*
X64392809Y-138792812D01*
X64306649Y-138907906D01*
X64306645Y-138907913D01*
X64256403Y-139042620D01*
X64256401Y-139042627D01*
X64250000Y-139102155D01*
X64250000Y-139750000D01*
X65166988Y-139750000D01*
X65134075Y-139807007D01*
X65100000Y-139934174D01*
X65100000Y-140065826D01*
X65134075Y-140192993D01*
X65166988Y-140250000D01*
X64250000Y-140250000D01*
X64250000Y-140897844D01*
X64256401Y-140957372D01*
X64256403Y-140957379D01*
X64306645Y-141092086D01*
X64306649Y-141092093D01*
X64392809Y-141207187D01*
X64392812Y-141207190D01*
X64485042Y-141276234D01*
X64526913Y-141332168D01*
X64531897Y-141401859D01*
X64498411Y-141463182D01*
X64437088Y-141496666D01*
X64410731Y-141499500D01*
X57624500Y-141499500D01*
X57557461Y-141479815D01*
X57511706Y-141427011D01*
X57500500Y-141375500D01*
X57500500Y-138893713D01*
X58649500Y-138893713D01*
X58649500Y-139106286D01*
X58680419Y-139301505D01*
X58682754Y-139316243D01*
X58706563Y-139389520D01*
X58748444Y-139518414D01*
X58844951Y-139707820D01*
X58969890Y-139879786D01*
X59120213Y-140030109D01*
X59292179Y-140155048D01*
X59292181Y-140155049D01*
X59292184Y-140155051D01*
X59481588Y-140251557D01*
X59683757Y-140317246D01*
X59893713Y-140350500D01*
X59893714Y-140350500D01*
X60106286Y-140350500D01*
X60106287Y-140350500D01*
X60316243Y-140317246D01*
X60518412Y-140251557D01*
X60707816Y-140155051D01*
X60747802Y-140126000D01*
X60879786Y-140030109D01*
X60879788Y-140030106D01*
X60879792Y-140030104D01*
X61030104Y-139879792D01*
X61030106Y-139879788D01*
X61030109Y-139879786D01*
X61155048Y-139707820D01*
X61155047Y-139707820D01*
X61155051Y-139707816D01*
X61251557Y-139518412D01*
X61317246Y-139316243D01*
X61350500Y-139106287D01*
X61350500Y-138893713D01*
X61317246Y-138683757D01*
X61251557Y-138481588D01*
X61155051Y-138292184D01*
X61155049Y-138292181D01*
X61155048Y-138292179D01*
X61030109Y-138120213D01*
X60879786Y-137969890D01*
X60707820Y-137844951D01*
X60518414Y-137748444D01*
X60518413Y-137748443D01*
X60518412Y-137748443D01*
X60316243Y-137682754D01*
X60316241Y-137682753D01*
X60316240Y-137682753D01*
X60154957Y-137657208D01*
X60106287Y-137649500D01*
X59893713Y-137649500D01*
X59845042Y-137657208D01*
X59683760Y-137682753D01*
X59481585Y-137748444D01*
X59292179Y-137844951D01*
X59120213Y-137969890D01*
X58969890Y-138120213D01*
X58844951Y-138292179D01*
X58748444Y-138481585D01*
X58682753Y-138683760D01*
X58649500Y-138893713D01*
X57500500Y-138893713D01*
X57500500Y-134696611D01*
X57520185Y-134629572D01*
X57572989Y-134583817D01*
X57642147Y-134573873D01*
X57705703Y-134602898D01*
X57742432Y-134658294D01*
X57748906Y-134678221D01*
X57845375Y-134867550D01*
X57884728Y-134921716D01*
X58517037Y-134289408D01*
X58534075Y-134352993D01*
X58599901Y-134467007D01*
X58692993Y-134560099D01*
X58807007Y-134625925D01*
X58870590Y-134642962D01*
X58238282Y-135275269D01*
X58238282Y-135275270D01*
X58292449Y-135314624D01*
X58481782Y-135411095D01*
X58683870Y-135476757D01*
X58893754Y-135510000D01*
X59106246Y-135510000D01*
X59316127Y-135476757D01*
X59316130Y-135476757D01*
X59518217Y-135411095D01*
X59707554Y-135314622D01*
X59761716Y-135275270D01*
X59761717Y-135275270D01*
X59129408Y-134642962D01*
X59192993Y-134625925D01*
X59307007Y-134560099D01*
X59400099Y-134467007D01*
X59465925Y-134352993D01*
X59482962Y-134289409D01*
X60115270Y-134921717D01*
X60115270Y-134921716D01*
X60154622Y-134867554D01*
X60251095Y-134678217D01*
X60316757Y-134476130D01*
X60316757Y-134476127D01*
X60350000Y-134266246D01*
X60350000Y-134053753D01*
X60316757Y-133843872D01*
X60316757Y-133843869D01*
X60251095Y-133641782D01*
X60154624Y-133452449D01*
X60115270Y-133398282D01*
X60115269Y-133398282D01*
X59482962Y-134030590D01*
X59465925Y-133967007D01*
X59400099Y-133852993D01*
X59307007Y-133759901D01*
X59192993Y-133694075D01*
X59129409Y-133677037D01*
X59761716Y-133044728D01*
X59707547Y-133005373D01*
X59707547Y-133005372D01*
X59698500Y-133000763D01*
X59647706Y-132952788D01*
X59630912Y-132884966D01*
X59653451Y-132818832D01*
X59698508Y-132779793D01*
X59707816Y-132775051D01*
X59829491Y-132686648D01*
X59895292Y-132663171D01*
X59963346Y-132678996D01*
G37*
%TD.AperFunction*%
%TA.AperFunction,Conductor*%
G36*
X82914075Y-140192993D02*
G01*
X82979901Y-140307007D01*
X83072993Y-140400099D01*
X83187007Y-140465925D01*
X83250590Y-140482962D01*
X82618282Y-141115269D01*
X82618282Y-141115270D01*
X82672449Y-141154624D01*
X82861782Y-141251095D01*
X82881706Y-141257569D01*
X82939381Y-141297006D01*
X82966580Y-141361365D01*
X82954665Y-141430211D01*
X82907421Y-141481687D01*
X82843388Y-141499500D01*
X81378226Y-141499500D01*
X81311187Y-141479815D01*
X81265432Y-141427011D01*
X81255488Y-141357853D01*
X81284513Y-141294297D01*
X81339906Y-141257569D01*
X81358412Y-141251557D01*
X81547816Y-141155051D01*
X81634471Y-141092093D01*
X81719786Y-141030109D01*
X81719788Y-141030106D01*
X81719792Y-141030104D01*
X81870104Y-140879792D01*
X81870106Y-140879788D01*
X81870109Y-140879786D01*
X81955890Y-140761717D01*
X81995051Y-140707816D01*
X81999793Y-140698508D01*
X82047763Y-140647711D01*
X82115583Y-140630911D01*
X82181719Y-140653445D01*
X82220763Y-140698500D01*
X82225373Y-140707547D01*
X82264728Y-140761716D01*
X82897036Y-140129407D01*
X82914075Y-140192993D01*
G37*
%TD.AperFunction*%
%TA.AperFunction,Conductor*%
G36*
X84495270Y-140761717D02*
G01*
X84495270Y-140761716D01*
X84534622Y-140707555D01*
X84539232Y-140698507D01*
X84587205Y-140647709D01*
X84655025Y-140630912D01*
X84721161Y-140653447D01*
X84760204Y-140698504D01*
X84764949Y-140707817D01*
X84889890Y-140879786D01*
X85040213Y-141030109D01*
X85212179Y-141155048D01*
X85212181Y-141155049D01*
X85212184Y-141155051D01*
X85401588Y-141251557D01*
X85420092Y-141257569D01*
X85477768Y-141297006D01*
X85504966Y-141361365D01*
X85493051Y-141430211D01*
X85445807Y-141481687D01*
X85381774Y-141499500D01*
X83916612Y-141499500D01*
X83849573Y-141479815D01*
X83803818Y-141427011D01*
X83793874Y-141357853D01*
X83822899Y-141294297D01*
X83878294Y-141257569D01*
X83898217Y-141251095D01*
X84087554Y-141154622D01*
X84141716Y-141115270D01*
X84141717Y-141115270D01*
X83509408Y-140482962D01*
X83572993Y-140465925D01*
X83687007Y-140400099D01*
X83780099Y-140307007D01*
X83845925Y-140192993D01*
X83862962Y-140129409D01*
X84495270Y-140761717D01*
G37*
%TD.AperFunction*%
%TA.AperFunction,Conductor*%
G36*
X108314075Y-140192993D02*
G01*
X108379901Y-140307007D01*
X108472993Y-140400099D01*
X108587007Y-140465925D01*
X108650590Y-140482962D01*
X108018282Y-141115269D01*
X108018282Y-141115270D01*
X108072449Y-141154624D01*
X108261782Y-141251095D01*
X108281706Y-141257569D01*
X108339381Y-141297006D01*
X108366580Y-141361365D01*
X108354665Y-141430211D01*
X108307421Y-141481687D01*
X108243388Y-141499500D01*
X106778226Y-141499500D01*
X106711187Y-141479815D01*
X106665432Y-141427011D01*
X106655488Y-141357853D01*
X106684513Y-141294297D01*
X106739906Y-141257569D01*
X106758412Y-141251557D01*
X106947816Y-141155051D01*
X107034471Y-141092093D01*
X107119786Y-141030109D01*
X107119788Y-141030106D01*
X107119792Y-141030104D01*
X107270104Y-140879792D01*
X107270106Y-140879788D01*
X107270109Y-140879786D01*
X107355890Y-140761717D01*
X107395051Y-140707816D01*
X107399793Y-140698508D01*
X107447763Y-140647711D01*
X107515583Y-140630911D01*
X107581719Y-140653445D01*
X107620763Y-140698500D01*
X107625373Y-140707547D01*
X107664728Y-140761716D01*
X108297037Y-140129408D01*
X108314075Y-140192993D01*
G37*
%TD.AperFunction*%
%TA.AperFunction,Conductor*%
G36*
X118781320Y-126620185D02*
G01*
X118824765Y-126668205D01*
X118844947Y-126707814D01*
X118844948Y-126707815D01*
X118969890Y-126879786D01*
X119083818Y-126993714D01*
X119117303Y-127055037D01*
X119112319Y-127124729D01*
X119070447Y-127180662D01*
X119039471Y-127197577D01*
X118907912Y-127246646D01*
X118907906Y-127246649D01*
X118792812Y-127332809D01*
X118792809Y-127332812D01*
X118706649Y-127447906D01*
X118706645Y-127447913D01*
X118656403Y-127582620D01*
X118656401Y-127582627D01*
X118650000Y-127642155D01*
X118650000Y-128290000D01*
X119566988Y-128290000D01*
X119534075Y-128347007D01*
X119500000Y-128474174D01*
X119500000Y-128605826D01*
X119534075Y-128732993D01*
X119566988Y-128790000D01*
X118650000Y-128790000D01*
X118650000Y-129437844D01*
X118656401Y-129497372D01*
X118656403Y-129497379D01*
X118706645Y-129632086D01*
X118706649Y-129632093D01*
X118792809Y-129747187D01*
X118792812Y-129747190D01*
X118907906Y-129833350D01*
X118907913Y-129833354D01*
X119042620Y-129883596D01*
X119042627Y-129883598D01*
X119102155Y-129889999D01*
X119102172Y-129890000D01*
X119750000Y-129890000D01*
X119750000Y-128973012D01*
X119807007Y-129005925D01*
X119934174Y-129040000D01*
X120065826Y-129040000D01*
X120192993Y-129005925D01*
X120250000Y-128973012D01*
X120250000Y-129890000D01*
X120897828Y-129890000D01*
X120897844Y-129889999D01*
X120957372Y-129883598D01*
X120957379Y-129883596D01*
X121092086Y-129833354D01*
X121092093Y-129833350D01*
X121207187Y-129747190D01*
X121207190Y-129747187D01*
X121276234Y-129654958D01*
X121332168Y-129613087D01*
X121401859Y-129608103D01*
X121463182Y-129641589D01*
X121496666Y-129702912D01*
X121499500Y-129729269D01*
X121499500Y-133741324D01*
X121479815Y-133808363D01*
X121463181Y-133829005D01*
X113829005Y-141463181D01*
X113767682Y-141496666D01*
X113741324Y-141499500D01*
X109316612Y-141499500D01*
X109249573Y-141479815D01*
X109203818Y-141427011D01*
X109193874Y-141357853D01*
X109222899Y-141294297D01*
X109278294Y-141257569D01*
X109298217Y-141251095D01*
X109487554Y-141154622D01*
X109541716Y-141115270D01*
X109541717Y-141115270D01*
X108909408Y-140482962D01*
X108972993Y-140465925D01*
X109087007Y-140400099D01*
X109180099Y-140307007D01*
X109245925Y-140192993D01*
X109262962Y-140129409D01*
X109895270Y-140761717D01*
X109895270Y-140761716D01*
X109934622Y-140707554D01*
X110031095Y-140518217D01*
X110096757Y-140316130D01*
X110096757Y-140316127D01*
X110130000Y-140106246D01*
X110130000Y-139893753D01*
X110096757Y-139683872D01*
X110096757Y-139683869D01*
X110031095Y-139481782D01*
X109934624Y-139292449D01*
X109895270Y-139238282D01*
X109895269Y-139238282D01*
X109262962Y-139870590D01*
X109245925Y-139807007D01*
X109180099Y-139692993D01*
X109087007Y-139599901D01*
X108972993Y-139534075D01*
X108909409Y-139517037D01*
X109541716Y-138884728D01*
X109487550Y-138845375D01*
X109298217Y-138748904D01*
X109096129Y-138683242D01*
X108886246Y-138650000D01*
X108673754Y-138650000D01*
X108463872Y-138683242D01*
X108463869Y-138683242D01*
X108261782Y-138748904D01*
X108072439Y-138845380D01*
X108018282Y-138884727D01*
X108018282Y-138884728D01*
X108650591Y-139517037D01*
X108587007Y-139534075D01*
X108472993Y-139599901D01*
X108379901Y-139692993D01*
X108314075Y-139807007D01*
X108297037Y-139870591D01*
X107664728Y-139238282D01*
X107664727Y-139238282D01*
X107625380Y-139292440D01*
X107625376Y-139292446D01*
X107620760Y-139301505D01*
X107572781Y-139352297D01*
X107504959Y-139369087D01*
X107438826Y-139346543D01*
X107399794Y-139301493D01*
X107395051Y-139292184D01*
X107395049Y-139292181D01*
X107395048Y-139292179D01*
X107270109Y-139120213D01*
X107119786Y-138969890D01*
X106947815Y-138844948D01*
X106947814Y-138844947D01*
X106908205Y-138824765D01*
X106857409Y-138776791D01*
X106840500Y-138714281D01*
X106840500Y-137730075D01*
X106860185Y-137663036D01*
X106876814Y-137642399D01*
X108409765Y-136109447D01*
X108471086Y-136075964D01*
X108540778Y-136080948D01*
X108585125Y-136109449D01*
X109486712Y-137011037D01*
X109486713Y-137011038D01*
X109486716Y-137011040D01*
X109486718Y-137011042D01*
X109561880Y-137061263D01*
X109650586Y-137120534D01*
X109741624Y-137158243D01*
X109832663Y-137195953D01*
X109981980Y-137225654D01*
X110025954Y-137234401D01*
X110025957Y-137234402D01*
X110224402Y-137234402D01*
X110291441Y-137254087D01*
X110312083Y-137270721D01*
X111385776Y-138344414D01*
X111419261Y-138405737D01*
X111422095Y-138432095D01*
X111422095Y-138630542D01*
X111460542Y-138823826D01*
X111460544Y-138823834D01*
X111535962Y-139005908D01*
X111535967Y-139005918D01*
X111645455Y-139169778D01*
X111645458Y-139169782D01*
X112350496Y-139874820D01*
X112350500Y-139874823D01*
X112514360Y-139984311D01*
X112514364Y-139984313D01*
X112514367Y-139984315D01*
X112696445Y-140059735D01*
X112844048Y-140089095D01*
X112889736Y-140098183D01*
X112889739Y-140098184D01*
X112889741Y-140098184D01*
X113086823Y-140098184D01*
X113086824Y-140098183D01*
X113280117Y-140059735D01*
X113462195Y-139984315D01*
X113626062Y-139874823D01*
X113765420Y-139735465D01*
X113874912Y-139571598D01*
X113950332Y-139389520D01*
X113988781Y-139196224D01*
X113988781Y-138999144D01*
X113988781Y-138999141D01*
X113988780Y-138999139D01*
X113970634Y-138907913D01*
X113950332Y-138805848D01*
X113874912Y-138623770D01*
X113874910Y-138623767D01*
X113874908Y-138623763D01*
X113765420Y-138459903D01*
X113765417Y-138459899D01*
X113060379Y-137754861D01*
X113060375Y-137754858D01*
X112896515Y-137645370D01*
X112896505Y-137645365D01*
X112714431Y-137569947D01*
X112714423Y-137569945D01*
X112521138Y-137531498D01*
X112521135Y-137531498D01*
X112324055Y-137531498D01*
X112322692Y-137531498D01*
X112255653Y-137511813D01*
X112235011Y-137495179D01*
X111161318Y-136421486D01*
X111127833Y-136360163D01*
X111124999Y-136333805D01*
X111124999Y-136135359D01*
X111124998Y-136135357D01*
X111086552Y-135942078D01*
X111086550Y-135942066D01*
X111086543Y-135942051D01*
X111084816Y-135936354D01*
X111084187Y-135866487D01*
X111121430Y-135807371D01*
X111184722Y-135777775D01*
X111187288Y-135777410D01*
X111190204Y-135777025D01*
X111190214Y-135777025D01*
X111336583Y-135737806D01*
X111467813Y-135662040D01*
X111574963Y-135554890D01*
X111650729Y-135423660D01*
X111689948Y-135277291D01*
X111689948Y-135125759D01*
X111689947Y-135125754D01*
X111688657Y-135120939D01*
X111688655Y-135120934D01*
X111681361Y-135093713D01*
X113949500Y-135093713D01*
X113949500Y-135306287D01*
X113982754Y-135516243D01*
X114030126Y-135662039D01*
X114048444Y-135718414D01*
X114144951Y-135907820D01*
X114269890Y-136079786D01*
X114420213Y-136230109D01*
X114592179Y-136355048D01*
X114592181Y-136355049D01*
X114592184Y-136355051D01*
X114781588Y-136451557D01*
X114983757Y-136517246D01*
X115193713Y-136550500D01*
X115193714Y-136550500D01*
X115406286Y-136550500D01*
X115406287Y-136550500D01*
X115616243Y-136517246D01*
X115818412Y-136451557D01*
X116007816Y-136355051D01*
X116048886Y-136325212D01*
X116179786Y-136230109D01*
X116179788Y-136230106D01*
X116179792Y-136230104D01*
X116330104Y-136079792D01*
X116330106Y-136079788D01*
X116330109Y-136079786D01*
X116455048Y-135907820D01*
X116455047Y-135907820D01*
X116455051Y-135907816D01*
X116551557Y-135718412D01*
X116617246Y-135516243D01*
X116650500Y-135306287D01*
X116650500Y-135093713D01*
X116617246Y-134883757D01*
X116551557Y-134681588D01*
X116455051Y-134492184D01*
X116455049Y-134492181D01*
X116455048Y-134492179D01*
X116330109Y-134320213D01*
X116179786Y-134169890D01*
X116007820Y-134044951D01*
X115818414Y-133948444D01*
X115818413Y-133948443D01*
X115818412Y-133948443D01*
X115616243Y-133882754D01*
X115616241Y-133882753D01*
X115616240Y-133882753D01*
X115454957Y-133857208D01*
X115406287Y-133849500D01*
X115193713Y-133849500D01*
X115145042Y-133857208D01*
X114983760Y-133882753D01*
X114781585Y-133948444D01*
X114592179Y-134044951D01*
X114420213Y-134169890D01*
X114269890Y-134320213D01*
X114144951Y-134492179D01*
X114048444Y-134681585D01*
X113982753Y-134883760D01*
X113976486Y-134923330D01*
X113949500Y-135093713D01*
X111681361Y-135093713D01*
X111650728Y-134979388D01*
X111640577Y-134961806D01*
X111574963Y-134848160D01*
X111467813Y-134741010D01*
X111364892Y-134681588D01*
X111336584Y-134665244D01*
X111260859Y-134644954D01*
X111190214Y-134626025D01*
X111038682Y-134626025D01*
X110892313Y-134665244D01*
X110892312Y-134665244D01*
X110892310Y-134665245D01*
X110892309Y-134665245D01*
X110821278Y-134706255D01*
X110753377Y-134722728D01*
X110687350Y-134699875D01*
X110644160Y-134644954D01*
X110637519Y-134575400D01*
X110669535Y-134513298D01*
X110671554Y-134511230D01*
X114511189Y-130671595D01*
X114572510Y-130638112D01*
X114642202Y-130643096D01*
X114698135Y-130684968D01*
X114722552Y-130750432D01*
X114707700Y-130818705D01*
X114706255Y-130821278D01*
X114665245Y-130892309D01*
X114665245Y-130892310D01*
X114665244Y-130892312D01*
X114665244Y-130892313D01*
X114626025Y-131038682D01*
X114626025Y-131190214D01*
X114645634Y-131263398D01*
X114665244Y-131336584D01*
X114678996Y-131360402D01*
X114741010Y-131467813D01*
X114848160Y-131574963D01*
X114979390Y-131650729D01*
X115125759Y-131689948D01*
X115125761Y-131689948D01*
X115277289Y-131689948D01*
X115277291Y-131689948D01*
X115423660Y-131650729D01*
X115554890Y-131574963D01*
X115662040Y-131467813D01*
X115737806Y-131336583D01*
X115777025Y-131190214D01*
X115777025Y-131190204D01*
X115777410Y-131187288D01*
X115778420Y-131185002D01*
X115779128Y-131182364D01*
X115779539Y-131182474D01*
X115805677Y-131123392D01*
X115864001Y-131084921D01*
X115933866Y-131084090D01*
X115936354Y-131084816D01*
X115942051Y-131086543D01*
X115942066Y-131086550D01*
X116091383Y-131116251D01*
X116135357Y-131124998D01*
X116135360Y-131124999D01*
X116333805Y-131124999D01*
X116400844Y-131144684D01*
X116421486Y-131161318D01*
X117495179Y-132235011D01*
X117528664Y-132296334D01*
X117531498Y-132322692D01*
X117531498Y-132521139D01*
X117569945Y-132714423D01*
X117569947Y-132714431D01*
X117645365Y-132896505D01*
X117645370Y-132896515D01*
X117754858Y-133060375D01*
X117754861Y-133060379D01*
X118459899Y-133765417D01*
X118459903Y-133765420D01*
X118623763Y-133874908D01*
X118623767Y-133874910D01*
X118623770Y-133874912D01*
X118805848Y-133950332D01*
X118999139Y-133988780D01*
X118999142Y-133988781D01*
X118999144Y-133988781D01*
X119196226Y-133988781D01*
X119196227Y-133988780D01*
X119389520Y-133950332D01*
X119571598Y-133874912D01*
X119735465Y-133765420D01*
X119874823Y-133626062D01*
X119984315Y-133462195D01*
X120059735Y-133280117D01*
X120098184Y-133086821D01*
X120098184Y-132889741D01*
X120098184Y-132889738D01*
X120098183Y-132889736D01*
X120076314Y-132779792D01*
X120059735Y-132696445D01*
X119984315Y-132514367D01*
X119984313Y-132514364D01*
X119984311Y-132514360D01*
X119874823Y-132350500D01*
X119874820Y-132350496D01*
X119169782Y-131645458D01*
X119169778Y-131645455D01*
X119005918Y-131535967D01*
X119005908Y-131535962D01*
X118823834Y-131460544D01*
X118823826Y-131460542D01*
X118630541Y-131422095D01*
X118630538Y-131422095D01*
X118433458Y-131422095D01*
X118432095Y-131422095D01*
X118365056Y-131402410D01*
X118344414Y-131385776D01*
X117270721Y-130312083D01*
X117237236Y-130250760D01*
X117234402Y-130224402D01*
X117234402Y-130025956D01*
X117234401Y-130025954D01*
X117195953Y-129832663D01*
X117142208Y-129702912D01*
X117120534Y-129650586D01*
X117018165Y-129497379D01*
X117011042Y-129486718D01*
X117011040Y-129486716D01*
X117011038Y-129486713D01*
X117011037Y-129486712D01*
X116350643Y-128826319D01*
X116109449Y-128585125D01*
X116075964Y-128523802D01*
X116080948Y-128454110D01*
X116109447Y-128409765D01*
X117882395Y-126636819D01*
X117943718Y-126603334D01*
X117970076Y-126600500D01*
X118714281Y-126600500D01*
X118781320Y-126620185D01*
G37*
%TD.AperFunction*%
%TA.AperFunction,Conductor*%
G36*
X118508942Y-122822185D02*
G01*
X118529584Y-122838819D01*
X118666241Y-122975476D01*
X118699726Y-123036799D01*
X118696492Y-123101473D01*
X118682753Y-123143757D01*
X118649500Y-123353713D01*
X118649500Y-123566286D01*
X118668105Y-123683757D01*
X118682754Y-123776243D01*
X118743889Y-123964397D01*
X118748444Y-123978414D01*
X118844951Y-124167820D01*
X118969890Y-124339786D01*
X119120213Y-124490109D01*
X119292182Y-124615050D01*
X119300946Y-124619516D01*
X119351742Y-124667491D01*
X119368536Y-124735312D01*
X119345998Y-124801447D01*
X119300946Y-124840484D01*
X119292182Y-124844949D01*
X119120213Y-124969890D01*
X118969890Y-125120213D01*
X118844948Y-125292184D01*
X118844947Y-125292185D01*
X118824765Y-125331795D01*
X118776791Y-125382591D01*
X118714281Y-125399500D01*
X117590919Y-125399500D01*
X117549998Y-125410464D01*
X117549998Y-125410465D01*
X117512730Y-125420451D01*
X117438193Y-125440423D01*
X117438188Y-125440426D01*
X117301269Y-125519475D01*
X117301261Y-125519481D01*
X114174565Y-128646177D01*
X114174563Y-128646180D01*
X114124445Y-128732989D01*
X114124443Y-128732991D01*
X114095509Y-128783104D01*
X114095508Y-128783105D01*
X114095507Y-128783110D01*
X114054583Y-128935838D01*
X114054583Y-128935840D01*
X114054583Y-129103941D01*
X114054584Y-129103954D01*
X114054584Y-129378370D01*
X114034899Y-129445409D01*
X114018265Y-129466051D01*
X109720135Y-133764181D01*
X109658812Y-133797666D01*
X109632454Y-133800500D01*
X109348036Y-133800500D01*
X109189922Y-133800500D01*
X109037194Y-133841423D01*
X109037193Y-133841423D01*
X109037191Y-133841424D01*
X109037188Y-133841425D01*
X108987075Y-133870359D01*
X108987074Y-133870360D01*
X108965609Y-133882753D01*
X108900264Y-133920479D01*
X108900261Y-133920481D01*
X105759479Y-137061263D01*
X105735427Y-137102923D01*
X105725261Y-137120533D01*
X105680423Y-137198194D01*
X105639499Y-137350922D01*
X105639499Y-137350924D01*
X105639499Y-137519025D01*
X105639500Y-137519038D01*
X105639500Y-138714281D01*
X105619815Y-138781320D01*
X105571795Y-138824765D01*
X105532185Y-138844947D01*
X105532184Y-138844948D01*
X105360213Y-138969890D01*
X105209890Y-139120213D01*
X105084949Y-139292182D01*
X105080484Y-139300946D01*
X105032509Y-139351742D01*
X104964688Y-139368536D01*
X104898553Y-139345998D01*
X104859516Y-139300946D01*
X104855050Y-139292182D01*
X104730109Y-139120213D01*
X104579786Y-138969890D01*
X104407820Y-138844951D01*
X104218414Y-138748444D01*
X104218413Y-138748443D01*
X104218412Y-138748443D01*
X104016243Y-138682754D01*
X104016241Y-138682753D01*
X104016240Y-138682753D01*
X103854957Y-138657208D01*
X103806287Y-138649500D01*
X103593713Y-138649500D01*
X103545042Y-138657208D01*
X103383760Y-138682753D01*
X103181585Y-138748444D01*
X102992179Y-138844951D01*
X102820213Y-138969890D01*
X102669890Y-139120213D01*
X102544949Y-139292182D01*
X102540484Y-139300946D01*
X102492509Y-139351742D01*
X102424688Y-139368536D01*
X102358553Y-139345998D01*
X102319516Y-139300946D01*
X102315050Y-139292182D01*
X102190109Y-139120213D01*
X102039786Y-138969890D01*
X101867820Y-138844951D01*
X101678414Y-138748444D01*
X101678413Y-138748443D01*
X101678412Y-138748443D01*
X101476243Y-138682754D01*
X101476241Y-138682753D01*
X101476240Y-138682753D01*
X101314957Y-138657208D01*
X101266287Y-138649500D01*
X101053713Y-138649500D01*
X101005042Y-138657208D01*
X100843760Y-138682753D01*
X100641585Y-138748444D01*
X100452179Y-138844951D01*
X100280213Y-138969890D01*
X100129890Y-139120213D01*
X100004949Y-139292182D01*
X100000484Y-139300946D01*
X99952509Y-139351742D01*
X99884688Y-139368536D01*
X99818553Y-139345998D01*
X99779516Y-139300946D01*
X99775050Y-139292182D01*
X99650109Y-139120213D01*
X99499786Y-138969890D01*
X99327820Y-138844951D01*
X99138414Y-138748444D01*
X99138413Y-138748443D01*
X99138412Y-138748443D01*
X98936243Y-138682754D01*
X98936241Y-138682753D01*
X98936240Y-138682753D01*
X98774957Y-138657208D01*
X98726287Y-138649500D01*
X98513713Y-138649500D01*
X98465042Y-138657208D01*
X98303760Y-138682753D01*
X98101585Y-138748444D01*
X97912179Y-138844951D01*
X97740213Y-138969890D01*
X97589890Y-139120213D01*
X97464949Y-139292182D01*
X97460484Y-139300946D01*
X97412509Y-139351742D01*
X97344688Y-139368536D01*
X97278553Y-139345998D01*
X97239516Y-139300946D01*
X97235050Y-139292182D01*
X97110109Y-139120213D01*
X96959786Y-138969890D01*
X96787820Y-138844951D01*
X96598414Y-138748444D01*
X96598413Y-138748443D01*
X96598412Y-138748443D01*
X96396243Y-138682754D01*
X96396241Y-138682753D01*
X96396240Y-138682753D01*
X96234957Y-138657208D01*
X96186287Y-138649500D01*
X95973713Y-138649500D01*
X95925042Y-138657208D01*
X95763760Y-138682753D01*
X95561585Y-138748444D01*
X95372179Y-138844951D01*
X95200213Y-138969890D01*
X95049890Y-139120213D01*
X94924949Y-139292182D01*
X94920484Y-139300946D01*
X94872509Y-139351742D01*
X94804688Y-139368536D01*
X94738553Y-139345998D01*
X94699516Y-139300946D01*
X94695050Y-139292182D01*
X94570109Y-139120213D01*
X94419786Y-138969890D01*
X94247820Y-138844951D01*
X94058414Y-138748444D01*
X94058413Y-138748443D01*
X94058412Y-138748443D01*
X93856243Y-138682754D01*
X93856241Y-138682753D01*
X93856240Y-138682753D01*
X93694957Y-138657208D01*
X93646287Y-138649500D01*
X93433713Y-138649500D01*
X93385042Y-138657208D01*
X93223760Y-138682753D01*
X93021585Y-138748444D01*
X92832179Y-138844951D01*
X92660213Y-138969890D01*
X92509890Y-139120213D01*
X92384949Y-139292182D01*
X92380202Y-139301499D01*
X92332227Y-139352293D01*
X92264405Y-139369087D01*
X92198271Y-139346548D01*
X92159234Y-139301495D01*
X92154626Y-139292452D01*
X92115270Y-139238282D01*
X92115269Y-139238282D01*
X91482962Y-139870589D01*
X91465925Y-139807007D01*
X91400099Y-139692993D01*
X91307007Y-139599901D01*
X91192993Y-139534075D01*
X91129409Y-139517037D01*
X91761716Y-138884728D01*
X91707550Y-138845375D01*
X91518217Y-138748904D01*
X91316129Y-138683242D01*
X91106246Y-138650000D01*
X90893754Y-138650000D01*
X90683872Y-138683242D01*
X90683869Y-138683242D01*
X90481782Y-138748904D01*
X90292439Y-138845380D01*
X90238282Y-138884727D01*
X90238282Y-138884728D01*
X90870591Y-139517037D01*
X90807007Y-139534075D01*
X90692993Y-139599901D01*
X90599901Y-139692993D01*
X90534075Y-139807007D01*
X90517037Y-139870591D01*
X89884728Y-139238282D01*
X89884727Y-139238282D01*
X89845380Y-139292440D01*
X89845376Y-139292446D01*
X89840760Y-139301505D01*
X89792781Y-139352297D01*
X89724959Y-139369087D01*
X89658826Y-139346543D01*
X89619794Y-139301493D01*
X89615051Y-139292184D01*
X89615049Y-139292181D01*
X89615048Y-139292179D01*
X89490109Y-139120213D01*
X89339786Y-138969890D01*
X89167820Y-138844951D01*
X88978414Y-138748444D01*
X88978413Y-138748443D01*
X88978412Y-138748443D01*
X88776243Y-138682754D01*
X88776241Y-138682753D01*
X88776240Y-138682753D01*
X88614957Y-138657208D01*
X88566287Y-138649500D01*
X88353713Y-138649500D01*
X88353706Y-138649500D01*
X88343892Y-138651054D01*
X88325355Y-138648657D01*
X88306853Y-138651318D01*
X88291421Y-138644270D01*
X88274599Y-138642096D01*
X88260300Y-138630058D01*
X88243297Y-138622293D01*
X88234125Y-138608021D01*
X88221149Y-138597097D01*
X88215628Y-138579239D01*
X88205523Y-138563515D01*
X88200963Y-138531801D01*
X88200513Y-138530345D01*
X88200500Y-138528580D01*
X88200500Y-138300097D01*
X88220185Y-138233058D01*
X88236819Y-138212416D01*
X98211415Y-128237820D01*
X98272738Y-128204335D01*
X98299096Y-128201501D01*
X98327997Y-128201501D01*
X98328000Y-128201501D01*
X98480728Y-128160577D01*
X98530847Y-128131639D01*
X98617659Y-128081520D01*
X98729463Y-127969716D01*
X98729464Y-127969713D01*
X99062360Y-127636816D01*
X99123682Y-127603334D01*
X99150040Y-127600500D01*
X107520234Y-127600500D01*
X107587273Y-127620185D01*
X107589125Y-127621398D01*
X107720814Y-127709390D01*
X107720827Y-127709397D01*
X107866498Y-127769735D01*
X107866503Y-127769737D01*
X107976199Y-127791557D01*
X108021153Y-127800499D01*
X108021156Y-127800500D01*
X108021158Y-127800500D01*
X108178844Y-127800500D01*
X108178845Y-127800499D01*
X108333497Y-127769737D01*
X108479179Y-127709394D01*
X108610289Y-127621789D01*
X108721789Y-127510289D01*
X108809394Y-127379179D01*
X108869737Y-127233497D01*
X108900500Y-127078842D01*
X108900500Y-126921158D01*
X108900500Y-126921155D01*
X108900499Y-126921153D01*
X108892272Y-126879792D01*
X108869737Y-126766503D01*
X108845428Y-126707815D01*
X108809397Y-126620827D01*
X108809390Y-126620814D01*
X108721789Y-126489711D01*
X108721786Y-126489707D01*
X108610292Y-126378213D01*
X108610288Y-126378210D01*
X108479185Y-126290609D01*
X108479172Y-126290602D01*
X108333501Y-126230264D01*
X108333489Y-126230261D01*
X108178845Y-126199500D01*
X108178842Y-126199500D01*
X108021158Y-126199500D01*
X108021155Y-126199500D01*
X107866510Y-126230261D01*
X107866498Y-126230264D01*
X107720827Y-126290602D01*
X107720814Y-126290609D01*
X107589125Y-126378602D01*
X107522447Y-126399480D01*
X107520234Y-126399500D01*
X98770883Y-126399500D01*
X98729962Y-126410464D01*
X98729962Y-126410465D01*
X98712911Y-126415034D01*
X98618157Y-126440423D01*
X98618152Y-126440426D01*
X98481233Y-126519475D01*
X98481225Y-126519481D01*
X98369421Y-126631286D01*
X98036528Y-126964180D01*
X97975205Y-126997665D01*
X97948847Y-127000499D01*
X97919943Y-127000499D01*
X97812587Y-127029265D01*
X97767210Y-127041424D01*
X97767209Y-127041425D01*
X97717096Y-127070359D01*
X97717095Y-127070360D01*
X97702397Y-127078846D01*
X97630285Y-127120479D01*
X97630282Y-127120481D01*
X88412181Y-136338583D01*
X88350858Y-136372068D01*
X88281166Y-136367084D01*
X88225233Y-136325212D01*
X88200816Y-136259748D01*
X88200500Y-136250902D01*
X88200500Y-124179765D01*
X88220185Y-124112726D01*
X88221398Y-124110874D01*
X88309390Y-123979185D01*
X88309390Y-123979184D01*
X88309394Y-123979179D01*
X88369737Y-123833497D01*
X88400500Y-123678842D01*
X88400500Y-123521158D01*
X88400500Y-123521155D01*
X88400499Y-123521153D01*
X88396310Y-123500093D01*
X88369737Y-123366503D01*
X88364439Y-123353713D01*
X88309397Y-123220827D01*
X88309390Y-123220814D01*
X88221789Y-123089711D01*
X88221786Y-123089707D01*
X88202046Y-123069967D01*
X88197047Y-123060813D01*
X88188838Y-123054379D01*
X88180588Y-123030671D01*
X88168561Y-123008644D01*
X88169304Y-122998241D01*
X88165877Y-122988390D01*
X88171754Y-122963987D01*
X88173545Y-122938952D01*
X88180230Y-122928798D01*
X88182238Y-122920463D01*
X88196276Y-122904428D01*
X88204009Y-122892684D01*
X88213779Y-122883337D01*
X88218659Y-122880520D01*
X88261354Y-122837824D01*
X88262323Y-122836898D01*
X88292191Y-122821437D01*
X88321683Y-122805334D01*
X88323727Y-122805114D01*
X88324373Y-122804780D01*
X88325688Y-122804903D01*
X88348041Y-122802500D01*
X118441903Y-122802500D01*
X118508942Y-122822185D01*
G37*
%TD.AperFunction*%
%TA.AperFunction,Conductor*%
G36*
X86365999Y-123469185D02*
G01*
X86386641Y-123485819D01*
X86865196Y-123964374D01*
X86865217Y-123964397D01*
X86903325Y-124002504D01*
X86918747Y-124021295D01*
X86978602Y-124110874D01*
X86999480Y-124177552D01*
X86999500Y-124179765D01*
X86999500Y-137920939D01*
X86999499Y-137920943D01*
X86999499Y-138079057D01*
X86999500Y-138079060D01*
X86999500Y-138871628D01*
X86979815Y-138938667D01*
X86927011Y-138984422D01*
X86857853Y-138994366D01*
X86802615Y-138971946D01*
X86627820Y-138844951D01*
X86438414Y-138748444D01*
X86438413Y-138748443D01*
X86438412Y-138748443D01*
X86236243Y-138682754D01*
X86236241Y-138682753D01*
X86236240Y-138682753D01*
X86074957Y-138657208D01*
X86026287Y-138649500D01*
X85813713Y-138649500D01*
X85802235Y-138651318D01*
X85603757Y-138682753D01*
X85561473Y-138696492D01*
X85491632Y-138698486D01*
X85435476Y-138666241D01*
X85256590Y-138487355D01*
X85256588Y-138487352D01*
X85137717Y-138368481D01*
X85137709Y-138368475D01*
X85016509Y-138298501D01*
X85016506Y-138298500D01*
X85000785Y-138289423D01*
X84848057Y-138248499D01*
X84689943Y-138248499D01*
X84682347Y-138248499D01*
X84682331Y-138248500D01*
X69377670Y-138248500D01*
X69377654Y-138248499D01*
X69370058Y-138248499D01*
X69211943Y-138248499D01*
X69097397Y-138279192D01*
X69059214Y-138289423D01*
X69043494Y-138298500D01*
X69043491Y-138298501D01*
X68922290Y-138368475D01*
X68922282Y-138368481D01*
X68810478Y-138480286D01*
X68624522Y-138666241D01*
X68563199Y-138699726D01*
X68498523Y-138696491D01*
X68456245Y-138682754D01*
X68316272Y-138660584D01*
X68246287Y-138649500D01*
X68033713Y-138649500D01*
X68022235Y-138651318D01*
X67823757Y-138682753D01*
X67781473Y-138696492D01*
X67711632Y-138698486D01*
X67655476Y-138666241D01*
X60349637Y-131360402D01*
X60320246Y-131307906D01*
X60318752Y-131308392D01*
X60278660Y-131185002D01*
X60251557Y-131101588D01*
X60251555Y-131101585D01*
X60251555Y-131101583D01*
X60155048Y-130912179D01*
X60030109Y-130740213D01*
X59879786Y-130589890D01*
X59707820Y-130464951D01*
X59707115Y-130464591D01*
X59699054Y-130460485D01*
X59648259Y-130412512D01*
X59631463Y-130344692D01*
X59653999Y-130278556D01*
X59699054Y-130239515D01*
X59707816Y-130235051D01*
X59729789Y-130219086D01*
X59879786Y-130110109D01*
X59879788Y-130110106D01*
X59879792Y-130110104D01*
X60030104Y-129959792D01*
X60030106Y-129959788D01*
X60030109Y-129959786D01*
X60155048Y-129787820D01*
X60155047Y-129787820D01*
X60155051Y-129787816D01*
X60251557Y-129598412D01*
X60317246Y-129396243D01*
X60350500Y-129186287D01*
X60350500Y-128973713D01*
X60317246Y-128763757D01*
X60251557Y-128561588D01*
X60155051Y-128372184D01*
X60155049Y-128372181D01*
X60155048Y-128372179D01*
X60030109Y-128200213D01*
X59879786Y-128049890D01*
X59707820Y-127924951D01*
X59707115Y-127924591D01*
X59699054Y-127920485D01*
X59648259Y-127872512D01*
X59631463Y-127804692D01*
X59653999Y-127738556D01*
X59699054Y-127699515D01*
X59707816Y-127695051D01*
X59780622Y-127642155D01*
X59879786Y-127570109D01*
X59879788Y-127570106D01*
X59879792Y-127570104D01*
X60030104Y-127419792D01*
X60030106Y-127419788D01*
X60030109Y-127419786D01*
X60155048Y-127247820D01*
X60155047Y-127247820D01*
X60155051Y-127247816D01*
X60251557Y-127058412D01*
X60317246Y-126856243D01*
X60350500Y-126646287D01*
X60350500Y-126433713D01*
X60317246Y-126223757D01*
X60251557Y-126021588D01*
X60155051Y-125832184D01*
X60155049Y-125832181D01*
X60155048Y-125832179D01*
X60030109Y-125660213D01*
X59879786Y-125509890D01*
X59707820Y-125384951D01*
X59703188Y-125382591D01*
X59699054Y-125380485D01*
X59648259Y-125332512D01*
X59631463Y-125264692D01*
X59653999Y-125198556D01*
X59699054Y-125159515D01*
X59707816Y-125155051D01*
X59755774Y-125120208D01*
X59879786Y-125030109D01*
X59879788Y-125030106D01*
X59879792Y-125030104D01*
X60030104Y-124879792D01*
X60030106Y-124879788D01*
X60030109Y-124879786D01*
X60155048Y-124707820D01*
X60155047Y-124707820D01*
X60155051Y-124707816D01*
X60251557Y-124518412D01*
X60317246Y-124316243D01*
X60350500Y-124106287D01*
X60350500Y-123893713D01*
X60317246Y-123683757D01*
X60293870Y-123611816D01*
X60291876Y-123541977D01*
X60327956Y-123482144D01*
X60390657Y-123451316D01*
X60411802Y-123449500D01*
X86298960Y-123449500D01*
X86365999Y-123469185D01*
G37*
%TD.AperFunction*%
%TA.AperFunction,Conductor*%
G36*
X57705703Y-132064513D02*
G01*
X57742431Y-132119908D01*
X57748444Y-132138414D01*
X57844951Y-132327820D01*
X57969890Y-132499786D01*
X58120213Y-132650109D01*
X58292179Y-132775048D01*
X58292181Y-132775049D01*
X58292184Y-132775051D01*
X58301493Y-132779794D01*
X58352290Y-132827766D01*
X58369087Y-132895587D01*
X58346552Y-132961722D01*
X58301505Y-133000760D01*
X58292446Y-133005376D01*
X58292440Y-133005380D01*
X58238282Y-133044727D01*
X58238282Y-133044728D01*
X58870591Y-133677037D01*
X58807007Y-133694075D01*
X58692993Y-133759901D01*
X58599901Y-133852993D01*
X58534075Y-133967007D01*
X58517037Y-134030591D01*
X57884728Y-133398282D01*
X57884727Y-133398282D01*
X57845380Y-133452439D01*
X57748904Y-133641782D01*
X57742431Y-133661706D01*
X57702994Y-133719381D01*
X57638635Y-133746580D01*
X57569789Y-133734665D01*
X57518313Y-133687421D01*
X57500500Y-133623388D01*
X57500500Y-132158226D01*
X57520185Y-132091187D01*
X57572989Y-132045432D01*
X57642147Y-132035488D01*
X57705703Y-132064513D01*
G37*
%TD.AperFunction*%
%TA.AperFunction,Conductor*%
G36*
X88534075Y-79192993D02*
G01*
X88599901Y-79307007D01*
X88692993Y-79400099D01*
X88807007Y-79465925D01*
X88870590Y-79482962D01*
X88238282Y-80115269D01*
X88238282Y-80115270D01*
X88292449Y-80154624D01*
X88481782Y-80251095D01*
X88683870Y-80316757D01*
X88893754Y-80350000D01*
X89106246Y-80350000D01*
X89316127Y-80316757D01*
X89316130Y-80316757D01*
X89518217Y-80251095D01*
X89707554Y-80154622D01*
X89761716Y-80115270D01*
X89761717Y-80115270D01*
X89129408Y-79482962D01*
X89192993Y-79465925D01*
X89307007Y-79400099D01*
X89400099Y-79307007D01*
X89465925Y-79192993D01*
X89482962Y-79129409D01*
X90115270Y-79761717D01*
X90115270Y-79761716D01*
X90154622Y-79707555D01*
X90159232Y-79698507D01*
X90207205Y-79647709D01*
X90275025Y-79630912D01*
X90341161Y-79653447D01*
X90380204Y-79698504D01*
X90384949Y-79707817D01*
X90509890Y-79879786D01*
X90660213Y-80030109D01*
X90832179Y-80155048D01*
X90832181Y-80155049D01*
X90832184Y-80155051D01*
X91021588Y-80251557D01*
X91223757Y-80317246D01*
X91433713Y-80350500D01*
X91433714Y-80350500D01*
X91646286Y-80350500D01*
X91646287Y-80350500D01*
X91856243Y-80317246D01*
X91898523Y-80303507D01*
X91968362Y-80301511D01*
X92024522Y-80333757D01*
X101756139Y-90065374D01*
X101756149Y-90065385D01*
X101760479Y-90069715D01*
X101760480Y-90069716D01*
X101872284Y-90181520D01*
X101872286Y-90181521D01*
X101872290Y-90181524D01*
X102007577Y-90259631D01*
X102009216Y-90260577D01*
X102121019Y-90290534D01*
X102161942Y-90301500D01*
X102161943Y-90301500D01*
X102695396Y-90301500D01*
X102762435Y-90321185D01*
X102808190Y-90373989D01*
X102818134Y-90443147D01*
X102789109Y-90506703D01*
X102742848Y-90540061D01*
X102620827Y-90590602D01*
X102620814Y-90590609D01*
X102489711Y-90678210D01*
X102489707Y-90678213D01*
X102378213Y-90789707D01*
X102378210Y-90789711D01*
X102290609Y-90920814D01*
X102290602Y-90920827D01*
X102230264Y-91066498D01*
X102230261Y-91066510D01*
X102199500Y-91221153D01*
X102199500Y-91378846D01*
X102230261Y-91533489D01*
X102230264Y-91533501D01*
X102290602Y-91679172D01*
X102290609Y-91679185D01*
X102378602Y-91810874D01*
X102399480Y-91877551D01*
X102399500Y-91879765D01*
X102399500Y-106999903D01*
X102379815Y-107066942D01*
X102363181Y-107087584D01*
X101787584Y-107663181D01*
X101726261Y-107696666D01*
X101699903Y-107699500D01*
X94879766Y-107699500D01*
X94812727Y-107679815D01*
X94810875Y-107678602D01*
X94679185Y-107590609D01*
X94679172Y-107590602D01*
X94533501Y-107530264D01*
X94533489Y-107530261D01*
X94378845Y-107499500D01*
X94378842Y-107499500D01*
X94221158Y-107499500D01*
X94221155Y-107499500D01*
X94066510Y-107530261D01*
X94066498Y-107530264D01*
X93920827Y-107590602D01*
X93920814Y-107590609D01*
X93789711Y-107678210D01*
X93789707Y-107678213D01*
X93678213Y-107789707D01*
X93678210Y-107789711D01*
X93590609Y-107920814D01*
X93590602Y-107920827D01*
X93530264Y-108066498D01*
X93530261Y-108066510D01*
X93499500Y-108221153D01*
X93499500Y-108378843D01*
X93530261Y-108533489D01*
X93530264Y-108533501D01*
X93590602Y-108679172D01*
X93590609Y-108679185D01*
X93678210Y-108810288D01*
X93678213Y-108810292D01*
X93789707Y-108921786D01*
X93789711Y-108921789D01*
X93920814Y-109009390D01*
X93920827Y-109009397D01*
X94059912Y-109067007D01*
X94066503Y-109069737D01*
X94217569Y-109099786D01*
X94221153Y-109100499D01*
X94221156Y-109100500D01*
X94221158Y-109100500D01*
X94378844Y-109100500D01*
X94378845Y-109100499D01*
X94533497Y-109069737D01*
X94679179Y-109009394D01*
X94748412Y-108963134D01*
X94810875Y-108921398D01*
X94877553Y-108900520D01*
X94879766Y-108900500D01*
X101913331Y-108900500D01*
X101913347Y-108900501D01*
X101920943Y-108900501D01*
X102079054Y-108900501D01*
X102079057Y-108900501D01*
X102231785Y-108859577D01*
X102281904Y-108830639D01*
X102368716Y-108780520D01*
X102480520Y-108668716D01*
X102480520Y-108668714D01*
X102490728Y-108658507D01*
X102490729Y-108658504D01*
X103280519Y-107868716D01*
X103339102Y-107810133D01*
X103339103Y-107810130D01*
X103480520Y-107668716D01*
X103559577Y-107531784D01*
X103600501Y-107379057D01*
X103600501Y-107220942D01*
X103600501Y-107213347D01*
X103600500Y-107213329D01*
X103600500Y-91879765D01*
X103620185Y-91812726D01*
X103621398Y-91810874D01*
X103709390Y-91679185D01*
X103709390Y-91679184D01*
X103709394Y-91679179D01*
X103769737Y-91533497D01*
X103800500Y-91378842D01*
X103800500Y-91221158D01*
X103800500Y-91221155D01*
X103800499Y-91221153D01*
X103769738Y-91066510D01*
X103769737Y-91066503D01*
X103769735Y-91066498D01*
X103709397Y-90920827D01*
X103709390Y-90920814D01*
X103621789Y-90789711D01*
X103621786Y-90789707D01*
X103510292Y-90678213D01*
X103510288Y-90678210D01*
X103379185Y-90590609D01*
X103379172Y-90590602D01*
X103257152Y-90540061D01*
X103202748Y-90496221D01*
X103180683Y-90429927D01*
X103197962Y-90362227D01*
X103249099Y-90314616D01*
X103304604Y-90301500D01*
X118525500Y-90301500D01*
X118592539Y-90321185D01*
X118638294Y-90373989D01*
X118649500Y-90425500D01*
X118649500Y-90546287D01*
X118656520Y-90590609D01*
X118682754Y-90756244D01*
X118682754Y-90756247D01*
X118696491Y-90798523D01*
X118698486Y-90868364D01*
X118666241Y-90924522D01*
X117334179Y-92256584D01*
X117334171Y-92256592D01*
X117331286Y-92259478D01*
X117331284Y-92259480D01*
X117219480Y-92371284D01*
X117198209Y-92408127D01*
X117192112Y-92418686D01*
X117192112Y-92418687D01*
X117140424Y-92508213D01*
X117140423Y-92508215D01*
X117099499Y-92660943D01*
X117099499Y-92660945D01*
X117099499Y-92829046D01*
X117099500Y-92829059D01*
X117099500Y-94331502D01*
X117079815Y-94398541D01*
X117063181Y-94419183D01*
X106415481Y-105066882D01*
X106415475Y-105066890D01*
X106373023Y-105140421D01*
X106373023Y-105140422D01*
X106336423Y-105203814D01*
X106336423Y-105203815D01*
X106295499Y-105356543D01*
X106295499Y-105356545D01*
X106295499Y-105524646D01*
X106295500Y-105524659D01*
X106295500Y-114702603D01*
X106275815Y-114769642D01*
X106259181Y-114790284D01*
X103092284Y-117957181D01*
X103030961Y-117990666D01*
X103004603Y-117993500D01*
X92392570Y-117993500D01*
X92363129Y-117984855D01*
X92333143Y-117978332D01*
X92328127Y-117974577D01*
X92325531Y-117973815D01*
X92304889Y-117957181D01*
X92186819Y-117839111D01*
X92153334Y-117777788D01*
X92150500Y-117751430D01*
X92150500Y-117697598D01*
X92150499Y-117697596D01*
X92144700Y-117668443D01*
X92119737Y-117542946D01*
X92102037Y-117500213D01*
X92059397Y-117397270D01*
X92059390Y-117397257D01*
X91971789Y-117266154D01*
X91971786Y-117266150D01*
X91860292Y-117154656D01*
X91860288Y-117154653D01*
X91729185Y-117067052D01*
X91729172Y-117067045D01*
X91583501Y-117006707D01*
X91583489Y-117006704D01*
X91428845Y-116975943D01*
X91428842Y-116975943D01*
X91271158Y-116975943D01*
X91271155Y-116975943D01*
X91116510Y-117006704D01*
X91116498Y-117006707D01*
X90970827Y-117067045D01*
X90970814Y-117067052D01*
X90839711Y-117154653D01*
X90839707Y-117154656D01*
X90728213Y-117266150D01*
X90728210Y-117266154D01*
X90640609Y-117397257D01*
X90640602Y-117397270D01*
X90580264Y-117542941D01*
X90580261Y-117542951D01*
X90558981Y-117649931D01*
X90526596Y-117711842D01*
X90465880Y-117746416D01*
X90434934Y-117748492D01*
X90434934Y-117749500D01*
X90271155Y-117749500D01*
X90116510Y-117780261D01*
X90116498Y-117780264D01*
X89970827Y-117840602D01*
X89970814Y-117840609D01*
X89839711Y-117928210D01*
X89839707Y-117928213D01*
X89728213Y-118039707D01*
X89728210Y-118039711D01*
X89640609Y-118170814D01*
X89640602Y-118170827D01*
X89580264Y-118316498D01*
X89580261Y-118316510D01*
X89549500Y-118471153D01*
X89549500Y-118575500D01*
X89529815Y-118642539D01*
X89477011Y-118688294D01*
X89425500Y-118699500D01*
X89321155Y-118699500D01*
X89166510Y-118730261D01*
X89166498Y-118730264D01*
X89020827Y-118790602D01*
X89020814Y-118790609D01*
X88889711Y-118878210D01*
X88889707Y-118878213D01*
X88778213Y-118989707D01*
X88778210Y-118989711D01*
X88690609Y-119120814D01*
X88690602Y-119120827D01*
X88630264Y-119266498D01*
X88630261Y-119266510D01*
X88599500Y-119421153D01*
X88599500Y-119578846D01*
X88630261Y-119733489D01*
X88630264Y-119733501D01*
X88663631Y-119814057D01*
X88671100Y-119883527D01*
X88639824Y-119946006D01*
X88579735Y-119981657D01*
X88573262Y-119983126D01*
X88435730Y-120010483D01*
X88435720Y-120010486D01*
X88290049Y-120070824D01*
X88290036Y-120070831D01*
X88158936Y-120158430D01*
X88158929Y-120158435D01*
X88141662Y-120175702D01*
X88080337Y-120209184D01*
X88029795Y-120209635D01*
X87978842Y-120199500D01*
X87821158Y-120199500D01*
X87821155Y-120199500D01*
X87666510Y-120230261D01*
X87666498Y-120230264D01*
X87520827Y-120290602D01*
X87520814Y-120290609D01*
X87389711Y-120378210D01*
X87389707Y-120378213D01*
X87278213Y-120489707D01*
X87278210Y-120489711D01*
X87190609Y-120620814D01*
X87190602Y-120620827D01*
X87130264Y-120766498D01*
X87130261Y-120766510D01*
X87099500Y-120921153D01*
X87099500Y-121078842D01*
X87101432Y-121088556D01*
X87095203Y-121158148D01*
X87067495Y-121200426D01*
X86978213Y-121289707D01*
X86978210Y-121289711D01*
X86890609Y-121420814D01*
X86890604Y-121420824D01*
X86831243Y-121564135D01*
X86787402Y-121618538D01*
X86764135Y-121631243D01*
X86620824Y-121690604D01*
X86620814Y-121690609D01*
X86489711Y-121778210D01*
X86489707Y-121778213D01*
X86378213Y-121889707D01*
X86378210Y-121889711D01*
X86290609Y-122020814D01*
X86290602Y-122020827D01*
X86228006Y-122171952D01*
X86184166Y-122226356D01*
X86117872Y-122248421D01*
X86113445Y-122248500D01*
X60316290Y-122248500D01*
X60249251Y-122228815D01*
X60203496Y-122176011D01*
X60193552Y-122106853D01*
X60205805Y-122068205D01*
X60251557Y-121978412D01*
X60317246Y-121776243D01*
X60350500Y-121566287D01*
X60350500Y-121353713D01*
X60317246Y-121143757D01*
X60251557Y-120941588D01*
X60155051Y-120752184D01*
X60155049Y-120752181D01*
X60155048Y-120752179D01*
X60030109Y-120580213D01*
X60011126Y-120561230D01*
X59977641Y-120499907D01*
X59982625Y-120430215D01*
X60011126Y-120385868D01*
X60241787Y-120155207D01*
X60509506Y-119887488D01*
X60509511Y-119887484D01*
X60519714Y-119877280D01*
X60519716Y-119877280D01*
X60631520Y-119765476D01*
X60694312Y-119656716D01*
X60710577Y-119628545D01*
X60751501Y-119475817D01*
X60751501Y-119317702D01*
X60751501Y-119310107D01*
X60751500Y-119310089D01*
X60751500Y-118636197D01*
X60771185Y-118569158D01*
X60787819Y-118548516D01*
X75399517Y-103936819D01*
X75460840Y-103903334D01*
X75487198Y-103900500D01*
X84538573Y-103900500D01*
X84605612Y-103920185D01*
X84641675Y-103955610D01*
X84678207Y-104010284D01*
X84678213Y-104010292D01*
X84789707Y-104121786D01*
X84789711Y-104121789D01*
X84920814Y-104209390D01*
X84920827Y-104209397D01*
X85031576Y-104255270D01*
X85066503Y-104269737D01*
X85221153Y-104300499D01*
X85221156Y-104300500D01*
X85221158Y-104300500D01*
X85378844Y-104300500D01*
X85378845Y-104300499D01*
X85533497Y-104269737D01*
X85679179Y-104209394D01*
X85810289Y-104121789D01*
X85921789Y-104010289D01*
X86009394Y-103879179D01*
X86026830Y-103837084D01*
X86051698Y-103777048D01*
X86095538Y-103722644D01*
X86161833Y-103700579D01*
X86166259Y-103700500D01*
X86178844Y-103700500D01*
X86178845Y-103700499D01*
X86333497Y-103669737D01*
X86451592Y-103620821D01*
X86479172Y-103609397D01*
X86479172Y-103609396D01*
X86479179Y-103609394D01*
X86610289Y-103521789D01*
X86610291Y-103521786D01*
X86614993Y-103517928D01*
X86615823Y-103518939D01*
X86671224Y-103488679D01*
X86740916Y-103493655D01*
X86766485Y-103506738D01*
X86800649Y-103529566D01*
X86800651Y-103529566D01*
X86800655Y-103529569D01*
X86925933Y-103581460D01*
X86946331Y-103589909D01*
X87100981Y-103620671D01*
X87100984Y-103620672D01*
X87100986Y-103620672D01*
X87258672Y-103620672D01*
X87258673Y-103620671D01*
X87413325Y-103589909D01*
X87559007Y-103529566D01*
X87559012Y-103529562D01*
X87559015Y-103529561D01*
X87593167Y-103506741D01*
X87671919Y-103454120D01*
X87702207Y-103444635D01*
X87731962Y-103433538D01*
X87735317Y-103434267D01*
X87738594Y-103433242D01*
X87769214Y-103441641D01*
X87800235Y-103448390D01*
X87803949Y-103451170D01*
X87805975Y-103451726D01*
X87828485Y-103469536D01*
X87925193Y-103566244D01*
X87925195Y-103566245D01*
X87932265Y-103573315D01*
X88463181Y-104104231D01*
X88496666Y-104165554D01*
X88499500Y-104191912D01*
X88499500Y-105220234D01*
X88479815Y-105287273D01*
X88478602Y-105289125D01*
X88390609Y-105420814D01*
X88390604Y-105420823D01*
X88385270Y-105433702D01*
X88341427Y-105488104D01*
X88275133Y-105510167D01*
X88207434Y-105492886D01*
X88159825Y-105441748D01*
X88156149Y-105433698D01*
X88109397Y-105320827D01*
X88109390Y-105320814D01*
X88021789Y-105189711D01*
X88021786Y-105189707D01*
X87910292Y-105078213D01*
X87910288Y-105078210D01*
X87779185Y-104990609D01*
X87779172Y-104990602D01*
X87633501Y-104930264D01*
X87633489Y-104930261D01*
X87478845Y-104899500D01*
X87478842Y-104899500D01*
X87321158Y-104899500D01*
X87321155Y-104899500D01*
X87166510Y-104930261D01*
X87166498Y-104930264D01*
X87020827Y-104990602D01*
X87020814Y-104990609D01*
X86889125Y-105078602D01*
X86822447Y-105099480D01*
X86820234Y-105099500D01*
X86236726Y-105099500D01*
X86236710Y-105099499D01*
X86229114Y-105099499D01*
X86071000Y-105099499D01*
X85991067Y-105120917D01*
X85918273Y-105140422D01*
X85881612Y-105161589D01*
X85881611Y-105161588D01*
X85781344Y-105219477D01*
X85781339Y-105219481D01*
X85713548Y-105287273D01*
X85669537Y-105331284D01*
X85669535Y-105331286D01*
X84988922Y-106011900D01*
X84337638Y-106663184D01*
X84276315Y-106696669D01*
X84249957Y-106699503D01*
X83479766Y-106699503D01*
X83412727Y-106679818D01*
X83410875Y-106678605D01*
X83279185Y-106590612D01*
X83279172Y-106590605D01*
X83133501Y-106530267D01*
X83133489Y-106530264D01*
X82978845Y-106499503D01*
X82978842Y-106499503D01*
X82821158Y-106499503D01*
X82821155Y-106499503D01*
X82666510Y-106530264D01*
X82666498Y-106530267D01*
X82520827Y-106590605D01*
X82520814Y-106590612D01*
X82389711Y-106678213D01*
X82389707Y-106678216D01*
X82278213Y-106789710D01*
X82278210Y-106789714D01*
X82190609Y-106920817D01*
X82190602Y-106920830D01*
X82130264Y-107066501D01*
X82130261Y-107066513D01*
X82099500Y-107221156D01*
X82099500Y-107378849D01*
X82130261Y-107533492D01*
X82130264Y-107533504D01*
X82190602Y-107679175D01*
X82190609Y-107679188D01*
X82278210Y-107810291D01*
X82278213Y-107810295D01*
X82389707Y-107921789D01*
X82389711Y-107921792D01*
X82520814Y-108009393D01*
X82520827Y-108009400D01*
X82658676Y-108066498D01*
X82666503Y-108069740D01*
X82731147Y-108082598D01*
X82821849Y-108100641D01*
X82883760Y-108133026D01*
X82885339Y-108134577D01*
X83463181Y-108712419D01*
X83496666Y-108773742D01*
X83499500Y-108800100D01*
X83499500Y-114220234D01*
X83479815Y-114287273D01*
X83478602Y-114289125D01*
X83390609Y-114420814D01*
X83390602Y-114420827D01*
X83330264Y-114566498D01*
X83330261Y-114566510D01*
X83299500Y-114721153D01*
X83299500Y-114878846D01*
X83330261Y-115033489D01*
X83330264Y-115033501D01*
X83390602Y-115179172D01*
X83390609Y-115179185D01*
X83478602Y-115310874D01*
X83499480Y-115377551D01*
X83499500Y-115379765D01*
X83499500Y-117120234D01*
X83479815Y-117187273D01*
X83478602Y-117189125D01*
X83390609Y-117320814D01*
X83390602Y-117320827D01*
X83330264Y-117466498D01*
X83330261Y-117466510D01*
X83299500Y-117621153D01*
X83299500Y-117778846D01*
X83330261Y-117933489D01*
X83330264Y-117933501D01*
X83390602Y-118079172D01*
X83390609Y-118079185D01*
X83478210Y-118210288D01*
X83478213Y-118210292D01*
X83589707Y-118321786D01*
X83589711Y-118321789D01*
X83720814Y-118409390D01*
X83720827Y-118409397D01*
X83866498Y-118469735D01*
X83866503Y-118469737D01*
X84021153Y-118500499D01*
X84021156Y-118500500D01*
X84021158Y-118500500D01*
X84178844Y-118500500D01*
X84178845Y-118500499D01*
X84333497Y-118469737D01*
X84479179Y-118409394D01*
X84610289Y-118321789D01*
X84721789Y-118210289D01*
X84809394Y-118079179D01*
X84869737Y-117933497D01*
X84900500Y-117778842D01*
X84900500Y-117621158D01*
X84900500Y-117621155D01*
X84900499Y-117621153D01*
X84893868Y-117587819D01*
X84869737Y-117466503D01*
X84841060Y-117397270D01*
X84809397Y-117320827D01*
X84809390Y-117320814D01*
X84721398Y-117189125D01*
X84700520Y-117122447D01*
X84700500Y-117120234D01*
X84700500Y-115524500D01*
X84720185Y-115457461D01*
X84772989Y-115411706D01*
X84824500Y-115400500D01*
X94499903Y-115400500D01*
X94566942Y-115420185D01*
X94587584Y-115436819D01*
X95165425Y-116014660D01*
X95198910Y-116075983D01*
X95199361Y-116078149D01*
X95230261Y-116233491D01*
X95230264Y-116233501D01*
X95290602Y-116379172D01*
X95290609Y-116379185D01*
X95378210Y-116510288D01*
X95378213Y-116510292D01*
X95489707Y-116621786D01*
X95489711Y-116621789D01*
X95620814Y-116709390D01*
X95620827Y-116709397D01*
X95766498Y-116769735D01*
X95766503Y-116769737D01*
X95921153Y-116800499D01*
X95921156Y-116800500D01*
X95921158Y-116800500D01*
X96078844Y-116800500D01*
X96078845Y-116800499D01*
X96233497Y-116769737D01*
X96379179Y-116709394D01*
X96510289Y-116621789D01*
X96621789Y-116510289D01*
X96709394Y-116379179D01*
X96769737Y-116233497D01*
X96800500Y-116078842D01*
X96800500Y-115921158D01*
X96800500Y-115921155D01*
X96800499Y-115921153D01*
X96769738Y-115766510D01*
X96769737Y-115766503D01*
X96761310Y-115746158D01*
X96709397Y-115620827D01*
X96709390Y-115620814D01*
X96621789Y-115489711D01*
X96621786Y-115489707D01*
X96510292Y-115378213D01*
X96510288Y-115378210D01*
X96379185Y-115290609D01*
X96379172Y-115290602D01*
X96233501Y-115230264D01*
X96233491Y-115230261D01*
X96078149Y-115199361D01*
X96016238Y-115166976D01*
X96014660Y-115165425D01*
X95287590Y-114438355D01*
X95287588Y-114438352D01*
X95168717Y-114319481D01*
X95168716Y-114319480D01*
X95069245Y-114262051D01*
X95069244Y-114262050D01*
X95031783Y-114240422D01*
X94975881Y-114225443D01*
X94879057Y-114199499D01*
X94720943Y-114199499D01*
X94713347Y-114199499D01*
X94713331Y-114199500D01*
X84824500Y-114199500D01*
X84757461Y-114179815D01*
X84711706Y-114127011D01*
X84700500Y-114075500D01*
X84700500Y-110921153D01*
X97699500Y-110921153D01*
X97699500Y-111078846D01*
X97730261Y-111233489D01*
X97730264Y-111233501D01*
X97790602Y-111379172D01*
X97790609Y-111379185D01*
X97878210Y-111510288D01*
X97878213Y-111510292D01*
X97989707Y-111621786D01*
X97989711Y-111621789D01*
X98120814Y-111709390D01*
X98120827Y-111709397D01*
X98266498Y-111769735D01*
X98266503Y-111769737D01*
X98421153Y-111800499D01*
X98421156Y-111800500D01*
X98421158Y-111800500D01*
X98578844Y-111800500D01*
X98578845Y-111800499D01*
X98733497Y-111769737D01*
X98879179Y-111709394D01*
X98879185Y-111709390D01*
X99010875Y-111621398D01*
X99077553Y-111600520D01*
X99079766Y-111600500D01*
X101417060Y-111600500D01*
X101484099Y-111620185D01*
X101504736Y-111636814D01*
X101577312Y-111709390D01*
X101589712Y-111721790D01*
X101720814Y-111809390D01*
X101720827Y-111809397D01*
X101866498Y-111869735D01*
X101866503Y-111869737D01*
X102021153Y-111900499D01*
X102021156Y-111900500D01*
X102021158Y-111900500D01*
X102178844Y-111900500D01*
X102178845Y-111900499D01*
X102333497Y-111869737D01*
X102457403Y-111818414D01*
X102479172Y-111809397D01*
X102479172Y-111809396D01*
X102479179Y-111809394D01*
X102610289Y-111721789D01*
X102721789Y-111610289D01*
X102809394Y-111479179D01*
X102869737Y-111333497D01*
X102900500Y-111178842D01*
X102900500Y-111021158D01*
X102900500Y-111021155D01*
X102900499Y-111021153D01*
X102886941Y-110952993D01*
X102869737Y-110866503D01*
X102852888Y-110825826D01*
X102809397Y-110720827D01*
X102809390Y-110720814D01*
X102721789Y-110589711D01*
X102721786Y-110589707D01*
X102610292Y-110478213D01*
X102610288Y-110478210D01*
X102479185Y-110390609D01*
X102479172Y-110390602D01*
X102333501Y-110330264D01*
X102333489Y-110330261D01*
X102178845Y-110299500D01*
X102178842Y-110299500D01*
X102021158Y-110299500D01*
X102021155Y-110299500D01*
X101866510Y-110330261D01*
X101866498Y-110330264D01*
X101722136Y-110390061D01*
X101674684Y-110399500D01*
X99079766Y-110399500D01*
X99012727Y-110379815D01*
X99010875Y-110378602D01*
X98879185Y-110290609D01*
X98879172Y-110290602D01*
X98733501Y-110230264D01*
X98733489Y-110230261D01*
X98578845Y-110199500D01*
X98578842Y-110199500D01*
X98421158Y-110199500D01*
X98421155Y-110199500D01*
X98266510Y-110230261D01*
X98266498Y-110230264D01*
X98120827Y-110290602D01*
X98120814Y-110290609D01*
X97989711Y-110378210D01*
X97989707Y-110378213D01*
X97878213Y-110489707D01*
X97878210Y-110489711D01*
X97790609Y-110620814D01*
X97790602Y-110620827D01*
X97730264Y-110766498D01*
X97730261Y-110766510D01*
X97699500Y-110921153D01*
X84700500Y-110921153D01*
X84700500Y-108420946D01*
X84700499Y-108420942D01*
X84689219Y-108378843D01*
X84689219Y-108378842D01*
X84659577Y-108268218D01*
X84630639Y-108218098D01*
X84580520Y-108131287D01*
X84551738Y-108102505D01*
X84545139Y-108092788D01*
X84537897Y-108070256D01*
X84526552Y-108049479D01*
X84527401Y-108037603D01*
X84523759Y-108026270D01*
X84529848Y-108003398D01*
X84531538Y-107979787D01*
X84538673Y-107970255D01*
X84541736Y-107958753D01*
X84559222Y-107942805D01*
X84573410Y-107923854D01*
X84585320Y-107919004D01*
X84593361Y-107911672D01*
X84610459Y-107908769D01*
X84621686Y-107904197D01*
X84621260Y-107902607D01*
X84629108Y-107900504D01*
X84629111Y-107900504D01*
X84781839Y-107859580D01*
X84831958Y-107830642D01*
X84918770Y-107780523D01*
X85030574Y-107668719D01*
X85030574Y-107668717D01*
X85040782Y-107658510D01*
X85040783Y-107658507D01*
X86362473Y-106336819D01*
X86423796Y-106303334D01*
X86450154Y-106300500D01*
X86820234Y-106300500D01*
X86887273Y-106320185D01*
X86889125Y-106321398D01*
X87020814Y-106409390D01*
X87020827Y-106409397D01*
X87166498Y-106469735D01*
X87166503Y-106469737D01*
X87316146Y-106499503D01*
X87321153Y-106500499D01*
X87321156Y-106500500D01*
X87321158Y-106500500D01*
X87478844Y-106500500D01*
X87478845Y-106500499D01*
X87633497Y-106469737D01*
X87779179Y-106409394D01*
X87910289Y-106321789D01*
X88021789Y-106210289D01*
X88109394Y-106079179D01*
X88114727Y-106066303D01*
X88158565Y-106011900D01*
X88224858Y-105989832D01*
X88292558Y-106007109D01*
X88340171Y-106058244D01*
X88343850Y-106066300D01*
X88390604Y-106179176D01*
X88390609Y-106179185D01*
X88478210Y-106310288D01*
X88478213Y-106310292D01*
X88589707Y-106421786D01*
X88589711Y-106421789D01*
X88720814Y-106509390D01*
X88720827Y-106509397D01*
X88842479Y-106559786D01*
X88866503Y-106569737D01*
X89021153Y-106600499D01*
X89021156Y-106600500D01*
X89021158Y-106600500D01*
X89178844Y-106600500D01*
X89178845Y-106600499D01*
X89333497Y-106569737D01*
X89479179Y-106509394D01*
X89610289Y-106421789D01*
X89721789Y-106310289D01*
X89809394Y-106179179D01*
X89869737Y-106033497D01*
X89900500Y-105878842D01*
X89900500Y-105721158D01*
X89900500Y-105721155D01*
X89900499Y-105721153D01*
X89885548Y-105645989D01*
X89869737Y-105566503D01*
X89852405Y-105524659D01*
X89809397Y-105420827D01*
X89809390Y-105420814D01*
X89721398Y-105289125D01*
X89700520Y-105222447D01*
X89700500Y-105220234D01*
X89700500Y-103980874D01*
X89700501Y-103980861D01*
X89700501Y-103812760D01*
X89700501Y-103812758D01*
X89659577Y-103660030D01*
X89614214Y-103581459D01*
X89601249Y-103559004D01*
X89584780Y-103491104D01*
X89607633Y-103425078D01*
X89662555Y-103381888D01*
X89708639Y-103373007D01*
X89728844Y-103373007D01*
X89728845Y-103373006D01*
X89883497Y-103342244D01*
X90029179Y-103281901D01*
X90160289Y-103194296D01*
X90271789Y-103082796D01*
X90359394Y-102951686D01*
X90419737Y-102806004D01*
X90450500Y-102651349D01*
X90450500Y-102493665D01*
X90450500Y-102493662D01*
X90450499Y-102493660D01*
X90435545Y-102418481D01*
X90419737Y-102339010D01*
X90412133Y-102320654D01*
X90409380Y-102295046D01*
X90402731Y-102270158D01*
X90405367Y-102257726D01*
X90404664Y-102251187D01*
X90407538Y-102239656D01*
X90407526Y-102239653D01*
X90407716Y-102238942D01*
X90408610Y-102235357D01*
X90409932Y-102231232D01*
X90411365Y-102229116D01*
X90411513Y-102228745D01*
X90412166Y-102225668D01*
X90412779Y-102224191D01*
X90413244Y-102224384D01*
X90413866Y-102222815D01*
X90413396Y-102222637D01*
X90416281Y-102215037D01*
X90416281Y-102215036D01*
X90416284Y-102215031D01*
X90432414Y-102146767D01*
X90450557Y-102079057D01*
X90450557Y-102069985D01*
X90452644Y-102061153D01*
X90450557Y-101991048D01*
X90450557Y-101920942D01*
X90448209Y-101912179D01*
X90447939Y-101903108D01*
X90440274Y-101877567D01*
X90439858Y-101807698D01*
X90444474Y-101794485D01*
X90469737Y-101733497D01*
X90500500Y-101578842D01*
X90500500Y-101421158D01*
X90500500Y-101421155D01*
X90500499Y-101421153D01*
X90475820Y-101297084D01*
X90469737Y-101266503D01*
X90469732Y-101266492D01*
X90467969Y-101260676D01*
X90470720Y-101259841D01*
X90464497Y-101202641D01*
X90495691Y-101140122D01*
X90555734Y-101104392D01*
X90586555Y-101100500D01*
X91499903Y-101100500D01*
X91566942Y-101120185D01*
X91587584Y-101136819D01*
X94465425Y-104014660D01*
X94498910Y-104075983D01*
X94499361Y-104078149D01*
X94530261Y-104233491D01*
X94530264Y-104233501D01*
X94590602Y-104379172D01*
X94590609Y-104379185D01*
X94678210Y-104510288D01*
X94678213Y-104510292D01*
X94789707Y-104621786D01*
X94789711Y-104621789D01*
X94920814Y-104709390D01*
X94920827Y-104709397D01*
X95066498Y-104769735D01*
X95066503Y-104769737D01*
X95131147Y-104782595D01*
X95221849Y-104800638D01*
X95283760Y-104833023D01*
X95285339Y-104834574D01*
X95677149Y-105226384D01*
X95710634Y-105287707D01*
X95710990Y-105327437D01*
X95712597Y-105327596D01*
X95712000Y-105333658D01*
X95712000Y-105491346D01*
X95742761Y-105645989D01*
X95742764Y-105646001D01*
X95803102Y-105791672D01*
X95803109Y-105791685D01*
X95890710Y-105922788D01*
X95890713Y-105922792D01*
X96002207Y-106034286D01*
X96002211Y-106034289D01*
X96133314Y-106121890D01*
X96133327Y-106121897D01*
X96211298Y-106154193D01*
X96279003Y-106182237D01*
X96420024Y-106210288D01*
X96433653Y-106212999D01*
X96433656Y-106213000D01*
X96433658Y-106213000D01*
X96591344Y-106213000D01*
X96591345Y-106212999D01*
X96745997Y-106182237D01*
X96891679Y-106121894D01*
X97022789Y-106034289D01*
X97134289Y-105922789D01*
X97221894Y-105791679D01*
X97224128Y-105786287D01*
X97245174Y-105735476D01*
X97282237Y-105645997D01*
X97313000Y-105491342D01*
X97313000Y-105333658D01*
X97313000Y-105333655D01*
X97312999Y-105333653D01*
X97300984Y-105273250D01*
X97282237Y-105179003D01*
X97266257Y-105140423D01*
X97221897Y-105033327D01*
X97221890Y-105033314D01*
X97134289Y-104902211D01*
X97134286Y-104902207D01*
X97022792Y-104790713D01*
X97022788Y-104790710D01*
X96891685Y-104703109D01*
X96891676Y-104703104D01*
X96847311Y-104684728D01*
X96807083Y-104657848D01*
X96134574Y-103985339D01*
X96101089Y-103924016D01*
X96100638Y-103921849D01*
X96078107Y-103808583D01*
X96069737Y-103766503D01*
X96042398Y-103700500D01*
X96009397Y-103620827D01*
X96009390Y-103620814D01*
X95921789Y-103489711D01*
X95921786Y-103489707D01*
X95810292Y-103378213D01*
X95810288Y-103378210D01*
X95679185Y-103290609D01*
X95679172Y-103290602D01*
X95533501Y-103230264D01*
X95533491Y-103230261D01*
X95378149Y-103199361D01*
X95316238Y-103166976D01*
X95314660Y-103165425D01*
X92287590Y-100138355D01*
X92287588Y-100138352D01*
X92168717Y-100019481D01*
X92168716Y-100019480D01*
X92081904Y-99969360D01*
X92081904Y-99969359D01*
X92081900Y-99969358D01*
X92031785Y-99940423D01*
X91879057Y-99899499D01*
X91720943Y-99899499D01*
X91713347Y-99899499D01*
X91713331Y-99899500D01*
X90276077Y-99899500D01*
X90263479Y-99895800D01*
X90250390Y-99896810D01*
X90230603Y-99886147D01*
X90209038Y-99879815D01*
X90199044Y-99869140D01*
X90188883Y-99863665D01*
X90176064Y-99844595D01*
X90167576Y-99835529D01*
X90161031Y-99823699D01*
X90159577Y-99818272D01*
X90123076Y-99755051D01*
X90080520Y-99681341D01*
X89968716Y-99569537D01*
X89968715Y-99569536D01*
X89964385Y-99565206D01*
X89964374Y-99565196D01*
X82237533Y-91838355D01*
X82237531Y-91838352D01*
X82118660Y-91719481D01*
X82118652Y-91719475D01*
X82020407Y-91662754D01*
X81981731Y-91640424D01*
X81981730Y-91640423D01*
X81920636Y-91624053D01*
X81829000Y-91599499D01*
X81670886Y-91599499D01*
X81663290Y-91599499D01*
X81663274Y-91599500D01*
X80279766Y-91599500D01*
X80212727Y-91579815D01*
X80210875Y-91578602D01*
X80079185Y-91490609D01*
X80079172Y-91490602D01*
X79933501Y-91430264D01*
X79933489Y-91430261D01*
X79778845Y-91399500D01*
X79778842Y-91399500D01*
X79621158Y-91399500D01*
X79621155Y-91399500D01*
X79466510Y-91430261D01*
X79466498Y-91430264D01*
X79320827Y-91490602D01*
X79320814Y-91490609D01*
X79189711Y-91578210D01*
X79189707Y-91578213D01*
X79078213Y-91689707D01*
X79078210Y-91689711D01*
X78990609Y-91820814D01*
X78990602Y-91820827D01*
X78930264Y-91966498D01*
X78930261Y-91966508D01*
X78899361Y-92121850D01*
X78866976Y-92183761D01*
X78865425Y-92185339D01*
X77286584Y-93764181D01*
X77225261Y-93797666D01*
X77198903Y-93800500D01*
X75918046Y-93800500D01*
X75851007Y-93780815D01*
X75805252Y-93728011D01*
X75796429Y-93700691D01*
X75788463Y-93660645D01*
X75769737Y-93566503D01*
X75752899Y-93525851D01*
X75709397Y-93420827D01*
X75709390Y-93420814D01*
X75621789Y-93289711D01*
X75621786Y-93289707D01*
X75510292Y-93178213D01*
X75510288Y-93178210D01*
X75379185Y-93090609D01*
X75379172Y-93090602D01*
X75254738Y-93039061D01*
X75200334Y-92995221D01*
X75178269Y-92928926D01*
X75195548Y-92861227D01*
X75246685Y-92813616D01*
X75302190Y-92800500D01*
X76074684Y-92800500D01*
X76122136Y-92809939D01*
X76227320Y-92853507D01*
X76266503Y-92869737D01*
X76421153Y-92900499D01*
X76421156Y-92900500D01*
X76421158Y-92900500D01*
X76578844Y-92900500D01*
X76578845Y-92900499D01*
X76733497Y-92869737D01*
X76872443Y-92812184D01*
X76879172Y-92809397D01*
X76879172Y-92809396D01*
X76879179Y-92809394D01*
X77010289Y-92721789D01*
X77121789Y-92610289D01*
X77209394Y-92479179D01*
X77269737Y-92333497D01*
X77300500Y-92178842D01*
X77300500Y-92021158D01*
X77300500Y-92021155D01*
X77300499Y-92021153D01*
X77271989Y-91877827D01*
X77269737Y-91866503D01*
X77219323Y-91744792D01*
X77209397Y-91720827D01*
X77209390Y-91720814D01*
X77121789Y-91589711D01*
X77121786Y-91589707D01*
X77010292Y-91478213D01*
X77010288Y-91478210D01*
X76879185Y-91390609D01*
X76879172Y-91390602D01*
X76733501Y-91330264D01*
X76733489Y-91330261D01*
X76578845Y-91299500D01*
X76578842Y-91299500D01*
X76421158Y-91299500D01*
X76421155Y-91299500D01*
X76266510Y-91330261D01*
X76266498Y-91330264D01*
X76120827Y-91390602D01*
X76120814Y-91390609D01*
X75989712Y-91478209D01*
X75947227Y-91520695D01*
X75904739Y-91563182D01*
X75843419Y-91596666D01*
X75817060Y-91599500D01*
X72379766Y-91599500D01*
X72312727Y-91579815D01*
X72310875Y-91578602D01*
X72179185Y-91490609D01*
X72179172Y-91490602D01*
X72033501Y-91430264D01*
X72033491Y-91430261D01*
X71899308Y-91403570D01*
X71837397Y-91371185D01*
X71802823Y-91310469D01*
X71799500Y-91281953D01*
X71799500Y-90501096D01*
X71819185Y-90434057D01*
X71835815Y-90413419D01*
X72087445Y-90161788D01*
X72148766Y-90128305D01*
X72218457Y-90133289D01*
X72274391Y-90175160D01*
X72289685Y-90202019D01*
X72313548Y-90259631D01*
X72313555Y-90259644D01*
X72395170Y-90381788D01*
X72395173Y-90381792D01*
X72499048Y-90485667D01*
X72499052Y-90485670D01*
X72621196Y-90567285D01*
X72621202Y-90567288D01*
X72621203Y-90567289D01*
X72756930Y-90623509D01*
X72901012Y-90652168D01*
X72901016Y-90652169D01*
X72901017Y-90652169D01*
X73047928Y-90652169D01*
X73047929Y-90652168D01*
X73192014Y-90623509D01*
X73327741Y-90567289D01*
X73449892Y-90485670D01*
X73553773Y-90381789D01*
X73635392Y-90259638D01*
X73691612Y-90123911D01*
X73720272Y-89979824D01*
X73720272Y-89832914D01*
X73691612Y-89688827D01*
X73635392Y-89553100D01*
X73635391Y-89553099D01*
X73635388Y-89553093D01*
X73553773Y-89430949D01*
X73553770Y-89430945D01*
X73449895Y-89327070D01*
X73449891Y-89327067D01*
X73410486Y-89300737D01*
X73365681Y-89247124D01*
X73356974Y-89177799D01*
X73376274Y-89128745D01*
X73409394Y-89079179D01*
X73469737Y-88933497D01*
X73500500Y-88778842D01*
X73500500Y-88621158D01*
X73500500Y-88621155D01*
X73500499Y-88621153D01*
X73472066Y-88478211D01*
X73469737Y-88466503D01*
X73469735Y-88466498D01*
X73409397Y-88320827D01*
X73409390Y-88320814D01*
X73321789Y-88189711D01*
X73321786Y-88189707D01*
X73210292Y-88078213D01*
X73210288Y-88078210D01*
X73079185Y-87990609D01*
X73079172Y-87990602D01*
X72933501Y-87930264D01*
X72933489Y-87930261D01*
X72778845Y-87899500D01*
X72778842Y-87899500D01*
X72621158Y-87899500D01*
X72621155Y-87899500D01*
X72466510Y-87930261D01*
X72466498Y-87930264D01*
X72320827Y-87990602D01*
X72320818Y-87990607D01*
X72280728Y-88017394D01*
X72214050Y-88038270D01*
X72146670Y-88019784D01*
X72121702Y-87997952D01*
X72121240Y-87998415D01*
X72013054Y-87890229D01*
X72013050Y-87890226D01*
X71890906Y-87808611D01*
X71890897Y-87808606D01*
X71755175Y-87752389D01*
X71755176Y-87752389D01*
X71755173Y-87752388D01*
X71755169Y-87752387D01*
X71755165Y-87752386D01*
X71611090Y-87723728D01*
X71611086Y-87723728D01*
X71464176Y-87723728D01*
X71464171Y-87723728D01*
X71320096Y-87752386D01*
X71320086Y-87752389D01*
X71184364Y-87808606D01*
X71184355Y-87808611D01*
X71062211Y-87890226D01*
X71062207Y-87890229D01*
X70958332Y-87994104D01*
X70958329Y-87994108D01*
X70876714Y-88116252D01*
X70876709Y-88116261D01*
X70820492Y-88251983D01*
X70820489Y-88251993D01*
X70791831Y-88396068D01*
X70791831Y-88542987D01*
X70820489Y-88687062D01*
X70820492Y-88687072D01*
X70876709Y-88822794D01*
X70876714Y-88822803D01*
X70958329Y-88944947D01*
X70958332Y-88944951D01*
X71062207Y-89048826D01*
X71062211Y-89048829D01*
X71184355Y-89130444D01*
X71189732Y-89133318D01*
X71188508Y-89135606D01*
X71234128Y-89172338D01*
X71256220Y-89238623D01*
X71238969Y-89306329D01*
X71219982Y-89330781D01*
X70830286Y-89720478D01*
X70718481Y-89832282D01*
X70718479Y-89832285D01*
X70685448Y-89889498D01*
X70685447Y-89889500D01*
X70639423Y-89969214D01*
X70639423Y-89969215D01*
X70598499Y-90121943D01*
X70598499Y-90121945D01*
X70598499Y-90290046D01*
X70598500Y-90290059D01*
X70598500Y-92369882D01*
X70598499Y-92369886D01*
X70598499Y-92426775D01*
X70598499Y-92482352D01*
X70578814Y-92549391D01*
X70526010Y-92595146D01*
X70526004Y-92595146D01*
X70498691Y-92603968D01*
X70366508Y-92630261D01*
X70366498Y-92630264D01*
X70220827Y-92690602D01*
X70220814Y-92690609D01*
X70089711Y-92778210D01*
X70089707Y-92778213D01*
X69978213Y-92889707D01*
X69978210Y-92889711D01*
X69890609Y-93020814D01*
X69890602Y-93020827D01*
X69830264Y-93166498D01*
X69830261Y-93166508D01*
X69799361Y-93321850D01*
X69766976Y-93383761D01*
X69765425Y-93385339D01*
X69417584Y-93733181D01*
X69356261Y-93766666D01*
X69329903Y-93769500D01*
X60473002Y-93769500D01*
X60405963Y-93749815D01*
X60360208Y-93697011D01*
X60350743Y-93631187D01*
X60350118Y-93631138D01*
X60350336Y-93628359D01*
X60350264Y-93627853D01*
X60350499Y-93626293D01*
X60350500Y-93626287D01*
X60350500Y-93413713D01*
X60341890Y-93359352D01*
X60317246Y-93203757D01*
X60251557Y-93001588D01*
X60155051Y-92812184D01*
X60155049Y-92812181D01*
X60155048Y-92812179D01*
X60078335Y-92706591D01*
X67918149Y-92706591D01*
X67918149Y-92853510D01*
X67946807Y-92997585D01*
X67946810Y-92997595D01*
X68003027Y-93133317D01*
X68003032Y-93133326D01*
X68084647Y-93255470D01*
X68084650Y-93255474D01*
X68188525Y-93359349D01*
X68188529Y-93359352D01*
X68310673Y-93440967D01*
X68310679Y-93440970D01*
X68310680Y-93440971D01*
X68446407Y-93497191D01*
X68500044Y-93507859D01*
X68568617Y-93521500D01*
X68568620Y-93521500D01*
X68590494Y-93525851D01*
X68737404Y-93525851D01*
X68759278Y-93521500D01*
X68759281Y-93521500D01*
X68815372Y-93510342D01*
X68881491Y-93497191D01*
X69017218Y-93440971D01*
X69139369Y-93359352D01*
X69243250Y-93255471D01*
X69324869Y-93133320D01*
X69381089Y-92997593D01*
X69409749Y-92853506D01*
X69409749Y-92706596D01*
X69381089Y-92562509D01*
X69324869Y-92426782D01*
X69324868Y-92426781D01*
X69324865Y-92426775D01*
X69243250Y-92304631D01*
X69243247Y-92304627D01*
X69139372Y-92200752D01*
X69139368Y-92200749D01*
X69017224Y-92119134D01*
X69017215Y-92119129D01*
X68881493Y-92062912D01*
X68881494Y-92062912D01*
X68881491Y-92062911D01*
X68881487Y-92062910D01*
X68881483Y-92062909D01*
X68737408Y-92034251D01*
X68737404Y-92034251D01*
X68590494Y-92034251D01*
X68590489Y-92034251D01*
X68446414Y-92062909D01*
X68446404Y-92062912D01*
X68310682Y-92119129D01*
X68310673Y-92119134D01*
X68188529Y-92200749D01*
X68188525Y-92200752D01*
X68084650Y-92304627D01*
X68084647Y-92304631D01*
X68003032Y-92426775D01*
X68003027Y-92426784D01*
X67946810Y-92562506D01*
X67946807Y-92562516D01*
X67918149Y-92706591D01*
X60078335Y-92706591D01*
X60030109Y-92640213D01*
X59916181Y-92526285D01*
X59882696Y-92464962D01*
X59887680Y-92395270D01*
X59929552Y-92339337D01*
X59960529Y-92322422D01*
X60092086Y-92273354D01*
X60092093Y-92273350D01*
X60207187Y-92187190D01*
X60207190Y-92187187D01*
X60293350Y-92072093D01*
X60293354Y-92072086D01*
X60343596Y-91937379D01*
X60343598Y-91937372D01*
X60349999Y-91877844D01*
X60350000Y-91877827D01*
X60350000Y-91230000D01*
X59433012Y-91230000D01*
X59465925Y-91172993D01*
X59500000Y-91045826D01*
X59500000Y-90914174D01*
X59465925Y-90787007D01*
X59433012Y-90730000D01*
X60350000Y-90730000D01*
X60350000Y-90082172D01*
X60349999Y-90082155D01*
X60343598Y-90022627D01*
X60343596Y-90022620D01*
X60293354Y-89887913D01*
X60293350Y-89887906D01*
X60207190Y-89772812D01*
X60207187Y-89772809D01*
X60092093Y-89686649D01*
X60092086Y-89686645D01*
X59957379Y-89636403D01*
X59957372Y-89636401D01*
X59897844Y-89630000D01*
X59250000Y-89630000D01*
X59250000Y-90546988D01*
X59192993Y-90514075D01*
X59065826Y-90480000D01*
X58934174Y-90480000D01*
X58807007Y-90514075D01*
X58750000Y-90546988D01*
X58750000Y-89630000D01*
X58573500Y-89630000D01*
X58506461Y-89610315D01*
X58460706Y-89557511D01*
X58449500Y-89506000D01*
X58449500Y-86951097D01*
X58469185Y-86884058D01*
X58485819Y-86863416D01*
X61508467Y-83840768D01*
X61569790Y-83807283D01*
X61596148Y-83804449D01*
X62106641Y-83804449D01*
X62173680Y-83824134D01*
X62194322Y-83840768D01*
X62870591Y-84517037D01*
X62807007Y-84534075D01*
X62692993Y-84599901D01*
X62599901Y-84692993D01*
X62534075Y-84807007D01*
X62517037Y-84870591D01*
X61868629Y-84222183D01*
X61410548Y-84680263D01*
X61410544Y-84680267D01*
X61372964Y-84726902D01*
X61313238Y-84857681D01*
X61313237Y-84857686D01*
X61292777Y-85000000D01*
X61313237Y-85142313D01*
X61313238Y-85142318D01*
X61372964Y-85273097D01*
X61410544Y-85319732D01*
X61868629Y-85777817D01*
X62517037Y-85129408D01*
X62534075Y-85192993D01*
X62599901Y-85307007D01*
X62692993Y-85400099D01*
X62807007Y-85465925D01*
X62870591Y-85482962D01*
X62222183Y-86131371D01*
X62680267Y-86589455D01*
X62726902Y-86627035D01*
X62857681Y-86686761D01*
X62857686Y-86686762D01*
X63000000Y-86707222D01*
X63142313Y-86686762D01*
X63142318Y-86686761D01*
X63273097Y-86627035D01*
X63319732Y-86589455D01*
X63319736Y-86589451D01*
X63777817Y-86131371D01*
X63129408Y-85482962D01*
X63192993Y-85465925D01*
X63307007Y-85400099D01*
X63400099Y-85307007D01*
X63465925Y-85192993D01*
X63482962Y-85129408D01*
X64131371Y-85777817D01*
X64589451Y-85319736D01*
X64589455Y-85319732D01*
X64627035Y-85273097D01*
X64686761Y-85142318D01*
X64686762Y-85142313D01*
X64707222Y-85000000D01*
X64686762Y-84857686D01*
X64686761Y-84857682D01*
X64628432Y-84729961D01*
X64618488Y-84660803D01*
X64647513Y-84597247D01*
X64706291Y-84559472D01*
X64741226Y-84554449D01*
X64902337Y-84554449D01*
X64902338Y-84554449D01*
X65112294Y-84521195D01*
X65314463Y-84455506D01*
X65503867Y-84359000D01*
X65525840Y-84343035D01*
X65675837Y-84234058D01*
X65675839Y-84234055D01*
X65675843Y-84234053D01*
X65826155Y-84083741D01*
X65826157Y-84083737D01*
X65826160Y-84083735D01*
X65951099Y-83911769D01*
X65951098Y-83911769D01*
X65951102Y-83911765D01*
X66047608Y-83722361D01*
X66113297Y-83520192D01*
X66146551Y-83310236D01*
X66146551Y-83097662D01*
X66113297Y-82887706D01*
X66099557Y-82845422D01*
X66097563Y-82775584D01*
X66129806Y-82719427D01*
X69680553Y-79168680D01*
X69741873Y-79135198D01*
X69811565Y-79140182D01*
X69867498Y-79182054D01*
X69890704Y-79236966D01*
X69903242Y-79316127D01*
X69903242Y-79316130D01*
X69968904Y-79518217D01*
X70065375Y-79707550D01*
X70104728Y-79761716D01*
X70737036Y-79129407D01*
X70754075Y-79192993D01*
X70819901Y-79307007D01*
X70912993Y-79400099D01*
X71027007Y-79465925D01*
X71090590Y-79482962D01*
X70458282Y-80115269D01*
X70458282Y-80115270D01*
X70512449Y-80154624D01*
X70701782Y-80251095D01*
X70903870Y-80316757D01*
X71113754Y-80350000D01*
X71326246Y-80350000D01*
X71536127Y-80316757D01*
X71536130Y-80316757D01*
X71738217Y-80251095D01*
X71927554Y-80154622D01*
X71981716Y-80115270D01*
X71981717Y-80115270D01*
X71349408Y-79482962D01*
X71412993Y-79465925D01*
X71527007Y-79400099D01*
X71620099Y-79307007D01*
X71685925Y-79192993D01*
X71702962Y-79129409D01*
X72335270Y-79761717D01*
X72335270Y-79761716D01*
X72374622Y-79707555D01*
X72379232Y-79698507D01*
X72427205Y-79647709D01*
X72495025Y-79630912D01*
X72561161Y-79653447D01*
X72600204Y-79698504D01*
X72604949Y-79707817D01*
X72729890Y-79879786D01*
X72880213Y-80030109D01*
X73052179Y-80155048D01*
X73052181Y-80155049D01*
X73052184Y-80155051D01*
X73241588Y-80251557D01*
X73443757Y-80317246D01*
X73653713Y-80350500D01*
X73653714Y-80350500D01*
X73866286Y-80350500D01*
X73866287Y-80350500D01*
X74076243Y-80317246D01*
X74278412Y-80251557D01*
X74467816Y-80155051D01*
X74522572Y-80115269D01*
X74639786Y-80030109D01*
X74639788Y-80030106D01*
X74639792Y-80030104D01*
X74790104Y-79879792D01*
X74790106Y-79879788D01*
X74790109Y-79879786D01*
X74915048Y-79707820D01*
X74915047Y-79707820D01*
X74915051Y-79707816D01*
X74919514Y-79699054D01*
X74967488Y-79648259D01*
X75035308Y-79631463D01*
X75101444Y-79653999D01*
X75140486Y-79699056D01*
X75144951Y-79707820D01*
X75269890Y-79879786D01*
X75420213Y-80030109D01*
X75592179Y-80155048D01*
X75592181Y-80155049D01*
X75592184Y-80155051D01*
X75781588Y-80251557D01*
X75983757Y-80317246D01*
X76193713Y-80350500D01*
X76193714Y-80350500D01*
X76406286Y-80350500D01*
X76406287Y-80350500D01*
X76616243Y-80317246D01*
X76818412Y-80251557D01*
X77007816Y-80155051D01*
X77062572Y-80115269D01*
X77179786Y-80030109D01*
X77179788Y-80030106D01*
X77179792Y-80030104D01*
X77330104Y-79879792D01*
X77330106Y-79879788D01*
X77330109Y-79879786D01*
X77455048Y-79707820D01*
X77455047Y-79707820D01*
X77455051Y-79707816D01*
X77459514Y-79699054D01*
X77507488Y-79648259D01*
X77575308Y-79631463D01*
X77641444Y-79653999D01*
X77680486Y-79699056D01*
X77684951Y-79707820D01*
X77809890Y-79879786D01*
X77960213Y-80030109D01*
X78132179Y-80155048D01*
X78132181Y-80155049D01*
X78132184Y-80155051D01*
X78321588Y-80251557D01*
X78523757Y-80317246D01*
X78733713Y-80350500D01*
X78733714Y-80350500D01*
X78946286Y-80350500D01*
X78946287Y-80350500D01*
X79156243Y-80317246D01*
X79358412Y-80251557D01*
X79547816Y-80155051D01*
X79602572Y-80115269D01*
X79719786Y-80030109D01*
X79719788Y-80030106D01*
X79719792Y-80030104D01*
X79870104Y-79879792D01*
X79870106Y-79879788D01*
X79870109Y-79879786D01*
X79995048Y-79707820D01*
X79995047Y-79707820D01*
X79995051Y-79707816D01*
X79999514Y-79699054D01*
X80047488Y-79648259D01*
X80115308Y-79631463D01*
X80181444Y-79653999D01*
X80220486Y-79699056D01*
X80224951Y-79707820D01*
X80349890Y-79879786D01*
X80500213Y-80030109D01*
X80672179Y-80155048D01*
X80672181Y-80155049D01*
X80672184Y-80155051D01*
X80861588Y-80251557D01*
X81063757Y-80317246D01*
X81273713Y-80350500D01*
X81273714Y-80350500D01*
X81486286Y-80350500D01*
X81486287Y-80350500D01*
X81696243Y-80317246D01*
X81898412Y-80251557D01*
X82087816Y-80155051D01*
X82142572Y-80115269D01*
X82259786Y-80030109D01*
X82259788Y-80030106D01*
X82259792Y-80030104D01*
X82410104Y-79879792D01*
X82410106Y-79879788D01*
X82410109Y-79879786D01*
X82535048Y-79707820D01*
X82535047Y-79707820D01*
X82535051Y-79707816D01*
X82539514Y-79699054D01*
X82587488Y-79648259D01*
X82655308Y-79631463D01*
X82721444Y-79653999D01*
X82760486Y-79699056D01*
X82764951Y-79707820D01*
X82889890Y-79879786D01*
X83040213Y-80030109D01*
X83212179Y-80155048D01*
X83212181Y-80155049D01*
X83212184Y-80155051D01*
X83401588Y-80251557D01*
X83603757Y-80317246D01*
X83813713Y-80350500D01*
X83813714Y-80350500D01*
X84026286Y-80350500D01*
X84026287Y-80350500D01*
X84236243Y-80317246D01*
X84438412Y-80251557D01*
X84627816Y-80155051D01*
X84682572Y-80115269D01*
X84799786Y-80030109D01*
X84799788Y-80030106D01*
X84799792Y-80030104D01*
X84950104Y-79879792D01*
X84950106Y-79879788D01*
X84950109Y-79879786D01*
X85075048Y-79707820D01*
X85075047Y-79707820D01*
X85075051Y-79707816D01*
X85079514Y-79699054D01*
X85127488Y-79648259D01*
X85195308Y-79631463D01*
X85261444Y-79653999D01*
X85300486Y-79699056D01*
X85304951Y-79707820D01*
X85429890Y-79879786D01*
X85580213Y-80030109D01*
X85752179Y-80155048D01*
X85752181Y-80155049D01*
X85752184Y-80155051D01*
X85941588Y-80251557D01*
X86143757Y-80317246D01*
X86353713Y-80350500D01*
X86353714Y-80350500D01*
X86566286Y-80350500D01*
X86566287Y-80350500D01*
X86776243Y-80317246D01*
X86978412Y-80251557D01*
X87167816Y-80155051D01*
X87222572Y-80115269D01*
X87339786Y-80030109D01*
X87339788Y-80030106D01*
X87339792Y-80030104D01*
X87490104Y-79879792D01*
X87490106Y-79879788D01*
X87490109Y-79879786D01*
X87575890Y-79761717D01*
X87615051Y-79707816D01*
X87619793Y-79698508D01*
X87667763Y-79647711D01*
X87735583Y-79630911D01*
X87801719Y-79653445D01*
X87840763Y-79698500D01*
X87845373Y-79707547D01*
X87884728Y-79761716D01*
X88517036Y-79129407D01*
X88534075Y-79192993D01*
G37*
%TD.AperFunction*%
%TA.AperFunction,Conductor*%
G36*
X118791511Y-119020185D02*
G01*
X118834957Y-119068206D01*
X118844949Y-119087817D01*
X118969890Y-119259786D01*
X119120213Y-119410109D01*
X119292182Y-119535050D01*
X119300946Y-119539516D01*
X119351742Y-119587491D01*
X119368536Y-119655312D01*
X119345998Y-119721447D01*
X119300946Y-119760484D01*
X119292182Y-119764949D01*
X119120213Y-119889890D01*
X118969890Y-120040213D01*
X118844948Y-120212184D01*
X118844947Y-120212185D01*
X118824765Y-120251795D01*
X118776791Y-120302591D01*
X118714281Y-120319500D01*
X115496198Y-120319500D01*
X115429159Y-120299815D01*
X115383404Y-120247011D01*
X115373460Y-120177853D01*
X115402485Y-120114297D01*
X115408517Y-120107819D01*
X116479517Y-119036819D01*
X116540840Y-119003334D01*
X116567198Y-119000500D01*
X118724472Y-119000500D01*
X118791511Y-119020185D01*
G37*
%TD.AperFunction*%
%TA.AperFunction,Conductor*%
G36*
X118541602Y-102980432D02*
G01*
X118569334Y-102982416D01*
X118575433Y-102986981D01*
X118582909Y-102988429D01*
X118603010Y-103007626D01*
X118625267Y-103024288D01*
X118627928Y-103031424D01*
X118633437Y-103036685D01*
X118639969Y-103063705D01*
X118649684Y-103089752D01*
X118650000Y-103098598D01*
X118650000Y-103246246D01*
X118683242Y-103456127D01*
X118683242Y-103456130D01*
X118748904Y-103658217D01*
X118845375Y-103847550D01*
X118884728Y-103901716D01*
X119517036Y-103269407D01*
X119534075Y-103332993D01*
X119599901Y-103447007D01*
X119692993Y-103540099D01*
X119807007Y-103605925D01*
X119870589Y-103622962D01*
X119238282Y-104255269D01*
X119238282Y-104255270D01*
X119292452Y-104294626D01*
X119292451Y-104294626D01*
X119301495Y-104299234D01*
X119352292Y-104347208D01*
X119369087Y-104415029D01*
X119346550Y-104481164D01*
X119301499Y-104520202D01*
X119292182Y-104524949D01*
X119120213Y-104649890D01*
X118969890Y-104800213D01*
X118844951Y-104972179D01*
X118748444Y-105161585D01*
X118748443Y-105161587D01*
X118748443Y-105161588D01*
X118742782Y-105179010D01*
X118682753Y-105363760D01*
X118649500Y-105573713D01*
X118649500Y-105786286D01*
X118681738Y-105989832D01*
X118682754Y-105996243D01*
X118743187Y-106182237D01*
X118748444Y-106198414D01*
X118844951Y-106387820D01*
X118969890Y-106559786D01*
X119120213Y-106710109D01*
X119292182Y-106835050D01*
X119300946Y-106839516D01*
X119351742Y-106887491D01*
X119368536Y-106955312D01*
X119345998Y-107021447D01*
X119300946Y-107060484D01*
X119292182Y-107064949D01*
X119120213Y-107189890D01*
X118969890Y-107340213D01*
X118844951Y-107512179D01*
X118748444Y-107701585D01*
X118682753Y-107903760D01*
X118649500Y-108113713D01*
X118649500Y-108326286D01*
X118682319Y-108533501D01*
X118682754Y-108536243D01*
X118739997Y-108712419D01*
X118748444Y-108738414D01*
X118844951Y-108927820D01*
X118969890Y-109099786D01*
X119120213Y-109250109D01*
X119292179Y-109375048D01*
X119292181Y-109375049D01*
X119292184Y-109375051D01*
X119301493Y-109379794D01*
X119352290Y-109427766D01*
X119369087Y-109495587D01*
X119346552Y-109561722D01*
X119301505Y-109600760D01*
X119292446Y-109605376D01*
X119292440Y-109605380D01*
X119238282Y-109644727D01*
X119238282Y-109644728D01*
X119870591Y-110277037D01*
X119807007Y-110294075D01*
X119692993Y-110359901D01*
X119599901Y-110452993D01*
X119534075Y-110567007D01*
X119517037Y-110630591D01*
X118884728Y-109998282D01*
X118884727Y-109998282D01*
X118845380Y-110052439D01*
X118748904Y-110241782D01*
X118683242Y-110443869D01*
X118683242Y-110443872D01*
X118650000Y-110653753D01*
X118650000Y-110866246D01*
X118683242Y-111076127D01*
X118683242Y-111076130D01*
X118748904Y-111278217D01*
X118845375Y-111467550D01*
X118884728Y-111521716D01*
X119517037Y-110889408D01*
X119534075Y-110952993D01*
X119599901Y-111067007D01*
X119692993Y-111160099D01*
X119807007Y-111225925D01*
X119870590Y-111242962D01*
X119238282Y-111875269D01*
X119238282Y-111875270D01*
X119292452Y-111914626D01*
X119292451Y-111914626D01*
X119301495Y-111919234D01*
X119352292Y-111967208D01*
X119369087Y-112035029D01*
X119346550Y-112101164D01*
X119301499Y-112140202D01*
X119292182Y-112144949D01*
X119120213Y-112269890D01*
X118969890Y-112420213D01*
X118844951Y-112592179D01*
X118748444Y-112781585D01*
X118682753Y-112983760D01*
X118649500Y-113193713D01*
X118649500Y-113406286D01*
X118682753Y-113616240D01*
X118721015Y-113733999D01*
X118723010Y-113803841D01*
X118690765Y-113859998D01*
X112588584Y-119962181D01*
X112527261Y-119995666D01*
X112500903Y-119998500D01*
X105317197Y-119998500D01*
X105250158Y-119978815D01*
X105204403Y-119926011D01*
X105194459Y-119856853D01*
X105223484Y-119793297D01*
X105229516Y-119786819D01*
X106136427Y-118879908D01*
X108858506Y-116157827D01*
X108858511Y-116157824D01*
X108868714Y-116147620D01*
X108868716Y-116147620D01*
X108980520Y-116035816D01*
X109038495Y-115935400D01*
X109046720Y-115921155D01*
X109059574Y-115898890D01*
X109059573Y-115898890D01*
X109059577Y-115898885D01*
X109100500Y-115746158D01*
X109100500Y-115588043D01*
X109100500Y-106400097D01*
X109120185Y-106333058D01*
X109136819Y-106312416D01*
X112212416Y-103236819D01*
X112273739Y-103203334D01*
X112300097Y-103200500D01*
X117913331Y-103200500D01*
X117913347Y-103200501D01*
X117920943Y-103200501D01*
X118079054Y-103200501D01*
X118079057Y-103200501D01*
X118231785Y-103159577D01*
X118298912Y-103120821D01*
X118368716Y-103080520D01*
X118443582Y-103005653D01*
X118449427Y-103001065D01*
X118475247Y-102990752D01*
X118499642Y-102977432D01*
X118507239Y-102977975D01*
X118514313Y-102975150D01*
X118541602Y-102980432D01*
G37*
%TD.AperFunction*%
%TA.AperFunction,Conductor*%
G36*
X84960120Y-100231706D02*
G01*
X84980762Y-100248340D01*
X86543009Y-101810587D01*
X86576494Y-101871910D01*
X86579328Y-101898268D01*
X86579328Y-102046510D01*
X86559643Y-102113549D01*
X86506839Y-102159304D01*
X86437681Y-102169248D01*
X86407876Y-102161071D01*
X86333501Y-102130264D01*
X86333489Y-102130261D01*
X86178845Y-102099500D01*
X86178842Y-102099500D01*
X86021158Y-102099500D01*
X86021155Y-102099500D01*
X85866510Y-102130261D01*
X85866498Y-102130264D01*
X85720827Y-102190602D01*
X85720814Y-102190609D01*
X85590622Y-102277602D01*
X85523945Y-102298480D01*
X85521731Y-102298500D01*
X74941940Y-102298500D01*
X74901019Y-102309464D01*
X74901019Y-102309465D01*
X74863751Y-102319451D01*
X74789214Y-102339423D01*
X74789209Y-102339426D01*
X74652290Y-102418475D01*
X74652282Y-102418481D01*
X74540478Y-102530286D01*
X60561681Y-116509082D01*
X60500358Y-116542567D01*
X60430666Y-116537583D01*
X60374733Y-116495711D01*
X60350316Y-116430247D01*
X60350000Y-116421401D01*
X60350000Y-116273753D01*
X60316757Y-116063872D01*
X60316757Y-116063869D01*
X60251095Y-115861782D01*
X60154624Y-115672449D01*
X60115270Y-115618282D01*
X60115269Y-115618282D01*
X59482962Y-116250589D01*
X59465925Y-116187007D01*
X59400099Y-116072993D01*
X59307007Y-115979901D01*
X59192993Y-115914075D01*
X59129407Y-115897036D01*
X59761716Y-115264728D01*
X59707547Y-115225373D01*
X59707547Y-115225372D01*
X59698500Y-115220763D01*
X59647706Y-115172788D01*
X59630912Y-115104966D01*
X59653451Y-115038832D01*
X59698508Y-114999793D01*
X59707816Y-114995051D01*
X59867760Y-114878846D01*
X59879786Y-114870109D01*
X59879788Y-114870106D01*
X59879792Y-114870104D01*
X60030104Y-114719792D01*
X60030106Y-114719788D01*
X60030109Y-114719786D01*
X60155048Y-114547820D01*
X60155047Y-114547820D01*
X60155051Y-114547816D01*
X60251557Y-114358412D01*
X60317246Y-114156243D01*
X60350500Y-113946287D01*
X60350500Y-113733713D01*
X60317246Y-113523757D01*
X60251557Y-113321588D01*
X60155051Y-113132184D01*
X60155049Y-113132181D01*
X60155048Y-113132179D01*
X60030109Y-112960213D01*
X59879786Y-112809890D01*
X59707820Y-112684951D01*
X59707115Y-112684591D01*
X59699054Y-112680485D01*
X59648259Y-112632512D01*
X59631463Y-112564692D01*
X59653999Y-112498556D01*
X59699054Y-112459515D01*
X59707816Y-112455051D01*
X59755774Y-112420208D01*
X59879786Y-112330109D01*
X59879788Y-112330106D01*
X59879792Y-112330104D01*
X60030104Y-112179792D01*
X60030106Y-112179788D01*
X60030109Y-112179786D01*
X60155048Y-112007820D01*
X60155047Y-112007820D01*
X60155051Y-112007816D01*
X60251557Y-111818412D01*
X60317246Y-111616243D01*
X60350500Y-111406287D01*
X60350500Y-111193713D01*
X60317246Y-110983757D01*
X60251557Y-110781588D01*
X60155051Y-110592184D01*
X60155049Y-110592181D01*
X60155048Y-110592179D01*
X60030109Y-110420213D01*
X59879786Y-110269890D01*
X59707817Y-110144949D01*
X59698504Y-110140204D01*
X59647707Y-110092230D01*
X59630912Y-110024409D01*
X59653449Y-109958274D01*
X59698507Y-109919232D01*
X59707555Y-109914622D01*
X59761716Y-109875270D01*
X59761717Y-109875270D01*
X59129409Y-109242962D01*
X59192993Y-109225925D01*
X59307007Y-109160099D01*
X59400099Y-109067007D01*
X59465925Y-108952993D01*
X59482962Y-108889408D01*
X60115270Y-109521717D01*
X60115270Y-109521716D01*
X60154622Y-109467554D01*
X60251095Y-109278217D01*
X60316757Y-109076130D01*
X60316757Y-109076127D01*
X60350000Y-108866246D01*
X60350000Y-108653753D01*
X60316757Y-108443872D01*
X60316757Y-108443869D01*
X60251095Y-108241782D01*
X60154624Y-108052449D01*
X60115270Y-107998282D01*
X60115269Y-107998282D01*
X59482962Y-108630590D01*
X59465925Y-108567007D01*
X59400099Y-108452993D01*
X59307007Y-108359901D01*
X59192993Y-108294075D01*
X59129407Y-108277036D01*
X59761716Y-107644728D01*
X59707547Y-107605373D01*
X59707547Y-107605372D01*
X59698500Y-107600763D01*
X59647706Y-107552788D01*
X59630912Y-107484966D01*
X59653451Y-107418832D01*
X59698508Y-107379793D01*
X59707816Y-107375051D01*
X59787007Y-107317515D01*
X59879786Y-107250109D01*
X59879788Y-107250106D01*
X59879792Y-107250104D01*
X60030104Y-107099792D01*
X60030106Y-107099788D01*
X60030109Y-107099786D01*
X60155048Y-106927820D01*
X60155047Y-106927820D01*
X60155051Y-106927816D01*
X60251557Y-106738412D01*
X60317246Y-106536243D01*
X60350500Y-106326287D01*
X60350500Y-106113713D01*
X60317246Y-105903757D01*
X60303506Y-105861473D01*
X60301512Y-105791635D01*
X60333755Y-105735478D01*
X65820896Y-100248340D01*
X65882219Y-100214855D01*
X65908577Y-100212021D01*
X84893081Y-100212021D01*
X84960120Y-100231706D01*
G37*
%TD.AperFunction*%
%TA.AperFunction,Conductor*%
G36*
X121115270Y-111521717D02*
G01*
X121115270Y-111521716D01*
X121154622Y-111467554D01*
X121251093Y-111278221D01*
X121257568Y-111258294D01*
X121297005Y-111200618D01*
X121361363Y-111173419D01*
X121430210Y-111185333D01*
X121481686Y-111232576D01*
X121499500Y-111296611D01*
X121499500Y-112761773D01*
X121479815Y-112828812D01*
X121427011Y-112874567D01*
X121357853Y-112884511D01*
X121294297Y-112855486D01*
X121257570Y-112800094D01*
X121251557Y-112781588D01*
X121155051Y-112592184D01*
X121155049Y-112592181D01*
X121155048Y-112592179D01*
X121030109Y-112420213D01*
X120879786Y-112269890D01*
X120707817Y-112144949D01*
X120698504Y-112140204D01*
X120647707Y-112092230D01*
X120630912Y-112024409D01*
X120653449Y-111958274D01*
X120698507Y-111919232D01*
X120707555Y-111914622D01*
X120761716Y-111875270D01*
X120761717Y-111875270D01*
X120129408Y-111242962D01*
X120192993Y-111225925D01*
X120307007Y-111160099D01*
X120400099Y-111067007D01*
X120465925Y-110952993D01*
X120482962Y-110889409D01*
X121115270Y-111521717D01*
G37*
%TD.AperFunction*%
%TA.AperFunction,Conductor*%
G36*
X121430211Y-108646949D02*
G01*
X121481687Y-108694193D01*
X121499500Y-108758226D01*
X121499500Y-110223388D01*
X121479815Y-110290427D01*
X121427011Y-110336182D01*
X121357853Y-110346126D01*
X121294297Y-110317101D01*
X121257569Y-110261706D01*
X121251095Y-110241782D01*
X121154624Y-110052449D01*
X121115270Y-109998282D01*
X121115269Y-109998282D01*
X120482962Y-110630590D01*
X120465925Y-110567007D01*
X120400099Y-110452993D01*
X120307007Y-110359901D01*
X120192993Y-110294075D01*
X120129409Y-110277037D01*
X120761716Y-109644728D01*
X120707547Y-109605373D01*
X120707547Y-109605372D01*
X120698500Y-109600763D01*
X120647706Y-109552788D01*
X120630912Y-109484966D01*
X120653451Y-109418832D01*
X120698508Y-109379793D01*
X120707816Y-109375051D01*
X120841098Y-109278217D01*
X120879786Y-109250109D01*
X120879788Y-109250106D01*
X120879792Y-109250104D01*
X121030104Y-109099792D01*
X121030106Y-109099788D01*
X121030109Y-109099786D01*
X121155048Y-108927820D01*
X121155047Y-108927820D01*
X121155051Y-108927816D01*
X121251557Y-108738412D01*
X121257569Y-108719907D01*
X121297006Y-108662232D01*
X121361365Y-108635034D01*
X121430211Y-108646949D01*
G37*
%TD.AperFunction*%
%TA.AperFunction,Conductor*%
G36*
X118728883Y-98664787D02*
G01*
X118744088Y-98664136D01*
X118761726Y-98674431D01*
X118781320Y-98680185D01*
X118792216Y-98692228D01*
X118804430Y-98699358D01*
X118824765Y-98728205D01*
X118844947Y-98767814D01*
X118844948Y-98767815D01*
X118969890Y-98939786D01*
X119120213Y-99090109D01*
X119292182Y-99215050D01*
X119300946Y-99219516D01*
X119351742Y-99267491D01*
X119368536Y-99335312D01*
X119345998Y-99401447D01*
X119300946Y-99440484D01*
X119292182Y-99444949D01*
X119120213Y-99569890D01*
X118969890Y-99720213D01*
X118844951Y-99892179D01*
X118748444Y-100081585D01*
X118682753Y-100283760D01*
X118649500Y-100493713D01*
X118649500Y-100706286D01*
X118682754Y-100916244D01*
X118682754Y-100916247D01*
X118696491Y-100958523D01*
X118698486Y-101028364D01*
X118666241Y-101084522D01*
X117787584Y-101963181D01*
X117726261Y-101996666D01*
X117699903Y-101999500D01*
X113181997Y-101999500D01*
X113114958Y-101979815D01*
X113069203Y-101927011D01*
X113059259Y-101857853D01*
X113088284Y-101794297D01*
X113094316Y-101787819D01*
X116185316Y-98696819D01*
X116246639Y-98663334D01*
X116272997Y-98660500D01*
X118714281Y-98660500D01*
X118728883Y-98664787D01*
G37*
%TD.AperFunction*%
%TA.AperFunction,Conductor*%
G36*
X81516885Y-92820185D02*
G01*
X81537527Y-92836819D01*
X85588526Y-96887818D01*
X85622011Y-96949141D01*
X85617027Y-97018833D01*
X85575155Y-97074766D01*
X85509691Y-97099183D01*
X85500845Y-97099499D01*
X85463404Y-97099499D01*
X85463388Y-97099500D01*
X60940097Y-97099500D01*
X60873058Y-97079815D01*
X60852416Y-97063181D01*
X60333757Y-96544522D01*
X60300272Y-96483199D01*
X60303507Y-96418523D01*
X60317246Y-96376243D01*
X60350500Y-96166287D01*
X60350500Y-95953713D01*
X60317246Y-95743757D01*
X60251557Y-95541588D01*
X60155051Y-95352184D01*
X60155049Y-95352181D01*
X60155048Y-95352179D01*
X60030109Y-95180213D01*
X60026947Y-95176512D01*
X60028334Y-95175326D01*
X59998592Y-95120858D01*
X60003576Y-95051166D01*
X60045448Y-94995233D01*
X60110912Y-94970816D01*
X60119758Y-94970500D01*
X69543331Y-94970500D01*
X69543347Y-94970501D01*
X69550943Y-94970501D01*
X69709054Y-94970501D01*
X69709057Y-94970501D01*
X69861785Y-94929577D01*
X69911904Y-94900639D01*
X69998716Y-94850520D01*
X70110520Y-94738716D01*
X70110520Y-94738714D01*
X70120728Y-94728507D01*
X70120730Y-94728504D01*
X70512318Y-94336916D01*
X70573641Y-94303431D01*
X70643333Y-94308415D01*
X70687680Y-94336916D01*
X71232284Y-94881520D01*
X71232286Y-94881521D01*
X71232290Y-94881524D01*
X71369209Y-94960573D01*
X71369212Y-94960575D01*
X71369216Y-94960577D01*
X71521943Y-95001501D01*
X71521945Y-95001501D01*
X71687654Y-95001501D01*
X71687670Y-95001500D01*
X77412331Y-95001500D01*
X77412347Y-95001501D01*
X77419943Y-95001501D01*
X77578054Y-95001501D01*
X77578057Y-95001501D01*
X77730785Y-94960577D01*
X77801932Y-94919500D01*
X77867716Y-94881520D01*
X77979520Y-94769716D01*
X77979520Y-94769714D01*
X77989724Y-94759511D01*
X77989727Y-94759506D01*
X79714662Y-93034572D01*
X79775983Y-93001089D01*
X79778150Y-93000638D01*
X79837988Y-92988735D01*
X79933497Y-92969737D01*
X80079179Y-92909394D01*
X80121425Y-92881166D01*
X80210875Y-92821398D01*
X80277553Y-92800520D01*
X80279766Y-92800500D01*
X81449846Y-92800500D01*
X81516885Y-92820185D01*
G37*
%TD.AperFunction*%
%TA.AperFunction,Conductor*%
G36*
X121442539Y-77520185D02*
G01*
X121488294Y-77572989D01*
X121499500Y-77624500D01*
X121499500Y-84823388D01*
X121479815Y-84890427D01*
X121427011Y-84936182D01*
X121357853Y-84946126D01*
X121294297Y-84917101D01*
X121257569Y-84861706D01*
X121251095Y-84841782D01*
X121154624Y-84652449D01*
X121115270Y-84598282D01*
X121115269Y-84598282D01*
X120482962Y-85230590D01*
X120465925Y-85167007D01*
X120400099Y-85052993D01*
X120307007Y-84959901D01*
X120192993Y-84894075D01*
X120129409Y-84877037D01*
X120761716Y-84244728D01*
X120707550Y-84205375D01*
X120518217Y-84108904D01*
X120316129Y-84043242D01*
X120106246Y-84010000D01*
X119893754Y-84010000D01*
X119683872Y-84043242D01*
X119683869Y-84043242D01*
X119481782Y-84108904D01*
X119292439Y-84205380D01*
X119238282Y-84244727D01*
X119238282Y-84244728D01*
X119870591Y-84877037D01*
X119807007Y-84894075D01*
X119692993Y-84959901D01*
X119599901Y-85052993D01*
X119534075Y-85167007D01*
X119517037Y-85230591D01*
X118884728Y-84598282D01*
X118884727Y-84598282D01*
X118845380Y-84652439D01*
X118748904Y-84841782D01*
X118683242Y-85043869D01*
X118683242Y-85043872D01*
X118650000Y-85253753D01*
X118650000Y-85466246D01*
X118683242Y-85676127D01*
X118683242Y-85676130D01*
X118748904Y-85878217D01*
X118845375Y-86067550D01*
X118884728Y-86121716D01*
X119517037Y-85489408D01*
X119534075Y-85552993D01*
X119599901Y-85667007D01*
X119692993Y-85760099D01*
X119807007Y-85825925D01*
X119870590Y-85842962D01*
X119238282Y-86475269D01*
X119238282Y-86475270D01*
X119292452Y-86514626D01*
X119292451Y-86514626D01*
X119301495Y-86519234D01*
X119352292Y-86567208D01*
X119369087Y-86635029D01*
X119346550Y-86701164D01*
X119301499Y-86740202D01*
X119292182Y-86744949D01*
X119120213Y-86869890D01*
X118969890Y-87020213D01*
X118844951Y-87192179D01*
X118748444Y-87381585D01*
X118682753Y-87583760D01*
X118649500Y-87793713D01*
X118649500Y-88006286D01*
X118678551Y-88189711D01*
X118682754Y-88216243D01*
X118739409Y-88390609D01*
X118748444Y-88418414D01*
X118844951Y-88607820D01*
X118969890Y-88779786D01*
X118988873Y-88798769D01*
X118993210Y-88806713D01*
X119000459Y-88812139D01*
X119009695Y-88836901D01*
X119022358Y-88860092D01*
X119021712Y-88869120D01*
X119024876Y-88877603D01*
X119019259Y-88903425D01*
X119017374Y-88929784D01*
X119011556Y-88938836D01*
X119010025Y-88945876D01*
X118988876Y-88974128D01*
X118898822Y-89064182D01*
X118837502Y-89097666D01*
X118811143Y-89100500D01*
X109318046Y-89100500D01*
X109251007Y-89080815D01*
X109205252Y-89028011D01*
X109196429Y-89000691D01*
X109174176Y-88888819D01*
X109169737Y-88866503D01*
X109169735Y-88866498D01*
X109109397Y-88720827D01*
X109109390Y-88720814D01*
X109021789Y-88589711D01*
X109021786Y-88589707D01*
X108910292Y-88478213D01*
X108910288Y-88478210D01*
X108779185Y-88390609D01*
X108779172Y-88390602D01*
X108633501Y-88330264D01*
X108633491Y-88330261D01*
X108478149Y-88299361D01*
X108416238Y-88266976D01*
X108414660Y-88265425D01*
X104387590Y-84238355D01*
X104387588Y-84238352D01*
X104268717Y-84119481D01*
X104268716Y-84119480D01*
X104181904Y-84069360D01*
X104181904Y-84069359D01*
X104181900Y-84069358D01*
X104131785Y-84040423D01*
X103979057Y-83999499D01*
X103820943Y-83999499D01*
X103813347Y-83999499D01*
X103813331Y-83999500D01*
X101979766Y-83999500D01*
X101912727Y-83979815D01*
X101910875Y-83978602D01*
X101779185Y-83890609D01*
X101779172Y-83890602D01*
X101633501Y-83830264D01*
X101633489Y-83830261D01*
X101478845Y-83799500D01*
X101478842Y-83799500D01*
X101321158Y-83799500D01*
X101321155Y-83799500D01*
X101166510Y-83830261D01*
X101166498Y-83830264D01*
X101020827Y-83890602D01*
X101020814Y-83890609D01*
X100889711Y-83978210D01*
X100889707Y-83978213D01*
X100778213Y-84089707D01*
X100778210Y-84089711D01*
X100690609Y-84220814D01*
X100690602Y-84220827D01*
X100630264Y-84366498D01*
X100630261Y-84366510D01*
X100599500Y-84521153D01*
X100599500Y-84678846D01*
X100630261Y-84833489D01*
X100630264Y-84833501D01*
X100690602Y-84979172D01*
X100690609Y-84979185D01*
X100778210Y-85110288D01*
X100778213Y-85110292D01*
X100889707Y-85221786D01*
X100889711Y-85221789D01*
X101020814Y-85309390D01*
X101020827Y-85309397D01*
X101142998Y-85360001D01*
X101166503Y-85369737D01*
X101319142Y-85400099D01*
X101321153Y-85400499D01*
X101321156Y-85400500D01*
X101321158Y-85400500D01*
X101478844Y-85400500D01*
X101478845Y-85400499D01*
X101633497Y-85369737D01*
X101779179Y-85309394D01*
X101801957Y-85294174D01*
X101910875Y-85221398D01*
X101977553Y-85200520D01*
X101979766Y-85200500D01*
X103599903Y-85200500D01*
X103666942Y-85220185D01*
X103687584Y-85236819D01*
X107339584Y-88888819D01*
X107373069Y-88950142D01*
X107368085Y-89019834D01*
X107326213Y-89075767D01*
X107260749Y-89100184D01*
X107251903Y-89100500D01*
X102541097Y-89100500D01*
X102474058Y-89080815D01*
X102453416Y-89064181D01*
X93951416Y-80562181D01*
X93917931Y-80500858D01*
X93922915Y-80431166D01*
X93964787Y-80375233D01*
X94030251Y-80350816D01*
X94039097Y-80350500D01*
X94186286Y-80350500D01*
X94186287Y-80350500D01*
X94396243Y-80317246D01*
X94598412Y-80251557D01*
X94787816Y-80155051D01*
X94842572Y-80115269D01*
X94959786Y-80030109D01*
X94959788Y-80030106D01*
X94959792Y-80030104D01*
X95110104Y-79879792D01*
X95110106Y-79879788D01*
X95110109Y-79879786D01*
X95195890Y-79761717D01*
X95235051Y-79707816D01*
X95239793Y-79698508D01*
X95287763Y-79647711D01*
X95355583Y-79630911D01*
X95421719Y-79653445D01*
X95460763Y-79698500D01*
X95465373Y-79707547D01*
X95504728Y-79761716D01*
X96137037Y-79129408D01*
X96154075Y-79192993D01*
X96219901Y-79307007D01*
X96312993Y-79400099D01*
X96427007Y-79465925D01*
X96490590Y-79482962D01*
X95858282Y-80115269D01*
X95858282Y-80115270D01*
X95912449Y-80154624D01*
X96101782Y-80251095D01*
X96303870Y-80316757D01*
X96513754Y-80350000D01*
X96726246Y-80350000D01*
X96936127Y-80316757D01*
X96936130Y-80316757D01*
X97138217Y-80251095D01*
X97327554Y-80154622D01*
X97381716Y-80115270D01*
X97381717Y-80115270D01*
X96749408Y-79482962D01*
X96812993Y-79465925D01*
X96927007Y-79400099D01*
X97020099Y-79307007D01*
X97085925Y-79192993D01*
X97102962Y-79129409D01*
X97735270Y-79761717D01*
X97735270Y-79761716D01*
X97774622Y-79707555D01*
X97779232Y-79698507D01*
X97827205Y-79647709D01*
X97895025Y-79630912D01*
X97961161Y-79653447D01*
X98000204Y-79698504D01*
X98004949Y-79707817D01*
X98129890Y-79879786D01*
X98280213Y-80030109D01*
X98452179Y-80155048D01*
X98452181Y-80155049D01*
X98452184Y-80155051D01*
X98641588Y-80251557D01*
X98843757Y-80317246D01*
X99053713Y-80350500D01*
X99053714Y-80350500D01*
X99266286Y-80350500D01*
X99266287Y-80350500D01*
X99476243Y-80317246D01*
X99678412Y-80251557D01*
X99867816Y-80155051D01*
X99922572Y-80115269D01*
X100039786Y-80030109D01*
X100039788Y-80030106D01*
X100039792Y-80030104D01*
X100190104Y-79879792D01*
X100190106Y-79879788D01*
X100190109Y-79879786D01*
X100315048Y-79707820D01*
X100315047Y-79707820D01*
X100315051Y-79707816D01*
X100319514Y-79699054D01*
X100367488Y-79648259D01*
X100435308Y-79631463D01*
X100501444Y-79653999D01*
X100540486Y-79699056D01*
X100544951Y-79707820D01*
X100669890Y-79879786D01*
X100820213Y-80030109D01*
X100992179Y-80155048D01*
X100992181Y-80155049D01*
X100992184Y-80155051D01*
X101181588Y-80251557D01*
X101383757Y-80317246D01*
X101593713Y-80350500D01*
X101593714Y-80350500D01*
X101806286Y-80350500D01*
X101806287Y-80350500D01*
X102016243Y-80317246D01*
X102218412Y-80251557D01*
X102407816Y-80155051D01*
X102462572Y-80115269D01*
X102579786Y-80030109D01*
X102579788Y-80030106D01*
X102579792Y-80030104D01*
X102730104Y-79879792D01*
X102730106Y-79879788D01*
X102730109Y-79879786D01*
X102855048Y-79707820D01*
X102855047Y-79707820D01*
X102855051Y-79707816D01*
X102859514Y-79699054D01*
X102907488Y-79648259D01*
X102975308Y-79631463D01*
X103041444Y-79653999D01*
X103080486Y-79699056D01*
X103084951Y-79707820D01*
X103209890Y-79879786D01*
X103360213Y-80030109D01*
X103532179Y-80155048D01*
X103532181Y-80155049D01*
X103532184Y-80155051D01*
X103721588Y-80251557D01*
X103923757Y-80317246D01*
X104133713Y-80350500D01*
X104133714Y-80350500D01*
X104346286Y-80350500D01*
X104346287Y-80350500D01*
X104556243Y-80317246D01*
X104758412Y-80251557D01*
X104947816Y-80155051D01*
X105002572Y-80115269D01*
X105119786Y-80030109D01*
X105119788Y-80030106D01*
X105119792Y-80030104D01*
X105270104Y-79879792D01*
X105270106Y-79879788D01*
X105270109Y-79879786D01*
X105395048Y-79707820D01*
X105395047Y-79707820D01*
X105395051Y-79707816D01*
X105399514Y-79699054D01*
X105447488Y-79648259D01*
X105515308Y-79631463D01*
X105581444Y-79653999D01*
X105620486Y-79699056D01*
X105624951Y-79707820D01*
X105749890Y-79879786D01*
X105900213Y-80030109D01*
X106072179Y-80155048D01*
X106072181Y-80155049D01*
X106072184Y-80155051D01*
X106261588Y-80251557D01*
X106463757Y-80317246D01*
X106673713Y-80350500D01*
X106673714Y-80350500D01*
X106886286Y-80350500D01*
X106886287Y-80350500D01*
X107096243Y-80317246D01*
X107298412Y-80251557D01*
X107487816Y-80155051D01*
X107542572Y-80115269D01*
X107659786Y-80030109D01*
X107659788Y-80030106D01*
X107659792Y-80030104D01*
X107810104Y-79879792D01*
X107810106Y-79879788D01*
X107810109Y-79879786D01*
X107935048Y-79707820D01*
X107935047Y-79707820D01*
X107935051Y-79707816D01*
X107939514Y-79699054D01*
X107987488Y-79648259D01*
X108055308Y-79631463D01*
X108121444Y-79653999D01*
X108160486Y-79699056D01*
X108164951Y-79707820D01*
X108289890Y-79879786D01*
X108440213Y-80030109D01*
X108612179Y-80155048D01*
X108612181Y-80155049D01*
X108612184Y-80155051D01*
X108801588Y-80251557D01*
X109003757Y-80317246D01*
X109213713Y-80350500D01*
X109213714Y-80350500D01*
X109426286Y-80350500D01*
X109426287Y-80350500D01*
X109636243Y-80317246D01*
X109838412Y-80251557D01*
X110027816Y-80155051D01*
X110082572Y-80115269D01*
X110199786Y-80030109D01*
X110199788Y-80030106D01*
X110199792Y-80030104D01*
X110350104Y-79879792D01*
X110350106Y-79879788D01*
X110350109Y-79879786D01*
X110475048Y-79707820D01*
X110475047Y-79707820D01*
X110475051Y-79707816D01*
X110479514Y-79699054D01*
X110527488Y-79648259D01*
X110595308Y-79631463D01*
X110661444Y-79653999D01*
X110700486Y-79699056D01*
X110704951Y-79707820D01*
X110829890Y-79879786D01*
X110980213Y-80030109D01*
X111152179Y-80155048D01*
X111152181Y-80155049D01*
X111152184Y-80155051D01*
X111341588Y-80251557D01*
X111543757Y-80317246D01*
X111753713Y-80350500D01*
X111753714Y-80350500D01*
X111966286Y-80350500D01*
X111966287Y-80350500D01*
X112176243Y-80317246D01*
X112378412Y-80251557D01*
X112567816Y-80155051D01*
X112654478Y-80092088D01*
X112739784Y-80030110D01*
X112739784Y-80030109D01*
X112739792Y-80030104D01*
X112853717Y-79916178D01*
X112915036Y-79882696D01*
X112984728Y-79887680D01*
X113040662Y-79929551D01*
X113057577Y-79960528D01*
X113106646Y-80092088D01*
X113106649Y-80092093D01*
X113192809Y-80207187D01*
X113192812Y-80207190D01*
X113307906Y-80293350D01*
X113307913Y-80293354D01*
X113442620Y-80343596D01*
X113442627Y-80343598D01*
X113502155Y-80349999D01*
X113502172Y-80350000D01*
X114150000Y-80350000D01*
X114150000Y-79433012D01*
X114207007Y-79465925D01*
X114334174Y-79500000D01*
X114465826Y-79500000D01*
X114592993Y-79465925D01*
X114650000Y-79433012D01*
X114650000Y-80350000D01*
X115297828Y-80350000D01*
X115297844Y-80349999D01*
X115357372Y-80343598D01*
X115357379Y-80343596D01*
X115492086Y-80293354D01*
X115492093Y-80293350D01*
X115607187Y-80207190D01*
X115607190Y-80207187D01*
X115693350Y-80092093D01*
X115693354Y-80092086D01*
X115743596Y-79957379D01*
X115743598Y-79957372D01*
X115749999Y-79897844D01*
X115750000Y-79897827D01*
X115750000Y-79893713D01*
X117649500Y-79893713D01*
X117649500Y-80106286D01*
X117680420Y-80301511D01*
X117682754Y-80316243D01*
X117742739Y-80500858D01*
X117748444Y-80518414D01*
X117844951Y-80707820D01*
X117969890Y-80879786D01*
X118120213Y-81030109D01*
X118292179Y-81155048D01*
X118292181Y-81155049D01*
X118292184Y-81155051D01*
X118481588Y-81251557D01*
X118683757Y-81317246D01*
X118893713Y-81350500D01*
X118893714Y-81350500D01*
X119106286Y-81350500D01*
X119106287Y-81350500D01*
X119316243Y-81317246D01*
X119518412Y-81251557D01*
X119707816Y-81155051D01*
X119729789Y-81139086D01*
X119879786Y-81030109D01*
X119879788Y-81030106D01*
X119879792Y-81030104D01*
X120030104Y-80879792D01*
X120030106Y-80879788D01*
X120030109Y-80879786D01*
X120155048Y-80707820D01*
X120155047Y-80707820D01*
X120155051Y-80707816D01*
X120251557Y-80518412D01*
X120317246Y-80316243D01*
X120350500Y-80106287D01*
X120350500Y-79893713D01*
X120317246Y-79683757D01*
X120251557Y-79481588D01*
X120155051Y-79292184D01*
X120155049Y-79292181D01*
X120155048Y-79292179D01*
X120030109Y-79120213D01*
X119879786Y-78969890D01*
X119707820Y-78844951D01*
X119518414Y-78748444D01*
X119518413Y-78748443D01*
X119518412Y-78748443D01*
X119316243Y-78682754D01*
X119316241Y-78682753D01*
X119316240Y-78682753D01*
X119154957Y-78657208D01*
X119106287Y-78649500D01*
X118893713Y-78649500D01*
X118845042Y-78657208D01*
X118683760Y-78682753D01*
X118481585Y-78748444D01*
X118292179Y-78844951D01*
X118120213Y-78969890D01*
X117969890Y-79120213D01*
X117844951Y-79292179D01*
X117748444Y-79481585D01*
X117682753Y-79683760D01*
X117649500Y-79893713D01*
X115750000Y-79893713D01*
X115750000Y-79250000D01*
X114833012Y-79250000D01*
X114865925Y-79192993D01*
X114900000Y-79065826D01*
X114900000Y-78934174D01*
X114865925Y-78807007D01*
X114833012Y-78750000D01*
X115750000Y-78750000D01*
X115750000Y-78102172D01*
X115749999Y-78102155D01*
X115743598Y-78042627D01*
X115743596Y-78042620D01*
X115693354Y-77907913D01*
X115693350Y-77907906D01*
X115607190Y-77792812D01*
X115607187Y-77792809D01*
X115514958Y-77723766D01*
X115473087Y-77667832D01*
X115468103Y-77598141D01*
X115501589Y-77536818D01*
X115562912Y-77503334D01*
X115589269Y-77500500D01*
X121375500Y-77500500D01*
X121442539Y-77520185D01*
G37*
%TD.AperFunction*%
%TA.AperFunction,Conductor*%
G36*
X121115270Y-86121717D02*
G01*
X121115270Y-86121716D01*
X121154622Y-86067554D01*
X121251093Y-85878221D01*
X121257568Y-85858294D01*
X121297005Y-85800618D01*
X121361363Y-85773419D01*
X121430210Y-85785333D01*
X121481686Y-85832576D01*
X121499500Y-85896611D01*
X121499500Y-87361773D01*
X121479815Y-87428812D01*
X121427011Y-87474567D01*
X121357853Y-87484511D01*
X121294297Y-87455486D01*
X121257570Y-87400094D01*
X121251557Y-87381588D01*
X121155051Y-87192184D01*
X121155049Y-87192181D01*
X121155048Y-87192179D01*
X121030109Y-87020213D01*
X120879786Y-86869890D01*
X120707817Y-86744949D01*
X120698504Y-86740204D01*
X120647707Y-86692230D01*
X120630912Y-86624409D01*
X120653449Y-86558274D01*
X120698507Y-86519232D01*
X120707555Y-86514622D01*
X120761716Y-86475270D01*
X120761717Y-86475270D01*
X120129408Y-85842962D01*
X120192993Y-85825925D01*
X120307007Y-85760099D01*
X120400099Y-85667007D01*
X120465925Y-85552993D01*
X120482962Y-85489409D01*
X121115270Y-86121717D01*
G37*
%TD.AperFunction*%
%TA.AperFunction,Conductor*%
G36*
X69417942Y-77520185D02*
G01*
X69463697Y-77572989D01*
X69473641Y-77642147D01*
X69444616Y-77705703D01*
X69438584Y-77712181D01*
X65280573Y-81870190D01*
X65219250Y-81903675D01*
X65154574Y-81900440D01*
X65112296Y-81886703D01*
X64972323Y-81864533D01*
X64902338Y-81853449D01*
X64689764Y-81853449D01*
X64641093Y-81861157D01*
X64479811Y-81886702D01*
X64277636Y-81952393D01*
X64088230Y-82048900D01*
X63916264Y-82173839D01*
X63765941Y-82324162D01*
X63640999Y-82496133D01*
X63640998Y-82496134D01*
X63620816Y-82535744D01*
X63572842Y-82586540D01*
X63510332Y-82603449D01*
X61410123Y-82603449D01*
X61387132Y-82600422D01*
X61387114Y-82600560D01*
X61379057Y-82599499D01*
X61220943Y-82599499D01*
X61106397Y-82630192D01*
X61068214Y-82640423D01*
X60931284Y-82719481D01*
X60931281Y-82719483D01*
X57712181Y-85938584D01*
X57650858Y-85972069D01*
X57581166Y-85967085D01*
X57525233Y-85925213D01*
X57500816Y-85859749D01*
X57500500Y-85850903D01*
X57500500Y-79893713D01*
X58649500Y-79893713D01*
X58649500Y-80106286D01*
X58680420Y-80301511D01*
X58682754Y-80316243D01*
X58742739Y-80500858D01*
X58748444Y-80518414D01*
X58844951Y-80707820D01*
X58969890Y-80879786D01*
X59120213Y-81030109D01*
X59292179Y-81155048D01*
X59292181Y-81155049D01*
X59292184Y-81155051D01*
X59481588Y-81251557D01*
X59683757Y-81317246D01*
X59893713Y-81350500D01*
X59893714Y-81350500D01*
X60106286Y-81350500D01*
X60106287Y-81350500D01*
X60316243Y-81317246D01*
X60518412Y-81251557D01*
X60707816Y-81155051D01*
X60729789Y-81139086D01*
X60879786Y-81030109D01*
X60879788Y-81030106D01*
X60879792Y-81030104D01*
X61030104Y-80879792D01*
X61030106Y-80879788D01*
X61030109Y-80879786D01*
X61155048Y-80707820D01*
X61155047Y-80707820D01*
X61155051Y-80707816D01*
X61251557Y-80518412D01*
X61317246Y-80316243D01*
X61350500Y-80106287D01*
X61350500Y-79893713D01*
X61317246Y-79683757D01*
X61251557Y-79481588D01*
X61155051Y-79292184D01*
X61155049Y-79292181D01*
X61155048Y-79292179D01*
X61030109Y-79120213D01*
X60879786Y-78969890D01*
X60707820Y-78844951D01*
X60518414Y-78748444D01*
X60518413Y-78748443D01*
X60518412Y-78748443D01*
X60316243Y-78682754D01*
X60316241Y-78682753D01*
X60316240Y-78682753D01*
X60154957Y-78657208D01*
X60106287Y-78649500D01*
X59893713Y-78649500D01*
X59845042Y-78657208D01*
X59683760Y-78682753D01*
X59481585Y-78748444D01*
X59292179Y-78844951D01*
X59120213Y-78969890D01*
X58969890Y-79120213D01*
X58844951Y-79292179D01*
X58748444Y-79481585D01*
X58682753Y-79683760D01*
X58649500Y-79893713D01*
X57500500Y-79893713D01*
X57500500Y-77624500D01*
X57520185Y-77557461D01*
X57572989Y-77511706D01*
X57624500Y-77500500D01*
X69350903Y-77500500D01*
X69417942Y-77520185D01*
G37*
%TD.AperFunction*%
%TA.AperFunction,Conductor*%
G36*
X96150427Y-77520185D02*
G01*
X96196182Y-77572989D01*
X96206126Y-77642147D01*
X96177101Y-77705703D01*
X96121706Y-77742431D01*
X96101782Y-77748904D01*
X95912439Y-77845380D01*
X95858282Y-77884727D01*
X95858282Y-77884728D01*
X96490591Y-78517037D01*
X96427007Y-78534075D01*
X96312993Y-78599901D01*
X96219901Y-78692993D01*
X96154075Y-78807007D01*
X96137037Y-78870591D01*
X95504728Y-78238282D01*
X95504727Y-78238282D01*
X95465380Y-78292440D01*
X95465376Y-78292446D01*
X95460760Y-78301505D01*
X95412781Y-78352297D01*
X95344959Y-78369087D01*
X95278826Y-78346543D01*
X95239794Y-78301493D01*
X95235051Y-78292184D01*
X95235049Y-78292181D01*
X95235048Y-78292179D01*
X95110109Y-78120213D01*
X94959786Y-77969890D01*
X94787820Y-77844951D01*
X94598414Y-77748444D01*
X94598413Y-77748443D01*
X94598412Y-77748443D01*
X94579907Y-77742430D01*
X94522232Y-77702994D01*
X94495034Y-77638635D01*
X94506949Y-77569789D01*
X94554193Y-77518313D01*
X94618226Y-77500500D01*
X96083388Y-77500500D01*
X96150427Y-77520185D01*
G37*
%TD.AperFunction*%
%TA.AperFunction,Conductor*%
G36*
X98688813Y-77520185D02*
G01*
X98734568Y-77572989D01*
X98744512Y-77642147D01*
X98715487Y-77705703D01*
X98660093Y-77742430D01*
X98641588Y-77748443D01*
X98641585Y-77748444D01*
X98452179Y-77844951D01*
X98280213Y-77969890D01*
X98129890Y-78120213D01*
X98004949Y-78292182D01*
X98000202Y-78301499D01*
X97952227Y-78352293D01*
X97884405Y-78369087D01*
X97818271Y-78346548D01*
X97779234Y-78301495D01*
X97774626Y-78292452D01*
X97735270Y-78238282D01*
X97735269Y-78238282D01*
X97102962Y-78870590D01*
X97085925Y-78807007D01*
X97020099Y-78692993D01*
X96927007Y-78599901D01*
X96812993Y-78534075D01*
X96749409Y-78517037D01*
X97381716Y-77884728D01*
X97327550Y-77845375D01*
X97138217Y-77748904D01*
X97118294Y-77742431D01*
X97060619Y-77702994D01*
X97033420Y-77638635D01*
X97045335Y-77569789D01*
X97092579Y-77518313D01*
X97156612Y-77500500D01*
X98621774Y-77500500D01*
X98688813Y-77520185D01*
G37*
%TD.AperFunction*%
%TD*%
M02*
