%TF.GenerationSoftware,KiCad,Pcbnew,9.0.6*%
%TF.CreationDate,2026-01-02T14:20:19-05:00*%
%TF.ProjectId,plimsoll,706c696d-736f-46c6-9c2e-6b696361645f,rev?*%
%TF.SameCoordinates,Original*%
%TF.FileFunction,Soldermask,Bot*%
%TF.FilePolarity,Negative*%
%FSLAX46Y46*%
G04 Gerber Fmt 4.6, Leading zero omitted, Abs format (unit mm)*
G04 Created by KiCad (PCBNEW 9.0.6) date 2026-01-02 14:20:19*
%MOMM*%
%LPD*%
G01*
G04 APERTURE LIST*
G04 Aperture macros list*
%AMHorizOval*
0 Thick line with rounded ends*
0 $1 width*
0 $2 $3 position (X,Y) of the first rounded end (center of the circle)*
0 $4 $5 position (X,Y) of the second rounded end (center of the circle)*
0 Add line between two ends*
20,1,$1,$2,$3,$4,$5,0*
0 Add two circle primitives to create the rounded ends*
1,1,$1,$2,$3*
1,1,$1,$4,$5*%
%AMRotRect*
0 Rectangle, with rotation*
0 The origin of the aperture is its center*
0 $1 length*
0 $2 width*
0 $3 Rotation angle, in degrees counterclockwise*
0 Add horizontal line*
21,1,$1,$2,0,0,$3*%
G04 Aperture macros list end*
%ADD10HorizOval,1.000000X-0.282843X0.282843X0.282843X-0.282843X0*%
%ADD11HorizOval,1.000000X-0.388909X0.388909X0.388909X-0.388909X0*%
%ADD12C,0.650000*%
%ADD13R,1.700000X1.700000*%
%ADD14C,1.700000*%
%ADD15RotRect,1.700000X1.700000X135.000000*%
%ADD16C,0.990600*%
%ADD17C,2.200000*%
G04 APERTURE END LIST*
D10*
%TO.C,J2*%
X118814841Y-132705438D03*
D11*
X115844993Y-129735590D03*
D10*
X112705438Y-138814841D03*
D11*
X109735590Y-135844993D03*
D12*
X115201525Y-131114448D03*
X111114448Y-135201525D03*
%TD*%
D13*
%TO.C,J3*%
X59000000Y-90980000D03*
D14*
X59000000Y-93520000D03*
X59000000Y-96060000D03*
X59000000Y-98600000D03*
X59000000Y-101140000D03*
X59000000Y-103680000D03*
X59000000Y-106220000D03*
X59000000Y-108760000D03*
X59000000Y-111300000D03*
X59000000Y-113840000D03*
X59000000Y-116380000D03*
X59000000Y-118920000D03*
X59000000Y-121460000D03*
X59000000Y-124000000D03*
X59000000Y-126540000D03*
X59000000Y-129080000D03*
X59000000Y-131620000D03*
X59000000Y-134160000D03*
%TD*%
%TO.C,J7*%
X71220000Y-79000000D03*
X73760000Y-79000000D03*
X76300000Y-79000000D03*
X78840000Y-79000000D03*
X81380000Y-79000000D03*
X83920000Y-79000000D03*
X86460000Y-79000000D03*
X89000000Y-79000000D03*
X91540000Y-79000000D03*
X94080000Y-79000000D03*
X96620000Y-79000000D03*
X99160000Y-79000000D03*
X101700000Y-79000000D03*
X104240000Y-79000000D03*
X106780000Y-79000000D03*
X109320000Y-79000000D03*
X111860000Y-79000000D03*
D13*
X114400000Y-79000000D03*
%TD*%
%TO.C,J6*%
X120000000Y-128540000D03*
D14*
X120000000Y-126000000D03*
X120000000Y-123460000D03*
X120000000Y-120920000D03*
X120000000Y-118380000D03*
X120000000Y-115840000D03*
X120000000Y-113300000D03*
X120000000Y-110760000D03*
X120000000Y-108220000D03*
X120000000Y-105680000D03*
X120000000Y-103140000D03*
X120000000Y-100600000D03*
X120000000Y-98060000D03*
X120000000Y-95520000D03*
X120000000Y-92980000D03*
X120000000Y-90440000D03*
X120000000Y-87900000D03*
X120000000Y-85360000D03*
%TD*%
D13*
%TO.C,J5*%
X65600000Y-140000000D03*
D14*
X68140000Y-140000000D03*
X70680000Y-140000000D03*
X73220000Y-140000000D03*
X75760000Y-140000000D03*
X78300000Y-140000000D03*
X80840000Y-140000000D03*
X83380000Y-140000000D03*
X85920000Y-140000000D03*
X88460000Y-140000000D03*
X91000000Y-140000000D03*
X93540000Y-140000000D03*
X96080000Y-140000000D03*
X98620000Y-140000000D03*
X101160000Y-140000000D03*
X103700000Y-140000000D03*
X106240000Y-140000000D03*
X108780000Y-140000000D03*
%TD*%
%TO.C,J4*%
X64796051Y-83203949D03*
D15*
X63000000Y-85000000D03*
%TD*%
D16*
%TO.C,J1*%
X72974472Y-89906369D03*
X71537631Y-88469528D03*
X68663949Y-92780051D03*
%TD*%
D17*
%TO.C,H4*%
X115300000Y-135200000D03*
%TD*%
%TO.C,H3*%
X60000000Y-139000000D03*
%TD*%
%TO.C,H2*%
X119000000Y-80000000D03*
%TD*%
%TO.C,H1*%
X60000000Y-80000000D03*
%TD*%
M02*
