%TF.GenerationSoftware,KiCad,Pcbnew,9.0.6*%
%TF.CreationDate,2026-01-02T14:20:19-05:00*%
%TF.ProjectId,plimsoll,706c696d-736f-46c6-9c2e-6b696361645f,rev?*%
%TF.SameCoordinates,Original*%
%TF.FileFunction,Legend,Top*%
%TF.FilePolarity,Positive*%
%FSLAX46Y46*%
G04 Gerber Fmt 4.6, Leading zero omitted, Abs format (unit mm)*
G04 Created by KiCad (PCBNEW 9.0.6) date 2026-01-02 14:20:19*
%MOMM*%
%LPD*%
G01*
G04 APERTURE LIST*
G04 Aperture macros list*
%AMRoundRect*
0 Rectangle with rounded corners*
0 $1 Rounding radius*
0 $2 $3 $4 $5 $6 $7 $8 $9 X,Y pos of 4 corners*
0 Add a 4 corners polygon primitive as box body*
4,1,4,$2,$3,$4,$5,$6,$7,$8,$9,$2,$3,0*
0 Add four circle primitives for the rounded corners*
1,1,$1+$1,$2,$3*
1,1,$1+$1,$4,$5*
1,1,$1+$1,$6,$7*
1,1,$1+$1,$8,$9*
0 Add four rect primitives between the rounded corners*
20,1,$1+$1,$2,$3,$4,$5,0*
20,1,$1+$1,$4,$5,$6,$7,0*
20,1,$1+$1,$6,$7,$8,$9,0*
20,1,$1+$1,$8,$9,$2,$3,0*%
%AMHorizOval*
0 Thick line with rounded ends*
0 $1 width*
0 $2 $3 position (X,Y) of the first rounded end (center of the circle)*
0 $4 $5 position (X,Y) of the second rounded end (center of the circle)*
0 Add line between two ends*
20,1,$1,$2,$3,$4,$5,0*
0 Add two circle primitives to create the rounded ends*
1,1,$1,$2,$3*
1,1,$1,$4,$5*%
%AMRotRect*
0 Rectangle, with rotation*
0 The origin of the aperture is its center*
0 $1 length*
0 $2 width*
0 $3 Rotation angle, in degrees counterclockwise*
0 Add horizontal line*
21,1,$1,$2,0,0,$3*%
%AMFreePoly0*
4,1,9,3.862500,-0.866500,0.737500,-0.866500,0.737500,-0.450000,-0.737500,-0.450000,-0.737500,0.450000,0.737500,0.450000,0.737500,0.866500,3.862500,0.866500,3.862500,-0.866500,3.862500,-0.866500,$1*%
G04 Aperture macros list end*
%ADD10C,0.125000*%
%ADD11C,0.150000*%
%ADD12C,0.120000*%
%ADD13HorizOval,1.000000X-0.282843X0.282843X0.282843X-0.282843X0*%
%ADD14HorizOval,1.000000X-0.388909X0.388909X0.388909X-0.388909X0*%
%ADD15RotRect,0.600000X1.240000X45.000000*%
%ADD16RotRect,0.300000X1.240000X45.000000*%
%ADD17C,0.650000*%
%ADD18RoundRect,0.250000X0.650000X-0.800000X0.650000X0.800000X-0.650000X0.800000X-0.650000X-0.800000X0*%
%ADD19R,1.700000X1.700000*%
%ADD20C,1.700000*%
%ADD21RoundRect,0.225000X-0.425000X-0.225000X0.425000X-0.225000X0.425000X0.225000X-0.425000X0.225000X0*%
%ADD22FreePoly0,0.000000*%
%ADD23RoundRect,0.075000X-0.700000X0.075000X-0.700000X-0.075000X0.700000X-0.075000X0.700000X0.075000X0*%
%ADD24RoundRect,0.075000X-0.075000X0.700000X-0.075000X-0.700000X0.075000X-0.700000X0.075000X0.700000X0*%
%ADD25RoundRect,0.150000X-0.587500X-0.150000X0.587500X-0.150000X0.587500X0.150000X-0.587500X0.150000X0*%
%ADD26RoundRect,0.150000X0.468458X-0.256326X-0.256326X0.468458X-0.468458X0.256326X0.256326X-0.468458X0*%
%ADD27R,1.050000X2.000000*%
%ADD28RoundRect,0.200000X-0.200000X-0.275000X0.200000X-0.275000X0.200000X0.275000X-0.200000X0.275000X0*%
%ADD29RoundRect,0.200000X0.275000X-0.200000X0.275000X0.200000X-0.275000X0.200000X-0.275000X-0.200000X0*%
%ADD30RoundRect,0.200000X0.200000X0.275000X-0.200000X0.275000X-0.200000X-0.275000X0.200000X-0.275000X0*%
%ADD31RoundRect,0.200000X-0.275000X0.200000X-0.275000X-0.200000X0.275000X-0.200000X0.275000X0.200000X0*%
%ADD32RoundRect,0.250000X-0.450000X0.262500X-0.450000X-0.262500X0.450000X-0.262500X0.450000X0.262500X0*%
%ADD33RotRect,1.700000X1.700000X135.000000*%
%ADD34C,0.787400*%
%ADD35C,0.990600*%
%ADD36C,2.200000*%
%ADD37RoundRect,0.243750X0.243750X0.456250X-0.243750X0.456250X-0.243750X-0.456250X0.243750X-0.456250X0*%
%ADD38RoundRect,0.225000X-0.250000X0.225000X-0.250000X-0.225000X0.250000X-0.225000X0.250000X0.225000X0*%
%ADD39RoundRect,0.225000X-0.225000X-0.250000X0.225000X-0.250000X0.225000X0.250000X-0.225000X0.250000X0*%
%ADD40RoundRect,0.225000X0.225000X0.250000X-0.225000X0.250000X-0.225000X-0.250000X0.225000X-0.250000X0*%
%ADD41RoundRect,0.225000X0.250000X-0.225000X0.250000X0.225000X-0.250000X0.225000X-0.250000X-0.225000X0*%
%ADD42RoundRect,0.250000X0.250000X0.475000X-0.250000X0.475000X-0.250000X-0.475000X0.250000X-0.475000X0*%
G04 APERTURE END LIST*
D10*
X73392115Y-94738397D02*
X74505808Y-93624704D01*
X74505808Y-93624704D02*
X74775182Y-93894078D01*
X74775182Y-93894078D02*
X74789493Y-94014454D01*
X74789493Y-94014454D02*
X74770132Y-94101159D01*
X74770132Y-94101159D02*
X74697737Y-94240897D01*
X74697737Y-94240897D02*
X74538638Y-94399996D01*
X74538638Y-94399996D02*
X74398900Y-94472390D01*
X74398900Y-94472390D02*
X74312196Y-94491751D01*
X74312196Y-94491751D02*
X74191819Y-94477441D01*
X74191819Y-94477441D02*
X73922445Y-94208067D01*
X74383748Y-95093634D02*
X74720466Y-95430352D01*
X73998207Y-95344489D02*
X75347602Y-94466498D01*
X75347602Y-94466498D02*
X74469611Y-95815893D01*
X75075703Y-96421985D02*
X74671642Y-96017924D01*
X74873672Y-96219954D02*
X75987365Y-95106261D01*
X75987365Y-95106261D02*
X75760923Y-95198017D01*
X75760923Y-95198017D02*
X75587513Y-95236739D01*
X75587513Y-95236739D02*
X75467137Y-95222429D01*
X76829159Y-95948055D02*
X76492442Y-95611337D01*
X76492442Y-95611337D02*
X75928440Y-96107996D01*
X75928440Y-96107996D02*
X76015145Y-96088634D01*
X76015145Y-96088634D02*
X76135521Y-96102945D01*
X76135521Y-96102945D02*
X76303880Y-96271304D01*
X76303880Y-96271304D02*
X76318190Y-96391680D01*
X76318190Y-96391680D02*
X76298829Y-96478385D01*
X76298829Y-96478385D02*
X76226435Y-96618123D01*
X76226435Y-96618123D02*
X75961270Y-96883288D01*
X75961270Y-96883288D02*
X75821532Y-96955682D01*
X75821532Y-96955682D02*
X75734827Y-96975043D01*
X75734827Y-96975043D02*
X75614451Y-96960733D01*
X75614451Y-96960733D02*
X75446092Y-96792374D01*
X75446092Y-96792374D02*
X75431782Y-96671998D01*
X75431782Y-96671998D02*
X75451143Y-96585293D01*
X78560729Y-97785691D02*
X78546419Y-97665315D01*
X78546419Y-97665315D02*
X78445404Y-97564299D01*
X78445404Y-97564299D02*
X78291355Y-97516317D01*
X78291355Y-97516317D02*
X78117946Y-97555040D01*
X78117946Y-97555040D02*
X77978208Y-97627434D01*
X77978208Y-97627434D02*
X77732404Y-97805894D01*
X77732404Y-97805894D02*
X77573305Y-97964993D01*
X77573305Y-97964993D02*
X77394845Y-98210797D01*
X77394845Y-98210797D02*
X77322451Y-98350535D01*
X77322451Y-98350535D02*
X77283728Y-98523944D01*
X77283728Y-98523944D02*
X77331711Y-98677992D01*
X77331711Y-98677992D02*
X77399054Y-98745336D01*
X77399054Y-98745336D02*
X77553102Y-98793318D01*
X77553102Y-98793318D02*
X77639807Y-98773957D01*
X77639807Y-98773957D02*
X78011038Y-98402726D01*
X78011038Y-98402726D02*
X77876351Y-98268039D01*
X77836787Y-99183069D02*
X78950480Y-98069376D01*
X78950480Y-98069376D02*
X78240848Y-99587130D01*
X78240848Y-99587130D02*
X79354541Y-98473437D01*
X78577565Y-99923847D02*
X79691258Y-98810154D01*
X79691258Y-98810154D02*
X79859617Y-98978513D01*
X79859617Y-98978513D02*
X79907599Y-99132561D01*
X79907599Y-99132561D02*
X79868877Y-99305971D01*
X79868877Y-99305971D02*
X79796483Y-99445708D01*
X79796483Y-99445708D02*
X79618022Y-99691512D01*
X79618022Y-99691512D02*
X79458923Y-99850611D01*
X79458923Y-99850611D02*
X79213120Y-100029071D01*
X79213120Y-100029071D02*
X79073382Y-100101466D01*
X79073382Y-100101466D02*
X78899972Y-100140188D01*
X78899972Y-100140188D02*
X78745924Y-100092206D01*
X78745924Y-100092206D02*
X78577565Y-99923847D01*
X71079744Y-95905928D02*
X71127726Y-96059976D01*
X71127726Y-96059976D02*
X71296085Y-96228335D01*
X71296085Y-96228335D02*
X71416462Y-96242646D01*
X71416462Y-96242646D02*
X71503166Y-96223284D01*
X71503166Y-96223284D02*
X71642904Y-96150890D01*
X71642904Y-96150890D02*
X71748970Y-96044824D01*
X71748970Y-96044824D02*
X71821365Y-95905086D01*
X71821365Y-95905086D02*
X71840726Y-95818382D01*
X71840726Y-95818382D02*
X71826415Y-95698005D01*
X71826415Y-95698005D02*
X71744761Y-95510285D01*
X71744761Y-95510285D02*
X71730451Y-95389909D01*
X71730451Y-95389909D02*
X71749812Y-95303204D01*
X71749812Y-95303204D02*
X71822206Y-95163466D01*
X71822206Y-95163466D02*
X71928272Y-95057400D01*
X71928272Y-95057400D02*
X72068010Y-94985006D01*
X72068010Y-94985006D02*
X72154715Y-94965644D01*
X72154715Y-94965644D02*
X72275091Y-94979955D01*
X72275091Y-94979955D02*
X72443450Y-95148314D01*
X72443450Y-95148314D02*
X72491432Y-95302362D01*
X72780168Y-95485031D02*
X71834833Y-96767083D01*
X71834833Y-96767083D02*
X72765015Y-96106275D01*
X72765015Y-96106275D02*
X72104207Y-97036457D01*
X72104207Y-97036457D02*
X73386259Y-96091123D01*
X73052067Y-97772185D02*
X72965362Y-97791546D01*
X72965362Y-97791546D02*
X72811314Y-97743564D01*
X72811314Y-97743564D02*
X72743970Y-97676220D01*
X72743970Y-97676220D02*
X72695988Y-97522172D01*
X72695988Y-97522172D02*
X72734711Y-97348763D01*
X72734711Y-97348763D02*
X72807105Y-97209025D01*
X72807105Y-97209025D02*
X72985565Y-96963221D01*
X72985565Y-96963221D02*
X73144664Y-96804122D01*
X73144664Y-96804122D02*
X73390468Y-96625662D01*
X73390468Y-96625662D02*
X73530206Y-96553267D01*
X73530206Y-96553267D02*
X73703615Y-96514545D01*
X73703615Y-96514545D02*
X73857664Y-96562527D01*
X73857664Y-96562527D02*
X73925007Y-96629871D01*
X73925007Y-96629871D02*
X73972989Y-96783919D01*
X73972989Y-96783919D02*
X73953628Y-96870624D01*
X73585764Y-98518014D02*
X73249047Y-98181297D01*
X73249047Y-98181297D02*
X74362740Y-97067603D01*
X73821467Y-98753717D02*
X74935160Y-97640023D01*
X74225528Y-99157778D02*
X74558878Y-98218336D01*
X75339221Y-98044084D02*
X74298764Y-98276419D01*
X76010131Y-100942381D02*
X76304759Y-100176348D01*
X75606070Y-100538320D02*
X76719763Y-99424627D01*
X76719763Y-99424627D02*
X76989137Y-99694001D01*
X76989137Y-99694001D02*
X77003447Y-99814377D01*
X77003447Y-99814377D02*
X76984086Y-99901082D01*
X76984086Y-99901082D02*
X76911692Y-100040820D01*
X76911692Y-100040820D02*
X76752593Y-100199919D01*
X76752593Y-100199919D02*
X76612855Y-100272313D01*
X76612855Y-100272313D02*
X76526150Y-100291674D01*
X76526150Y-100291674D02*
X76405774Y-100277364D01*
X76405774Y-100277364D02*
X76136400Y-100007990D01*
X76332538Y-101158722D02*
X76380520Y-101312770D01*
X76380520Y-101312770D02*
X76548879Y-101481129D01*
X76548879Y-101481129D02*
X76669255Y-101495439D01*
X76669255Y-101495439D02*
X76755960Y-101476078D01*
X76755960Y-101476078D02*
X76895698Y-101403684D01*
X76895698Y-101403684D02*
X77001764Y-101297618D01*
X77001764Y-101297618D02*
X77074158Y-101157880D01*
X77074158Y-101157880D02*
X77093519Y-101071175D01*
X77093519Y-101071175D02*
X77079209Y-100950799D01*
X77079209Y-100950799D02*
X76997555Y-100763079D01*
X76997555Y-100763079D02*
X76983244Y-100642702D01*
X76983244Y-100642702D02*
X77002606Y-100555997D01*
X77002606Y-100555997D02*
X77075000Y-100416260D01*
X77075000Y-100416260D02*
X77181066Y-100310194D01*
X77181066Y-100310194D02*
X77320804Y-100237799D01*
X77320804Y-100237799D02*
X77407508Y-100218438D01*
X77407508Y-100218438D02*
X77527885Y-100232749D01*
X77527885Y-100232749D02*
X77696244Y-100401107D01*
X77696244Y-100401107D02*
X77744226Y-100555156D01*
X77999290Y-100704153D02*
X78403351Y-101108214D01*
X77087627Y-102019877D02*
X78201320Y-100906184D01*
X69286760Y-97698912D02*
X69334742Y-97852960D01*
X69334742Y-97852960D02*
X69503101Y-98021319D01*
X69503101Y-98021319D02*
X69623478Y-98035630D01*
X69623478Y-98035630D02*
X69710182Y-98016268D01*
X69710182Y-98016268D02*
X69849920Y-97943874D01*
X69849920Y-97943874D02*
X69955986Y-97837808D01*
X69955986Y-97837808D02*
X70028381Y-97698070D01*
X70028381Y-97698070D02*
X70047742Y-97611366D01*
X70047742Y-97611366D02*
X70033431Y-97490989D01*
X70033431Y-97490989D02*
X69951777Y-97303269D01*
X69951777Y-97303269D02*
X69937467Y-97182893D01*
X69937467Y-97182893D02*
X69956828Y-97096188D01*
X69956828Y-97096188D02*
X70029222Y-96956450D01*
X70029222Y-96956450D02*
X70135288Y-96850384D01*
X70135288Y-96850384D02*
X70275026Y-96777990D01*
X70275026Y-96777990D02*
X70361731Y-96758628D01*
X70361731Y-96758628D02*
X70482107Y-96772939D01*
X70482107Y-96772939D02*
X70650466Y-96941298D01*
X70650466Y-96941298D02*
X70698448Y-97095346D01*
X70987184Y-97278015D02*
X70041849Y-98560067D01*
X70041849Y-98560067D02*
X70972031Y-97899259D01*
X70972031Y-97899259D02*
X70311223Y-98829441D01*
X70311223Y-98829441D02*
X71593275Y-97884107D01*
X70748956Y-99267174D02*
X71862649Y-98153481D01*
X71862649Y-98153481D02*
X72031008Y-98321839D01*
X72031008Y-98321839D02*
X72078990Y-98475888D01*
X72078990Y-98475888D02*
X72040268Y-98649297D01*
X72040268Y-98649297D02*
X71967873Y-98789035D01*
X71967873Y-98789035D02*
X71789413Y-99034839D01*
X71789413Y-99034839D02*
X71630314Y-99193938D01*
X71630314Y-99193938D02*
X71384510Y-99372398D01*
X71384510Y-99372398D02*
X71244772Y-99444792D01*
X71244772Y-99444792D02*
X71071363Y-99483515D01*
X71071363Y-99483515D02*
X70917315Y-99435533D01*
X70917315Y-99435533D02*
X70748956Y-99267174D01*
X71456063Y-99974281D02*
X72569756Y-98860587D01*
X73041160Y-99331992D02*
X73175847Y-99466679D01*
X73175847Y-99466679D02*
X73190158Y-99587055D01*
X73190158Y-99587055D02*
X73151435Y-99760465D01*
X73151435Y-99760465D02*
X72972975Y-100006268D01*
X72972975Y-100006268D02*
X72601744Y-100377500D01*
X72601744Y-100377500D02*
X72355940Y-100555960D01*
X72355940Y-100555960D02*
X72182530Y-100594682D01*
X72182530Y-100594682D02*
X72062154Y-100580372D01*
X72062154Y-100580372D02*
X71927467Y-100445685D01*
X71927467Y-100445685D02*
X71913156Y-100325308D01*
X71913156Y-100325308D02*
X71951879Y-100151899D01*
X71951879Y-100151899D02*
X72130339Y-99906095D01*
X72130339Y-99906095D02*
X72501570Y-99534864D01*
X72501570Y-99534864D02*
X72747374Y-99356404D01*
X72747374Y-99356404D02*
X72920784Y-99317681D01*
X72920784Y-99317681D02*
X73041160Y-99331992D01*
X74657404Y-100948236D02*
X75095137Y-101385969D01*
X75095137Y-101385969D02*
X74435171Y-101574531D01*
X74435171Y-101574531D02*
X74536186Y-101675546D01*
X74536186Y-101675546D02*
X74550497Y-101795922D01*
X74550497Y-101795922D02*
X74531135Y-101882627D01*
X74531135Y-101882627D02*
X74458741Y-102022365D01*
X74458741Y-102022365D02*
X74193576Y-102287530D01*
X74193576Y-102287530D02*
X74053838Y-102359924D01*
X74053838Y-102359924D02*
X73967134Y-102379285D01*
X73967134Y-102379285D02*
X73846757Y-102364975D01*
X73846757Y-102364975D02*
X73644727Y-102162944D01*
X73644727Y-102162944D02*
X73630416Y-102042568D01*
X73630416Y-102042568D02*
X73649777Y-101955863D01*
X74959608Y-101992902D02*
X74385505Y-102903723D01*
X74385505Y-102903723D02*
X75296326Y-102329620D01*
X75869588Y-102160419D02*
X76307320Y-102598152D01*
X76307320Y-102598152D02*
X75647354Y-102786714D01*
X75647354Y-102786714D02*
X75748369Y-102887729D01*
X75748369Y-102887729D02*
X75762680Y-103008106D01*
X75762680Y-103008106D02*
X75743319Y-103094810D01*
X75743319Y-103094810D02*
X75670924Y-103234548D01*
X75670924Y-103234548D02*
X75405759Y-103499713D01*
X75405759Y-103499713D02*
X75266022Y-103572107D01*
X75266022Y-103572107D02*
X75179317Y-103591469D01*
X75179317Y-103591469D02*
X75058940Y-103577158D01*
X75058940Y-103577158D02*
X74856910Y-103375128D01*
X74856910Y-103375128D02*
X74842599Y-103254751D01*
X74842599Y-103254751D02*
X74861961Y-103168046D01*
X61844140Y-90194496D02*
X61748902Y-90119496D01*
X61748902Y-90119496D02*
X61606045Y-90119496D01*
X61606045Y-90119496D02*
X61463188Y-90194496D01*
X61463188Y-90194496D02*
X61367950Y-90344496D01*
X61367950Y-90344496D02*
X61320331Y-90494496D01*
X61320331Y-90494496D02*
X61272712Y-90794496D01*
X61272712Y-90794496D02*
X61272712Y-91019496D01*
X61272712Y-91019496D02*
X61320331Y-91319496D01*
X61320331Y-91319496D02*
X61367950Y-91469496D01*
X61367950Y-91469496D02*
X61463188Y-91619496D01*
X61463188Y-91619496D02*
X61606045Y-91694496D01*
X61606045Y-91694496D02*
X61701283Y-91694496D01*
X61701283Y-91694496D02*
X61844140Y-91619496D01*
X61844140Y-91619496D02*
X61891759Y-91544496D01*
X61891759Y-91544496D02*
X61891759Y-91019496D01*
X61891759Y-91019496D02*
X61701283Y-91019496D01*
X62320331Y-91694496D02*
X62320331Y-90119496D01*
X62320331Y-90119496D02*
X62891759Y-91694496D01*
X62891759Y-91694496D02*
X62891759Y-90119496D01*
X63367950Y-91694496D02*
X63367950Y-90119496D01*
X63367950Y-90119496D02*
X63606045Y-90119496D01*
X63606045Y-90119496D02*
X63748902Y-90194496D01*
X63748902Y-90194496D02*
X63844140Y-90344496D01*
X63844140Y-90344496D02*
X63891759Y-90494496D01*
X63891759Y-90494496D02*
X63939378Y-90794496D01*
X63939378Y-90794496D02*
X63939378Y-91019496D01*
X63939378Y-91019496D02*
X63891759Y-91319496D01*
X63891759Y-91319496D02*
X63844140Y-91469496D01*
X63844140Y-91469496D02*
X63748902Y-91619496D01*
X63748902Y-91619496D02*
X63606045Y-91694496D01*
X63606045Y-91694496D02*
X63367950Y-91694496D01*
X61225093Y-92655158D02*
X61844140Y-92655158D01*
X61844140Y-92655158D02*
X61510807Y-93255158D01*
X61510807Y-93255158D02*
X61653664Y-93255158D01*
X61653664Y-93255158D02*
X61748902Y-93330158D01*
X61748902Y-93330158D02*
X61796521Y-93405158D01*
X61796521Y-93405158D02*
X61844140Y-93555158D01*
X61844140Y-93555158D02*
X61844140Y-93930158D01*
X61844140Y-93930158D02*
X61796521Y-94080158D01*
X61796521Y-94080158D02*
X61748902Y-94155158D01*
X61748902Y-94155158D02*
X61653664Y-94230158D01*
X61653664Y-94230158D02*
X61367950Y-94230158D01*
X61367950Y-94230158D02*
X61272712Y-94155158D01*
X61272712Y-94155158D02*
X61225093Y-94080158D01*
X62129855Y-92655158D02*
X62463188Y-94230158D01*
X62463188Y-94230158D02*
X62796521Y-92655158D01*
X63034617Y-92655158D02*
X63653664Y-92655158D01*
X63653664Y-92655158D02*
X63320331Y-93255158D01*
X63320331Y-93255158D02*
X63463188Y-93255158D01*
X63463188Y-93255158D02*
X63558426Y-93330158D01*
X63558426Y-93330158D02*
X63606045Y-93405158D01*
X63606045Y-93405158D02*
X63653664Y-93555158D01*
X63653664Y-93555158D02*
X63653664Y-93930158D01*
X63653664Y-93930158D02*
X63606045Y-94080158D01*
X63606045Y-94080158D02*
X63558426Y-94155158D01*
X63558426Y-94155158D02*
X63463188Y-94230158D01*
X63463188Y-94230158D02*
X63177474Y-94230158D01*
X63177474Y-94230158D02*
X63082236Y-94155158D01*
X63082236Y-94155158D02*
X63034617Y-94080158D01*
X61320331Y-96765820D02*
X61320331Y-95190820D01*
X61320331Y-95190820D02*
X61701283Y-95190820D01*
X61701283Y-95190820D02*
X61796521Y-95265820D01*
X61796521Y-95265820D02*
X61844140Y-95340820D01*
X61844140Y-95340820D02*
X61891759Y-95490820D01*
X61891759Y-95490820D02*
X61891759Y-95715820D01*
X61891759Y-95715820D02*
X61844140Y-95865820D01*
X61844140Y-95865820D02*
X61796521Y-95940820D01*
X61796521Y-95940820D02*
X61701283Y-96015820D01*
X61701283Y-96015820D02*
X61320331Y-96015820D01*
X62891759Y-96615820D02*
X62844140Y-96690820D01*
X62844140Y-96690820D02*
X62701283Y-96765820D01*
X62701283Y-96765820D02*
X62606045Y-96765820D01*
X62606045Y-96765820D02*
X62463188Y-96690820D01*
X62463188Y-96690820D02*
X62367950Y-96540820D01*
X62367950Y-96540820D02*
X62320331Y-96390820D01*
X62320331Y-96390820D02*
X62272712Y-96090820D01*
X62272712Y-96090820D02*
X62272712Y-95865820D01*
X62272712Y-95865820D02*
X62320331Y-95565820D01*
X62320331Y-95565820D02*
X62367950Y-95415820D01*
X62367950Y-95415820D02*
X62463188Y-95265820D01*
X62463188Y-95265820D02*
X62606045Y-95190820D01*
X62606045Y-95190820D02*
X62701283Y-95190820D01*
X62701283Y-95190820D02*
X62844140Y-95265820D01*
X62844140Y-95265820D02*
X62891759Y-95340820D01*
X63510807Y-95190820D02*
X63606045Y-95190820D01*
X63606045Y-95190820D02*
X63701283Y-95265820D01*
X63701283Y-95265820D02*
X63748902Y-95340820D01*
X63748902Y-95340820D02*
X63796521Y-95490820D01*
X63796521Y-95490820D02*
X63844140Y-95790820D01*
X63844140Y-95790820D02*
X63844140Y-96165820D01*
X63844140Y-96165820D02*
X63796521Y-96465820D01*
X63796521Y-96465820D02*
X63748902Y-96615820D01*
X63748902Y-96615820D02*
X63701283Y-96690820D01*
X63701283Y-96690820D02*
X63606045Y-96765820D01*
X63606045Y-96765820D02*
X63510807Y-96765820D01*
X63510807Y-96765820D02*
X63415569Y-96690820D01*
X63415569Y-96690820D02*
X63367950Y-96615820D01*
X63367950Y-96615820D02*
X63320331Y-96465820D01*
X63320331Y-96465820D02*
X63272712Y-96165820D01*
X63272712Y-96165820D02*
X63272712Y-95790820D01*
X63272712Y-95790820D02*
X63320331Y-95490820D01*
X63320331Y-95490820D02*
X63367950Y-95340820D01*
X63367950Y-95340820D02*
X63415569Y-95265820D01*
X63415569Y-95265820D02*
X63510807Y-95190820D01*
X61320331Y-99301482D02*
X61320331Y-97726482D01*
X61320331Y-97726482D02*
X61701283Y-97726482D01*
X61701283Y-97726482D02*
X61796521Y-97801482D01*
X61796521Y-97801482D02*
X61844140Y-97876482D01*
X61844140Y-97876482D02*
X61891759Y-98026482D01*
X61891759Y-98026482D02*
X61891759Y-98251482D01*
X61891759Y-98251482D02*
X61844140Y-98401482D01*
X61844140Y-98401482D02*
X61796521Y-98476482D01*
X61796521Y-98476482D02*
X61701283Y-98551482D01*
X61701283Y-98551482D02*
X61320331Y-98551482D01*
X62891759Y-99151482D02*
X62844140Y-99226482D01*
X62844140Y-99226482D02*
X62701283Y-99301482D01*
X62701283Y-99301482D02*
X62606045Y-99301482D01*
X62606045Y-99301482D02*
X62463188Y-99226482D01*
X62463188Y-99226482D02*
X62367950Y-99076482D01*
X62367950Y-99076482D02*
X62320331Y-98926482D01*
X62320331Y-98926482D02*
X62272712Y-98626482D01*
X62272712Y-98626482D02*
X62272712Y-98401482D01*
X62272712Y-98401482D02*
X62320331Y-98101482D01*
X62320331Y-98101482D02*
X62367950Y-97951482D01*
X62367950Y-97951482D02*
X62463188Y-97801482D01*
X62463188Y-97801482D02*
X62606045Y-97726482D01*
X62606045Y-97726482D02*
X62701283Y-97726482D01*
X62701283Y-97726482D02*
X62844140Y-97801482D01*
X62844140Y-97801482D02*
X62891759Y-97876482D01*
X63844140Y-99301482D02*
X63272712Y-99301482D01*
X63558426Y-99301482D02*
X63558426Y-97726482D01*
X63558426Y-97726482D02*
X63463188Y-97951482D01*
X63463188Y-97951482D02*
X63367950Y-98101482D01*
X63367950Y-98101482D02*
X63272712Y-98176482D01*
X61320331Y-101837144D02*
X61320331Y-100262144D01*
X61320331Y-100262144D02*
X61701283Y-100262144D01*
X61701283Y-100262144D02*
X61796521Y-100337144D01*
X61796521Y-100337144D02*
X61844140Y-100412144D01*
X61844140Y-100412144D02*
X61891759Y-100562144D01*
X61891759Y-100562144D02*
X61891759Y-100787144D01*
X61891759Y-100787144D02*
X61844140Y-100937144D01*
X61844140Y-100937144D02*
X61796521Y-101012144D01*
X61796521Y-101012144D02*
X61701283Y-101087144D01*
X61701283Y-101087144D02*
X61320331Y-101087144D01*
X62891759Y-101687144D02*
X62844140Y-101762144D01*
X62844140Y-101762144D02*
X62701283Y-101837144D01*
X62701283Y-101837144D02*
X62606045Y-101837144D01*
X62606045Y-101837144D02*
X62463188Y-101762144D01*
X62463188Y-101762144D02*
X62367950Y-101612144D01*
X62367950Y-101612144D02*
X62320331Y-101462144D01*
X62320331Y-101462144D02*
X62272712Y-101162144D01*
X62272712Y-101162144D02*
X62272712Y-100937144D01*
X62272712Y-100937144D02*
X62320331Y-100637144D01*
X62320331Y-100637144D02*
X62367950Y-100487144D01*
X62367950Y-100487144D02*
X62463188Y-100337144D01*
X62463188Y-100337144D02*
X62606045Y-100262144D01*
X62606045Y-100262144D02*
X62701283Y-100262144D01*
X62701283Y-100262144D02*
X62844140Y-100337144D01*
X62844140Y-100337144D02*
X62891759Y-100412144D01*
X63272712Y-100412144D02*
X63320331Y-100337144D01*
X63320331Y-100337144D02*
X63415569Y-100262144D01*
X63415569Y-100262144D02*
X63653664Y-100262144D01*
X63653664Y-100262144D02*
X63748902Y-100337144D01*
X63748902Y-100337144D02*
X63796521Y-100412144D01*
X63796521Y-100412144D02*
X63844140Y-100562144D01*
X63844140Y-100562144D02*
X63844140Y-100712144D01*
X63844140Y-100712144D02*
X63796521Y-100937144D01*
X63796521Y-100937144D02*
X63225093Y-101837144D01*
X63225093Y-101837144D02*
X63844140Y-101837144D01*
X61320331Y-104372806D02*
X61320331Y-102797806D01*
X61320331Y-102797806D02*
X61701283Y-102797806D01*
X61701283Y-102797806D02*
X61796521Y-102872806D01*
X61796521Y-102872806D02*
X61844140Y-102947806D01*
X61844140Y-102947806D02*
X61891759Y-103097806D01*
X61891759Y-103097806D02*
X61891759Y-103322806D01*
X61891759Y-103322806D02*
X61844140Y-103472806D01*
X61844140Y-103472806D02*
X61796521Y-103547806D01*
X61796521Y-103547806D02*
X61701283Y-103622806D01*
X61701283Y-103622806D02*
X61320331Y-103622806D01*
X62891759Y-104222806D02*
X62844140Y-104297806D01*
X62844140Y-104297806D02*
X62701283Y-104372806D01*
X62701283Y-104372806D02*
X62606045Y-104372806D01*
X62606045Y-104372806D02*
X62463188Y-104297806D01*
X62463188Y-104297806D02*
X62367950Y-104147806D01*
X62367950Y-104147806D02*
X62320331Y-103997806D01*
X62320331Y-103997806D02*
X62272712Y-103697806D01*
X62272712Y-103697806D02*
X62272712Y-103472806D01*
X62272712Y-103472806D02*
X62320331Y-103172806D01*
X62320331Y-103172806D02*
X62367950Y-103022806D01*
X62367950Y-103022806D02*
X62463188Y-102872806D01*
X62463188Y-102872806D02*
X62606045Y-102797806D01*
X62606045Y-102797806D02*
X62701283Y-102797806D01*
X62701283Y-102797806D02*
X62844140Y-102872806D01*
X62844140Y-102872806D02*
X62891759Y-102947806D01*
X63225093Y-102797806D02*
X63844140Y-102797806D01*
X63844140Y-102797806D02*
X63510807Y-103397806D01*
X63510807Y-103397806D02*
X63653664Y-103397806D01*
X63653664Y-103397806D02*
X63748902Y-103472806D01*
X63748902Y-103472806D02*
X63796521Y-103547806D01*
X63796521Y-103547806D02*
X63844140Y-103697806D01*
X63844140Y-103697806D02*
X63844140Y-104072806D01*
X63844140Y-104072806D02*
X63796521Y-104222806D01*
X63796521Y-104222806D02*
X63748902Y-104297806D01*
X63748902Y-104297806D02*
X63653664Y-104372806D01*
X63653664Y-104372806D02*
X63367950Y-104372806D01*
X63367950Y-104372806D02*
X63272712Y-104297806D01*
X63272712Y-104297806D02*
X63225093Y-104222806D01*
X61320331Y-106908468D02*
X61320331Y-105333468D01*
X61320331Y-105333468D02*
X61701283Y-105333468D01*
X61701283Y-105333468D02*
X61796521Y-105408468D01*
X61796521Y-105408468D02*
X61844140Y-105483468D01*
X61844140Y-105483468D02*
X61891759Y-105633468D01*
X61891759Y-105633468D02*
X61891759Y-105858468D01*
X61891759Y-105858468D02*
X61844140Y-106008468D01*
X61844140Y-106008468D02*
X61796521Y-106083468D01*
X61796521Y-106083468D02*
X61701283Y-106158468D01*
X61701283Y-106158468D02*
X61320331Y-106158468D01*
X62272712Y-106458468D02*
X62748902Y-106458468D01*
X62177474Y-106908468D02*
X62510807Y-105333468D01*
X62510807Y-105333468D02*
X62844140Y-106908468D01*
X63367950Y-105333468D02*
X63463188Y-105333468D01*
X63463188Y-105333468D02*
X63558426Y-105408468D01*
X63558426Y-105408468D02*
X63606045Y-105483468D01*
X63606045Y-105483468D02*
X63653664Y-105633468D01*
X63653664Y-105633468D02*
X63701283Y-105933468D01*
X63701283Y-105933468D02*
X63701283Y-106308468D01*
X63701283Y-106308468D02*
X63653664Y-106608468D01*
X63653664Y-106608468D02*
X63606045Y-106758468D01*
X63606045Y-106758468D02*
X63558426Y-106833468D01*
X63558426Y-106833468D02*
X63463188Y-106908468D01*
X63463188Y-106908468D02*
X63367950Y-106908468D01*
X63367950Y-106908468D02*
X63272712Y-106833468D01*
X63272712Y-106833468D02*
X63225093Y-106758468D01*
X63225093Y-106758468D02*
X63177474Y-106608468D01*
X63177474Y-106608468D02*
X63129855Y-106308468D01*
X63129855Y-106308468D02*
X63129855Y-105933468D01*
X63129855Y-105933468D02*
X63177474Y-105633468D01*
X63177474Y-105633468D02*
X63225093Y-105483468D01*
X63225093Y-105483468D02*
X63272712Y-105408468D01*
X63272712Y-105408468D02*
X63367950Y-105333468D01*
X61844140Y-107944130D02*
X61748902Y-107869130D01*
X61748902Y-107869130D02*
X61606045Y-107869130D01*
X61606045Y-107869130D02*
X61463188Y-107944130D01*
X61463188Y-107944130D02*
X61367950Y-108094130D01*
X61367950Y-108094130D02*
X61320331Y-108244130D01*
X61320331Y-108244130D02*
X61272712Y-108544130D01*
X61272712Y-108544130D02*
X61272712Y-108769130D01*
X61272712Y-108769130D02*
X61320331Y-109069130D01*
X61320331Y-109069130D02*
X61367950Y-109219130D01*
X61367950Y-109219130D02*
X61463188Y-109369130D01*
X61463188Y-109369130D02*
X61606045Y-109444130D01*
X61606045Y-109444130D02*
X61701283Y-109444130D01*
X61701283Y-109444130D02*
X61844140Y-109369130D01*
X61844140Y-109369130D02*
X61891759Y-109294130D01*
X61891759Y-109294130D02*
X61891759Y-108769130D01*
X61891759Y-108769130D02*
X61701283Y-108769130D01*
X62320331Y-109444130D02*
X62320331Y-107869130D01*
X62320331Y-107869130D02*
X62891759Y-109444130D01*
X62891759Y-109444130D02*
X62891759Y-107869130D01*
X63367950Y-109444130D02*
X63367950Y-107869130D01*
X63367950Y-107869130D02*
X63606045Y-107869130D01*
X63606045Y-107869130D02*
X63748902Y-107944130D01*
X63748902Y-107944130D02*
X63844140Y-108094130D01*
X63844140Y-108094130D02*
X63891759Y-108244130D01*
X63891759Y-108244130D02*
X63939378Y-108544130D01*
X63939378Y-108544130D02*
X63939378Y-108769130D01*
X63939378Y-108769130D02*
X63891759Y-109069130D01*
X63891759Y-109069130D02*
X63844140Y-109219130D01*
X63844140Y-109219130D02*
X63748902Y-109369130D01*
X63748902Y-109369130D02*
X63606045Y-109444130D01*
X63606045Y-109444130D02*
X63367950Y-109444130D01*
X61225093Y-110404792D02*
X61844140Y-110404792D01*
X61844140Y-110404792D02*
X61510807Y-111004792D01*
X61510807Y-111004792D02*
X61653664Y-111004792D01*
X61653664Y-111004792D02*
X61748902Y-111079792D01*
X61748902Y-111079792D02*
X61796521Y-111154792D01*
X61796521Y-111154792D02*
X61844140Y-111304792D01*
X61844140Y-111304792D02*
X61844140Y-111679792D01*
X61844140Y-111679792D02*
X61796521Y-111829792D01*
X61796521Y-111829792D02*
X61748902Y-111904792D01*
X61748902Y-111904792D02*
X61653664Y-111979792D01*
X61653664Y-111979792D02*
X61367950Y-111979792D01*
X61367950Y-111979792D02*
X61272712Y-111904792D01*
X61272712Y-111904792D02*
X61225093Y-111829792D01*
X62177474Y-110929792D02*
X62415569Y-111979792D01*
X62415569Y-111979792D02*
X62653664Y-110929792D01*
X62939379Y-110404792D02*
X63558426Y-110404792D01*
X63558426Y-110404792D02*
X63225093Y-111004792D01*
X63225093Y-111004792D02*
X63367950Y-111004792D01*
X63367950Y-111004792D02*
X63463188Y-111079792D01*
X63463188Y-111079792D02*
X63510807Y-111154792D01*
X63510807Y-111154792D02*
X63558426Y-111304792D01*
X63558426Y-111304792D02*
X63558426Y-111679792D01*
X63558426Y-111679792D02*
X63510807Y-111829792D01*
X63510807Y-111829792D02*
X63463188Y-111904792D01*
X63463188Y-111904792D02*
X63367950Y-111979792D01*
X63367950Y-111979792D02*
X63082236Y-111979792D01*
X63082236Y-111979792D02*
X62986998Y-111904792D01*
X62986998Y-111904792D02*
X62939379Y-111829792D01*
X61320331Y-113915454D02*
X62082236Y-113915454D01*
X61701283Y-114515454D02*
X61701283Y-113315454D01*
X63034616Y-112940454D02*
X62558426Y-112940454D01*
X62558426Y-112940454D02*
X62510807Y-113690454D01*
X62510807Y-113690454D02*
X62558426Y-113615454D01*
X62558426Y-113615454D02*
X62653664Y-113540454D01*
X62653664Y-113540454D02*
X62891759Y-113540454D01*
X62891759Y-113540454D02*
X62986997Y-113615454D01*
X62986997Y-113615454D02*
X63034616Y-113690454D01*
X63034616Y-113690454D02*
X63082235Y-113840454D01*
X63082235Y-113840454D02*
X63082235Y-114215454D01*
X63082235Y-114215454D02*
X63034616Y-114365454D01*
X63034616Y-114365454D02*
X62986997Y-114440454D01*
X62986997Y-114440454D02*
X62891759Y-114515454D01*
X62891759Y-114515454D02*
X62653664Y-114515454D01*
X62653664Y-114515454D02*
X62558426Y-114440454D01*
X62558426Y-114440454D02*
X62510807Y-114365454D01*
X61844140Y-115551116D02*
X61748902Y-115476116D01*
X61748902Y-115476116D02*
X61606045Y-115476116D01*
X61606045Y-115476116D02*
X61463188Y-115551116D01*
X61463188Y-115551116D02*
X61367950Y-115701116D01*
X61367950Y-115701116D02*
X61320331Y-115851116D01*
X61320331Y-115851116D02*
X61272712Y-116151116D01*
X61272712Y-116151116D02*
X61272712Y-116376116D01*
X61272712Y-116376116D02*
X61320331Y-116676116D01*
X61320331Y-116676116D02*
X61367950Y-116826116D01*
X61367950Y-116826116D02*
X61463188Y-116976116D01*
X61463188Y-116976116D02*
X61606045Y-117051116D01*
X61606045Y-117051116D02*
X61701283Y-117051116D01*
X61701283Y-117051116D02*
X61844140Y-116976116D01*
X61844140Y-116976116D02*
X61891759Y-116901116D01*
X61891759Y-116901116D02*
X61891759Y-116376116D01*
X61891759Y-116376116D02*
X61701283Y-116376116D01*
X62320331Y-117051116D02*
X62320331Y-115476116D01*
X62320331Y-115476116D02*
X62891759Y-117051116D01*
X62891759Y-117051116D02*
X62891759Y-115476116D01*
X63367950Y-117051116D02*
X63367950Y-115476116D01*
X63367950Y-115476116D02*
X63606045Y-115476116D01*
X63606045Y-115476116D02*
X63748902Y-115551116D01*
X63748902Y-115551116D02*
X63844140Y-115701116D01*
X63844140Y-115701116D02*
X63891759Y-115851116D01*
X63891759Y-115851116D02*
X63939378Y-116151116D01*
X63939378Y-116151116D02*
X63939378Y-116376116D01*
X63939378Y-116376116D02*
X63891759Y-116676116D01*
X63891759Y-116676116D02*
X63844140Y-116826116D01*
X63844140Y-116826116D02*
X63748902Y-116976116D01*
X63748902Y-116976116D02*
X63606045Y-117051116D01*
X63606045Y-117051116D02*
X63367950Y-117051116D01*
X61320331Y-119586778D02*
X61320331Y-118011778D01*
X61320331Y-118011778D02*
X61701283Y-118011778D01*
X61701283Y-118011778D02*
X61796521Y-118086778D01*
X61796521Y-118086778D02*
X61844140Y-118161778D01*
X61844140Y-118161778D02*
X61891759Y-118311778D01*
X61891759Y-118311778D02*
X61891759Y-118536778D01*
X61891759Y-118536778D02*
X61844140Y-118686778D01*
X61844140Y-118686778D02*
X61796521Y-118761778D01*
X61796521Y-118761778D02*
X61701283Y-118836778D01*
X61701283Y-118836778D02*
X61320331Y-118836778D01*
X62272712Y-119136778D02*
X62748902Y-119136778D01*
X62177474Y-119586778D02*
X62510807Y-118011778D01*
X62510807Y-118011778D02*
X62844140Y-119586778D01*
X63701283Y-119586778D02*
X63129855Y-119586778D01*
X63415569Y-119586778D02*
X63415569Y-118011778D01*
X63415569Y-118011778D02*
X63320331Y-118236778D01*
X63320331Y-118236778D02*
X63225093Y-118386778D01*
X63225093Y-118386778D02*
X63129855Y-118461778D01*
X61320331Y-122122440D02*
X61320331Y-120547440D01*
X61320331Y-120547440D02*
X61701283Y-120547440D01*
X61701283Y-120547440D02*
X61796521Y-120622440D01*
X61796521Y-120622440D02*
X61844140Y-120697440D01*
X61844140Y-120697440D02*
X61891759Y-120847440D01*
X61891759Y-120847440D02*
X61891759Y-121072440D01*
X61891759Y-121072440D02*
X61844140Y-121222440D01*
X61844140Y-121222440D02*
X61796521Y-121297440D01*
X61796521Y-121297440D02*
X61701283Y-121372440D01*
X61701283Y-121372440D02*
X61320331Y-121372440D01*
X62272712Y-121672440D02*
X62748902Y-121672440D01*
X62177474Y-122122440D02*
X62510807Y-120547440D01*
X62510807Y-120547440D02*
X62844140Y-122122440D01*
X63129855Y-120697440D02*
X63177474Y-120622440D01*
X63177474Y-120622440D02*
X63272712Y-120547440D01*
X63272712Y-120547440D02*
X63510807Y-120547440D01*
X63510807Y-120547440D02*
X63606045Y-120622440D01*
X63606045Y-120622440D02*
X63653664Y-120697440D01*
X63653664Y-120697440D02*
X63701283Y-120847440D01*
X63701283Y-120847440D02*
X63701283Y-120997440D01*
X63701283Y-120997440D02*
X63653664Y-121222440D01*
X63653664Y-121222440D02*
X63082236Y-122122440D01*
X63082236Y-122122440D02*
X63701283Y-122122440D01*
X61320331Y-124658102D02*
X61320331Y-123083102D01*
X61320331Y-123083102D02*
X61701283Y-123083102D01*
X61701283Y-123083102D02*
X61796521Y-123158102D01*
X61796521Y-123158102D02*
X61844140Y-123233102D01*
X61844140Y-123233102D02*
X61891759Y-123383102D01*
X61891759Y-123383102D02*
X61891759Y-123608102D01*
X61891759Y-123608102D02*
X61844140Y-123758102D01*
X61844140Y-123758102D02*
X61796521Y-123833102D01*
X61796521Y-123833102D02*
X61701283Y-123908102D01*
X61701283Y-123908102D02*
X61320331Y-123908102D01*
X62272712Y-124208102D02*
X62748902Y-124208102D01*
X62177474Y-124658102D02*
X62510807Y-123083102D01*
X62510807Y-123083102D02*
X62844140Y-124658102D01*
X63082236Y-123083102D02*
X63701283Y-123083102D01*
X63701283Y-123083102D02*
X63367950Y-123683102D01*
X63367950Y-123683102D02*
X63510807Y-123683102D01*
X63510807Y-123683102D02*
X63606045Y-123758102D01*
X63606045Y-123758102D02*
X63653664Y-123833102D01*
X63653664Y-123833102D02*
X63701283Y-123983102D01*
X63701283Y-123983102D02*
X63701283Y-124358102D01*
X63701283Y-124358102D02*
X63653664Y-124508102D01*
X63653664Y-124508102D02*
X63606045Y-124583102D01*
X63606045Y-124583102D02*
X63510807Y-124658102D01*
X63510807Y-124658102D02*
X63225093Y-124658102D01*
X63225093Y-124658102D02*
X63129855Y-124583102D01*
X63129855Y-124583102D02*
X63082236Y-124508102D01*
X61320331Y-127193764D02*
X61320331Y-125618764D01*
X61320331Y-125618764D02*
X61701283Y-125618764D01*
X61701283Y-125618764D02*
X61796521Y-125693764D01*
X61796521Y-125693764D02*
X61844140Y-125768764D01*
X61844140Y-125768764D02*
X61891759Y-125918764D01*
X61891759Y-125918764D02*
X61891759Y-126143764D01*
X61891759Y-126143764D02*
X61844140Y-126293764D01*
X61844140Y-126293764D02*
X61796521Y-126368764D01*
X61796521Y-126368764D02*
X61701283Y-126443764D01*
X61701283Y-126443764D02*
X61320331Y-126443764D01*
X62272712Y-126743764D02*
X62748902Y-126743764D01*
X62177474Y-127193764D02*
X62510807Y-125618764D01*
X62510807Y-125618764D02*
X62844140Y-127193764D01*
X63606045Y-126143764D02*
X63606045Y-127193764D01*
X63367950Y-125543764D02*
X63129855Y-126668764D01*
X63129855Y-126668764D02*
X63748902Y-126668764D01*
X61320331Y-129729426D02*
X61320331Y-128154426D01*
X61320331Y-128154426D02*
X61701283Y-128154426D01*
X61701283Y-128154426D02*
X61796521Y-128229426D01*
X61796521Y-128229426D02*
X61844140Y-128304426D01*
X61844140Y-128304426D02*
X61891759Y-128454426D01*
X61891759Y-128454426D02*
X61891759Y-128679426D01*
X61891759Y-128679426D02*
X61844140Y-128829426D01*
X61844140Y-128829426D02*
X61796521Y-128904426D01*
X61796521Y-128904426D02*
X61701283Y-128979426D01*
X61701283Y-128979426D02*
X61320331Y-128979426D01*
X62272712Y-129279426D02*
X62748902Y-129279426D01*
X62177474Y-129729426D02*
X62510807Y-128154426D01*
X62510807Y-128154426D02*
X62844140Y-129729426D01*
X63653664Y-128154426D02*
X63177474Y-128154426D01*
X63177474Y-128154426D02*
X63129855Y-128904426D01*
X63129855Y-128904426D02*
X63177474Y-128829426D01*
X63177474Y-128829426D02*
X63272712Y-128754426D01*
X63272712Y-128754426D02*
X63510807Y-128754426D01*
X63510807Y-128754426D02*
X63606045Y-128829426D01*
X63606045Y-128829426D02*
X63653664Y-128904426D01*
X63653664Y-128904426D02*
X63701283Y-129054426D01*
X63701283Y-129054426D02*
X63701283Y-129429426D01*
X63701283Y-129429426D02*
X63653664Y-129579426D01*
X63653664Y-129579426D02*
X63606045Y-129654426D01*
X63606045Y-129654426D02*
X63510807Y-129729426D01*
X63510807Y-129729426D02*
X63272712Y-129729426D01*
X63272712Y-129729426D02*
X63177474Y-129654426D01*
X63177474Y-129654426D02*
X63129855Y-129579426D01*
X61225093Y-130690088D02*
X61844140Y-130690088D01*
X61844140Y-130690088D02*
X61510807Y-131290088D01*
X61510807Y-131290088D02*
X61653664Y-131290088D01*
X61653664Y-131290088D02*
X61748902Y-131365088D01*
X61748902Y-131365088D02*
X61796521Y-131440088D01*
X61796521Y-131440088D02*
X61844140Y-131590088D01*
X61844140Y-131590088D02*
X61844140Y-131965088D01*
X61844140Y-131965088D02*
X61796521Y-132115088D01*
X61796521Y-132115088D02*
X61748902Y-132190088D01*
X61748902Y-132190088D02*
X61653664Y-132265088D01*
X61653664Y-132265088D02*
X61367950Y-132265088D01*
X61367950Y-132265088D02*
X61272712Y-132190088D01*
X61272712Y-132190088D02*
X61225093Y-132115088D01*
X62177474Y-131215088D02*
X62415569Y-132265088D01*
X62415569Y-132265088D02*
X62653664Y-131215088D01*
X62939379Y-130690088D02*
X63558426Y-130690088D01*
X63558426Y-130690088D02*
X63225093Y-131290088D01*
X63225093Y-131290088D02*
X63367950Y-131290088D01*
X63367950Y-131290088D02*
X63463188Y-131365088D01*
X63463188Y-131365088D02*
X63510807Y-131440088D01*
X63510807Y-131440088D02*
X63558426Y-131590088D01*
X63558426Y-131590088D02*
X63558426Y-131965088D01*
X63558426Y-131965088D02*
X63510807Y-132115088D01*
X63510807Y-132115088D02*
X63463188Y-132190088D01*
X63463188Y-132190088D02*
X63367950Y-132265088D01*
X63367950Y-132265088D02*
X63082236Y-132265088D01*
X63082236Y-132265088D02*
X62986998Y-132190088D01*
X62986998Y-132190088D02*
X62939379Y-132115088D01*
X61844140Y-133300750D02*
X61748902Y-133225750D01*
X61748902Y-133225750D02*
X61606045Y-133225750D01*
X61606045Y-133225750D02*
X61463188Y-133300750D01*
X61463188Y-133300750D02*
X61367950Y-133450750D01*
X61367950Y-133450750D02*
X61320331Y-133600750D01*
X61320331Y-133600750D02*
X61272712Y-133900750D01*
X61272712Y-133900750D02*
X61272712Y-134125750D01*
X61272712Y-134125750D02*
X61320331Y-134425750D01*
X61320331Y-134425750D02*
X61367950Y-134575750D01*
X61367950Y-134575750D02*
X61463188Y-134725750D01*
X61463188Y-134725750D02*
X61606045Y-134800750D01*
X61606045Y-134800750D02*
X61701283Y-134800750D01*
X61701283Y-134800750D02*
X61844140Y-134725750D01*
X61844140Y-134725750D02*
X61891759Y-134650750D01*
X61891759Y-134650750D02*
X61891759Y-134125750D01*
X61891759Y-134125750D02*
X61701283Y-134125750D01*
X62320331Y-134800750D02*
X62320331Y-133225750D01*
X62320331Y-133225750D02*
X62891759Y-134800750D01*
X62891759Y-134800750D02*
X62891759Y-133225750D01*
X63367950Y-134800750D02*
X63367950Y-133225750D01*
X63367950Y-133225750D02*
X63606045Y-133225750D01*
X63606045Y-133225750D02*
X63748902Y-133300750D01*
X63748902Y-133300750D02*
X63844140Y-133450750D01*
X63844140Y-133450750D02*
X63891759Y-133600750D01*
X63891759Y-133600750D02*
X63939378Y-133900750D01*
X63939378Y-133900750D02*
X63939378Y-134125750D01*
X63939378Y-134125750D02*
X63891759Y-134425750D01*
X63891759Y-134425750D02*
X63844140Y-134575750D01*
X63844140Y-134575750D02*
X63748902Y-134725750D01*
X63748902Y-134725750D02*
X63606045Y-134800750D01*
X63606045Y-134800750D02*
X63367950Y-134800750D01*
X115305504Y-81444140D02*
X115380504Y-81348902D01*
X115380504Y-81348902D02*
X115380504Y-81206045D01*
X115380504Y-81206045D02*
X115305504Y-81063188D01*
X115305504Y-81063188D02*
X115155504Y-80967950D01*
X115155504Y-80967950D02*
X115005504Y-80920331D01*
X115005504Y-80920331D02*
X114705504Y-80872712D01*
X114705504Y-80872712D02*
X114480504Y-80872712D01*
X114480504Y-80872712D02*
X114180504Y-80920331D01*
X114180504Y-80920331D02*
X114030504Y-80967950D01*
X114030504Y-80967950D02*
X113880504Y-81063188D01*
X113880504Y-81063188D02*
X113805504Y-81206045D01*
X113805504Y-81206045D02*
X113805504Y-81301283D01*
X113805504Y-81301283D02*
X113880504Y-81444140D01*
X113880504Y-81444140D02*
X113955504Y-81491759D01*
X113955504Y-81491759D02*
X114480504Y-81491759D01*
X114480504Y-81491759D02*
X114480504Y-81301283D01*
X113805504Y-81920331D02*
X115380504Y-81920331D01*
X115380504Y-81920331D02*
X113805504Y-82491759D01*
X113805504Y-82491759D02*
X115380504Y-82491759D01*
X113805504Y-82967950D02*
X115380504Y-82967950D01*
X115380504Y-82967950D02*
X115380504Y-83206045D01*
X115380504Y-83206045D02*
X115305504Y-83348902D01*
X115305504Y-83348902D02*
X115155504Y-83444140D01*
X115155504Y-83444140D02*
X115005504Y-83491759D01*
X115005504Y-83491759D02*
X114705504Y-83539378D01*
X114705504Y-83539378D02*
X114480504Y-83539378D01*
X114480504Y-83539378D02*
X114180504Y-83491759D01*
X114180504Y-83491759D02*
X114030504Y-83444140D01*
X114030504Y-83444140D02*
X113880504Y-83348902D01*
X113880504Y-83348902D02*
X113805504Y-83206045D01*
X113805504Y-83206045D02*
X113805504Y-82967950D01*
X112844842Y-80825093D02*
X112844842Y-81444140D01*
X112844842Y-81444140D02*
X112244842Y-81110807D01*
X112244842Y-81110807D02*
X112244842Y-81253664D01*
X112244842Y-81253664D02*
X112169842Y-81348902D01*
X112169842Y-81348902D02*
X112094842Y-81396521D01*
X112094842Y-81396521D02*
X111944842Y-81444140D01*
X111944842Y-81444140D02*
X111569842Y-81444140D01*
X111569842Y-81444140D02*
X111419842Y-81396521D01*
X111419842Y-81396521D02*
X111344842Y-81348902D01*
X111344842Y-81348902D02*
X111269842Y-81253664D01*
X111269842Y-81253664D02*
X111269842Y-80967950D01*
X111269842Y-80967950D02*
X111344842Y-80872712D01*
X111344842Y-80872712D02*
X111419842Y-80825093D01*
X112844842Y-81729855D02*
X111269842Y-82063188D01*
X111269842Y-82063188D02*
X112844842Y-82396521D01*
X112844842Y-82634617D02*
X112844842Y-83253664D01*
X112844842Y-83253664D02*
X112244842Y-82920331D01*
X112244842Y-82920331D02*
X112244842Y-83063188D01*
X112244842Y-83063188D02*
X112169842Y-83158426D01*
X112169842Y-83158426D02*
X112094842Y-83206045D01*
X112094842Y-83206045D02*
X111944842Y-83253664D01*
X111944842Y-83253664D02*
X111569842Y-83253664D01*
X111569842Y-83253664D02*
X111419842Y-83206045D01*
X111419842Y-83206045D02*
X111344842Y-83158426D01*
X111344842Y-83158426D02*
X111269842Y-83063188D01*
X111269842Y-83063188D02*
X111269842Y-82777474D01*
X111269842Y-82777474D02*
X111344842Y-82682236D01*
X111344842Y-82682236D02*
X111419842Y-82634617D01*
X108734180Y-80920331D02*
X110309180Y-80920331D01*
X110309180Y-80920331D02*
X110309180Y-81301283D01*
X110309180Y-81301283D02*
X110234180Y-81396521D01*
X110234180Y-81396521D02*
X110159180Y-81444140D01*
X110159180Y-81444140D02*
X110009180Y-81491759D01*
X110009180Y-81491759D02*
X109784180Y-81491759D01*
X109784180Y-81491759D02*
X109634180Y-81444140D01*
X109634180Y-81444140D02*
X109559180Y-81396521D01*
X109559180Y-81396521D02*
X109484180Y-81301283D01*
X109484180Y-81301283D02*
X109484180Y-80920331D01*
X108884180Y-82491759D02*
X108809180Y-82444140D01*
X108809180Y-82444140D02*
X108734180Y-82301283D01*
X108734180Y-82301283D02*
X108734180Y-82206045D01*
X108734180Y-82206045D02*
X108809180Y-82063188D01*
X108809180Y-82063188D02*
X108959180Y-81967950D01*
X108959180Y-81967950D02*
X109109180Y-81920331D01*
X109109180Y-81920331D02*
X109409180Y-81872712D01*
X109409180Y-81872712D02*
X109634180Y-81872712D01*
X109634180Y-81872712D02*
X109934180Y-81920331D01*
X109934180Y-81920331D02*
X110084180Y-81967950D01*
X110084180Y-81967950D02*
X110234180Y-82063188D01*
X110234180Y-82063188D02*
X110309180Y-82206045D01*
X110309180Y-82206045D02*
X110309180Y-82301283D01*
X110309180Y-82301283D02*
X110234180Y-82444140D01*
X110234180Y-82444140D02*
X110159180Y-82491759D01*
X108734180Y-83444140D02*
X108734180Y-82872712D01*
X108734180Y-83158426D02*
X110309180Y-83158426D01*
X110309180Y-83158426D02*
X110084180Y-83063188D01*
X110084180Y-83063188D02*
X109934180Y-82967950D01*
X109934180Y-82967950D02*
X109859180Y-82872712D01*
X110309180Y-84063188D02*
X110309180Y-84158426D01*
X110309180Y-84158426D02*
X110234180Y-84253664D01*
X110234180Y-84253664D02*
X110159180Y-84301283D01*
X110159180Y-84301283D02*
X110009180Y-84348902D01*
X110009180Y-84348902D02*
X109709180Y-84396521D01*
X109709180Y-84396521D02*
X109334180Y-84396521D01*
X109334180Y-84396521D02*
X109034180Y-84348902D01*
X109034180Y-84348902D02*
X108884180Y-84301283D01*
X108884180Y-84301283D02*
X108809180Y-84253664D01*
X108809180Y-84253664D02*
X108734180Y-84158426D01*
X108734180Y-84158426D02*
X108734180Y-84063188D01*
X108734180Y-84063188D02*
X108809180Y-83967950D01*
X108809180Y-83967950D02*
X108884180Y-83920331D01*
X108884180Y-83920331D02*
X109034180Y-83872712D01*
X109034180Y-83872712D02*
X109334180Y-83825093D01*
X109334180Y-83825093D02*
X109709180Y-83825093D01*
X109709180Y-83825093D02*
X110009180Y-83872712D01*
X110009180Y-83872712D02*
X110159180Y-83920331D01*
X110159180Y-83920331D02*
X110234180Y-83967950D01*
X110234180Y-83967950D02*
X110309180Y-84063188D01*
X106198518Y-80920331D02*
X107773518Y-80920331D01*
X107773518Y-80920331D02*
X107773518Y-81301283D01*
X107773518Y-81301283D02*
X107698518Y-81396521D01*
X107698518Y-81396521D02*
X107623518Y-81444140D01*
X107623518Y-81444140D02*
X107473518Y-81491759D01*
X107473518Y-81491759D02*
X107248518Y-81491759D01*
X107248518Y-81491759D02*
X107098518Y-81444140D01*
X107098518Y-81444140D02*
X107023518Y-81396521D01*
X107023518Y-81396521D02*
X106948518Y-81301283D01*
X106948518Y-81301283D02*
X106948518Y-80920331D01*
X106348518Y-82491759D02*
X106273518Y-82444140D01*
X106273518Y-82444140D02*
X106198518Y-82301283D01*
X106198518Y-82301283D02*
X106198518Y-82206045D01*
X106198518Y-82206045D02*
X106273518Y-82063188D01*
X106273518Y-82063188D02*
X106423518Y-81967950D01*
X106423518Y-81967950D02*
X106573518Y-81920331D01*
X106573518Y-81920331D02*
X106873518Y-81872712D01*
X106873518Y-81872712D02*
X107098518Y-81872712D01*
X107098518Y-81872712D02*
X107398518Y-81920331D01*
X107398518Y-81920331D02*
X107548518Y-81967950D01*
X107548518Y-81967950D02*
X107698518Y-82063188D01*
X107698518Y-82063188D02*
X107773518Y-82206045D01*
X107773518Y-82206045D02*
X107773518Y-82301283D01*
X107773518Y-82301283D02*
X107698518Y-82444140D01*
X107698518Y-82444140D02*
X107623518Y-82491759D01*
X106198518Y-83444140D02*
X106198518Y-82872712D01*
X106198518Y-83158426D02*
X107773518Y-83158426D01*
X107773518Y-83158426D02*
X107548518Y-83063188D01*
X107548518Y-83063188D02*
X107398518Y-82967950D01*
X107398518Y-82967950D02*
X107323518Y-82872712D01*
X106198518Y-84396521D02*
X106198518Y-83825093D01*
X106198518Y-84110807D02*
X107773518Y-84110807D01*
X107773518Y-84110807D02*
X107548518Y-84015569D01*
X107548518Y-84015569D02*
X107398518Y-83920331D01*
X107398518Y-83920331D02*
X107323518Y-83825093D01*
X103662856Y-80920331D02*
X105237856Y-80920331D01*
X105237856Y-80920331D02*
X105237856Y-81301283D01*
X105237856Y-81301283D02*
X105162856Y-81396521D01*
X105162856Y-81396521D02*
X105087856Y-81444140D01*
X105087856Y-81444140D02*
X104937856Y-81491759D01*
X104937856Y-81491759D02*
X104712856Y-81491759D01*
X104712856Y-81491759D02*
X104562856Y-81444140D01*
X104562856Y-81444140D02*
X104487856Y-81396521D01*
X104487856Y-81396521D02*
X104412856Y-81301283D01*
X104412856Y-81301283D02*
X104412856Y-80920331D01*
X103812856Y-82491759D02*
X103737856Y-82444140D01*
X103737856Y-82444140D02*
X103662856Y-82301283D01*
X103662856Y-82301283D02*
X103662856Y-82206045D01*
X103662856Y-82206045D02*
X103737856Y-82063188D01*
X103737856Y-82063188D02*
X103887856Y-81967950D01*
X103887856Y-81967950D02*
X104037856Y-81920331D01*
X104037856Y-81920331D02*
X104337856Y-81872712D01*
X104337856Y-81872712D02*
X104562856Y-81872712D01*
X104562856Y-81872712D02*
X104862856Y-81920331D01*
X104862856Y-81920331D02*
X105012856Y-81967950D01*
X105012856Y-81967950D02*
X105162856Y-82063188D01*
X105162856Y-82063188D02*
X105237856Y-82206045D01*
X105237856Y-82206045D02*
X105237856Y-82301283D01*
X105237856Y-82301283D02*
X105162856Y-82444140D01*
X105162856Y-82444140D02*
X105087856Y-82491759D01*
X103662856Y-83444140D02*
X103662856Y-82872712D01*
X103662856Y-83158426D02*
X105237856Y-83158426D01*
X105237856Y-83158426D02*
X105012856Y-83063188D01*
X105012856Y-83063188D02*
X104862856Y-82967950D01*
X104862856Y-82967950D02*
X104787856Y-82872712D01*
X105087856Y-83825093D02*
X105162856Y-83872712D01*
X105162856Y-83872712D02*
X105237856Y-83967950D01*
X105237856Y-83967950D02*
X105237856Y-84206045D01*
X105237856Y-84206045D02*
X105162856Y-84301283D01*
X105162856Y-84301283D02*
X105087856Y-84348902D01*
X105087856Y-84348902D02*
X104937856Y-84396521D01*
X104937856Y-84396521D02*
X104787856Y-84396521D01*
X104787856Y-84396521D02*
X104562856Y-84348902D01*
X104562856Y-84348902D02*
X103662856Y-83777474D01*
X103662856Y-83777474D02*
X103662856Y-84396521D01*
X101127194Y-80920331D02*
X102702194Y-80920331D01*
X102702194Y-80920331D02*
X102702194Y-81301283D01*
X102702194Y-81301283D02*
X102627194Y-81396521D01*
X102627194Y-81396521D02*
X102552194Y-81444140D01*
X102552194Y-81444140D02*
X102402194Y-81491759D01*
X102402194Y-81491759D02*
X102177194Y-81491759D01*
X102177194Y-81491759D02*
X102027194Y-81444140D01*
X102027194Y-81444140D02*
X101952194Y-81396521D01*
X101952194Y-81396521D02*
X101877194Y-81301283D01*
X101877194Y-81301283D02*
X101877194Y-80920331D01*
X101952194Y-82253664D02*
X101877194Y-82396521D01*
X101877194Y-82396521D02*
X101802194Y-82444140D01*
X101802194Y-82444140D02*
X101652194Y-82491759D01*
X101652194Y-82491759D02*
X101427194Y-82491759D01*
X101427194Y-82491759D02*
X101277194Y-82444140D01*
X101277194Y-82444140D02*
X101202194Y-82396521D01*
X101202194Y-82396521D02*
X101127194Y-82301283D01*
X101127194Y-82301283D02*
X101127194Y-81920331D01*
X101127194Y-81920331D02*
X102702194Y-81920331D01*
X102702194Y-81920331D02*
X102702194Y-82253664D01*
X102702194Y-82253664D02*
X102627194Y-82348902D01*
X102627194Y-82348902D02*
X102552194Y-82396521D01*
X102552194Y-82396521D02*
X102402194Y-82444140D01*
X102402194Y-82444140D02*
X102252194Y-82444140D01*
X102252194Y-82444140D02*
X102102194Y-82396521D01*
X102102194Y-82396521D02*
X102027194Y-82348902D01*
X102027194Y-82348902D02*
X101952194Y-82253664D01*
X101952194Y-82253664D02*
X101952194Y-81920331D01*
X102702194Y-82825093D02*
X102702194Y-83444140D01*
X102702194Y-83444140D02*
X102102194Y-83110807D01*
X102102194Y-83110807D02*
X102102194Y-83253664D01*
X102102194Y-83253664D02*
X102027194Y-83348902D01*
X102027194Y-83348902D02*
X101952194Y-83396521D01*
X101952194Y-83396521D02*
X101802194Y-83444140D01*
X101802194Y-83444140D02*
X101427194Y-83444140D01*
X101427194Y-83444140D02*
X101277194Y-83396521D01*
X101277194Y-83396521D02*
X101202194Y-83348902D01*
X101202194Y-83348902D02*
X101127194Y-83253664D01*
X101127194Y-83253664D02*
X101127194Y-82967950D01*
X101127194Y-82967950D02*
X101202194Y-82872712D01*
X101202194Y-82872712D02*
X101277194Y-82825093D01*
X98591532Y-80920331D02*
X100166532Y-80920331D01*
X100166532Y-80920331D02*
X100166532Y-81301283D01*
X100166532Y-81301283D02*
X100091532Y-81396521D01*
X100091532Y-81396521D02*
X100016532Y-81444140D01*
X100016532Y-81444140D02*
X99866532Y-81491759D01*
X99866532Y-81491759D02*
X99641532Y-81491759D01*
X99641532Y-81491759D02*
X99491532Y-81444140D01*
X99491532Y-81444140D02*
X99416532Y-81396521D01*
X99416532Y-81396521D02*
X99341532Y-81301283D01*
X99341532Y-81301283D02*
X99341532Y-80920331D01*
X99416532Y-82253664D02*
X99341532Y-82396521D01*
X99341532Y-82396521D02*
X99266532Y-82444140D01*
X99266532Y-82444140D02*
X99116532Y-82491759D01*
X99116532Y-82491759D02*
X98891532Y-82491759D01*
X98891532Y-82491759D02*
X98741532Y-82444140D01*
X98741532Y-82444140D02*
X98666532Y-82396521D01*
X98666532Y-82396521D02*
X98591532Y-82301283D01*
X98591532Y-82301283D02*
X98591532Y-81920331D01*
X98591532Y-81920331D02*
X100166532Y-81920331D01*
X100166532Y-81920331D02*
X100166532Y-82253664D01*
X100166532Y-82253664D02*
X100091532Y-82348902D01*
X100091532Y-82348902D02*
X100016532Y-82396521D01*
X100016532Y-82396521D02*
X99866532Y-82444140D01*
X99866532Y-82444140D02*
X99716532Y-82444140D01*
X99716532Y-82444140D02*
X99566532Y-82396521D01*
X99566532Y-82396521D02*
X99491532Y-82348902D01*
X99491532Y-82348902D02*
X99416532Y-82253664D01*
X99416532Y-82253664D02*
X99416532Y-81920331D01*
X99641532Y-83348902D02*
X98591532Y-83348902D01*
X100241532Y-83110807D02*
X99116532Y-82872712D01*
X99116532Y-82872712D02*
X99116532Y-83491759D01*
X97555870Y-81444140D02*
X97630870Y-81348902D01*
X97630870Y-81348902D02*
X97630870Y-81206045D01*
X97630870Y-81206045D02*
X97555870Y-81063188D01*
X97555870Y-81063188D02*
X97405870Y-80967950D01*
X97405870Y-80967950D02*
X97255870Y-80920331D01*
X97255870Y-80920331D02*
X96955870Y-80872712D01*
X96955870Y-80872712D02*
X96730870Y-80872712D01*
X96730870Y-80872712D02*
X96430870Y-80920331D01*
X96430870Y-80920331D02*
X96280870Y-80967950D01*
X96280870Y-80967950D02*
X96130870Y-81063188D01*
X96130870Y-81063188D02*
X96055870Y-81206045D01*
X96055870Y-81206045D02*
X96055870Y-81301283D01*
X96055870Y-81301283D02*
X96130870Y-81444140D01*
X96130870Y-81444140D02*
X96205870Y-81491759D01*
X96205870Y-81491759D02*
X96730870Y-81491759D01*
X96730870Y-81491759D02*
X96730870Y-81301283D01*
X96055870Y-81920331D02*
X97630870Y-81920331D01*
X97630870Y-81920331D02*
X96055870Y-82491759D01*
X96055870Y-82491759D02*
X97630870Y-82491759D01*
X96055870Y-82967950D02*
X97630870Y-82967950D01*
X97630870Y-82967950D02*
X97630870Y-83206045D01*
X97630870Y-83206045D02*
X97555870Y-83348902D01*
X97555870Y-83348902D02*
X97405870Y-83444140D01*
X97405870Y-83444140D02*
X97255870Y-83491759D01*
X97255870Y-83491759D02*
X96955870Y-83539378D01*
X96955870Y-83539378D02*
X96730870Y-83539378D01*
X96730870Y-83539378D02*
X96430870Y-83491759D01*
X96430870Y-83491759D02*
X96280870Y-83444140D01*
X96280870Y-83444140D02*
X96130870Y-83348902D01*
X96130870Y-83348902D02*
X96055870Y-83206045D01*
X96055870Y-83206045D02*
X96055870Y-82967950D01*
X95095208Y-80825093D02*
X95095208Y-81444140D01*
X95095208Y-81444140D02*
X94495208Y-81110807D01*
X94495208Y-81110807D02*
X94495208Y-81253664D01*
X94495208Y-81253664D02*
X94420208Y-81348902D01*
X94420208Y-81348902D02*
X94345208Y-81396521D01*
X94345208Y-81396521D02*
X94195208Y-81444140D01*
X94195208Y-81444140D02*
X93820208Y-81444140D01*
X93820208Y-81444140D02*
X93670208Y-81396521D01*
X93670208Y-81396521D02*
X93595208Y-81348902D01*
X93595208Y-81348902D02*
X93520208Y-81253664D01*
X93520208Y-81253664D02*
X93520208Y-80967950D01*
X93520208Y-80967950D02*
X93595208Y-80872712D01*
X93595208Y-80872712D02*
X93670208Y-80825093D01*
X94570208Y-81777474D02*
X93520208Y-82015569D01*
X93520208Y-82015569D02*
X94570208Y-82253664D01*
X95095208Y-82539379D02*
X95095208Y-83158426D01*
X95095208Y-83158426D02*
X94495208Y-82825093D01*
X94495208Y-82825093D02*
X94495208Y-82967950D01*
X94495208Y-82967950D02*
X94420208Y-83063188D01*
X94420208Y-83063188D02*
X94345208Y-83110807D01*
X94345208Y-83110807D02*
X94195208Y-83158426D01*
X94195208Y-83158426D02*
X93820208Y-83158426D01*
X93820208Y-83158426D02*
X93670208Y-83110807D01*
X93670208Y-83110807D02*
X93595208Y-83063188D01*
X93595208Y-83063188D02*
X93520208Y-82967950D01*
X93520208Y-82967950D02*
X93520208Y-82682236D01*
X93520208Y-82682236D02*
X93595208Y-82586998D01*
X93595208Y-82586998D02*
X93670208Y-82539379D01*
X91584546Y-80920331D02*
X91584546Y-81682236D01*
X90984546Y-81301283D02*
X92184546Y-81301283D01*
X92559546Y-82634616D02*
X92559546Y-82158426D01*
X92559546Y-82158426D02*
X91809546Y-82110807D01*
X91809546Y-82110807D02*
X91884546Y-82158426D01*
X91884546Y-82158426D02*
X91959546Y-82253664D01*
X91959546Y-82253664D02*
X91959546Y-82491759D01*
X91959546Y-82491759D02*
X91884546Y-82586997D01*
X91884546Y-82586997D02*
X91809546Y-82634616D01*
X91809546Y-82634616D02*
X91659546Y-82682235D01*
X91659546Y-82682235D02*
X91284546Y-82682235D01*
X91284546Y-82682235D02*
X91134546Y-82634616D01*
X91134546Y-82634616D02*
X91059546Y-82586997D01*
X91059546Y-82586997D02*
X90984546Y-82491759D01*
X90984546Y-82491759D02*
X90984546Y-82253664D01*
X90984546Y-82253664D02*
X91059546Y-82158426D01*
X91059546Y-82158426D02*
X91134546Y-82110807D01*
X89948884Y-81444140D02*
X90023884Y-81348902D01*
X90023884Y-81348902D02*
X90023884Y-81206045D01*
X90023884Y-81206045D02*
X89948884Y-81063188D01*
X89948884Y-81063188D02*
X89798884Y-80967950D01*
X89798884Y-80967950D02*
X89648884Y-80920331D01*
X89648884Y-80920331D02*
X89348884Y-80872712D01*
X89348884Y-80872712D02*
X89123884Y-80872712D01*
X89123884Y-80872712D02*
X88823884Y-80920331D01*
X88823884Y-80920331D02*
X88673884Y-80967950D01*
X88673884Y-80967950D02*
X88523884Y-81063188D01*
X88523884Y-81063188D02*
X88448884Y-81206045D01*
X88448884Y-81206045D02*
X88448884Y-81301283D01*
X88448884Y-81301283D02*
X88523884Y-81444140D01*
X88523884Y-81444140D02*
X88598884Y-81491759D01*
X88598884Y-81491759D02*
X89123884Y-81491759D01*
X89123884Y-81491759D02*
X89123884Y-81301283D01*
X88448884Y-81920331D02*
X90023884Y-81920331D01*
X90023884Y-81920331D02*
X88448884Y-82491759D01*
X88448884Y-82491759D02*
X90023884Y-82491759D01*
X88448884Y-82967950D02*
X90023884Y-82967950D01*
X90023884Y-82967950D02*
X90023884Y-83206045D01*
X90023884Y-83206045D02*
X89948884Y-83348902D01*
X89948884Y-83348902D02*
X89798884Y-83444140D01*
X89798884Y-83444140D02*
X89648884Y-83491759D01*
X89648884Y-83491759D02*
X89348884Y-83539378D01*
X89348884Y-83539378D02*
X89123884Y-83539378D01*
X89123884Y-83539378D02*
X88823884Y-83491759D01*
X88823884Y-83491759D02*
X88673884Y-83444140D01*
X88673884Y-83444140D02*
X88523884Y-83348902D01*
X88523884Y-83348902D02*
X88448884Y-83206045D01*
X88448884Y-83206045D02*
X88448884Y-82967950D01*
X85913222Y-80920331D02*
X87488222Y-80920331D01*
X87488222Y-80920331D02*
X87488222Y-81301283D01*
X87488222Y-81301283D02*
X87413222Y-81396521D01*
X87413222Y-81396521D02*
X87338222Y-81444140D01*
X87338222Y-81444140D02*
X87188222Y-81491759D01*
X87188222Y-81491759D02*
X86963222Y-81491759D01*
X86963222Y-81491759D02*
X86813222Y-81444140D01*
X86813222Y-81444140D02*
X86738222Y-81396521D01*
X86738222Y-81396521D02*
X86663222Y-81301283D01*
X86663222Y-81301283D02*
X86663222Y-80920331D01*
X86738222Y-82253664D02*
X86663222Y-82396521D01*
X86663222Y-82396521D02*
X86588222Y-82444140D01*
X86588222Y-82444140D02*
X86438222Y-82491759D01*
X86438222Y-82491759D02*
X86213222Y-82491759D01*
X86213222Y-82491759D02*
X86063222Y-82444140D01*
X86063222Y-82444140D02*
X85988222Y-82396521D01*
X85988222Y-82396521D02*
X85913222Y-82301283D01*
X85913222Y-82301283D02*
X85913222Y-81920331D01*
X85913222Y-81920331D02*
X87488222Y-81920331D01*
X87488222Y-81920331D02*
X87488222Y-82253664D01*
X87488222Y-82253664D02*
X87413222Y-82348902D01*
X87413222Y-82348902D02*
X87338222Y-82396521D01*
X87338222Y-82396521D02*
X87188222Y-82444140D01*
X87188222Y-82444140D02*
X87038222Y-82444140D01*
X87038222Y-82444140D02*
X86888222Y-82396521D01*
X86888222Y-82396521D02*
X86813222Y-82348902D01*
X86813222Y-82348902D02*
X86738222Y-82253664D01*
X86738222Y-82253664D02*
X86738222Y-81920331D01*
X87488222Y-83396521D02*
X87488222Y-82920331D01*
X87488222Y-82920331D02*
X86738222Y-82872712D01*
X86738222Y-82872712D02*
X86813222Y-82920331D01*
X86813222Y-82920331D02*
X86888222Y-83015569D01*
X86888222Y-83015569D02*
X86888222Y-83253664D01*
X86888222Y-83253664D02*
X86813222Y-83348902D01*
X86813222Y-83348902D02*
X86738222Y-83396521D01*
X86738222Y-83396521D02*
X86588222Y-83444140D01*
X86588222Y-83444140D02*
X86213222Y-83444140D01*
X86213222Y-83444140D02*
X86063222Y-83396521D01*
X86063222Y-83396521D02*
X85988222Y-83348902D01*
X85988222Y-83348902D02*
X85913222Y-83253664D01*
X85913222Y-83253664D02*
X85913222Y-83015569D01*
X85913222Y-83015569D02*
X85988222Y-82920331D01*
X85988222Y-82920331D02*
X86063222Y-82872712D01*
X83377560Y-80920331D02*
X84952560Y-80920331D01*
X84952560Y-80920331D02*
X84952560Y-81301283D01*
X84952560Y-81301283D02*
X84877560Y-81396521D01*
X84877560Y-81396521D02*
X84802560Y-81444140D01*
X84802560Y-81444140D02*
X84652560Y-81491759D01*
X84652560Y-81491759D02*
X84427560Y-81491759D01*
X84427560Y-81491759D02*
X84277560Y-81444140D01*
X84277560Y-81444140D02*
X84202560Y-81396521D01*
X84202560Y-81396521D02*
X84127560Y-81301283D01*
X84127560Y-81301283D02*
X84127560Y-80920331D01*
X84202560Y-82253664D02*
X84127560Y-82396521D01*
X84127560Y-82396521D02*
X84052560Y-82444140D01*
X84052560Y-82444140D02*
X83902560Y-82491759D01*
X83902560Y-82491759D02*
X83677560Y-82491759D01*
X83677560Y-82491759D02*
X83527560Y-82444140D01*
X83527560Y-82444140D02*
X83452560Y-82396521D01*
X83452560Y-82396521D02*
X83377560Y-82301283D01*
X83377560Y-82301283D02*
X83377560Y-81920331D01*
X83377560Y-81920331D02*
X84952560Y-81920331D01*
X84952560Y-81920331D02*
X84952560Y-82253664D01*
X84952560Y-82253664D02*
X84877560Y-82348902D01*
X84877560Y-82348902D02*
X84802560Y-82396521D01*
X84802560Y-82396521D02*
X84652560Y-82444140D01*
X84652560Y-82444140D02*
X84502560Y-82444140D01*
X84502560Y-82444140D02*
X84352560Y-82396521D01*
X84352560Y-82396521D02*
X84277560Y-82348902D01*
X84277560Y-82348902D02*
X84202560Y-82253664D01*
X84202560Y-82253664D02*
X84202560Y-81920331D01*
X84952560Y-83348902D02*
X84952560Y-83158426D01*
X84952560Y-83158426D02*
X84877560Y-83063188D01*
X84877560Y-83063188D02*
X84802560Y-83015569D01*
X84802560Y-83015569D02*
X84577560Y-82920331D01*
X84577560Y-82920331D02*
X84277560Y-82872712D01*
X84277560Y-82872712D02*
X83677560Y-82872712D01*
X83677560Y-82872712D02*
X83527560Y-82920331D01*
X83527560Y-82920331D02*
X83452560Y-82967950D01*
X83452560Y-82967950D02*
X83377560Y-83063188D01*
X83377560Y-83063188D02*
X83377560Y-83253664D01*
X83377560Y-83253664D02*
X83452560Y-83348902D01*
X83452560Y-83348902D02*
X83527560Y-83396521D01*
X83527560Y-83396521D02*
X83677560Y-83444140D01*
X83677560Y-83444140D02*
X84052560Y-83444140D01*
X84052560Y-83444140D02*
X84202560Y-83396521D01*
X84202560Y-83396521D02*
X84277560Y-83348902D01*
X84277560Y-83348902D02*
X84352560Y-83253664D01*
X84352560Y-83253664D02*
X84352560Y-83063188D01*
X84352560Y-83063188D02*
X84277560Y-82967950D01*
X84277560Y-82967950D02*
X84202560Y-82920331D01*
X84202560Y-82920331D02*
X84052560Y-82872712D01*
X80841898Y-80920331D02*
X82416898Y-80920331D01*
X82416898Y-80920331D02*
X82416898Y-81301283D01*
X82416898Y-81301283D02*
X82341898Y-81396521D01*
X82341898Y-81396521D02*
X82266898Y-81444140D01*
X82266898Y-81444140D02*
X82116898Y-81491759D01*
X82116898Y-81491759D02*
X81891898Y-81491759D01*
X81891898Y-81491759D02*
X81741898Y-81444140D01*
X81741898Y-81444140D02*
X81666898Y-81396521D01*
X81666898Y-81396521D02*
X81591898Y-81301283D01*
X81591898Y-81301283D02*
X81591898Y-80920331D01*
X81666898Y-82253664D02*
X81591898Y-82396521D01*
X81591898Y-82396521D02*
X81516898Y-82444140D01*
X81516898Y-82444140D02*
X81366898Y-82491759D01*
X81366898Y-82491759D02*
X81141898Y-82491759D01*
X81141898Y-82491759D02*
X80991898Y-82444140D01*
X80991898Y-82444140D02*
X80916898Y-82396521D01*
X80916898Y-82396521D02*
X80841898Y-82301283D01*
X80841898Y-82301283D02*
X80841898Y-81920331D01*
X80841898Y-81920331D02*
X82416898Y-81920331D01*
X82416898Y-81920331D02*
X82416898Y-82253664D01*
X82416898Y-82253664D02*
X82341898Y-82348902D01*
X82341898Y-82348902D02*
X82266898Y-82396521D01*
X82266898Y-82396521D02*
X82116898Y-82444140D01*
X82116898Y-82444140D02*
X81966898Y-82444140D01*
X81966898Y-82444140D02*
X81816898Y-82396521D01*
X81816898Y-82396521D02*
X81741898Y-82348902D01*
X81741898Y-82348902D02*
X81666898Y-82253664D01*
X81666898Y-82253664D02*
X81666898Y-81920331D01*
X82416898Y-82825093D02*
X82416898Y-83491759D01*
X82416898Y-83491759D02*
X80841898Y-83063188D01*
X78306236Y-80920331D02*
X79881236Y-80920331D01*
X79881236Y-80920331D02*
X79881236Y-81301283D01*
X79881236Y-81301283D02*
X79806236Y-81396521D01*
X79806236Y-81396521D02*
X79731236Y-81444140D01*
X79731236Y-81444140D02*
X79581236Y-81491759D01*
X79581236Y-81491759D02*
X79356236Y-81491759D01*
X79356236Y-81491759D02*
X79206236Y-81444140D01*
X79206236Y-81444140D02*
X79131236Y-81396521D01*
X79131236Y-81396521D02*
X79056236Y-81301283D01*
X79056236Y-81301283D02*
X79056236Y-80920331D01*
X79131236Y-82253664D02*
X79056236Y-82396521D01*
X79056236Y-82396521D02*
X78981236Y-82444140D01*
X78981236Y-82444140D02*
X78831236Y-82491759D01*
X78831236Y-82491759D02*
X78606236Y-82491759D01*
X78606236Y-82491759D02*
X78456236Y-82444140D01*
X78456236Y-82444140D02*
X78381236Y-82396521D01*
X78381236Y-82396521D02*
X78306236Y-82301283D01*
X78306236Y-82301283D02*
X78306236Y-81920331D01*
X78306236Y-81920331D02*
X79881236Y-81920331D01*
X79881236Y-81920331D02*
X79881236Y-82253664D01*
X79881236Y-82253664D02*
X79806236Y-82348902D01*
X79806236Y-82348902D02*
X79731236Y-82396521D01*
X79731236Y-82396521D02*
X79581236Y-82444140D01*
X79581236Y-82444140D02*
X79431236Y-82444140D01*
X79431236Y-82444140D02*
X79281236Y-82396521D01*
X79281236Y-82396521D02*
X79206236Y-82348902D01*
X79206236Y-82348902D02*
X79131236Y-82253664D01*
X79131236Y-82253664D02*
X79131236Y-81920331D01*
X79206236Y-83063188D02*
X79281236Y-82967950D01*
X79281236Y-82967950D02*
X79356236Y-82920331D01*
X79356236Y-82920331D02*
X79506236Y-82872712D01*
X79506236Y-82872712D02*
X79581236Y-82872712D01*
X79581236Y-82872712D02*
X79731236Y-82920331D01*
X79731236Y-82920331D02*
X79806236Y-82967950D01*
X79806236Y-82967950D02*
X79881236Y-83063188D01*
X79881236Y-83063188D02*
X79881236Y-83253664D01*
X79881236Y-83253664D02*
X79806236Y-83348902D01*
X79806236Y-83348902D02*
X79731236Y-83396521D01*
X79731236Y-83396521D02*
X79581236Y-83444140D01*
X79581236Y-83444140D02*
X79506236Y-83444140D01*
X79506236Y-83444140D02*
X79356236Y-83396521D01*
X79356236Y-83396521D02*
X79281236Y-83348902D01*
X79281236Y-83348902D02*
X79206236Y-83253664D01*
X79206236Y-83253664D02*
X79206236Y-83063188D01*
X79206236Y-83063188D02*
X79131236Y-82967950D01*
X79131236Y-82967950D02*
X79056236Y-82920331D01*
X79056236Y-82920331D02*
X78906236Y-82872712D01*
X78906236Y-82872712D02*
X78606236Y-82872712D01*
X78606236Y-82872712D02*
X78456236Y-82920331D01*
X78456236Y-82920331D02*
X78381236Y-82967950D01*
X78381236Y-82967950D02*
X78306236Y-83063188D01*
X78306236Y-83063188D02*
X78306236Y-83253664D01*
X78306236Y-83253664D02*
X78381236Y-83348902D01*
X78381236Y-83348902D02*
X78456236Y-83396521D01*
X78456236Y-83396521D02*
X78606236Y-83444140D01*
X78606236Y-83444140D02*
X78906236Y-83444140D01*
X78906236Y-83444140D02*
X79056236Y-83396521D01*
X79056236Y-83396521D02*
X79131236Y-83348902D01*
X79131236Y-83348902D02*
X79206236Y-83253664D01*
X75770574Y-80920331D02*
X77345574Y-80920331D01*
X77345574Y-80920331D02*
X77345574Y-81301283D01*
X77345574Y-81301283D02*
X77270574Y-81396521D01*
X77270574Y-81396521D02*
X77195574Y-81444140D01*
X77195574Y-81444140D02*
X77045574Y-81491759D01*
X77045574Y-81491759D02*
X76820574Y-81491759D01*
X76820574Y-81491759D02*
X76670574Y-81444140D01*
X76670574Y-81444140D02*
X76595574Y-81396521D01*
X76595574Y-81396521D02*
X76520574Y-81301283D01*
X76520574Y-81301283D02*
X76520574Y-80920331D01*
X76595574Y-82253664D02*
X76520574Y-82396521D01*
X76520574Y-82396521D02*
X76445574Y-82444140D01*
X76445574Y-82444140D02*
X76295574Y-82491759D01*
X76295574Y-82491759D02*
X76070574Y-82491759D01*
X76070574Y-82491759D02*
X75920574Y-82444140D01*
X75920574Y-82444140D02*
X75845574Y-82396521D01*
X75845574Y-82396521D02*
X75770574Y-82301283D01*
X75770574Y-82301283D02*
X75770574Y-81920331D01*
X75770574Y-81920331D02*
X77345574Y-81920331D01*
X77345574Y-81920331D02*
X77345574Y-82253664D01*
X77345574Y-82253664D02*
X77270574Y-82348902D01*
X77270574Y-82348902D02*
X77195574Y-82396521D01*
X77195574Y-82396521D02*
X77045574Y-82444140D01*
X77045574Y-82444140D02*
X76895574Y-82444140D01*
X76895574Y-82444140D02*
X76745574Y-82396521D01*
X76745574Y-82396521D02*
X76670574Y-82348902D01*
X76670574Y-82348902D02*
X76595574Y-82253664D01*
X76595574Y-82253664D02*
X76595574Y-81920331D01*
X75770574Y-82967950D02*
X75770574Y-83158426D01*
X75770574Y-83158426D02*
X75845574Y-83253664D01*
X75845574Y-83253664D02*
X75920574Y-83301283D01*
X75920574Y-83301283D02*
X76145574Y-83396521D01*
X76145574Y-83396521D02*
X76445574Y-83444140D01*
X76445574Y-83444140D02*
X77045574Y-83444140D01*
X77045574Y-83444140D02*
X77195574Y-83396521D01*
X77195574Y-83396521D02*
X77270574Y-83348902D01*
X77270574Y-83348902D02*
X77345574Y-83253664D01*
X77345574Y-83253664D02*
X77345574Y-83063188D01*
X77345574Y-83063188D02*
X77270574Y-82967950D01*
X77270574Y-82967950D02*
X77195574Y-82920331D01*
X77195574Y-82920331D02*
X77045574Y-82872712D01*
X77045574Y-82872712D02*
X76670574Y-82872712D01*
X76670574Y-82872712D02*
X76520574Y-82920331D01*
X76520574Y-82920331D02*
X76445574Y-82967950D01*
X76445574Y-82967950D02*
X76370574Y-83063188D01*
X76370574Y-83063188D02*
X76370574Y-83253664D01*
X76370574Y-83253664D02*
X76445574Y-83348902D01*
X76445574Y-83348902D02*
X76520574Y-83396521D01*
X76520574Y-83396521D02*
X76670574Y-83444140D01*
X74809912Y-80825093D02*
X74809912Y-81444140D01*
X74809912Y-81444140D02*
X74209912Y-81110807D01*
X74209912Y-81110807D02*
X74209912Y-81253664D01*
X74209912Y-81253664D02*
X74134912Y-81348902D01*
X74134912Y-81348902D02*
X74059912Y-81396521D01*
X74059912Y-81396521D02*
X73909912Y-81444140D01*
X73909912Y-81444140D02*
X73534912Y-81444140D01*
X73534912Y-81444140D02*
X73384912Y-81396521D01*
X73384912Y-81396521D02*
X73309912Y-81348902D01*
X73309912Y-81348902D02*
X73234912Y-81253664D01*
X73234912Y-81253664D02*
X73234912Y-80967950D01*
X73234912Y-80967950D02*
X73309912Y-80872712D01*
X73309912Y-80872712D02*
X73384912Y-80825093D01*
X74284912Y-81777474D02*
X73234912Y-82015569D01*
X73234912Y-82015569D02*
X74284912Y-82253664D01*
X74809912Y-82539379D02*
X74809912Y-83158426D01*
X74809912Y-83158426D02*
X74209912Y-82825093D01*
X74209912Y-82825093D02*
X74209912Y-82967950D01*
X74209912Y-82967950D02*
X74134912Y-83063188D01*
X74134912Y-83063188D02*
X74059912Y-83110807D01*
X74059912Y-83110807D02*
X73909912Y-83158426D01*
X73909912Y-83158426D02*
X73534912Y-83158426D01*
X73534912Y-83158426D02*
X73384912Y-83110807D01*
X73384912Y-83110807D02*
X73309912Y-83063188D01*
X73309912Y-83063188D02*
X73234912Y-82967950D01*
X73234912Y-82967950D02*
X73234912Y-82682236D01*
X73234912Y-82682236D02*
X73309912Y-82586998D01*
X73309912Y-82586998D02*
X73384912Y-82539379D01*
X72199250Y-81444140D02*
X72274250Y-81348902D01*
X72274250Y-81348902D02*
X72274250Y-81206045D01*
X72274250Y-81206045D02*
X72199250Y-81063188D01*
X72199250Y-81063188D02*
X72049250Y-80967950D01*
X72049250Y-80967950D02*
X71899250Y-80920331D01*
X71899250Y-80920331D02*
X71599250Y-80872712D01*
X71599250Y-80872712D02*
X71374250Y-80872712D01*
X71374250Y-80872712D02*
X71074250Y-80920331D01*
X71074250Y-80920331D02*
X70924250Y-80967950D01*
X70924250Y-80967950D02*
X70774250Y-81063188D01*
X70774250Y-81063188D02*
X70699250Y-81206045D01*
X70699250Y-81206045D02*
X70699250Y-81301283D01*
X70699250Y-81301283D02*
X70774250Y-81444140D01*
X70774250Y-81444140D02*
X70849250Y-81491759D01*
X70849250Y-81491759D02*
X71374250Y-81491759D01*
X71374250Y-81491759D02*
X71374250Y-81301283D01*
X70699250Y-81920331D02*
X72274250Y-81920331D01*
X72274250Y-81920331D02*
X70699250Y-82491759D01*
X70699250Y-82491759D02*
X72274250Y-82491759D01*
X70699250Y-82967950D02*
X72274250Y-82967950D01*
X72274250Y-82967950D02*
X72274250Y-83206045D01*
X72274250Y-83206045D02*
X72199250Y-83348902D01*
X72199250Y-83348902D02*
X72049250Y-83444140D01*
X72049250Y-83444140D02*
X71899250Y-83491759D01*
X71899250Y-83491759D02*
X71599250Y-83539378D01*
X71599250Y-83539378D02*
X71374250Y-83539378D01*
X71374250Y-83539378D02*
X71074250Y-83491759D01*
X71074250Y-83491759D02*
X70924250Y-83444140D01*
X70924250Y-83444140D02*
X70774250Y-83348902D01*
X70774250Y-83348902D02*
X70699250Y-83206045D01*
X70699250Y-83206045D02*
X70699250Y-82967950D01*
X107144842Y-135698716D02*
X107144842Y-136317763D01*
X107144842Y-136317763D02*
X106544842Y-135984430D01*
X106544842Y-135984430D02*
X106544842Y-136127287D01*
X106544842Y-136127287D02*
X106469842Y-136222525D01*
X106469842Y-136222525D02*
X106394842Y-136270144D01*
X106394842Y-136270144D02*
X106244842Y-136317763D01*
X106244842Y-136317763D02*
X105869842Y-136317763D01*
X105869842Y-136317763D02*
X105719842Y-136270144D01*
X105719842Y-136270144D02*
X105644842Y-136222525D01*
X105644842Y-136222525D02*
X105569842Y-136127287D01*
X105569842Y-136127287D02*
X105569842Y-135841573D01*
X105569842Y-135841573D02*
X105644842Y-135746335D01*
X105644842Y-135746335D02*
X105719842Y-135698716D01*
X107144842Y-136603478D02*
X105569842Y-136936811D01*
X105569842Y-136936811D02*
X107144842Y-137270144D01*
X107144842Y-137508240D02*
X107144842Y-138127287D01*
X107144842Y-138127287D02*
X106544842Y-137793954D01*
X106544842Y-137793954D02*
X106544842Y-137936811D01*
X106544842Y-137936811D02*
X106469842Y-138032049D01*
X106469842Y-138032049D02*
X106394842Y-138079668D01*
X106394842Y-138079668D02*
X106244842Y-138127287D01*
X106244842Y-138127287D02*
X105869842Y-138127287D01*
X105869842Y-138127287D02*
X105719842Y-138079668D01*
X105719842Y-138079668D02*
X105644842Y-138032049D01*
X105644842Y-138032049D02*
X105569842Y-137936811D01*
X105569842Y-137936811D02*
X105569842Y-137651097D01*
X105569842Y-137651097D02*
X105644842Y-137555859D01*
X105644842Y-137555859D02*
X105719842Y-137508240D01*
X103034180Y-134651097D02*
X104609180Y-134651097D01*
X104609180Y-134651097D02*
X104609180Y-135032049D01*
X104609180Y-135032049D02*
X104534180Y-135127287D01*
X104534180Y-135127287D02*
X104459180Y-135174906D01*
X104459180Y-135174906D02*
X104309180Y-135222525D01*
X104309180Y-135222525D02*
X104084180Y-135222525D01*
X104084180Y-135222525D02*
X103934180Y-135174906D01*
X103934180Y-135174906D02*
X103859180Y-135127287D01*
X103859180Y-135127287D02*
X103784180Y-135032049D01*
X103784180Y-135032049D02*
X103784180Y-134651097D01*
X103859180Y-135984430D02*
X103784180Y-136127287D01*
X103784180Y-136127287D02*
X103709180Y-136174906D01*
X103709180Y-136174906D02*
X103559180Y-136222525D01*
X103559180Y-136222525D02*
X103334180Y-136222525D01*
X103334180Y-136222525D02*
X103184180Y-136174906D01*
X103184180Y-136174906D02*
X103109180Y-136127287D01*
X103109180Y-136127287D02*
X103034180Y-136032049D01*
X103034180Y-136032049D02*
X103034180Y-135651097D01*
X103034180Y-135651097D02*
X104609180Y-135651097D01*
X104609180Y-135651097D02*
X104609180Y-135984430D01*
X104609180Y-135984430D02*
X104534180Y-136079668D01*
X104534180Y-136079668D02*
X104459180Y-136127287D01*
X104459180Y-136127287D02*
X104309180Y-136174906D01*
X104309180Y-136174906D02*
X104159180Y-136174906D01*
X104159180Y-136174906D02*
X104009180Y-136127287D01*
X104009180Y-136127287D02*
X103934180Y-136079668D01*
X103934180Y-136079668D02*
X103859180Y-135984430D01*
X103859180Y-135984430D02*
X103859180Y-135651097D01*
X103034180Y-137174906D02*
X103034180Y-136603478D01*
X103034180Y-136889192D02*
X104609180Y-136889192D01*
X104609180Y-136889192D02*
X104384180Y-136793954D01*
X104384180Y-136793954D02*
X104234180Y-136698716D01*
X104234180Y-136698716D02*
X104159180Y-136603478D01*
X104459180Y-137555859D02*
X104534180Y-137603478D01*
X104534180Y-137603478D02*
X104609180Y-137698716D01*
X104609180Y-137698716D02*
X104609180Y-137936811D01*
X104609180Y-137936811D02*
X104534180Y-138032049D01*
X104534180Y-138032049D02*
X104459180Y-138079668D01*
X104459180Y-138079668D02*
X104309180Y-138127287D01*
X104309180Y-138127287D02*
X104159180Y-138127287D01*
X104159180Y-138127287D02*
X103934180Y-138079668D01*
X103934180Y-138079668D02*
X103034180Y-137508240D01*
X103034180Y-137508240D02*
X103034180Y-138127287D01*
X100498518Y-134651097D02*
X102073518Y-134651097D01*
X102073518Y-134651097D02*
X102073518Y-135032049D01*
X102073518Y-135032049D02*
X101998518Y-135127287D01*
X101998518Y-135127287D02*
X101923518Y-135174906D01*
X101923518Y-135174906D02*
X101773518Y-135222525D01*
X101773518Y-135222525D02*
X101548518Y-135222525D01*
X101548518Y-135222525D02*
X101398518Y-135174906D01*
X101398518Y-135174906D02*
X101323518Y-135127287D01*
X101323518Y-135127287D02*
X101248518Y-135032049D01*
X101248518Y-135032049D02*
X101248518Y-134651097D01*
X101323518Y-135984430D02*
X101248518Y-136127287D01*
X101248518Y-136127287D02*
X101173518Y-136174906D01*
X101173518Y-136174906D02*
X101023518Y-136222525D01*
X101023518Y-136222525D02*
X100798518Y-136222525D01*
X100798518Y-136222525D02*
X100648518Y-136174906D01*
X100648518Y-136174906D02*
X100573518Y-136127287D01*
X100573518Y-136127287D02*
X100498518Y-136032049D01*
X100498518Y-136032049D02*
X100498518Y-135651097D01*
X100498518Y-135651097D02*
X102073518Y-135651097D01*
X102073518Y-135651097D02*
X102073518Y-135984430D01*
X102073518Y-135984430D02*
X101998518Y-136079668D01*
X101998518Y-136079668D02*
X101923518Y-136127287D01*
X101923518Y-136127287D02*
X101773518Y-136174906D01*
X101773518Y-136174906D02*
X101623518Y-136174906D01*
X101623518Y-136174906D02*
X101473518Y-136127287D01*
X101473518Y-136127287D02*
X101398518Y-136079668D01*
X101398518Y-136079668D02*
X101323518Y-135984430D01*
X101323518Y-135984430D02*
X101323518Y-135651097D01*
X100498518Y-137174906D02*
X100498518Y-136603478D01*
X100498518Y-136889192D02*
X102073518Y-136889192D01*
X102073518Y-136889192D02*
X101848518Y-136793954D01*
X101848518Y-136793954D02*
X101698518Y-136698716D01*
X101698518Y-136698716D02*
X101623518Y-136603478D01*
X100498518Y-138127287D02*
X100498518Y-137555859D01*
X100498518Y-137841573D02*
X102073518Y-137841573D01*
X102073518Y-137841573D02*
X101848518Y-137746335D01*
X101848518Y-137746335D02*
X101698518Y-137651097D01*
X101698518Y-137651097D02*
X101623518Y-137555859D01*
X97962856Y-134651097D02*
X99537856Y-134651097D01*
X99537856Y-134651097D02*
X99537856Y-135032049D01*
X99537856Y-135032049D02*
X99462856Y-135127287D01*
X99462856Y-135127287D02*
X99387856Y-135174906D01*
X99387856Y-135174906D02*
X99237856Y-135222525D01*
X99237856Y-135222525D02*
X99012856Y-135222525D01*
X99012856Y-135222525D02*
X98862856Y-135174906D01*
X98862856Y-135174906D02*
X98787856Y-135127287D01*
X98787856Y-135127287D02*
X98712856Y-135032049D01*
X98712856Y-135032049D02*
X98712856Y-134651097D01*
X98787856Y-135984430D02*
X98712856Y-136127287D01*
X98712856Y-136127287D02*
X98637856Y-136174906D01*
X98637856Y-136174906D02*
X98487856Y-136222525D01*
X98487856Y-136222525D02*
X98262856Y-136222525D01*
X98262856Y-136222525D02*
X98112856Y-136174906D01*
X98112856Y-136174906D02*
X98037856Y-136127287D01*
X98037856Y-136127287D02*
X97962856Y-136032049D01*
X97962856Y-136032049D02*
X97962856Y-135651097D01*
X97962856Y-135651097D02*
X99537856Y-135651097D01*
X99537856Y-135651097D02*
X99537856Y-135984430D01*
X99537856Y-135984430D02*
X99462856Y-136079668D01*
X99462856Y-136079668D02*
X99387856Y-136127287D01*
X99387856Y-136127287D02*
X99237856Y-136174906D01*
X99237856Y-136174906D02*
X99087856Y-136174906D01*
X99087856Y-136174906D02*
X98937856Y-136127287D01*
X98937856Y-136127287D02*
X98862856Y-136079668D01*
X98862856Y-136079668D02*
X98787856Y-135984430D01*
X98787856Y-135984430D02*
X98787856Y-135651097D01*
X97962856Y-137174906D02*
X97962856Y-136603478D01*
X97962856Y-136889192D02*
X99537856Y-136889192D01*
X99537856Y-136889192D02*
X99312856Y-136793954D01*
X99312856Y-136793954D02*
X99162856Y-136698716D01*
X99162856Y-136698716D02*
X99087856Y-136603478D01*
X99537856Y-137793954D02*
X99537856Y-137889192D01*
X99537856Y-137889192D02*
X99462856Y-137984430D01*
X99462856Y-137984430D02*
X99387856Y-138032049D01*
X99387856Y-138032049D02*
X99237856Y-138079668D01*
X99237856Y-138079668D02*
X98937856Y-138127287D01*
X98937856Y-138127287D02*
X98562856Y-138127287D01*
X98562856Y-138127287D02*
X98262856Y-138079668D01*
X98262856Y-138079668D02*
X98112856Y-138032049D01*
X98112856Y-138032049D02*
X98037856Y-137984430D01*
X98037856Y-137984430D02*
X97962856Y-137889192D01*
X97962856Y-137889192D02*
X97962856Y-137793954D01*
X97962856Y-137793954D02*
X98037856Y-137698716D01*
X98037856Y-137698716D02*
X98112856Y-137651097D01*
X98112856Y-137651097D02*
X98262856Y-137603478D01*
X98262856Y-137603478D02*
X98562856Y-137555859D01*
X98562856Y-137555859D02*
X98937856Y-137555859D01*
X98937856Y-137555859D02*
X99237856Y-137603478D01*
X99237856Y-137603478D02*
X99387856Y-137651097D01*
X99387856Y-137651097D02*
X99462856Y-137698716D01*
X99462856Y-137698716D02*
X99537856Y-137793954D01*
X95427194Y-135603478D02*
X97002194Y-135603478D01*
X97002194Y-135603478D02*
X97002194Y-135984430D01*
X97002194Y-135984430D02*
X96927194Y-136079668D01*
X96927194Y-136079668D02*
X96852194Y-136127287D01*
X96852194Y-136127287D02*
X96702194Y-136174906D01*
X96702194Y-136174906D02*
X96477194Y-136174906D01*
X96477194Y-136174906D02*
X96327194Y-136127287D01*
X96327194Y-136127287D02*
X96252194Y-136079668D01*
X96252194Y-136079668D02*
X96177194Y-135984430D01*
X96177194Y-135984430D02*
X96177194Y-135603478D01*
X96252194Y-136936811D02*
X96177194Y-137079668D01*
X96177194Y-137079668D02*
X96102194Y-137127287D01*
X96102194Y-137127287D02*
X95952194Y-137174906D01*
X95952194Y-137174906D02*
X95727194Y-137174906D01*
X95727194Y-137174906D02*
X95577194Y-137127287D01*
X95577194Y-137127287D02*
X95502194Y-137079668D01*
X95502194Y-137079668D02*
X95427194Y-136984430D01*
X95427194Y-136984430D02*
X95427194Y-136603478D01*
X95427194Y-136603478D02*
X97002194Y-136603478D01*
X97002194Y-136603478D02*
X97002194Y-136936811D01*
X97002194Y-136936811D02*
X96927194Y-137032049D01*
X96927194Y-137032049D02*
X96852194Y-137079668D01*
X96852194Y-137079668D02*
X96702194Y-137127287D01*
X96702194Y-137127287D02*
X96552194Y-137127287D01*
X96552194Y-137127287D02*
X96402194Y-137079668D01*
X96402194Y-137079668D02*
X96327194Y-137032049D01*
X96327194Y-137032049D02*
X96252194Y-136936811D01*
X96252194Y-136936811D02*
X96252194Y-136603478D01*
X96852194Y-137555859D02*
X96927194Y-137603478D01*
X96927194Y-137603478D02*
X97002194Y-137698716D01*
X97002194Y-137698716D02*
X97002194Y-137936811D01*
X97002194Y-137936811D02*
X96927194Y-138032049D01*
X96927194Y-138032049D02*
X96852194Y-138079668D01*
X96852194Y-138079668D02*
X96702194Y-138127287D01*
X96702194Y-138127287D02*
X96552194Y-138127287D01*
X96552194Y-138127287D02*
X96327194Y-138079668D01*
X96327194Y-138079668D02*
X95427194Y-137508240D01*
X95427194Y-137508240D02*
X95427194Y-138127287D01*
X92891532Y-135603478D02*
X94466532Y-135603478D01*
X94466532Y-135603478D02*
X94466532Y-135984430D01*
X94466532Y-135984430D02*
X94391532Y-136079668D01*
X94391532Y-136079668D02*
X94316532Y-136127287D01*
X94316532Y-136127287D02*
X94166532Y-136174906D01*
X94166532Y-136174906D02*
X93941532Y-136174906D01*
X93941532Y-136174906D02*
X93791532Y-136127287D01*
X93791532Y-136127287D02*
X93716532Y-136079668D01*
X93716532Y-136079668D02*
X93641532Y-135984430D01*
X93641532Y-135984430D02*
X93641532Y-135603478D01*
X93716532Y-136936811D02*
X93641532Y-137079668D01*
X93641532Y-137079668D02*
X93566532Y-137127287D01*
X93566532Y-137127287D02*
X93416532Y-137174906D01*
X93416532Y-137174906D02*
X93191532Y-137174906D01*
X93191532Y-137174906D02*
X93041532Y-137127287D01*
X93041532Y-137127287D02*
X92966532Y-137079668D01*
X92966532Y-137079668D02*
X92891532Y-136984430D01*
X92891532Y-136984430D02*
X92891532Y-136603478D01*
X92891532Y-136603478D02*
X94466532Y-136603478D01*
X94466532Y-136603478D02*
X94466532Y-136936811D01*
X94466532Y-136936811D02*
X94391532Y-137032049D01*
X94391532Y-137032049D02*
X94316532Y-137079668D01*
X94316532Y-137079668D02*
X94166532Y-137127287D01*
X94166532Y-137127287D02*
X94016532Y-137127287D01*
X94016532Y-137127287D02*
X93866532Y-137079668D01*
X93866532Y-137079668D02*
X93791532Y-137032049D01*
X93791532Y-137032049D02*
X93716532Y-136936811D01*
X93716532Y-136936811D02*
X93716532Y-136603478D01*
X92891532Y-138127287D02*
X92891532Y-137555859D01*
X92891532Y-137841573D02*
X94466532Y-137841573D01*
X94466532Y-137841573D02*
X94241532Y-137746335D01*
X94241532Y-137746335D02*
X94091532Y-137651097D01*
X94091532Y-137651097D02*
X94016532Y-137555859D01*
X91855870Y-136032049D02*
X91930870Y-135936811D01*
X91930870Y-135936811D02*
X91930870Y-135793954D01*
X91930870Y-135793954D02*
X91855870Y-135651097D01*
X91855870Y-135651097D02*
X91705870Y-135555859D01*
X91705870Y-135555859D02*
X91555870Y-135508240D01*
X91555870Y-135508240D02*
X91255870Y-135460621D01*
X91255870Y-135460621D02*
X91030870Y-135460621D01*
X91030870Y-135460621D02*
X90730870Y-135508240D01*
X90730870Y-135508240D02*
X90580870Y-135555859D01*
X90580870Y-135555859D02*
X90430870Y-135651097D01*
X90430870Y-135651097D02*
X90355870Y-135793954D01*
X90355870Y-135793954D02*
X90355870Y-135889192D01*
X90355870Y-135889192D02*
X90430870Y-136032049D01*
X90430870Y-136032049D02*
X90505870Y-136079668D01*
X90505870Y-136079668D02*
X91030870Y-136079668D01*
X91030870Y-136079668D02*
X91030870Y-135889192D01*
X90355870Y-136508240D02*
X91930870Y-136508240D01*
X91930870Y-136508240D02*
X90355870Y-137079668D01*
X90355870Y-137079668D02*
X91930870Y-137079668D01*
X90355870Y-137555859D02*
X91930870Y-137555859D01*
X91930870Y-137555859D02*
X91930870Y-137793954D01*
X91930870Y-137793954D02*
X91855870Y-137936811D01*
X91855870Y-137936811D02*
X91705870Y-138032049D01*
X91705870Y-138032049D02*
X91555870Y-138079668D01*
X91555870Y-138079668D02*
X91255870Y-138127287D01*
X91255870Y-138127287D02*
X91030870Y-138127287D01*
X91030870Y-138127287D02*
X90730870Y-138079668D01*
X90730870Y-138079668D02*
X90580870Y-138032049D01*
X90580870Y-138032049D02*
X90430870Y-137936811D01*
X90430870Y-137936811D02*
X90355870Y-137793954D01*
X90355870Y-137793954D02*
X90355870Y-137555859D01*
X88420208Y-136365383D02*
X88420208Y-137127288D01*
X87820208Y-136746335D02*
X89020208Y-136746335D01*
X89395208Y-138079668D02*
X89395208Y-137603478D01*
X89395208Y-137603478D02*
X88645208Y-137555859D01*
X88645208Y-137555859D02*
X88720208Y-137603478D01*
X88720208Y-137603478D02*
X88795208Y-137698716D01*
X88795208Y-137698716D02*
X88795208Y-137936811D01*
X88795208Y-137936811D02*
X88720208Y-138032049D01*
X88720208Y-138032049D02*
X88645208Y-138079668D01*
X88645208Y-138079668D02*
X88495208Y-138127287D01*
X88495208Y-138127287D02*
X88120208Y-138127287D01*
X88120208Y-138127287D02*
X87970208Y-138079668D01*
X87970208Y-138079668D02*
X87895208Y-138032049D01*
X87895208Y-138032049D02*
X87820208Y-137936811D01*
X87820208Y-137936811D02*
X87820208Y-137698716D01*
X87820208Y-137698716D02*
X87895208Y-137603478D01*
X87895208Y-137603478D02*
X87970208Y-137555859D01*
X86859546Y-135793954D02*
X86859546Y-136413001D01*
X86859546Y-136413001D02*
X86259546Y-136079668D01*
X86259546Y-136079668D02*
X86259546Y-136222525D01*
X86259546Y-136222525D02*
X86184546Y-136317763D01*
X86184546Y-136317763D02*
X86109546Y-136365382D01*
X86109546Y-136365382D02*
X85959546Y-136413001D01*
X85959546Y-136413001D02*
X85584546Y-136413001D01*
X85584546Y-136413001D02*
X85434546Y-136365382D01*
X85434546Y-136365382D02*
X85359546Y-136317763D01*
X85359546Y-136317763D02*
X85284546Y-136222525D01*
X85284546Y-136222525D02*
X85284546Y-135936811D01*
X85284546Y-135936811D02*
X85359546Y-135841573D01*
X85359546Y-135841573D02*
X85434546Y-135793954D01*
X86334546Y-136746335D02*
X85284546Y-136984430D01*
X85284546Y-136984430D02*
X86334546Y-137222525D01*
X86859546Y-137508240D02*
X86859546Y-138127287D01*
X86859546Y-138127287D02*
X86259546Y-137793954D01*
X86259546Y-137793954D02*
X86259546Y-137936811D01*
X86259546Y-137936811D02*
X86184546Y-138032049D01*
X86184546Y-138032049D02*
X86109546Y-138079668D01*
X86109546Y-138079668D02*
X85959546Y-138127287D01*
X85959546Y-138127287D02*
X85584546Y-138127287D01*
X85584546Y-138127287D02*
X85434546Y-138079668D01*
X85434546Y-138079668D02*
X85359546Y-138032049D01*
X85359546Y-138032049D02*
X85284546Y-137936811D01*
X85284546Y-137936811D02*
X85284546Y-137651097D01*
X85284546Y-137651097D02*
X85359546Y-137555859D01*
X85359546Y-137555859D02*
X85434546Y-137508240D01*
X84248884Y-136032049D02*
X84323884Y-135936811D01*
X84323884Y-135936811D02*
X84323884Y-135793954D01*
X84323884Y-135793954D02*
X84248884Y-135651097D01*
X84248884Y-135651097D02*
X84098884Y-135555859D01*
X84098884Y-135555859D02*
X83948884Y-135508240D01*
X83948884Y-135508240D02*
X83648884Y-135460621D01*
X83648884Y-135460621D02*
X83423884Y-135460621D01*
X83423884Y-135460621D02*
X83123884Y-135508240D01*
X83123884Y-135508240D02*
X82973884Y-135555859D01*
X82973884Y-135555859D02*
X82823884Y-135651097D01*
X82823884Y-135651097D02*
X82748884Y-135793954D01*
X82748884Y-135793954D02*
X82748884Y-135889192D01*
X82748884Y-135889192D02*
X82823884Y-136032049D01*
X82823884Y-136032049D02*
X82898884Y-136079668D01*
X82898884Y-136079668D02*
X83423884Y-136079668D01*
X83423884Y-136079668D02*
X83423884Y-135889192D01*
X82748884Y-136508240D02*
X84323884Y-136508240D01*
X84323884Y-136508240D02*
X82748884Y-137079668D01*
X82748884Y-137079668D02*
X84323884Y-137079668D01*
X82748884Y-137555859D02*
X84323884Y-137555859D01*
X84323884Y-137555859D02*
X84323884Y-137793954D01*
X84323884Y-137793954D02*
X84248884Y-137936811D01*
X84248884Y-137936811D02*
X84098884Y-138032049D01*
X84098884Y-138032049D02*
X83948884Y-138079668D01*
X83948884Y-138079668D02*
X83648884Y-138127287D01*
X83648884Y-138127287D02*
X83423884Y-138127287D01*
X83423884Y-138127287D02*
X83123884Y-138079668D01*
X83123884Y-138079668D02*
X82973884Y-138032049D01*
X82973884Y-138032049D02*
X82823884Y-137936811D01*
X82823884Y-137936811D02*
X82748884Y-137793954D01*
X82748884Y-137793954D02*
X82748884Y-137555859D01*
X80213222Y-135603478D02*
X81788222Y-135603478D01*
X81788222Y-135603478D02*
X81788222Y-135984430D01*
X81788222Y-135984430D02*
X81713222Y-136079668D01*
X81713222Y-136079668D02*
X81638222Y-136127287D01*
X81638222Y-136127287D02*
X81488222Y-136174906D01*
X81488222Y-136174906D02*
X81263222Y-136174906D01*
X81263222Y-136174906D02*
X81113222Y-136127287D01*
X81113222Y-136127287D02*
X81038222Y-136079668D01*
X81038222Y-136079668D02*
X80963222Y-135984430D01*
X80963222Y-135984430D02*
X80963222Y-135603478D01*
X81038222Y-136936811D02*
X80963222Y-137079668D01*
X80963222Y-137079668D02*
X80888222Y-137127287D01*
X80888222Y-137127287D02*
X80738222Y-137174906D01*
X80738222Y-137174906D02*
X80513222Y-137174906D01*
X80513222Y-137174906D02*
X80363222Y-137127287D01*
X80363222Y-137127287D02*
X80288222Y-137079668D01*
X80288222Y-137079668D02*
X80213222Y-136984430D01*
X80213222Y-136984430D02*
X80213222Y-136603478D01*
X80213222Y-136603478D02*
X81788222Y-136603478D01*
X81788222Y-136603478D02*
X81788222Y-136936811D01*
X81788222Y-136936811D02*
X81713222Y-137032049D01*
X81713222Y-137032049D02*
X81638222Y-137079668D01*
X81638222Y-137079668D02*
X81488222Y-137127287D01*
X81488222Y-137127287D02*
X81338222Y-137127287D01*
X81338222Y-137127287D02*
X81188222Y-137079668D01*
X81188222Y-137079668D02*
X81113222Y-137032049D01*
X81113222Y-137032049D02*
X81038222Y-136936811D01*
X81038222Y-136936811D02*
X81038222Y-136603478D01*
X81788222Y-137793954D02*
X81788222Y-137889192D01*
X81788222Y-137889192D02*
X81713222Y-137984430D01*
X81713222Y-137984430D02*
X81638222Y-138032049D01*
X81638222Y-138032049D02*
X81488222Y-138079668D01*
X81488222Y-138079668D02*
X81188222Y-138127287D01*
X81188222Y-138127287D02*
X80813222Y-138127287D01*
X80813222Y-138127287D02*
X80513222Y-138079668D01*
X80513222Y-138079668D02*
X80363222Y-138032049D01*
X80363222Y-138032049D02*
X80288222Y-137984430D01*
X80288222Y-137984430D02*
X80213222Y-137889192D01*
X80213222Y-137889192D02*
X80213222Y-137793954D01*
X80213222Y-137793954D02*
X80288222Y-137698716D01*
X80288222Y-137698716D02*
X80363222Y-137651097D01*
X80363222Y-137651097D02*
X80513222Y-137603478D01*
X80513222Y-137603478D02*
X80813222Y-137555859D01*
X80813222Y-137555859D02*
X81188222Y-137555859D01*
X81188222Y-137555859D02*
X81488222Y-137603478D01*
X81488222Y-137603478D02*
X81638222Y-137651097D01*
X81638222Y-137651097D02*
X81713222Y-137698716D01*
X81713222Y-137698716D02*
X81788222Y-137793954D01*
X77677560Y-135603478D02*
X79252560Y-135603478D01*
X79252560Y-135603478D02*
X79252560Y-135984430D01*
X79252560Y-135984430D02*
X79177560Y-136079668D01*
X79177560Y-136079668D02*
X79102560Y-136127287D01*
X79102560Y-136127287D02*
X78952560Y-136174906D01*
X78952560Y-136174906D02*
X78727560Y-136174906D01*
X78727560Y-136174906D02*
X78577560Y-136127287D01*
X78577560Y-136127287D02*
X78502560Y-136079668D01*
X78502560Y-136079668D02*
X78427560Y-135984430D01*
X78427560Y-135984430D02*
X78427560Y-135603478D01*
X77827560Y-137174906D02*
X77752560Y-137127287D01*
X77752560Y-137127287D02*
X77677560Y-136984430D01*
X77677560Y-136984430D02*
X77677560Y-136889192D01*
X77677560Y-136889192D02*
X77752560Y-136746335D01*
X77752560Y-136746335D02*
X77902560Y-136651097D01*
X77902560Y-136651097D02*
X78052560Y-136603478D01*
X78052560Y-136603478D02*
X78352560Y-136555859D01*
X78352560Y-136555859D02*
X78577560Y-136555859D01*
X78577560Y-136555859D02*
X78877560Y-136603478D01*
X78877560Y-136603478D02*
X79027560Y-136651097D01*
X79027560Y-136651097D02*
X79177560Y-136746335D01*
X79177560Y-136746335D02*
X79252560Y-136889192D01*
X79252560Y-136889192D02*
X79252560Y-136984430D01*
X79252560Y-136984430D02*
X79177560Y-137127287D01*
X79177560Y-137127287D02*
X79102560Y-137174906D01*
X79252560Y-138079668D02*
X79252560Y-137603478D01*
X79252560Y-137603478D02*
X78502560Y-137555859D01*
X78502560Y-137555859D02*
X78577560Y-137603478D01*
X78577560Y-137603478D02*
X78652560Y-137698716D01*
X78652560Y-137698716D02*
X78652560Y-137936811D01*
X78652560Y-137936811D02*
X78577560Y-138032049D01*
X78577560Y-138032049D02*
X78502560Y-138079668D01*
X78502560Y-138079668D02*
X78352560Y-138127287D01*
X78352560Y-138127287D02*
X77977560Y-138127287D01*
X77977560Y-138127287D02*
X77827560Y-138079668D01*
X77827560Y-138079668D02*
X77752560Y-138032049D01*
X77752560Y-138032049D02*
X77677560Y-137936811D01*
X77677560Y-137936811D02*
X77677560Y-137698716D01*
X77677560Y-137698716D02*
X77752560Y-137603478D01*
X77752560Y-137603478D02*
X77827560Y-137555859D01*
X75141898Y-135603478D02*
X76716898Y-135603478D01*
X76716898Y-135603478D02*
X76716898Y-135984430D01*
X76716898Y-135984430D02*
X76641898Y-136079668D01*
X76641898Y-136079668D02*
X76566898Y-136127287D01*
X76566898Y-136127287D02*
X76416898Y-136174906D01*
X76416898Y-136174906D02*
X76191898Y-136174906D01*
X76191898Y-136174906D02*
X76041898Y-136127287D01*
X76041898Y-136127287D02*
X75966898Y-136079668D01*
X75966898Y-136079668D02*
X75891898Y-135984430D01*
X75891898Y-135984430D02*
X75891898Y-135603478D01*
X75291898Y-137174906D02*
X75216898Y-137127287D01*
X75216898Y-137127287D02*
X75141898Y-136984430D01*
X75141898Y-136984430D02*
X75141898Y-136889192D01*
X75141898Y-136889192D02*
X75216898Y-136746335D01*
X75216898Y-136746335D02*
X75366898Y-136651097D01*
X75366898Y-136651097D02*
X75516898Y-136603478D01*
X75516898Y-136603478D02*
X75816898Y-136555859D01*
X75816898Y-136555859D02*
X76041898Y-136555859D01*
X76041898Y-136555859D02*
X76341898Y-136603478D01*
X76341898Y-136603478D02*
X76491898Y-136651097D01*
X76491898Y-136651097D02*
X76641898Y-136746335D01*
X76641898Y-136746335D02*
X76716898Y-136889192D01*
X76716898Y-136889192D02*
X76716898Y-136984430D01*
X76716898Y-136984430D02*
X76641898Y-137127287D01*
X76641898Y-137127287D02*
X76566898Y-137174906D01*
X76191898Y-138032049D02*
X75141898Y-138032049D01*
X76791898Y-137793954D02*
X75666898Y-137555859D01*
X75666898Y-137555859D02*
X75666898Y-138174906D01*
X72606236Y-135746335D02*
X74181236Y-135746335D01*
X74181236Y-135746335D02*
X74181236Y-136127287D01*
X74181236Y-136127287D02*
X74106236Y-136222525D01*
X74106236Y-136222525D02*
X74031236Y-136270144D01*
X74031236Y-136270144D02*
X73881236Y-136317763D01*
X73881236Y-136317763D02*
X73656236Y-136317763D01*
X73656236Y-136317763D02*
X73506236Y-136270144D01*
X73506236Y-136270144D02*
X73431236Y-136222525D01*
X73431236Y-136222525D02*
X73356236Y-136127287D01*
X73356236Y-136127287D02*
X73356236Y-135746335D01*
X73056236Y-136698716D02*
X73056236Y-137174906D01*
X72606236Y-136603478D02*
X74181236Y-136936811D01*
X74181236Y-136936811D02*
X72606236Y-137270144D01*
X74181236Y-137508240D02*
X74181236Y-138174906D01*
X74181236Y-138174906D02*
X72606236Y-137746335D01*
X70070574Y-135746335D02*
X71645574Y-135746335D01*
X71645574Y-135746335D02*
X71645574Y-136127287D01*
X71645574Y-136127287D02*
X71570574Y-136222525D01*
X71570574Y-136222525D02*
X71495574Y-136270144D01*
X71495574Y-136270144D02*
X71345574Y-136317763D01*
X71345574Y-136317763D02*
X71120574Y-136317763D01*
X71120574Y-136317763D02*
X70970574Y-136270144D01*
X70970574Y-136270144D02*
X70895574Y-136222525D01*
X70895574Y-136222525D02*
X70820574Y-136127287D01*
X70820574Y-136127287D02*
X70820574Y-135746335D01*
X70520574Y-136698716D02*
X70520574Y-137174906D01*
X70070574Y-136603478D02*
X71645574Y-136936811D01*
X71645574Y-136936811D02*
X70070574Y-137270144D01*
X71645574Y-138032049D02*
X71645574Y-137841573D01*
X71645574Y-137841573D02*
X71570574Y-137746335D01*
X71570574Y-137746335D02*
X71495574Y-137698716D01*
X71495574Y-137698716D02*
X71270574Y-137603478D01*
X71270574Y-137603478D02*
X70970574Y-137555859D01*
X70970574Y-137555859D02*
X70370574Y-137555859D01*
X70370574Y-137555859D02*
X70220574Y-137603478D01*
X70220574Y-137603478D02*
X70145574Y-137651097D01*
X70145574Y-137651097D02*
X70070574Y-137746335D01*
X70070574Y-137746335D02*
X70070574Y-137936811D01*
X70070574Y-137936811D02*
X70145574Y-138032049D01*
X70145574Y-138032049D02*
X70220574Y-138079668D01*
X70220574Y-138079668D02*
X70370574Y-138127287D01*
X70370574Y-138127287D02*
X70745574Y-138127287D01*
X70745574Y-138127287D02*
X70895574Y-138079668D01*
X70895574Y-138079668D02*
X70970574Y-138032049D01*
X70970574Y-138032049D02*
X71045574Y-137936811D01*
X71045574Y-137936811D02*
X71045574Y-137746335D01*
X71045574Y-137746335D02*
X70970574Y-137651097D01*
X70970574Y-137651097D02*
X70895574Y-137603478D01*
X70895574Y-137603478D02*
X70745574Y-137555859D01*
X69109912Y-135793954D02*
X69109912Y-136413001D01*
X69109912Y-136413001D02*
X68509912Y-136079668D01*
X68509912Y-136079668D02*
X68509912Y-136222525D01*
X68509912Y-136222525D02*
X68434912Y-136317763D01*
X68434912Y-136317763D02*
X68359912Y-136365382D01*
X68359912Y-136365382D02*
X68209912Y-136413001D01*
X68209912Y-136413001D02*
X67834912Y-136413001D01*
X67834912Y-136413001D02*
X67684912Y-136365382D01*
X67684912Y-136365382D02*
X67609912Y-136317763D01*
X67609912Y-136317763D02*
X67534912Y-136222525D01*
X67534912Y-136222525D02*
X67534912Y-135936811D01*
X67534912Y-135936811D02*
X67609912Y-135841573D01*
X67609912Y-135841573D02*
X67684912Y-135793954D01*
X68584912Y-136746335D02*
X67534912Y-136984430D01*
X67534912Y-136984430D02*
X68584912Y-137222525D01*
X69109912Y-137508240D02*
X69109912Y-138127287D01*
X69109912Y-138127287D02*
X68509912Y-137793954D01*
X68509912Y-137793954D02*
X68509912Y-137936811D01*
X68509912Y-137936811D02*
X68434912Y-138032049D01*
X68434912Y-138032049D02*
X68359912Y-138079668D01*
X68359912Y-138079668D02*
X68209912Y-138127287D01*
X68209912Y-138127287D02*
X67834912Y-138127287D01*
X67834912Y-138127287D02*
X67684912Y-138079668D01*
X67684912Y-138079668D02*
X67609912Y-138032049D01*
X67609912Y-138032049D02*
X67534912Y-137936811D01*
X67534912Y-137936811D02*
X67534912Y-137651097D01*
X67534912Y-137651097D02*
X67609912Y-137555859D01*
X67609912Y-137555859D02*
X67684912Y-137508240D01*
X66499250Y-136032049D02*
X66574250Y-135936811D01*
X66574250Y-135936811D02*
X66574250Y-135793954D01*
X66574250Y-135793954D02*
X66499250Y-135651097D01*
X66499250Y-135651097D02*
X66349250Y-135555859D01*
X66349250Y-135555859D02*
X66199250Y-135508240D01*
X66199250Y-135508240D02*
X65899250Y-135460621D01*
X65899250Y-135460621D02*
X65674250Y-135460621D01*
X65674250Y-135460621D02*
X65374250Y-135508240D01*
X65374250Y-135508240D02*
X65224250Y-135555859D01*
X65224250Y-135555859D02*
X65074250Y-135651097D01*
X65074250Y-135651097D02*
X64999250Y-135793954D01*
X64999250Y-135793954D02*
X64999250Y-135889192D01*
X64999250Y-135889192D02*
X65074250Y-136032049D01*
X65074250Y-136032049D02*
X65149250Y-136079668D01*
X65149250Y-136079668D02*
X65674250Y-136079668D01*
X65674250Y-136079668D02*
X65674250Y-135889192D01*
X64999250Y-136508240D02*
X66574250Y-136508240D01*
X66574250Y-136508240D02*
X64999250Y-137079668D01*
X64999250Y-137079668D02*
X66574250Y-137079668D01*
X64999250Y-137555859D02*
X66574250Y-137555859D01*
X66574250Y-137555859D02*
X66574250Y-137793954D01*
X66574250Y-137793954D02*
X66499250Y-137936811D01*
X66499250Y-137936811D02*
X66349250Y-138032049D01*
X66349250Y-138032049D02*
X66199250Y-138079668D01*
X66199250Y-138079668D02*
X65899250Y-138127287D01*
X65899250Y-138127287D02*
X65674250Y-138127287D01*
X65674250Y-138127287D02*
X65374250Y-138079668D01*
X65374250Y-138079668D02*
X65224250Y-138032049D01*
X65224250Y-138032049D02*
X65074250Y-137936811D01*
X65074250Y-137936811D02*
X64999250Y-137793954D01*
X64999250Y-137793954D02*
X64999250Y-137555859D01*
X117179668Y-84730158D02*
X117084430Y-84655158D01*
X117084430Y-84655158D02*
X116941573Y-84655158D01*
X116941573Y-84655158D02*
X116798716Y-84730158D01*
X116798716Y-84730158D02*
X116703478Y-84880158D01*
X116703478Y-84880158D02*
X116655859Y-85030158D01*
X116655859Y-85030158D02*
X116608240Y-85330158D01*
X116608240Y-85330158D02*
X116608240Y-85555158D01*
X116608240Y-85555158D02*
X116655859Y-85855158D01*
X116655859Y-85855158D02*
X116703478Y-86005158D01*
X116703478Y-86005158D02*
X116798716Y-86155158D01*
X116798716Y-86155158D02*
X116941573Y-86230158D01*
X116941573Y-86230158D02*
X117036811Y-86230158D01*
X117036811Y-86230158D02*
X117179668Y-86155158D01*
X117179668Y-86155158D02*
X117227287Y-86080158D01*
X117227287Y-86080158D02*
X117227287Y-85555158D01*
X117227287Y-85555158D02*
X117036811Y-85555158D01*
X114798716Y-87190820D02*
X115417763Y-87190820D01*
X115417763Y-87190820D02*
X115084430Y-87790820D01*
X115084430Y-87790820D02*
X115227287Y-87790820D01*
X115227287Y-87790820D02*
X115322525Y-87865820D01*
X115322525Y-87865820D02*
X115370144Y-87940820D01*
X115370144Y-87940820D02*
X115417763Y-88090820D01*
X115417763Y-88090820D02*
X115417763Y-88465820D01*
X115417763Y-88465820D02*
X115370144Y-88615820D01*
X115370144Y-88615820D02*
X115322525Y-88690820D01*
X115322525Y-88690820D02*
X115227287Y-88765820D01*
X115227287Y-88765820D02*
X114941573Y-88765820D01*
X114941573Y-88765820D02*
X114846335Y-88690820D01*
X114846335Y-88690820D02*
X114798716Y-88615820D01*
X115703478Y-87190820D02*
X116036811Y-88765820D01*
X116036811Y-88765820D02*
X116370144Y-87190820D01*
X116608240Y-87190820D02*
X117227287Y-87190820D01*
X117227287Y-87190820D02*
X116893954Y-87790820D01*
X116893954Y-87790820D02*
X117036811Y-87790820D01*
X117036811Y-87790820D02*
X117132049Y-87865820D01*
X117132049Y-87865820D02*
X117179668Y-87940820D01*
X117179668Y-87940820D02*
X117227287Y-88090820D01*
X117227287Y-88090820D02*
X117227287Y-88465820D01*
X117227287Y-88465820D02*
X117179668Y-88615820D01*
X117179668Y-88615820D02*
X117132049Y-88690820D01*
X117132049Y-88690820D02*
X117036811Y-88765820D01*
X117036811Y-88765820D02*
X116751097Y-88765820D01*
X116751097Y-88765820D02*
X116655859Y-88690820D01*
X116655859Y-88690820D02*
X116608240Y-88615820D01*
X113893954Y-91301482D02*
X113893954Y-89726482D01*
X113893954Y-89726482D02*
X114274906Y-89726482D01*
X114274906Y-89726482D02*
X114370144Y-89801482D01*
X114370144Y-89801482D02*
X114417763Y-89876482D01*
X114417763Y-89876482D02*
X114465382Y-90026482D01*
X114465382Y-90026482D02*
X114465382Y-90251482D01*
X114465382Y-90251482D02*
X114417763Y-90401482D01*
X114417763Y-90401482D02*
X114370144Y-90476482D01*
X114370144Y-90476482D02*
X114274906Y-90551482D01*
X114274906Y-90551482D02*
X113893954Y-90551482D01*
X114846335Y-90851482D02*
X115322525Y-90851482D01*
X114751097Y-91301482D02*
X115084430Y-89726482D01*
X115084430Y-89726482D02*
X115417763Y-91301482D01*
X116274906Y-91301482D02*
X115703478Y-91301482D01*
X115989192Y-91301482D02*
X115989192Y-89726482D01*
X115989192Y-89726482D02*
X115893954Y-89951482D01*
X115893954Y-89951482D02*
X115798716Y-90101482D01*
X115798716Y-90101482D02*
X115703478Y-90176482D01*
X116893954Y-89726482D02*
X116989192Y-89726482D01*
X116989192Y-89726482D02*
X117084430Y-89801482D01*
X117084430Y-89801482D02*
X117132049Y-89876482D01*
X117132049Y-89876482D02*
X117179668Y-90026482D01*
X117179668Y-90026482D02*
X117227287Y-90326482D01*
X117227287Y-90326482D02*
X117227287Y-90701482D01*
X117227287Y-90701482D02*
X117179668Y-91001482D01*
X117179668Y-91001482D02*
X117132049Y-91151482D01*
X117132049Y-91151482D02*
X117084430Y-91226482D01*
X117084430Y-91226482D02*
X116989192Y-91301482D01*
X116989192Y-91301482D02*
X116893954Y-91301482D01*
X116893954Y-91301482D02*
X116798716Y-91226482D01*
X116798716Y-91226482D02*
X116751097Y-91151482D01*
X116751097Y-91151482D02*
X116703478Y-91001482D01*
X116703478Y-91001482D02*
X116655859Y-90701482D01*
X116655859Y-90701482D02*
X116655859Y-90326482D01*
X116655859Y-90326482D02*
X116703478Y-90026482D01*
X116703478Y-90026482D02*
X116751097Y-89876482D01*
X116751097Y-89876482D02*
X116798716Y-89801482D01*
X116798716Y-89801482D02*
X116893954Y-89726482D01*
X114846335Y-93837144D02*
X114846335Y-92262144D01*
X114846335Y-92262144D02*
X115227287Y-92262144D01*
X115227287Y-92262144D02*
X115322525Y-92337144D01*
X115322525Y-92337144D02*
X115370144Y-92412144D01*
X115370144Y-92412144D02*
X115417763Y-92562144D01*
X115417763Y-92562144D02*
X115417763Y-92787144D01*
X115417763Y-92787144D02*
X115370144Y-92937144D01*
X115370144Y-92937144D02*
X115322525Y-93012144D01*
X115322525Y-93012144D02*
X115227287Y-93087144D01*
X115227287Y-93087144D02*
X114846335Y-93087144D01*
X115798716Y-93387144D02*
X116274906Y-93387144D01*
X115703478Y-93837144D02*
X116036811Y-92262144D01*
X116036811Y-92262144D02*
X116370144Y-93837144D01*
X116751097Y-93837144D02*
X116941573Y-93837144D01*
X116941573Y-93837144D02*
X117036811Y-93762144D01*
X117036811Y-93762144D02*
X117084430Y-93687144D01*
X117084430Y-93687144D02*
X117179668Y-93462144D01*
X117179668Y-93462144D02*
X117227287Y-93162144D01*
X117227287Y-93162144D02*
X117227287Y-92562144D01*
X117227287Y-92562144D02*
X117179668Y-92412144D01*
X117179668Y-92412144D02*
X117132049Y-92337144D01*
X117132049Y-92337144D02*
X117036811Y-92262144D01*
X117036811Y-92262144D02*
X116846335Y-92262144D01*
X116846335Y-92262144D02*
X116751097Y-92337144D01*
X116751097Y-92337144D02*
X116703478Y-92412144D01*
X116703478Y-92412144D02*
X116655859Y-92562144D01*
X116655859Y-92562144D02*
X116655859Y-92937144D01*
X116655859Y-92937144D02*
X116703478Y-93087144D01*
X116703478Y-93087144D02*
X116751097Y-93162144D01*
X116751097Y-93162144D02*
X116846335Y-93237144D01*
X116846335Y-93237144D02*
X117036811Y-93237144D01*
X117036811Y-93237144D02*
X117132049Y-93162144D01*
X117132049Y-93162144D02*
X117179668Y-93087144D01*
X117179668Y-93087144D02*
X117227287Y-92937144D01*
X114846335Y-96372806D02*
X114846335Y-94797806D01*
X114846335Y-94797806D02*
X115227287Y-94797806D01*
X115227287Y-94797806D02*
X115322525Y-94872806D01*
X115322525Y-94872806D02*
X115370144Y-94947806D01*
X115370144Y-94947806D02*
X115417763Y-95097806D01*
X115417763Y-95097806D02*
X115417763Y-95322806D01*
X115417763Y-95322806D02*
X115370144Y-95472806D01*
X115370144Y-95472806D02*
X115322525Y-95547806D01*
X115322525Y-95547806D02*
X115227287Y-95622806D01*
X115227287Y-95622806D02*
X114846335Y-95622806D01*
X115798716Y-95922806D02*
X116274906Y-95922806D01*
X115703478Y-96372806D02*
X116036811Y-94797806D01*
X116036811Y-94797806D02*
X116370144Y-96372806D01*
X116846335Y-95472806D02*
X116751097Y-95397806D01*
X116751097Y-95397806D02*
X116703478Y-95322806D01*
X116703478Y-95322806D02*
X116655859Y-95172806D01*
X116655859Y-95172806D02*
X116655859Y-95097806D01*
X116655859Y-95097806D02*
X116703478Y-94947806D01*
X116703478Y-94947806D02*
X116751097Y-94872806D01*
X116751097Y-94872806D02*
X116846335Y-94797806D01*
X116846335Y-94797806D02*
X117036811Y-94797806D01*
X117036811Y-94797806D02*
X117132049Y-94872806D01*
X117132049Y-94872806D02*
X117179668Y-94947806D01*
X117179668Y-94947806D02*
X117227287Y-95097806D01*
X117227287Y-95097806D02*
X117227287Y-95172806D01*
X117227287Y-95172806D02*
X117179668Y-95322806D01*
X117179668Y-95322806D02*
X117132049Y-95397806D01*
X117132049Y-95397806D02*
X117036811Y-95472806D01*
X117036811Y-95472806D02*
X116846335Y-95472806D01*
X116846335Y-95472806D02*
X116751097Y-95547806D01*
X116751097Y-95547806D02*
X116703478Y-95622806D01*
X116703478Y-95622806D02*
X116655859Y-95772806D01*
X116655859Y-95772806D02*
X116655859Y-96072806D01*
X116655859Y-96072806D02*
X116703478Y-96222806D01*
X116703478Y-96222806D02*
X116751097Y-96297806D01*
X116751097Y-96297806D02*
X116846335Y-96372806D01*
X116846335Y-96372806D02*
X117036811Y-96372806D01*
X117036811Y-96372806D02*
X117132049Y-96297806D01*
X117132049Y-96297806D02*
X117179668Y-96222806D01*
X117179668Y-96222806D02*
X117227287Y-96072806D01*
X117227287Y-96072806D02*
X117227287Y-95772806D01*
X117227287Y-95772806D02*
X117179668Y-95622806D01*
X117179668Y-95622806D02*
X117132049Y-95547806D01*
X117132049Y-95547806D02*
X117036811Y-95472806D01*
X114703478Y-98908468D02*
X114703478Y-97333468D01*
X114703478Y-97333468D02*
X115084430Y-97333468D01*
X115084430Y-97333468D02*
X115179668Y-97408468D01*
X115179668Y-97408468D02*
X115227287Y-97483468D01*
X115227287Y-97483468D02*
X115274906Y-97633468D01*
X115274906Y-97633468D02*
X115274906Y-97858468D01*
X115274906Y-97858468D02*
X115227287Y-98008468D01*
X115227287Y-98008468D02*
X115179668Y-98083468D01*
X115179668Y-98083468D02*
X115084430Y-98158468D01*
X115084430Y-98158468D02*
X114703478Y-98158468D01*
X116274906Y-98758468D02*
X116227287Y-98833468D01*
X116227287Y-98833468D02*
X116084430Y-98908468D01*
X116084430Y-98908468D02*
X115989192Y-98908468D01*
X115989192Y-98908468D02*
X115846335Y-98833468D01*
X115846335Y-98833468D02*
X115751097Y-98683468D01*
X115751097Y-98683468D02*
X115703478Y-98533468D01*
X115703478Y-98533468D02*
X115655859Y-98233468D01*
X115655859Y-98233468D02*
X115655859Y-98008468D01*
X115655859Y-98008468D02*
X115703478Y-97708468D01*
X115703478Y-97708468D02*
X115751097Y-97558468D01*
X115751097Y-97558468D02*
X115846335Y-97408468D01*
X115846335Y-97408468D02*
X115989192Y-97333468D01*
X115989192Y-97333468D02*
X116084430Y-97333468D01*
X116084430Y-97333468D02*
X116227287Y-97408468D01*
X116227287Y-97408468D02*
X116274906Y-97483468D01*
X116751097Y-98908468D02*
X116941573Y-98908468D01*
X116941573Y-98908468D02*
X117036811Y-98833468D01*
X117036811Y-98833468D02*
X117084430Y-98758468D01*
X117084430Y-98758468D02*
X117179668Y-98533468D01*
X117179668Y-98533468D02*
X117227287Y-98233468D01*
X117227287Y-98233468D02*
X117227287Y-97633468D01*
X117227287Y-97633468D02*
X117179668Y-97483468D01*
X117179668Y-97483468D02*
X117132049Y-97408468D01*
X117132049Y-97408468D02*
X117036811Y-97333468D01*
X117036811Y-97333468D02*
X116846335Y-97333468D01*
X116846335Y-97333468D02*
X116751097Y-97408468D01*
X116751097Y-97408468D02*
X116703478Y-97483468D01*
X116703478Y-97483468D02*
X116655859Y-97633468D01*
X116655859Y-97633468D02*
X116655859Y-98008468D01*
X116655859Y-98008468D02*
X116703478Y-98158468D01*
X116703478Y-98158468D02*
X116751097Y-98233468D01*
X116751097Y-98233468D02*
X116846335Y-98308468D01*
X116846335Y-98308468D02*
X117036811Y-98308468D01*
X117036811Y-98308468D02*
X117132049Y-98233468D01*
X117132049Y-98233468D02*
X117179668Y-98158468D01*
X117179668Y-98158468D02*
X117227287Y-98008468D01*
X114703478Y-101444130D02*
X114703478Y-99869130D01*
X114703478Y-99869130D02*
X115084430Y-99869130D01*
X115084430Y-99869130D02*
X115179668Y-99944130D01*
X115179668Y-99944130D02*
X115227287Y-100019130D01*
X115227287Y-100019130D02*
X115274906Y-100169130D01*
X115274906Y-100169130D02*
X115274906Y-100394130D01*
X115274906Y-100394130D02*
X115227287Y-100544130D01*
X115227287Y-100544130D02*
X115179668Y-100619130D01*
X115179668Y-100619130D02*
X115084430Y-100694130D01*
X115084430Y-100694130D02*
X114703478Y-100694130D01*
X116274906Y-101294130D02*
X116227287Y-101369130D01*
X116227287Y-101369130D02*
X116084430Y-101444130D01*
X116084430Y-101444130D02*
X115989192Y-101444130D01*
X115989192Y-101444130D02*
X115846335Y-101369130D01*
X115846335Y-101369130D02*
X115751097Y-101219130D01*
X115751097Y-101219130D02*
X115703478Y-101069130D01*
X115703478Y-101069130D02*
X115655859Y-100769130D01*
X115655859Y-100769130D02*
X115655859Y-100544130D01*
X115655859Y-100544130D02*
X115703478Y-100244130D01*
X115703478Y-100244130D02*
X115751097Y-100094130D01*
X115751097Y-100094130D02*
X115846335Y-99944130D01*
X115846335Y-99944130D02*
X115989192Y-99869130D01*
X115989192Y-99869130D02*
X116084430Y-99869130D01*
X116084430Y-99869130D02*
X116227287Y-99944130D01*
X116227287Y-99944130D02*
X116274906Y-100019130D01*
X116846335Y-100544130D02*
X116751097Y-100469130D01*
X116751097Y-100469130D02*
X116703478Y-100394130D01*
X116703478Y-100394130D02*
X116655859Y-100244130D01*
X116655859Y-100244130D02*
X116655859Y-100169130D01*
X116655859Y-100169130D02*
X116703478Y-100019130D01*
X116703478Y-100019130D02*
X116751097Y-99944130D01*
X116751097Y-99944130D02*
X116846335Y-99869130D01*
X116846335Y-99869130D02*
X117036811Y-99869130D01*
X117036811Y-99869130D02*
X117132049Y-99944130D01*
X117132049Y-99944130D02*
X117179668Y-100019130D01*
X117179668Y-100019130D02*
X117227287Y-100169130D01*
X117227287Y-100169130D02*
X117227287Y-100244130D01*
X117227287Y-100244130D02*
X117179668Y-100394130D01*
X117179668Y-100394130D02*
X117132049Y-100469130D01*
X117132049Y-100469130D02*
X117036811Y-100544130D01*
X117036811Y-100544130D02*
X116846335Y-100544130D01*
X116846335Y-100544130D02*
X116751097Y-100619130D01*
X116751097Y-100619130D02*
X116703478Y-100694130D01*
X116703478Y-100694130D02*
X116655859Y-100844130D01*
X116655859Y-100844130D02*
X116655859Y-101144130D01*
X116655859Y-101144130D02*
X116703478Y-101294130D01*
X116703478Y-101294130D02*
X116751097Y-101369130D01*
X116751097Y-101369130D02*
X116846335Y-101444130D01*
X116846335Y-101444130D02*
X117036811Y-101444130D01*
X117036811Y-101444130D02*
X117132049Y-101369130D01*
X117132049Y-101369130D02*
X117179668Y-101294130D01*
X117179668Y-101294130D02*
X117227287Y-101144130D01*
X117227287Y-101144130D02*
X117227287Y-100844130D01*
X117227287Y-100844130D02*
X117179668Y-100694130D01*
X117179668Y-100694130D02*
X117132049Y-100619130D01*
X117132049Y-100619130D02*
X117036811Y-100544130D01*
X115132049Y-102479792D02*
X115036811Y-102404792D01*
X115036811Y-102404792D02*
X114893954Y-102404792D01*
X114893954Y-102404792D02*
X114751097Y-102479792D01*
X114751097Y-102479792D02*
X114655859Y-102629792D01*
X114655859Y-102629792D02*
X114608240Y-102779792D01*
X114608240Y-102779792D02*
X114560621Y-103079792D01*
X114560621Y-103079792D02*
X114560621Y-103304792D01*
X114560621Y-103304792D02*
X114608240Y-103604792D01*
X114608240Y-103604792D02*
X114655859Y-103754792D01*
X114655859Y-103754792D02*
X114751097Y-103904792D01*
X114751097Y-103904792D02*
X114893954Y-103979792D01*
X114893954Y-103979792D02*
X114989192Y-103979792D01*
X114989192Y-103979792D02*
X115132049Y-103904792D01*
X115132049Y-103904792D02*
X115179668Y-103829792D01*
X115179668Y-103829792D02*
X115179668Y-103304792D01*
X115179668Y-103304792D02*
X114989192Y-103304792D01*
X115608240Y-103979792D02*
X115608240Y-102404792D01*
X115608240Y-102404792D02*
X116179668Y-103979792D01*
X116179668Y-103979792D02*
X116179668Y-102404792D01*
X116655859Y-103979792D02*
X116655859Y-102404792D01*
X116655859Y-102404792D02*
X116893954Y-102404792D01*
X116893954Y-102404792D02*
X117036811Y-102479792D01*
X117036811Y-102479792D02*
X117132049Y-102629792D01*
X117132049Y-102629792D02*
X117179668Y-102779792D01*
X117179668Y-102779792D02*
X117227287Y-103079792D01*
X117227287Y-103079792D02*
X117227287Y-103304792D01*
X117227287Y-103304792D02*
X117179668Y-103604792D01*
X117179668Y-103604792D02*
X117132049Y-103754792D01*
X117132049Y-103754792D02*
X117036811Y-103904792D01*
X117036811Y-103904792D02*
X116893954Y-103979792D01*
X116893954Y-103979792D02*
X116655859Y-103979792D01*
X115465383Y-105915454D02*
X116227288Y-105915454D01*
X115846335Y-106515454D02*
X115846335Y-105315454D01*
X117179668Y-104940454D02*
X116703478Y-104940454D01*
X116703478Y-104940454D02*
X116655859Y-105690454D01*
X116655859Y-105690454D02*
X116703478Y-105615454D01*
X116703478Y-105615454D02*
X116798716Y-105540454D01*
X116798716Y-105540454D02*
X117036811Y-105540454D01*
X117036811Y-105540454D02*
X117132049Y-105615454D01*
X117132049Y-105615454D02*
X117179668Y-105690454D01*
X117179668Y-105690454D02*
X117227287Y-105840454D01*
X117227287Y-105840454D02*
X117227287Y-106215454D01*
X117227287Y-106215454D02*
X117179668Y-106365454D01*
X117179668Y-106365454D02*
X117132049Y-106440454D01*
X117132049Y-106440454D02*
X117036811Y-106515454D01*
X117036811Y-106515454D02*
X116798716Y-106515454D01*
X116798716Y-106515454D02*
X116703478Y-106440454D01*
X116703478Y-106440454D02*
X116655859Y-106365454D01*
X114893954Y-107476116D02*
X115513001Y-107476116D01*
X115513001Y-107476116D02*
X115179668Y-108076116D01*
X115179668Y-108076116D02*
X115322525Y-108076116D01*
X115322525Y-108076116D02*
X115417763Y-108151116D01*
X115417763Y-108151116D02*
X115465382Y-108226116D01*
X115465382Y-108226116D02*
X115513001Y-108376116D01*
X115513001Y-108376116D02*
X115513001Y-108751116D01*
X115513001Y-108751116D02*
X115465382Y-108901116D01*
X115465382Y-108901116D02*
X115417763Y-108976116D01*
X115417763Y-108976116D02*
X115322525Y-109051116D01*
X115322525Y-109051116D02*
X115036811Y-109051116D01*
X115036811Y-109051116D02*
X114941573Y-108976116D01*
X114941573Y-108976116D02*
X114893954Y-108901116D01*
X115846335Y-108001116D02*
X116084430Y-109051116D01*
X116084430Y-109051116D02*
X116322525Y-108001116D01*
X116608240Y-107476116D02*
X117227287Y-107476116D01*
X117227287Y-107476116D02*
X116893954Y-108076116D01*
X116893954Y-108076116D02*
X117036811Y-108076116D01*
X117036811Y-108076116D02*
X117132049Y-108151116D01*
X117132049Y-108151116D02*
X117179668Y-108226116D01*
X117179668Y-108226116D02*
X117227287Y-108376116D01*
X117227287Y-108376116D02*
X117227287Y-108751116D01*
X117227287Y-108751116D02*
X117179668Y-108901116D01*
X117179668Y-108901116D02*
X117132049Y-108976116D01*
X117132049Y-108976116D02*
X117036811Y-109051116D01*
X117036811Y-109051116D02*
X116751097Y-109051116D01*
X116751097Y-109051116D02*
X116655859Y-108976116D01*
X116655859Y-108976116D02*
X116608240Y-108901116D01*
X115132049Y-110086778D02*
X115036811Y-110011778D01*
X115036811Y-110011778D02*
X114893954Y-110011778D01*
X114893954Y-110011778D02*
X114751097Y-110086778D01*
X114751097Y-110086778D02*
X114655859Y-110236778D01*
X114655859Y-110236778D02*
X114608240Y-110386778D01*
X114608240Y-110386778D02*
X114560621Y-110686778D01*
X114560621Y-110686778D02*
X114560621Y-110911778D01*
X114560621Y-110911778D02*
X114608240Y-111211778D01*
X114608240Y-111211778D02*
X114655859Y-111361778D01*
X114655859Y-111361778D02*
X114751097Y-111511778D01*
X114751097Y-111511778D02*
X114893954Y-111586778D01*
X114893954Y-111586778D02*
X114989192Y-111586778D01*
X114989192Y-111586778D02*
X115132049Y-111511778D01*
X115132049Y-111511778D02*
X115179668Y-111436778D01*
X115179668Y-111436778D02*
X115179668Y-110911778D01*
X115179668Y-110911778D02*
X114989192Y-110911778D01*
X115608240Y-111586778D02*
X115608240Y-110011778D01*
X115608240Y-110011778D02*
X116179668Y-111586778D01*
X116179668Y-111586778D02*
X116179668Y-110011778D01*
X116655859Y-111586778D02*
X116655859Y-110011778D01*
X116655859Y-110011778D02*
X116893954Y-110011778D01*
X116893954Y-110011778D02*
X117036811Y-110086778D01*
X117036811Y-110086778D02*
X117132049Y-110236778D01*
X117132049Y-110236778D02*
X117179668Y-110386778D01*
X117179668Y-110386778D02*
X117227287Y-110686778D01*
X117227287Y-110686778D02*
X117227287Y-110911778D01*
X117227287Y-110911778D02*
X117179668Y-111211778D01*
X117179668Y-111211778D02*
X117132049Y-111361778D01*
X117132049Y-111361778D02*
X117036811Y-111511778D01*
X117036811Y-111511778D02*
X116893954Y-111586778D01*
X116893954Y-111586778D02*
X116655859Y-111586778D01*
X114703478Y-114122440D02*
X114703478Y-112547440D01*
X114703478Y-112547440D02*
X115084430Y-112547440D01*
X115084430Y-112547440D02*
X115179668Y-112622440D01*
X115179668Y-112622440D02*
X115227287Y-112697440D01*
X115227287Y-112697440D02*
X115274906Y-112847440D01*
X115274906Y-112847440D02*
X115274906Y-113072440D01*
X115274906Y-113072440D02*
X115227287Y-113222440D01*
X115227287Y-113222440D02*
X115179668Y-113297440D01*
X115179668Y-113297440D02*
X115084430Y-113372440D01*
X115084430Y-113372440D02*
X114703478Y-113372440D01*
X116274906Y-113972440D02*
X116227287Y-114047440D01*
X116227287Y-114047440D02*
X116084430Y-114122440D01*
X116084430Y-114122440D02*
X115989192Y-114122440D01*
X115989192Y-114122440D02*
X115846335Y-114047440D01*
X115846335Y-114047440D02*
X115751097Y-113897440D01*
X115751097Y-113897440D02*
X115703478Y-113747440D01*
X115703478Y-113747440D02*
X115655859Y-113447440D01*
X115655859Y-113447440D02*
X115655859Y-113222440D01*
X115655859Y-113222440D02*
X115703478Y-112922440D01*
X115703478Y-112922440D02*
X115751097Y-112772440D01*
X115751097Y-112772440D02*
X115846335Y-112622440D01*
X115846335Y-112622440D02*
X115989192Y-112547440D01*
X115989192Y-112547440D02*
X116084430Y-112547440D01*
X116084430Y-112547440D02*
X116227287Y-112622440D01*
X116227287Y-112622440D02*
X116274906Y-112697440D01*
X116608240Y-112547440D02*
X117274906Y-112547440D01*
X117274906Y-112547440D02*
X116846335Y-114122440D01*
X114703478Y-116658102D02*
X114703478Y-115083102D01*
X114703478Y-115083102D02*
X115084430Y-115083102D01*
X115084430Y-115083102D02*
X115179668Y-115158102D01*
X115179668Y-115158102D02*
X115227287Y-115233102D01*
X115227287Y-115233102D02*
X115274906Y-115383102D01*
X115274906Y-115383102D02*
X115274906Y-115608102D01*
X115274906Y-115608102D02*
X115227287Y-115758102D01*
X115227287Y-115758102D02*
X115179668Y-115833102D01*
X115179668Y-115833102D02*
X115084430Y-115908102D01*
X115084430Y-115908102D02*
X114703478Y-115908102D01*
X116274906Y-116508102D02*
X116227287Y-116583102D01*
X116227287Y-116583102D02*
X116084430Y-116658102D01*
X116084430Y-116658102D02*
X115989192Y-116658102D01*
X115989192Y-116658102D02*
X115846335Y-116583102D01*
X115846335Y-116583102D02*
X115751097Y-116433102D01*
X115751097Y-116433102D02*
X115703478Y-116283102D01*
X115703478Y-116283102D02*
X115655859Y-115983102D01*
X115655859Y-115983102D02*
X115655859Y-115758102D01*
X115655859Y-115758102D02*
X115703478Y-115458102D01*
X115703478Y-115458102D02*
X115751097Y-115308102D01*
X115751097Y-115308102D02*
X115846335Y-115158102D01*
X115846335Y-115158102D02*
X115989192Y-115083102D01*
X115989192Y-115083102D02*
X116084430Y-115083102D01*
X116084430Y-115083102D02*
X116227287Y-115158102D01*
X116227287Y-115158102D02*
X116274906Y-115233102D01*
X117132049Y-115083102D02*
X116941573Y-115083102D01*
X116941573Y-115083102D02*
X116846335Y-115158102D01*
X116846335Y-115158102D02*
X116798716Y-115233102D01*
X116798716Y-115233102D02*
X116703478Y-115458102D01*
X116703478Y-115458102D02*
X116655859Y-115758102D01*
X116655859Y-115758102D02*
X116655859Y-116358102D01*
X116655859Y-116358102D02*
X116703478Y-116508102D01*
X116703478Y-116508102D02*
X116751097Y-116583102D01*
X116751097Y-116583102D02*
X116846335Y-116658102D01*
X116846335Y-116658102D02*
X117036811Y-116658102D01*
X117036811Y-116658102D02*
X117132049Y-116583102D01*
X117132049Y-116583102D02*
X117179668Y-116508102D01*
X117179668Y-116508102D02*
X117227287Y-116358102D01*
X117227287Y-116358102D02*
X117227287Y-115983102D01*
X117227287Y-115983102D02*
X117179668Y-115833102D01*
X117179668Y-115833102D02*
X117132049Y-115758102D01*
X117132049Y-115758102D02*
X117036811Y-115683102D01*
X117036811Y-115683102D02*
X116846335Y-115683102D01*
X116846335Y-115683102D02*
X116751097Y-115758102D01*
X116751097Y-115758102D02*
X116703478Y-115833102D01*
X116703478Y-115833102D02*
X116655859Y-115983102D01*
X113751097Y-119193764D02*
X113751097Y-117618764D01*
X113751097Y-117618764D02*
X114132049Y-117618764D01*
X114132049Y-117618764D02*
X114227287Y-117693764D01*
X114227287Y-117693764D02*
X114274906Y-117768764D01*
X114274906Y-117768764D02*
X114322525Y-117918764D01*
X114322525Y-117918764D02*
X114322525Y-118143764D01*
X114322525Y-118143764D02*
X114274906Y-118293764D01*
X114274906Y-118293764D02*
X114227287Y-118368764D01*
X114227287Y-118368764D02*
X114132049Y-118443764D01*
X114132049Y-118443764D02*
X113751097Y-118443764D01*
X115084430Y-118368764D02*
X115227287Y-118443764D01*
X115227287Y-118443764D02*
X115274906Y-118518764D01*
X115274906Y-118518764D02*
X115322525Y-118668764D01*
X115322525Y-118668764D02*
X115322525Y-118893764D01*
X115322525Y-118893764D02*
X115274906Y-119043764D01*
X115274906Y-119043764D02*
X115227287Y-119118764D01*
X115227287Y-119118764D02*
X115132049Y-119193764D01*
X115132049Y-119193764D02*
X114751097Y-119193764D01*
X114751097Y-119193764D02*
X114751097Y-117618764D01*
X114751097Y-117618764D02*
X115084430Y-117618764D01*
X115084430Y-117618764D02*
X115179668Y-117693764D01*
X115179668Y-117693764D02*
X115227287Y-117768764D01*
X115227287Y-117768764D02*
X115274906Y-117918764D01*
X115274906Y-117918764D02*
X115274906Y-118068764D01*
X115274906Y-118068764D02*
X115227287Y-118218764D01*
X115227287Y-118218764D02*
X115179668Y-118293764D01*
X115179668Y-118293764D02*
X115084430Y-118368764D01*
X115084430Y-118368764D02*
X114751097Y-118368764D01*
X116274906Y-119193764D02*
X115703478Y-119193764D01*
X115989192Y-119193764D02*
X115989192Y-117618764D01*
X115989192Y-117618764D02*
X115893954Y-117843764D01*
X115893954Y-117843764D02*
X115798716Y-117993764D01*
X115798716Y-117993764D02*
X115703478Y-118068764D01*
X117179668Y-117618764D02*
X116703478Y-117618764D01*
X116703478Y-117618764D02*
X116655859Y-118368764D01*
X116655859Y-118368764D02*
X116703478Y-118293764D01*
X116703478Y-118293764D02*
X116798716Y-118218764D01*
X116798716Y-118218764D02*
X117036811Y-118218764D01*
X117036811Y-118218764D02*
X117132049Y-118293764D01*
X117132049Y-118293764D02*
X117179668Y-118368764D01*
X117179668Y-118368764D02*
X117227287Y-118518764D01*
X117227287Y-118518764D02*
X117227287Y-118893764D01*
X117227287Y-118893764D02*
X117179668Y-119043764D01*
X117179668Y-119043764D02*
X117132049Y-119118764D01*
X117132049Y-119118764D02*
X117036811Y-119193764D01*
X117036811Y-119193764D02*
X116798716Y-119193764D01*
X116798716Y-119193764D02*
X116703478Y-119118764D01*
X116703478Y-119118764D02*
X116655859Y-119043764D01*
X113751097Y-121729426D02*
X113751097Y-120154426D01*
X113751097Y-120154426D02*
X114132049Y-120154426D01*
X114132049Y-120154426D02*
X114227287Y-120229426D01*
X114227287Y-120229426D02*
X114274906Y-120304426D01*
X114274906Y-120304426D02*
X114322525Y-120454426D01*
X114322525Y-120454426D02*
X114322525Y-120679426D01*
X114322525Y-120679426D02*
X114274906Y-120829426D01*
X114274906Y-120829426D02*
X114227287Y-120904426D01*
X114227287Y-120904426D02*
X114132049Y-120979426D01*
X114132049Y-120979426D02*
X113751097Y-120979426D01*
X115084430Y-120904426D02*
X115227287Y-120979426D01*
X115227287Y-120979426D02*
X115274906Y-121054426D01*
X115274906Y-121054426D02*
X115322525Y-121204426D01*
X115322525Y-121204426D02*
X115322525Y-121429426D01*
X115322525Y-121429426D02*
X115274906Y-121579426D01*
X115274906Y-121579426D02*
X115227287Y-121654426D01*
X115227287Y-121654426D02*
X115132049Y-121729426D01*
X115132049Y-121729426D02*
X114751097Y-121729426D01*
X114751097Y-121729426D02*
X114751097Y-120154426D01*
X114751097Y-120154426D02*
X115084430Y-120154426D01*
X115084430Y-120154426D02*
X115179668Y-120229426D01*
X115179668Y-120229426D02*
X115227287Y-120304426D01*
X115227287Y-120304426D02*
X115274906Y-120454426D01*
X115274906Y-120454426D02*
X115274906Y-120604426D01*
X115274906Y-120604426D02*
X115227287Y-120754426D01*
X115227287Y-120754426D02*
X115179668Y-120829426D01*
X115179668Y-120829426D02*
X115084430Y-120904426D01*
X115084430Y-120904426D02*
X114751097Y-120904426D01*
X116274906Y-121729426D02*
X115703478Y-121729426D01*
X115989192Y-121729426D02*
X115989192Y-120154426D01*
X115989192Y-120154426D02*
X115893954Y-120379426D01*
X115893954Y-120379426D02*
X115798716Y-120529426D01*
X115798716Y-120529426D02*
X115703478Y-120604426D01*
X117132049Y-120679426D02*
X117132049Y-121729426D01*
X116893954Y-120079426D02*
X116655859Y-121204426D01*
X116655859Y-121204426D02*
X117274906Y-121204426D01*
X113751097Y-124265088D02*
X113751097Y-122690088D01*
X113751097Y-122690088D02*
X114132049Y-122690088D01*
X114132049Y-122690088D02*
X114227287Y-122765088D01*
X114227287Y-122765088D02*
X114274906Y-122840088D01*
X114274906Y-122840088D02*
X114322525Y-122990088D01*
X114322525Y-122990088D02*
X114322525Y-123215088D01*
X114322525Y-123215088D02*
X114274906Y-123365088D01*
X114274906Y-123365088D02*
X114227287Y-123440088D01*
X114227287Y-123440088D02*
X114132049Y-123515088D01*
X114132049Y-123515088D02*
X113751097Y-123515088D01*
X115084430Y-123440088D02*
X115227287Y-123515088D01*
X115227287Y-123515088D02*
X115274906Y-123590088D01*
X115274906Y-123590088D02*
X115322525Y-123740088D01*
X115322525Y-123740088D02*
X115322525Y-123965088D01*
X115322525Y-123965088D02*
X115274906Y-124115088D01*
X115274906Y-124115088D02*
X115227287Y-124190088D01*
X115227287Y-124190088D02*
X115132049Y-124265088D01*
X115132049Y-124265088D02*
X114751097Y-124265088D01*
X114751097Y-124265088D02*
X114751097Y-122690088D01*
X114751097Y-122690088D02*
X115084430Y-122690088D01*
X115084430Y-122690088D02*
X115179668Y-122765088D01*
X115179668Y-122765088D02*
X115227287Y-122840088D01*
X115227287Y-122840088D02*
X115274906Y-122990088D01*
X115274906Y-122990088D02*
X115274906Y-123140088D01*
X115274906Y-123140088D02*
X115227287Y-123290088D01*
X115227287Y-123290088D02*
X115179668Y-123365088D01*
X115179668Y-123365088D02*
X115084430Y-123440088D01*
X115084430Y-123440088D02*
X114751097Y-123440088D01*
X116274906Y-124265088D02*
X115703478Y-124265088D01*
X115989192Y-124265088D02*
X115989192Y-122690088D01*
X115989192Y-122690088D02*
X115893954Y-122915088D01*
X115893954Y-122915088D02*
X115798716Y-123065088D01*
X115798716Y-123065088D02*
X115703478Y-123140088D01*
X116608240Y-122690088D02*
X117227287Y-122690088D01*
X117227287Y-122690088D02*
X116893954Y-123290088D01*
X116893954Y-123290088D02*
X117036811Y-123290088D01*
X117036811Y-123290088D02*
X117132049Y-123365088D01*
X117132049Y-123365088D02*
X117179668Y-123440088D01*
X117179668Y-123440088D02*
X117227287Y-123590088D01*
X117227287Y-123590088D02*
X117227287Y-123965088D01*
X117227287Y-123965088D02*
X117179668Y-124115088D01*
X117179668Y-124115088D02*
X117132049Y-124190088D01*
X117132049Y-124190088D02*
X117036811Y-124265088D01*
X117036811Y-124265088D02*
X116751097Y-124265088D01*
X116751097Y-124265088D02*
X116655859Y-124190088D01*
X116655859Y-124190088D02*
X116608240Y-124115088D01*
X114893954Y-125225750D02*
X115513001Y-125225750D01*
X115513001Y-125225750D02*
X115179668Y-125825750D01*
X115179668Y-125825750D02*
X115322525Y-125825750D01*
X115322525Y-125825750D02*
X115417763Y-125900750D01*
X115417763Y-125900750D02*
X115465382Y-125975750D01*
X115465382Y-125975750D02*
X115513001Y-126125750D01*
X115513001Y-126125750D02*
X115513001Y-126500750D01*
X115513001Y-126500750D02*
X115465382Y-126650750D01*
X115465382Y-126650750D02*
X115417763Y-126725750D01*
X115417763Y-126725750D02*
X115322525Y-126800750D01*
X115322525Y-126800750D02*
X115036811Y-126800750D01*
X115036811Y-126800750D02*
X114941573Y-126725750D01*
X114941573Y-126725750D02*
X114893954Y-126650750D01*
X115846335Y-125750750D02*
X116084430Y-126800750D01*
X116084430Y-126800750D02*
X116322525Y-125750750D01*
X116608240Y-125225750D02*
X117227287Y-125225750D01*
X117227287Y-125225750D02*
X116893954Y-125825750D01*
X116893954Y-125825750D02*
X117036811Y-125825750D01*
X117036811Y-125825750D02*
X117132049Y-125900750D01*
X117132049Y-125900750D02*
X117179668Y-125975750D01*
X117179668Y-125975750D02*
X117227287Y-126125750D01*
X117227287Y-126125750D02*
X117227287Y-126500750D01*
X117227287Y-126500750D02*
X117179668Y-126650750D01*
X117179668Y-126650750D02*
X117132049Y-126725750D01*
X117132049Y-126725750D02*
X117036811Y-126800750D01*
X117036811Y-126800750D02*
X116751097Y-126800750D01*
X116751097Y-126800750D02*
X116655859Y-126725750D01*
X116655859Y-126725750D02*
X116608240Y-126650750D01*
D11*
X110489709Y-130961114D02*
X110994785Y-131466190D01*
X110994785Y-131466190D02*
X111062129Y-131600877D01*
X111062129Y-131600877D02*
X111062129Y-131735564D01*
X111062129Y-131735564D02*
X110994785Y-131870251D01*
X110994785Y-131870251D02*
X110927442Y-131937595D01*
X110860098Y-130725411D02*
X110860098Y-130658068D01*
X110860098Y-130658068D02*
X110893770Y-130557053D01*
X110893770Y-130557053D02*
X111062129Y-130388694D01*
X111062129Y-130388694D02*
X111163144Y-130355022D01*
X111163144Y-130355022D02*
X111230488Y-130355022D01*
X111230488Y-130355022D02*
X111331503Y-130388694D01*
X111331503Y-130388694D02*
X111398846Y-130456037D01*
X111398846Y-130456037D02*
X111466190Y-130590724D01*
X111466190Y-130590724D02*
X111466190Y-131398846D01*
X111466190Y-131398846D02*
X111903923Y-130961114D01*
X91703628Y-92226190D02*
X92179819Y-92226190D01*
X91179819Y-92559523D02*
X91703628Y-92226190D01*
X91703628Y-92226190D02*
X91179819Y-91892857D01*
X91275057Y-91607142D02*
X91227438Y-91559523D01*
X91227438Y-91559523D02*
X91179819Y-91464285D01*
X91179819Y-91464285D02*
X91179819Y-91226190D01*
X91179819Y-91226190D02*
X91227438Y-91130952D01*
X91227438Y-91130952D02*
X91275057Y-91083333D01*
X91275057Y-91083333D02*
X91370295Y-91035714D01*
X91370295Y-91035714D02*
X91465533Y-91035714D01*
X91465533Y-91035714D02*
X91608390Y-91083333D01*
X91608390Y-91083333D02*
X92179819Y-91654761D01*
X92179819Y-91654761D02*
X92179819Y-91035714D01*
X97463095Y-121554819D02*
X97463095Y-122364342D01*
X97463095Y-122364342D02*
X97510714Y-122459580D01*
X97510714Y-122459580D02*
X97558333Y-122507200D01*
X97558333Y-122507200D02*
X97653571Y-122554819D01*
X97653571Y-122554819D02*
X97844047Y-122554819D01*
X97844047Y-122554819D02*
X97939285Y-122507200D01*
X97939285Y-122507200D02*
X97986904Y-122459580D01*
X97986904Y-122459580D02*
X98034523Y-122364342D01*
X98034523Y-122364342D02*
X98034523Y-121554819D01*
X98939285Y-121888152D02*
X98939285Y-122554819D01*
X98701190Y-121507200D02*
X98463095Y-122221485D01*
X98463095Y-122221485D02*
X99082142Y-122221485D01*
X96854819Y-110761904D02*
X97664342Y-110761904D01*
X97664342Y-110761904D02*
X97759580Y-110714285D01*
X97759580Y-110714285D02*
X97807200Y-110666666D01*
X97807200Y-110666666D02*
X97854819Y-110571428D01*
X97854819Y-110571428D02*
X97854819Y-110380952D01*
X97854819Y-110380952D02*
X97807200Y-110285714D01*
X97807200Y-110285714D02*
X97759580Y-110238095D01*
X97759580Y-110238095D02*
X97664342Y-110190476D01*
X97664342Y-110190476D02*
X96854819Y-110190476D01*
X96854819Y-109809523D02*
X96854819Y-109190476D01*
X96854819Y-109190476D02*
X97235771Y-109523809D01*
X97235771Y-109523809D02*
X97235771Y-109380952D01*
X97235771Y-109380952D02*
X97283390Y-109285714D01*
X97283390Y-109285714D02*
X97331009Y-109238095D01*
X97331009Y-109238095D02*
X97426247Y-109190476D01*
X97426247Y-109190476D02*
X97664342Y-109190476D01*
X97664342Y-109190476D02*
X97759580Y-109238095D01*
X97759580Y-109238095D02*
X97807200Y-109285714D01*
X97807200Y-109285714D02*
X97854819Y-109380952D01*
X97854819Y-109380952D02*
X97854819Y-109666666D01*
X97854819Y-109666666D02*
X97807200Y-109761904D01*
X97807200Y-109761904D02*
X97759580Y-109809523D01*
X78238095Y-93154819D02*
X78238095Y-93964342D01*
X78238095Y-93964342D02*
X78285714Y-94059580D01*
X78285714Y-94059580D02*
X78333333Y-94107200D01*
X78333333Y-94107200D02*
X78428571Y-94154819D01*
X78428571Y-94154819D02*
X78619047Y-94154819D01*
X78619047Y-94154819D02*
X78714285Y-94107200D01*
X78714285Y-94107200D02*
X78761904Y-94059580D01*
X78761904Y-94059580D02*
X78809523Y-93964342D01*
X78809523Y-93964342D02*
X78809523Y-93154819D01*
X79238095Y-93250057D02*
X79285714Y-93202438D01*
X79285714Y-93202438D02*
X79380952Y-93154819D01*
X79380952Y-93154819D02*
X79619047Y-93154819D01*
X79619047Y-93154819D02*
X79714285Y-93202438D01*
X79714285Y-93202438D02*
X79761904Y-93250057D01*
X79761904Y-93250057D02*
X79809523Y-93345295D01*
X79809523Y-93345295D02*
X79809523Y-93440533D01*
X79809523Y-93440533D02*
X79761904Y-93583390D01*
X79761904Y-93583390D02*
X79190476Y-94154819D01*
X79190476Y-94154819D02*
X79809523Y-94154819D01*
X106287197Y-127822806D02*
X105714777Y-128395226D01*
X105714777Y-128395226D02*
X105681105Y-128496241D01*
X105681105Y-128496241D02*
X105681105Y-128563585D01*
X105681105Y-128563585D02*
X105714777Y-128664600D01*
X105714777Y-128664600D02*
X105849464Y-128799287D01*
X105849464Y-128799287D02*
X105950479Y-128832959D01*
X105950479Y-128832959D02*
X106017823Y-128832959D01*
X106017823Y-128832959D02*
X106118838Y-128799287D01*
X106118838Y-128799287D02*
X106691258Y-128226867D01*
X106691258Y-129641081D02*
X106287197Y-129237020D01*
X106489227Y-129439050D02*
X107196334Y-128731944D01*
X107196334Y-128731944D02*
X107027975Y-128765615D01*
X107027975Y-128765615D02*
X106893288Y-128765615D01*
X106893288Y-128765615D02*
X106792273Y-128731944D01*
X103842857Y-91681009D02*
X103985714Y-91728628D01*
X103985714Y-91728628D02*
X104033333Y-91776247D01*
X104033333Y-91776247D02*
X104080952Y-91871485D01*
X104080952Y-91871485D02*
X104080952Y-92014342D01*
X104080952Y-92014342D02*
X104033333Y-92109580D01*
X104033333Y-92109580D02*
X103985714Y-92157200D01*
X103985714Y-92157200D02*
X103890476Y-92204819D01*
X103890476Y-92204819D02*
X103509524Y-92204819D01*
X103509524Y-92204819D02*
X103509524Y-91204819D01*
X103509524Y-91204819D02*
X103842857Y-91204819D01*
X103842857Y-91204819D02*
X103938095Y-91252438D01*
X103938095Y-91252438D02*
X103985714Y-91300057D01*
X103985714Y-91300057D02*
X104033333Y-91395295D01*
X104033333Y-91395295D02*
X104033333Y-91490533D01*
X104033333Y-91490533D02*
X103985714Y-91585771D01*
X103985714Y-91585771D02*
X103938095Y-91633390D01*
X103938095Y-91633390D02*
X103842857Y-91681009D01*
X103842857Y-91681009D02*
X103509524Y-91681009D01*
X104700000Y-91204819D02*
X104890476Y-91204819D01*
X104890476Y-91204819D02*
X104985714Y-91252438D01*
X104985714Y-91252438D02*
X105080952Y-91347676D01*
X105080952Y-91347676D02*
X105128571Y-91538152D01*
X105128571Y-91538152D02*
X105128571Y-91871485D01*
X105128571Y-91871485D02*
X105080952Y-92061961D01*
X105080952Y-92061961D02*
X104985714Y-92157200D01*
X104985714Y-92157200D02*
X104890476Y-92204819D01*
X104890476Y-92204819D02*
X104700000Y-92204819D01*
X104700000Y-92204819D02*
X104604762Y-92157200D01*
X104604762Y-92157200D02*
X104509524Y-92061961D01*
X104509524Y-92061961D02*
X104461905Y-91871485D01*
X104461905Y-91871485D02*
X104461905Y-91538152D01*
X104461905Y-91538152D02*
X104509524Y-91347676D01*
X104509524Y-91347676D02*
X104604762Y-91252438D01*
X104604762Y-91252438D02*
X104700000Y-91204819D01*
X105747619Y-91204819D02*
X105938095Y-91204819D01*
X105938095Y-91204819D02*
X106033333Y-91252438D01*
X106033333Y-91252438D02*
X106128571Y-91347676D01*
X106128571Y-91347676D02*
X106176190Y-91538152D01*
X106176190Y-91538152D02*
X106176190Y-91871485D01*
X106176190Y-91871485D02*
X106128571Y-92061961D01*
X106128571Y-92061961D02*
X106033333Y-92157200D01*
X106033333Y-92157200D02*
X105938095Y-92204819D01*
X105938095Y-92204819D02*
X105747619Y-92204819D01*
X105747619Y-92204819D02*
X105652381Y-92157200D01*
X105652381Y-92157200D02*
X105557143Y-92061961D01*
X105557143Y-92061961D02*
X105509524Y-91871485D01*
X105509524Y-91871485D02*
X105509524Y-91538152D01*
X105509524Y-91538152D02*
X105557143Y-91347676D01*
X105557143Y-91347676D02*
X105652381Y-91252438D01*
X105652381Y-91252438D02*
X105747619Y-91204819D01*
X106461905Y-91204819D02*
X107033333Y-91204819D01*
X106747619Y-92204819D02*
X106747619Y-91204819D01*
X69447618Y-86454819D02*
X69114285Y-85978628D01*
X68876190Y-86454819D02*
X68876190Y-85454819D01*
X68876190Y-85454819D02*
X69257142Y-85454819D01*
X69257142Y-85454819D02*
X69352380Y-85502438D01*
X69352380Y-85502438D02*
X69399999Y-85550057D01*
X69399999Y-85550057D02*
X69447618Y-85645295D01*
X69447618Y-85645295D02*
X69447618Y-85788152D01*
X69447618Y-85788152D02*
X69399999Y-85883390D01*
X69399999Y-85883390D02*
X69352380Y-85931009D01*
X69352380Y-85931009D02*
X69257142Y-85978628D01*
X69257142Y-85978628D02*
X68876190Y-85978628D01*
X69876190Y-85931009D02*
X70209523Y-85931009D01*
X70352380Y-86454819D02*
X69876190Y-86454819D01*
X69876190Y-86454819D02*
X69876190Y-85454819D01*
X69876190Y-85454819D02*
X70352380Y-85454819D01*
X70733333Y-86407200D02*
X70876190Y-86454819D01*
X70876190Y-86454819D02*
X71114285Y-86454819D01*
X71114285Y-86454819D02*
X71209523Y-86407200D01*
X71209523Y-86407200D02*
X71257142Y-86359580D01*
X71257142Y-86359580D02*
X71304761Y-86264342D01*
X71304761Y-86264342D02*
X71304761Y-86169104D01*
X71304761Y-86169104D02*
X71257142Y-86073866D01*
X71257142Y-86073866D02*
X71209523Y-86026247D01*
X71209523Y-86026247D02*
X71114285Y-85978628D01*
X71114285Y-85978628D02*
X70923809Y-85931009D01*
X70923809Y-85931009D02*
X70828571Y-85883390D01*
X70828571Y-85883390D02*
X70780952Y-85835771D01*
X70780952Y-85835771D02*
X70733333Y-85740533D01*
X70733333Y-85740533D02*
X70733333Y-85645295D01*
X70733333Y-85645295D02*
X70780952Y-85550057D01*
X70780952Y-85550057D02*
X70828571Y-85502438D01*
X70828571Y-85502438D02*
X70923809Y-85454819D01*
X70923809Y-85454819D02*
X71161904Y-85454819D01*
X71161904Y-85454819D02*
X71304761Y-85502438D01*
X71733333Y-85931009D02*
X72066666Y-85931009D01*
X72209523Y-86454819D02*
X71733333Y-86454819D01*
X71733333Y-86454819D02*
X71733333Y-85454819D01*
X71733333Y-85454819D02*
X72209523Y-85454819D01*
X72495238Y-85454819D02*
X73066666Y-85454819D01*
X72780952Y-86454819D02*
X72780952Y-85454819D01*
X107719642Y-110164819D02*
X107386309Y-109688628D01*
X107148214Y-110164819D02*
X107148214Y-109164819D01*
X107148214Y-109164819D02*
X107529166Y-109164819D01*
X107529166Y-109164819D02*
X107624404Y-109212438D01*
X107624404Y-109212438D02*
X107672023Y-109260057D01*
X107672023Y-109260057D02*
X107719642Y-109355295D01*
X107719642Y-109355295D02*
X107719642Y-109498152D01*
X107719642Y-109498152D02*
X107672023Y-109593390D01*
X107672023Y-109593390D02*
X107624404Y-109641009D01*
X107624404Y-109641009D02*
X107529166Y-109688628D01*
X107529166Y-109688628D02*
X107148214Y-109688628D01*
X108672023Y-110164819D02*
X108100595Y-110164819D01*
X108386309Y-110164819D02*
X108386309Y-109164819D01*
X108386309Y-109164819D02*
X108291071Y-109307676D01*
X108291071Y-109307676D02*
X108195833Y-109402914D01*
X108195833Y-109402914D02*
X108100595Y-109450533D01*
X109529166Y-109498152D02*
X109529166Y-110164819D01*
X109291071Y-109117200D02*
X109052976Y-109831485D01*
X109052976Y-109831485D02*
X109672023Y-109831485D01*
X107782142Y-115979819D02*
X107448809Y-115503628D01*
X107210714Y-115979819D02*
X107210714Y-114979819D01*
X107210714Y-114979819D02*
X107591666Y-114979819D01*
X107591666Y-114979819D02*
X107686904Y-115027438D01*
X107686904Y-115027438D02*
X107734523Y-115075057D01*
X107734523Y-115075057D02*
X107782142Y-115170295D01*
X107782142Y-115170295D02*
X107782142Y-115313152D01*
X107782142Y-115313152D02*
X107734523Y-115408390D01*
X107734523Y-115408390D02*
X107686904Y-115456009D01*
X107686904Y-115456009D02*
X107591666Y-115503628D01*
X107591666Y-115503628D02*
X107210714Y-115503628D01*
X108734523Y-115979819D02*
X108163095Y-115979819D01*
X108448809Y-115979819D02*
X108448809Y-114979819D01*
X108448809Y-114979819D02*
X108353571Y-115122676D01*
X108353571Y-115122676D02*
X108258333Y-115217914D01*
X108258333Y-115217914D02*
X108163095Y-115265533D01*
X109067857Y-114979819D02*
X109686904Y-114979819D01*
X109686904Y-114979819D02*
X109353571Y-115360771D01*
X109353571Y-115360771D02*
X109496428Y-115360771D01*
X109496428Y-115360771D02*
X109591666Y-115408390D01*
X109591666Y-115408390D02*
X109639285Y-115456009D01*
X109639285Y-115456009D02*
X109686904Y-115551247D01*
X109686904Y-115551247D02*
X109686904Y-115789342D01*
X109686904Y-115789342D02*
X109639285Y-115884580D01*
X109639285Y-115884580D02*
X109591666Y-115932200D01*
X109591666Y-115932200D02*
X109496428Y-115979819D01*
X109496428Y-115979819D02*
X109210714Y-115979819D01*
X109210714Y-115979819D02*
X109115476Y-115932200D01*
X109115476Y-115932200D02*
X109067857Y-115884580D01*
X112454819Y-124166666D02*
X111978628Y-124499999D01*
X112454819Y-124738094D02*
X111454819Y-124738094D01*
X111454819Y-124738094D02*
X111454819Y-124357142D01*
X111454819Y-124357142D02*
X111502438Y-124261904D01*
X111502438Y-124261904D02*
X111550057Y-124214285D01*
X111550057Y-124214285D02*
X111645295Y-124166666D01*
X111645295Y-124166666D02*
X111788152Y-124166666D01*
X111788152Y-124166666D02*
X111883390Y-124214285D01*
X111883390Y-124214285D02*
X111931009Y-124261904D01*
X111931009Y-124261904D02*
X111978628Y-124357142D01*
X111978628Y-124357142D02*
X111978628Y-124738094D01*
X111454819Y-123309523D02*
X111454819Y-123499999D01*
X111454819Y-123499999D02*
X111502438Y-123595237D01*
X111502438Y-123595237D02*
X111550057Y-123642856D01*
X111550057Y-123642856D02*
X111692914Y-123738094D01*
X111692914Y-123738094D02*
X111883390Y-123785713D01*
X111883390Y-123785713D02*
X112264342Y-123785713D01*
X112264342Y-123785713D02*
X112359580Y-123738094D01*
X112359580Y-123738094D02*
X112407200Y-123690475D01*
X112407200Y-123690475D02*
X112454819Y-123595237D01*
X112454819Y-123595237D02*
X112454819Y-123404761D01*
X112454819Y-123404761D02*
X112407200Y-123309523D01*
X112407200Y-123309523D02*
X112359580Y-123261904D01*
X112359580Y-123261904D02*
X112264342Y-123214285D01*
X112264342Y-123214285D02*
X112026247Y-123214285D01*
X112026247Y-123214285D02*
X111931009Y-123261904D01*
X111931009Y-123261904D02*
X111883390Y-123309523D01*
X111883390Y-123309523D02*
X111835771Y-123404761D01*
X111835771Y-123404761D02*
X111835771Y-123595237D01*
X111835771Y-123595237D02*
X111883390Y-123690475D01*
X111883390Y-123690475D02*
X111931009Y-123738094D01*
X111931009Y-123738094D02*
X112026247Y-123785713D01*
X108008333Y-132884819D02*
X107675000Y-132408628D01*
X107436905Y-132884819D02*
X107436905Y-131884819D01*
X107436905Y-131884819D02*
X107817857Y-131884819D01*
X107817857Y-131884819D02*
X107913095Y-131932438D01*
X107913095Y-131932438D02*
X107960714Y-131980057D01*
X107960714Y-131980057D02*
X108008333Y-132075295D01*
X108008333Y-132075295D02*
X108008333Y-132218152D01*
X108008333Y-132218152D02*
X107960714Y-132313390D01*
X107960714Y-132313390D02*
X107913095Y-132361009D01*
X107913095Y-132361009D02*
X107817857Y-132408628D01*
X107817857Y-132408628D02*
X107436905Y-132408628D01*
X108913095Y-131884819D02*
X108436905Y-131884819D01*
X108436905Y-131884819D02*
X108389286Y-132361009D01*
X108389286Y-132361009D02*
X108436905Y-132313390D01*
X108436905Y-132313390D02*
X108532143Y-132265771D01*
X108532143Y-132265771D02*
X108770238Y-132265771D01*
X108770238Y-132265771D02*
X108865476Y-132313390D01*
X108865476Y-132313390D02*
X108913095Y-132361009D01*
X108913095Y-132361009D02*
X108960714Y-132456247D01*
X108960714Y-132456247D02*
X108960714Y-132694342D01*
X108960714Y-132694342D02*
X108913095Y-132789580D01*
X108913095Y-132789580D02*
X108865476Y-132837200D01*
X108865476Y-132837200D02*
X108770238Y-132884819D01*
X108770238Y-132884819D02*
X108532143Y-132884819D01*
X108532143Y-132884819D02*
X108436905Y-132837200D01*
X108436905Y-132837200D02*
X108389286Y-132789580D01*
X99479819Y-90491666D02*
X99003628Y-90824999D01*
X99479819Y-91063094D02*
X98479819Y-91063094D01*
X98479819Y-91063094D02*
X98479819Y-90682142D01*
X98479819Y-90682142D02*
X98527438Y-90586904D01*
X98527438Y-90586904D02*
X98575057Y-90539285D01*
X98575057Y-90539285D02*
X98670295Y-90491666D01*
X98670295Y-90491666D02*
X98813152Y-90491666D01*
X98813152Y-90491666D02*
X98908390Y-90539285D01*
X98908390Y-90539285D02*
X98956009Y-90586904D01*
X98956009Y-90586904D02*
X99003628Y-90682142D01*
X99003628Y-90682142D02*
X99003628Y-91063094D01*
X98813152Y-89634523D02*
X99479819Y-89634523D01*
X98432200Y-89872618D02*
X99146485Y-90110713D01*
X99146485Y-90110713D02*
X99146485Y-89491666D01*
X103454819Y-133254166D02*
X102978628Y-133587499D01*
X103454819Y-133825594D02*
X102454819Y-133825594D01*
X102454819Y-133825594D02*
X102454819Y-133444642D01*
X102454819Y-133444642D02*
X102502438Y-133349404D01*
X102502438Y-133349404D02*
X102550057Y-133301785D01*
X102550057Y-133301785D02*
X102645295Y-133254166D01*
X102645295Y-133254166D02*
X102788152Y-133254166D01*
X102788152Y-133254166D02*
X102883390Y-133301785D01*
X102883390Y-133301785D02*
X102931009Y-133349404D01*
X102931009Y-133349404D02*
X102978628Y-133444642D01*
X102978628Y-133444642D02*
X102978628Y-133825594D01*
X103454819Y-132301785D02*
X103454819Y-132873213D01*
X103454819Y-132587499D02*
X102454819Y-132587499D01*
X102454819Y-132587499D02*
X102597676Y-132682737D01*
X102597676Y-132682737D02*
X102692914Y-132777975D01*
X102692914Y-132777975D02*
X102740533Y-132873213D01*
X71747984Y-92743389D02*
X72253060Y-93248465D01*
X72253060Y-93248465D02*
X72320404Y-93383152D01*
X72320404Y-93383152D02*
X72320404Y-93517839D01*
X72320404Y-93517839D02*
X72253060Y-93652526D01*
X72253060Y-93652526D02*
X72185717Y-93719870D01*
X73162198Y-92743389D02*
X72758137Y-93147450D01*
X72960167Y-92945419D02*
X72253060Y-92238312D01*
X72253060Y-92238312D02*
X72286732Y-92406671D01*
X72286732Y-92406671D02*
X72286732Y-92541358D01*
X72286732Y-92541358D02*
X72253060Y-92642373D01*
X103486905Y-109704819D02*
X103486905Y-108704819D01*
X103486905Y-108704819D02*
X103725000Y-108704819D01*
X103725000Y-108704819D02*
X103867857Y-108752438D01*
X103867857Y-108752438D02*
X103963095Y-108847676D01*
X103963095Y-108847676D02*
X104010714Y-108942914D01*
X104010714Y-108942914D02*
X104058333Y-109133390D01*
X104058333Y-109133390D02*
X104058333Y-109276247D01*
X104058333Y-109276247D02*
X104010714Y-109466723D01*
X104010714Y-109466723D02*
X103963095Y-109561961D01*
X103963095Y-109561961D02*
X103867857Y-109657200D01*
X103867857Y-109657200D02*
X103725000Y-109704819D01*
X103725000Y-109704819D02*
X103486905Y-109704819D01*
X104439286Y-108800057D02*
X104486905Y-108752438D01*
X104486905Y-108752438D02*
X104582143Y-108704819D01*
X104582143Y-108704819D02*
X104820238Y-108704819D01*
X104820238Y-108704819D02*
X104915476Y-108752438D01*
X104915476Y-108752438D02*
X104963095Y-108800057D01*
X104963095Y-108800057D02*
X105010714Y-108895295D01*
X105010714Y-108895295D02*
X105010714Y-108990533D01*
X105010714Y-108990533D02*
X104963095Y-109133390D01*
X104963095Y-109133390D02*
X104391667Y-109704819D01*
X104391667Y-109704819D02*
X105010714Y-109704819D01*
X103624405Y-115904819D02*
X103624405Y-114904819D01*
X103624405Y-114904819D02*
X103862500Y-114904819D01*
X103862500Y-114904819D02*
X104005357Y-114952438D01*
X104005357Y-114952438D02*
X104100595Y-115047676D01*
X104100595Y-115047676D02*
X104148214Y-115142914D01*
X104148214Y-115142914D02*
X104195833Y-115333390D01*
X104195833Y-115333390D02*
X104195833Y-115476247D01*
X104195833Y-115476247D02*
X104148214Y-115666723D01*
X104148214Y-115666723D02*
X104100595Y-115761961D01*
X104100595Y-115761961D02*
X104005357Y-115857200D01*
X104005357Y-115857200D02*
X103862500Y-115904819D01*
X103862500Y-115904819D02*
X103624405Y-115904819D01*
X105148214Y-115904819D02*
X104576786Y-115904819D01*
X104862500Y-115904819D02*
X104862500Y-114904819D01*
X104862500Y-114904819D02*
X104767262Y-115047676D01*
X104767262Y-115047676D02*
X104672024Y-115142914D01*
X104672024Y-115142914D02*
X104576786Y-115190533D01*
X89564580Y-101642857D02*
X89612200Y-101690476D01*
X89612200Y-101690476D02*
X89659819Y-101833333D01*
X89659819Y-101833333D02*
X89659819Y-101928571D01*
X89659819Y-101928571D02*
X89612200Y-102071428D01*
X89612200Y-102071428D02*
X89516961Y-102166666D01*
X89516961Y-102166666D02*
X89421723Y-102214285D01*
X89421723Y-102214285D02*
X89231247Y-102261904D01*
X89231247Y-102261904D02*
X89088390Y-102261904D01*
X89088390Y-102261904D02*
X88897914Y-102214285D01*
X88897914Y-102214285D02*
X88802676Y-102166666D01*
X88802676Y-102166666D02*
X88707438Y-102071428D01*
X88707438Y-102071428D02*
X88659819Y-101928571D01*
X88659819Y-101928571D02*
X88659819Y-101833333D01*
X88659819Y-101833333D02*
X88707438Y-101690476D01*
X88707438Y-101690476D02*
X88755057Y-101642857D01*
X89659819Y-100690476D02*
X89659819Y-101261904D01*
X89659819Y-100976190D02*
X88659819Y-100976190D01*
X88659819Y-100976190D02*
X88802676Y-101071428D01*
X88802676Y-101071428D02*
X88897914Y-101166666D01*
X88897914Y-101166666D02*
X88945533Y-101261904D01*
X88659819Y-100357142D02*
X88659819Y-99690476D01*
X88659819Y-99690476D02*
X89659819Y-100119047D01*
X80582142Y-106154580D02*
X80534523Y-106202200D01*
X80534523Y-106202200D02*
X80391666Y-106249819D01*
X80391666Y-106249819D02*
X80296428Y-106249819D01*
X80296428Y-106249819D02*
X80153571Y-106202200D01*
X80153571Y-106202200D02*
X80058333Y-106106961D01*
X80058333Y-106106961D02*
X80010714Y-106011723D01*
X80010714Y-106011723D02*
X79963095Y-105821247D01*
X79963095Y-105821247D02*
X79963095Y-105678390D01*
X79963095Y-105678390D02*
X80010714Y-105487914D01*
X80010714Y-105487914D02*
X80058333Y-105392676D01*
X80058333Y-105392676D02*
X80153571Y-105297438D01*
X80153571Y-105297438D02*
X80296428Y-105249819D01*
X80296428Y-105249819D02*
X80391666Y-105249819D01*
X80391666Y-105249819D02*
X80534523Y-105297438D01*
X80534523Y-105297438D02*
X80582142Y-105345057D01*
X81534523Y-106249819D02*
X80963095Y-106249819D01*
X81248809Y-106249819D02*
X81248809Y-105249819D01*
X81248809Y-105249819D02*
X81153571Y-105392676D01*
X81153571Y-105392676D02*
X81058333Y-105487914D01*
X81058333Y-105487914D02*
X80963095Y-105535533D01*
X82391666Y-105249819D02*
X82201190Y-105249819D01*
X82201190Y-105249819D02*
X82105952Y-105297438D01*
X82105952Y-105297438D02*
X82058333Y-105345057D01*
X82058333Y-105345057D02*
X81963095Y-105487914D01*
X81963095Y-105487914D02*
X81915476Y-105678390D01*
X81915476Y-105678390D02*
X81915476Y-106059342D01*
X81915476Y-106059342D02*
X81963095Y-106154580D01*
X81963095Y-106154580D02*
X82010714Y-106202200D01*
X82010714Y-106202200D02*
X82105952Y-106249819D01*
X82105952Y-106249819D02*
X82296428Y-106249819D01*
X82296428Y-106249819D02*
X82391666Y-106202200D01*
X82391666Y-106202200D02*
X82439285Y-106154580D01*
X82439285Y-106154580D02*
X82486904Y-106059342D01*
X82486904Y-106059342D02*
X82486904Y-105821247D01*
X82486904Y-105821247D02*
X82439285Y-105726009D01*
X82439285Y-105726009D02*
X82391666Y-105678390D01*
X82391666Y-105678390D02*
X82296428Y-105630771D01*
X82296428Y-105630771D02*
X82105952Y-105630771D01*
X82105952Y-105630771D02*
X82010714Y-105678390D01*
X82010714Y-105678390D02*
X81963095Y-105726009D01*
X81963095Y-105726009D02*
X81915476Y-105821247D01*
X80982142Y-116859580D02*
X80934523Y-116907200D01*
X80934523Y-116907200D02*
X80791666Y-116954819D01*
X80791666Y-116954819D02*
X80696428Y-116954819D01*
X80696428Y-116954819D02*
X80553571Y-116907200D01*
X80553571Y-116907200D02*
X80458333Y-116811961D01*
X80458333Y-116811961D02*
X80410714Y-116716723D01*
X80410714Y-116716723D02*
X80363095Y-116526247D01*
X80363095Y-116526247D02*
X80363095Y-116383390D01*
X80363095Y-116383390D02*
X80410714Y-116192914D01*
X80410714Y-116192914D02*
X80458333Y-116097676D01*
X80458333Y-116097676D02*
X80553571Y-116002438D01*
X80553571Y-116002438D02*
X80696428Y-115954819D01*
X80696428Y-115954819D02*
X80791666Y-115954819D01*
X80791666Y-115954819D02*
X80934523Y-116002438D01*
X80934523Y-116002438D02*
X80982142Y-116050057D01*
X81934523Y-116954819D02*
X81363095Y-116954819D01*
X81648809Y-116954819D02*
X81648809Y-115954819D01*
X81648809Y-115954819D02*
X81553571Y-116097676D01*
X81553571Y-116097676D02*
X81458333Y-116192914D01*
X81458333Y-116192914D02*
X81363095Y-116240533D01*
X82839285Y-115954819D02*
X82363095Y-115954819D01*
X82363095Y-115954819D02*
X82315476Y-116431009D01*
X82315476Y-116431009D02*
X82363095Y-116383390D01*
X82363095Y-116383390D02*
X82458333Y-116335771D01*
X82458333Y-116335771D02*
X82696428Y-116335771D01*
X82696428Y-116335771D02*
X82791666Y-116383390D01*
X82791666Y-116383390D02*
X82839285Y-116431009D01*
X82839285Y-116431009D02*
X82886904Y-116526247D01*
X82886904Y-116526247D02*
X82886904Y-116764342D01*
X82886904Y-116764342D02*
X82839285Y-116859580D01*
X82839285Y-116859580D02*
X82791666Y-116907200D01*
X82791666Y-116907200D02*
X82696428Y-116954819D01*
X82696428Y-116954819D02*
X82458333Y-116954819D01*
X82458333Y-116954819D02*
X82363095Y-116907200D01*
X82363095Y-116907200D02*
X82315476Y-116859580D01*
X96132142Y-118789580D02*
X96084523Y-118837200D01*
X96084523Y-118837200D02*
X95941666Y-118884819D01*
X95941666Y-118884819D02*
X95846428Y-118884819D01*
X95846428Y-118884819D02*
X95703571Y-118837200D01*
X95703571Y-118837200D02*
X95608333Y-118741961D01*
X95608333Y-118741961D02*
X95560714Y-118646723D01*
X95560714Y-118646723D02*
X95513095Y-118456247D01*
X95513095Y-118456247D02*
X95513095Y-118313390D01*
X95513095Y-118313390D02*
X95560714Y-118122914D01*
X95560714Y-118122914D02*
X95608333Y-118027676D01*
X95608333Y-118027676D02*
X95703571Y-117932438D01*
X95703571Y-117932438D02*
X95846428Y-117884819D01*
X95846428Y-117884819D02*
X95941666Y-117884819D01*
X95941666Y-117884819D02*
X96084523Y-117932438D01*
X96084523Y-117932438D02*
X96132142Y-117980057D01*
X97084523Y-118884819D02*
X96513095Y-118884819D01*
X96798809Y-118884819D02*
X96798809Y-117884819D01*
X96798809Y-117884819D02*
X96703571Y-118027676D01*
X96703571Y-118027676D02*
X96608333Y-118122914D01*
X96608333Y-118122914D02*
X96513095Y-118170533D01*
X97941666Y-118218152D02*
X97941666Y-118884819D01*
X97703571Y-117837200D02*
X97465476Y-118551485D01*
X97465476Y-118551485D02*
X98084523Y-118551485D01*
X100607142Y-104484580D02*
X100559523Y-104532200D01*
X100559523Y-104532200D02*
X100416666Y-104579819D01*
X100416666Y-104579819D02*
X100321428Y-104579819D01*
X100321428Y-104579819D02*
X100178571Y-104532200D01*
X100178571Y-104532200D02*
X100083333Y-104436961D01*
X100083333Y-104436961D02*
X100035714Y-104341723D01*
X100035714Y-104341723D02*
X99988095Y-104151247D01*
X99988095Y-104151247D02*
X99988095Y-104008390D01*
X99988095Y-104008390D02*
X100035714Y-103817914D01*
X100035714Y-103817914D02*
X100083333Y-103722676D01*
X100083333Y-103722676D02*
X100178571Y-103627438D01*
X100178571Y-103627438D02*
X100321428Y-103579819D01*
X100321428Y-103579819D02*
X100416666Y-103579819D01*
X100416666Y-103579819D02*
X100559523Y-103627438D01*
X100559523Y-103627438D02*
X100607142Y-103675057D01*
X101559523Y-104579819D02*
X100988095Y-104579819D01*
X101273809Y-104579819D02*
X101273809Y-103579819D01*
X101273809Y-103579819D02*
X101178571Y-103722676D01*
X101178571Y-103722676D02*
X101083333Y-103817914D01*
X101083333Y-103817914D02*
X100988095Y-103865533D01*
X101892857Y-103579819D02*
X102511904Y-103579819D01*
X102511904Y-103579819D02*
X102178571Y-103960771D01*
X102178571Y-103960771D02*
X102321428Y-103960771D01*
X102321428Y-103960771D02*
X102416666Y-104008390D01*
X102416666Y-104008390D02*
X102464285Y-104056009D01*
X102464285Y-104056009D02*
X102511904Y-104151247D01*
X102511904Y-104151247D02*
X102511904Y-104389342D01*
X102511904Y-104389342D02*
X102464285Y-104484580D01*
X102464285Y-104484580D02*
X102416666Y-104532200D01*
X102416666Y-104532200D02*
X102321428Y-104579819D01*
X102321428Y-104579819D02*
X102035714Y-104579819D01*
X102035714Y-104579819D02*
X101940476Y-104532200D01*
X101940476Y-104532200D02*
X101892857Y-104484580D01*
X96989580Y-95766666D02*
X97037200Y-95814285D01*
X97037200Y-95814285D02*
X97084819Y-95957142D01*
X97084819Y-95957142D02*
X97084819Y-96052380D01*
X97084819Y-96052380D02*
X97037200Y-96195237D01*
X97037200Y-96195237D02*
X96941961Y-96290475D01*
X96941961Y-96290475D02*
X96846723Y-96338094D01*
X96846723Y-96338094D02*
X96656247Y-96385713D01*
X96656247Y-96385713D02*
X96513390Y-96385713D01*
X96513390Y-96385713D02*
X96322914Y-96338094D01*
X96322914Y-96338094D02*
X96227676Y-96290475D01*
X96227676Y-96290475D02*
X96132438Y-96195237D01*
X96132438Y-96195237D02*
X96084819Y-96052380D01*
X96084819Y-96052380D02*
X96084819Y-95957142D01*
X96084819Y-95957142D02*
X96132438Y-95814285D01*
X96132438Y-95814285D02*
X96180057Y-95766666D01*
X96513390Y-95195237D02*
X96465771Y-95290475D01*
X96465771Y-95290475D02*
X96418152Y-95338094D01*
X96418152Y-95338094D02*
X96322914Y-95385713D01*
X96322914Y-95385713D02*
X96275295Y-95385713D01*
X96275295Y-95385713D02*
X96180057Y-95338094D01*
X96180057Y-95338094D02*
X96132438Y-95290475D01*
X96132438Y-95290475D02*
X96084819Y-95195237D01*
X96084819Y-95195237D02*
X96084819Y-95004761D01*
X96084819Y-95004761D02*
X96132438Y-94909523D01*
X96132438Y-94909523D02*
X96180057Y-94861904D01*
X96180057Y-94861904D02*
X96275295Y-94814285D01*
X96275295Y-94814285D02*
X96322914Y-94814285D01*
X96322914Y-94814285D02*
X96418152Y-94861904D01*
X96418152Y-94861904D02*
X96465771Y-94909523D01*
X96465771Y-94909523D02*
X96513390Y-95004761D01*
X96513390Y-95004761D02*
X96513390Y-95195237D01*
X96513390Y-95195237D02*
X96561009Y-95290475D01*
X96561009Y-95290475D02*
X96608628Y-95338094D01*
X96608628Y-95338094D02*
X96703866Y-95385713D01*
X96703866Y-95385713D02*
X96894342Y-95385713D01*
X96894342Y-95385713D02*
X96989580Y-95338094D01*
X96989580Y-95338094D02*
X97037200Y-95290475D01*
X97037200Y-95290475D02*
X97084819Y-95195237D01*
X97084819Y-95195237D02*
X97084819Y-95004761D01*
X97084819Y-95004761D02*
X97037200Y-94909523D01*
X97037200Y-94909523D02*
X96989580Y-94861904D01*
X96989580Y-94861904D02*
X96894342Y-94814285D01*
X96894342Y-94814285D02*
X96703866Y-94814285D01*
X96703866Y-94814285D02*
X96608628Y-94861904D01*
X96608628Y-94861904D02*
X96561009Y-94909523D01*
X96561009Y-94909523D02*
X96513390Y-95004761D01*
X87229580Y-95866666D02*
X87277200Y-95914285D01*
X87277200Y-95914285D02*
X87324819Y-96057142D01*
X87324819Y-96057142D02*
X87324819Y-96152380D01*
X87324819Y-96152380D02*
X87277200Y-96295237D01*
X87277200Y-96295237D02*
X87181961Y-96390475D01*
X87181961Y-96390475D02*
X87086723Y-96438094D01*
X87086723Y-96438094D02*
X86896247Y-96485713D01*
X86896247Y-96485713D02*
X86753390Y-96485713D01*
X86753390Y-96485713D02*
X86562914Y-96438094D01*
X86562914Y-96438094D02*
X86467676Y-96390475D01*
X86467676Y-96390475D02*
X86372438Y-96295237D01*
X86372438Y-96295237D02*
X86324819Y-96152380D01*
X86324819Y-96152380D02*
X86324819Y-96057142D01*
X86324819Y-96057142D02*
X86372438Y-95914285D01*
X86372438Y-95914285D02*
X86420057Y-95866666D01*
X86324819Y-95533332D02*
X86324819Y-94866666D01*
X86324819Y-94866666D02*
X87324819Y-95295237D01*
X96958333Y-130789580D02*
X96910714Y-130837200D01*
X96910714Y-130837200D02*
X96767857Y-130884819D01*
X96767857Y-130884819D02*
X96672619Y-130884819D01*
X96672619Y-130884819D02*
X96529762Y-130837200D01*
X96529762Y-130837200D02*
X96434524Y-130741961D01*
X96434524Y-130741961D02*
X96386905Y-130646723D01*
X96386905Y-130646723D02*
X96339286Y-130456247D01*
X96339286Y-130456247D02*
X96339286Y-130313390D01*
X96339286Y-130313390D02*
X96386905Y-130122914D01*
X96386905Y-130122914D02*
X96434524Y-130027676D01*
X96434524Y-130027676D02*
X96529762Y-129932438D01*
X96529762Y-129932438D02*
X96672619Y-129884819D01*
X96672619Y-129884819D02*
X96767857Y-129884819D01*
X96767857Y-129884819D02*
X96910714Y-129932438D01*
X96910714Y-129932438D02*
X96958333Y-129980057D01*
X97863095Y-129884819D02*
X97386905Y-129884819D01*
X97386905Y-129884819D02*
X97339286Y-130361009D01*
X97339286Y-130361009D02*
X97386905Y-130313390D01*
X97386905Y-130313390D02*
X97482143Y-130265771D01*
X97482143Y-130265771D02*
X97720238Y-130265771D01*
X97720238Y-130265771D02*
X97815476Y-130313390D01*
X97815476Y-130313390D02*
X97863095Y-130361009D01*
X97863095Y-130361009D02*
X97910714Y-130456247D01*
X97910714Y-130456247D02*
X97910714Y-130694342D01*
X97910714Y-130694342D02*
X97863095Y-130789580D01*
X97863095Y-130789580D02*
X97815476Y-130837200D01*
X97815476Y-130837200D02*
X97720238Y-130884819D01*
X97720238Y-130884819D02*
X97482143Y-130884819D01*
X97482143Y-130884819D02*
X97386905Y-130837200D01*
X97386905Y-130837200D02*
X97339286Y-130789580D01*
X90408333Y-128234580D02*
X90360714Y-128282200D01*
X90360714Y-128282200D02*
X90217857Y-128329819D01*
X90217857Y-128329819D02*
X90122619Y-128329819D01*
X90122619Y-128329819D02*
X89979762Y-128282200D01*
X89979762Y-128282200D02*
X89884524Y-128186961D01*
X89884524Y-128186961D02*
X89836905Y-128091723D01*
X89836905Y-128091723D02*
X89789286Y-127901247D01*
X89789286Y-127901247D02*
X89789286Y-127758390D01*
X89789286Y-127758390D02*
X89836905Y-127567914D01*
X89836905Y-127567914D02*
X89884524Y-127472676D01*
X89884524Y-127472676D02*
X89979762Y-127377438D01*
X89979762Y-127377438D02*
X90122619Y-127329819D01*
X90122619Y-127329819D02*
X90217857Y-127329819D01*
X90217857Y-127329819D02*
X90360714Y-127377438D01*
X90360714Y-127377438D02*
X90408333Y-127425057D01*
X91265476Y-127663152D02*
X91265476Y-128329819D01*
X91027381Y-127282200D02*
X90789286Y-127996485D01*
X90789286Y-127996485D02*
X91408333Y-127996485D01*
X90583333Y-126334580D02*
X90535714Y-126382200D01*
X90535714Y-126382200D02*
X90392857Y-126429819D01*
X90392857Y-126429819D02*
X90297619Y-126429819D01*
X90297619Y-126429819D02*
X90154762Y-126382200D01*
X90154762Y-126382200D02*
X90059524Y-126286961D01*
X90059524Y-126286961D02*
X90011905Y-126191723D01*
X90011905Y-126191723D02*
X89964286Y-126001247D01*
X89964286Y-126001247D02*
X89964286Y-125858390D01*
X89964286Y-125858390D02*
X90011905Y-125667914D01*
X90011905Y-125667914D02*
X90059524Y-125572676D01*
X90059524Y-125572676D02*
X90154762Y-125477438D01*
X90154762Y-125477438D02*
X90297619Y-125429819D01*
X90297619Y-125429819D02*
X90392857Y-125429819D01*
X90392857Y-125429819D02*
X90535714Y-125477438D01*
X90535714Y-125477438D02*
X90583333Y-125525057D01*
X90916667Y-125429819D02*
X91535714Y-125429819D01*
X91535714Y-125429819D02*
X91202381Y-125810771D01*
X91202381Y-125810771D02*
X91345238Y-125810771D01*
X91345238Y-125810771D02*
X91440476Y-125858390D01*
X91440476Y-125858390D02*
X91488095Y-125906009D01*
X91488095Y-125906009D02*
X91535714Y-126001247D01*
X91535714Y-126001247D02*
X91535714Y-126239342D01*
X91535714Y-126239342D02*
X91488095Y-126334580D01*
X91488095Y-126334580D02*
X91440476Y-126382200D01*
X91440476Y-126382200D02*
X91345238Y-126429819D01*
X91345238Y-126429819D02*
X91059524Y-126429819D01*
X91059524Y-126429819D02*
X90964286Y-126382200D01*
X90964286Y-126382200D02*
X90916667Y-126334580D01*
X90408333Y-124534580D02*
X90360714Y-124582200D01*
X90360714Y-124582200D02*
X90217857Y-124629819D01*
X90217857Y-124629819D02*
X90122619Y-124629819D01*
X90122619Y-124629819D02*
X89979762Y-124582200D01*
X89979762Y-124582200D02*
X89884524Y-124486961D01*
X89884524Y-124486961D02*
X89836905Y-124391723D01*
X89836905Y-124391723D02*
X89789286Y-124201247D01*
X89789286Y-124201247D02*
X89789286Y-124058390D01*
X89789286Y-124058390D02*
X89836905Y-123867914D01*
X89836905Y-123867914D02*
X89884524Y-123772676D01*
X89884524Y-123772676D02*
X89979762Y-123677438D01*
X89979762Y-123677438D02*
X90122619Y-123629819D01*
X90122619Y-123629819D02*
X90217857Y-123629819D01*
X90217857Y-123629819D02*
X90360714Y-123677438D01*
X90360714Y-123677438D02*
X90408333Y-123725057D01*
X90789286Y-123725057D02*
X90836905Y-123677438D01*
X90836905Y-123677438D02*
X90932143Y-123629819D01*
X90932143Y-123629819D02*
X91170238Y-123629819D01*
X91170238Y-123629819D02*
X91265476Y-123677438D01*
X91265476Y-123677438D02*
X91313095Y-123725057D01*
X91313095Y-123725057D02*
X91360714Y-123820295D01*
X91360714Y-123820295D02*
X91360714Y-123915533D01*
X91360714Y-123915533D02*
X91313095Y-124058390D01*
X91313095Y-124058390D02*
X90741667Y-124629819D01*
X90741667Y-124629819D02*
X91360714Y-124629819D01*
X83533333Y-86359580D02*
X83485714Y-86407200D01*
X83485714Y-86407200D02*
X83342857Y-86454819D01*
X83342857Y-86454819D02*
X83247619Y-86454819D01*
X83247619Y-86454819D02*
X83104762Y-86407200D01*
X83104762Y-86407200D02*
X83009524Y-86311961D01*
X83009524Y-86311961D02*
X82961905Y-86216723D01*
X82961905Y-86216723D02*
X82914286Y-86026247D01*
X82914286Y-86026247D02*
X82914286Y-85883390D01*
X82914286Y-85883390D02*
X82961905Y-85692914D01*
X82961905Y-85692914D02*
X83009524Y-85597676D01*
X83009524Y-85597676D02*
X83104762Y-85502438D01*
X83104762Y-85502438D02*
X83247619Y-85454819D01*
X83247619Y-85454819D02*
X83342857Y-85454819D01*
X83342857Y-85454819D02*
X83485714Y-85502438D01*
X83485714Y-85502438D02*
X83533333Y-85550057D01*
X84485714Y-86454819D02*
X83914286Y-86454819D01*
X84200000Y-86454819D02*
X84200000Y-85454819D01*
X84200000Y-85454819D02*
X84104762Y-85597676D01*
X84104762Y-85597676D02*
X84009524Y-85692914D01*
X84009524Y-85692914D02*
X83914286Y-85740533D01*
D12*
%TO.C,J2*%
X120914948Y-134437850D02*
X114437850Y-140914948D01*
X119709331Y-133232233D02*
X120914948Y-134437850D01*
X118288047Y-131810948D02*
X116930402Y-130453303D01*
X114437850Y-140914948D02*
X113232233Y-139709331D01*
X110453303Y-136930402D02*
X111810948Y-138288047D01*
%TO.C,Y2*%
X89540000Y-98310000D02*
X94160000Y-98310000D01*
X94160000Y-98310000D02*
X94160000Y-92790000D01*
%TO.C,J3*%
X57620000Y-89600000D02*
X59000000Y-89600000D01*
X57620000Y-90980000D02*
X57620000Y-89600000D01*
X57620000Y-92250000D02*
X57620000Y-135540000D01*
X57620000Y-92250000D02*
X60380000Y-92250000D01*
X57620000Y-135540000D02*
X60380000Y-135540000D01*
X60380000Y-92250000D02*
X60380000Y-135540000D01*
%TO.C,U4*%
X96455000Y-123390000D02*
X96215000Y-123060000D01*
X96695000Y-123060000D01*
X96455000Y-123390000D01*
G36*
X96455000Y-123390000D02*
G01*
X96215000Y-123060000D01*
X96695000Y-123060000D01*
X96455000Y-123390000D01*
G37*
X99585000Y-127960000D02*
X96865000Y-127960000D01*
X99585000Y-126980000D02*
X99585000Y-127960000D01*
X99585000Y-124220000D02*
X99585000Y-123240000D01*
X97005000Y-123240000D02*
X99585000Y-123240000D01*
%TO.C,U3*%
X94630000Y-104590000D02*
X94160000Y-104250000D01*
X94630000Y-103910000D01*
X94630000Y-104590000D01*
G36*
X94630000Y-104590000D02*
G01*
X94160000Y-104250000D01*
X94630000Y-103910000D01*
X94630000Y-104590000D01*
G37*
X84890000Y-115110000D02*
X84890000Y-114160000D01*
X85840000Y-115110000D02*
X84890000Y-115110000D01*
X95110000Y-115110000D02*
X94160000Y-115110000D01*
X95110000Y-114160000D02*
X95110000Y-115110000D01*
X84890000Y-105840000D02*
X84890000Y-104890000D01*
X84890000Y-104890000D02*
X85840000Y-104890000D01*
X94160000Y-104890000D02*
X95110000Y-104890000D01*
X95110000Y-104890000D02*
X95110000Y-105840000D01*
%TO.C,U2*%
X77877500Y-91000000D02*
X77397500Y-91000000D01*
X77637500Y-90670000D01*
X77877500Y-91000000D01*
G36*
X77877500Y-91000000D02*
G01*
X77397500Y-91000000D01*
X77637500Y-90670000D01*
X77877500Y-91000000D01*
G37*
X79697500Y-92610000D02*
X78177500Y-92610000D01*
X79697500Y-91610000D02*
X79697500Y-92610000D01*
X79697500Y-89490000D02*
X79697500Y-90490000D01*
X78177500Y-92610000D02*
X78177500Y-92560000D01*
X78177500Y-91440000D02*
X78177500Y-90660000D01*
X78177500Y-89540000D02*
X78177500Y-89490000D01*
X78177500Y-89490000D02*
X79697500Y-89490000D01*
%TO.C,U1*%
X107677881Y-128796554D02*
X106390946Y-127509619D01*
X107713236Y-128761198D02*
X107677881Y-128796554D01*
X109884054Y-126590381D02*
X109848698Y-126625736D01*
X106390946Y-127509619D02*
X106426302Y-127474264D01*
X108561764Y-125338802D02*
X108597119Y-125303446D01*
X108597119Y-125303446D02*
X109884054Y-126590381D01*
X108031434Y-129546087D02*
X107692023Y-129206676D01*
X108095074Y-129143036D01*
X108031434Y-129546087D01*
G36*
X108031434Y-129546087D02*
G01*
X107692023Y-129206676D01*
X108095074Y-129143036D01*
X108031434Y-129546087D01*
G37*
%TO.C,BOOT*%
X107270000Y-90670000D02*
X103130000Y-90670000D01*
X107270000Y-90370000D02*
X107270000Y-90670000D01*
X107270000Y-87530000D02*
X107270000Y-87830000D01*
X103130000Y-90670000D02*
X103130000Y-90370000D01*
X103130000Y-87830000D02*
X103130000Y-87530000D01*
X103130000Y-87530000D02*
X107270000Y-87530000D01*
%TO.C,RESET*%
X74330000Y-84430000D02*
X78470000Y-84430000D01*
X74330000Y-84730000D02*
X74330000Y-84430000D01*
X74330000Y-87570000D02*
X74330000Y-87270000D01*
X78470000Y-84430000D02*
X78470000Y-84730000D01*
X78470000Y-87270000D02*
X78470000Y-87570000D01*
X78470000Y-87570000D02*
X74330000Y-87570000D01*
%TO.C,R14*%
X108125242Y-110617500D02*
X108599758Y-110617500D01*
X108125242Y-111662500D02*
X108599758Y-111662500D01*
%TO.C,R13*%
X108300242Y-113277500D02*
X108774758Y-113277500D01*
X108300242Y-114322500D02*
X108774758Y-114322500D01*
%TO.C,R6*%
X111477500Y-127237258D02*
X111477500Y-126762742D01*
X112522500Y-127237258D02*
X112522500Y-126762742D01*
%TO.C,R5*%
X108412258Y-131522500D02*
X107937742Y-131522500D01*
X108412258Y-130477500D02*
X107937742Y-130477500D01*
%TO.C,R4*%
X101422500Y-89937742D02*
X101422500Y-90412258D01*
X100377500Y-89937742D02*
X100377500Y-90412258D01*
%TO.C,R1*%
X105735000Y-132860436D02*
X105735000Y-133314564D01*
X104265000Y-132860436D02*
X104265000Y-133314564D01*
%TO.C,J7*%
X113130000Y-80380000D02*
X69840000Y-80380000D01*
X69840000Y-77620000D02*
X69840000Y-80380000D01*
X113130000Y-77620000D02*
X113130000Y-80380000D01*
X113130000Y-77620000D02*
X69840000Y-77620000D01*
X114400000Y-77620000D02*
X115780000Y-77620000D01*
X115780000Y-77620000D02*
X115780000Y-79000000D01*
%TO.C,J6*%
X121380000Y-129920000D02*
X120000000Y-129920000D01*
X121380000Y-128540000D02*
X121380000Y-129920000D01*
X121380000Y-127270000D02*
X121380000Y-83980000D01*
X121380000Y-127270000D02*
X118620000Y-127270000D01*
X121380000Y-83980000D02*
X118620000Y-83980000D01*
X118620000Y-127270000D02*
X118620000Y-83980000D01*
%TO.C,J5*%
X64220000Y-141380000D02*
X64220000Y-140000000D01*
X65600000Y-141380000D02*
X64220000Y-141380000D01*
X66870000Y-141380000D02*
X110160000Y-141380000D01*
X66870000Y-141380000D02*
X66870000Y-138620000D01*
X110160000Y-141380000D02*
X110160000Y-138620000D01*
X66870000Y-138620000D02*
X110160000Y-138620000D01*
%TO.C,J4*%
X62922218Y-83126167D02*
X64796051Y-81252334D01*
X66747666Y-83203949D02*
X64796051Y-81252334D01*
X64873833Y-85077782D02*
X62922218Y-83126167D01*
X64873833Y-85077782D02*
X66747666Y-83203949D01*
X63975807Y-85975807D02*
X63000000Y-86951615D01*
X63000000Y-86951615D02*
X62024193Y-85975807D01*
%TO.C,J1*%
X70460000Y-92780051D02*
X70010987Y-93229064D01*
X70010987Y-93229064D02*
X69561974Y-92780051D01*
%TO.C,D2*%
X103362500Y-112060000D02*
X106047500Y-112060000D01*
X106047500Y-110140000D02*
X103362500Y-110140000D01*
X106047500Y-112060000D02*
X106047500Y-110140000D01*
%TO.C,D1*%
X103362500Y-114760000D02*
X106047500Y-114760000D01*
X106047500Y-112840000D02*
X103362500Y-112840000D01*
X106047500Y-114760000D02*
X106047500Y-112840000D01*
%TO.C,C17*%
X88285000Y-100859420D02*
X88285000Y-101140580D01*
X87265000Y-100859420D02*
X87265000Y-101140580D01*
%TO.C,C16*%
X81084420Y-106715000D02*
X81365580Y-106715000D01*
X81084420Y-107735000D02*
X81365580Y-107735000D01*
%TO.C,C15*%
X82084420Y-114490000D02*
X82365580Y-114490000D01*
X82084420Y-115510000D02*
X82365580Y-115510000D01*
%TO.C,C14*%
X96915580Y-117510000D02*
X96634420Y-117510000D01*
X96915580Y-116490000D02*
X96634420Y-116490000D01*
%TO.C,C13*%
X97915580Y-104510000D02*
X97634420Y-104510000D01*
X97915580Y-103490000D02*
X97634420Y-103490000D01*
%TO.C,C8*%
X95710000Y-95459420D02*
X95710000Y-95740580D01*
X94690000Y-95459420D02*
X94690000Y-95740580D01*
%TO.C,C7*%
X87790000Y-95840580D02*
X87790000Y-95559420D01*
X88810000Y-95840580D02*
X88810000Y-95559420D01*
%TO.C,C5*%
X97265580Y-129510000D02*
X96984420Y-129510000D01*
X97265580Y-128490000D02*
X96984420Y-128490000D01*
%TO.C,C4*%
X93661252Y-128535000D02*
X93138748Y-128535000D01*
X93661252Y-127065000D02*
X93138748Y-127065000D01*
%TO.C,C3*%
X93434420Y-125490000D02*
X93715580Y-125490000D01*
X93434420Y-126510000D02*
X93715580Y-126510000D01*
%TO.C,C2*%
X93711252Y-124935000D02*
X93188748Y-124935000D01*
X93711252Y-123465000D02*
X93188748Y-123465000D01*
%TO.C,C1*%
X80824420Y-85490000D02*
X81105580Y-85490000D01*
X80824420Y-86510000D02*
X81105580Y-86510000D01*
%TD*%
%LPC*%
D13*
%TO.C,J2*%
X118814841Y-132705438D03*
D14*
X115844993Y-129735590D03*
D13*
X112705438Y-138814841D03*
D14*
X109735590Y-135844993D03*
D15*
X110103286Y-134628769D03*
X110668971Y-134063084D03*
D16*
X111128590Y-133603464D03*
X111835697Y-132896357D03*
X112896357Y-131835697D03*
X113603464Y-131128590D03*
D15*
X114063084Y-130668971D03*
X114628769Y-130103286D03*
X114628769Y-130103286D03*
X114063084Y-130668971D03*
D16*
X113249911Y-131482144D03*
X112542804Y-132189251D03*
X112189251Y-132542804D03*
X111482144Y-133249911D03*
D15*
X110668971Y-134063084D03*
X110103286Y-134628769D03*
D17*
X115201525Y-131114448D03*
X111114448Y-135201525D03*
%TD*%
D18*
%TO.C,Y2*%
X93000000Y-97000000D03*
X93000000Y-94100000D03*
X90700000Y-94100000D03*
X90700000Y-97000000D03*
%TD*%
D19*
%TO.C,J3*%
X59000000Y-90980000D03*
D20*
X59000000Y-93520000D03*
X59000000Y-96060000D03*
X59000000Y-98600000D03*
X59000000Y-101140000D03*
X59000000Y-103680000D03*
X59000000Y-106220000D03*
X59000000Y-108760000D03*
X59000000Y-111300000D03*
X59000000Y-113840000D03*
X59000000Y-116380000D03*
X59000000Y-118920000D03*
X59000000Y-121460000D03*
X59000000Y-124000000D03*
X59000000Y-126540000D03*
X59000000Y-129080000D03*
X59000000Y-131620000D03*
X59000000Y-134160000D03*
%TD*%
D21*
%TO.C,U4*%
X96275000Y-127100000D03*
D22*
X96362500Y-125600000D03*
D21*
X96275000Y-124100000D03*
%TD*%
D23*
%TO.C,U3*%
X95675000Y-106250000D03*
X95675000Y-106750000D03*
X95675000Y-107250000D03*
X95675000Y-107750000D03*
X95675000Y-108250000D03*
X95675000Y-108750000D03*
X95675000Y-109250000D03*
X95675000Y-109750000D03*
X95675000Y-110250000D03*
X95675000Y-110750000D03*
X95675000Y-111250000D03*
X95675000Y-111750000D03*
X95675000Y-112250000D03*
X95675000Y-112750000D03*
X95675000Y-113250000D03*
X95675000Y-113750000D03*
D24*
X93750000Y-115675000D03*
X93250000Y-115675000D03*
X92750000Y-115675000D03*
X92250000Y-115675000D03*
X91750000Y-115675000D03*
X91250000Y-115675000D03*
X90750000Y-115675000D03*
X90250000Y-115675000D03*
X89750000Y-115675000D03*
X89250000Y-115675000D03*
X88750000Y-115675000D03*
X88250000Y-115675000D03*
X87750000Y-115675000D03*
X87250000Y-115675000D03*
X86750000Y-115675000D03*
X86250000Y-115675000D03*
D23*
X84325000Y-113750000D03*
X84325000Y-113250000D03*
X84325000Y-112750000D03*
X84325000Y-112250000D03*
X84325000Y-111750000D03*
X84325000Y-111250000D03*
X84325000Y-110750000D03*
X84325000Y-110250000D03*
X84325000Y-109750000D03*
X84325000Y-109250000D03*
X84325000Y-108750000D03*
X84325000Y-108250000D03*
X84325000Y-107750000D03*
X84325000Y-107250000D03*
X84325000Y-106750000D03*
X84325000Y-106250000D03*
D24*
X86250000Y-104325000D03*
X86750000Y-104325000D03*
X87250000Y-104325000D03*
X87750000Y-104325000D03*
X88250000Y-104325000D03*
X88750000Y-104325000D03*
X89250000Y-104325000D03*
X89750000Y-104325000D03*
X90250000Y-104325000D03*
X90750000Y-104325000D03*
X91250000Y-104325000D03*
X91750000Y-104325000D03*
X92250000Y-104325000D03*
X92750000Y-104325000D03*
X93250000Y-104325000D03*
X93750000Y-104325000D03*
%TD*%
D25*
%TO.C,U2*%
X79875000Y-91050000D03*
X78000000Y-92000000D03*
X78000000Y-90100000D03*
%TD*%
D26*
%TO.C,U1*%
X108270083Y-128526085D03*
X108941834Y-127854334D03*
X109613585Y-127182583D03*
X108004917Y-125573915D03*
X107333166Y-126245666D03*
X106661415Y-126917417D03*
%TD*%
D27*
%TO.C,BOOT*%
X107420000Y-89100000D03*
X102980000Y-89100000D03*
%TD*%
%TO.C,RESET*%
X74180000Y-86000000D03*
X78620000Y-86000000D03*
%TD*%
D28*
%TO.C,R14*%
X107537500Y-111140000D03*
X109187500Y-111140000D03*
%TD*%
%TO.C,R13*%
X107712500Y-113800000D03*
X109362500Y-113800000D03*
%TD*%
D29*
%TO.C,R6*%
X112000000Y-127825000D03*
X112000000Y-126175000D03*
%TD*%
D30*
%TO.C,R5*%
X109000000Y-131000000D03*
X107350000Y-131000000D03*
%TD*%
D31*
%TO.C,R4*%
X100900000Y-89350000D03*
X100900000Y-91000000D03*
%TD*%
D32*
%TO.C,R1*%
X105000000Y-132175000D03*
X105000000Y-134000000D03*
%TD*%
D20*
%TO.C,J7*%
X71220000Y-79000000D03*
X73760000Y-79000000D03*
X76300000Y-79000000D03*
X78840000Y-79000000D03*
X81380000Y-79000000D03*
X83920000Y-79000000D03*
X86460000Y-79000000D03*
X89000000Y-79000000D03*
X91540000Y-79000000D03*
X94080000Y-79000000D03*
X96620000Y-79000000D03*
X99160000Y-79000000D03*
X101700000Y-79000000D03*
X104240000Y-79000000D03*
X106780000Y-79000000D03*
X109320000Y-79000000D03*
X111860000Y-79000000D03*
D19*
X114400000Y-79000000D03*
%TD*%
%TO.C,J6*%
X120000000Y-128540000D03*
D20*
X120000000Y-126000000D03*
X120000000Y-123460000D03*
X120000000Y-120920000D03*
X120000000Y-118380000D03*
X120000000Y-115840000D03*
X120000000Y-113300000D03*
X120000000Y-110760000D03*
X120000000Y-108220000D03*
X120000000Y-105680000D03*
X120000000Y-103140000D03*
X120000000Y-100600000D03*
X120000000Y-98060000D03*
X120000000Y-95520000D03*
X120000000Y-92980000D03*
X120000000Y-90440000D03*
X120000000Y-87900000D03*
X120000000Y-85360000D03*
%TD*%
D19*
%TO.C,J5*%
X65600000Y-140000000D03*
D20*
X68140000Y-140000000D03*
X70680000Y-140000000D03*
X73220000Y-140000000D03*
X75760000Y-140000000D03*
X78300000Y-140000000D03*
X80840000Y-140000000D03*
X83380000Y-140000000D03*
X85920000Y-140000000D03*
X88460000Y-140000000D03*
X91000000Y-140000000D03*
X93540000Y-140000000D03*
X96080000Y-140000000D03*
X98620000Y-140000000D03*
X101160000Y-140000000D03*
X103700000Y-140000000D03*
X106240000Y-140000000D03*
X108780000Y-140000000D03*
%TD*%
%TO.C,J4*%
X64796051Y-83203949D03*
D33*
X63000000Y-85000000D03*
%TD*%
D34*
%TO.C,J1*%
X70909013Y-89636962D03*
X71807038Y-90534987D03*
X70010987Y-90534987D03*
X70909013Y-91433013D03*
X69112962Y-91433013D03*
X70010987Y-92331038D03*
D35*
X72974472Y-89906369D03*
X71537631Y-88469528D03*
X68663949Y-92780051D03*
%TD*%
D36*
%TO.C,H4*%
X115300000Y-135200000D03*
%TD*%
%TO.C,H3*%
X60000000Y-139000000D03*
%TD*%
%TO.C,H2*%
X119000000Y-80000000D03*
%TD*%
%TO.C,H1*%
X60000000Y-80000000D03*
%TD*%
D37*
%TO.C,D2*%
X103425000Y-111100000D03*
X105300000Y-111100000D03*
%TD*%
%TO.C,D1*%
X103425000Y-113800000D03*
X105300000Y-113800000D03*
%TD*%
D38*
%TO.C,C17*%
X87775000Y-100225000D03*
X87775000Y-101775000D03*
%TD*%
D39*
%TO.C,C16*%
X80450000Y-107225000D03*
X82000000Y-107225000D03*
%TD*%
%TO.C,C15*%
X81450000Y-115000000D03*
X83000000Y-115000000D03*
%TD*%
D40*
%TO.C,C14*%
X97550000Y-117000000D03*
X96000000Y-117000000D03*
%TD*%
%TO.C,C13*%
X98550000Y-104000000D03*
X97000000Y-104000000D03*
%TD*%
D38*
%TO.C,C8*%
X95200000Y-94825000D03*
X95200000Y-96375000D03*
%TD*%
D41*
%TO.C,C7*%
X88300000Y-96475000D03*
X88300000Y-94925000D03*
%TD*%
D40*
%TO.C,C5*%
X97900000Y-129000000D03*
X96350000Y-129000000D03*
%TD*%
D42*
%TO.C,C4*%
X94350000Y-127800000D03*
X92450000Y-127800000D03*
%TD*%
D39*
%TO.C,C3*%
X92800000Y-126000000D03*
X94350000Y-126000000D03*
%TD*%
D42*
%TO.C,C2*%
X94400000Y-124200000D03*
X92500000Y-124200000D03*
%TD*%
D39*
%TO.C,C1*%
X80190000Y-86000000D03*
X81740000Y-86000000D03*
%TD*%
%LPD*%
M02*
