%TF.GenerationSoftware,KiCad,Pcbnew,9.0.6*%
%TF.CreationDate,2025-12-29T21:28:49-05:00*%
%TF.ProjectId,plimsoll,706c696d-736f-46c6-9c2e-6b696361645f,rev?*%
%TF.SameCoordinates,Original*%
%TF.FileFunction,Legend,Top*%
%TF.FilePolarity,Positive*%
%FSLAX46Y46*%
G04 Gerber Fmt 4.6, Leading zero omitted, Abs format (unit mm)*
G04 Created by KiCad (PCBNEW 9.0.6) date 2025-12-29 21:28:49*
%MOMM*%
%LPD*%
G01*
G04 APERTURE LIST*
G04 Aperture macros list*
%AMRoundRect*
0 Rectangle with rounded corners*
0 $1 Rounding radius*
0 $2 $3 $4 $5 $6 $7 $8 $9 X,Y pos of 4 corners*
0 Add a 4 corners polygon primitive as box body*
4,1,4,$2,$3,$4,$5,$6,$7,$8,$9,$2,$3,0*
0 Add four circle primitives for the rounded corners*
1,1,$1+$1,$2,$3*
1,1,$1+$1,$4,$5*
1,1,$1+$1,$6,$7*
1,1,$1+$1,$8,$9*
0 Add four rect primitives between the rounded corners*
20,1,$1+$1,$2,$3,$4,$5,0*
20,1,$1+$1,$4,$5,$6,$7,0*
20,1,$1+$1,$6,$7,$8,$9,0*
20,1,$1+$1,$8,$9,$2,$3,0*%
G04 Aperture macros list end*
%ADD10C,0.187500*%
%ADD11C,0.120000*%
%ADD12RoundRect,0.200000X-0.275000X0.200000X-0.275000X-0.200000X0.275000X-0.200000X0.275000X0.200000X0*%
%ADD13RoundRect,0.250000X0.600000X0.725000X-0.600000X0.725000X-0.600000X-0.725000X0.600000X-0.725000X0*%
%ADD14O,1.700000X1.950000*%
%ADD15RoundRect,0.225000X0.250000X-0.225000X0.250000X0.225000X-0.250000X0.225000X-0.250000X-0.225000X0*%
%ADD16C,3.200000*%
%ADD17RoundRect,0.250000X0.475000X-0.250000X0.475000X0.250000X-0.475000X0.250000X-0.475000X-0.250000X0*%
%ADD18RoundRect,0.150000X0.150000X-0.512500X0.150000X0.512500X-0.150000X0.512500X-0.150000X-0.512500X0*%
%ADD19RoundRect,0.150000X0.850000X0.150000X-0.850000X0.150000X-0.850000X-0.150000X0.850000X-0.150000X0*%
%ADD20RoundRect,0.225000X-0.250000X0.225000X-0.250000X-0.225000X0.250000X-0.225000X0.250000X0.225000X0*%
%ADD21RoundRect,0.200000X0.275000X-0.200000X0.275000X0.200000X-0.275000X0.200000X-0.275000X-0.200000X0*%
%ADD22RoundRect,0.200000X-0.200000X-0.275000X0.200000X-0.275000X0.200000X0.275000X-0.200000X0.275000X0*%
%ADD23RoundRect,0.250000X-0.475000X0.250000X-0.475000X-0.250000X0.475000X-0.250000X0.475000X0.250000X0*%
%ADD24R,1.350000X1.350000*%
%ADD25C,1.350000*%
G04 APERTURE END LIST*
D10*
X38423783Y-20380497D02*
X38423783Y-20880497D01*
X37638069Y-21094783D02*
X37638069Y-20380497D01*
X37638069Y-20380497D02*
X39138069Y-20380497D01*
X39138069Y-20380497D02*
X39138069Y-21094783D01*
X38209498Y-21737640D02*
X38209498Y-22880498D01*
X37638069Y-22309069D02*
X38780926Y-22309069D01*
X36008867Y-20380497D02*
X36008867Y-20880497D01*
X35223153Y-21094783D02*
X35223153Y-20380497D01*
X35223153Y-20380497D02*
X36723153Y-20380497D01*
X36723153Y-20380497D02*
X36723153Y-21094783D01*
X35794582Y-21737640D02*
X35794582Y-22880498D01*
X32879666Y-20309069D02*
X32808237Y-20523355D01*
X32808237Y-20523355D02*
X32808237Y-20880497D01*
X32808237Y-20880497D02*
X32879666Y-21023355D01*
X32879666Y-21023355D02*
X32951094Y-21094783D01*
X32951094Y-21094783D02*
X33093951Y-21166212D01*
X33093951Y-21166212D02*
X33236808Y-21166212D01*
X33236808Y-21166212D02*
X33379666Y-21094783D01*
X33379666Y-21094783D02*
X33451094Y-21023355D01*
X33451094Y-21023355D02*
X33522523Y-20880497D01*
X33522523Y-20880497D02*
X33593951Y-20594783D01*
X33593951Y-20594783D02*
X33665380Y-20451926D01*
X33665380Y-20451926D02*
X33736808Y-20380497D01*
X33736808Y-20380497D02*
X33879666Y-20309069D01*
X33879666Y-20309069D02*
X34022523Y-20309069D01*
X34022523Y-20309069D02*
X34165380Y-20380497D01*
X34165380Y-20380497D02*
X34236808Y-20451926D01*
X34236808Y-20451926D02*
X34308237Y-20594783D01*
X34308237Y-20594783D02*
X34308237Y-20951926D01*
X34308237Y-20951926D02*
X34236808Y-21166212D01*
X33379666Y-21809068D02*
X33379666Y-22951926D01*
X30464750Y-20309069D02*
X30393321Y-20523355D01*
X30393321Y-20523355D02*
X30393321Y-20880497D01*
X30393321Y-20880497D02*
X30464750Y-21023355D01*
X30464750Y-21023355D02*
X30536178Y-21094783D01*
X30536178Y-21094783D02*
X30679035Y-21166212D01*
X30679035Y-21166212D02*
X30821892Y-21166212D01*
X30821892Y-21166212D02*
X30964750Y-21094783D01*
X30964750Y-21094783D02*
X31036178Y-21023355D01*
X31036178Y-21023355D02*
X31107607Y-20880497D01*
X31107607Y-20880497D02*
X31179035Y-20594783D01*
X31179035Y-20594783D02*
X31250464Y-20451926D01*
X31250464Y-20451926D02*
X31321892Y-20380497D01*
X31321892Y-20380497D02*
X31464750Y-20309069D01*
X31464750Y-20309069D02*
X31607607Y-20309069D01*
X31607607Y-20309069D02*
X31750464Y-20380497D01*
X31750464Y-20380497D02*
X31821892Y-20451926D01*
X31821892Y-20451926D02*
X31893321Y-20594783D01*
X31893321Y-20594783D02*
X31893321Y-20951926D01*
X31893321Y-20951926D02*
X31821892Y-21166212D01*
X30964750Y-21809068D02*
X30964750Y-22951926D01*
X30393321Y-22380497D02*
X31536178Y-22380497D01*
D11*
%TO.C,R12*%
X25847500Y-28047742D02*
X25847500Y-28522258D01*
X26892500Y-28047742D02*
X26892500Y-28522258D01*
%TO.C,C8*%
X33290000Y-36215580D02*
X33290000Y-35934420D01*
X34310000Y-36215580D02*
X34310000Y-35934420D01*
%TO.C,C11*%
X37635000Y-38081252D02*
X37635000Y-37558748D01*
X39105000Y-38081252D02*
X39105000Y-37558748D01*
%TO.C,R11*%
X25927500Y-24962742D02*
X25927500Y-25437258D01*
X26972500Y-24962742D02*
X26972500Y-25437258D01*
%TO.C,U5*%
X35520000Y-41752500D02*
X35520000Y-40952500D01*
X35520000Y-41752500D02*
X35520000Y-42552500D01*
X38640000Y-41752500D02*
X38640000Y-40952500D01*
X38640000Y-41752500D02*
X38640000Y-42552500D01*
X35570000Y-43052500D02*
X35240000Y-43292500D01*
X35240000Y-42812500D01*
X35570000Y-43052500D01*
G36*
X35570000Y-43052500D02*
G01*
X35240000Y-43292500D01*
X35240000Y-42812500D01*
X35570000Y-43052500D01*
G37*
%TO.C,U6*%
X29200000Y-30275000D02*
X27250000Y-30275000D01*
X29200000Y-30275000D02*
X31150000Y-30275000D01*
X29200000Y-40395000D02*
X27250000Y-40395000D01*
X29200000Y-40395000D02*
X31150000Y-40395000D01*
X32165000Y-40670000D02*
X31685000Y-40670000D01*
X31925000Y-40340000D01*
X32165000Y-40670000D01*
G36*
X32165000Y-40670000D02*
G01*
X31685000Y-40670000D01*
X31925000Y-40340000D01*
X32165000Y-40670000D01*
G37*
%TO.C,C7*%
X29390000Y-28309420D02*
X29390000Y-28590580D01*
X30410000Y-28309420D02*
X30410000Y-28590580D01*
%TO.C,R10*%
X25927500Y-22337258D02*
X25927500Y-21862742D01*
X26972500Y-22337258D02*
X26972500Y-21862742D01*
%TO.C,C9*%
X30890000Y-42034420D02*
X30890000Y-42315580D01*
X31910000Y-42034420D02*
X31910000Y-42315580D01*
%TO.C,R8*%
X31987742Y-27177500D02*
X32462258Y-27177500D01*
X31987742Y-28222500D02*
X32462258Y-28222500D01*
%TO.C,R7*%
X32002742Y-28687500D02*
X32477258Y-28687500D01*
X32002742Y-29732500D02*
X32477258Y-29732500D01*
%TO.C,C12*%
X33290000Y-38934420D02*
X33290000Y-39215580D01*
X34310000Y-38934420D02*
X34310000Y-39215580D01*
%TO.C,C6*%
X33415000Y-42088748D02*
X33415000Y-42611252D01*
X34885000Y-42088748D02*
X34885000Y-42611252D01*
%TO.C,C10*%
X35505000Y-38061252D02*
X35505000Y-37538748D01*
X36975000Y-38061252D02*
X36975000Y-37538748D01*
%TD*%
%LPC*%
D12*
%TO.C,R12*%
X26370000Y-27460000D03*
X26370000Y-29110000D03*
%TD*%
D13*
%TO.C,J3*%
X38200000Y-24060000D03*
D14*
X35700000Y-24060000D03*
X33200000Y-24060000D03*
X30700000Y-24060000D03*
%TD*%
D15*
%TO.C,C8*%
X33800000Y-36850000D03*
X33800000Y-35300000D03*
%TD*%
D16*
%TO.C,H1*%
X36600000Y-31839706D03*
%TD*%
D17*
%TO.C,C11*%
X38370000Y-38770000D03*
X38370000Y-36870000D03*
%TD*%
D12*
%TO.C,R11*%
X26450000Y-24375000D03*
X26450000Y-26025000D03*
%TD*%
D18*
%TO.C,U5*%
X36130000Y-42890000D03*
X37080000Y-42890000D03*
X38030000Y-42890000D03*
X38030000Y-40615000D03*
X36130000Y-40615000D03*
%TD*%
D19*
%TO.C,U6*%
X31700000Y-39780000D03*
X31700000Y-38510000D03*
X31700000Y-37240000D03*
X31700000Y-35970000D03*
X31700000Y-34700000D03*
X31700000Y-33430000D03*
X31700000Y-32160000D03*
X31700000Y-30890000D03*
X26700000Y-30890000D03*
X26700000Y-32160000D03*
X26700000Y-33430000D03*
X26700000Y-34700000D03*
X26700000Y-35970000D03*
X26700000Y-37240000D03*
X26700000Y-38510000D03*
X26700000Y-39780000D03*
%TD*%
D20*
%TO.C,C7*%
X29900000Y-27675000D03*
X29900000Y-29225000D03*
%TD*%
D21*
%TO.C,R10*%
X26450000Y-22925000D03*
X26450000Y-21275000D03*
%TD*%
D20*
%TO.C,C9*%
X31400000Y-41400000D03*
X31400000Y-42950000D03*
%TD*%
D22*
%TO.C,R8*%
X31400000Y-27700000D03*
X33050000Y-27700000D03*
%TD*%
%TO.C,R7*%
X31415000Y-29210000D03*
X33065000Y-29210000D03*
%TD*%
D20*
%TO.C,C12*%
X33800000Y-38300000D03*
X33800000Y-39850000D03*
%TD*%
D23*
%TO.C,C6*%
X34150000Y-41400000D03*
X34150000Y-43300000D03*
%TD*%
D17*
%TO.C,C10*%
X36240000Y-38750000D03*
X36240000Y-36850000D03*
%TD*%
D24*
%TO.C,J1*%
X29480000Y-47480000D03*
D25*
X29480000Y-45480000D03*
X31480000Y-47480000D03*
X31480000Y-45480000D03*
X33480000Y-47480000D03*
X33480000Y-45480000D03*
X35480000Y-47480000D03*
X35480000Y-45480000D03*
X37480000Y-47480000D03*
X37480000Y-45480000D03*
X39480000Y-47480000D03*
X39480000Y-45480000D03*
%TD*%
%LPD*%
M02*
