%TF.GenerationSoftware,KiCad,Pcbnew,9.0.6*%
%TF.CreationDate,2025-12-29T21:28:49-05:00*%
%TF.ProjectId,plimsoll,706c696d-736f-46c6-9c2e-6b696361645f,rev?*%
%TF.SameCoordinates,Original*%
%TF.FileFunction,Soldermask,Top*%
%TF.FilePolarity,Negative*%
%FSLAX46Y46*%
G04 Gerber Fmt 4.6, Leading zero omitted, Abs format (unit mm)*
G04 Created by KiCad (PCBNEW 9.0.6) date 2025-12-29 21:28:49*
%MOMM*%
%LPD*%
G01*
G04 APERTURE LIST*
G04 Aperture macros list*
%AMRoundRect*
0 Rectangle with rounded corners*
0 $1 Rounding radius*
0 $2 $3 $4 $5 $6 $7 $8 $9 X,Y pos of 4 corners*
0 Add a 4 corners polygon primitive as box body*
4,1,4,$2,$3,$4,$5,$6,$7,$8,$9,$2,$3,0*
0 Add four circle primitives for the rounded corners*
1,1,$1+$1,$2,$3*
1,1,$1+$1,$4,$5*
1,1,$1+$1,$6,$7*
1,1,$1+$1,$8,$9*
0 Add four rect primitives between the rounded corners*
20,1,$1+$1,$2,$3,$4,$5,0*
20,1,$1+$1,$4,$5,$6,$7,0*
20,1,$1+$1,$6,$7,$8,$9,0*
20,1,$1+$1,$8,$9,$2,$3,0*%
G04 Aperture macros list end*
%ADD10RoundRect,0.200000X-0.275000X0.200000X-0.275000X-0.200000X0.275000X-0.200000X0.275000X0.200000X0*%
%ADD11RoundRect,0.250000X0.600000X0.725000X-0.600000X0.725000X-0.600000X-0.725000X0.600000X-0.725000X0*%
%ADD12O,1.700000X1.950000*%
%ADD13RoundRect,0.225000X0.250000X-0.225000X0.250000X0.225000X-0.250000X0.225000X-0.250000X-0.225000X0*%
%ADD14RoundRect,0.250000X0.475000X-0.250000X0.475000X0.250000X-0.475000X0.250000X-0.475000X-0.250000X0*%
%ADD15RoundRect,0.150000X0.150000X-0.512500X0.150000X0.512500X-0.150000X0.512500X-0.150000X-0.512500X0*%
%ADD16RoundRect,0.150000X0.850000X0.150000X-0.850000X0.150000X-0.850000X-0.150000X0.850000X-0.150000X0*%
%ADD17RoundRect,0.225000X-0.250000X0.225000X-0.250000X-0.225000X0.250000X-0.225000X0.250000X0.225000X0*%
%ADD18RoundRect,0.200000X0.275000X-0.200000X0.275000X0.200000X-0.275000X0.200000X-0.275000X-0.200000X0*%
%ADD19RoundRect,0.200000X-0.200000X-0.275000X0.200000X-0.275000X0.200000X0.275000X-0.200000X0.275000X0*%
%ADD20RoundRect,0.250000X-0.475000X0.250000X-0.475000X-0.250000X0.475000X-0.250000X0.475000X0.250000X0*%
%ADD21R,1.350000X1.350000*%
%ADD22C,1.350000*%
G04 APERTURE END LIST*
D10*
%TO.C,R12*%
X26370000Y-27460000D03*
X26370000Y-29110000D03*
%TD*%
D11*
%TO.C,J3*%
X38200000Y-24060000D03*
D12*
X35700000Y-24060000D03*
X33200000Y-24060000D03*
X30700000Y-24060000D03*
%TD*%
D13*
%TO.C,C8*%
X33800000Y-36850000D03*
X33800000Y-35300000D03*
%TD*%
D14*
%TO.C,C11*%
X38370000Y-38770000D03*
X38370000Y-36870000D03*
%TD*%
D10*
%TO.C,R11*%
X26450000Y-24375000D03*
X26450000Y-26025000D03*
%TD*%
D15*
%TO.C,U5*%
X36130000Y-42890000D03*
X37080000Y-42890000D03*
X38030000Y-42890000D03*
X38030000Y-40615000D03*
X36130000Y-40615000D03*
%TD*%
D16*
%TO.C,U6*%
X31700000Y-39780000D03*
X31700000Y-38510000D03*
X31700000Y-37240000D03*
X31700000Y-35970000D03*
X31700000Y-34700000D03*
X31700000Y-33430000D03*
X31700000Y-32160000D03*
X31700000Y-30890000D03*
X26700000Y-30890000D03*
X26700000Y-32160000D03*
X26700000Y-33430000D03*
X26700000Y-34700000D03*
X26700000Y-35970000D03*
X26700000Y-37240000D03*
X26700000Y-38510000D03*
X26700000Y-39780000D03*
%TD*%
D17*
%TO.C,C7*%
X29900000Y-27675000D03*
X29900000Y-29225000D03*
%TD*%
D18*
%TO.C,R10*%
X26450000Y-22925000D03*
X26450000Y-21275000D03*
%TD*%
D17*
%TO.C,C9*%
X31400000Y-41400000D03*
X31400000Y-42950000D03*
%TD*%
D19*
%TO.C,R8*%
X31400000Y-27700000D03*
X33050000Y-27700000D03*
%TD*%
%TO.C,R7*%
X31415000Y-29210000D03*
X33065000Y-29210000D03*
%TD*%
D17*
%TO.C,C12*%
X33800000Y-38300000D03*
X33800000Y-39850000D03*
%TD*%
D20*
%TO.C,C6*%
X34150000Y-41400000D03*
X34150000Y-43300000D03*
%TD*%
D14*
%TO.C,C10*%
X36240000Y-38750000D03*
X36240000Y-36850000D03*
%TD*%
D21*
%TO.C,J1*%
X29480000Y-47480000D03*
D22*
X29480000Y-45480000D03*
X31480000Y-47480000D03*
X31480000Y-45480000D03*
X33480000Y-47480000D03*
X33480000Y-45480000D03*
X35480000Y-47480000D03*
X35480000Y-45480000D03*
X37480000Y-47480000D03*
X37480000Y-45480000D03*
X39480000Y-47480000D03*
X39480000Y-45480000D03*
%TD*%
M02*
