M48
; DRILL file {KiCad 9.0.6} date 2025-12-29T21:28:49-0500
; FORMAT={-:-/ absolute / inch / decimal}
; #@! TF.CreationDate,2025-12-29T21:28:49-05:00
; #@! TF.GenerationSoftware,Kicad,Pcbnew,9.0.6
; #@! TF.FileFunction,Plated,1,4,PTH
FMAT,2
INCH
; #@! TA.AperFunction,Plated,PTH,ViaDrill
T1C0.0118
; #@! TA.AperFunction,Plated,PTH,ComponentDrill
T2C0.0315
; #@! TA.AperFunction,Plated,PTH,ComponentDrill
T3C0.0374
%
G90
G05
T1
X1.0118Y-0.9331
X1.0118Y-1.547
X1.0377Y-1.1087
X1.0728Y-1.1772
X1.1041Y-1.3271
X1.1063Y-1.3661
X1.1102Y-1.4665
X1.1122Y-1.5157
X1.1378Y-0.8445
X1.1398Y-0.9941
X1.1752Y-1.7028
X1.185Y-1.3544
X1.187Y-1.5177
X1.2244Y-1.0591
X1.2559Y-1.1496
X1.2894Y-1.7126
X1.2933Y-0.8465
X1.3012Y-1.6457
X1.315Y-1.3386
X1.3825Y-1.4898
X1.3839Y-1.4055
X1.5Y-1.4016
X1.5748Y-0.8504
X1.5787Y-1.0886
X1.5827Y-1.3799
X1.5866Y-1.6004
T2
X1.1606Y-1.7906
X1.1606Y-1.8693
X1.2394Y-1.7906
X1.2394Y-1.8693
X1.3181Y-1.7906
X1.3181Y-1.8693
X1.3969Y-1.7906
X1.3969Y-1.8693
X1.4756Y-1.7906
X1.4756Y-1.8693
X1.5543Y-1.7906
X1.5543Y-1.8693
T3
X1.2087Y-0.9472
X1.3071Y-0.9472
X1.4055Y-0.9472
X1.5039Y-0.9472
M30
