%TF.GenerationSoftware,KiCad,Pcbnew,9.0.6*%
%TF.CreationDate,2025-12-29T21:45:30-05:00*%
%TF.ProjectId,plimsoll,706c696d-736f-46c6-9c2e-6b696361645f,rev?*%
%TF.SameCoordinates,Original*%
%TF.FileFunction,Legend,Bot*%
%TF.FilePolarity,Positive*%
%FSLAX46Y46*%
G04 Gerber Fmt 4.6, Leading zero omitted, Abs format (unit mm)*
G04 Created by KiCad (PCBNEW 9.0.6) date 2025-12-29 21:45:30*
%MOMM*%
%LPD*%
G01*
G04 APERTURE LIST*
G04 Aperture macros list*
%AMRoundRect*
0 Rectangle with rounded corners*
0 $1 Rounding radius*
0 $2 $3 $4 $5 $6 $7 $8 $9 X,Y pos of 4 corners*
0 Add a 4 corners polygon primitive as box body*
4,1,4,$2,$3,$4,$5,$6,$7,$8,$9,$2,$3,0*
0 Add four circle primitives for the rounded corners*
1,1,$1+$1,$2,$3*
1,1,$1+$1,$4,$5*
1,1,$1+$1,$6,$7*
1,1,$1+$1,$8,$9*
0 Add four rect primitives between the rounded corners*
20,1,$1+$1,$2,$3,$4,$5,0*
20,1,$1+$1,$4,$5,$6,$7,0*
20,1,$1+$1,$6,$7,$8,$9,0*
20,1,$1+$1,$8,$9,$2,$3,0*%
%AMFreePoly0*
4,1,23,0.550000,-0.750000,0.000000,-0.750000,0.000000,-0.745722,-0.065263,-0.745722,-0.191342,-0.711940,-0.304381,-0.646677,-0.396677,-0.554381,-0.461940,-0.441342,-0.495722,-0.315263,-0.495722,-0.250000,-0.500000,-0.250000,-0.500000,0.250000,-0.495722,0.250000,-0.495722,0.315263,-0.461940,0.441342,-0.396677,0.554381,-0.304381,0.646677,-0.191342,0.711940,-0.065263,0.745722,0.000000,0.745722,
0.000000,0.750000,0.550000,0.750000,0.550000,-0.750000,0.550000,-0.750000,$1*%
%AMFreePoly1*
4,1,23,0.000000,0.745722,0.065263,0.745722,0.191342,0.711940,0.304381,0.646677,0.396677,0.554381,0.461940,0.441342,0.495722,0.315263,0.495722,0.250000,0.500000,0.250000,0.500000,-0.250000,0.495722,-0.250000,0.495722,-0.315263,0.461940,-0.441342,0.396677,-0.554381,0.304381,-0.646677,0.191342,-0.711940,0.065263,-0.745722,0.000000,-0.745722,0.000000,-0.750000,-0.550000,-0.750000,
-0.550000,0.750000,0.000000,0.750000,0.000000,0.745722,0.000000,0.745722,$1*%
G04 Aperture macros list end*
%ADD10C,0.187500*%
%ADD11C,0.150000*%
%ADD12C,0.200000*%
%ADD13C,0.160000*%
%ADD14C,0.120000*%
%ADD15RoundRect,0.250000X0.600000X0.725000X-0.600000X0.725000X-0.600000X-0.725000X0.600000X-0.725000X0*%
%ADD16O,1.700000X1.950000*%
%ADD17C,3.200000*%
%ADD18FreePoly0,90.000000*%
%ADD19R,1.500000X1.000000*%
%ADD20FreePoly1,90.000000*%
%ADD21R,1.350000X1.350000*%
%ADD22C,1.350000*%
G04 APERTURE END LIST*
D10*
X38303783Y-28039502D02*
X38303783Y-27539502D01*
X37518069Y-27325216D02*
X37518069Y-28039502D01*
X37518069Y-28039502D02*
X39018069Y-28039502D01*
X39018069Y-28039502D02*
X39018069Y-27325216D01*
X38089498Y-26682359D02*
X38089498Y-25539502D01*
X37518069Y-26110930D02*
X38660926Y-26110930D01*
X35888867Y-28039502D02*
X35888867Y-27539502D01*
X35103153Y-27325216D02*
X35103153Y-28039502D01*
X35103153Y-28039502D02*
X36603153Y-28039502D01*
X36603153Y-28039502D02*
X36603153Y-27325216D01*
X35674582Y-26682359D02*
X35674582Y-25539502D01*
X32759666Y-28110930D02*
X32688237Y-27896645D01*
X32688237Y-27896645D02*
X32688237Y-27539502D01*
X32688237Y-27539502D02*
X32759666Y-27396645D01*
X32759666Y-27396645D02*
X32831094Y-27325216D01*
X32831094Y-27325216D02*
X32973951Y-27253787D01*
X32973951Y-27253787D02*
X33116808Y-27253787D01*
X33116808Y-27253787D02*
X33259666Y-27325216D01*
X33259666Y-27325216D02*
X33331094Y-27396645D01*
X33331094Y-27396645D02*
X33402523Y-27539502D01*
X33402523Y-27539502D02*
X33473951Y-27825216D01*
X33473951Y-27825216D02*
X33545380Y-27968073D01*
X33545380Y-27968073D02*
X33616808Y-28039502D01*
X33616808Y-28039502D02*
X33759666Y-28110930D01*
X33759666Y-28110930D02*
X33902523Y-28110930D01*
X33902523Y-28110930D02*
X34045380Y-28039502D01*
X34045380Y-28039502D02*
X34116808Y-27968073D01*
X34116808Y-27968073D02*
X34188237Y-27825216D01*
X34188237Y-27825216D02*
X34188237Y-27468073D01*
X34188237Y-27468073D02*
X34116808Y-27253787D01*
X33259666Y-26610931D02*
X33259666Y-25468074D01*
X30344750Y-28110930D02*
X30273321Y-27896645D01*
X30273321Y-27896645D02*
X30273321Y-27539502D01*
X30273321Y-27539502D02*
X30344750Y-27396645D01*
X30344750Y-27396645D02*
X30416178Y-27325216D01*
X30416178Y-27325216D02*
X30559035Y-27253787D01*
X30559035Y-27253787D02*
X30701892Y-27253787D01*
X30701892Y-27253787D02*
X30844750Y-27325216D01*
X30844750Y-27325216D02*
X30916178Y-27396645D01*
X30916178Y-27396645D02*
X30987607Y-27539502D01*
X30987607Y-27539502D02*
X31059035Y-27825216D01*
X31059035Y-27825216D02*
X31130464Y-27968073D01*
X31130464Y-27968073D02*
X31201892Y-28039502D01*
X31201892Y-28039502D02*
X31344750Y-28110930D01*
X31344750Y-28110930D02*
X31487607Y-28110930D01*
X31487607Y-28110930D02*
X31630464Y-28039502D01*
X31630464Y-28039502D02*
X31701892Y-27968073D01*
X31701892Y-27968073D02*
X31773321Y-27825216D01*
X31773321Y-27825216D02*
X31773321Y-27468073D01*
X31773321Y-27468073D02*
X31701892Y-27253787D01*
X30844750Y-26610931D02*
X30844750Y-25468074D01*
X30273321Y-26039502D02*
X31416178Y-26039502D01*
D11*
X27539038Y-38667982D02*
X26891419Y-38667982D01*
X26891419Y-38667982D02*
X26815228Y-38706077D01*
X26815228Y-38706077D02*
X26777133Y-38744173D01*
X26777133Y-38744173D02*
X26739038Y-38820363D01*
X26739038Y-38820363D02*
X26739038Y-38934649D01*
X26739038Y-38934649D02*
X26777133Y-39010839D01*
X27043800Y-38667982D02*
X27005704Y-38744173D01*
X27005704Y-38744173D02*
X27005704Y-38896554D01*
X27005704Y-38896554D02*
X27043800Y-38972744D01*
X27043800Y-38972744D02*
X27081895Y-39010839D01*
X27081895Y-39010839D02*
X27158085Y-39048935D01*
X27158085Y-39048935D02*
X27386657Y-39048935D01*
X27386657Y-39048935D02*
X27462847Y-39010839D01*
X27462847Y-39010839D02*
X27500942Y-38972744D01*
X27500942Y-38972744D02*
X27539038Y-38896554D01*
X27539038Y-38896554D02*
X27539038Y-38744173D01*
X27539038Y-38744173D02*
X27500942Y-38667982D01*
X27005704Y-38287029D02*
X27539038Y-38287029D01*
X27805704Y-38287029D02*
X27767609Y-38325125D01*
X27767609Y-38325125D02*
X27729514Y-38287029D01*
X27729514Y-38287029D02*
X27767609Y-38248934D01*
X27767609Y-38248934D02*
X27805704Y-38287029D01*
X27805704Y-38287029D02*
X27729514Y-38287029D01*
X27539038Y-38020363D02*
X27539038Y-37715601D01*
X27805704Y-37906077D02*
X27119990Y-37906077D01*
X27119990Y-37906077D02*
X27043800Y-37867982D01*
X27043800Y-37867982D02*
X27005704Y-37791792D01*
X27005704Y-37791792D02*
X27005704Y-37715601D01*
X27005704Y-37448934D02*
X27805704Y-37448934D01*
X27005704Y-37106077D02*
X27424752Y-37106077D01*
X27424752Y-37106077D02*
X27500942Y-37144172D01*
X27500942Y-37144172D02*
X27539038Y-37220363D01*
X27539038Y-37220363D02*
X27539038Y-37334649D01*
X27539038Y-37334649D02*
X27500942Y-37410839D01*
X27500942Y-37410839D02*
X27462847Y-37448934D01*
X27539038Y-36382267D02*
X27005704Y-36382267D01*
X27539038Y-36725124D02*
X27119990Y-36725124D01*
X27119990Y-36725124D02*
X27043800Y-36687029D01*
X27043800Y-36687029D02*
X27005704Y-36610839D01*
X27005704Y-36610839D02*
X27005704Y-36496553D01*
X27005704Y-36496553D02*
X27043800Y-36420362D01*
X27043800Y-36420362D02*
X27081895Y-36382267D01*
X27005704Y-36001314D02*
X27805704Y-36001314D01*
X27500942Y-36001314D02*
X27539038Y-35925124D01*
X27539038Y-35925124D02*
X27539038Y-35772743D01*
X27539038Y-35772743D02*
X27500942Y-35696552D01*
X27500942Y-35696552D02*
X27462847Y-35658457D01*
X27462847Y-35658457D02*
X27386657Y-35620362D01*
X27386657Y-35620362D02*
X27158085Y-35620362D01*
X27158085Y-35620362D02*
X27081895Y-35658457D01*
X27081895Y-35658457D02*
X27043800Y-35696552D01*
X27043800Y-35696552D02*
X27005704Y-35772743D01*
X27005704Y-35772743D02*
X27005704Y-35925124D01*
X27005704Y-35925124D02*
X27043800Y-36001314D01*
X27081895Y-35277504D02*
X27043800Y-35239409D01*
X27043800Y-35239409D02*
X27005704Y-35277504D01*
X27005704Y-35277504D02*
X27043800Y-35315600D01*
X27043800Y-35315600D02*
X27081895Y-35277504D01*
X27081895Y-35277504D02*
X27005704Y-35277504D01*
X27043800Y-34553695D02*
X27005704Y-34629886D01*
X27005704Y-34629886D02*
X27005704Y-34782267D01*
X27005704Y-34782267D02*
X27043800Y-34858457D01*
X27043800Y-34858457D02*
X27081895Y-34896552D01*
X27081895Y-34896552D02*
X27158085Y-34934648D01*
X27158085Y-34934648D02*
X27386657Y-34934648D01*
X27386657Y-34934648D02*
X27462847Y-34896552D01*
X27462847Y-34896552D02*
X27500942Y-34858457D01*
X27500942Y-34858457D02*
X27539038Y-34782267D01*
X27539038Y-34782267D02*
X27539038Y-34629886D01*
X27539038Y-34629886D02*
X27500942Y-34553695D01*
X27005704Y-34096553D02*
X27043800Y-34172743D01*
X27043800Y-34172743D02*
X27081895Y-34210838D01*
X27081895Y-34210838D02*
X27158085Y-34248934D01*
X27158085Y-34248934D02*
X27386657Y-34248934D01*
X27386657Y-34248934D02*
X27462847Y-34210838D01*
X27462847Y-34210838D02*
X27500942Y-34172743D01*
X27500942Y-34172743D02*
X27539038Y-34096553D01*
X27539038Y-34096553D02*
X27539038Y-33982267D01*
X27539038Y-33982267D02*
X27500942Y-33906076D01*
X27500942Y-33906076D02*
X27462847Y-33867981D01*
X27462847Y-33867981D02*
X27386657Y-33829886D01*
X27386657Y-33829886D02*
X27158085Y-33829886D01*
X27158085Y-33829886D02*
X27081895Y-33867981D01*
X27081895Y-33867981D02*
X27043800Y-33906076D01*
X27043800Y-33906076D02*
X27005704Y-33982267D01*
X27005704Y-33982267D02*
X27005704Y-34096553D01*
X27005704Y-33487028D02*
X27539038Y-33487028D01*
X27462847Y-33487028D02*
X27500942Y-33448933D01*
X27500942Y-33448933D02*
X27539038Y-33372743D01*
X27539038Y-33372743D02*
X27539038Y-33258457D01*
X27539038Y-33258457D02*
X27500942Y-33182266D01*
X27500942Y-33182266D02*
X27424752Y-33144171D01*
X27424752Y-33144171D02*
X27005704Y-33144171D01*
X27424752Y-33144171D02*
X27500942Y-33106076D01*
X27500942Y-33106076D02*
X27539038Y-33029885D01*
X27539038Y-33029885D02*
X27539038Y-32915600D01*
X27539038Y-32915600D02*
X27500942Y-32839409D01*
X27500942Y-32839409D02*
X27424752Y-32801314D01*
X27424752Y-32801314D02*
X27005704Y-32801314D01*
X27843800Y-31848933D02*
X26815228Y-32534647D01*
X27005704Y-31582266D02*
X27539038Y-31582266D01*
X27462847Y-31582266D02*
X27500942Y-31544171D01*
X27500942Y-31544171D02*
X27539038Y-31467981D01*
X27539038Y-31467981D02*
X27539038Y-31353695D01*
X27539038Y-31353695D02*
X27500942Y-31277504D01*
X27500942Y-31277504D02*
X27424752Y-31239409D01*
X27424752Y-31239409D02*
X27005704Y-31239409D01*
X27424752Y-31239409D02*
X27500942Y-31201314D01*
X27500942Y-31201314D02*
X27539038Y-31125123D01*
X27539038Y-31125123D02*
X27539038Y-31010838D01*
X27539038Y-31010838D02*
X27500942Y-30934647D01*
X27500942Y-30934647D02*
X27424752Y-30896552D01*
X27424752Y-30896552D02*
X27005704Y-30896552D01*
X27539038Y-30172742D02*
X27005704Y-30172742D01*
X27539038Y-30515599D02*
X27119990Y-30515599D01*
X27119990Y-30515599D02*
X27043800Y-30477504D01*
X27043800Y-30477504D02*
X27005704Y-30401314D01*
X27005704Y-30401314D02*
X27005704Y-30287028D01*
X27005704Y-30287028D02*
X27043800Y-30210837D01*
X27043800Y-30210837D02*
X27081895Y-30172742D01*
X27005704Y-29677504D02*
X27043800Y-29753694D01*
X27043800Y-29753694D02*
X27119990Y-29791789D01*
X27119990Y-29791789D02*
X27805704Y-29791789D01*
X27043800Y-29029884D02*
X27005704Y-29106075D01*
X27005704Y-29106075D02*
X27005704Y-29258456D01*
X27005704Y-29258456D02*
X27043800Y-29334646D01*
X27043800Y-29334646D02*
X27081895Y-29372741D01*
X27081895Y-29372741D02*
X27158085Y-29410837D01*
X27158085Y-29410837D02*
X27386657Y-29410837D01*
X27386657Y-29410837D02*
X27462847Y-29372741D01*
X27462847Y-29372741D02*
X27500942Y-29334646D01*
X27500942Y-29334646D02*
X27539038Y-29258456D01*
X27539038Y-29258456D02*
X27539038Y-29106075D01*
X27539038Y-29106075D02*
X27500942Y-29029884D01*
X27005704Y-28687027D02*
X27539038Y-28687027D01*
X27462847Y-28687027D02*
X27500942Y-28648932D01*
X27500942Y-28648932D02*
X27539038Y-28572742D01*
X27539038Y-28572742D02*
X27539038Y-28458456D01*
X27539038Y-28458456D02*
X27500942Y-28382265D01*
X27500942Y-28382265D02*
X27424752Y-28344170D01*
X27424752Y-28344170D02*
X27005704Y-28344170D01*
X27424752Y-28344170D02*
X27500942Y-28306075D01*
X27500942Y-28306075D02*
X27539038Y-28229884D01*
X27539038Y-28229884D02*
X27539038Y-28115599D01*
X27539038Y-28115599D02*
X27500942Y-28039408D01*
X27500942Y-28039408D02*
X27424752Y-28001313D01*
X27424752Y-28001313D02*
X27005704Y-28001313D01*
X27539038Y-27277503D02*
X27005704Y-27277503D01*
X27539038Y-27620360D02*
X27119990Y-27620360D01*
X27119990Y-27620360D02*
X27043800Y-27582265D01*
X27043800Y-27582265D02*
X27005704Y-27506075D01*
X27005704Y-27506075D02*
X27005704Y-27391789D01*
X27005704Y-27391789D02*
X27043800Y-27315598D01*
X27043800Y-27315598D02*
X27081895Y-27277503D01*
X27843800Y-26325122D02*
X26815228Y-27010836D01*
X27539038Y-26058455D02*
X26739038Y-26058455D01*
X27500942Y-26058455D02*
X27539038Y-25982265D01*
X27539038Y-25982265D02*
X27539038Y-25829884D01*
X27539038Y-25829884D02*
X27500942Y-25753693D01*
X27500942Y-25753693D02*
X27462847Y-25715598D01*
X27462847Y-25715598D02*
X27386657Y-25677503D01*
X27386657Y-25677503D02*
X27158085Y-25677503D01*
X27158085Y-25677503D02*
X27081895Y-25715598D01*
X27081895Y-25715598D02*
X27043800Y-25753693D01*
X27043800Y-25753693D02*
X27005704Y-25829884D01*
X27005704Y-25829884D02*
X27005704Y-25982265D01*
X27005704Y-25982265D02*
X27043800Y-26058455D01*
X27005704Y-25220360D02*
X27043800Y-25296550D01*
X27043800Y-25296550D02*
X27119990Y-25334645D01*
X27119990Y-25334645D02*
X27805704Y-25334645D01*
X27005704Y-24915597D02*
X27539038Y-24915597D01*
X27805704Y-24915597D02*
X27767609Y-24953693D01*
X27767609Y-24953693D02*
X27729514Y-24915597D01*
X27729514Y-24915597D02*
X27767609Y-24877502D01*
X27767609Y-24877502D02*
X27805704Y-24915597D01*
X27805704Y-24915597D02*
X27729514Y-24915597D01*
X27005704Y-24534645D02*
X27539038Y-24534645D01*
X27462847Y-24534645D02*
X27500942Y-24496550D01*
X27500942Y-24496550D02*
X27539038Y-24420360D01*
X27539038Y-24420360D02*
X27539038Y-24306074D01*
X27539038Y-24306074D02*
X27500942Y-24229883D01*
X27500942Y-24229883D02*
X27424752Y-24191788D01*
X27424752Y-24191788D02*
X27005704Y-24191788D01*
X27424752Y-24191788D02*
X27500942Y-24153693D01*
X27500942Y-24153693D02*
X27539038Y-24077502D01*
X27539038Y-24077502D02*
X27539038Y-23963217D01*
X27539038Y-23963217D02*
X27500942Y-23887026D01*
X27500942Y-23887026D02*
X27424752Y-23848931D01*
X27424752Y-23848931D02*
X27005704Y-23848931D01*
X27043800Y-23506074D02*
X27005704Y-23429883D01*
X27005704Y-23429883D02*
X27005704Y-23277502D01*
X27005704Y-23277502D02*
X27043800Y-23201312D01*
X27043800Y-23201312D02*
X27119990Y-23163216D01*
X27119990Y-23163216D02*
X27158085Y-23163216D01*
X27158085Y-23163216D02*
X27234276Y-23201312D01*
X27234276Y-23201312D02*
X27272371Y-23277502D01*
X27272371Y-23277502D02*
X27272371Y-23391788D01*
X27272371Y-23391788D02*
X27310466Y-23467978D01*
X27310466Y-23467978D02*
X27386657Y-23506074D01*
X27386657Y-23506074D02*
X27424752Y-23506074D01*
X27424752Y-23506074D02*
X27500942Y-23467978D01*
X27500942Y-23467978D02*
X27539038Y-23391788D01*
X27539038Y-23391788D02*
X27539038Y-23277502D01*
X27539038Y-23277502D02*
X27500942Y-23201312D01*
X27005704Y-22706074D02*
X27043800Y-22782264D01*
X27043800Y-22782264D02*
X27081895Y-22820359D01*
X27081895Y-22820359D02*
X27158085Y-22858455D01*
X27158085Y-22858455D02*
X27386657Y-22858455D01*
X27386657Y-22858455D02*
X27462847Y-22820359D01*
X27462847Y-22820359D02*
X27500942Y-22782264D01*
X27500942Y-22782264D02*
X27539038Y-22706074D01*
X27539038Y-22706074D02*
X27539038Y-22591788D01*
X27539038Y-22591788D02*
X27500942Y-22515597D01*
X27500942Y-22515597D02*
X27462847Y-22477502D01*
X27462847Y-22477502D02*
X27386657Y-22439407D01*
X27386657Y-22439407D02*
X27158085Y-22439407D01*
X27158085Y-22439407D02*
X27081895Y-22477502D01*
X27081895Y-22477502D02*
X27043800Y-22515597D01*
X27043800Y-22515597D02*
X27005704Y-22591788D01*
X27005704Y-22591788D02*
X27005704Y-22706074D01*
X27005704Y-21982264D02*
X27043800Y-22058454D01*
X27043800Y-22058454D02*
X27119990Y-22096549D01*
X27119990Y-22096549D02*
X27805704Y-22096549D01*
X27005704Y-21563216D02*
X27043800Y-21639406D01*
X27043800Y-21639406D02*
X27119990Y-21677501D01*
X27119990Y-21677501D02*
X27805704Y-21677501D01*
D12*
X28588019Y-31378898D02*
X28540400Y-31426517D01*
X28540400Y-31426517D02*
X28492780Y-31569374D01*
X28492780Y-31569374D02*
X28492780Y-31664612D01*
X28492780Y-31664612D02*
X28540400Y-31807469D01*
X28540400Y-31807469D02*
X28635638Y-31902707D01*
X28635638Y-31902707D02*
X28730876Y-31950326D01*
X28730876Y-31950326D02*
X28921352Y-31997945D01*
X28921352Y-31997945D02*
X29064209Y-31997945D01*
X29064209Y-31997945D02*
X29254685Y-31950326D01*
X29254685Y-31950326D02*
X29349923Y-31902707D01*
X29349923Y-31902707D02*
X29445161Y-31807469D01*
X29445161Y-31807469D02*
X29492780Y-31664612D01*
X29492780Y-31664612D02*
X29492780Y-31569374D01*
X29492780Y-31569374D02*
X29445161Y-31426517D01*
X29445161Y-31426517D02*
X29397542Y-31378898D01*
X28492780Y-30950326D02*
X29492780Y-30950326D01*
X29492780Y-30950326D02*
X29492780Y-30712231D01*
X29492780Y-30712231D02*
X29445161Y-30569374D01*
X29445161Y-30569374D02*
X29349923Y-30474136D01*
X29349923Y-30474136D02*
X29254685Y-30426517D01*
X29254685Y-30426517D02*
X29064209Y-30378898D01*
X29064209Y-30378898D02*
X28921352Y-30378898D01*
X28921352Y-30378898D02*
X28730876Y-30426517D01*
X28730876Y-30426517D02*
X28635638Y-30474136D01*
X28635638Y-30474136D02*
X28540400Y-30569374D01*
X28540400Y-30569374D02*
X28492780Y-30712231D01*
X28492780Y-30712231D02*
X28492780Y-30950326D01*
X28540400Y-29997945D02*
X28492780Y-29855088D01*
X28492780Y-29855088D02*
X28492780Y-29616993D01*
X28492780Y-29616993D02*
X28540400Y-29521755D01*
X28540400Y-29521755D02*
X28588019Y-29474136D01*
X28588019Y-29474136D02*
X28683257Y-29426517D01*
X28683257Y-29426517D02*
X28778495Y-29426517D01*
X28778495Y-29426517D02*
X28873733Y-29474136D01*
X28873733Y-29474136D02*
X28921352Y-29521755D01*
X28921352Y-29521755D02*
X28968971Y-29616993D01*
X28968971Y-29616993D02*
X29016590Y-29807469D01*
X29016590Y-29807469D02*
X29064209Y-29902707D01*
X29064209Y-29902707D02*
X29111828Y-29950326D01*
X29111828Y-29950326D02*
X29207066Y-29997945D01*
X29207066Y-29997945D02*
X29302304Y-29997945D01*
X29302304Y-29997945D02*
X29397542Y-29950326D01*
X29397542Y-29950326D02*
X29445161Y-29902707D01*
X29445161Y-29902707D02*
X29492780Y-29807469D01*
X29492780Y-29807469D02*
X29492780Y-29569374D01*
X29492780Y-29569374D02*
X29445161Y-29426517D01*
X28492780Y-28474136D02*
X28492780Y-29045564D01*
X28492780Y-28759850D02*
X29492780Y-28759850D01*
X29492780Y-28759850D02*
X29349923Y-28855088D01*
X29349923Y-28855088D02*
X29254685Y-28950326D01*
X29254685Y-28950326D02*
X29207066Y-29045564D01*
X29397542Y-28093183D02*
X29445161Y-28045564D01*
X29445161Y-28045564D02*
X29492780Y-27950326D01*
X29492780Y-27950326D02*
X29492780Y-27712231D01*
X29492780Y-27712231D02*
X29445161Y-27616993D01*
X29445161Y-27616993D02*
X29397542Y-27569374D01*
X29397542Y-27569374D02*
X29302304Y-27521755D01*
X29302304Y-27521755D02*
X29207066Y-27521755D01*
X29207066Y-27521755D02*
X29064209Y-27569374D01*
X29064209Y-27569374D02*
X28492780Y-28140802D01*
X28492780Y-28140802D02*
X28492780Y-27521755D01*
X29397542Y-27140802D02*
X29445161Y-27093183D01*
X29445161Y-27093183D02*
X29492780Y-26997945D01*
X29492780Y-26997945D02*
X29492780Y-26759850D01*
X29492780Y-26759850D02*
X29445161Y-26664612D01*
X29445161Y-26664612D02*
X29397542Y-26616993D01*
X29397542Y-26616993D02*
X29302304Y-26569374D01*
X29302304Y-26569374D02*
X29207066Y-26569374D01*
X29207066Y-26569374D02*
X29064209Y-26616993D01*
X29064209Y-26616993D02*
X28492780Y-27188421D01*
X28492780Y-27188421D02*
X28492780Y-26569374D01*
X29492780Y-25950326D02*
X29492780Y-25855088D01*
X29492780Y-25855088D02*
X29445161Y-25759850D01*
X29445161Y-25759850D02*
X29397542Y-25712231D01*
X29397542Y-25712231D02*
X29302304Y-25664612D01*
X29302304Y-25664612D02*
X29111828Y-25616993D01*
X29111828Y-25616993D02*
X28873733Y-25616993D01*
X28873733Y-25616993D02*
X28683257Y-25664612D01*
X28683257Y-25664612D02*
X28588019Y-25712231D01*
X28588019Y-25712231D02*
X28540400Y-25759850D01*
X28540400Y-25759850D02*
X28492780Y-25855088D01*
X28492780Y-25855088D02*
X28492780Y-25950326D01*
X28492780Y-25950326D02*
X28540400Y-26045564D01*
X28540400Y-26045564D02*
X28588019Y-26093183D01*
X28588019Y-26093183D02*
X28683257Y-26140802D01*
X28683257Y-26140802D02*
X28873733Y-26188421D01*
X28873733Y-26188421D02*
X29111828Y-26188421D01*
X29111828Y-26188421D02*
X29302304Y-26140802D01*
X29302304Y-26140802D02*
X29397542Y-26093183D01*
X29397542Y-26093183D02*
X29445161Y-26045564D01*
X29445161Y-26045564D02*
X29492780Y-25950326D01*
X28492780Y-24426516D02*
X29492780Y-24426516D01*
X29492780Y-24426516D02*
X28778495Y-24093183D01*
X28778495Y-24093183D02*
X29492780Y-23759850D01*
X29492780Y-23759850D02*
X28492780Y-23759850D01*
X28492780Y-23283659D02*
X29159447Y-23283659D01*
X29492780Y-23283659D02*
X29445161Y-23331278D01*
X29445161Y-23331278D02*
X29397542Y-23283659D01*
X29397542Y-23283659D02*
X29445161Y-23236040D01*
X29445161Y-23236040D02*
X29492780Y-23283659D01*
X29492780Y-23283659D02*
X29397542Y-23283659D01*
X29159447Y-22807469D02*
X28492780Y-22807469D01*
X29064209Y-22807469D02*
X29111828Y-22759850D01*
X29111828Y-22759850D02*
X29159447Y-22664612D01*
X29159447Y-22664612D02*
X29159447Y-22521755D01*
X29159447Y-22521755D02*
X29111828Y-22426517D01*
X29111828Y-22426517D02*
X29016590Y-22378898D01*
X29016590Y-22378898D02*
X28492780Y-22378898D01*
X28492780Y-21902707D02*
X29159447Y-21902707D01*
X29492780Y-21902707D02*
X29445161Y-21950326D01*
X29445161Y-21950326D02*
X29397542Y-21902707D01*
X29397542Y-21902707D02*
X29445161Y-21855088D01*
X29445161Y-21855088D02*
X29492780Y-21902707D01*
X29492780Y-21902707D02*
X29397542Y-21902707D01*
D13*
X38357904Y-42335213D02*
X38395999Y-42411403D01*
X38395999Y-42411403D02*
X38395999Y-42525689D01*
X38395999Y-42525689D02*
X38357904Y-42639975D01*
X38357904Y-42639975D02*
X38281714Y-42716165D01*
X38281714Y-42716165D02*
X38205523Y-42754260D01*
X38205523Y-42754260D02*
X38053142Y-42792356D01*
X38053142Y-42792356D02*
X37938856Y-42792356D01*
X37938856Y-42792356D02*
X37786475Y-42754260D01*
X37786475Y-42754260D02*
X37710285Y-42716165D01*
X37710285Y-42716165D02*
X37634095Y-42639975D01*
X37634095Y-42639975D02*
X37595999Y-42525689D01*
X37595999Y-42525689D02*
X37595999Y-42449498D01*
X37595999Y-42449498D02*
X37634095Y-42335213D01*
X37634095Y-42335213D02*
X37672190Y-42297117D01*
X37672190Y-42297117D02*
X37938856Y-42297117D01*
X37938856Y-42297117D02*
X37938856Y-42449498D01*
X37595999Y-41954260D02*
X38395999Y-41954260D01*
X38395999Y-41954260D02*
X37595999Y-41497117D01*
X37595999Y-41497117D02*
X38395999Y-41497117D01*
X37595999Y-41116165D02*
X38395999Y-41116165D01*
X38395999Y-41116165D02*
X38395999Y-40925689D01*
X38395999Y-40925689D02*
X38357904Y-40811403D01*
X38357904Y-40811403D02*
X38281714Y-40735213D01*
X38281714Y-40735213D02*
X38205523Y-40697118D01*
X38205523Y-40697118D02*
X38053142Y-40659022D01*
X38053142Y-40659022D02*
X37938856Y-40659022D01*
X37938856Y-40659022D02*
X37786475Y-40697118D01*
X37786475Y-40697118D02*
X37710285Y-40735213D01*
X37710285Y-40735213D02*
X37634095Y-40811403D01*
X37634095Y-40811403D02*
X37595999Y-40925689D01*
X37595999Y-40925689D02*
X37595999Y-41116165D01*
X37672190Y-39249498D02*
X37634095Y-39287594D01*
X37634095Y-39287594D02*
X37595999Y-39401879D01*
X37595999Y-39401879D02*
X37595999Y-39478070D01*
X37595999Y-39478070D02*
X37634095Y-39592356D01*
X37634095Y-39592356D02*
X37710285Y-39668546D01*
X37710285Y-39668546D02*
X37786475Y-39706641D01*
X37786475Y-39706641D02*
X37938856Y-39744737D01*
X37938856Y-39744737D02*
X38053142Y-39744737D01*
X38053142Y-39744737D02*
X38205523Y-39706641D01*
X38205523Y-39706641D02*
X38281714Y-39668546D01*
X38281714Y-39668546D02*
X38357904Y-39592356D01*
X38357904Y-39592356D02*
X38395999Y-39478070D01*
X38395999Y-39478070D02*
X38395999Y-39401879D01*
X38395999Y-39401879D02*
X38357904Y-39287594D01*
X38357904Y-39287594D02*
X38319809Y-39249498D01*
X37595999Y-38487594D02*
X37595999Y-38944737D01*
X37595999Y-38716165D02*
X38395999Y-38716165D01*
X38395999Y-38716165D02*
X38281714Y-38792356D01*
X38281714Y-38792356D02*
X38205523Y-38868546D01*
X38205523Y-38868546D02*
X38167428Y-38944737D01*
X38395999Y-38220927D02*
X38395999Y-37725689D01*
X38395999Y-37725689D02*
X38091237Y-37992355D01*
X38091237Y-37992355D02*
X38091237Y-37878070D01*
X38091237Y-37878070D02*
X38053142Y-37801879D01*
X38053142Y-37801879D02*
X38015047Y-37763784D01*
X38015047Y-37763784D02*
X37938856Y-37725689D01*
X37938856Y-37725689D02*
X37748380Y-37725689D01*
X37748380Y-37725689D02*
X37672190Y-37763784D01*
X37672190Y-37763784D02*
X37634095Y-37801879D01*
X37634095Y-37801879D02*
X37595999Y-37878070D01*
X37595999Y-37878070D02*
X37595999Y-38106641D01*
X37595999Y-38106641D02*
X37634095Y-38182832D01*
X37634095Y-38182832D02*
X37672190Y-38220927D01*
X36308044Y-42754260D02*
X37108044Y-42754260D01*
X37108044Y-42754260D02*
X37108044Y-42563784D01*
X37108044Y-42563784D02*
X37069949Y-42449498D01*
X37069949Y-42449498D02*
X36993759Y-42373308D01*
X36993759Y-42373308D02*
X36917568Y-42335213D01*
X36917568Y-42335213D02*
X36765187Y-42297117D01*
X36765187Y-42297117D02*
X36650901Y-42297117D01*
X36650901Y-42297117D02*
X36498520Y-42335213D01*
X36498520Y-42335213D02*
X36422330Y-42373308D01*
X36422330Y-42373308D02*
X36346140Y-42449498D01*
X36346140Y-42449498D02*
X36308044Y-42563784D01*
X36308044Y-42563784D02*
X36308044Y-42754260D01*
X37108044Y-42030451D02*
X37108044Y-41535213D01*
X37108044Y-41535213D02*
X36803282Y-41801879D01*
X36803282Y-41801879D02*
X36803282Y-41687594D01*
X36803282Y-41687594D02*
X36765187Y-41611403D01*
X36765187Y-41611403D02*
X36727092Y-41573308D01*
X36727092Y-41573308D02*
X36650901Y-41535213D01*
X36650901Y-41535213D02*
X36460425Y-41535213D01*
X36460425Y-41535213D02*
X36384235Y-41573308D01*
X36384235Y-41573308D02*
X36346140Y-41611403D01*
X36346140Y-41611403D02*
X36308044Y-41687594D01*
X36308044Y-41687594D02*
X36308044Y-41916165D01*
X36308044Y-41916165D02*
X36346140Y-41992356D01*
X36346140Y-41992356D02*
X36384235Y-42030451D01*
X36727092Y-39706641D02*
X36688997Y-39592355D01*
X36688997Y-39592355D02*
X36650901Y-39554260D01*
X36650901Y-39554260D02*
X36574711Y-39516164D01*
X36574711Y-39516164D02*
X36460425Y-39516164D01*
X36460425Y-39516164D02*
X36384235Y-39554260D01*
X36384235Y-39554260D02*
X36346140Y-39592355D01*
X36346140Y-39592355D02*
X36308044Y-39668545D01*
X36308044Y-39668545D02*
X36308044Y-39973307D01*
X36308044Y-39973307D02*
X37108044Y-39973307D01*
X37108044Y-39973307D02*
X37108044Y-39706641D01*
X37108044Y-39706641D02*
X37069949Y-39630450D01*
X37069949Y-39630450D02*
X37031854Y-39592355D01*
X37031854Y-39592355D02*
X36955663Y-39554260D01*
X36955663Y-39554260D02*
X36879473Y-39554260D01*
X36879473Y-39554260D02*
X36803282Y-39592355D01*
X36803282Y-39592355D02*
X36765187Y-39630450D01*
X36765187Y-39630450D02*
X36727092Y-39706641D01*
X36727092Y-39706641D02*
X36727092Y-39973307D01*
X37108044Y-39249498D02*
X37108044Y-38754260D01*
X37108044Y-38754260D02*
X36803282Y-39020926D01*
X36803282Y-39020926D02*
X36803282Y-38906641D01*
X36803282Y-38906641D02*
X36765187Y-38830450D01*
X36765187Y-38830450D02*
X36727092Y-38792355D01*
X36727092Y-38792355D02*
X36650901Y-38754260D01*
X36650901Y-38754260D02*
X36460425Y-38754260D01*
X36460425Y-38754260D02*
X36384235Y-38792355D01*
X36384235Y-38792355D02*
X36346140Y-38830450D01*
X36346140Y-38830450D02*
X36308044Y-38906641D01*
X36308044Y-38906641D02*
X36308044Y-39135212D01*
X36308044Y-39135212D02*
X36346140Y-39211403D01*
X36346140Y-39211403D02*
X36384235Y-39249498D01*
X35020089Y-42754260D02*
X35820089Y-42754260D01*
X35820089Y-42754260D02*
X35820089Y-42563784D01*
X35820089Y-42563784D02*
X35781994Y-42449498D01*
X35781994Y-42449498D02*
X35705804Y-42373308D01*
X35705804Y-42373308D02*
X35629613Y-42335213D01*
X35629613Y-42335213D02*
X35477232Y-42297117D01*
X35477232Y-42297117D02*
X35362946Y-42297117D01*
X35362946Y-42297117D02*
X35210565Y-42335213D01*
X35210565Y-42335213D02*
X35134375Y-42373308D01*
X35134375Y-42373308D02*
X35058185Y-42449498D01*
X35058185Y-42449498D02*
X35020089Y-42563784D01*
X35020089Y-42563784D02*
X35020089Y-42754260D01*
X35743899Y-41992356D02*
X35781994Y-41954260D01*
X35781994Y-41954260D02*
X35820089Y-41878070D01*
X35820089Y-41878070D02*
X35820089Y-41687594D01*
X35820089Y-41687594D02*
X35781994Y-41611403D01*
X35781994Y-41611403D02*
X35743899Y-41573308D01*
X35743899Y-41573308D02*
X35667708Y-41535213D01*
X35667708Y-41535213D02*
X35591518Y-41535213D01*
X35591518Y-41535213D02*
X35477232Y-41573308D01*
X35477232Y-41573308D02*
X35020089Y-42030451D01*
X35020089Y-42030451D02*
X35020089Y-41535213D01*
X35439137Y-39706641D02*
X35401042Y-39592355D01*
X35401042Y-39592355D02*
X35362946Y-39554260D01*
X35362946Y-39554260D02*
X35286756Y-39516164D01*
X35286756Y-39516164D02*
X35172470Y-39516164D01*
X35172470Y-39516164D02*
X35096280Y-39554260D01*
X35096280Y-39554260D02*
X35058185Y-39592355D01*
X35058185Y-39592355D02*
X35020089Y-39668545D01*
X35020089Y-39668545D02*
X35020089Y-39973307D01*
X35020089Y-39973307D02*
X35820089Y-39973307D01*
X35820089Y-39973307D02*
X35820089Y-39706641D01*
X35820089Y-39706641D02*
X35781994Y-39630450D01*
X35781994Y-39630450D02*
X35743899Y-39592355D01*
X35743899Y-39592355D02*
X35667708Y-39554260D01*
X35667708Y-39554260D02*
X35591518Y-39554260D01*
X35591518Y-39554260D02*
X35515327Y-39592355D01*
X35515327Y-39592355D02*
X35477232Y-39630450D01*
X35477232Y-39630450D02*
X35439137Y-39706641D01*
X35439137Y-39706641D02*
X35439137Y-39973307D01*
X35553423Y-38830450D02*
X35020089Y-38830450D01*
X35858185Y-39020926D02*
X35286756Y-39211403D01*
X35286756Y-39211403D02*
X35286756Y-38716164D01*
X34494039Y-42335213D02*
X34532134Y-42411403D01*
X34532134Y-42411403D02*
X34532134Y-42525689D01*
X34532134Y-42525689D02*
X34494039Y-42639975D01*
X34494039Y-42639975D02*
X34417849Y-42716165D01*
X34417849Y-42716165D02*
X34341658Y-42754260D01*
X34341658Y-42754260D02*
X34189277Y-42792356D01*
X34189277Y-42792356D02*
X34074991Y-42792356D01*
X34074991Y-42792356D02*
X33922610Y-42754260D01*
X33922610Y-42754260D02*
X33846420Y-42716165D01*
X33846420Y-42716165D02*
X33770230Y-42639975D01*
X33770230Y-42639975D02*
X33732134Y-42525689D01*
X33732134Y-42525689D02*
X33732134Y-42449498D01*
X33732134Y-42449498D02*
X33770230Y-42335213D01*
X33770230Y-42335213D02*
X33808325Y-42297117D01*
X33808325Y-42297117D02*
X34074991Y-42297117D01*
X34074991Y-42297117D02*
X34074991Y-42449498D01*
X33732134Y-41954260D02*
X34532134Y-41954260D01*
X34532134Y-41954260D02*
X33732134Y-41497117D01*
X33732134Y-41497117D02*
X34532134Y-41497117D01*
X33732134Y-41116165D02*
X34532134Y-41116165D01*
X34532134Y-41116165D02*
X34532134Y-40925689D01*
X34532134Y-40925689D02*
X34494039Y-40811403D01*
X34494039Y-40811403D02*
X34417849Y-40735213D01*
X34417849Y-40735213D02*
X34341658Y-40697118D01*
X34341658Y-40697118D02*
X34189277Y-40659022D01*
X34189277Y-40659022D02*
X34074991Y-40659022D01*
X34074991Y-40659022D02*
X33922610Y-40697118D01*
X33922610Y-40697118D02*
X33846420Y-40735213D01*
X33846420Y-40735213D02*
X33770230Y-40811403D01*
X33770230Y-40811403D02*
X33732134Y-40925689D01*
X33732134Y-40925689D02*
X33732134Y-41116165D01*
X34151182Y-39439975D02*
X34113087Y-39325689D01*
X34113087Y-39325689D02*
X34074991Y-39287594D01*
X34074991Y-39287594D02*
X33998801Y-39249498D01*
X33998801Y-39249498D02*
X33884515Y-39249498D01*
X33884515Y-39249498D02*
X33808325Y-39287594D01*
X33808325Y-39287594D02*
X33770230Y-39325689D01*
X33770230Y-39325689D02*
X33732134Y-39401879D01*
X33732134Y-39401879D02*
X33732134Y-39706641D01*
X33732134Y-39706641D02*
X34532134Y-39706641D01*
X34532134Y-39706641D02*
X34532134Y-39439975D01*
X34532134Y-39439975D02*
X34494039Y-39363784D01*
X34494039Y-39363784D02*
X34455944Y-39325689D01*
X34455944Y-39325689D02*
X34379753Y-39287594D01*
X34379753Y-39287594D02*
X34303563Y-39287594D01*
X34303563Y-39287594D02*
X34227372Y-39325689D01*
X34227372Y-39325689D02*
X34189277Y-39363784D01*
X34189277Y-39363784D02*
X34151182Y-39439975D01*
X34151182Y-39439975D02*
X34151182Y-39706641D01*
X34532134Y-38525689D02*
X34532134Y-38906641D01*
X34532134Y-38906641D02*
X34151182Y-38944737D01*
X34151182Y-38944737D02*
X34189277Y-38906641D01*
X34189277Y-38906641D02*
X34227372Y-38830451D01*
X34227372Y-38830451D02*
X34227372Y-38639975D01*
X34227372Y-38639975D02*
X34189277Y-38563784D01*
X34189277Y-38563784D02*
X34151182Y-38525689D01*
X34151182Y-38525689D02*
X34074991Y-38487594D01*
X34074991Y-38487594D02*
X33884515Y-38487594D01*
X33884515Y-38487594D02*
X33808325Y-38525689D01*
X33808325Y-38525689D02*
X33770230Y-38563784D01*
X33770230Y-38563784D02*
X33732134Y-38639975D01*
X33732134Y-38639975D02*
X33732134Y-38830451D01*
X33732134Y-38830451D02*
X33770230Y-38906641D01*
X33770230Y-38906641D02*
X33808325Y-38944737D01*
X32863227Y-42487594D02*
X32825132Y-42373308D01*
X32825132Y-42373308D02*
X32787036Y-42335213D01*
X32787036Y-42335213D02*
X32710846Y-42297117D01*
X32710846Y-42297117D02*
X32596560Y-42297117D01*
X32596560Y-42297117D02*
X32520370Y-42335213D01*
X32520370Y-42335213D02*
X32482275Y-42373308D01*
X32482275Y-42373308D02*
X32444179Y-42449498D01*
X32444179Y-42449498D02*
X32444179Y-42754260D01*
X32444179Y-42754260D02*
X33244179Y-42754260D01*
X33244179Y-42754260D02*
X33244179Y-42487594D01*
X33244179Y-42487594D02*
X33206084Y-42411403D01*
X33206084Y-42411403D02*
X33167989Y-42373308D01*
X33167989Y-42373308D02*
X33091798Y-42335213D01*
X33091798Y-42335213D02*
X33015608Y-42335213D01*
X33015608Y-42335213D02*
X32939417Y-42373308D01*
X32939417Y-42373308D02*
X32901322Y-42411403D01*
X32901322Y-42411403D02*
X32863227Y-42487594D01*
X32863227Y-42487594D02*
X32863227Y-42754260D01*
X33244179Y-41611403D02*
X33244179Y-41763784D01*
X33244179Y-41763784D02*
X33206084Y-41839975D01*
X33206084Y-41839975D02*
X33167989Y-41878070D01*
X33167989Y-41878070D02*
X33053703Y-41954260D01*
X33053703Y-41954260D02*
X32901322Y-41992356D01*
X32901322Y-41992356D02*
X32596560Y-41992356D01*
X32596560Y-41992356D02*
X32520370Y-41954260D01*
X32520370Y-41954260D02*
X32482275Y-41916165D01*
X32482275Y-41916165D02*
X32444179Y-41839975D01*
X32444179Y-41839975D02*
X32444179Y-41687594D01*
X32444179Y-41687594D02*
X32482275Y-41611403D01*
X32482275Y-41611403D02*
X32520370Y-41573308D01*
X32520370Y-41573308D02*
X32596560Y-41535213D01*
X32596560Y-41535213D02*
X32787036Y-41535213D01*
X32787036Y-41535213D02*
X32863227Y-41573308D01*
X32863227Y-41573308D02*
X32901322Y-41611403D01*
X32901322Y-41611403D02*
X32939417Y-41687594D01*
X32939417Y-41687594D02*
X32939417Y-41839975D01*
X32939417Y-41839975D02*
X32901322Y-41916165D01*
X32901322Y-41916165D02*
X32863227Y-41954260D01*
X32863227Y-41954260D02*
X32787036Y-41992356D01*
X33206084Y-39554260D02*
X33244179Y-39630450D01*
X33244179Y-39630450D02*
X33244179Y-39744736D01*
X33244179Y-39744736D02*
X33206084Y-39859022D01*
X33206084Y-39859022D02*
X33129894Y-39935212D01*
X33129894Y-39935212D02*
X33053703Y-39973307D01*
X33053703Y-39973307D02*
X32901322Y-40011403D01*
X32901322Y-40011403D02*
X32787036Y-40011403D01*
X32787036Y-40011403D02*
X32634655Y-39973307D01*
X32634655Y-39973307D02*
X32558465Y-39935212D01*
X32558465Y-39935212D02*
X32482275Y-39859022D01*
X32482275Y-39859022D02*
X32444179Y-39744736D01*
X32444179Y-39744736D02*
X32444179Y-39668545D01*
X32444179Y-39668545D02*
X32482275Y-39554260D01*
X32482275Y-39554260D02*
X32520370Y-39516164D01*
X32520370Y-39516164D02*
X32787036Y-39516164D01*
X32787036Y-39516164D02*
X32787036Y-39668545D01*
X32444179Y-39173307D02*
X33244179Y-39173307D01*
X33244179Y-39173307D02*
X32444179Y-38716164D01*
X32444179Y-38716164D02*
X33244179Y-38716164D01*
X32444179Y-38335212D02*
X33244179Y-38335212D01*
X33244179Y-38335212D02*
X33244179Y-38144736D01*
X33244179Y-38144736D02*
X33206084Y-38030450D01*
X33206084Y-38030450D02*
X33129894Y-37954260D01*
X33129894Y-37954260D02*
X33053703Y-37916165D01*
X33053703Y-37916165D02*
X32901322Y-37878069D01*
X32901322Y-37878069D02*
X32787036Y-37878069D01*
X32787036Y-37878069D02*
X32634655Y-37916165D01*
X32634655Y-37916165D02*
X32558465Y-37954260D01*
X32558465Y-37954260D02*
X32482275Y-38030450D01*
X32482275Y-38030450D02*
X32444179Y-38144736D01*
X32444179Y-38144736D02*
X32444179Y-38335212D01*
X31956224Y-42373308D02*
X31956224Y-42754260D01*
X31956224Y-42754260D02*
X31575272Y-42792356D01*
X31575272Y-42792356D02*
X31613367Y-42754260D01*
X31613367Y-42754260D02*
X31651462Y-42678070D01*
X31651462Y-42678070D02*
X31651462Y-42487594D01*
X31651462Y-42487594D02*
X31613367Y-42411403D01*
X31613367Y-42411403D02*
X31575272Y-42373308D01*
X31575272Y-42373308D02*
X31499081Y-42335213D01*
X31499081Y-42335213D02*
X31308605Y-42335213D01*
X31308605Y-42335213D02*
X31232415Y-42373308D01*
X31232415Y-42373308D02*
X31194320Y-42411403D01*
X31194320Y-42411403D02*
X31156224Y-42487594D01*
X31156224Y-42487594D02*
X31156224Y-42678070D01*
X31156224Y-42678070D02*
X31194320Y-42754260D01*
X31194320Y-42754260D02*
X31232415Y-42792356D01*
X31956224Y-42106641D02*
X31156224Y-41839974D01*
X31156224Y-41839974D02*
X31956224Y-41573308D01*
X31956224Y-40163784D02*
X31956224Y-39668546D01*
X31956224Y-39668546D02*
X31651462Y-39935212D01*
X31651462Y-39935212D02*
X31651462Y-39820927D01*
X31651462Y-39820927D02*
X31613367Y-39744736D01*
X31613367Y-39744736D02*
X31575272Y-39706641D01*
X31575272Y-39706641D02*
X31499081Y-39668546D01*
X31499081Y-39668546D02*
X31308605Y-39668546D01*
X31308605Y-39668546D02*
X31232415Y-39706641D01*
X31232415Y-39706641D02*
X31194320Y-39744736D01*
X31194320Y-39744736D02*
X31156224Y-39820927D01*
X31156224Y-39820927D02*
X31156224Y-40049498D01*
X31156224Y-40049498D02*
X31194320Y-40125689D01*
X31194320Y-40125689D02*
X31232415Y-40163784D01*
X31689558Y-39401879D02*
X31156224Y-39211403D01*
X31156224Y-39211403D02*
X31689558Y-39020926D01*
X31956224Y-38792355D02*
X31956224Y-38297117D01*
X31956224Y-38297117D02*
X31651462Y-38563783D01*
X31651462Y-38563783D02*
X31651462Y-38449498D01*
X31651462Y-38449498D02*
X31613367Y-38373307D01*
X31613367Y-38373307D02*
X31575272Y-38335212D01*
X31575272Y-38335212D02*
X31499081Y-38297117D01*
X31499081Y-38297117D02*
X31308605Y-38297117D01*
X31308605Y-38297117D02*
X31232415Y-38335212D01*
X31232415Y-38335212D02*
X31194320Y-38373307D01*
X31194320Y-38373307D02*
X31156224Y-38449498D01*
X31156224Y-38449498D02*
X31156224Y-38678069D01*
X31156224Y-38678069D02*
X31194320Y-38754260D01*
X31194320Y-38754260D02*
X31232415Y-38792355D01*
D14*
%TO.C,JP2*%
X28330000Y-35010000D02*
X28330000Y-37810000D01*
X29030000Y-38460000D02*
X29630000Y-38460000D01*
X29630000Y-34360000D02*
X29030000Y-34360000D01*
X30330000Y-37810000D02*
X30330000Y-35010000D01*
X28330000Y-35060000D02*
G75*
G02*
X29030000Y-34360000I700000J0D01*
G01*
X29030000Y-38460000D02*
G75*
G02*
X28330000Y-37760000I-1J699999D01*
G01*
X29630000Y-34360000D02*
G75*
G02*
X30330000Y-35060000I0J-700000D01*
G01*
X30330000Y-37760000D02*
G75*
G02*
X29630000Y-38460000I-699999J-1D01*
G01*
%TO.C,J1*%
X28420000Y-44420000D02*
X28420000Y-46480000D01*
X28420000Y-44420000D02*
X40540000Y-44420000D01*
X28420000Y-46480000D02*
X30480000Y-46480000D01*
X28420000Y-47480000D02*
X28420000Y-48540000D01*
X28420000Y-48540000D02*
X29480000Y-48540000D01*
X30480000Y-46480000D02*
X30480000Y-48540000D01*
X30480000Y-48540000D02*
X40540000Y-48540000D01*
X40540000Y-44420000D02*
X40540000Y-48540000D01*
%TD*%
%LPC*%
%TO.C,JP2*%
G36*
X30080000Y-37160000D02*
G01*
X28580000Y-37160000D01*
X28580000Y-35660000D01*
X30080000Y-35660000D01*
X30080000Y-37160000D01*
G37*
%TD*%
D15*
%TO.C,J3*%
X38200000Y-24060000D03*
D16*
X35700000Y-24060000D03*
X33200000Y-24060000D03*
X30700000Y-24060000D03*
%TD*%
D17*
%TO.C,H1*%
X36600000Y-31839706D03*
%TD*%
D18*
%TO.C,JP2*%
X29330000Y-37710000D03*
D19*
X29330000Y-36410000D03*
D20*
X29330000Y-35110000D03*
%TD*%
D21*
%TO.C,J1*%
X29480000Y-47480000D03*
D22*
X29480000Y-45480000D03*
X31480000Y-47480000D03*
X31480000Y-45480000D03*
X33480000Y-47480000D03*
X33480000Y-45480000D03*
X35480000Y-47480000D03*
X35480000Y-45480000D03*
X37480000Y-47480000D03*
X37480000Y-45480000D03*
X39480000Y-47480000D03*
X39480000Y-45480000D03*
%TD*%
%LPD*%
M02*
