%TF.GenerationSoftware,KiCad,Pcbnew,9.0.6*%
%TF.CreationDate,2025-12-29T21:45:29-05:00*%
%TF.ProjectId,plimsoll,706c696d-736f-46c6-9c2e-6b696361645f,rev?*%
%TF.SameCoordinates,Original*%
%TF.FileFunction,Copper,L2,Inr*%
%TF.FilePolarity,Positive*%
%FSLAX46Y46*%
G04 Gerber Fmt 4.6, Leading zero omitted, Abs format (unit mm)*
G04 Created by KiCad (PCBNEW 9.0.6) date 2025-12-29 21:45:29*
%MOMM*%
%LPD*%
G01*
G04 APERTURE LIST*
G04 Aperture macros list*
%AMRoundRect*
0 Rectangle with rounded corners*
0 $1 Rounding radius*
0 $2 $3 $4 $5 $6 $7 $8 $9 X,Y pos of 4 corners*
0 Add a 4 corners polygon primitive as box body*
4,1,4,$2,$3,$4,$5,$6,$7,$8,$9,$2,$3,0*
0 Add four circle primitives for the rounded corners*
1,1,$1+$1,$2,$3*
1,1,$1+$1,$4,$5*
1,1,$1+$1,$6,$7*
1,1,$1+$1,$8,$9*
0 Add four rect primitives between the rounded corners*
20,1,$1+$1,$2,$3,$4,$5,0*
20,1,$1+$1,$4,$5,$6,$7,0*
20,1,$1+$1,$6,$7,$8,$9,0*
20,1,$1+$1,$8,$9,$2,$3,0*%
G04 Aperture macros list end*
%TA.AperFunction,ComponentPad*%
%ADD10RoundRect,0.250000X0.600000X0.725000X-0.600000X0.725000X-0.600000X-0.725000X0.600000X-0.725000X0*%
%TD*%
%TA.AperFunction,ComponentPad*%
%ADD11O,1.700000X1.950000*%
%TD*%
%TA.AperFunction,ComponentPad*%
%ADD12R,1.350000X1.350000*%
%TD*%
%TA.AperFunction,ComponentPad*%
%ADD13C,1.350000*%
%TD*%
%TA.AperFunction,ViaPad*%
%ADD14C,0.600000*%
%TD*%
G04 APERTURE END LIST*
D10*
%TO.N,+3.3VADC*%
%TO.C,J3*%
X38200000Y-24060000D03*
D11*
%TO.N,GND*%
X35700000Y-24060000D03*
%TO.N,/Signal-*%
X33200000Y-24060000D03*
%TO.N,/Signal+*%
X30700000Y-24060000D03*
%TD*%
D12*
%TO.N,VBUS*%
%TO.C,J1*%
X29480000Y-47480000D03*
D13*
%TO.N,+3V3*%
X29480000Y-45480000D03*
%TO.N,/B6*%
X31480000Y-47480000D03*
%TO.N,GND*%
X31480000Y-45480000D03*
X33480000Y-47480000D03*
%TO.N,/B5*%
X33480000Y-45480000D03*
%TO.N,/D2*%
X35480000Y-47480000D03*
%TO.N,/B4*%
X35480000Y-45480000D03*
%TO.N,/D3*%
X37480000Y-47480000D03*
%TO.N,/B3*%
X37480000Y-45480000D03*
%TO.N,GND*%
X39480000Y-47480000D03*
%TO.N,/C13*%
X39480000Y-45480000D03*
%TD*%
D14*
%TO.N,GND*%
X40040000Y-42970000D03*
X40170000Y-38790000D03*
X38910000Y-33670000D03*
X34120000Y-28720000D03*
X28262500Y-29962500D03*
X36280000Y-35670000D03*
X32660000Y-32660000D03*
X31780000Y-21800000D03*
X32050000Y-41080000D03*
X39410000Y-21710000D03*
X27990000Y-21730000D03*
X39780000Y-27150000D03*
X31060000Y-34240000D03*
X33340000Y-37660000D03*
X27470000Y-25810000D03*
X34050000Y-38670000D03*
X28850000Y-43950000D03*
X38400000Y-35730000D03*
X28190000Y-28440000D03*
%TO.N,VBUS*%
X32540000Y-42260000D03*
%TO.N,+3V3*%
X26880000Y-31690000D03*
%TO.N,/C13*%
X31100000Y-35630000D03*
%TO.N,/B4*%
X28360000Y-34190000D03*
%TO.N,Net-(JP2-C)*%
X28050000Y-36560000D03*
%TO.N,/B5*%
X27480000Y-34110000D03*
%TD*%
%TA.AperFunction,Conductor*%
%TO.N,GND*%
G36*
X40642539Y-20520185D02*
G01*
X40688294Y-20572989D01*
X40699500Y-20624500D01*
X40699500Y-48525500D01*
X40679815Y-48592539D01*
X40627011Y-48638294D01*
X40575500Y-48649500D01*
X37603477Y-48649500D01*
X37536438Y-48629815D01*
X37490683Y-48577011D01*
X37480739Y-48507853D01*
X37509764Y-48444297D01*
X37568542Y-48406523D01*
X37579285Y-48403883D01*
X37693070Y-48381248D01*
X37749958Y-48369933D01*
X37918389Y-48300167D01*
X37918391Y-48300166D01*
X37993672Y-48249864D01*
X38069972Y-48198883D01*
X38198883Y-48069972D01*
X38289103Y-47934948D01*
X38300166Y-47918391D01*
X38300168Y-47918387D01*
X38365709Y-47760156D01*
X38409550Y-47705752D01*
X38475844Y-47683687D01*
X38543543Y-47700966D01*
X38591154Y-47752103D01*
X38594831Y-47760156D01*
X38660271Y-47918145D01*
X38671498Y-47934947D01*
X39080000Y-47526445D01*
X39080000Y-47532661D01*
X39107259Y-47634394D01*
X39159920Y-47725606D01*
X39234394Y-47800080D01*
X39325606Y-47852741D01*
X39427339Y-47880000D01*
X39433553Y-47880000D01*
X39025050Y-48288500D01*
X39041849Y-48299725D01*
X39041855Y-48299728D01*
X39210182Y-48369451D01*
X39210194Y-48369454D01*
X39371297Y-48401500D01*
X39588703Y-48401500D01*
X39749805Y-48369454D01*
X39749813Y-48369452D01*
X39918151Y-48299724D01*
X39918154Y-48299723D01*
X39934947Y-48288500D01*
X39934948Y-48288500D01*
X39526448Y-47880000D01*
X39532661Y-47880000D01*
X39634394Y-47852741D01*
X39725606Y-47800080D01*
X39800080Y-47725606D01*
X39852741Y-47634394D01*
X39880000Y-47532661D01*
X39880000Y-47526448D01*
X40288500Y-47934948D01*
X40288500Y-47934947D01*
X40299723Y-47918154D01*
X40299724Y-47918151D01*
X40369452Y-47749813D01*
X40369454Y-47749805D01*
X40404999Y-47571109D01*
X40405000Y-47571106D01*
X40405000Y-47388894D01*
X40404999Y-47388890D01*
X40369454Y-47210194D01*
X40369451Y-47210182D01*
X40299728Y-47041855D01*
X40299725Y-47041849D01*
X40288500Y-47025050D01*
X39880000Y-47433551D01*
X39880000Y-47427339D01*
X39852741Y-47325606D01*
X39800080Y-47234394D01*
X39725606Y-47159920D01*
X39634394Y-47107259D01*
X39532661Y-47080000D01*
X39526447Y-47080000D01*
X39934947Y-46671498D01*
X39918145Y-46660271D01*
X39760156Y-46594831D01*
X39705752Y-46550990D01*
X39683687Y-46484696D01*
X39700966Y-46416997D01*
X39752103Y-46369386D01*
X39760156Y-46365709D01*
X39918387Y-46300168D01*
X39918391Y-46300166D01*
X39993672Y-46249864D01*
X40069972Y-46198883D01*
X40198883Y-46069972D01*
X40289103Y-45934948D01*
X40300166Y-45918391D01*
X40300168Y-45918387D01*
X40349172Y-45800080D01*
X40369933Y-45749958D01*
X40405500Y-45571154D01*
X40405500Y-45388846D01*
X40405500Y-45388843D01*
X40369934Y-45210047D01*
X40369933Y-45210046D01*
X40369933Y-45210042D01*
X40365709Y-45199844D01*
X40300168Y-45041612D01*
X40300166Y-45041608D01*
X40198886Y-44890032D01*
X40198880Y-44890024D01*
X40069975Y-44761119D01*
X40069967Y-44761113D01*
X39918391Y-44659833D01*
X39918387Y-44659831D01*
X39749962Y-44590068D01*
X39749952Y-44590065D01*
X39571156Y-44554500D01*
X39571154Y-44554500D01*
X39388846Y-44554500D01*
X39388844Y-44554500D01*
X39210047Y-44590065D01*
X39210037Y-44590068D01*
X39041612Y-44659831D01*
X39041608Y-44659833D01*
X38890032Y-44761113D01*
X38890024Y-44761119D01*
X38761119Y-44890024D01*
X38761113Y-44890032D01*
X38659833Y-45041608D01*
X38594561Y-45199192D01*
X38550720Y-45253595D01*
X38484426Y-45275660D01*
X38416727Y-45258381D01*
X38369116Y-45207244D01*
X38365439Y-45199192D01*
X38300166Y-45041608D01*
X38198886Y-44890032D01*
X38198880Y-44890024D01*
X38069975Y-44761119D01*
X38069967Y-44761113D01*
X37918391Y-44659833D01*
X37918387Y-44659831D01*
X37749962Y-44590068D01*
X37749952Y-44590065D01*
X37571156Y-44554500D01*
X37571154Y-44554500D01*
X37388846Y-44554500D01*
X37388844Y-44554500D01*
X37210047Y-44590065D01*
X37210037Y-44590068D01*
X37041612Y-44659831D01*
X37041608Y-44659833D01*
X36890032Y-44761113D01*
X36890024Y-44761119D01*
X36761119Y-44890024D01*
X36761113Y-44890032D01*
X36659833Y-45041608D01*
X36594561Y-45199192D01*
X36550720Y-45253595D01*
X36484426Y-45275660D01*
X36416727Y-45258381D01*
X36369116Y-45207244D01*
X36365439Y-45199192D01*
X36300166Y-45041608D01*
X36198886Y-44890032D01*
X36198880Y-44890024D01*
X36069975Y-44761119D01*
X36069967Y-44761113D01*
X35918391Y-44659833D01*
X35918387Y-44659831D01*
X35749962Y-44590068D01*
X35749952Y-44590065D01*
X35571156Y-44554500D01*
X35571154Y-44554500D01*
X35388846Y-44554500D01*
X35388844Y-44554500D01*
X35210047Y-44590065D01*
X35210037Y-44590068D01*
X35041612Y-44659831D01*
X35041608Y-44659833D01*
X34890032Y-44761113D01*
X34890024Y-44761119D01*
X34761119Y-44890024D01*
X34761113Y-44890032D01*
X34659833Y-45041608D01*
X34594561Y-45199192D01*
X34550720Y-45253595D01*
X34484426Y-45275660D01*
X34416727Y-45258381D01*
X34369116Y-45207244D01*
X34365439Y-45199192D01*
X34300166Y-45041608D01*
X34198886Y-44890032D01*
X34198880Y-44890024D01*
X34069975Y-44761119D01*
X34069967Y-44761113D01*
X33918391Y-44659833D01*
X33918387Y-44659831D01*
X33749962Y-44590068D01*
X33749952Y-44590065D01*
X33571156Y-44554500D01*
X33571154Y-44554500D01*
X33388846Y-44554500D01*
X33388844Y-44554500D01*
X33210047Y-44590065D01*
X33210037Y-44590068D01*
X33041612Y-44659831D01*
X33041608Y-44659833D01*
X32890032Y-44761113D01*
X32890024Y-44761119D01*
X32761119Y-44890024D01*
X32761113Y-44890032D01*
X32659833Y-45041608D01*
X32659833Y-45041609D01*
X32594290Y-45199844D01*
X32550449Y-45254247D01*
X32484154Y-45276312D01*
X32416455Y-45259033D01*
X32368845Y-45207895D01*
X32365168Y-45199843D01*
X32299728Y-45041855D01*
X32299725Y-45041849D01*
X32288500Y-45025050D01*
X31880000Y-45433551D01*
X31880000Y-45427339D01*
X31852741Y-45325606D01*
X31800080Y-45234394D01*
X31725606Y-45159920D01*
X31634394Y-45107259D01*
X31532661Y-45080000D01*
X31526447Y-45080000D01*
X31934947Y-44671498D01*
X31918145Y-44660271D01*
X31749817Y-44590548D01*
X31749805Y-44590545D01*
X31571109Y-44555000D01*
X31388890Y-44555000D01*
X31210194Y-44590545D01*
X31210186Y-44590547D01*
X31041848Y-44660274D01*
X31025050Y-44671498D01*
X31433554Y-45080000D01*
X31427339Y-45080000D01*
X31325606Y-45107259D01*
X31234394Y-45159920D01*
X31159920Y-45234394D01*
X31107259Y-45325606D01*
X31080000Y-45427339D01*
X31080000Y-45433552D01*
X30671498Y-45025050D01*
X30660274Y-45041849D01*
X30594831Y-45199844D01*
X30550990Y-45254247D01*
X30484696Y-45276312D01*
X30416996Y-45259033D01*
X30369386Y-45207895D01*
X30365709Y-45199843D01*
X30300168Y-45041612D01*
X30300166Y-45041608D01*
X30198886Y-44890032D01*
X30198880Y-44890024D01*
X30069975Y-44761119D01*
X30069967Y-44761113D01*
X29918391Y-44659833D01*
X29918387Y-44659831D01*
X29749962Y-44590068D01*
X29749952Y-44590065D01*
X29571156Y-44554500D01*
X29571154Y-44554500D01*
X29388846Y-44554500D01*
X29388844Y-44554500D01*
X29210047Y-44590065D01*
X29210037Y-44590068D01*
X29041612Y-44659831D01*
X29041608Y-44659833D01*
X28890032Y-44761113D01*
X28890024Y-44761119D01*
X28761119Y-44890024D01*
X28761113Y-44890032D01*
X28659833Y-45041608D01*
X28659831Y-45041612D01*
X28590068Y-45210037D01*
X28590065Y-45210047D01*
X28554500Y-45388843D01*
X28554500Y-45388846D01*
X28554500Y-45571154D01*
X28554500Y-45571156D01*
X28554499Y-45571156D01*
X28590065Y-45749952D01*
X28590068Y-45749962D01*
X28659831Y-45918387D01*
X28659833Y-45918391D01*
X28761113Y-46069967D01*
X28761119Y-46069975D01*
X28890024Y-46198880D01*
X28890032Y-46198886D01*
X29041608Y-46300166D01*
X29041612Y-46300168D01*
X29079687Y-46315939D01*
X29134091Y-46359780D01*
X29156156Y-46426074D01*
X29138877Y-46493773D01*
X29087740Y-46541384D01*
X29032235Y-46554500D01*
X28780323Y-46554500D01*
X28707264Y-46569032D01*
X28707260Y-46569033D01*
X28624399Y-46624399D01*
X28569033Y-46707260D01*
X28569032Y-46707264D01*
X28554500Y-46780321D01*
X28554500Y-48179678D01*
X28569032Y-48252735D01*
X28569033Y-48252739D01*
X28569034Y-48252740D01*
X28624399Y-48335601D01*
X28675783Y-48369934D01*
X28707260Y-48390966D01*
X28707263Y-48390967D01*
X28772194Y-48403883D01*
X28834105Y-48436268D01*
X28868679Y-48496984D01*
X28864939Y-48566753D01*
X28824072Y-48623425D01*
X28759054Y-48649007D01*
X28748002Y-48649500D01*
X28394500Y-48649500D01*
X28327461Y-48629815D01*
X28281706Y-48577011D01*
X28270500Y-48525500D01*
X28270500Y-43424800D01*
X28290185Y-43357761D01*
X28342989Y-43312006D01*
X28394497Y-43300800D01*
X29348078Y-43300795D01*
X29378494Y-43305099D01*
X29413818Y-43300795D01*
X29449264Y-43300795D01*
X29449265Y-43300795D01*
X29470579Y-43295083D01*
X29487584Y-43291778D01*
X29567650Y-43281963D01*
X29808258Y-43216529D01*
X30036957Y-43117177D01*
X30248993Y-42985973D01*
X30248999Y-42985967D01*
X30249002Y-42985966D01*
X30347803Y-42903015D01*
X30439960Y-42825643D01*
X30605888Y-42639521D01*
X30743330Y-42431473D01*
X30849427Y-42205825D01*
X30854992Y-42187525D01*
X31989500Y-42187525D01*
X31989500Y-42332475D01*
X32016027Y-42431473D01*
X32027017Y-42472488D01*
X32099488Y-42598011D01*
X32099490Y-42598013D01*
X32099491Y-42598015D01*
X32201985Y-42700509D01*
X32201986Y-42700510D01*
X32201988Y-42700511D01*
X32327511Y-42772982D01*
X32327512Y-42772982D01*
X32327515Y-42772984D01*
X32467525Y-42810500D01*
X32467528Y-42810500D01*
X32612472Y-42810500D01*
X32612475Y-42810500D01*
X32752485Y-42772984D01*
X32878015Y-42700509D01*
X32980509Y-42598015D01*
X33052984Y-42472485D01*
X33090500Y-42332475D01*
X33090500Y-42187525D01*
X33052984Y-42047515D01*
X33006651Y-41967265D01*
X32980511Y-41921988D01*
X32980506Y-41921982D01*
X32878017Y-41819493D01*
X32878011Y-41819488D01*
X32752488Y-41747017D01*
X32752489Y-41747017D01*
X32741006Y-41743940D01*
X32612475Y-41709500D01*
X32467525Y-41709500D01*
X32338993Y-41743940D01*
X32327511Y-41747017D01*
X32201988Y-41819488D01*
X32201982Y-41819493D01*
X32099493Y-41921982D01*
X32099488Y-41921988D01*
X32027017Y-42047511D01*
X32027016Y-42047515D01*
X31989500Y-42187525D01*
X30854992Y-42187525D01*
X30921977Y-41967266D01*
X30959469Y-41720754D01*
X30961126Y-41471412D01*
X30926913Y-41224424D01*
X30857540Y-40984921D01*
X30754451Y-40757883D01*
X30619786Y-40548027D01*
X30456346Y-40359716D01*
X30267526Y-40196863D01*
X30267520Y-40196859D01*
X30057260Y-40062857D01*
X30057241Y-40062846D01*
X29829888Y-39960467D01*
X29590185Y-39891845D01*
X29496399Y-39879151D01*
X29343083Y-39858400D01*
X29343082Y-39858400D01*
X29221632Y-39859495D01*
X29220514Y-39859500D01*
X26704500Y-39859500D01*
X26637461Y-39839815D01*
X26591706Y-39787011D01*
X26580500Y-39735500D01*
X26580500Y-36487525D01*
X27499500Y-36487525D01*
X27499500Y-36632475D01*
X27537016Y-36772485D01*
X27537017Y-36772488D01*
X27609488Y-36898011D01*
X27609490Y-36898013D01*
X27609491Y-36898015D01*
X27711985Y-37000509D01*
X27711986Y-37000510D01*
X27711988Y-37000511D01*
X27837511Y-37072982D01*
X27837512Y-37072982D01*
X27837515Y-37072984D01*
X27977525Y-37110500D01*
X27977528Y-37110500D01*
X28122472Y-37110500D01*
X28122475Y-37110500D01*
X28262485Y-37072984D01*
X28388015Y-37000509D01*
X28490509Y-36898015D01*
X28562984Y-36772485D01*
X28600500Y-36632475D01*
X28600500Y-36487525D01*
X28562984Y-36347515D01*
X28490509Y-36221985D01*
X28388015Y-36119491D01*
X28388013Y-36119490D01*
X28388011Y-36119488D01*
X28262488Y-36047017D01*
X28262489Y-36047017D01*
X28251006Y-36043940D01*
X28122475Y-36009500D01*
X27977525Y-36009500D01*
X27848993Y-36043940D01*
X27837511Y-36047017D01*
X27711988Y-36119488D01*
X27711982Y-36119493D01*
X27609493Y-36221982D01*
X27609488Y-36221988D01*
X27537017Y-36347511D01*
X27537016Y-36347515D01*
X27499500Y-36487525D01*
X26580500Y-36487525D01*
X26580500Y-35557525D01*
X30549500Y-35557525D01*
X30549500Y-35702475D01*
X30587016Y-35842485D01*
X30587017Y-35842488D01*
X30659488Y-35968011D01*
X30659490Y-35968013D01*
X30659491Y-35968015D01*
X30761985Y-36070509D01*
X30761986Y-36070510D01*
X30761988Y-36070511D01*
X30887511Y-36142982D01*
X30887512Y-36142982D01*
X30887515Y-36142984D01*
X31027525Y-36180500D01*
X31027528Y-36180500D01*
X31172472Y-36180500D01*
X31172475Y-36180500D01*
X31312485Y-36142984D01*
X31438015Y-36070509D01*
X31540509Y-35968015D01*
X31612984Y-35842485D01*
X31650500Y-35702475D01*
X31650500Y-35557525D01*
X31612984Y-35417515D01*
X31540509Y-35291985D01*
X31438015Y-35189491D01*
X31438013Y-35189490D01*
X31438011Y-35189488D01*
X31312488Y-35117017D01*
X31312489Y-35117017D01*
X31301006Y-35113940D01*
X31172475Y-35079500D01*
X31027525Y-35079500D01*
X30898993Y-35113940D01*
X30887511Y-35117017D01*
X30761988Y-35189488D01*
X30761982Y-35189493D01*
X30659493Y-35291982D01*
X30659488Y-35291988D01*
X30587017Y-35417511D01*
X30587016Y-35417515D01*
X30549500Y-35557525D01*
X26580500Y-35557525D01*
X26580500Y-34037525D01*
X26929500Y-34037525D01*
X26929500Y-34182475D01*
X26967016Y-34322485D01*
X26967017Y-34322488D01*
X27039488Y-34448011D01*
X27039490Y-34448013D01*
X27039491Y-34448015D01*
X27141985Y-34550509D01*
X27141986Y-34550510D01*
X27141988Y-34550511D01*
X27267511Y-34622982D01*
X27267512Y-34622982D01*
X27267515Y-34622984D01*
X27407525Y-34660500D01*
X27407528Y-34660500D01*
X27552472Y-34660500D01*
X27552475Y-34660500D01*
X27692485Y-34622984D01*
X27814208Y-34552706D01*
X27882108Y-34536234D01*
X27948135Y-34559086D01*
X27963889Y-34572413D01*
X28021985Y-34630509D01*
X28021986Y-34630510D01*
X28021988Y-34630511D01*
X28147511Y-34702982D01*
X28147512Y-34702982D01*
X28147515Y-34702984D01*
X28287525Y-34740500D01*
X28287528Y-34740500D01*
X28432472Y-34740500D01*
X28432475Y-34740500D01*
X28572485Y-34702984D01*
X28698015Y-34630509D01*
X28800509Y-34528015D01*
X28872984Y-34402485D01*
X28910500Y-34262475D01*
X28910500Y-34117525D01*
X28872984Y-33977515D01*
X28800509Y-33851985D01*
X28698015Y-33749491D01*
X28698013Y-33749490D01*
X28698011Y-33749488D01*
X28572488Y-33677017D01*
X28572489Y-33677017D01*
X28544409Y-33669493D01*
X28432475Y-33639500D01*
X28287525Y-33639500D01*
X28147515Y-33677016D01*
X28025791Y-33747293D01*
X27957892Y-33763766D01*
X27891865Y-33740914D01*
X27876111Y-33727587D01*
X27818017Y-33669493D01*
X27818011Y-33669488D01*
X27692488Y-33597017D01*
X27692489Y-33597017D01*
X27681006Y-33593940D01*
X27552475Y-33559500D01*
X27407525Y-33559500D01*
X27278993Y-33593940D01*
X27267511Y-33597017D01*
X27141988Y-33669488D01*
X27141982Y-33669493D01*
X27039493Y-33771982D01*
X27039488Y-33771988D01*
X26967017Y-33897511D01*
X26967016Y-33897515D01*
X26929500Y-34037525D01*
X26580500Y-34037525D01*
X26580500Y-32341268D01*
X26600185Y-32274229D01*
X26652989Y-32228474D01*
X26722147Y-32218530D01*
X26736580Y-32221490D01*
X26807525Y-32240500D01*
X26807528Y-32240500D01*
X26952472Y-32240500D01*
X26952475Y-32240500D01*
X27092485Y-32202984D01*
X27218015Y-32130509D01*
X27320509Y-32028015D01*
X27392984Y-31902485D01*
X27430500Y-31762475D01*
X27430500Y-31718417D01*
X34749500Y-31718417D01*
X34749500Y-31960994D01*
X34771816Y-32130509D01*
X34781162Y-32201495D01*
X34788391Y-32228474D01*
X34843947Y-32435810D01*
X34936773Y-32659911D01*
X34936776Y-32659918D01*
X35058064Y-32869995D01*
X35058066Y-32869998D01*
X35058067Y-32869999D01*
X35205733Y-33062442D01*
X35205739Y-33062449D01*
X35377256Y-33233966D01*
X35377262Y-33233971D01*
X35569711Y-33381642D01*
X35779788Y-33502930D01*
X36003900Y-33595760D01*
X36238211Y-33658544D01*
X36418586Y-33682290D01*
X36478711Y-33690206D01*
X36478712Y-33690206D01*
X36721289Y-33690206D01*
X36769388Y-33683873D01*
X36961789Y-33658544D01*
X37196100Y-33595760D01*
X37420212Y-33502930D01*
X37630289Y-33381642D01*
X37822738Y-33233971D01*
X37994265Y-33062444D01*
X38141936Y-32869995D01*
X38263224Y-32659918D01*
X38356054Y-32435806D01*
X38418838Y-32201495D01*
X38450500Y-31960994D01*
X38450500Y-31718418D01*
X38418838Y-31477917D01*
X38356054Y-31243606D01*
X38263224Y-31019494D01*
X38141936Y-30809417D01*
X37994265Y-30616968D01*
X37994260Y-30616962D01*
X37822743Y-30445445D01*
X37822736Y-30445439D01*
X37630293Y-30297773D01*
X37630292Y-30297772D01*
X37630289Y-30297770D01*
X37420212Y-30176482D01*
X37420205Y-30176479D01*
X37196104Y-30083653D01*
X36961785Y-30020867D01*
X36721289Y-29989206D01*
X36721288Y-29989206D01*
X36478712Y-29989206D01*
X36478711Y-29989206D01*
X36238214Y-30020867D01*
X36003895Y-30083653D01*
X35779794Y-30176479D01*
X35779785Y-30176483D01*
X35569706Y-30297773D01*
X35377263Y-30445439D01*
X35377256Y-30445445D01*
X35205739Y-30616962D01*
X35205733Y-30616969D01*
X35058067Y-30809412D01*
X34936777Y-31019491D01*
X34936773Y-31019500D01*
X34843947Y-31243601D01*
X34781161Y-31477920D01*
X34749500Y-31718417D01*
X27430500Y-31718417D01*
X27430500Y-31617525D01*
X27392984Y-31477515D01*
X27320509Y-31351985D01*
X27218015Y-31249491D01*
X27218013Y-31249490D01*
X27218011Y-31249488D01*
X27092488Y-31177017D01*
X27092489Y-31177017D01*
X27081006Y-31173940D01*
X26952475Y-31139500D01*
X26807525Y-31139500D01*
X26736593Y-31158506D01*
X26666743Y-31156843D01*
X26608881Y-31117680D01*
X26581377Y-31053451D01*
X26580500Y-31038731D01*
X26580500Y-23848389D01*
X29599500Y-23848389D01*
X29599500Y-24271610D01*
X29626579Y-24442585D01*
X29626598Y-24442701D01*
X29680127Y-24607445D01*
X29758768Y-24761788D01*
X29860586Y-24901928D01*
X29983072Y-25024414D01*
X30123212Y-25126232D01*
X30277555Y-25204873D01*
X30442299Y-25258402D01*
X30613389Y-25285500D01*
X30613390Y-25285500D01*
X30786610Y-25285500D01*
X30786611Y-25285500D01*
X30957701Y-25258402D01*
X31122445Y-25204873D01*
X31276788Y-25126232D01*
X31416928Y-25024414D01*
X31539414Y-24901928D01*
X31641232Y-24761788D01*
X31719873Y-24607445D01*
X31773402Y-24442701D01*
X31800500Y-24271611D01*
X31800500Y-23848389D01*
X32099500Y-23848389D01*
X32099500Y-24271610D01*
X32126579Y-24442585D01*
X32126598Y-24442701D01*
X32180127Y-24607445D01*
X32258768Y-24761788D01*
X32360586Y-24901928D01*
X32483072Y-25024414D01*
X32623212Y-25126232D01*
X32777555Y-25204873D01*
X32942299Y-25258402D01*
X33113389Y-25285500D01*
X33113390Y-25285500D01*
X33286610Y-25285500D01*
X33286611Y-25285500D01*
X33457701Y-25258402D01*
X33622445Y-25204873D01*
X33776788Y-25126232D01*
X33916928Y-25024414D01*
X34039414Y-24901928D01*
X34141232Y-24761788D01*
X34219873Y-24607445D01*
X34273402Y-24442701D01*
X34300500Y-24271611D01*
X34300500Y-23848389D01*
X34294420Y-23810000D01*
X34606086Y-23810000D01*
X35295854Y-23810000D01*
X35257370Y-23876657D01*
X35225000Y-23997465D01*
X35225000Y-24122535D01*
X35257370Y-24243343D01*
X35295854Y-24310000D01*
X34606086Y-24310000D01*
X34627086Y-24442585D01*
X34680591Y-24607257D01*
X34759195Y-24761524D01*
X34860967Y-24901602D01*
X34983397Y-25024032D01*
X35123475Y-25125804D01*
X35277744Y-25204408D01*
X35442415Y-25257914D01*
X35442414Y-25257914D01*
X35449999Y-25259115D01*
X35450000Y-25259114D01*
X35450000Y-24464145D01*
X35516657Y-24502630D01*
X35637465Y-24535000D01*
X35762535Y-24535000D01*
X35883343Y-24502630D01*
X35950000Y-24464145D01*
X35950000Y-25259115D01*
X35957584Y-25257914D01*
X36122255Y-25204408D01*
X36276524Y-25125804D01*
X36416602Y-25024032D01*
X36539032Y-24901602D01*
X36640804Y-24761524D01*
X36719408Y-24607257D01*
X36772913Y-24442585D01*
X36793914Y-24310000D01*
X36104146Y-24310000D01*
X36142630Y-24243343D01*
X36175000Y-24122535D01*
X36175000Y-23997465D01*
X36142630Y-23876657D01*
X36104146Y-23810000D01*
X36793914Y-23810000D01*
X36772913Y-23677414D01*
X36719408Y-23512742D01*
X36640802Y-23358471D01*
X36639505Y-23356686D01*
X36639504Y-23356685D01*
X36588973Y-23287135D01*
X37099500Y-23287135D01*
X37099500Y-24832870D01*
X37099501Y-24832876D01*
X37105908Y-24892483D01*
X37156202Y-25027328D01*
X37156206Y-25027335D01*
X37242452Y-25142544D01*
X37242455Y-25142547D01*
X37357664Y-25228793D01*
X37357671Y-25228797D01*
X37492517Y-25279091D01*
X37492516Y-25279091D01*
X37499444Y-25279835D01*
X37552127Y-25285500D01*
X38847872Y-25285499D01*
X38907483Y-25279091D01*
X39042331Y-25228796D01*
X39157546Y-25142546D01*
X39243796Y-25027331D01*
X39294091Y-24892483D01*
X39300500Y-24832873D01*
X39300499Y-23287128D01*
X39294091Y-23227517D01*
X39290690Y-23218399D01*
X39243797Y-23092671D01*
X39243793Y-23092664D01*
X39157547Y-22977455D01*
X39157544Y-22977452D01*
X39042335Y-22891206D01*
X39042328Y-22891202D01*
X38907482Y-22840908D01*
X38907483Y-22840908D01*
X38847883Y-22834501D01*
X38847881Y-22834500D01*
X38847873Y-22834500D01*
X38847864Y-22834500D01*
X37552129Y-22834500D01*
X37552123Y-22834501D01*
X37492516Y-22840908D01*
X37357671Y-22891202D01*
X37357664Y-22891206D01*
X37242455Y-22977452D01*
X37242452Y-22977455D01*
X37156206Y-23092664D01*
X37156202Y-23092671D01*
X37105908Y-23227517D01*
X37099501Y-23287116D01*
X37099501Y-23287123D01*
X37099500Y-23287135D01*
X36588973Y-23287135D01*
X36539038Y-23218404D01*
X36539034Y-23218399D01*
X36416602Y-23095967D01*
X36276524Y-22994195D01*
X36122257Y-22915591D01*
X35957589Y-22862087D01*
X35957581Y-22862085D01*
X35950000Y-22860884D01*
X35950000Y-23655854D01*
X35883343Y-23617370D01*
X35762535Y-23585000D01*
X35637465Y-23585000D01*
X35516657Y-23617370D01*
X35450000Y-23655854D01*
X35450000Y-22860884D01*
X35449999Y-22860884D01*
X35442418Y-22862085D01*
X35442410Y-22862087D01*
X35277742Y-22915591D01*
X35123475Y-22994195D01*
X34983397Y-23095967D01*
X34860967Y-23218397D01*
X34759195Y-23358475D01*
X34680591Y-23512742D01*
X34627086Y-23677414D01*
X34606086Y-23810000D01*
X34294420Y-23810000D01*
X34273402Y-23677299D01*
X34219873Y-23512555D01*
X34141232Y-23358212D01*
X34039414Y-23218072D01*
X33916928Y-23095586D01*
X33776788Y-22993768D01*
X33622445Y-22915127D01*
X33457701Y-22861598D01*
X33457699Y-22861597D01*
X33457698Y-22861597D01*
X33326271Y-22840781D01*
X33286611Y-22834500D01*
X33113389Y-22834500D01*
X33073728Y-22840781D01*
X32942302Y-22861597D01*
X32777552Y-22915128D01*
X32623211Y-22993768D01*
X32543256Y-23051859D01*
X32483072Y-23095586D01*
X32483070Y-23095588D01*
X32483069Y-23095588D01*
X32360588Y-23218069D01*
X32360588Y-23218070D01*
X32360586Y-23218072D01*
X32360345Y-23218404D01*
X32258768Y-23358211D01*
X32180128Y-23512552D01*
X32126597Y-23677302D01*
X32099500Y-23848389D01*
X31800500Y-23848389D01*
X31773402Y-23677299D01*
X31719873Y-23512555D01*
X31641232Y-23358212D01*
X31539414Y-23218072D01*
X31416928Y-23095586D01*
X31276788Y-22993768D01*
X31122445Y-22915127D01*
X30957701Y-22861598D01*
X30957699Y-22861597D01*
X30957698Y-22861597D01*
X30826271Y-22840781D01*
X30786611Y-22834500D01*
X30613389Y-22834500D01*
X30573728Y-22840781D01*
X30442302Y-22861597D01*
X30277552Y-22915128D01*
X30123211Y-22993768D01*
X30043256Y-23051859D01*
X29983072Y-23095586D01*
X29983070Y-23095588D01*
X29983069Y-23095588D01*
X29860588Y-23218069D01*
X29860588Y-23218070D01*
X29860586Y-23218072D01*
X29860345Y-23218404D01*
X29758768Y-23358211D01*
X29680128Y-23512552D01*
X29626597Y-23677302D01*
X29599500Y-23848389D01*
X26580500Y-23848389D01*
X26580500Y-20624500D01*
X26600185Y-20557461D01*
X26652989Y-20511706D01*
X26704500Y-20500500D01*
X40575500Y-20500500D01*
X40642539Y-20520185D01*
G37*
%TD.AperFunction*%
%TA.AperFunction,Conductor*%
G36*
X33080000Y-47532661D02*
G01*
X33107259Y-47634394D01*
X33159920Y-47725606D01*
X33234394Y-47800080D01*
X33325606Y-47852741D01*
X33427339Y-47880000D01*
X33433553Y-47880000D01*
X33025050Y-48288500D01*
X33041849Y-48299725D01*
X33041855Y-48299728D01*
X33210182Y-48369451D01*
X33210194Y-48369454D01*
X33383277Y-48403883D01*
X33445188Y-48436268D01*
X33479762Y-48496983D01*
X33479312Y-48505363D01*
X33507201Y-48444297D01*
X33565979Y-48406523D01*
X33576723Y-48403883D01*
X33749805Y-48369454D01*
X33749813Y-48369452D01*
X33918151Y-48299724D01*
X33918154Y-48299723D01*
X33934947Y-48288500D01*
X33934948Y-48288500D01*
X33526448Y-47880000D01*
X33532661Y-47880000D01*
X33634394Y-47852741D01*
X33725606Y-47800080D01*
X33800080Y-47725606D01*
X33852741Y-47634394D01*
X33880000Y-47532661D01*
X33880000Y-47526448D01*
X34288500Y-47934948D01*
X34288500Y-47934947D01*
X34299723Y-47918154D01*
X34299726Y-47918148D01*
X34365168Y-47760156D01*
X34409008Y-47705752D01*
X34475302Y-47683687D01*
X34543002Y-47700966D01*
X34590613Y-47752103D01*
X34594290Y-47760155D01*
X34659833Y-47918390D01*
X34659833Y-47918391D01*
X34761113Y-48069967D01*
X34761119Y-48069975D01*
X34890024Y-48198880D01*
X34890032Y-48198886D01*
X35041608Y-48300166D01*
X35041612Y-48300168D01*
X35210037Y-48369931D01*
X35210042Y-48369933D01*
X35210046Y-48369933D01*
X35210047Y-48369934D01*
X35368735Y-48401500D01*
X35368737Y-48401500D01*
X35388846Y-48405500D01*
X35571154Y-48405500D01*
X35591263Y-48401500D01*
X35591265Y-48401500D01*
X35698417Y-48380185D01*
X35749958Y-48369933D01*
X35918389Y-48300167D01*
X35918391Y-48300166D01*
X35993672Y-48249864D01*
X36069972Y-48198883D01*
X36198883Y-48069972D01*
X36289103Y-47934948D01*
X36300166Y-47918391D01*
X36300168Y-47918387D01*
X36365439Y-47760808D01*
X36409280Y-47706404D01*
X36475574Y-47684339D01*
X36543273Y-47701618D01*
X36590884Y-47752755D01*
X36594561Y-47760808D01*
X36659831Y-47918387D01*
X36659833Y-47918391D01*
X36761113Y-48069967D01*
X36761119Y-48069975D01*
X36890024Y-48198880D01*
X36890032Y-48198886D01*
X37041608Y-48300166D01*
X37041612Y-48300168D01*
X37210037Y-48369931D01*
X37210042Y-48369933D01*
X37210046Y-48369933D01*
X37210047Y-48369934D01*
X37380715Y-48403883D01*
X37442626Y-48436268D01*
X37477200Y-48496984D01*
X37473460Y-48566753D01*
X37432593Y-48623425D01*
X37367575Y-48649007D01*
X37356523Y-48649500D01*
X33600914Y-48649500D01*
X33533875Y-48629815D01*
X33488120Y-48577011D01*
X33478907Y-48512937D01*
X33476023Y-48566753D01*
X33435157Y-48623425D01*
X33370138Y-48649006D01*
X33359086Y-48649500D01*
X30211998Y-48649500D01*
X30144959Y-48629815D01*
X30099204Y-48577011D01*
X30089260Y-48507853D01*
X30118285Y-48444297D01*
X30177063Y-48406523D01*
X30187806Y-48403883D01*
X30252736Y-48390967D01*
X30252737Y-48390966D01*
X30252740Y-48390966D01*
X30335601Y-48335601D01*
X30390966Y-48252740D01*
X30405500Y-48179674D01*
X30405500Y-47927765D01*
X30425185Y-47860726D01*
X30477989Y-47814971D01*
X30547147Y-47805027D01*
X30610703Y-47834052D01*
X30644061Y-47880313D01*
X30659831Y-47918387D01*
X30659833Y-47918391D01*
X30761113Y-48069967D01*
X30761119Y-48069975D01*
X30890024Y-48198880D01*
X30890032Y-48198886D01*
X31041608Y-48300166D01*
X31041612Y-48300168D01*
X31210037Y-48369931D01*
X31210042Y-48369933D01*
X31210046Y-48369933D01*
X31210047Y-48369934D01*
X31368735Y-48401500D01*
X31368737Y-48401500D01*
X31388846Y-48405500D01*
X31571154Y-48405500D01*
X31591263Y-48401500D01*
X31591265Y-48401500D01*
X31698417Y-48380185D01*
X31749958Y-48369933D01*
X31918389Y-48300167D01*
X31918391Y-48300166D01*
X31993672Y-48249864D01*
X32069972Y-48198883D01*
X32198883Y-48069972D01*
X32289103Y-47934948D01*
X32300166Y-47918391D01*
X32300168Y-47918387D01*
X32365709Y-47760156D01*
X32409550Y-47705752D01*
X32475844Y-47683687D01*
X32543543Y-47700966D01*
X32591154Y-47752103D01*
X32594831Y-47760156D01*
X32660271Y-47918145D01*
X32671498Y-47934947D01*
X33080000Y-47526445D01*
X33080000Y-47532661D01*
G37*
%TD.AperFunction*%
%TA.AperFunction,Conductor*%
G36*
X32288500Y-45934948D02*
G01*
X32288500Y-45934947D01*
X32299723Y-45918154D01*
X32299726Y-45918148D01*
X32365168Y-45760156D01*
X32409008Y-45705752D01*
X32475302Y-45683687D01*
X32543002Y-45700966D01*
X32590613Y-45752103D01*
X32594290Y-45760155D01*
X32659833Y-45918390D01*
X32659833Y-45918391D01*
X32761113Y-46069967D01*
X32761119Y-46069975D01*
X32890024Y-46198880D01*
X32890032Y-46198886D01*
X33041608Y-46300166D01*
X33041612Y-46300168D01*
X33199843Y-46365709D01*
X33254247Y-46409550D01*
X33276312Y-46475844D01*
X33259033Y-46543543D01*
X33207896Y-46591154D01*
X33199844Y-46594831D01*
X33041849Y-46660274D01*
X33025050Y-46671498D01*
X33433554Y-47080000D01*
X33427339Y-47080000D01*
X33325606Y-47107259D01*
X33234394Y-47159920D01*
X33159920Y-47234394D01*
X33107259Y-47325606D01*
X33080000Y-47427339D01*
X33080000Y-47433552D01*
X32671498Y-47025050D01*
X32660274Y-47041849D01*
X32594831Y-47199844D01*
X32550990Y-47254247D01*
X32484696Y-47276312D01*
X32416996Y-47259033D01*
X32369386Y-47207895D01*
X32365709Y-47199843D01*
X32300168Y-47041612D01*
X32300166Y-47041608D01*
X32198886Y-46890032D01*
X32198880Y-46890024D01*
X32069975Y-46761119D01*
X32069967Y-46761113D01*
X31918390Y-46659833D01*
X31760155Y-46594290D01*
X31705752Y-46550449D01*
X31683687Y-46484155D01*
X31700966Y-46416455D01*
X31752104Y-46368845D01*
X31760156Y-46365168D01*
X31918148Y-46299726D01*
X31918154Y-46299723D01*
X31934947Y-46288500D01*
X31934948Y-46288500D01*
X31526448Y-45880000D01*
X31532661Y-45880000D01*
X31634394Y-45852741D01*
X31725606Y-45800080D01*
X31800080Y-45725606D01*
X31852741Y-45634394D01*
X31880000Y-45532661D01*
X31880000Y-45526448D01*
X32288500Y-45934948D01*
G37*
%TD.AperFunction*%
%TA.AperFunction,Conductor*%
G36*
X38543273Y-45701618D02*
G01*
X38590884Y-45752755D01*
X38594561Y-45760808D01*
X38659831Y-45918387D01*
X38659833Y-45918391D01*
X38761113Y-46069967D01*
X38761119Y-46069975D01*
X38890024Y-46198880D01*
X38890032Y-46198886D01*
X39041608Y-46300166D01*
X39041612Y-46300168D01*
X39199843Y-46365709D01*
X39254247Y-46409550D01*
X39276312Y-46475844D01*
X39259033Y-46543543D01*
X39207896Y-46591154D01*
X39199844Y-46594831D01*
X39041849Y-46660274D01*
X39025050Y-46671498D01*
X39433554Y-47080000D01*
X39427339Y-47080000D01*
X39325606Y-47107259D01*
X39234394Y-47159920D01*
X39159920Y-47234394D01*
X39107259Y-47325606D01*
X39080000Y-47427339D01*
X39080000Y-47433552D01*
X38671498Y-47025050D01*
X38660274Y-47041849D01*
X38594831Y-47199844D01*
X38550990Y-47254247D01*
X38484696Y-47276312D01*
X38416996Y-47259033D01*
X38369386Y-47207895D01*
X38365709Y-47199843D01*
X38300168Y-47041612D01*
X38300166Y-47041608D01*
X38198886Y-46890032D01*
X38198880Y-46890024D01*
X38069975Y-46761119D01*
X38069967Y-46761113D01*
X37918391Y-46659833D01*
X37918387Y-46659831D01*
X37760808Y-46594561D01*
X37706404Y-46550720D01*
X37684339Y-46484426D01*
X37701618Y-46416727D01*
X37752755Y-46369116D01*
X37760808Y-46365439D01*
X37918387Y-46300168D01*
X37918391Y-46300166D01*
X37993672Y-46249864D01*
X38069972Y-46198883D01*
X38198883Y-46069972D01*
X38289103Y-45934948D01*
X38300166Y-45918391D01*
X38300168Y-45918387D01*
X38365439Y-45760808D01*
X38409280Y-45706404D01*
X38475574Y-45684339D01*
X38543273Y-45701618D01*
G37*
%TD.AperFunction*%
%TA.AperFunction,Conductor*%
G36*
X34543273Y-45701618D02*
G01*
X34590884Y-45752755D01*
X34594561Y-45760808D01*
X34659831Y-45918387D01*
X34659833Y-45918391D01*
X34761113Y-46069967D01*
X34761119Y-46069975D01*
X34890024Y-46198880D01*
X34890032Y-46198886D01*
X35041608Y-46300166D01*
X35199192Y-46365439D01*
X35253595Y-46409280D01*
X35275660Y-46475574D01*
X35258381Y-46543273D01*
X35207244Y-46590884D01*
X35199192Y-46594561D01*
X35041608Y-46659833D01*
X34890032Y-46761113D01*
X34890024Y-46761119D01*
X34761119Y-46890024D01*
X34761113Y-46890032D01*
X34659833Y-47041608D01*
X34659833Y-47041609D01*
X34594290Y-47199844D01*
X34550449Y-47254247D01*
X34484154Y-47276312D01*
X34416455Y-47259033D01*
X34368845Y-47207895D01*
X34365168Y-47199843D01*
X34299728Y-47041855D01*
X34299725Y-47041849D01*
X34288500Y-47025050D01*
X33880000Y-47433551D01*
X33880000Y-47427339D01*
X33852741Y-47325606D01*
X33800080Y-47234394D01*
X33725606Y-47159920D01*
X33634394Y-47107259D01*
X33532661Y-47080000D01*
X33526447Y-47080000D01*
X33934947Y-46671498D01*
X33918145Y-46660271D01*
X33760156Y-46594831D01*
X33705752Y-46550990D01*
X33683687Y-46484696D01*
X33700966Y-46416997D01*
X33752103Y-46369386D01*
X33760156Y-46365709D01*
X33918387Y-46300168D01*
X33918391Y-46300166D01*
X33993672Y-46249864D01*
X34069972Y-46198883D01*
X34198883Y-46069972D01*
X34289103Y-45934948D01*
X34300166Y-45918391D01*
X34300168Y-45918387D01*
X34365439Y-45760808D01*
X34409280Y-45706404D01*
X34475574Y-45684339D01*
X34543273Y-45701618D01*
G37*
%TD.AperFunction*%
%TA.AperFunction,Conductor*%
G36*
X31080000Y-45532661D02*
G01*
X31107259Y-45634394D01*
X31159920Y-45725606D01*
X31234394Y-45800080D01*
X31325606Y-45852741D01*
X31427339Y-45880000D01*
X31433553Y-45880000D01*
X31025050Y-46288500D01*
X31041849Y-46299725D01*
X31041855Y-46299728D01*
X31199843Y-46365168D01*
X31254247Y-46409008D01*
X31276312Y-46475302D01*
X31259033Y-46543002D01*
X31207896Y-46590613D01*
X31199844Y-46594290D01*
X31041609Y-46659833D01*
X31041608Y-46659833D01*
X30890032Y-46761113D01*
X30890024Y-46761119D01*
X30761119Y-46890024D01*
X30761113Y-46890032D01*
X30659833Y-47041608D01*
X30659833Y-47041609D01*
X30644061Y-47079687D01*
X30600220Y-47134090D01*
X30533925Y-47156155D01*
X30466226Y-47138876D01*
X30418616Y-47087738D01*
X30405500Y-47032234D01*
X30405500Y-46780323D01*
X30405499Y-46780321D01*
X30390967Y-46707264D01*
X30390966Y-46707260D01*
X30359569Y-46660271D01*
X30335601Y-46624399D01*
X30252740Y-46569034D01*
X30252739Y-46569033D01*
X30252735Y-46569032D01*
X30179677Y-46554500D01*
X30179674Y-46554500D01*
X29927765Y-46554500D01*
X29860726Y-46534815D01*
X29814971Y-46482011D01*
X29805027Y-46412853D01*
X29834052Y-46349297D01*
X29880313Y-46315939D01*
X29918387Y-46300168D01*
X29918391Y-46300166D01*
X29993672Y-46249864D01*
X30069972Y-46198883D01*
X30198883Y-46069972D01*
X30289103Y-45934948D01*
X30300166Y-45918391D01*
X30300168Y-45918387D01*
X30365709Y-45760156D01*
X30409550Y-45705752D01*
X30475844Y-45683687D01*
X30543543Y-45700966D01*
X30591154Y-45752103D01*
X30594831Y-45760156D01*
X30660271Y-45918145D01*
X30671498Y-45934947D01*
X31080000Y-45526445D01*
X31080000Y-45532661D01*
G37*
%TD.AperFunction*%
%TD*%
M02*
