%TF.GenerationSoftware,KiCad,Pcbnew,9.0.6*%
%TF.CreationDate,2025-12-29T21:45:29-05:00*%
%TF.ProjectId,plimsoll,706c696d-736f-46c6-9c2e-6b696361645f,rev?*%
%TF.SameCoordinates,Original*%
%TF.FileFunction,Soldermask,Top*%
%TF.FilePolarity,Negative*%
%FSLAX46Y46*%
G04 Gerber Fmt 4.6, Leading zero omitted, Abs format (unit mm)*
G04 Created by KiCad (PCBNEW 9.0.6) date 2025-12-29 21:45:29*
%MOMM*%
%LPD*%
G01*
G04 APERTURE LIST*
G04 Aperture macros list*
%AMRoundRect*
0 Rectangle with rounded corners*
0 $1 Rounding radius*
0 $2 $3 $4 $5 $6 $7 $8 $9 X,Y pos of 4 corners*
0 Add a 4 corners polygon primitive as box body*
4,1,4,$2,$3,$4,$5,$6,$7,$8,$9,$2,$3,0*
0 Add four circle primitives for the rounded corners*
1,1,$1+$1,$2,$3*
1,1,$1+$1,$4,$5*
1,1,$1+$1,$6,$7*
1,1,$1+$1,$8,$9*
0 Add four rect primitives between the rounded corners*
20,1,$1+$1,$2,$3,$4,$5,0*
20,1,$1+$1,$4,$5,$6,$7,0*
20,1,$1+$1,$6,$7,$8,$9,0*
20,1,$1+$1,$8,$9,$2,$3,0*%
G04 Aperture macros list end*
%ADD10RoundRect,0.250000X0.600000X0.725000X-0.600000X0.725000X-0.600000X-0.725000X0.600000X-0.725000X0*%
%ADD11O,1.700000X1.950000*%
%ADD12RoundRect,0.225000X-0.250000X0.225000X-0.250000X-0.225000X0.250000X-0.225000X0.250000X0.225000X0*%
%ADD13RoundRect,0.250000X0.475000X-0.250000X0.475000X0.250000X-0.475000X0.250000X-0.475000X-0.250000X0*%
%ADD14RoundRect,0.100000X0.100000X-0.637500X0.100000X0.637500X-0.100000X0.637500X-0.100000X-0.637500X0*%
%ADD15RoundRect,0.150000X0.150000X-0.512500X0.150000X0.512500X-0.150000X0.512500X-0.150000X-0.512500X0*%
%ADD16RoundRect,0.225000X0.225000X0.250000X-0.225000X0.250000X-0.225000X-0.250000X0.225000X-0.250000X0*%
%ADD17RoundRect,0.225000X-0.225000X-0.250000X0.225000X-0.250000X0.225000X0.250000X-0.225000X0.250000X0*%
%ADD18RoundRect,0.225000X0.250000X-0.225000X0.250000X0.225000X-0.250000X0.225000X-0.250000X-0.225000X0*%
%ADD19RoundRect,0.200000X0.275000X-0.200000X0.275000X0.200000X-0.275000X0.200000X-0.275000X-0.200000X0*%
%ADD20RoundRect,0.250000X-0.475000X0.250000X-0.475000X-0.250000X0.475000X-0.250000X0.475000X0.250000X0*%
%ADD21R,1.350000X1.350000*%
%ADD22C,1.350000*%
G04 APERTURE END LIST*
D10*
%TO.C,J3*%
X38200000Y-24060000D03*
D11*
X35700000Y-24060000D03*
X33200000Y-24060000D03*
X30700000Y-24060000D03*
%TD*%
D12*
%TO.C,C8*%
X33330000Y-35030000D03*
X33330000Y-36580000D03*
%TD*%
D13*
%TO.C,C11*%
X38370000Y-38770000D03*
X38370000Y-36870000D03*
%TD*%
D14*
%TO.C,U1*%
X27375000Y-38575000D03*
X28025000Y-38575000D03*
X28675000Y-38575000D03*
X29325000Y-38575000D03*
X29975000Y-38575000D03*
X30625000Y-38575000D03*
X31275000Y-38575000D03*
X31925000Y-38575000D03*
X31925000Y-32850000D03*
X31275000Y-32850000D03*
X30625000Y-32850000D03*
X29975000Y-32850000D03*
X29325000Y-32850000D03*
X28675000Y-32850000D03*
X28025000Y-32850000D03*
X27375000Y-32850000D03*
%TD*%
D15*
%TO.C,U5*%
X36130000Y-42890000D03*
X37080000Y-42890000D03*
X38030000Y-42890000D03*
X38030000Y-40615000D03*
X36130000Y-40615000D03*
%TD*%
D16*
%TO.C,C7*%
X32050000Y-30800000D03*
X30500000Y-30800000D03*
%TD*%
D17*
%TO.C,C2*%
X27500000Y-27750000D03*
X29050000Y-27750000D03*
%TD*%
D18*
%TO.C,C9*%
X27500000Y-30825000D03*
X27500000Y-29275000D03*
%TD*%
D19*
%TO.C,R8*%
X32000000Y-29325000D03*
X32000000Y-27675000D03*
%TD*%
%TO.C,R7*%
X30500000Y-29325000D03*
X30500000Y-27675000D03*
%TD*%
D12*
%TO.C,C12*%
X29000000Y-29225000D03*
X29000000Y-30775000D03*
%TD*%
D16*
%TO.C,C1*%
X35025000Y-27750000D03*
X33475000Y-27750000D03*
%TD*%
D20*
%TO.C,C6*%
X34150000Y-41400000D03*
X34150000Y-43300000D03*
%TD*%
D13*
%TO.C,C10*%
X36240000Y-38750000D03*
X36240000Y-36850000D03*
%TD*%
D21*
%TO.C,J1*%
X29480000Y-47480000D03*
D22*
X29480000Y-45480000D03*
X31480000Y-47480000D03*
X31480000Y-45480000D03*
X33480000Y-47480000D03*
X33480000Y-45480000D03*
X35480000Y-47480000D03*
X35480000Y-45480000D03*
X37480000Y-47480000D03*
X37480000Y-45480000D03*
X39480000Y-47480000D03*
X39480000Y-45480000D03*
%TD*%
M02*
