M48
; DRILL file {KiCad 9.0.6} date 2025-12-29T21:45:30-0500
; FORMAT={-:-/ absolute / inch / decimal}
; #@! TF.CreationDate,2025-12-29T21:45:30-05:00
; #@! TF.GenerationSoftware,Kicad,Pcbnew,9.0.6
; #@! TF.FileFunction,Plated,1,4,PTH
FMAT,2
INCH
; #@! TA.AperFunction,Plated,PTH,ViaDrill
T1C0.0118
; #@! TA.AperFunction,Plated,PTH,ComponentDrill
T2C0.0315
; #@! TA.AperFunction,Plated,PTH,ComponentDrill
T3C0.0374
%
G90
G05
T1
X1.0583Y-1.2476
X1.0815Y-1.0161
X1.0819Y-1.3429
X1.102Y-0.8555
X1.1043Y-1.4394
X1.1098Y-1.1197
X1.1127Y-1.1796
X1.1165Y-1.3461
X1.1358Y-1.7303
X1.2228Y-1.348
X1.2244Y-1.4028
X1.2512Y-0.8583
X1.2618Y-1.6173
X1.2811Y-1.6638
X1.2858Y-1.2858
X1.3126Y-1.4827
X1.3406Y-1.5224
X1.3433Y-1.1307
X1.4283Y-1.4043
X1.5118Y-1.4067
X1.5319Y-1.3256
X1.5516Y-0.8547
X1.5661Y-1.0689
X1.5764Y-1.6917
X1.5815Y-1.5272
T2
X1.1606Y-1.7906
X1.1606Y-1.8693
X1.2394Y-1.7906
X1.2394Y-1.8693
X1.3181Y-1.7906
X1.3181Y-1.8693
X1.3969Y-1.7906
X1.3969Y-1.8693
X1.4756Y-1.7906
X1.4756Y-1.8693
X1.5543Y-1.7906
X1.5543Y-1.8693
T3
X1.2087Y-0.9472
X1.3071Y-0.9472
X1.4055Y-0.9472
X1.5039Y-0.9472
M30
