%TF.GenerationSoftware,KiCad,Pcbnew,9.0.2*%
%TF.CreationDate,2025-06-14T09:22:04-04:00*%
%TF.ProjectId,plimsoll,706c696d-736f-46c6-9c2e-6b696361645f,rev?*%
%TF.SameCoordinates,Original*%
%TF.FileFunction,Copper,L1,Top*%
%TF.FilePolarity,Positive*%
%FSLAX46Y46*%
G04 Gerber Fmt 4.6, Leading zero omitted, Abs format (unit mm)*
G04 Created by KiCad (PCBNEW 9.0.2) date 2025-06-14 09:22:04*
%MOMM*%
%LPD*%
G01*
G04 APERTURE LIST*
G04 Aperture macros list*
%AMRoundRect*
0 Rectangle with rounded corners*
0 $1 Rounding radius*
0 $2 $3 $4 $5 $6 $7 $8 $9 X,Y pos of 4 corners*
0 Add a 4 corners polygon primitive as box body*
4,1,4,$2,$3,$4,$5,$6,$7,$8,$9,$2,$3,0*
0 Add four circle primitives for the rounded corners*
1,1,$1+$1,$2,$3*
1,1,$1+$1,$4,$5*
1,1,$1+$1,$6,$7*
1,1,$1+$1,$8,$9*
0 Add four rect primitives between the rounded corners*
20,1,$1+$1,$2,$3,$4,$5,0*
20,1,$1+$1,$4,$5,$6,$7,0*
20,1,$1+$1,$6,$7,$8,$9,0*
20,1,$1+$1,$8,$9,$2,$3,0*%
%AMFreePoly0*
4,1,9,3.862500,-0.866500,0.737500,-0.866500,0.737500,-0.450000,-0.737500,-0.450000,-0.737500,0.450000,0.737500,0.450000,0.737500,0.866500,3.862500,0.866500,3.862500,-0.866500,3.862500,-0.866500,$1*%
G04 Aperture macros list end*
%TA.AperFunction,SMDPad,CuDef*%
%ADD10RoundRect,0.200000X-0.200000X-0.275000X0.200000X-0.275000X0.200000X0.275000X-0.200000X0.275000X0*%
%TD*%
%TA.AperFunction,ComponentPad*%
%ADD11R,1.700000X1.700000*%
%TD*%
%TA.AperFunction,ComponentPad*%
%ADD12C,1.700000*%
%TD*%
%TA.AperFunction,ComponentPad*%
%ADD13RoundRect,0.250000X0.600000X0.725000X-0.600000X0.725000X-0.600000X-0.725000X0.600000X-0.725000X0*%
%TD*%
%TA.AperFunction,ComponentPad*%
%ADD14O,1.700000X1.950000*%
%TD*%
%TA.AperFunction,SMDPad,CuDef*%
%ADD15RoundRect,0.225000X-0.250000X0.225000X-0.250000X-0.225000X0.250000X-0.225000X0.250000X0.225000X0*%
%TD*%
%TA.AperFunction,SMDPad,CuDef*%
%ADD16RoundRect,0.243750X0.456250X-0.243750X0.456250X0.243750X-0.456250X0.243750X-0.456250X-0.243750X0*%
%TD*%
%TA.AperFunction,SMDPad,CuDef*%
%ADD17R,2.000000X1.050000*%
%TD*%
%TA.AperFunction,SMDPad,CuDef*%
%ADD18RoundRect,0.225000X0.225000X-0.425000X0.225000X0.425000X-0.225000X0.425000X-0.225000X-0.425000X0*%
%TD*%
%TA.AperFunction,SMDPad,CuDef*%
%ADD19FreePoly0,90.000000*%
%TD*%
%TA.AperFunction,SMDPad,CuDef*%
%ADD20RoundRect,0.250000X-0.250000X-0.475000X0.250000X-0.475000X0.250000X0.475000X-0.250000X0.475000X0*%
%TD*%
%TA.AperFunction,SMDPad,CuDef*%
%ADD21RoundRect,0.150000X0.150000X-0.587500X0.150000X0.587500X-0.150000X0.587500X-0.150000X-0.587500X0*%
%TD*%
%TA.AperFunction,SMDPad,CuDef*%
%ADD22RoundRect,0.250000X-0.475000X0.250000X-0.475000X-0.250000X0.475000X-0.250000X0.475000X0.250000X0*%
%TD*%
%TA.AperFunction,SMDPad,CuDef*%
%ADD23RoundRect,0.150000X0.150000X-0.512500X0.150000X0.512500X-0.150000X0.512500X-0.150000X-0.512500X0*%
%TD*%
%TA.AperFunction,SMDPad,CuDef*%
%ADD24RoundRect,0.200000X-0.275000X0.200000X-0.275000X-0.200000X0.275000X-0.200000X0.275000X0.200000X0*%
%TD*%
%TA.AperFunction,SMDPad,CuDef*%
%ADD25RoundRect,0.075000X-0.075000X0.700000X-0.075000X-0.700000X0.075000X-0.700000X0.075000X0.700000X0*%
%TD*%
%TA.AperFunction,SMDPad,CuDef*%
%ADD26RoundRect,0.075000X-0.700000X0.075000X-0.700000X-0.075000X0.700000X-0.075000X0.700000X0.075000X0*%
%TD*%
%TA.AperFunction,SMDPad,CuDef*%
%ADD27RoundRect,0.200000X0.200000X0.275000X-0.200000X0.275000X-0.200000X-0.275000X0.200000X-0.275000X0*%
%TD*%
%TA.AperFunction,SMDPad,CuDef*%
%ADD28RoundRect,0.150000X0.850000X0.150000X-0.850000X0.150000X-0.850000X-0.150000X0.850000X-0.150000X0*%
%TD*%
%TA.AperFunction,SMDPad,CuDef*%
%ADD29RoundRect,0.250000X-0.450000X0.262500X-0.450000X-0.262500X0.450000X-0.262500X0.450000X0.262500X0*%
%TD*%
%TA.AperFunction,SMDPad,CuDef*%
%ADD30RoundRect,0.225000X0.250000X-0.225000X0.250000X0.225000X-0.250000X0.225000X-0.250000X-0.225000X0*%
%TD*%
%TA.AperFunction,ConnectorPad*%
%ADD31C,0.787400*%
%TD*%
%TA.AperFunction,SMDPad,CuDef*%
%ADD32R,0.600000X1.240000*%
%TD*%
%TA.AperFunction,SMDPad,CuDef*%
%ADD33R,0.300000X1.240000*%
%TD*%
%TA.AperFunction,HeatsinkPad*%
%ADD34O,1.000000X2.100000*%
%TD*%
%TA.AperFunction,HeatsinkPad*%
%ADD35O,1.000000X1.800000*%
%TD*%
%TA.AperFunction,SMDPad,CuDef*%
%ADD36RoundRect,0.225000X0.225000X0.250000X-0.225000X0.250000X-0.225000X-0.250000X0.225000X-0.250000X0*%
%TD*%
%TA.AperFunction,SMDPad,CuDef*%
%ADD37RoundRect,0.200000X0.275000X-0.200000X0.275000X0.200000X-0.275000X0.200000X-0.275000X-0.200000X0*%
%TD*%
%TA.AperFunction,ViaPad*%
%ADD38C,0.600000*%
%TD*%
%TA.AperFunction,Conductor*%
%ADD39C,0.200000*%
%TD*%
G04 APERTURE END LIST*
D10*
%TO.P,R4,1*%
%TO.N,GND*%
X20950000Y-38800000D03*
%TO.P,R4,2*%
%TO.N,/BOOT0*%
X22600000Y-38800000D03*
%TD*%
D11*
%TO.P,J4,1,Pin_1*%
%TO.N,GND*%
X38600000Y-52200000D03*
D12*
%TO.P,J4,2,Pin_2*%
%TO.N,VBUS*%
X38600000Y-54740000D03*
%TD*%
D10*
%TO.P,R12,1*%
%TO.N,GND*%
X21750000Y-31000000D03*
%TO.P,R12,2*%
%TO.N,Net-(U6-XI)*%
X23400000Y-31000000D03*
%TD*%
D13*
%TO.P,J3,1,Pin_1*%
%TO.N,/Signal+*%
X36800000Y-24000000D03*
D14*
%TO.P,J3,2,Pin_2*%
%TO.N,/Signal-*%
X34300000Y-24000000D03*
%TO.P,J3,3,Pin_3*%
%TO.N,GND*%
X31800000Y-24000000D03*
%TO.P,J3,4,Pin_4*%
%TO.N,+3.3VADC*%
X29300000Y-24000000D03*
%TD*%
D15*
%TO.P,C8,1*%
%TO.N,+3.3VADC*%
X34900000Y-31600000D03*
%TO.P,C8,2*%
%TO.N,GND*%
X34900000Y-33150000D03*
%TD*%
D16*
%TO.P,D2,1,K*%
%TO.N,Net-(D2-K)*%
X25600000Y-54200000D03*
%TO.P,D2,2,A*%
%TO.N,Net-(D2-A)*%
X25600000Y-52325000D03*
%TD*%
D17*
%TO.P,SW2,1,1*%
%TO.N,+3V3*%
X22700000Y-37140000D03*
%TO.P,SW2,2,2*%
%TO.N,/BOOT0*%
X22700000Y-32700000D03*
%TD*%
D18*
%TO.P,U4,1,VIN*%
%TO.N,VBUS*%
X32600000Y-55850000D03*
D19*
%TO.P,U4,2,GND*%
%TO.N,GND*%
X34100000Y-55762500D03*
D18*
%TO.P,U4,3,VOUT*%
%TO.N,+3V3*%
X35600000Y-55850000D03*
%TD*%
D20*
%TO.P,C11,1*%
%TO.N,+3.3VADC*%
X36500000Y-34800000D03*
%TO.P,C11,2*%
%TO.N,GND*%
X38400000Y-34800000D03*
%TD*%
%TO.P,C2,1*%
%TO.N,VBUS*%
X32650000Y-59700000D03*
%TO.P,C2,2*%
%TO.N,GND*%
X34550000Y-59700000D03*
%TD*%
D21*
%TO.P,U2,1,GND*%
%TO.N,GND*%
X21250000Y-53737500D03*
%TO.P,U2,2,~{RESET}*%
%TO.N,/nRESET*%
X23150000Y-53737500D03*
%TO.P,U2,3,Vcc*%
%TO.N,+3V3*%
X22200000Y-51862500D03*
%TD*%
D22*
%TO.P,C4,1*%
%TO.N,+3V3*%
X36450000Y-57900000D03*
%TO.P,C4,2*%
%TO.N,GND*%
X36450000Y-59800000D03*
%TD*%
D10*
%TO.P,R11,1*%
%TO.N,Net-(JP2-C)*%
X21750000Y-29200000D03*
%TO.P,R11,2*%
%TO.N,Net-(U6-S1)*%
X23400000Y-29200000D03*
%TD*%
D17*
%TO.P,SW1,1,1*%
%TO.N,+3V3*%
X22900000Y-61840000D03*
%TO.P,SW1,2,2*%
%TO.N,/nRESET*%
X22900000Y-57400000D03*
%TD*%
D23*
%TO.P,U5,1,VIN*%
%TO.N,VBUS*%
X36650000Y-39137500D03*
%TO.P,U5,2,GND*%
%TO.N,GND*%
X37600000Y-39137500D03*
%TO.P,U5,3,EN*%
%TO.N,VBUS*%
X38550000Y-39137500D03*
%TO.P,U5,4,NC*%
%TO.N,unconnected-(U5-NC-Pad4)*%
X38550000Y-36862500D03*
%TO.P,U5,5,VOUT*%
%TO.N,+3.3VADC*%
X36650000Y-36862500D03*
%TD*%
D24*
%TO.P,R13,1*%
%TO.N,Net-(D1-K)*%
X27200000Y-57800000D03*
%TO.P,R13,2*%
%TO.N,GND*%
X27200000Y-59450000D03*
%TD*%
D25*
%TO.P,U3,1,VBAT*%
%TO.N,+3V3*%
X32550000Y-39125000D03*
%TO.P,U3,2,PC13*%
%TO.N,unconnected-(U3-PC13-Pad2)*%
X32050000Y-39125000D03*
%TO.P,U3,3,PC14*%
%TO.N,unconnected-(U3-PC14-Pad3)*%
X31550000Y-39125000D03*
%TO.P,U3,4,PC15*%
%TO.N,unconnected-(U3-PC15-Pad4)*%
X31050000Y-39125000D03*
%TO.P,U3,5,PF0*%
%TO.N,unconnected-(U3-PF0-Pad5)*%
X30550000Y-39125000D03*
%TO.P,U3,6,PF1*%
%TO.N,unconnected-(U3-PF1-Pad6)*%
X30050000Y-39125000D03*
%TO.P,U3,7,NRST*%
%TO.N,/nRESET*%
X29550000Y-39125000D03*
%TO.P,U3,8,PC0*%
%TO.N,unconnected-(U3-PC0-Pad8)*%
X29050000Y-39125000D03*
%TO.P,U3,9,PC1*%
%TO.N,/PD_SCK*%
X28550000Y-39125000D03*
%TO.P,U3,10,PC2*%
%TO.N,/DOUT*%
X28050000Y-39125000D03*
%TO.P,U3,11,PC3*%
%TO.N,unconnected-(U3-PC3-Pad11)*%
X27550000Y-39125000D03*
%TO.P,U3,12,VSSA*%
%TO.N,GND*%
X27050000Y-39125000D03*
%TO.P,U3,13,VDDA*%
%TO.N,+3V3*%
X26550000Y-39125000D03*
%TO.P,U3,14,PA0*%
%TO.N,unconnected-(U3-PA0-Pad14)*%
X26050000Y-39125000D03*
%TO.P,U3,15,PA1*%
%TO.N,unconnected-(U3-PA1-Pad15)*%
X25550000Y-39125000D03*
%TO.P,U3,16,PA2*%
%TO.N,unconnected-(U3-PA2-Pad16)*%
X25050000Y-39125000D03*
D26*
%TO.P,U3,17,PA3*%
%TO.N,unconnected-(U3-PA3-Pad17)*%
X23125000Y-41050000D03*
%TO.P,U3,18,VSS*%
%TO.N,GND*%
X23125000Y-41550000D03*
%TO.P,U3,19,VDD*%
%TO.N,+3V3*%
X23125000Y-42050000D03*
%TO.P,U3,20,PA4*%
%TO.N,unconnected-(U3-PA4-Pad20)*%
X23125000Y-42550000D03*
%TO.P,U3,21,PA5*%
%TO.N,unconnected-(U3-PA5-Pad21)*%
X23125000Y-43050000D03*
%TO.P,U3,22,PA6*%
%TO.N,unconnected-(U3-PA6-Pad22)*%
X23125000Y-43550000D03*
%TO.P,U3,23,PA7*%
%TO.N,unconnected-(U3-PA7-Pad23)*%
X23125000Y-44050000D03*
%TO.P,U3,24,PC4*%
%TO.N,unconnected-(U3-PC4-Pad24)*%
X23125000Y-44550000D03*
%TO.P,U3,25,PC5*%
%TO.N,unconnected-(U3-PC5-Pad25)*%
X23125000Y-45050000D03*
%TO.P,U3,26,PB0*%
%TO.N,unconnected-(U3-PB0-Pad26)*%
X23125000Y-45550000D03*
%TO.P,U3,27,PB1*%
%TO.N,unconnected-(U3-PB1-Pad27)*%
X23125000Y-46050000D03*
%TO.P,U3,28,PB2*%
%TO.N,unconnected-(U3-PB2-Pad28)*%
X23125000Y-46550000D03*
%TO.P,U3,29,PB10*%
%TO.N,unconnected-(U3-PB10-Pad29)*%
X23125000Y-47050000D03*
%TO.P,U3,30,PB11*%
%TO.N,unconnected-(U3-PB11-Pad30)*%
X23125000Y-47550000D03*
%TO.P,U3,31,VSS*%
%TO.N,GND*%
X23125000Y-48050000D03*
%TO.P,U3,32,VDD*%
%TO.N,+3V3*%
X23125000Y-48550000D03*
D25*
%TO.P,U3,33,PB12*%
%TO.N,unconnected-(U3-PB12-Pad33)*%
X25050000Y-50475000D03*
%TO.P,U3,34,PB13*%
%TO.N,unconnected-(U3-PB13-Pad34)*%
X25550000Y-50475000D03*
%TO.P,U3,35,PB14*%
%TO.N,unconnected-(U3-PB14-Pad35)*%
X26050000Y-50475000D03*
%TO.P,U3,36,PB15*%
%TO.N,unconnected-(U3-PB15-Pad36)*%
X26550000Y-50475000D03*
%TO.P,U3,37,PC6*%
%TO.N,Net-(D2-A)*%
X27050000Y-50475000D03*
%TO.P,U3,38,PC7*%
%TO.N,Net-(D1-A)*%
X27550000Y-50475000D03*
%TO.P,U3,39,PC8*%
%TO.N,unconnected-(U3-PC8-Pad39)*%
X28050000Y-50475000D03*
%TO.P,U3,40,PC9*%
%TO.N,unconnected-(U3-PC9-Pad40)*%
X28550000Y-50475000D03*
%TO.P,U3,41,PA8*%
%TO.N,unconnected-(U3-PA8-Pad41)*%
X29050000Y-50475000D03*
%TO.P,U3,42,PA9*%
%TO.N,unconnected-(U3-PA9-Pad42)*%
X29550000Y-50475000D03*
%TO.P,U3,43,PA10*%
%TO.N,unconnected-(U3-PA10-Pad43)*%
X30050000Y-50475000D03*
%TO.P,U3,44,PA11*%
%TO.N,/USB_DN*%
X30550000Y-50475000D03*
%TO.P,U3,45,PA12*%
%TO.N,/USB_DP*%
X31050000Y-50475000D03*
%TO.P,U3,46,PA13*%
%TO.N,/SWDIO*%
X31550000Y-50475000D03*
%TO.P,U3,47,VSS*%
%TO.N,GND*%
X32050000Y-50475000D03*
%TO.P,U3,48,VDDIO2*%
%TO.N,+3V3*%
X32550000Y-50475000D03*
D26*
%TO.P,U3,49,PA14*%
%TO.N,/SWCLK*%
X34475000Y-48550000D03*
%TO.P,U3,50,PA15*%
%TO.N,/PA15*%
X34475000Y-48050000D03*
%TO.P,U3,51,PC10*%
%TO.N,unconnected-(U3-PC10-Pad51)*%
X34475000Y-47550000D03*
%TO.P,U3,52,PC11*%
%TO.N,unconnected-(U3-PC11-Pad52)*%
X34475000Y-47050000D03*
%TO.P,U3,53,PC12*%
%TO.N,unconnected-(U3-PC12-Pad53)*%
X34475000Y-46550000D03*
%TO.P,U3,54,PD2*%
%TO.N,unconnected-(U3-PD2-Pad54)*%
X34475000Y-46050000D03*
%TO.P,U3,55,PB3*%
%TO.N,unconnected-(U3-PB3-Pad55)*%
X34475000Y-45550000D03*
%TO.P,U3,56,PB4*%
%TO.N,unconnected-(U3-PB4-Pad56)*%
X34475000Y-45050000D03*
%TO.P,U3,57,PB5*%
%TO.N,unconnected-(U3-PB5-Pad57)*%
X34475000Y-44550000D03*
%TO.P,U3,58,PB6*%
%TO.N,unconnected-(U3-PB6-Pad58)*%
X34475000Y-44050000D03*
%TO.P,U3,59,PB7*%
%TO.N,unconnected-(U3-PB7-Pad59)*%
X34475000Y-43550000D03*
%TO.P,U3,60,BOOT0*%
%TO.N,/BOOT0*%
X34475000Y-43050000D03*
%TO.P,U3,61,PB8*%
%TO.N,unconnected-(U3-PB8-Pad61)*%
X34475000Y-42550000D03*
%TO.P,U3,62,PB9*%
%TO.N,unconnected-(U3-PB9-Pad62)*%
X34475000Y-42050000D03*
%TO.P,U3,63,VSS*%
%TO.N,GND*%
X34475000Y-41550000D03*
%TO.P,U3,64,VDD*%
%TO.N,+3V3*%
X34475000Y-41050000D03*
%TD*%
D27*
%TO.P,R5,1*%
%TO.N,Net-(J2-CC1)*%
X24025000Y-63600000D03*
%TO.P,R5,2*%
%TO.N,GND*%
X22375000Y-63600000D03*
%TD*%
D28*
%TO.P,U6,1,AVDD*%
%TO.N,+3.3VADC*%
X32400000Y-36600000D03*
%TO.P,U6,2,AGND*%
%TO.N,GND*%
X32400000Y-35330000D03*
%TO.P,U6,3,VRO/VREF*%
%TO.N,+3.3VADC*%
X32400000Y-34060000D03*
%TO.P,U6,4,VFB*%
X32400000Y-32790000D03*
%TO.P,U6,5,AGND*%
%TO.N,GND*%
X32400000Y-31520000D03*
%TO.P,U6,6,S0*%
%TO.N,Net-(U6-S0)*%
X32400000Y-30250000D03*
%TO.P,U6,7,INA-*%
%TO.N,Net-(U6-INA-)*%
X32400000Y-28980000D03*
%TO.P,U6,8,INA+*%
%TO.N,Net-(U6-INA+)*%
X32400000Y-27710000D03*
%TO.P,U6,9,INB-*%
%TO.N,unconnected-(U6-INB--Pad9)*%
X27400000Y-27710000D03*
%TO.P,U6,10,INB+*%
%TO.N,unconnected-(U6-INB+-Pad10)*%
X27400000Y-28980000D03*
%TO.P,U6,11,PD_SCK*%
%TO.N,/PD_SCK*%
X27400000Y-30250000D03*
%TO.P,U6,12,DOUT*%
%TO.N,/DOUT*%
X27400000Y-31520000D03*
%TO.P,U6,13,S1*%
%TO.N,Net-(U6-S1)*%
X27400000Y-32790000D03*
%TO.P,U6,14,XI*%
%TO.N,Net-(U6-XI)*%
X27400000Y-34060000D03*
%TO.P,U6,15,DGND*%
%TO.N,GND*%
X27400000Y-35330000D03*
%TO.P,U6,16,DVDD*%
%TO.N,+3V3*%
X27400000Y-36600000D03*
%TD*%
D15*
%TO.P,C17,1*%
%TO.N,GND*%
X21100000Y-46700000D03*
%TO.P,C17,2*%
%TO.N,+3V3*%
X21100000Y-48250000D03*
%TD*%
D29*
%TO.P,R1,1*%
%TO.N,GND*%
X36400000Y-65087500D03*
%TO.P,R1,2*%
%TO.N,Net-(J2-SHIELD)*%
X36400000Y-66912500D03*
%TD*%
D30*
%TO.P,C7,1*%
%TO.N,Net-(U6-INA-)*%
X34600000Y-29350000D03*
%TO.P,C7,2*%
%TO.N,Net-(U6-INA+)*%
X34600000Y-27800000D03*
%TD*%
D23*
%TO.P,U1,1,I/O1*%
%TO.N,Net-(J2-D--PadA7)*%
X28900000Y-59875000D03*
%TO.P,U1,2,GND*%
%TO.N,GND*%
X29850000Y-59875000D03*
%TO.P,U1,3,I/O2*%
%TO.N,Net-(J2-D+-PadA6)*%
X30800000Y-59875000D03*
%TO.P,U1,4,I/O2*%
%TO.N,/USB_DP*%
X30800000Y-57600000D03*
%TO.P,U1,5,VBUS*%
%TO.N,VBUS*%
X29850000Y-57600000D03*
%TO.P,U1,6,I/O1*%
%TO.N,/USB_DN*%
X28900000Y-57600000D03*
%TD*%
D15*
%TO.P,C13,1*%
%TO.N,GND*%
X21200000Y-40550000D03*
%TO.P,C13,2*%
%TO.N,+3V3*%
X21200000Y-42100000D03*
%TD*%
D10*
%TO.P,R10,1*%
%TO.N,Net-(JP1-C)*%
X21750000Y-27000000D03*
%TO.P,R10,2*%
%TO.N,Net-(U6-S0)*%
X23400000Y-27000000D03*
%TD*%
D30*
%TO.P,C9,1*%
%TO.N,+3V3*%
X25300000Y-34250000D03*
%TO.P,C9,2*%
%TO.N,GND*%
X25300000Y-32700000D03*
%TD*%
D31*
%TO.P,J1,1,Pin_1*%
%TO.N,+3V3*%
X38500000Y-47740000D03*
%TO.P,J1,2,Pin_2*%
%TO.N,/SWDIO*%
X37230000Y-47740000D03*
%TO.P,J1,3,Pin_3*%
%TO.N,/nRESET*%
X38500000Y-46470000D03*
%TO.P,J1,4,Pin_4*%
%TO.N,/SWCLK*%
X37230000Y-46470000D03*
%TO.P,J1,5,Pin_5*%
%TO.N,GND*%
X38500000Y-45200000D03*
%TO.P,J1,6,Pin_6*%
%TO.N,/PA15*%
X37230000Y-45200000D03*
%TD*%
D10*
%TO.P,R8,1*%
%TO.N,Net-(U6-INA-)*%
X36175000Y-29600000D03*
%TO.P,R8,2*%
%TO.N,/Signal-*%
X37825000Y-29600000D03*
%TD*%
D16*
%TO.P,D1,1,K*%
%TO.N,Net-(D1-K)*%
X28400000Y-54237500D03*
%TO.P,D1,2,A*%
%TO.N,Net-(D1-A)*%
X28400000Y-52362500D03*
%TD*%
D30*
%TO.P,C5,1*%
%TO.N,GND*%
X38400000Y-59600000D03*
%TO.P,C5,2*%
%TO.N,+3V3*%
X38400000Y-58050000D03*
%TD*%
D15*
%TO.P,C14,1*%
%TO.N,GND*%
X25300000Y-35800000D03*
%TO.P,C14,2*%
%TO.N,+3V3*%
X25300000Y-37350000D03*
%TD*%
D24*
%TO.P,R14,1*%
%TO.N,Net-(D2-K)*%
X25500000Y-57850000D03*
%TO.P,R14,2*%
%TO.N,GND*%
X25500000Y-59500000D03*
%TD*%
D10*
%TO.P,R7,1*%
%TO.N,Net-(U6-INA+)*%
X36175000Y-27800000D03*
%TO.P,R7,2*%
%TO.N,/Signal+*%
X37825000Y-27800000D03*
%TD*%
D32*
%TO.P,J2,A1,GND*%
%TO.N,GND*%
X26800000Y-62580000D03*
%TO.P,J2,A4,VBUS*%
%TO.N,VBUS*%
X27600000Y-62580000D03*
D33*
%TO.P,J2,A5,CC1*%
%TO.N,Net-(J2-CC1)*%
X28750000Y-62580000D03*
%TO.P,J2,A6,D+*%
%TO.N,Net-(J2-D+-PadA6)*%
X29750000Y-62580000D03*
%TO.P,J2,A7,D-*%
%TO.N,Net-(J2-D--PadA7)*%
X30250000Y-62580000D03*
%TO.P,J2,A8,SBU1*%
%TO.N,unconnected-(J2-SBU1-PadA8)*%
X31250000Y-62580000D03*
D32*
%TO.P,J2,A9,VBUS*%
%TO.N,VBUS*%
X32400000Y-62580000D03*
%TO.P,J2,A12,GND*%
%TO.N,GND*%
X33200000Y-62580000D03*
%TO.P,J2,B1,GND*%
X33200000Y-62580000D03*
%TO.P,J2,B4,VBUS*%
%TO.N,VBUS*%
X32400000Y-62580000D03*
D33*
%TO.P,J2,B5,CC2*%
%TO.N,Net-(J2-CC2)*%
X31750000Y-62580000D03*
%TO.P,J2,B6,D+*%
%TO.N,Net-(J2-D+-PadA6)*%
X30750000Y-62580000D03*
%TO.P,J2,B7,D-*%
%TO.N,Net-(J2-D--PadA7)*%
X29250000Y-62580000D03*
%TO.P,J2,B8,SBU2*%
%TO.N,unconnected-(J2-SBU2-PadB8)*%
X28250000Y-62580000D03*
D32*
%TO.P,J2,B9,VBUS*%
%TO.N,VBUS*%
X27600000Y-62580000D03*
%TO.P,J2,B12,GND*%
%TO.N,GND*%
X26800000Y-62580000D03*
D34*
%TO.P,J2,S1,SHIELD*%
%TO.N,Net-(J2-SHIELD)*%
X25680000Y-63180000D03*
D35*
X25680000Y-67380000D03*
D34*
X34320000Y-63180000D03*
D35*
X34320000Y-67380000D03*
%TD*%
D15*
%TO.P,C15,1*%
%TO.N,GND*%
X34900000Y-38250000D03*
%TO.P,C15,2*%
%TO.N,+3V3*%
X34900000Y-39800000D03*
%TD*%
D36*
%TO.P,C3,1*%
%TO.N,GND*%
X34250000Y-57900000D03*
%TO.P,C3,2*%
%TO.N,VBUS*%
X32700000Y-57900000D03*
%TD*%
D30*
%TO.P,C12,1*%
%TO.N,GND*%
X34700000Y-36650000D03*
%TO.P,C12,2*%
%TO.N,+3.3VADC*%
X34700000Y-35100000D03*
%TD*%
D36*
%TO.P,C16,1*%
%TO.N,GND*%
X36050000Y-50900000D03*
%TO.P,C16,2*%
%TO.N,+3V3*%
X34500000Y-50900000D03*
%TD*%
D37*
%TO.P,R6,1*%
%TO.N,Net-(J2-CC2)*%
X36400000Y-63200000D03*
%TO.P,R6,2*%
%TO.N,GND*%
X36400000Y-61550000D03*
%TD*%
D20*
%TO.P,C6,1*%
%TO.N,VBUS*%
X36700000Y-41200000D03*
%TO.P,C6,2*%
%TO.N,GND*%
X38600000Y-41200000D03*
%TD*%
D36*
%TO.P,C1,1*%
%TO.N,/nRESET*%
X23000000Y-55600000D03*
%TO.P,C1,2*%
%TO.N,GND*%
X21450000Y-55600000D03*
%TD*%
D20*
%TO.P,C10,1*%
%TO.N,+3.3VADC*%
X36500000Y-32600000D03*
%TO.P,C10,2*%
%TO.N,GND*%
X38400000Y-32600000D03*
%TD*%
D38*
%TO.N,GND*%
X34700000Y-34000000D03*
X24200000Y-35556000D03*
X20800000Y-37700000D03*
X24600000Y-41600000D03*
X27800000Y-48400000D03*
X30800000Y-31300000D03*
X30800000Y-35300000D03*
X22200000Y-40100000D03*
X38400000Y-31100000D03*
X35200000Y-30400000D03*
X38100000Y-66800000D03*
X20800000Y-31100000D03*
X32600000Y-53900000D03*
X29900000Y-61059000D03*
X36000000Y-51800000D03*
X26600000Y-40800000D03*
X21400000Y-63600000D03*
X37600000Y-36800000D03*
X25174110Y-31600002D03*
X29000000Y-47600000D03*
X35800000Y-52600000D03*
X21100000Y-45300000D03*
X27200000Y-60900000D03*
X33700000Y-37700000D03*
X39200000Y-45700000D03*
X28800000Y-35300000D03*
X32600000Y-52600000D03*
X35800000Y-54300000D03*
X25200000Y-27000000D03*
X32000000Y-44000000D03*
X34500000Y-61200000D03*
X24800000Y-48000000D03*
X37900000Y-62600000D03*
%TO.N,VBUS*%
X32600000Y-61300000D03*
X36700000Y-42200000D03*
X37000000Y-56800000D03*
X32600000Y-58700000D03*
%TO.N,+3V3*%
X22800000Y-36300000D03*
X39200000Y-48600000D03*
X24601000Y-37735526D03*
X33700000Y-38900000D03*
X34700000Y-49800000D03*
X28600000Y-36300000D03*
X21200000Y-43300000D03*
X24236486Y-32800000D03*
X39200000Y-57300000D03*
X21100000Y-49800000D03*
%TO.N,/nRESET*%
X33219558Y-46776638D03*
X39200000Y-46800000D03*
%TO.N,/BOOT0*%
X23900000Y-39500000D03*
X32900000Y-43000000D03*
%TO.N,Net-(J2-SHIELD)*%
X36000000Y-68000000D03*
%TO.N,Net-(JP1-C)*%
X22600000Y-30200000D03*
%TO.N,Net-(JP2-C)*%
X24400000Y-28600000D03*
%TO.N,Net-(U6-XI)*%
X22700000Y-31674998D03*
X28800000Y-34100000D03*
%TD*%
D39*
%TO.N,GND*%
X34550000Y-61150000D02*
X34500000Y-61200000D01*
X24800000Y-48000000D02*
X23175000Y-48000000D01*
X36200000Y-42800000D02*
X35551000Y-42151000D01*
X38400000Y-62100000D02*
X38400000Y-59600000D01*
X25300000Y-35800000D02*
X26099000Y-36599000D01*
X34550000Y-59700000D02*
X34550000Y-58200000D01*
X38600000Y-42000000D02*
X37800000Y-42800000D01*
X34999000Y-41599000D02*
X34950000Y-41550000D01*
X37300000Y-52600000D02*
X35800000Y-52600000D01*
X32600000Y-52600000D02*
X35800000Y-52600000D01*
X25300000Y-32700000D02*
X26099000Y-33499000D01*
X27150000Y-59500000D02*
X27200000Y-59450000D01*
X24444000Y-35800000D02*
X24200000Y-35556000D01*
X27050000Y-37550000D02*
X27050000Y-39125000D01*
X32000000Y-42000000D02*
X32000000Y-44000000D01*
X23125000Y-41550000D02*
X24550000Y-41550000D01*
X22375000Y-64975000D02*
X22600000Y-65200000D01*
X21200000Y-40550000D02*
X22200000Y-41550000D01*
X34550000Y-59700000D02*
X34550000Y-61150000D01*
X36650000Y-59600000D02*
X36450000Y-59800000D01*
X36050000Y-51750000D02*
X36000000Y-51800000D01*
X21450000Y-58077000D02*
X22873000Y-59500000D01*
X32400000Y-31520000D02*
X31020000Y-31520000D01*
X21750000Y-40550000D02*
X22200000Y-40100000D01*
X22375000Y-63600000D02*
X22375000Y-64975000D01*
X25500000Y-59500000D02*
X27150000Y-59500000D01*
X34700000Y-36700000D02*
X33700000Y-37700000D01*
X35676000Y-39026000D02*
X34900000Y-38250000D01*
X33754890Y-31520000D02*
X33937445Y-31337445D01*
X26701000Y-37201000D02*
X27050000Y-37550000D01*
X34100000Y-55762500D02*
X34100000Y-55576000D01*
X37600000Y-35600000D02*
X38400000Y-34800000D01*
X27050000Y-40350000D02*
X27050000Y-39125000D01*
X35551000Y-42151000D02*
X35551000Y-41817176D01*
X32400000Y-35330000D02*
X30830000Y-35330000D01*
X33937445Y-31337445D02*
X34425890Y-30849000D01*
X26359032Y-37201000D02*
X26701000Y-37201000D01*
X26099000Y-36599000D02*
X26099000Y-36940968D01*
X35562500Y-54300000D02*
X34100000Y-55762500D01*
X21100000Y-46700000D02*
X21100000Y-45300000D01*
X34500000Y-61280000D02*
X34500000Y-61200000D01*
X38400000Y-59600000D02*
X36650000Y-59600000D01*
X26800000Y-61300000D02*
X27200000Y-60900000D01*
X35229600Y-65087500D02*
X36400000Y-65087500D01*
X36400000Y-65087500D02*
X38075000Y-66762500D01*
X26600000Y-40800000D02*
X27050000Y-40350000D01*
X36050000Y-53626000D02*
X36050000Y-50900000D01*
X34950000Y-41550000D02*
X34475000Y-41550000D01*
X38600000Y-41200000D02*
X38600000Y-42000000D01*
X34550000Y-58200000D02*
X34250000Y-57900000D01*
X34100000Y-55762500D02*
X34100000Y-55400000D01*
X26099000Y-33499000D02*
X26099000Y-34400968D01*
X34100000Y-55576000D02*
X36050000Y-53626000D01*
X34700000Y-36650000D02*
X34700000Y-36700000D01*
X27028032Y-35330000D02*
X27400000Y-35330000D01*
X20950000Y-38800000D02*
X20950000Y-37850000D01*
X26800000Y-62580000D02*
X26800000Y-61300000D01*
X34874890Y-30400000D02*
X33937445Y-31337445D01*
X32450000Y-41550000D02*
X32000000Y-42000000D01*
X27430000Y-35300000D02*
X27400000Y-35330000D01*
X34900000Y-33150000D02*
X34900000Y-33800000D01*
X36050000Y-50900000D02*
X37600000Y-50900000D01*
X38400000Y-32600000D02*
X38400000Y-31100000D01*
X21450000Y-55600000D02*
X21450000Y-58077000D01*
X35676000Y-41157824D02*
X35676000Y-39026000D01*
X21100000Y-46833824D02*
X22316176Y-48050000D01*
X21400000Y-63600000D02*
X22375000Y-63600000D01*
X34425890Y-30849000D02*
X36649000Y-30849000D01*
X33200000Y-62580000D02*
X34500000Y-61280000D01*
X34100000Y-53900000D02*
X34100000Y-55762500D01*
X38500000Y-45200000D02*
X38700000Y-45200000D01*
X35551000Y-41817176D02*
X35332824Y-41599000D01*
X34475000Y-41550000D02*
X35283824Y-41550000D01*
X34475000Y-41550000D02*
X32450000Y-41550000D01*
X34900000Y-33800000D02*
X34700000Y-34000000D01*
X21750000Y-31000000D02*
X20900000Y-31000000D01*
X38400000Y-32600000D02*
X38400000Y-34800000D01*
X28800000Y-35300000D02*
X27430000Y-35300000D01*
X37600000Y-39137500D02*
X37600000Y-40200000D01*
X34900000Y-36850000D02*
X34700000Y-36650000D01*
X32400000Y-31520000D02*
X33754890Y-31520000D01*
X32050000Y-51850000D02*
X34100000Y-53900000D01*
X22316176Y-48050000D02*
X23125000Y-48050000D01*
X29900000Y-61059000D02*
X29850000Y-61009000D01*
X21250000Y-53737500D02*
X21250000Y-55400000D01*
X24550000Y-41550000D02*
X24600000Y-41600000D01*
X23175000Y-48000000D02*
X23125000Y-48050000D01*
X38700000Y-45200000D02*
X39200000Y-45700000D01*
X30830000Y-35330000D02*
X30800000Y-35300000D01*
X37600000Y-50900000D02*
X38300000Y-51600000D01*
X35200000Y-30400000D02*
X34874890Y-30400000D01*
X29000000Y-47600000D02*
X28600000Y-47600000D01*
X34100000Y-55400000D02*
X32600000Y-53900000D01*
X36050000Y-50900000D02*
X36050000Y-51750000D01*
X36649000Y-30849000D02*
X38400000Y-32600000D01*
X21100000Y-46700000D02*
X21100000Y-46833824D01*
X38300000Y-51600000D02*
X37300000Y-52600000D01*
X35332824Y-41599000D02*
X34999000Y-41599000D01*
X36450000Y-59800000D02*
X36450000Y-61500000D01*
X25300000Y-31725892D02*
X25300000Y-32700000D01*
X38075000Y-66762500D02*
X38075000Y-66775000D01*
X27200000Y-59450000D02*
X27200000Y-60900000D01*
X34717100Y-65600000D02*
X35229600Y-65087500D01*
X31020000Y-31520000D02*
X30800000Y-31300000D01*
X25174110Y-31600002D02*
X25300000Y-31725892D01*
X37600000Y-40200000D02*
X38600000Y-41200000D01*
X37800000Y-42800000D02*
X36200000Y-42800000D01*
X21200000Y-40550000D02*
X21750000Y-40550000D01*
X38075000Y-66775000D02*
X38100000Y-66800000D01*
X35283824Y-41550000D02*
X35676000Y-41157824D01*
X29850000Y-61009000D02*
X29850000Y-59875000D01*
X32400000Y-35330000D02*
X33244890Y-35330000D01*
X25200000Y-27000000D02*
X25200000Y-27151968D01*
X36450000Y-61500000D02*
X36400000Y-61550000D01*
X34900000Y-38250000D02*
X34900000Y-36850000D01*
X24000000Y-65600000D02*
X34717100Y-65600000D01*
X26099000Y-34400968D02*
X27028032Y-35330000D01*
X32050000Y-50475000D02*
X32050000Y-51850000D01*
X35800000Y-54300000D02*
X35562500Y-54300000D01*
X21250000Y-55400000D02*
X21450000Y-55600000D01*
X22600000Y-65200000D02*
X23600000Y-65200000D01*
X28600000Y-47600000D02*
X27800000Y-48400000D01*
X37600000Y-36800000D02*
X37600000Y-35600000D01*
X25300000Y-35800000D02*
X24444000Y-35800000D01*
X37900000Y-62600000D02*
X38400000Y-62100000D01*
X22200000Y-41550000D02*
X23125000Y-41550000D01*
X20900000Y-31000000D02*
X20800000Y-31100000D01*
X23600000Y-65200000D02*
X24000000Y-65600000D01*
X22873000Y-59500000D02*
X25500000Y-59500000D01*
X26099000Y-36940968D02*
X26359032Y-37201000D01*
X20950000Y-37850000D02*
X20800000Y-37700000D01*
%TO.N,VBUS*%
X38460000Y-54740000D02*
X37500000Y-55700000D01*
X32600000Y-59650000D02*
X32650000Y-59700000D01*
X36650000Y-39137500D02*
X36650000Y-38783032D01*
X36650000Y-39137500D02*
X36650000Y-41150000D01*
X28299000Y-60650943D02*
X28299000Y-59171532D01*
X37000000Y-56600000D02*
X37000000Y-56800000D01*
X29548999Y-58563500D02*
X29850000Y-58262499D01*
X32700000Y-57600000D02*
X32600000Y-57500000D01*
X32700000Y-57900000D02*
X32700000Y-57600000D01*
X38600000Y-54740000D02*
X38460000Y-54740000D01*
X29850000Y-57600000D02*
X29850000Y-57954468D01*
X38550000Y-38783032D02*
X38550000Y-39137500D01*
X28907032Y-58563500D02*
X29548999Y-58563500D01*
X32700000Y-58600000D02*
X32600000Y-58700000D01*
X36650000Y-41150000D02*
X36700000Y-41200000D01*
X27600000Y-61349943D02*
X28299000Y-60650943D01*
X32600000Y-58700000D02*
X32600000Y-59650000D01*
X36700000Y-41200000D02*
X36700000Y-42200000D01*
X27600000Y-62580000D02*
X27600000Y-61349943D01*
X36650000Y-38783032D02*
X37259032Y-38174000D01*
X37259032Y-38174000D02*
X37940968Y-38174000D01*
X29850000Y-58262499D02*
X29850000Y-57600000D01*
X32400000Y-62580000D02*
X32400000Y-61500000D01*
X37500000Y-55700000D02*
X37500000Y-56100000D01*
X37500000Y-56100000D02*
X37000000Y-56600000D01*
X30807032Y-58911500D02*
X31861500Y-58911500D01*
X29850000Y-57954468D02*
X30807032Y-58911500D01*
X32400000Y-61500000D02*
X32600000Y-61300000D01*
X32600000Y-57500000D02*
X32600000Y-55850000D01*
X32700000Y-57900000D02*
X32700000Y-58600000D01*
X28299000Y-59171532D02*
X28907032Y-58563500D01*
X38360000Y-54500000D02*
X38600000Y-54740000D01*
X37940968Y-38174000D02*
X38550000Y-38783032D01*
X31861500Y-58911500D02*
X32650000Y-59700000D01*
%TO.N,+3.3VADC*%
X35500000Y-31600000D02*
X34900000Y-31600000D01*
X36500000Y-34800000D02*
X36500000Y-36712500D01*
X32771968Y-34060000D02*
X33655984Y-34944016D01*
X36500000Y-32600000D02*
X36500000Y-34800000D01*
X36200000Y-35100000D02*
X36500000Y-34800000D01*
X32400000Y-34060000D02*
X32771968Y-34060000D01*
X29300000Y-24000000D02*
X29300000Y-30689999D01*
X33710000Y-32790000D02*
X34900000Y-31600000D01*
X31400001Y-32790000D02*
X32400000Y-32790000D01*
X36500000Y-32600000D02*
X35500000Y-31600000D01*
X34700000Y-35100000D02*
X33811968Y-35100000D01*
X32400000Y-34060000D02*
X32400000Y-32790000D01*
X33200000Y-36600000D02*
X32400000Y-36600000D01*
X33655984Y-34944016D02*
X33900000Y-35188032D01*
X29300000Y-30689999D02*
X31400001Y-32790000D01*
X34700000Y-35100000D02*
X36200000Y-35100000D01*
X33900000Y-35900000D02*
X33200000Y-36600000D01*
X32400000Y-32790000D02*
X33710000Y-32790000D01*
X33900000Y-35188032D02*
X33900000Y-35900000D01*
X33811968Y-35100000D02*
X33655984Y-34944016D01*
X36500000Y-36712500D02*
X36650000Y-36862500D01*
%TO.N,/USB_DP*%
X31050000Y-51637501D02*
X31025000Y-51662501D01*
X31025000Y-56111397D02*
X30800000Y-56336397D01*
X31050000Y-50475000D02*
X31050000Y-51637501D01*
X30800000Y-56336397D02*
X30800000Y-57600000D01*
X31025000Y-51662501D02*
X31025000Y-56111397D01*
%TO.N,+3V3*%
X23075000Y-42100000D02*
X23125000Y-42050000D01*
X36450000Y-57900000D02*
X38250000Y-57900000D01*
X24236486Y-32800000D02*
X24236486Y-33186486D01*
X38071849Y-50000000D02*
X39200000Y-48871849D01*
X22700000Y-36400000D02*
X22800000Y-36300000D01*
X21745532Y-51862500D02*
X20600000Y-53008032D01*
X22200000Y-50900000D02*
X21100000Y-49800000D01*
X26550000Y-39125000D02*
X26550000Y-38250000D01*
X34600000Y-39800000D02*
X33700000Y-38900000D01*
X39200000Y-48440000D02*
X38500000Y-47740000D01*
X32975000Y-50900000D02*
X34500000Y-50900000D01*
X26100000Y-35050000D02*
X25300000Y-34250000D01*
X21200000Y-42100000D02*
X21200000Y-43300000D01*
X34900000Y-39800000D02*
X34600000Y-39800000D01*
X22200000Y-51862500D02*
X21745532Y-51862500D01*
X34500000Y-50900000D02*
X35400000Y-50000000D01*
X34900000Y-39800000D02*
X33225000Y-39800000D01*
X21100000Y-48250000D02*
X21100000Y-49800000D01*
X27400000Y-36600000D02*
X27028032Y-36600000D01*
X25300000Y-37350000D02*
X24986526Y-37350000D01*
X36300000Y-57900000D02*
X36200000Y-58000000D01*
X39200000Y-48600000D02*
X39200000Y-48440000D01*
X26550000Y-38250000D02*
X25650000Y-37350000D01*
X38250000Y-57900000D02*
X38400000Y-58050000D01*
X32550000Y-50475000D02*
X32975000Y-50900000D01*
X22700000Y-37140000D02*
X22700000Y-36400000D01*
X38450000Y-58050000D02*
X39200000Y-57300000D01*
X27028032Y-36600000D02*
X26100000Y-35671968D01*
X34900000Y-39800000D02*
X34900000Y-40625000D01*
X27400000Y-36600000D02*
X28300000Y-36600000D01*
X33225000Y-39800000D02*
X32550000Y-39125000D01*
X21100000Y-48250000D02*
X21400000Y-48550000D01*
X35600000Y-55850000D02*
X35600000Y-57050000D01*
X24986526Y-37350000D02*
X24601000Y-37735526D01*
X35600000Y-57050000D02*
X36450000Y-57900000D01*
X22200000Y-51862500D02*
X22200000Y-50900000D01*
X36300000Y-57900000D02*
X36450000Y-57900000D01*
X24236486Y-33186486D02*
X25300000Y-34250000D01*
X34900000Y-40625000D02*
X34475000Y-41050000D01*
X25650000Y-37350000D02*
X25300000Y-37350000D01*
X21200000Y-42100000D02*
X23075000Y-42100000D01*
X20600000Y-59540000D02*
X22900000Y-61840000D01*
X28300000Y-36600000D02*
X28600000Y-36300000D01*
X38400000Y-58050000D02*
X38450000Y-58050000D01*
X35400000Y-50000000D02*
X38071849Y-50000000D01*
X21400000Y-48550000D02*
X23125000Y-48550000D01*
X20600000Y-53008032D02*
X20600000Y-59540000D01*
X34500000Y-50900000D02*
X34500000Y-50000000D01*
X34500000Y-50000000D02*
X34700000Y-49800000D01*
X39200000Y-48871849D02*
X39200000Y-48600000D01*
X26100000Y-35671968D02*
X26100000Y-35050000D01*
%TO.N,/nRESET*%
X23000000Y-55600000D02*
X23000000Y-54050000D01*
X22900000Y-55700000D02*
X23000000Y-55600000D01*
X23000000Y-54050000D02*
X23050000Y-54000000D01*
X22900000Y-57400000D02*
X22900000Y-55700000D01*
X29550000Y-43107080D02*
X29550000Y-39125000D01*
X38870000Y-46470000D02*
X39200000Y-46800000D01*
X38500000Y-46470000D02*
X38870000Y-46470000D01*
X33219558Y-46776638D02*
X27439538Y-46776638D01*
X23050000Y-53837500D02*
X23150000Y-53737500D01*
X27439538Y-46776638D02*
X23150000Y-51066176D01*
X23050000Y-54000000D02*
X23050000Y-53837500D01*
X23150000Y-51066176D02*
X23150000Y-53737500D01*
X33219558Y-46776638D02*
X29550000Y-43107080D01*
%TO.N,/SWDIO*%
X35969000Y-49001000D02*
X32215176Y-49001000D01*
X32215176Y-49001000D02*
X31550000Y-49666176D01*
X37230000Y-47740000D02*
X35969000Y-49001000D01*
X31550000Y-49666176D02*
X31550000Y-50475000D01*
%TO.N,/SWCLK*%
X35650000Y-48550000D02*
X36200000Y-48000000D01*
X36630000Y-46470000D02*
X37230000Y-46470000D01*
X36300000Y-46800000D02*
X36630000Y-46470000D01*
X36200000Y-48000000D02*
X36200000Y-46800000D01*
X34475000Y-48550000D02*
X35650000Y-48550000D01*
X36200000Y-46800000D02*
X36300000Y-46800000D01*
%TO.N,/PA15*%
X35799000Y-47701000D02*
X35799000Y-46631000D01*
X34475000Y-48050000D02*
X35450000Y-48050000D01*
X35450000Y-48050000D02*
X35799000Y-47701000D01*
X35799000Y-46631000D02*
X37230000Y-45200000D01*
%TO.N,/BOOT0*%
X23400000Y-36050057D02*
X23400000Y-33400000D01*
X34475000Y-43050000D02*
X32950000Y-43050000D01*
X23400000Y-37966000D02*
X24001000Y-37966000D01*
X23400000Y-38567000D02*
X23400000Y-37966000D01*
X23900000Y-39500000D02*
X23200000Y-38800000D01*
X22600000Y-38800000D02*
X23167000Y-38800000D01*
X23400000Y-33400000D02*
X22700000Y-32700000D01*
X32950000Y-43050000D02*
X32900000Y-43000000D01*
X24001000Y-37966000D02*
X24001000Y-36314000D01*
X23200000Y-38800000D02*
X23167000Y-38800000D01*
X23401000Y-36051057D02*
X23400000Y-36050057D01*
X23167000Y-38800000D02*
X23400000Y-38567000D01*
X23401000Y-36314000D02*
X23401000Y-36051057D01*
X24001000Y-36314000D02*
X23401000Y-36314000D01*
%TO.N,/PD_SCK*%
X28800000Y-31352901D02*
X28800000Y-31278032D01*
X28800000Y-31278032D02*
X27771968Y-30250000D01*
X29800000Y-32352901D02*
X28800000Y-31352901D01*
X28550000Y-38117100D02*
X29800000Y-36867100D01*
X27771968Y-30250000D02*
X27400000Y-30250000D01*
X29800000Y-36867100D02*
X29800000Y-32352901D01*
X28550000Y-39125000D02*
X28550000Y-38117100D01*
%TO.N,/DOUT*%
X27400000Y-31520000D02*
X28399999Y-31520000D01*
X29400000Y-32520001D02*
X29400000Y-36700000D01*
X29400000Y-36700000D02*
X28050000Y-38050000D01*
X28399999Y-31520000D02*
X29400000Y-32520001D01*
X28050000Y-38050000D02*
X28050000Y-39125000D01*
%TO.N,/Signal-*%
X37124000Y-28899000D02*
X37124000Y-26824000D01*
X37825000Y-29600000D02*
X37124000Y-28899000D01*
X37124000Y-26824000D02*
X34300000Y-24000000D01*
%TO.N,/Signal+*%
X37825000Y-25025000D02*
X36800000Y-24000000D01*
X37825000Y-27800000D02*
X37825000Y-25025000D01*
%TO.N,Net-(U6-INA-)*%
X34600000Y-29350000D02*
X35925000Y-29350000D01*
X34230000Y-28980000D02*
X34600000Y-29350000D01*
X35925000Y-29350000D02*
X36175000Y-29600000D01*
X32400000Y-28980000D02*
X34230000Y-28980000D01*
%TO.N,Net-(U6-INA+)*%
X32400000Y-27710000D02*
X34510000Y-27710000D01*
X34600000Y-27800000D02*
X36175000Y-27800000D01*
X34510000Y-27710000D02*
X34600000Y-27800000D01*
%TO.N,Net-(D1-A)*%
X28400000Y-52362500D02*
X27550000Y-51512500D01*
X27550000Y-51512500D02*
X27550000Y-50475000D01*
%TO.N,Net-(D2-A)*%
X25600000Y-52325000D02*
X26299999Y-52325000D01*
X27050000Y-51574999D02*
X27050000Y-50475000D01*
X26299999Y-52325000D02*
X27050000Y-51574999D01*
%TO.N,Net-(J2-SHIELD)*%
X36000000Y-68000000D02*
X36400000Y-67600000D01*
X36400000Y-67600000D02*
X36400000Y-66912500D01*
X34787500Y-66912500D02*
X36400000Y-66912500D01*
X34320000Y-67380000D02*
X34787500Y-66912500D01*
%TO.N,Net-(J2-D+-PadA6)*%
X30701000Y-63501000D02*
X30750000Y-63452000D01*
X30750000Y-59925000D02*
X30800000Y-59875000D01*
X29799000Y-63501000D02*
X30701000Y-63501000D01*
X30750000Y-63452000D02*
X30750000Y-62580000D01*
X30750000Y-62580000D02*
X30750000Y-59925000D01*
X29750000Y-62580000D02*
X29750000Y-63452000D01*
X29750000Y-63452000D02*
X29799000Y-63501000D01*
%TO.N,Net-(J2-CC2)*%
X36400000Y-63350000D02*
X35219000Y-64531000D01*
X32764992Y-64531000D02*
X31750000Y-63516008D01*
X31750000Y-63516008D02*
X31750000Y-62580000D01*
X35219000Y-64531000D02*
X32764992Y-64531000D01*
%TO.N,Net-(J2-D--PadA7)*%
X29250000Y-61700000D02*
X29250000Y-62580000D01*
X28900000Y-59875000D02*
X29250000Y-60225000D01*
X29291000Y-61659000D02*
X29250000Y-61700000D01*
X29250000Y-60225000D02*
X29250000Y-61700000D01*
X30250000Y-62580000D02*
X30250000Y-61708000D01*
X30201000Y-61659000D02*
X29291000Y-61659000D01*
X30250000Y-61708000D02*
X30201000Y-61659000D01*
%TO.N,Net-(J2-CC1)*%
X24025000Y-63600000D02*
X24025000Y-64375000D01*
X24181000Y-64531000D02*
X27671000Y-64531000D01*
X24025000Y-64375000D02*
X24181000Y-64531000D01*
X27671000Y-64531000D02*
X28750000Y-63452000D01*
X28750000Y-63452000D02*
X28750000Y-62580000D01*
%TO.N,Net-(JP1-C)*%
X21750000Y-27000000D02*
X21049000Y-27701000D01*
X21560936Y-30200000D02*
X22600000Y-30200000D01*
X21049000Y-29688064D02*
X21560936Y-30200000D01*
X21049000Y-27701000D02*
X21049000Y-29688064D01*
%TO.N,Net-(JP2-C)*%
X22949943Y-28400000D02*
X22149943Y-29200000D01*
X24200000Y-28400000D02*
X22949943Y-28400000D01*
X24400000Y-28600000D02*
X24200000Y-28400000D01*
X22149943Y-29200000D02*
X21750000Y-29200000D01*
%TO.N,Net-(U6-S0)*%
X32400000Y-30250000D02*
X31400001Y-30250000D01*
X29776760Y-22724000D02*
X27676000Y-22724000D01*
X27676000Y-22724000D02*
X23400000Y-27000000D01*
X31400001Y-30250000D02*
X30451000Y-29300999D01*
X30451000Y-29300999D02*
X30451000Y-23398240D01*
X30451000Y-23398240D02*
X29776760Y-22724000D01*
%TO.N,Net-(U6-S1)*%
X23400000Y-29200000D02*
X24000000Y-29200000D01*
X26491413Y-32790000D02*
X27400000Y-32790000D01*
X26076000Y-32374587D02*
X26491413Y-32790000D01*
X26076000Y-32250890D02*
X26076000Y-32374587D01*
X25774110Y-31949000D02*
X26076000Y-32250890D01*
X24000000Y-29200000D02*
X25774110Y-30974110D01*
X25774110Y-30974110D02*
X25774110Y-31949000D01*
%TO.N,Net-(U6-XI)*%
X27961000Y-34060000D02*
X27400000Y-34060000D01*
X22700000Y-31674998D02*
X22700000Y-31300000D01*
X22700000Y-31300000D02*
X23000000Y-31000000D01*
X28001000Y-34100000D02*
X27961000Y-34060000D01*
X23000000Y-31000000D02*
X23400000Y-31000000D01*
X28800000Y-34100000D02*
X28001000Y-34100000D01*
%TO.N,Net-(D1-K)*%
X27200000Y-55437500D02*
X27200000Y-57800000D01*
X28400000Y-54237500D02*
X27200000Y-55437500D01*
%TO.N,Net-(D2-K)*%
X25500000Y-54300000D02*
X25600000Y-54200000D01*
X25500000Y-57850000D02*
X25500000Y-54300000D01*
%TO.N,/USB_DN*%
X30323119Y-56176880D02*
X30575000Y-55925000D01*
X30575000Y-51662501D02*
X30550000Y-51637501D01*
X29249000Y-56896532D02*
X29509032Y-56636500D01*
X30575000Y-55925000D02*
X30575000Y-54798826D01*
X29509032Y-56636500D02*
X29863500Y-56636500D01*
X30550000Y-51637501D02*
X30550000Y-50475000D01*
X29863500Y-56636500D02*
X30323119Y-56176880D01*
X29249000Y-57251000D02*
X29249000Y-56896532D01*
X30575000Y-54798826D02*
X30575000Y-51662501D01*
X28900000Y-57600000D02*
X29249000Y-57251000D01*
%TD*%
%TA.AperFunction,Conductor*%
%TO.N,GND*%
G36*
X38343039Y-59369685D02*
G01*
X38388794Y-59422489D01*
X38400000Y-59474000D01*
X38400000Y-59600000D01*
X38526000Y-59600000D01*
X38593039Y-59619685D01*
X38638794Y-59672489D01*
X38650000Y-59724000D01*
X38650000Y-60549999D01*
X38698308Y-60549999D01*
X38698322Y-60549998D01*
X38797607Y-60539855D01*
X38958481Y-60486547D01*
X38958492Y-60486542D01*
X39102728Y-60397575D01*
X39102732Y-60397572D01*
X39222571Y-60277733D01*
X39269961Y-60200903D01*
X39321909Y-60154179D01*
X39390872Y-60142956D01*
X39454954Y-60170800D01*
X39493810Y-60228869D01*
X39499500Y-60266000D01*
X39499500Y-69375500D01*
X39479815Y-69442539D01*
X39427011Y-69488294D01*
X39375500Y-69499500D01*
X20624500Y-69499500D01*
X20557461Y-69479815D01*
X20511706Y-69427011D01*
X20500500Y-69375500D01*
X20500500Y-66893713D01*
X21049500Y-66893713D01*
X21049500Y-67106287D01*
X21082754Y-67316243D01*
X21140620Y-67494336D01*
X21148444Y-67518414D01*
X21244951Y-67707820D01*
X21369890Y-67879786D01*
X21520213Y-68030109D01*
X21692179Y-68155048D01*
X21692181Y-68155049D01*
X21692184Y-68155051D01*
X21881588Y-68251557D01*
X22083757Y-68317246D01*
X22293713Y-68350500D01*
X22293714Y-68350500D01*
X22506286Y-68350500D01*
X22506287Y-68350500D01*
X22716243Y-68317246D01*
X22918412Y-68251557D01*
X23107816Y-68155051D01*
X23129789Y-68139086D01*
X23279786Y-68030109D01*
X23279788Y-68030106D01*
X23279792Y-68030104D01*
X23430104Y-67879792D01*
X23430106Y-67879788D01*
X23430109Y-67879786D01*
X23431012Y-67878543D01*
X24679499Y-67878543D01*
X24717947Y-68071829D01*
X24717950Y-68071839D01*
X24793364Y-68253907D01*
X24793371Y-68253920D01*
X24902860Y-68417781D01*
X24902863Y-68417785D01*
X25042214Y-68557136D01*
X25042218Y-68557139D01*
X25206079Y-68666628D01*
X25206092Y-68666635D01*
X25388160Y-68742049D01*
X25388165Y-68742051D01*
X25388169Y-68742051D01*
X25388170Y-68742052D01*
X25581456Y-68780500D01*
X25581459Y-68780500D01*
X25778543Y-68780500D01*
X25908582Y-68754632D01*
X25971835Y-68742051D01*
X26153914Y-68666632D01*
X26317782Y-68557139D01*
X26457139Y-68417782D01*
X26566632Y-68253914D01*
X26642051Y-68071835D01*
X26673248Y-67914998D01*
X26680500Y-67878543D01*
X26680500Y-66881456D01*
X26642052Y-66688170D01*
X26642051Y-66688169D01*
X26642051Y-66688165D01*
X26640225Y-66683757D01*
X26566635Y-66506092D01*
X26566628Y-66506079D01*
X26457139Y-66342218D01*
X26457136Y-66342214D01*
X26317785Y-66202863D01*
X26317781Y-66202860D01*
X26153920Y-66093371D01*
X26153907Y-66093364D01*
X25971839Y-66017950D01*
X25971829Y-66017947D01*
X25778543Y-65979500D01*
X25778541Y-65979500D01*
X25581459Y-65979500D01*
X25581457Y-65979500D01*
X25388170Y-66017947D01*
X25388160Y-66017950D01*
X25206092Y-66093364D01*
X25206079Y-66093371D01*
X25042218Y-66202860D01*
X25042214Y-66202863D01*
X24902863Y-66342214D01*
X24902860Y-66342218D01*
X24793371Y-66506079D01*
X24793364Y-66506092D01*
X24717950Y-66688160D01*
X24717947Y-66688170D01*
X24679500Y-66881456D01*
X24679500Y-66881459D01*
X24679500Y-67878541D01*
X24679500Y-67878543D01*
X24679499Y-67878543D01*
X23431012Y-67878543D01*
X23555048Y-67707820D01*
X23555047Y-67707820D01*
X23555051Y-67707816D01*
X23651557Y-67518412D01*
X23717246Y-67316243D01*
X23750500Y-67106287D01*
X23750500Y-66893713D01*
X23717246Y-66683757D01*
X23651557Y-66481588D01*
X23555051Y-66292184D01*
X23555049Y-66292181D01*
X23555048Y-66292179D01*
X23430109Y-66120213D01*
X23279786Y-65969890D01*
X23107820Y-65844951D01*
X22918414Y-65748444D01*
X22918413Y-65748443D01*
X22918412Y-65748443D01*
X22716243Y-65682754D01*
X22716241Y-65682753D01*
X22716240Y-65682753D01*
X22554957Y-65657208D01*
X22506287Y-65649500D01*
X22293713Y-65649500D01*
X22245042Y-65657208D01*
X22083760Y-65682753D01*
X21881585Y-65748444D01*
X21692179Y-65844951D01*
X21520213Y-65969890D01*
X21369890Y-66120213D01*
X21244951Y-66292179D01*
X21148444Y-66481585D01*
X21082753Y-66683760D01*
X21082055Y-66688170D01*
X21049500Y-66893713D01*
X20500500Y-66893713D01*
X20500500Y-63931582D01*
X21475001Y-63931582D01*
X21481408Y-64002102D01*
X21481409Y-64002107D01*
X21531981Y-64164396D01*
X21619927Y-64309877D01*
X21740122Y-64430072D01*
X21885604Y-64518019D01*
X21885603Y-64518019D01*
X22047894Y-64568590D01*
X22047893Y-64568590D01*
X22118408Y-64574998D01*
X22118426Y-64574999D01*
X22124999Y-64574998D01*
X22125000Y-64574998D01*
X22125000Y-63850000D01*
X21475001Y-63850000D01*
X21475001Y-63931582D01*
X20500500Y-63931582D01*
X20500500Y-60589097D01*
X20520185Y-60522058D01*
X20572989Y-60476303D01*
X20642147Y-60466359D01*
X20705703Y-60495384D01*
X20712181Y-60501416D01*
X21365160Y-61154395D01*
X21398645Y-61215718D01*
X21400768Y-61255326D01*
X21399500Y-61267127D01*
X21399500Y-61267128D01*
X21399500Y-61267132D01*
X21399500Y-62412870D01*
X21399501Y-62412876D01*
X21405908Y-62472483D01*
X21456202Y-62607328D01*
X21456206Y-62607335D01*
X21542452Y-62722544D01*
X21542453Y-62722545D01*
X21575623Y-62747376D01*
X21617495Y-62803309D01*
X21622479Y-62873001D01*
X21607430Y-62910792D01*
X21531982Y-63035599D01*
X21531980Y-63035603D01*
X21481409Y-63197893D01*
X21475000Y-63268427D01*
X21475000Y-63350000D01*
X22251000Y-63350000D01*
X22318039Y-63369685D01*
X22363794Y-63422489D01*
X22375000Y-63474000D01*
X22375000Y-63600000D01*
X22501000Y-63600000D01*
X22568039Y-63619685D01*
X22613794Y-63672489D01*
X22625000Y-63724000D01*
X22625000Y-64574999D01*
X22631581Y-64574999D01*
X22702102Y-64568591D01*
X22702107Y-64568590D01*
X22864396Y-64518018D01*
X23009877Y-64430072D01*
X23009878Y-64430071D01*
X23111963Y-64327985D01*
X23119437Y-64323903D01*
X23124483Y-64317041D01*
X23149642Y-64307409D01*
X23173286Y-64294499D01*
X23181781Y-64295106D01*
X23189735Y-64292062D01*
X23216107Y-64297561D01*
X23242977Y-64299483D01*
X23251577Y-64304958D01*
X23258133Y-64306325D01*
X23284776Y-64326091D01*
X23286568Y-64327232D01*
X23286978Y-64327635D01*
X23389815Y-64430472D01*
X23394452Y-64433275D01*
X23403579Y-64442246D01*
X23417331Y-64466925D01*
X23433762Y-64489909D01*
X23436426Y-64498570D01*
X23441638Y-64518018D01*
X23465423Y-64606785D01*
X23494358Y-64656900D01*
X23494359Y-64656904D01*
X23494360Y-64656904D01*
X23544479Y-64743714D01*
X23544481Y-64743717D01*
X23663349Y-64862585D01*
X23663355Y-64862590D01*
X23696139Y-64895374D01*
X23696149Y-64895385D01*
X23700479Y-64899715D01*
X23700480Y-64899716D01*
X23812284Y-65011520D01*
X23899095Y-65061639D01*
X23899097Y-65061641D01*
X23949208Y-65090573D01*
X23949215Y-65090577D01*
X24101942Y-65131500D01*
X24101943Y-65131500D01*
X27584331Y-65131500D01*
X27584347Y-65131501D01*
X27591943Y-65131501D01*
X27750054Y-65131501D01*
X27750057Y-65131501D01*
X27902785Y-65090577D01*
X27952904Y-65061639D01*
X28039716Y-65011520D01*
X28151520Y-64899716D01*
X28151520Y-64899714D01*
X28161728Y-64889507D01*
X28161730Y-64889504D01*
X29118713Y-63932521D01*
X29118716Y-63932520D01*
X29162323Y-63888912D01*
X29214515Y-63860416D01*
X29223642Y-63855432D01*
X29223643Y-63855432D01*
X29223645Y-63855431D01*
X29265967Y-63858458D01*
X29293334Y-63860416D01*
X29293335Y-63860416D01*
X29293337Y-63860417D01*
X29293345Y-63860423D01*
X29337681Y-63888917D01*
X29430284Y-63981520D01*
X29430286Y-63981521D01*
X29430290Y-63981524D01*
X29504714Y-64024492D01*
X29567216Y-64060577D01*
X29679019Y-64090534D01*
X29719942Y-64101500D01*
X29719943Y-64101500D01*
X30614331Y-64101500D01*
X30614347Y-64101501D01*
X30621943Y-64101501D01*
X30780054Y-64101501D01*
X30780057Y-64101501D01*
X30932785Y-64060577D01*
X30982904Y-64031639D01*
X31069716Y-63981520D01*
X31136450Y-63914785D01*
X31143375Y-63909568D01*
X31168280Y-63900189D01*
X31191637Y-63887436D01*
X31200471Y-63888067D01*
X31208762Y-63884946D01*
X31234785Y-63890521D01*
X31261329Y-63892420D01*
X31270172Y-63898103D01*
X31277082Y-63899584D01*
X31285512Y-63907961D01*
X31305677Y-63920921D01*
X31388349Y-64003593D01*
X31388355Y-64003598D01*
X32280131Y-64895374D01*
X32280141Y-64895385D01*
X32284471Y-64899715D01*
X32284472Y-64899716D01*
X32396276Y-65011520D01*
X32396278Y-65011521D01*
X32396282Y-65011524D01*
X32533201Y-65090573D01*
X32533208Y-65090577D01*
X32645011Y-65120534D01*
X32685934Y-65131500D01*
X32685935Y-65131500D01*
X35076001Y-65131500D01*
X35143040Y-65151185D01*
X35188795Y-65203989D01*
X35200001Y-65255500D01*
X35200001Y-65399986D01*
X35210494Y-65502697D01*
X35265641Y-65669119D01*
X35265643Y-65669124D01*
X35357684Y-65818345D01*
X35451304Y-65911965D01*
X35452826Y-65914752D01*
X35455538Y-65916413D01*
X35469465Y-65945224D01*
X35484789Y-65973288D01*
X35484562Y-65976456D01*
X35485946Y-65979319D01*
X35482086Y-66011078D01*
X35479805Y-66042980D01*
X35477785Y-66046470D01*
X35477517Y-66048679D01*
X35470638Y-66058820D01*
X35459089Y-66078780D01*
X35455392Y-66083239D01*
X35357288Y-66181344D01*
X35308485Y-66260465D01*
X35302958Y-66267134D01*
X35280879Y-66282015D01*
X35261083Y-66299821D01*
X35251093Y-66302091D01*
X35245020Y-66306185D01*
X35231807Y-66306474D01*
X35207492Y-66312000D01*
X35118283Y-66312000D01*
X35051244Y-66292315D01*
X35030606Y-66275685D01*
X34957782Y-66202861D01*
X34957781Y-66202860D01*
X34957780Y-66202859D01*
X34793920Y-66093371D01*
X34793907Y-66093364D01*
X34611839Y-66017950D01*
X34611829Y-66017947D01*
X34418543Y-65979500D01*
X34418541Y-65979500D01*
X34221459Y-65979500D01*
X34221457Y-65979500D01*
X34028170Y-66017947D01*
X34028160Y-66017950D01*
X33846092Y-66093364D01*
X33846079Y-66093371D01*
X33682218Y-66202860D01*
X33682214Y-66202863D01*
X33542863Y-66342214D01*
X33542860Y-66342218D01*
X33433371Y-66506079D01*
X33433364Y-66506092D01*
X33357950Y-66688160D01*
X33357947Y-66688170D01*
X33319500Y-66881456D01*
X33319500Y-66881459D01*
X33319500Y-67878541D01*
X33319500Y-67878543D01*
X33319499Y-67878543D01*
X33357947Y-68071829D01*
X33357950Y-68071839D01*
X33433364Y-68253907D01*
X33433371Y-68253920D01*
X33542860Y-68417781D01*
X33542863Y-68417785D01*
X33682214Y-68557136D01*
X33682218Y-68557139D01*
X33846079Y-68666628D01*
X33846092Y-68666635D01*
X34028160Y-68742049D01*
X34028165Y-68742051D01*
X34028169Y-68742051D01*
X34028170Y-68742052D01*
X34221456Y-68780500D01*
X34221459Y-68780500D01*
X34418543Y-68780500D01*
X34548582Y-68754632D01*
X34611835Y-68742051D01*
X34793914Y-68666632D01*
X34957782Y-68557139D01*
X35097139Y-68417782D01*
X35103666Y-68408012D01*
X35157277Y-68363208D01*
X35226602Y-68354499D01*
X35289630Y-68384653D01*
X35309871Y-68408012D01*
X35378210Y-68510288D01*
X35378213Y-68510292D01*
X35489707Y-68621786D01*
X35489711Y-68621789D01*
X35620814Y-68709390D01*
X35620827Y-68709397D01*
X35766498Y-68769735D01*
X35766503Y-68769737D01*
X35921153Y-68800499D01*
X35921156Y-68800500D01*
X35921158Y-68800500D01*
X36078844Y-68800500D01*
X36078845Y-68800499D01*
X36233497Y-68769737D01*
X36379179Y-68709394D01*
X36510289Y-68621789D01*
X36621789Y-68510289D01*
X36709394Y-68379179D01*
X36769737Y-68233497D01*
X36800500Y-68078842D01*
X36800500Y-68078840D01*
X36800637Y-68078152D01*
X36808920Y-68062315D01*
X36812421Y-68044787D01*
X36832058Y-68018080D01*
X36833021Y-68016241D01*
X36833085Y-68016175D01*
X36833774Y-68015461D01*
X36880520Y-67968716D01*
X36882854Y-67964672D01*
X36891489Y-67955737D01*
X36915964Y-67941823D01*
X36938699Y-67925220D01*
X36949484Y-67922768D01*
X36952230Y-67921208D01*
X36955555Y-67921388D01*
X36968057Y-67918547D01*
X37002797Y-67914999D01*
X37169334Y-67859814D01*
X37318656Y-67767712D01*
X37442712Y-67643656D01*
X37534814Y-67494334D01*
X37589999Y-67327797D01*
X37600500Y-67225009D01*
X37600499Y-66599992D01*
X37589999Y-66497203D01*
X37534814Y-66330666D01*
X37442712Y-66181344D01*
X37348695Y-66087327D01*
X37315210Y-66026004D01*
X37320194Y-65956312D01*
X37348695Y-65911964D01*
X37442317Y-65818342D01*
X37534356Y-65669124D01*
X37534358Y-65669119D01*
X37589505Y-65502697D01*
X37589506Y-65502690D01*
X37599999Y-65399986D01*
X37600000Y-65399973D01*
X37600000Y-65337500D01*
X36524000Y-65337500D01*
X36456961Y-65317815D01*
X36411206Y-65265011D01*
X36400000Y-65213500D01*
X36400000Y-64961500D01*
X36419685Y-64894461D01*
X36472489Y-64848706D01*
X36524000Y-64837500D01*
X37599999Y-64837500D01*
X37599999Y-64775028D01*
X37599998Y-64775013D01*
X37589505Y-64672302D01*
X37534358Y-64505880D01*
X37534356Y-64505875D01*
X37442315Y-64356654D01*
X37318345Y-64232684D01*
X37169121Y-64140642D01*
X37163146Y-64137856D01*
X37110705Y-64091685D01*
X37091551Y-64024492D01*
X37111764Y-63957611D01*
X37127861Y-63937795D01*
X37230472Y-63835185D01*
X37318478Y-63689606D01*
X37369086Y-63527196D01*
X37375500Y-63456616D01*
X37375500Y-62943384D01*
X37369086Y-62872804D01*
X37318478Y-62710394D01*
X37230472Y-62564815D01*
X37230470Y-62564813D01*
X37230469Y-62564811D01*
X37127984Y-62462326D01*
X37094499Y-62401003D01*
X37099483Y-62331311D01*
X37127985Y-62286963D01*
X37230071Y-62184878D01*
X37230072Y-62184877D01*
X37318019Y-62039395D01*
X37368590Y-61877106D01*
X37375000Y-61806572D01*
X37375000Y-61800000D01*
X35425001Y-61800000D01*
X35425001Y-61806582D01*
X35431408Y-61877102D01*
X35431409Y-61877107D01*
X35481981Y-62039396D01*
X35569927Y-62184877D01*
X35672015Y-62286965D01*
X35674588Y-62291677D01*
X35679069Y-62294638D01*
X35691157Y-62322022D01*
X35705500Y-62348288D01*
X35705116Y-62353643D01*
X35707286Y-62358557D01*
X35702651Y-62388125D01*
X35700516Y-62417980D01*
X35697075Y-62423695D01*
X35696466Y-62427583D01*
X35684503Y-62444581D01*
X35677010Y-62457030D01*
X35674584Y-62459758D01*
X35569528Y-62564815D01*
X35544732Y-62605831D01*
X35537176Y-62614332D01*
X35516804Y-62627062D01*
X35499088Y-62643286D01*
X35487712Y-62645241D01*
X35477923Y-62651359D01*
X35453901Y-62651054D01*
X35430229Y-62655124D01*
X35419602Y-62650619D01*
X35408059Y-62650473D01*
X35388016Y-62637230D01*
X35365900Y-62627855D01*
X35359394Y-62618318D01*
X35349765Y-62611956D01*
X35340063Y-62589980D01*
X35326527Y-62570136D01*
X35323869Y-62553294D01*
X35321548Y-62548037D01*
X35322291Y-62543296D01*
X35321374Y-62537491D01*
X35321097Y-62537519D01*
X35320628Y-62532763D01*
X35320500Y-62531948D01*
X35320500Y-62531456D01*
X35282052Y-62338170D01*
X35282051Y-62338169D01*
X35282051Y-62338165D01*
X35279212Y-62331311D01*
X35206635Y-62156092D01*
X35206628Y-62156079D01*
X35097139Y-61992218D01*
X35097136Y-61992214D01*
X34957785Y-61852863D01*
X34957781Y-61852860D01*
X34793920Y-61743371D01*
X34793907Y-61743364D01*
X34611839Y-61667950D01*
X34611829Y-61667947D01*
X34418543Y-61629500D01*
X34418541Y-61629500D01*
X34221459Y-61629500D01*
X34221457Y-61629500D01*
X34028166Y-61667948D01*
X34028160Y-61667950D01*
X34023863Y-61669730D01*
X33954394Y-61677195D01*
X33891916Y-61645916D01*
X33877150Y-61629476D01*
X33857190Y-61602812D01*
X33857186Y-61602809D01*
X33742088Y-61516647D01*
X33742086Y-61516645D01*
X33607379Y-61466403D01*
X33607372Y-61466401D01*
X33547844Y-61460000D01*
X33524500Y-61460000D01*
X33457461Y-61440315D01*
X33411706Y-61387511D01*
X33400500Y-61336000D01*
X33400500Y-61221155D01*
X33400499Y-61221153D01*
X33387220Y-61154395D01*
X33369737Y-61066503D01*
X33311347Y-60925537D01*
X33303879Y-60856072D01*
X33335154Y-60793592D01*
X33338667Y-60789969D01*
X33348740Y-60779995D01*
X33368656Y-60767712D01*
X33492712Y-60643656D01*
X33502531Y-60627735D01*
X33513051Y-60617321D01*
X33531290Y-60607479D01*
X33546694Y-60593623D01*
X33561412Y-60591226D01*
X33574541Y-60584143D01*
X33595204Y-60585724D01*
X33615656Y-60582395D01*
X33629335Y-60588337D01*
X33644207Y-60589476D01*
X33660734Y-60601977D01*
X33679740Y-60610234D01*
X33695135Y-60627999D01*
X33699931Y-60631627D01*
X33701146Y-60634935D01*
X33705829Y-60640339D01*
X33707681Y-60643341D01*
X33707683Y-60643344D01*
X33831654Y-60767315D01*
X33980875Y-60859356D01*
X33980880Y-60859358D01*
X34147302Y-60914505D01*
X34147309Y-60914506D01*
X34250019Y-60924999D01*
X34800000Y-60924999D01*
X34849972Y-60924999D01*
X34849986Y-60924998D01*
X34952697Y-60914505D01*
X35119119Y-60859358D01*
X35119124Y-60859356D01*
X35268342Y-60767317D01*
X35367241Y-60668418D01*
X35393206Y-60654239D01*
X35417791Y-60637789D01*
X35423528Y-60637682D01*
X35428564Y-60634933D01*
X35458067Y-60637042D01*
X35487648Y-60636495D01*
X35494985Y-60639683D01*
X35498256Y-60639917D01*
X35520019Y-60650560D01*
X35581044Y-60688200D01*
X35627769Y-60740148D01*
X35638992Y-60809110D01*
X35611149Y-60873192D01*
X35603630Y-60881419D01*
X35569928Y-60915120D01*
X35569927Y-60915122D01*
X35481980Y-61060604D01*
X35431409Y-61222893D01*
X35425000Y-61293427D01*
X35425000Y-61300000D01*
X36150000Y-61300000D01*
X36150000Y-60930000D01*
X36650000Y-60930000D01*
X36650000Y-61300000D01*
X37374999Y-61300000D01*
X37374999Y-61293417D01*
X37368591Y-61222897D01*
X37368590Y-61222892D01*
X37318018Y-61060603D01*
X37230072Y-60915122D01*
X37225446Y-60909217D01*
X37227841Y-60907340D01*
X37201035Y-60858247D01*
X37206019Y-60788555D01*
X37247891Y-60732622D01*
X37257104Y-60726350D01*
X37393345Y-60642315D01*
X37517315Y-60518345D01*
X37555774Y-60455992D01*
X37607721Y-60409267D01*
X37676683Y-60398043D01*
X37726412Y-60415549D01*
X37841511Y-60486544D01*
X37841518Y-60486547D01*
X38002393Y-60539855D01*
X38101683Y-60549999D01*
X38149999Y-60549998D01*
X38150000Y-60549998D01*
X38150000Y-59850000D01*
X37805000Y-59850000D01*
X37805000Y-59926000D01*
X37785315Y-59993039D01*
X37732511Y-60038794D01*
X37681000Y-60050000D01*
X36700000Y-60050000D01*
X36700000Y-60828638D01*
X36691355Y-60858078D01*
X36684832Y-60888065D01*
X36681077Y-60893080D01*
X36680315Y-60895677D01*
X36663681Y-60916319D01*
X36650000Y-60930000D01*
X36150000Y-60930000D01*
X36150000Y-60621362D01*
X36169685Y-60554323D01*
X36186319Y-60533681D01*
X36200000Y-60520000D01*
X36200000Y-60050000D01*
X35219000Y-60050000D01*
X35151961Y-60030315D01*
X35106206Y-59977511D01*
X35101672Y-59956672D01*
X35095000Y-59950000D01*
X34800000Y-59950000D01*
X34800000Y-60924999D01*
X34250019Y-60924999D01*
X34299999Y-60924998D01*
X34300000Y-60924998D01*
X34300000Y-59824000D01*
X34319685Y-59756961D01*
X34372489Y-59711206D01*
X34424000Y-59700000D01*
X34550000Y-59700000D01*
X34550000Y-59574000D01*
X34569685Y-59506961D01*
X34622489Y-59461206D01*
X34674000Y-59450000D01*
X35556000Y-59450000D01*
X35623039Y-59469685D01*
X35668794Y-59522489D01*
X35673327Y-59543327D01*
X35680000Y-59550000D01*
X37295000Y-59550000D01*
X37295000Y-59474000D01*
X37314685Y-59406961D01*
X37367489Y-59361206D01*
X37419000Y-59350000D01*
X38276000Y-59350000D01*
X38343039Y-59369685D01*
G37*
%TD.AperFunction*%
%TA.AperFunction,Conductor*%
G36*
X21405703Y-58075335D02*
G01*
X21440682Y-58125715D01*
X21456202Y-58167328D01*
X21456206Y-58167335D01*
X21542452Y-58282544D01*
X21542455Y-58282547D01*
X21657664Y-58368793D01*
X21657671Y-58368797D01*
X21792517Y-58419091D01*
X21792516Y-58419091D01*
X21799444Y-58419835D01*
X21852127Y-58425500D01*
X23947872Y-58425499D01*
X24007483Y-58419091D01*
X24142331Y-58368796D01*
X24257546Y-58282546D01*
X24300286Y-58225453D01*
X24328300Y-58188032D01*
X24384234Y-58146161D01*
X24453925Y-58141177D01*
X24515248Y-58174663D01*
X24545950Y-58225450D01*
X24581522Y-58339606D01*
X24653515Y-58458697D01*
X24669530Y-58485188D01*
X24772015Y-58587673D01*
X24805500Y-58648996D01*
X24800516Y-58718688D01*
X24772015Y-58763035D01*
X24669928Y-58865121D01*
X24669927Y-58865122D01*
X24581980Y-59010604D01*
X24531409Y-59172893D01*
X24525000Y-59243427D01*
X24525000Y-59250000D01*
X26095000Y-59250000D01*
X26108681Y-59236319D01*
X26170004Y-59202834D01*
X26196362Y-59200000D01*
X27076000Y-59200000D01*
X27143039Y-59219685D01*
X27188794Y-59272489D01*
X27200000Y-59324000D01*
X27200000Y-59450000D01*
X27326000Y-59450000D01*
X27393039Y-59469685D01*
X27438794Y-59522489D01*
X27450000Y-59574000D01*
X27450000Y-60349999D01*
X27451347Y-60349999D01*
X27518386Y-60369684D01*
X27564141Y-60422488D01*
X27574085Y-60491646D01*
X27545060Y-60555202D01*
X27539032Y-60561675D01*
X27374357Y-60726350D01*
X27231286Y-60869421D01*
X27119481Y-60981225D01*
X27119477Y-60981230D01*
X27074867Y-61058499D01*
X27074867Y-61058500D01*
X27040423Y-61118157D01*
X27040423Y-61118158D01*
X26999499Y-61270886D01*
X26999499Y-61270888D01*
X26999499Y-61438989D01*
X26999500Y-61439002D01*
X26999500Y-61497679D01*
X26979815Y-61564718D01*
X26949813Y-61596944D01*
X26942459Y-61602449D01*
X26942451Y-61602457D01*
X26856206Y-61717664D01*
X26856202Y-61717671D01*
X26805908Y-61852517D01*
X26799501Y-61912116D01*
X26799500Y-61912135D01*
X26799500Y-62096715D01*
X26798054Y-62101636D01*
X26799101Y-62106659D01*
X26788309Y-62134823D01*
X26779815Y-62163754D01*
X26775938Y-62167112D01*
X26774103Y-62171904D01*
X26749797Y-62189764D01*
X26727011Y-62209509D01*
X26721934Y-62210238D01*
X26717800Y-62213277D01*
X26687703Y-62215160D01*
X26657853Y-62219453D01*
X26653185Y-62217321D01*
X26648067Y-62217642D01*
X26621733Y-62202958D01*
X26594297Y-62190428D01*
X26590309Y-62185435D01*
X26587044Y-62183614D01*
X26566144Y-62155173D01*
X26564644Y-62152367D01*
X26550000Y-62093909D01*
X26550000Y-61460000D01*
X26452155Y-61460000D01*
X26392627Y-61466401D01*
X26392620Y-61466403D01*
X26257913Y-61516645D01*
X26257906Y-61516649D01*
X26142814Y-61602808D01*
X26142807Y-61602814D01*
X26122847Y-61629478D01*
X26066912Y-61671349D01*
X25997220Y-61676332D01*
X25976136Y-61669730D01*
X25971839Y-61667950D01*
X25971828Y-61667947D01*
X25778543Y-61629500D01*
X25778541Y-61629500D01*
X25581459Y-61629500D01*
X25581457Y-61629500D01*
X25388170Y-61667947D01*
X25388160Y-61667950D01*
X25206092Y-61743364D01*
X25206079Y-61743371D01*
X25042218Y-61852860D01*
X25042214Y-61852863D01*
X24902863Y-61992214D01*
X24902860Y-61992218D01*
X24793371Y-62156079D01*
X24793364Y-62156092D01*
X24717950Y-62338160D01*
X24717947Y-62338170D01*
X24679500Y-62531456D01*
X24679500Y-62564384D01*
X24671777Y-62590683D01*
X24667430Y-62617747D01*
X24662075Y-62623724D01*
X24659815Y-62631423D01*
X24639104Y-62649368D01*
X24620812Y-62669790D01*
X24613074Y-62671924D01*
X24607011Y-62677178D01*
X24579882Y-62681078D01*
X24553457Y-62688367D01*
X24541997Y-62686526D01*
X24537853Y-62687122D01*
X24518610Y-62682769D01*
X24461863Y-62665086D01*
X24403715Y-62626349D01*
X24375741Y-62562324D01*
X24382572Y-62503366D01*
X24394091Y-62472483D01*
X24395752Y-62457030D01*
X24400500Y-62412873D01*
X24400499Y-61267128D01*
X24394091Y-61207517D01*
X24372518Y-61149678D01*
X24343797Y-61072671D01*
X24343793Y-61072664D01*
X24257547Y-60957455D01*
X24257544Y-60957452D01*
X24142335Y-60871206D01*
X24142328Y-60871202D01*
X24007482Y-60820908D01*
X24007483Y-60820908D01*
X23947883Y-60814501D01*
X23947881Y-60814500D01*
X23947873Y-60814500D01*
X23947865Y-60814500D01*
X22775097Y-60814500D01*
X22708058Y-60794815D01*
X22687416Y-60778181D01*
X21665817Y-59756582D01*
X24525001Y-59756582D01*
X24531408Y-59827102D01*
X24531409Y-59827107D01*
X24581981Y-59989396D01*
X24669927Y-60134877D01*
X24790122Y-60255072D01*
X24935604Y-60343019D01*
X24935603Y-60343019D01*
X25097894Y-60393590D01*
X25097892Y-60393590D01*
X25168418Y-60399999D01*
X25249999Y-60399998D01*
X25250000Y-60399998D01*
X25250000Y-59750000D01*
X25750000Y-59750000D01*
X25750000Y-60399999D01*
X25831581Y-60399999D01*
X25902102Y-60393591D01*
X25902107Y-60393590D01*
X26064396Y-60343018D01*
X26209877Y-60255072D01*
X26209877Y-60255071D01*
X26287317Y-60177631D01*
X26348639Y-60144145D01*
X26418331Y-60149129D01*
X26462680Y-60177630D01*
X26490122Y-60205072D01*
X26635604Y-60293019D01*
X26635603Y-60293019D01*
X26797894Y-60343590D01*
X26797892Y-60343590D01*
X26868418Y-60349999D01*
X26949999Y-60349998D01*
X26950000Y-60349998D01*
X26950000Y-59700000D01*
X26605000Y-59700000D01*
X26591319Y-59713681D01*
X26529996Y-59747166D01*
X26503638Y-59750000D01*
X25750000Y-59750000D01*
X25250000Y-59750000D01*
X24525001Y-59750000D01*
X24525001Y-59756582D01*
X21665817Y-59756582D01*
X21236819Y-59327584D01*
X21203334Y-59266261D01*
X21200500Y-59239903D01*
X21200500Y-58169048D01*
X21220185Y-58102009D01*
X21272989Y-58056254D01*
X21342147Y-58046310D01*
X21405703Y-58075335D01*
G37*
%TD.AperFunction*%
%TA.AperFunction,Conductor*%
G36*
X39418834Y-49604763D02*
G01*
X39474767Y-49646635D01*
X39499184Y-49712099D01*
X39499500Y-49720945D01*
X39499500Y-50726000D01*
X39479815Y-50793039D01*
X39427011Y-50838794D01*
X39375500Y-50850000D01*
X38850000Y-50850000D01*
X38850000Y-51766988D01*
X38792993Y-51734075D01*
X38665826Y-51700000D01*
X38534174Y-51700000D01*
X38407007Y-51734075D01*
X38350000Y-51766988D01*
X38350000Y-50850000D01*
X37702155Y-50850000D01*
X37642627Y-50856401D01*
X37642620Y-50856403D01*
X37507913Y-50906645D01*
X37507906Y-50906649D01*
X37392812Y-50992809D01*
X37392809Y-50992812D01*
X37306649Y-51107906D01*
X37306645Y-51107913D01*
X37256403Y-51242620D01*
X37256401Y-51242627D01*
X37250000Y-51302155D01*
X37250000Y-51950000D01*
X38166988Y-51950000D01*
X38134075Y-52007007D01*
X38100000Y-52134174D01*
X38100000Y-52265826D01*
X38134075Y-52392993D01*
X38166988Y-52450000D01*
X37250000Y-52450000D01*
X37250000Y-53097844D01*
X37256401Y-53157372D01*
X37256403Y-53157379D01*
X37306645Y-53292086D01*
X37306649Y-53292093D01*
X37392809Y-53407187D01*
X37392812Y-53407190D01*
X37507906Y-53493350D01*
X37507913Y-53493354D01*
X37639470Y-53542422D01*
X37695404Y-53584293D01*
X37719821Y-53649758D01*
X37704969Y-53718031D01*
X37683819Y-53746285D01*
X37569889Y-53860215D01*
X37444951Y-54032179D01*
X37348444Y-54221585D01*
X37282753Y-54423760D01*
X37249500Y-54633713D01*
X37249500Y-54846287D01*
X37249499Y-54846287D01*
X37274478Y-55003999D01*
X37273777Y-55009422D01*
X37275689Y-55014549D01*
X37269346Y-55043702D01*
X37265523Y-55073292D01*
X37261690Y-55078896D01*
X37260837Y-55082822D01*
X37239687Y-55111077D01*
X37131286Y-55219478D01*
X37131285Y-55219478D01*
X37131284Y-55219479D01*
X37019481Y-55331282D01*
X37019479Y-55331285D01*
X36969361Y-55418094D01*
X36969359Y-55418096D01*
X36940425Y-55468209D01*
X36940424Y-55468210D01*
X36940423Y-55468215D01*
X36899499Y-55620943D01*
X36899499Y-55620945D01*
X36899499Y-55789046D01*
X36899500Y-55789059D01*
X36899500Y-55799902D01*
X36879815Y-55866941D01*
X36863181Y-55887583D01*
X36762180Y-55988584D01*
X36700857Y-56022069D01*
X36631165Y-56017085D01*
X36575232Y-55975213D01*
X36550815Y-55909749D01*
X36550499Y-55900903D01*
X36550499Y-55376662D01*
X36550498Y-55376644D01*
X36540349Y-55277292D01*
X36540348Y-55277289D01*
X36526544Y-55235630D01*
X36487003Y-55116303D01*
X36486999Y-55116297D01*
X36486998Y-55116294D01*
X36397970Y-54971959D01*
X36397967Y-54971955D01*
X36278044Y-54852032D01*
X36278040Y-54852029D01*
X36133705Y-54763001D01*
X36133699Y-54762998D01*
X36133697Y-54762997D01*
X36125926Y-54760422D01*
X35972709Y-54709651D01*
X35873346Y-54699500D01*
X35326662Y-54699500D01*
X35326644Y-54699501D01*
X35227292Y-54709650D01*
X35227289Y-54709651D01*
X35066305Y-54762996D01*
X35066294Y-54763001D01*
X34921959Y-54852029D01*
X34921955Y-54852032D01*
X34802032Y-54971955D01*
X34802029Y-54971959D01*
X34713001Y-55116294D01*
X34712996Y-55116305D01*
X34659651Y-55277290D01*
X34649500Y-55376647D01*
X34649500Y-56323337D01*
X34649501Y-56323355D01*
X34659650Y-56422707D01*
X34659651Y-56422710D01*
X34712996Y-56583694D01*
X34713001Y-56583705D01*
X34802029Y-56728040D01*
X34802032Y-56728044D01*
X34830731Y-56756743D01*
X34864216Y-56818066D01*
X34859232Y-56887758D01*
X34817360Y-56943691D01*
X34751896Y-56968108D01*
X34704046Y-56962130D01*
X34622607Y-56935144D01*
X34523322Y-56925000D01*
X34500000Y-56925000D01*
X34500000Y-57776000D01*
X34480315Y-57843039D01*
X34427511Y-57888794D01*
X34376000Y-57900000D01*
X34124000Y-57900000D01*
X34056961Y-57880315D01*
X34011206Y-57827511D01*
X34000000Y-57776000D01*
X34000000Y-56924999D01*
X33976693Y-56925000D01*
X33976674Y-56925001D01*
X33877392Y-56935144D01*
X33716518Y-56988452D01*
X33716507Y-56988457D01*
X33572271Y-57077424D01*
X33572265Y-57077428D01*
X33563031Y-57086663D01*
X33501707Y-57120146D01*
X33432015Y-57115159D01*
X33404841Y-57100979D01*
X33395608Y-57094596D01*
X33378044Y-57077032D01*
X33305249Y-57032131D01*
X33302577Y-57030284D01*
X33282558Y-57005546D01*
X33261267Y-56981874D01*
X33260729Y-56978570D01*
X33258625Y-56975970D01*
X33255158Y-56944330D01*
X33250046Y-56912911D01*
X33251379Y-56909842D01*
X33251015Y-56906516D01*
X33265206Y-56878018D01*
X33277890Y-56848829D01*
X33281963Y-56844371D01*
X33282162Y-56843973D01*
X33282525Y-56843756D01*
X33285386Y-56840625D01*
X33397968Y-56728044D01*
X33487003Y-56583697D01*
X33540349Y-56422708D01*
X33550500Y-56323345D01*
X33550499Y-55376656D01*
X33540349Y-55277292D01*
X33487003Y-55116303D01*
X33486999Y-55116297D01*
X33486998Y-55116294D01*
X33397970Y-54971959D01*
X33397967Y-54971955D01*
X33278044Y-54852032D01*
X33278040Y-54852029D01*
X33133705Y-54763001D01*
X33133699Y-54762998D01*
X33133697Y-54762997D01*
X33125926Y-54760422D01*
X32972709Y-54709651D01*
X32873346Y-54699500D01*
X32326662Y-54699500D01*
X32326644Y-54699501D01*
X32227292Y-54709650D01*
X32227289Y-54709651D01*
X32066305Y-54762996D01*
X32066294Y-54763001D01*
X31921959Y-54852029D01*
X31921955Y-54852032D01*
X31837181Y-54936807D01*
X31775858Y-54970292D01*
X31706166Y-54965308D01*
X31650233Y-54923436D01*
X31625816Y-54857972D01*
X31625500Y-54849126D01*
X31625500Y-51864145D01*
X31625640Y-51863666D01*
X31625504Y-51863189D01*
X31635469Y-51830192D01*
X31645185Y-51797106D01*
X31645560Y-51796780D01*
X31645705Y-51796303D01*
X31671972Y-51773894D01*
X31697989Y-51751351D01*
X31698608Y-51751171D01*
X31698860Y-51750957D01*
X31720886Y-51744723D01*
X31732800Y-51741275D01*
X31733081Y-51741236D01*
X31775236Y-51735687D01*
X31775881Y-51735419D01*
X31784384Y-51734264D01*
X31794028Y-51735726D01*
X31817269Y-51734195D01*
X31899999Y-51745086D01*
X31900551Y-51744602D01*
X31900220Y-51743161D01*
X31910839Y-51713621D01*
X31919685Y-51683497D01*
X31922941Y-51679956D01*
X31923857Y-51677411D01*
X31948512Y-51652161D01*
X31974515Y-51632208D01*
X32039684Y-51607016D01*
X32108129Y-51621055D01*
X32125484Y-51632208D01*
X32151486Y-51652160D01*
X32192689Y-51708587D01*
X32198878Y-51744102D01*
X32200000Y-51745086D01*
X32282730Y-51734195D01*
X32316469Y-51736415D01*
X32316705Y-51734626D01*
X32324763Y-51735686D01*
X32324764Y-51735687D01*
X32437280Y-51750500D01*
X32437287Y-51750500D01*
X32662713Y-51750500D01*
X32662720Y-51750500D01*
X32775236Y-51735687D01*
X32915233Y-51677698D01*
X33035451Y-51585451D01*
X33037699Y-51582520D01*
X33063412Y-51549013D01*
X33119840Y-51507811D01*
X33161787Y-51500500D01*
X33569575Y-51500500D01*
X33636614Y-51520185D01*
X33675113Y-51559402D01*
X33702031Y-51603043D01*
X33821955Y-51722967D01*
X33821959Y-51722970D01*
X33966294Y-51811998D01*
X33966297Y-51811999D01*
X33966303Y-51812003D01*
X34127292Y-51865349D01*
X34226655Y-51875500D01*
X34773344Y-51875499D01*
X34773352Y-51875498D01*
X34773355Y-51875498D01*
X34827760Y-51869940D01*
X34872708Y-51865349D01*
X35033697Y-51812003D01*
X35178044Y-51722968D01*
X35187668Y-51713343D01*
X35248987Y-51679856D01*
X35318679Y-51684835D01*
X35363034Y-51713339D01*
X35372267Y-51722572D01*
X35372271Y-51722575D01*
X35516507Y-51811542D01*
X35516518Y-51811547D01*
X35677393Y-51864855D01*
X35776683Y-51874999D01*
X36300000Y-51874999D01*
X36323308Y-51874999D01*
X36323322Y-51874998D01*
X36422607Y-51864855D01*
X36583481Y-51811547D01*
X36583492Y-51811542D01*
X36727728Y-51722575D01*
X36727732Y-51722572D01*
X36847572Y-51602732D01*
X36847575Y-51602728D01*
X36936542Y-51458492D01*
X36936547Y-51458481D01*
X36989856Y-51297606D01*
X36991016Y-51286251D01*
X36991016Y-51286248D01*
X36999999Y-51198321D01*
X37000000Y-51198309D01*
X37000000Y-51150000D01*
X36300000Y-51150000D01*
X36300000Y-51874999D01*
X35776683Y-51874999D01*
X35800000Y-51874998D01*
X35800000Y-51024000D01*
X35819685Y-50956961D01*
X35872489Y-50911206D01*
X35924000Y-50900000D01*
X36050000Y-50900000D01*
X36050000Y-50774000D01*
X36069685Y-50706961D01*
X36122489Y-50661206D01*
X36174000Y-50650000D01*
X36999999Y-50650000D01*
X37013180Y-50636819D01*
X37074503Y-50603334D01*
X37100861Y-50600500D01*
X37985180Y-50600500D01*
X37985196Y-50600501D01*
X37992792Y-50600501D01*
X38150903Y-50600501D01*
X38150906Y-50600501D01*
X38303634Y-50559577D01*
X38395394Y-50506599D01*
X38440565Y-50480520D01*
X38552369Y-50368716D01*
X38552369Y-50368714D01*
X38562573Y-50358511D01*
X38562576Y-50358506D01*
X39287820Y-49633263D01*
X39349142Y-49599779D01*
X39418834Y-49604763D01*
G37*
%TD.AperFunction*%
%TA.AperFunction,Conductor*%
G36*
X22292539Y-53120185D02*
G01*
X22338294Y-53172989D01*
X22349500Y-53224500D01*
X22349500Y-54390701D01*
X22352401Y-54427567D01*
X22352402Y-54427573D01*
X22394576Y-54572733D01*
X22399500Y-54607328D01*
X22399500Y-54659995D01*
X22379815Y-54727034D01*
X22340600Y-54765532D01*
X22321955Y-54777032D01*
X22312324Y-54786663D01*
X22251000Y-54820146D01*
X22181308Y-54815159D01*
X22136965Y-54786660D01*
X22127733Y-54777428D01*
X22053439Y-54731603D01*
X22006714Y-54679655D01*
X21995493Y-54610692D01*
X21999460Y-54591469D01*
X22047099Y-54427495D01*
X22047100Y-54427489D01*
X22049999Y-54390649D01*
X22050000Y-54390634D01*
X22050000Y-53987500D01*
X21500000Y-53987500D01*
X21500000Y-54495000D01*
X21576000Y-54495000D01*
X21643039Y-54514685D01*
X21688794Y-54567489D01*
X21700000Y-54619000D01*
X21700000Y-55476000D01*
X21680315Y-55543039D01*
X21627511Y-55588794D01*
X21576000Y-55600000D01*
X21324500Y-55600000D01*
X21257461Y-55580315D01*
X21211706Y-55527511D01*
X21200500Y-55476000D01*
X21200500Y-53838362D01*
X21203350Y-53811928D01*
X21252850Y-53585066D01*
X21263457Y-53565668D01*
X21269685Y-53544461D01*
X21279892Y-53535616D01*
X21286374Y-53523764D01*
X21305784Y-53513180D01*
X21322489Y-53498706D01*
X21338866Y-53495143D01*
X21347718Y-53490317D01*
X21357730Y-53491039D01*
X21374000Y-53487500D01*
X22050000Y-53487500D01*
X22050000Y-53224500D01*
X22052550Y-53215814D01*
X22051262Y-53206853D01*
X22062240Y-53182812D01*
X22069685Y-53157461D01*
X22076525Y-53151533D01*
X22080287Y-53143297D01*
X22102521Y-53129007D01*
X22122489Y-53111706D01*
X22133003Y-53109418D01*
X22139065Y-53105523D01*
X22174000Y-53100500D01*
X22225500Y-53100500D01*
X22292539Y-53120185D01*
G37*
%TD.AperFunction*%
%TA.AperFunction,Conductor*%
G36*
X32706831Y-47396823D02*
G01*
X32708683Y-47398036D01*
X32840372Y-47486028D01*
X32840385Y-47486035D01*
X32976457Y-47542397D01*
X32986061Y-47546375D01*
X33035309Y-47556171D01*
X33102360Y-47569509D01*
X33123530Y-47580582D01*
X33146378Y-47587572D01*
X33153924Y-47596482D01*
X33164271Y-47601894D01*
X33176092Y-47622653D01*
X33191536Y-47640887D01*
X33196469Y-47658438D01*
X33198845Y-47662610D01*
X33201098Y-47674861D01*
X33214313Y-47775236D01*
X33214409Y-47775468D01*
X33215503Y-47783735D01*
X33212399Y-47803722D01*
X33212399Y-47816316D01*
X33215374Y-47816708D01*
X33214313Y-47824762D01*
X33214313Y-47824764D01*
X33210938Y-47850393D01*
X33199500Y-47937272D01*
X33199500Y-48162727D01*
X33207731Y-48225246D01*
X33212348Y-48260315D01*
X33201584Y-48329349D01*
X33155204Y-48381605D01*
X33089410Y-48400500D01*
X32301845Y-48400500D01*
X32301829Y-48400499D01*
X32294233Y-48400499D01*
X32136119Y-48400499D01*
X32028763Y-48429265D01*
X31983386Y-48441424D01*
X31983385Y-48441425D01*
X31933272Y-48470359D01*
X31933271Y-48470360D01*
X31889865Y-48495420D01*
X31846461Y-48520479D01*
X31846458Y-48520481D01*
X31203759Y-49163181D01*
X31142436Y-49196666D01*
X31116078Y-49199500D01*
X30937272Y-49199500D01*
X30850393Y-49210938D01*
X30824764Y-49214313D01*
X30824762Y-49214313D01*
X30816708Y-49215374D01*
X30816316Y-49212399D01*
X30783684Y-49212399D01*
X30783292Y-49215374D01*
X30775237Y-49214313D01*
X30775236Y-49214313D01*
X30737417Y-49209334D01*
X30662727Y-49199500D01*
X30662720Y-49199500D01*
X30437280Y-49199500D01*
X30437272Y-49199500D01*
X30350393Y-49210938D01*
X30324764Y-49214313D01*
X30324762Y-49214313D01*
X30316708Y-49215374D01*
X30316316Y-49212399D01*
X30283684Y-49212399D01*
X30283292Y-49215374D01*
X30275237Y-49214313D01*
X30275236Y-49214313D01*
X30237417Y-49209334D01*
X30162727Y-49199500D01*
X30162720Y-49199500D01*
X29937280Y-49199500D01*
X29937272Y-49199500D01*
X29850393Y-49210938D01*
X29824764Y-49214313D01*
X29824762Y-49214313D01*
X29816708Y-49215374D01*
X29816316Y-49212399D01*
X29783684Y-49212399D01*
X29783292Y-49215374D01*
X29775237Y-49214313D01*
X29775236Y-49214313D01*
X29737417Y-49209334D01*
X29662727Y-49199500D01*
X29662720Y-49199500D01*
X29437280Y-49199500D01*
X29437272Y-49199500D01*
X29350393Y-49210938D01*
X29324764Y-49214313D01*
X29324762Y-49214313D01*
X29316708Y-49215374D01*
X29316316Y-49212399D01*
X29283684Y-49212399D01*
X29283292Y-49215374D01*
X29275237Y-49214313D01*
X29275236Y-49214313D01*
X29237417Y-49209334D01*
X29162727Y-49199500D01*
X29162720Y-49199500D01*
X28937280Y-49199500D01*
X28937272Y-49199500D01*
X28850393Y-49210938D01*
X28824764Y-49214313D01*
X28824762Y-49214313D01*
X28816708Y-49215374D01*
X28816316Y-49212399D01*
X28783684Y-49212399D01*
X28783292Y-49215374D01*
X28775237Y-49214313D01*
X28775236Y-49214313D01*
X28737417Y-49209334D01*
X28662727Y-49199500D01*
X28662720Y-49199500D01*
X28437280Y-49199500D01*
X28437272Y-49199500D01*
X28350393Y-49210938D01*
X28324764Y-49214313D01*
X28324762Y-49214313D01*
X28316708Y-49215374D01*
X28316316Y-49212399D01*
X28283684Y-49212399D01*
X28283292Y-49215374D01*
X28275237Y-49214313D01*
X28275236Y-49214313D01*
X28237417Y-49209334D01*
X28162727Y-49199500D01*
X28162720Y-49199500D01*
X27937280Y-49199500D01*
X27937272Y-49199500D01*
X27850393Y-49210938D01*
X27824764Y-49214313D01*
X27824762Y-49214313D01*
X27816708Y-49215374D01*
X27816316Y-49212399D01*
X27783684Y-49212399D01*
X27783292Y-49215374D01*
X27775237Y-49214313D01*
X27775236Y-49214313D01*
X27737417Y-49209334D01*
X27662727Y-49199500D01*
X27662720Y-49199500D01*
X27437280Y-49199500D01*
X27437272Y-49199500D01*
X27350393Y-49210938D01*
X27324764Y-49214313D01*
X27324762Y-49214313D01*
X27316708Y-49215374D01*
X27316316Y-49212399D01*
X27283684Y-49212399D01*
X27283292Y-49215374D01*
X27275237Y-49214313D01*
X27275236Y-49214313D01*
X27237417Y-49209334D01*
X27162727Y-49199500D01*
X27162720Y-49199500D01*
X26937280Y-49199500D01*
X26937272Y-49199500D01*
X26850393Y-49210938D01*
X26824764Y-49214313D01*
X26824762Y-49214313D01*
X26816708Y-49215374D01*
X26816316Y-49212399D01*
X26783684Y-49212399D01*
X26783292Y-49215374D01*
X26775237Y-49214313D01*
X26775236Y-49214313D01*
X26737417Y-49209334D01*
X26662727Y-49199500D01*
X26662720Y-49199500D01*
X26437280Y-49199500D01*
X26437272Y-49199500D01*
X26345117Y-49211633D01*
X26324764Y-49214313D01*
X26324763Y-49214313D01*
X26319753Y-49214973D01*
X26319699Y-49214999D01*
X26319595Y-49214993D01*
X26316708Y-49215374D01*
X26316638Y-49214844D01*
X26304559Y-49214236D01*
X26284410Y-49215590D01*
X26275633Y-49214477D01*
X26275236Y-49214313D01*
X26162720Y-49199500D01*
X26157447Y-49199500D01*
X26149682Y-49198516D01*
X26124546Y-49187541D01*
X26098233Y-49179815D01*
X26092989Y-49173763D01*
X26085650Y-49170559D01*
X26070435Y-49147735D01*
X26052478Y-49127011D01*
X26051338Y-49119086D01*
X26046896Y-49112422D01*
X26046437Y-49084998D01*
X26042534Y-49057853D01*
X26045860Y-49050567D01*
X26045727Y-49042562D01*
X26060164Y-49019248D01*
X26071559Y-48994297D01*
X26077591Y-48987819D01*
X26790175Y-48275236D01*
X27651954Y-47413457D01*
X27713277Y-47379972D01*
X27739635Y-47377138D01*
X32639792Y-47377138D01*
X32706831Y-47396823D01*
G37*
%TD.AperFunction*%
%TA.AperFunction,Conductor*%
G36*
X24492100Y-40154304D02*
G01*
X24525309Y-40184313D01*
X24564549Y-40235451D01*
X24684767Y-40327698D01*
X24824764Y-40385687D01*
X24920000Y-40398225D01*
X24937264Y-40400498D01*
X24937280Y-40400500D01*
X24937287Y-40400500D01*
X25162713Y-40400500D01*
X25162720Y-40400500D01*
X25275236Y-40385687D01*
X25275236Y-40385686D01*
X25283295Y-40384626D01*
X25283698Y-40387689D01*
X25316302Y-40387689D01*
X25316705Y-40384626D01*
X25324763Y-40385686D01*
X25324764Y-40385687D01*
X25437280Y-40400500D01*
X25437287Y-40400500D01*
X25662713Y-40400500D01*
X25662720Y-40400500D01*
X25775236Y-40385687D01*
X25775236Y-40385686D01*
X25783295Y-40384626D01*
X25783698Y-40387689D01*
X25816302Y-40387689D01*
X25816705Y-40384626D01*
X25824763Y-40385686D01*
X25824764Y-40385687D01*
X25937280Y-40400500D01*
X25937287Y-40400500D01*
X26162713Y-40400500D01*
X26162720Y-40400500D01*
X26275236Y-40385687D01*
X26275236Y-40385686D01*
X26283295Y-40384626D01*
X26283698Y-40387689D01*
X26316302Y-40387689D01*
X26316705Y-40384626D01*
X26324763Y-40385686D01*
X26324764Y-40385687D01*
X26437280Y-40400500D01*
X26437287Y-40400500D01*
X26662713Y-40400500D01*
X26662720Y-40400500D01*
X26775236Y-40385687D01*
X26915233Y-40327698D01*
X26974515Y-40282208D01*
X27039684Y-40257016D01*
X27108129Y-40271055D01*
X27125484Y-40282208D01*
X27151486Y-40302160D01*
X27192689Y-40358587D01*
X27198878Y-40394102D01*
X27200000Y-40395086D01*
X27282730Y-40384195D01*
X27316469Y-40386415D01*
X27316705Y-40384626D01*
X27324763Y-40385686D01*
X27324764Y-40385687D01*
X27437280Y-40400500D01*
X27437287Y-40400500D01*
X27662713Y-40400500D01*
X27662720Y-40400500D01*
X27775236Y-40385687D01*
X27775236Y-40385686D01*
X27783295Y-40384626D01*
X27783698Y-40387689D01*
X27816302Y-40387689D01*
X27816705Y-40384626D01*
X27824763Y-40385686D01*
X27824764Y-40385687D01*
X27937280Y-40400500D01*
X27937287Y-40400500D01*
X28162713Y-40400500D01*
X28162720Y-40400500D01*
X28275236Y-40385687D01*
X28275236Y-40385686D01*
X28283295Y-40384626D01*
X28283698Y-40387689D01*
X28316302Y-40387689D01*
X28316705Y-40384626D01*
X28324763Y-40385686D01*
X28324764Y-40385687D01*
X28437280Y-40400500D01*
X28437287Y-40400500D01*
X28662713Y-40400500D01*
X28662720Y-40400500D01*
X28775236Y-40385687D01*
X28775237Y-40385686D01*
X28781096Y-40384915D01*
X28781228Y-40384854D01*
X28781463Y-40384867D01*
X28783295Y-40384626D01*
X28783340Y-40384971D01*
X28797533Y-40385760D01*
X28816521Y-40384530D01*
X28824589Y-40385614D01*
X28824764Y-40385687D01*
X28842023Y-40387959D01*
X28873841Y-40402138D01*
X28905579Y-40416178D01*
X28905676Y-40416326D01*
X28905840Y-40416399D01*
X28924955Y-40445552D01*
X28944052Y-40474502D01*
X28944085Y-40474728D01*
X28944152Y-40474829D01*
X28944155Y-40475191D01*
X28949500Y-40510853D01*
X28949500Y-43020410D01*
X28949499Y-43020428D01*
X28949499Y-43186134D01*
X28949498Y-43186134D01*
X28990423Y-43338866D01*
X29004973Y-43364065D01*
X29004974Y-43364070D01*
X29004976Y-43364070D01*
X29057229Y-43454576D01*
X29069479Y-43475794D01*
X29069481Y-43475797D01*
X29188349Y-43594665D01*
X29188355Y-43594670D01*
X31558141Y-45964457D01*
X31591626Y-46025780D01*
X31586642Y-46095472D01*
X31544770Y-46151405D01*
X31479306Y-46175822D01*
X31470460Y-46176138D01*
X27526207Y-46176138D01*
X27526191Y-46176137D01*
X27518595Y-46176137D01*
X27360481Y-46176137D01*
X27280548Y-46197555D01*
X27207754Y-46217060D01*
X27171112Y-46238216D01*
X27171111Y-46238215D01*
X27070825Y-46296115D01*
X27070820Y-46296119D01*
X26959016Y-46407924D01*
X24612160Y-48754779D01*
X24550837Y-48788264D01*
X24481145Y-48783280D01*
X24425212Y-48741408D01*
X24400795Y-48675944D01*
X24400769Y-48666779D01*
X24400500Y-48666779D01*
X24400500Y-48437286D01*
X24400500Y-48437280D01*
X24385687Y-48324764D01*
X24327698Y-48184767D01*
X24282210Y-48125486D01*
X24257016Y-48060319D01*
X24271054Y-47991874D01*
X24282211Y-47974512D01*
X24302162Y-47948512D01*
X24358590Y-47907310D01*
X24394105Y-47901120D01*
X24395088Y-47899999D01*
X24384196Y-47817270D01*
X24386409Y-47783529D01*
X24384626Y-47783295D01*
X24385687Y-47775236D01*
X24400500Y-47662720D01*
X24400500Y-47437280D01*
X24385687Y-47324764D01*
X24385686Y-47324763D01*
X24384626Y-47316705D01*
X24387689Y-47316301D01*
X24387689Y-47283698D01*
X24384626Y-47283295D01*
X24385687Y-47275236D01*
X24400500Y-47162720D01*
X24400500Y-46937280D01*
X24385687Y-46824764D01*
X24385686Y-46824763D01*
X24384626Y-46816705D01*
X24387689Y-46816301D01*
X24387689Y-46783698D01*
X24384626Y-46783295D01*
X24385687Y-46775236D01*
X24400500Y-46662720D01*
X24400500Y-46437280D01*
X24385687Y-46324764D01*
X24385686Y-46324763D01*
X24384626Y-46316705D01*
X24387689Y-46316301D01*
X24387689Y-46283698D01*
X24384626Y-46283295D01*
X24385687Y-46275236D01*
X24400500Y-46162720D01*
X24400500Y-45937280D01*
X24385687Y-45824764D01*
X24385686Y-45824763D01*
X24384626Y-45816705D01*
X24387689Y-45816301D01*
X24387689Y-45783698D01*
X24384626Y-45783295D01*
X24385977Y-45773030D01*
X24400500Y-45662720D01*
X24400500Y-45437280D01*
X24385687Y-45324764D01*
X24385686Y-45324763D01*
X24384626Y-45316705D01*
X24387689Y-45316301D01*
X24387689Y-45283698D01*
X24384626Y-45283295D01*
X24389672Y-45244964D01*
X24400500Y-45162720D01*
X24400500Y-44937280D01*
X24385687Y-44824764D01*
X24385686Y-44824763D01*
X24384626Y-44816705D01*
X24387689Y-44816301D01*
X24387689Y-44783698D01*
X24384626Y-44783295D01*
X24385687Y-44775236D01*
X24400500Y-44662720D01*
X24400500Y-44437280D01*
X24385687Y-44324764D01*
X24385686Y-44324763D01*
X24384626Y-44316705D01*
X24387689Y-44316301D01*
X24387689Y-44283698D01*
X24384626Y-44283295D01*
X24385687Y-44275236D01*
X24400500Y-44162720D01*
X24400500Y-43937280D01*
X24385687Y-43824764D01*
X24385686Y-43824763D01*
X24384626Y-43816705D01*
X24387689Y-43816301D01*
X24387689Y-43783698D01*
X24384626Y-43783295D01*
X24388831Y-43751353D01*
X24400500Y-43662720D01*
X24400500Y-43437280D01*
X24385687Y-43324764D01*
X24385686Y-43324763D01*
X24384626Y-43316705D01*
X24387689Y-43316301D01*
X24387689Y-43283698D01*
X24384626Y-43283295D01*
X24386498Y-43269078D01*
X24400500Y-43162720D01*
X24400500Y-42937280D01*
X24385687Y-42824764D01*
X24385686Y-42824763D01*
X24384626Y-42816705D01*
X24387689Y-42816301D01*
X24387689Y-42783698D01*
X24384626Y-42783295D01*
X24394237Y-42710289D01*
X24400500Y-42662720D01*
X24400500Y-42437280D01*
X24385687Y-42324764D01*
X24385686Y-42324763D01*
X24384626Y-42316705D01*
X24387689Y-42316301D01*
X24387689Y-42283698D01*
X24384626Y-42283295D01*
X24387288Y-42263074D01*
X24400500Y-42162720D01*
X24400500Y-41937280D01*
X24385687Y-41824764D01*
X24327698Y-41684767D01*
X24282210Y-41625486D01*
X24257016Y-41560319D01*
X24271054Y-41491874D01*
X24282211Y-41474512D01*
X24302162Y-41448512D01*
X24358590Y-41407310D01*
X24394105Y-41401120D01*
X24395088Y-41399999D01*
X24384196Y-41317270D01*
X24386409Y-41283529D01*
X24384626Y-41283295D01*
X24393000Y-41219685D01*
X24400500Y-41162720D01*
X24400500Y-40937280D01*
X24385687Y-40824764D01*
X24327698Y-40684767D01*
X24235451Y-40564549D01*
X24202648Y-40539378D01*
X24120585Y-40476408D01*
X24079383Y-40419980D01*
X24075228Y-40350234D01*
X24109441Y-40289314D01*
X24148614Y-40263474D01*
X24279179Y-40209394D01*
X24279183Y-40209390D01*
X24279187Y-40209389D01*
X24341008Y-40168081D01*
X24358043Y-40156698D01*
X24424719Y-40135820D01*
X24492100Y-40154304D01*
G37*
%TD.AperFunction*%
%TA.AperFunction,Conductor*%
G36*
X20693391Y-43924248D02*
G01*
X20820814Y-44009390D01*
X20820827Y-44009397D01*
X20966498Y-44069735D01*
X20966503Y-44069737D01*
X21121153Y-44100499D01*
X21121156Y-44100500D01*
X21121158Y-44100500D01*
X21278844Y-44100500D01*
X21278845Y-44100499D01*
X21433497Y-44069737D01*
X21579179Y-44009394D01*
X21656609Y-43957657D01*
X21662054Y-43955951D01*
X21666090Y-43951918D01*
X21695026Y-43945627D01*
X21723286Y-43936779D01*
X21728788Y-43938288D01*
X21734365Y-43937076D01*
X21762112Y-43947430D01*
X21790666Y-43955263D01*
X21794478Y-43959507D01*
X21799826Y-43961503D01*
X21817569Y-43985212D01*
X21837357Y-44007242D01*
X21839164Y-44014070D01*
X21841688Y-44017443D01*
X21845176Y-44036787D01*
X21849185Y-44051932D01*
X21849500Y-44056345D01*
X21849500Y-44162720D01*
X21864313Y-44275236D01*
X21865289Y-44277594D01*
X21866259Y-44291173D01*
X21862399Y-44308904D01*
X21862399Y-44316316D01*
X21865374Y-44316708D01*
X21849500Y-44437272D01*
X21849500Y-44662727D01*
X21865374Y-44783292D01*
X21862399Y-44783683D01*
X21862399Y-44816316D01*
X21865374Y-44816708D01*
X21849500Y-44937272D01*
X21849500Y-45162727D01*
X21865374Y-45283292D01*
X21862399Y-45283683D01*
X21862399Y-45316316D01*
X21865374Y-45316708D01*
X21849500Y-45437272D01*
X21849500Y-45662727D01*
X21853920Y-45696292D01*
X21843155Y-45765327D01*
X21796775Y-45817583D01*
X21729506Y-45836469D01*
X21665889Y-45818020D01*
X21658489Y-45813456D01*
X21658481Y-45813452D01*
X21497606Y-45760144D01*
X21398322Y-45750000D01*
X21350000Y-45750000D01*
X21350000Y-46576000D01*
X21330315Y-46643039D01*
X21277511Y-46688794D01*
X21226000Y-46700000D01*
X20974000Y-46700000D01*
X20906961Y-46680315D01*
X20861206Y-46627511D01*
X20850000Y-46576000D01*
X20850000Y-45750000D01*
X20849999Y-45749999D01*
X20801693Y-45750000D01*
X20801675Y-45750001D01*
X20702390Y-45760144D01*
X20663503Y-45773030D01*
X20593674Y-45775431D01*
X20533633Y-45739699D01*
X20502441Y-45677178D01*
X20500500Y-45655324D01*
X20500500Y-44027350D01*
X20520185Y-43960311D01*
X20572989Y-43914556D01*
X20642147Y-43904612D01*
X20693391Y-43924248D01*
G37*
%TD.AperFunction*%
%TA.AperFunction,Conductor*%
G36*
X38793039Y-41219685D02*
G01*
X38838794Y-41272489D01*
X38850000Y-41324000D01*
X38850000Y-42424999D01*
X38899972Y-42424999D01*
X38899986Y-42424998D01*
X39002697Y-42414505D01*
X39169119Y-42359358D01*
X39169130Y-42359353D01*
X39310403Y-42272215D01*
X39377795Y-42253774D01*
X39444459Y-42274696D01*
X39489229Y-42328338D01*
X39499500Y-42377753D01*
X39499500Y-43214313D01*
X39479815Y-43281352D01*
X39427011Y-43327107D01*
X39357853Y-43337051D01*
X39306610Y-43317415D01*
X39234280Y-43269086D01*
X39234266Y-43269078D01*
X39123611Y-43223244D01*
X39098542Y-43212860D01*
X39098538Y-43212859D01*
X39098534Y-43212858D01*
X38954459Y-43184200D01*
X38954455Y-43184200D01*
X38807545Y-43184200D01*
X38807540Y-43184200D01*
X38663465Y-43212858D01*
X38663455Y-43212861D01*
X38527733Y-43269078D01*
X38527724Y-43269083D01*
X38405580Y-43350698D01*
X38405576Y-43350701D01*
X38301701Y-43454576D01*
X38301698Y-43454580D01*
X38220083Y-43576724D01*
X38220078Y-43576733D01*
X38163861Y-43712455D01*
X38163858Y-43712465D01*
X38135200Y-43856540D01*
X38135200Y-44003459D01*
X38163858Y-44147534D01*
X38163862Y-44147548D01*
X38195729Y-44224483D01*
X38203198Y-44293953D01*
X38171922Y-44356432D01*
X38128622Y-44386496D01*
X38076675Y-44408013D01*
X38067618Y-44414064D01*
X39285935Y-45632381D01*
X39290582Y-45631923D01*
X39291617Y-45630207D01*
X39310156Y-45621082D01*
X39326014Y-45607831D01*
X39340872Y-45605965D01*
X39354306Y-45599354D01*
X39374834Y-45601700D01*
X39395340Y-45599126D01*
X39408847Y-45605589D01*
X39423723Y-45607290D01*
X39439725Y-45620364D01*
X39458366Y-45629284D01*
X39466234Y-45642023D01*
X39477830Y-45651497D01*
X39484223Y-45671146D01*
X39495083Y-45688728D01*
X39495171Y-45704796D01*
X39499448Y-45717938D01*
X39499500Y-45721529D01*
X39499500Y-45892297D01*
X39479815Y-45959336D01*
X39427011Y-46005091D01*
X39357853Y-46015035D01*
X39351308Y-46013914D01*
X39308718Y-46005442D01*
X39297389Y-45999516D01*
X39284687Y-45998064D01*
X39267022Y-45983631D01*
X39246807Y-45973057D01*
X39231152Y-45954324D01*
X39230580Y-45953857D01*
X39230464Y-45953501D01*
X39229808Y-45952716D01*
X39194571Y-45899981D01*
X39194568Y-45899977D01*
X39070022Y-45775431D01*
X39070018Y-45775428D01*
X38923569Y-45677573D01*
X38923560Y-45677568D01*
X38760829Y-45610163D01*
X38760821Y-45610161D01*
X38599809Y-45578134D01*
X38537898Y-45545749D01*
X38503324Y-45485034D01*
X38500000Y-45456517D01*
X38500000Y-45200000D01*
X38243483Y-45200000D01*
X38176444Y-45180315D01*
X38130689Y-45127511D01*
X38121866Y-45100191D01*
X38089838Y-44939178D01*
X38089837Y-44939171D01*
X38025438Y-44783698D01*
X38022431Y-44776439D01*
X38022426Y-44776430D01*
X37924571Y-44629981D01*
X37924568Y-44629977D01*
X37800022Y-44505431D01*
X37800018Y-44505428D01*
X37653569Y-44407573D01*
X37653559Y-44407568D01*
X37601569Y-44386033D01*
X37547166Y-44342192D01*
X37525101Y-44275898D01*
X37534459Y-44224024D01*
X37566140Y-44147542D01*
X37594800Y-44003455D01*
X37594800Y-43856545D01*
X37566140Y-43712458D01*
X37509920Y-43576731D01*
X37509919Y-43576730D01*
X37509916Y-43576724D01*
X37428301Y-43454580D01*
X37428298Y-43454576D01*
X37324423Y-43350701D01*
X37324419Y-43350698D01*
X37202275Y-43269083D01*
X37202266Y-43269078D01*
X37091611Y-43223244D01*
X37066542Y-43212860D01*
X37066538Y-43212859D01*
X37066534Y-43212858D01*
X36981047Y-43195854D01*
X36919136Y-43163470D01*
X36884562Y-43102754D01*
X36888301Y-43032984D01*
X36929167Y-42976312D01*
X36957784Y-42959676D01*
X37011880Y-42937270D01*
X37079173Y-42909397D01*
X37079176Y-42909395D01*
X37079179Y-42909394D01*
X37210289Y-42821789D01*
X37321789Y-42710289D01*
X37409394Y-42579179D01*
X37469737Y-42433497D01*
X37500500Y-42278842D01*
X37500500Y-42237230D01*
X37507399Y-42213733D01*
X37510098Y-42189396D01*
X37518010Y-42177596D01*
X37520185Y-42170191D01*
X37528208Y-42159103D01*
X37532263Y-42154104D01*
X37542712Y-42143656D01*
X37548960Y-42133525D01*
X37554001Y-42127313D01*
X37576435Y-42111847D01*
X37596694Y-42093623D01*
X37604780Y-42092306D01*
X37611526Y-42087656D01*
X37638758Y-42086774D01*
X37665656Y-42082395D01*
X37673172Y-42085660D01*
X37681359Y-42085395D01*
X37704744Y-42099375D01*
X37729740Y-42110234D01*
X37737085Y-42118709D01*
X37741329Y-42121247D01*
X37744071Y-42126771D01*
X37755829Y-42140339D01*
X37757681Y-42143341D01*
X37757683Y-42143344D01*
X37881654Y-42267315D01*
X38030875Y-42359356D01*
X38030880Y-42359358D01*
X38197302Y-42414505D01*
X38197309Y-42414506D01*
X38300019Y-42424999D01*
X38349999Y-42424998D01*
X38350000Y-42424998D01*
X38350000Y-41324000D01*
X38369685Y-41256961D01*
X38422489Y-41211206D01*
X38474000Y-41200000D01*
X38726000Y-41200000D01*
X38793039Y-41219685D01*
G37*
%TD.AperFunction*%
%TA.AperFunction,Conductor*%
G36*
X32981447Y-40352782D02*
G01*
X32993215Y-40359577D01*
X33145943Y-40400500D01*
X33238981Y-40400500D01*
X33306020Y-40420185D01*
X33351775Y-40472989D01*
X33361719Y-40542147D01*
X33337357Y-40599985D01*
X33279803Y-40674992D01*
X33272300Y-40684770D01*
X33214313Y-40824763D01*
X33214313Y-40824764D01*
X33199500Y-40937272D01*
X33199500Y-41162727D01*
X33211907Y-41256961D01*
X33214313Y-41275236D01*
X33272302Y-41415233D01*
X33305735Y-41458803D01*
X33317791Y-41474515D01*
X33342984Y-41539684D01*
X33328945Y-41608129D01*
X33317791Y-41625484D01*
X33297839Y-41651486D01*
X33241413Y-41692689D01*
X33205894Y-41698879D01*
X33204911Y-41700000D01*
X33215804Y-41782729D01*
X33213595Y-41816472D01*
X33215374Y-41816707D01*
X33199500Y-41937272D01*
X33199500Y-42092297D01*
X33179815Y-42159336D01*
X33127011Y-42205091D01*
X33057853Y-42215035D01*
X33051309Y-42213914D01*
X32978845Y-42199500D01*
X32978842Y-42199500D01*
X32821158Y-42199500D01*
X32821155Y-42199500D01*
X32666510Y-42230261D01*
X32666498Y-42230264D01*
X32520827Y-42290602D01*
X32520814Y-42290609D01*
X32389711Y-42378210D01*
X32389707Y-42378213D01*
X32278213Y-42489707D01*
X32278210Y-42489711D01*
X32190609Y-42620814D01*
X32190602Y-42620827D01*
X32130264Y-42766498D01*
X32130261Y-42766510D01*
X32099500Y-42921153D01*
X32099500Y-43078846D01*
X32130261Y-43233489D01*
X32130264Y-43233501D01*
X32190602Y-43379172D01*
X32190609Y-43379185D01*
X32278210Y-43510288D01*
X32278213Y-43510292D01*
X32389707Y-43621786D01*
X32389711Y-43621789D01*
X32520814Y-43709390D01*
X32520827Y-43709397D01*
X32666498Y-43769735D01*
X32666503Y-43769737D01*
X32777099Y-43791736D01*
X32821153Y-43800499D01*
X32821156Y-43800500D01*
X32821158Y-43800500D01*
X32978844Y-43800500D01*
X33054207Y-43785509D01*
X33123799Y-43791736D01*
X33178976Y-43834599D01*
X33202221Y-43900488D01*
X33201339Y-43923306D01*
X33199500Y-43937272D01*
X33199500Y-44162727D01*
X33215374Y-44283292D01*
X33212399Y-44283683D01*
X33212399Y-44316316D01*
X33215374Y-44316708D01*
X33199500Y-44437272D01*
X33199500Y-44662727D01*
X33215374Y-44783292D01*
X33212399Y-44783683D01*
X33212399Y-44816316D01*
X33215374Y-44816708D01*
X33199500Y-44937272D01*
X33199500Y-45162727D01*
X33215374Y-45283292D01*
X33212399Y-45283683D01*
X33212399Y-45316316D01*
X33215374Y-45316708D01*
X33199500Y-45437272D01*
X33199500Y-45607982D01*
X33179815Y-45675021D01*
X33127011Y-45720776D01*
X33057853Y-45730720D01*
X32994297Y-45701695D01*
X32987819Y-45695663D01*
X30186819Y-42894663D01*
X30153334Y-42833340D01*
X30150500Y-42806982D01*
X30150500Y-40510853D01*
X30150666Y-40510285D01*
X30150505Y-40509716D01*
X30160502Y-40476789D01*
X30170185Y-40443814D01*
X30170631Y-40443426D01*
X30170804Y-40442860D01*
X30197035Y-40420547D01*
X30222989Y-40398059D01*
X30223724Y-40397846D01*
X30224025Y-40397591D01*
X30250144Y-40390219D01*
X30257973Y-40387959D01*
X30275236Y-40385687D01*
X30275410Y-40385614D01*
X30283479Y-40384530D01*
X30304104Y-40387689D01*
X30316302Y-40387689D01*
X30316705Y-40384626D01*
X30324763Y-40385686D01*
X30324764Y-40385687D01*
X30437280Y-40400500D01*
X30437287Y-40400500D01*
X30662713Y-40400500D01*
X30662720Y-40400500D01*
X30775236Y-40385687D01*
X30775236Y-40385686D01*
X30783295Y-40384626D01*
X30783698Y-40387689D01*
X30816302Y-40387689D01*
X30816705Y-40384626D01*
X30824763Y-40385686D01*
X30824764Y-40385687D01*
X30937280Y-40400500D01*
X30937287Y-40400500D01*
X31162713Y-40400500D01*
X31162720Y-40400500D01*
X31275236Y-40385687D01*
X31275236Y-40385686D01*
X31283295Y-40384626D01*
X31283698Y-40387689D01*
X31316302Y-40387689D01*
X31316705Y-40384626D01*
X31324763Y-40385686D01*
X31324764Y-40385687D01*
X31437280Y-40400500D01*
X31437287Y-40400500D01*
X31662713Y-40400500D01*
X31662720Y-40400500D01*
X31775236Y-40385687D01*
X31775236Y-40385686D01*
X31783295Y-40384626D01*
X31783698Y-40387689D01*
X31816302Y-40387689D01*
X31816705Y-40384626D01*
X31824763Y-40385686D01*
X31824764Y-40385687D01*
X31937280Y-40400500D01*
X31937287Y-40400500D01*
X32162713Y-40400500D01*
X32162720Y-40400500D01*
X32275236Y-40385687D01*
X32275236Y-40385686D01*
X32283295Y-40384626D01*
X32283698Y-40387689D01*
X32316302Y-40387689D01*
X32316705Y-40384626D01*
X32324763Y-40385686D01*
X32324764Y-40385687D01*
X32437280Y-40400500D01*
X32437287Y-40400500D01*
X32662713Y-40400500D01*
X32662720Y-40400500D01*
X32775236Y-40385687D01*
X32871995Y-40345607D01*
X32941462Y-40338139D01*
X32981447Y-40352782D01*
G37*
%TD.AperFunction*%
%TA.AperFunction,Conductor*%
G36*
X35902398Y-42504845D02*
G01*
X35913661Y-42505248D01*
X35933609Y-42519099D01*
X35955703Y-42529189D01*
X35963285Y-42539704D01*
X35971053Y-42545098D01*
X35989062Y-42575451D01*
X35990605Y-42579178D01*
X35990609Y-42579185D01*
X36078210Y-42710288D01*
X36078213Y-42710292D01*
X36189707Y-42821786D01*
X36189711Y-42821789D01*
X36320814Y-42909390D01*
X36320827Y-42909397D01*
X36442213Y-42959676D01*
X36466503Y-42969737D01*
X36499558Y-42976312D01*
X36573553Y-42991031D01*
X36635464Y-43023416D01*
X36670038Y-43084131D01*
X36666299Y-43153901D01*
X36625432Y-43210573D01*
X36596815Y-43227209D01*
X36495734Y-43269078D01*
X36495724Y-43269083D01*
X36373580Y-43350698D01*
X36373576Y-43350701D01*
X36269701Y-43454576D01*
X36269698Y-43454580D01*
X36188083Y-43576724D01*
X36188078Y-43576733D01*
X36131861Y-43712455D01*
X36131858Y-43712465D01*
X36103200Y-43856540D01*
X36103200Y-44003459D01*
X36131858Y-44147534D01*
X36131860Y-44147542D01*
X36138144Y-44162713D01*
X36188078Y-44283266D01*
X36188083Y-44283275D01*
X36269698Y-44405419D01*
X36269701Y-44405423D01*
X36373577Y-44509299D01*
X36373580Y-44509301D01*
X36438117Y-44552423D01*
X36482922Y-44606034D01*
X36491629Y-44675359D01*
X36472329Y-44724415D01*
X36437572Y-44776432D01*
X36437568Y-44776439D01*
X36370163Y-44939170D01*
X36370161Y-44939178D01*
X36335800Y-45111924D01*
X36335800Y-45193602D01*
X36316115Y-45260641D01*
X36299481Y-45281283D01*
X35962181Y-45618583D01*
X35946663Y-45627056D01*
X35934190Y-45639590D01*
X35916634Y-45643453D01*
X35900858Y-45652068D01*
X35883221Y-45650806D01*
X35865953Y-45654607D01*
X35849097Y-45648366D01*
X35831166Y-45647084D01*
X35817009Y-45636486D01*
X35800430Y-45630348D01*
X35789623Y-45615984D01*
X35775233Y-45605212D01*
X35769008Y-45588585D01*
X35758423Y-45574516D01*
X35753408Y-45546914D01*
X35750838Y-45540047D01*
X35750500Y-45535476D01*
X35750500Y-45437280D01*
X35735687Y-45324764D01*
X35734750Y-45322504D01*
X35733763Y-45309145D01*
X35737689Y-45290885D01*
X35737689Y-45283698D01*
X35734626Y-45283295D01*
X35739672Y-45244964D01*
X35750500Y-45162720D01*
X35750500Y-44937280D01*
X35735687Y-44824764D01*
X35735686Y-44824763D01*
X35734626Y-44816705D01*
X35737689Y-44816301D01*
X35737689Y-44783698D01*
X35734626Y-44783295D01*
X35735687Y-44775236D01*
X35750500Y-44662720D01*
X35750500Y-44437280D01*
X35735687Y-44324764D01*
X35735686Y-44324763D01*
X35734626Y-44316705D01*
X35737689Y-44316301D01*
X35737689Y-44283698D01*
X35734626Y-44283295D01*
X35735687Y-44275236D01*
X35750500Y-44162720D01*
X35750500Y-43937280D01*
X35735687Y-43824764D01*
X35735686Y-43824763D01*
X35734626Y-43816705D01*
X35737689Y-43816301D01*
X35737689Y-43783698D01*
X35734626Y-43783295D01*
X35738831Y-43751353D01*
X35750500Y-43662720D01*
X35750500Y-43437280D01*
X35735687Y-43324764D01*
X35735686Y-43324763D01*
X35734626Y-43316705D01*
X35737689Y-43316301D01*
X35737689Y-43283698D01*
X35734626Y-43283295D01*
X35736498Y-43269078D01*
X35750500Y-43162720D01*
X35750500Y-42937280D01*
X35735687Y-42824764D01*
X35735686Y-42824763D01*
X35734626Y-42816705D01*
X35737689Y-42816301D01*
X35737689Y-42783698D01*
X35734626Y-42783295D01*
X35744237Y-42710289D01*
X35750500Y-42662720D01*
X35750500Y-42622902D01*
X35753675Y-42612087D01*
X35752471Y-42600883D01*
X35763342Y-42579164D01*
X35770185Y-42555863D01*
X35778701Y-42548483D01*
X35783747Y-42538404D01*
X35804637Y-42526009D01*
X35822989Y-42510108D01*
X35834142Y-42508504D01*
X35843836Y-42502753D01*
X35868109Y-42503620D01*
X35892147Y-42500164D01*
X35902398Y-42504845D01*
G37*
%TD.AperFunction*%
%TA.AperFunction,Conductor*%
G36*
X23141241Y-39778312D02*
G01*
X23163440Y-39813595D01*
X23190604Y-39879176D01*
X23190609Y-39879185D01*
X23278210Y-40010288D01*
X23278213Y-40010292D01*
X23389707Y-40121786D01*
X23389711Y-40121789D01*
X23465452Y-40172398D01*
X23510257Y-40226010D01*
X23518964Y-40295335D01*
X23488810Y-40358363D01*
X23429366Y-40395082D01*
X23396561Y-40399500D01*
X22387280Y-40399500D01*
X22387274Y-40399500D01*
X22387269Y-40399501D01*
X22315184Y-40408991D01*
X22246148Y-40398225D01*
X22193893Y-40351845D01*
X22174999Y-40286052D01*
X22174999Y-40276692D01*
X22174998Y-40276677D01*
X22164855Y-40177392D01*
X22111547Y-40016518D01*
X22111544Y-40016511D01*
X22058238Y-39930090D01*
X22039797Y-39862697D01*
X22060719Y-39796034D01*
X22114361Y-39751264D01*
X22183691Y-39742602D01*
X22200661Y-39746605D01*
X22272804Y-39769086D01*
X22343384Y-39775500D01*
X22343387Y-39775500D01*
X22856613Y-39775500D01*
X22856616Y-39775500D01*
X22927196Y-39769086D01*
X23011992Y-39742662D01*
X23081848Y-39741511D01*
X23141241Y-39778312D01*
G37*
%TD.AperFunction*%
%TA.AperFunction,Conductor*%
G36*
X20705703Y-30194448D02*
G01*
X20712181Y-30200480D01*
X20863556Y-30351855D01*
X20897041Y-30413178D01*
X20894260Y-30476426D01*
X20856409Y-30597893D01*
X20850000Y-30668427D01*
X20850000Y-30750000D01*
X21281365Y-30750000D01*
X21321181Y-30757919D01*
X21321301Y-30757473D01*
X21328116Y-30759299D01*
X21328814Y-30759438D01*
X21329143Y-30759574D01*
X21329148Y-30759575D01*
X21329151Y-30759577D01*
X21481879Y-30800501D01*
X21481882Y-30800501D01*
X21626000Y-30800501D01*
X21634685Y-30803051D01*
X21643647Y-30801763D01*
X21667687Y-30812741D01*
X21693039Y-30820186D01*
X21698966Y-30827026D01*
X21707203Y-30830788D01*
X21721492Y-30853022D01*
X21738794Y-30872990D01*
X21741081Y-30883504D01*
X21744977Y-30889566D01*
X21750000Y-30924501D01*
X21750000Y-31126000D01*
X21730315Y-31193039D01*
X21677511Y-31238794D01*
X21626000Y-31250000D01*
X20850001Y-31250000D01*
X20850001Y-31331582D01*
X20856408Y-31402102D01*
X20856409Y-31402107D01*
X20906981Y-31564396D01*
X20994927Y-31709877D01*
X21115121Y-31830071D01*
X21115125Y-31830074D01*
X21173527Y-31865379D01*
X21220715Y-31916906D01*
X21232554Y-31985765D01*
X21225560Y-32014829D01*
X21205908Y-32067517D01*
X21199501Y-32127116D01*
X21199500Y-32127135D01*
X21199500Y-33272870D01*
X21199501Y-33272876D01*
X21205908Y-33332483D01*
X21256202Y-33467328D01*
X21256206Y-33467335D01*
X21342452Y-33582544D01*
X21342455Y-33582547D01*
X21457664Y-33668793D01*
X21457671Y-33668797D01*
X21592517Y-33719091D01*
X21592516Y-33719091D01*
X21599444Y-33719835D01*
X21652127Y-33725500D01*
X22675500Y-33725499D01*
X22742539Y-33745183D01*
X22788294Y-33797987D01*
X22799500Y-33849499D01*
X22799500Y-35382152D01*
X22779815Y-35449191D01*
X22727011Y-35494946D01*
X22699692Y-35503769D01*
X22566508Y-35530261D01*
X22566498Y-35530264D01*
X22420827Y-35590602D01*
X22420814Y-35590609D01*
X22289711Y-35678210D01*
X22289707Y-35678213D01*
X22178213Y-35789707D01*
X22178210Y-35789711D01*
X22090609Y-35920814D01*
X22090604Y-35920824D01*
X22042088Y-36037953D01*
X21998247Y-36092356D01*
X21931953Y-36114421D01*
X21927527Y-36114500D01*
X21652130Y-36114500D01*
X21652123Y-36114501D01*
X21592516Y-36120908D01*
X21457671Y-36171202D01*
X21457664Y-36171206D01*
X21342455Y-36257452D01*
X21342452Y-36257455D01*
X21256206Y-36372664D01*
X21256202Y-36372671D01*
X21205908Y-36507517D01*
X21199501Y-36567116D01*
X21199500Y-36567135D01*
X21199500Y-37712870D01*
X21199501Y-37712876D01*
X21204092Y-37755582D01*
X21200000Y-37778259D01*
X21200000Y-38676000D01*
X21180315Y-38743039D01*
X21127511Y-38788794D01*
X21076000Y-38800000D01*
X20824000Y-38800000D01*
X20756961Y-38780315D01*
X20711206Y-38727511D01*
X20700000Y-38676000D01*
X20700000Y-37825000D01*
X20699999Y-37824999D01*
X20693436Y-37825000D01*
X20693416Y-37825001D01*
X20635719Y-37830243D01*
X20567173Y-37816705D01*
X20516829Y-37768257D01*
X20500500Y-37706752D01*
X20500500Y-30288161D01*
X20520185Y-30221122D01*
X20572989Y-30175367D01*
X20642147Y-30165423D01*
X20705703Y-30194448D01*
G37*
%TD.AperFunction*%
%TA.AperFunction,Conductor*%
G36*
X34893039Y-36669685D02*
G01*
X34938794Y-36722489D01*
X34950000Y-36774000D01*
X34950000Y-37170000D01*
X35026000Y-37170000D01*
X35093039Y-37189685D01*
X35138794Y-37242489D01*
X35150000Y-37294000D01*
X35150000Y-38126000D01*
X35130315Y-38193039D01*
X35077511Y-38238794D01*
X35026000Y-38250000D01*
X34774000Y-38250000D01*
X34706961Y-38230315D01*
X34661206Y-38177511D01*
X34650000Y-38126000D01*
X34650000Y-37730000D01*
X34574000Y-37730000D01*
X34506961Y-37710315D01*
X34461206Y-37657511D01*
X34450000Y-37606000D01*
X34450000Y-36774000D01*
X34469685Y-36706961D01*
X34522489Y-36661206D01*
X34574000Y-36650000D01*
X34826000Y-36650000D01*
X34893039Y-36669685D01*
G37*
%TD.AperFunction*%
%TA.AperFunction,Conductor*%
G36*
X30605703Y-32845383D02*
G01*
X30612181Y-32851415D01*
X30919479Y-33158713D01*
X30919481Y-33158716D01*
X30921697Y-33160932D01*
X30944047Y-33193824D01*
X30944285Y-33193684D01*
X30946516Y-33197456D01*
X30947802Y-33199349D01*
X30948256Y-33200400D01*
X31031916Y-33341861D01*
X31036702Y-33348031D01*
X31034256Y-33349927D01*
X31060857Y-33398642D01*
X31055873Y-33468334D01*
X31035069Y-33500703D01*
X31036702Y-33501969D01*
X31031917Y-33508137D01*
X30948255Y-33649603D01*
X30948254Y-33649606D01*
X30902402Y-33807426D01*
X30902401Y-33807432D01*
X30899500Y-33844298D01*
X30899500Y-34275701D01*
X30902401Y-34312567D01*
X30902402Y-34312573D01*
X30948254Y-34470393D01*
X30948255Y-34470396D01*
X31031917Y-34611862D01*
X31036702Y-34618031D01*
X31034369Y-34619840D01*
X31061210Y-34668995D01*
X31056226Y-34738687D01*
X31035470Y-34771021D01*
X31037097Y-34772283D01*
X31032313Y-34778449D01*
X30948718Y-34919801D01*
X30902899Y-35077513D01*
X30902704Y-35079998D01*
X30902705Y-35080000D01*
X32276000Y-35080000D01*
X32343039Y-35099685D01*
X32388794Y-35152489D01*
X32400000Y-35204000D01*
X32400000Y-35456000D01*
X32380315Y-35523039D01*
X32327511Y-35568794D01*
X32276000Y-35580000D01*
X30902705Y-35580000D01*
X30902704Y-35580001D01*
X30902899Y-35582486D01*
X30948718Y-35740198D01*
X31032314Y-35881552D01*
X31037100Y-35887722D01*
X31034640Y-35889629D01*
X31061210Y-35938288D01*
X31056226Y-36007980D01*
X31035162Y-36040781D01*
X31036699Y-36041974D01*
X31031915Y-36048140D01*
X30948255Y-36189603D01*
X30948254Y-36189606D01*
X30902402Y-36347426D01*
X30902401Y-36347432D01*
X30899500Y-36384298D01*
X30899500Y-36815701D01*
X30902401Y-36852567D01*
X30902402Y-36852573D01*
X30948254Y-37010393D01*
X30948255Y-37010396D01*
X31031917Y-37151862D01*
X31031923Y-37151870D01*
X31148129Y-37268076D01*
X31148133Y-37268079D01*
X31148135Y-37268081D01*
X31289602Y-37351744D01*
X31310557Y-37357832D01*
X31447426Y-37397597D01*
X31447429Y-37397597D01*
X31447431Y-37397598D01*
X31484306Y-37400500D01*
X31484314Y-37400500D01*
X33315686Y-37400500D01*
X33315694Y-37400500D01*
X33352569Y-37397598D01*
X33352571Y-37397597D01*
X33352573Y-37397597D01*
X33394191Y-37385505D01*
X33510398Y-37351744D01*
X33651865Y-37268081D01*
X33657724Y-37262222D01*
X33719046Y-37228734D01*
X33788737Y-37233715D01*
X33844673Y-37275584D01*
X33850948Y-37284802D01*
X33877428Y-37327733D01*
X33997269Y-37447574D01*
X34005509Y-37452656D01*
X34052235Y-37504603D01*
X34063459Y-37573565D01*
X34045954Y-37623293D01*
X33988454Y-37716513D01*
X33988452Y-37716518D01*
X33935144Y-37877393D01*
X33925000Y-37976677D01*
X33925000Y-37977478D01*
X33924951Y-37977643D01*
X33924840Y-37979833D01*
X33924679Y-37979824D01*
X33924679Y-37979826D01*
X33924655Y-37979823D01*
X33924316Y-37979806D01*
X33905315Y-38044517D01*
X33852511Y-38090272D01*
X33784915Y-38099991D01*
X33784905Y-38100097D01*
X33784475Y-38100054D01*
X33783353Y-38100216D01*
X33779616Y-38099576D01*
X33778843Y-38099500D01*
X33778842Y-38099500D01*
X33621158Y-38099500D01*
X33621155Y-38099500D01*
X33466510Y-38130261D01*
X33466498Y-38130264D01*
X33320827Y-38190602D01*
X33320818Y-38190607D01*
X33313306Y-38195627D01*
X33246628Y-38216503D01*
X33179248Y-38198017D01*
X33132559Y-38146037D01*
X33129856Y-38139976D01*
X33127699Y-38134770D01*
X33127698Y-38134767D01*
X33035451Y-38014549D01*
X32915233Y-37922302D01*
X32915229Y-37922300D01*
X32844676Y-37893076D01*
X32775236Y-37864313D01*
X32760698Y-37862399D01*
X32662727Y-37849500D01*
X32662720Y-37849500D01*
X32437280Y-37849500D01*
X32437272Y-37849500D01*
X32350393Y-37860938D01*
X32324764Y-37864313D01*
X32324762Y-37864313D01*
X32316708Y-37865374D01*
X32316316Y-37862399D01*
X32283684Y-37862399D01*
X32283292Y-37865374D01*
X32275237Y-37864313D01*
X32275236Y-37864313D01*
X32246271Y-37860499D01*
X32162727Y-37849500D01*
X32162720Y-37849500D01*
X31937280Y-37849500D01*
X31937272Y-37849500D01*
X31850393Y-37860938D01*
X31824764Y-37864313D01*
X31824762Y-37864313D01*
X31816708Y-37865374D01*
X31816316Y-37862399D01*
X31783684Y-37862399D01*
X31783292Y-37865374D01*
X31775237Y-37864313D01*
X31775236Y-37864313D01*
X31746271Y-37860499D01*
X31662727Y-37849500D01*
X31662720Y-37849500D01*
X31437280Y-37849500D01*
X31437272Y-37849500D01*
X31350393Y-37860938D01*
X31324764Y-37864313D01*
X31324762Y-37864313D01*
X31316708Y-37865374D01*
X31316316Y-37862399D01*
X31283684Y-37862399D01*
X31283292Y-37865374D01*
X31275237Y-37864313D01*
X31275236Y-37864313D01*
X31246271Y-37860499D01*
X31162727Y-37849500D01*
X31162720Y-37849500D01*
X30937280Y-37849500D01*
X30937272Y-37849500D01*
X30850393Y-37860938D01*
X30824764Y-37864313D01*
X30824762Y-37864313D01*
X30816708Y-37865374D01*
X30816316Y-37862399D01*
X30783684Y-37862399D01*
X30783292Y-37865374D01*
X30775237Y-37864313D01*
X30775236Y-37864313D01*
X30746271Y-37860499D01*
X30662727Y-37849500D01*
X30662720Y-37849500D01*
X30437280Y-37849500D01*
X30437272Y-37849500D01*
X30350393Y-37860938D01*
X30324764Y-37864313D01*
X30324762Y-37864313D01*
X30316708Y-37865374D01*
X30316316Y-37862399D01*
X30283684Y-37862399D01*
X30283292Y-37865374D01*
X30275237Y-37864313D01*
X30275236Y-37864313D01*
X30246271Y-37860499D01*
X30162727Y-37849500D01*
X30162720Y-37849500D01*
X29966196Y-37849500D01*
X29899157Y-37829815D01*
X29853402Y-37777011D01*
X29843458Y-37707853D01*
X29872483Y-37644297D01*
X29878515Y-37637819D01*
X30015323Y-37501011D01*
X30158506Y-37357828D01*
X30158511Y-37357824D01*
X30168714Y-37347620D01*
X30168716Y-37347620D01*
X30280520Y-37235816D01*
X30348416Y-37118216D01*
X30359577Y-37098885D01*
X30400501Y-36946157D01*
X30400501Y-36788043D01*
X30400501Y-36780448D01*
X30400500Y-36780430D01*
X30400500Y-32939096D01*
X30420185Y-32872057D01*
X30472989Y-32826302D01*
X30542147Y-32816358D01*
X30605703Y-32845383D01*
G37*
%TD.AperFunction*%
%TA.AperFunction,Conductor*%
G36*
X27617941Y-37420185D02*
G01*
X27663696Y-37472989D01*
X27673640Y-37542147D01*
X27644615Y-37605703D01*
X27638583Y-37612181D01*
X27574172Y-37676591D01*
X27574170Y-37676593D01*
X27569480Y-37681284D01*
X27538920Y-37734216D01*
X27538153Y-37735544D01*
X27538149Y-37735551D01*
X27505821Y-37791545D01*
X27455253Y-37839760D01*
X27414620Y-37852483D01*
X27368830Y-37858511D01*
X27324764Y-37864313D01*
X27324763Y-37864313D01*
X27316707Y-37865374D01*
X27316472Y-37863595D01*
X27282729Y-37865804D01*
X27199999Y-37854911D01*
X27182972Y-37869844D01*
X27178486Y-37871924D01*
X27175525Y-37875881D01*
X27147108Y-37886480D01*
X27119589Y-37899246D01*
X27114692Y-37898571D01*
X27110061Y-37900299D01*
X27080419Y-37893851D01*
X27050373Y-37889713D01*
X27045297Y-37886211D01*
X27041788Y-37885448D01*
X27013533Y-37864296D01*
X26988997Y-37839760D01*
X26940781Y-37791545D01*
X26918716Y-37769480D01*
X26918713Y-37769478D01*
X26761416Y-37612181D01*
X26727931Y-37550858D01*
X26732915Y-37481166D01*
X26774787Y-37425233D01*
X26840251Y-37400816D01*
X26849097Y-37400500D01*
X27550902Y-37400500D01*
X27617941Y-37420185D01*
G37*
%TD.AperFunction*%
%TA.AperFunction,Conductor*%
G36*
X37475659Y-35686740D02*
G01*
X37486563Y-35686863D01*
X37507139Y-35700416D01*
X37529740Y-35710234D01*
X37539972Y-35722042D01*
X37544913Y-35725296D01*
X37547132Y-35730303D01*
X37555829Y-35740339D01*
X37557681Y-35743341D01*
X37557683Y-35743344D01*
X37681654Y-35867315D01*
X37759821Y-35915529D01*
X37806545Y-35967477D01*
X37817768Y-36036440D01*
X37801460Y-36084182D01*
X37798259Y-36089594D01*
X37798254Y-36089607D01*
X37752402Y-36247426D01*
X37752401Y-36247432D01*
X37749500Y-36284298D01*
X37749500Y-37440686D01*
X37749596Y-37443132D01*
X37748723Y-37443166D01*
X37746570Y-37453399D01*
X37748547Y-37467147D01*
X37739518Y-37486916D01*
X37735045Y-37508180D01*
X37725292Y-37518066D01*
X37719522Y-37530703D01*
X37701238Y-37542453D01*
X37685979Y-37557923D01*
X37671221Y-37561743D01*
X37660744Y-37568477D01*
X37625809Y-37573500D01*
X37574191Y-37573500D01*
X37507152Y-37553815D01*
X37461397Y-37501011D01*
X37451163Y-37443161D01*
X37450404Y-37443132D01*
X37450500Y-37440686D01*
X37450500Y-36284313D01*
X37450499Y-36284298D01*
X37449371Y-36269967D01*
X37447598Y-36247431D01*
X37445660Y-36240761D01*
X37401745Y-36089606D01*
X37401744Y-36089603D01*
X37401744Y-36089602D01*
X37318081Y-35948135D01*
X37318079Y-35948133D01*
X37318076Y-35948129D01*
X37315838Y-35945891D01*
X37314643Y-35943704D01*
X37313298Y-35941969D01*
X37313577Y-35941751D01*
X37313308Y-35941258D01*
X37308899Y-35938354D01*
X37296736Y-35910909D01*
X37282353Y-35884568D01*
X37282729Y-35879302D01*
X37280591Y-35874477D01*
X37285195Y-35844821D01*
X37287337Y-35814876D01*
X37290718Y-35809248D01*
X37291311Y-35805434D01*
X37303055Y-35788720D01*
X37310724Y-35775959D01*
X37313181Y-35773186D01*
X37342712Y-35743656D01*
X37350389Y-35731208D01*
X37357498Y-35723189D01*
X37378377Y-35710100D01*
X37396694Y-35693623D01*
X37407456Y-35691870D01*
X37416697Y-35686078D01*
X37441334Y-35686354D01*
X37465656Y-35682395D01*
X37475659Y-35686740D01*
G37*
%TD.AperFunction*%
%TA.AperFunction,Conductor*%
G36*
X24205703Y-34005384D02*
G01*
X24212181Y-34011416D01*
X24288181Y-34087416D01*
X24321666Y-34148739D01*
X24324500Y-34175097D01*
X24324500Y-34523337D01*
X24324501Y-34523355D01*
X24334650Y-34622707D01*
X24334651Y-34622710D01*
X24387996Y-34783694D01*
X24388001Y-34783705D01*
X24477029Y-34928040D01*
X24477032Y-34928044D01*
X24486660Y-34937672D01*
X24520145Y-34998995D01*
X24515161Y-35068687D01*
X24486663Y-35113031D01*
X24477428Y-35122265D01*
X24477424Y-35122271D01*
X24388457Y-35266507D01*
X24388452Y-35266518D01*
X24335144Y-35427393D01*
X24325000Y-35526677D01*
X24325000Y-35617532D01*
X24317956Y-35641520D01*
X24314988Y-35666344D01*
X24308282Y-35674465D01*
X24305315Y-35684571D01*
X24286421Y-35700942D01*
X24270503Y-35720222D01*
X24260470Y-35723429D01*
X24252511Y-35730326D01*
X24227765Y-35733884D01*
X24203951Y-35741497D01*
X24188045Y-35739595D01*
X24183353Y-35740270D01*
X24168907Y-35737307D01*
X24092407Y-35716809D01*
X24032746Y-35680444D01*
X24002217Y-35617597D01*
X24000500Y-35597034D01*
X24000500Y-34099097D01*
X24020185Y-34032058D01*
X24072989Y-33986303D01*
X24142147Y-33976359D01*
X24205703Y-34005384D01*
G37*
%TD.AperFunction*%
%TA.AperFunction,Conductor*%
G36*
X39442539Y-20520185D02*
G01*
X39488294Y-20572989D01*
X39499500Y-20624500D01*
X39499500Y-31636377D01*
X39479815Y-31703416D01*
X39427011Y-31749171D01*
X39357853Y-31759115D01*
X39294297Y-31730090D01*
X39269962Y-31701475D01*
X39242317Y-31656656D01*
X39118345Y-31532684D01*
X38969124Y-31440643D01*
X38969119Y-31440641D01*
X38802697Y-31385494D01*
X38802690Y-31385493D01*
X38699986Y-31375000D01*
X38650000Y-31375000D01*
X38650000Y-34676000D01*
X38630315Y-34743039D01*
X38577511Y-34788794D01*
X38526000Y-34800000D01*
X38274000Y-34800000D01*
X38206961Y-34780315D01*
X38161206Y-34727511D01*
X38150000Y-34676000D01*
X38150000Y-31375000D01*
X38149999Y-31374999D01*
X38100029Y-31375000D01*
X38100011Y-31375001D01*
X37997302Y-31385494D01*
X37830880Y-31440641D01*
X37830875Y-31440643D01*
X37681654Y-31532684D01*
X37557683Y-31656655D01*
X37557679Y-31656660D01*
X37555826Y-31659665D01*
X37554018Y-31661290D01*
X37553202Y-31662323D01*
X37553025Y-31662183D01*
X37503874Y-31706385D01*
X37434911Y-31717601D01*
X37370831Y-31689752D01*
X37344753Y-31659653D01*
X37344737Y-31659628D01*
X37342712Y-31656344D01*
X37218656Y-31532288D01*
X37069334Y-31440186D01*
X36902797Y-31385001D01*
X36902795Y-31385000D01*
X36800010Y-31374500D01*
X36199999Y-31374500D01*
X36199983Y-31374501D01*
X36189413Y-31375581D01*
X36187493Y-31375224D01*
X36185665Y-31375906D01*
X36153301Y-31368865D01*
X36120721Y-31362807D01*
X36118694Y-31361337D01*
X36117392Y-31361054D01*
X36089138Y-31339903D01*
X35987590Y-31238355D01*
X35987588Y-31238352D01*
X35868717Y-31119481D01*
X35868709Y-31119475D01*
X35858681Y-31113685D01*
X35815146Y-31071398D01*
X35722968Y-30921956D01*
X35603044Y-30802032D01*
X35603040Y-30802029D01*
X35458705Y-30713001D01*
X35458699Y-30712998D01*
X35458697Y-30712997D01*
X35458694Y-30712996D01*
X35297709Y-30659651D01*
X35198346Y-30649500D01*
X34601662Y-30649500D01*
X34601644Y-30649501D01*
X34502292Y-30659650D01*
X34502289Y-30659651D01*
X34341305Y-30712996D01*
X34341294Y-30713001D01*
X34196959Y-30802029D01*
X34196955Y-30802032D01*
X34077032Y-30921955D01*
X34077029Y-30921959D01*
X34012839Y-31026027D01*
X34011402Y-31027319D01*
X34010836Y-31029169D01*
X33985534Y-31050586D01*
X33960891Y-31072752D01*
X33958981Y-31073062D01*
X33957507Y-31074311D01*
X33924646Y-31078649D01*
X33891928Y-31083973D01*
X33890155Y-31083202D01*
X33888239Y-31083456D01*
X33858248Y-31069339D01*
X33827846Y-31056130D01*
X33826216Y-31054262D01*
X33825022Y-31053700D01*
X33812891Y-31038991D01*
X33802219Y-31026761D01*
X33754872Y-30951184D01*
X33749075Y-30930567D01*
X33738802Y-30911776D01*
X33739808Y-30897602D01*
X33735962Y-30883922D01*
X33742232Y-30863443D01*
X33743749Y-30842082D01*
X33753348Y-30827143D01*
X33756419Y-30817114D01*
X33763815Y-30810853D01*
X33764856Y-30809232D01*
X33763301Y-30808026D01*
X33768077Y-30801868D01*
X33768081Y-30801865D01*
X33851744Y-30660398D01*
X33897598Y-30502569D01*
X33900500Y-30465694D01*
X33900500Y-30362065D01*
X33920185Y-30295026D01*
X33972989Y-30249271D01*
X34042147Y-30239327D01*
X34063497Y-30244357D01*
X34202292Y-30290349D01*
X34301655Y-30300500D01*
X34898344Y-30300499D01*
X34898352Y-30300498D01*
X34898355Y-30300498D01*
X34953606Y-30294854D01*
X34997708Y-30290349D01*
X35158697Y-30237003D01*
X35209974Y-30205374D01*
X35277364Y-30186933D01*
X35344028Y-30207854D01*
X35381186Y-30246759D01*
X35406214Y-30288161D01*
X35419530Y-30310188D01*
X35539811Y-30430469D01*
X35539813Y-30430470D01*
X35539815Y-30430472D01*
X35685394Y-30518478D01*
X35847804Y-30569086D01*
X35918384Y-30575500D01*
X35918387Y-30575500D01*
X36431613Y-30575500D01*
X36431616Y-30575500D01*
X36502196Y-30569086D01*
X36664606Y-30518478D01*
X36810185Y-30430472D01*
X36850755Y-30389902D01*
X36912319Y-30328339D01*
X36973642Y-30294854D01*
X37043334Y-30299838D01*
X37087681Y-30328339D01*
X37189811Y-30430469D01*
X37189813Y-30430470D01*
X37189815Y-30430472D01*
X37335394Y-30518478D01*
X37497804Y-30569086D01*
X37568384Y-30575500D01*
X37568387Y-30575500D01*
X38081613Y-30575500D01*
X38081616Y-30575500D01*
X38152196Y-30569086D01*
X38314606Y-30518478D01*
X38460185Y-30430472D01*
X38580472Y-30310185D01*
X38668478Y-30164606D01*
X38719086Y-30002196D01*
X38725500Y-29931616D01*
X38725500Y-29268384D01*
X38719086Y-29197804D01*
X38668478Y-29035394D01*
X38580472Y-28889815D01*
X38580470Y-28889813D01*
X38580469Y-28889811D01*
X38478339Y-28787681D01*
X38444854Y-28726358D01*
X38449838Y-28656666D01*
X38478339Y-28612319D01*
X38580468Y-28510189D01*
X38580469Y-28510188D01*
X38580472Y-28510185D01*
X38668478Y-28364606D01*
X38719086Y-28202196D01*
X38725500Y-28131616D01*
X38725500Y-27468384D01*
X38719086Y-27397804D01*
X38668478Y-27235394D01*
X38580472Y-27089815D01*
X38580470Y-27089813D01*
X38580469Y-27089811D01*
X38461819Y-26971161D01*
X38428334Y-26909838D01*
X38425500Y-26883480D01*
X38425500Y-25114059D01*
X38425501Y-25114046D01*
X38425501Y-24945945D01*
X38425501Y-24945943D01*
X38384577Y-24793215D01*
X38355639Y-24743095D01*
X38305520Y-24656284D01*
X38193716Y-24544480D01*
X38193715Y-24544479D01*
X38189385Y-24540149D01*
X38189374Y-24540139D01*
X38186818Y-24537583D01*
X38153333Y-24476260D01*
X38150499Y-24449902D01*
X38150499Y-23224998D01*
X38150498Y-23224981D01*
X38139999Y-23122203D01*
X38139998Y-23122200D01*
X38102104Y-23007845D01*
X38084814Y-22955666D01*
X37992712Y-22806344D01*
X37868656Y-22682288D01*
X37719334Y-22590186D01*
X37552797Y-22535001D01*
X37552795Y-22535000D01*
X37450010Y-22524500D01*
X36149998Y-22524500D01*
X36149981Y-22524501D01*
X36047203Y-22535000D01*
X36047200Y-22535001D01*
X35880668Y-22590185D01*
X35880663Y-22590187D01*
X35731342Y-22682289D01*
X35607289Y-22806342D01*
X35511821Y-22961121D01*
X35459873Y-23007845D01*
X35390910Y-23019068D01*
X35326828Y-22991224D01*
X35318601Y-22983705D01*
X35179786Y-22844890D01*
X35007820Y-22719951D01*
X34818414Y-22623444D01*
X34818413Y-22623443D01*
X34818412Y-22623443D01*
X34616243Y-22557754D01*
X34616241Y-22557753D01*
X34616240Y-22557753D01*
X34454957Y-22532208D01*
X34406287Y-22524500D01*
X34193713Y-22524500D01*
X34145042Y-22532208D01*
X33983760Y-22557753D01*
X33781585Y-22623444D01*
X33592179Y-22719951D01*
X33420213Y-22844890D01*
X33269894Y-22995209D01*
X33269890Y-22995214D01*
X33150008Y-23160218D01*
X33094678Y-23202884D01*
X33025065Y-23208863D01*
X32963270Y-23176257D01*
X32949372Y-23160218D01*
X32829727Y-22995540D01*
X32829723Y-22995535D01*
X32679464Y-22845276D01*
X32679459Y-22845272D01*
X32507557Y-22720379D01*
X32318215Y-22623903D01*
X32116124Y-22558241D01*
X32050000Y-22547768D01*
X32050000Y-23595854D01*
X31983343Y-23557370D01*
X31862535Y-23525000D01*
X31737465Y-23525000D01*
X31616657Y-23557370D01*
X31550000Y-23595854D01*
X31550000Y-22547768D01*
X31549999Y-22547768D01*
X31483875Y-22558241D01*
X31281784Y-22623903D01*
X31092442Y-22720379D01*
X30920540Y-22845272D01*
X30916838Y-22848435D01*
X30915900Y-22847337D01*
X30860236Y-22877718D01*
X30790545Y-22872719D01*
X30746222Y-22844227D01*
X30264350Y-22362355D01*
X30264348Y-22362352D01*
X30145477Y-22243481D01*
X30145476Y-22243480D01*
X30058664Y-22193360D01*
X30058664Y-22193359D01*
X30058660Y-22193358D01*
X30008545Y-22164423D01*
X29855817Y-22123499D01*
X29697703Y-22123499D01*
X29690107Y-22123499D01*
X29690091Y-22123500D01*
X27755057Y-22123500D01*
X27596942Y-22123500D01*
X27444215Y-22164423D01*
X27444214Y-22164423D01*
X27444212Y-22164424D01*
X27444209Y-22164425D01*
X27394096Y-22193359D01*
X27394095Y-22193360D01*
X27350689Y-22218420D01*
X27307285Y-22243479D01*
X27307282Y-22243481D01*
X27195480Y-22355284D01*
X27195478Y-22355286D01*
X25367422Y-24183343D01*
X23562584Y-25988181D01*
X23501261Y-26021666D01*
X23474903Y-26024500D01*
X23143384Y-26024500D01*
X23124145Y-26026248D01*
X23072807Y-26030913D01*
X22910393Y-26081522D01*
X22764811Y-26169530D01*
X22764810Y-26169531D01*
X22662681Y-26271661D01*
X22601358Y-26305146D01*
X22531666Y-26300162D01*
X22487319Y-26271661D01*
X22385188Y-26169530D01*
X22239606Y-26081522D01*
X22219526Y-26075265D01*
X22077196Y-26030914D01*
X22077194Y-26030913D01*
X22077192Y-26030913D01*
X22027778Y-26026423D01*
X22006616Y-26024500D01*
X21493384Y-26024500D01*
X21474145Y-26026248D01*
X21422807Y-26030913D01*
X21260393Y-26081522D01*
X21114811Y-26169530D01*
X20994530Y-26289811D01*
X20906522Y-26435393D01*
X20855913Y-26597807D01*
X20849500Y-26668386D01*
X20849500Y-26999902D01*
X20840855Y-27029342D01*
X20834332Y-27059329D01*
X20830577Y-27064344D01*
X20829815Y-27066941D01*
X20813181Y-27087583D01*
X20712181Y-27188583D01*
X20650858Y-27222068D01*
X20581166Y-27217084D01*
X20525233Y-27175212D01*
X20500816Y-27109748D01*
X20500500Y-27100902D01*
X20500500Y-22893713D01*
X21049500Y-22893713D01*
X21049500Y-23106287D01*
X21052021Y-23122203D01*
X21065746Y-23208863D01*
X21082754Y-23316243D01*
X21083709Y-23319183D01*
X21148444Y-23518414D01*
X21244951Y-23707820D01*
X21369890Y-23879786D01*
X21520213Y-24030109D01*
X21692179Y-24155048D01*
X21692181Y-24155049D01*
X21692184Y-24155051D01*
X21881588Y-24251557D01*
X22083757Y-24317246D01*
X22293713Y-24350500D01*
X22293714Y-24350500D01*
X22506286Y-24350500D01*
X22506287Y-24350500D01*
X22716243Y-24317246D01*
X22918412Y-24251557D01*
X23107816Y-24155051D01*
X23129789Y-24139086D01*
X23279786Y-24030109D01*
X23279788Y-24030106D01*
X23279792Y-24030104D01*
X23430104Y-23879792D01*
X23430106Y-23879788D01*
X23430109Y-23879786D01*
X23555048Y-23707820D01*
X23555047Y-23707820D01*
X23555051Y-23707816D01*
X23651557Y-23518412D01*
X23717246Y-23316243D01*
X23750500Y-23106287D01*
X23750500Y-22893713D01*
X23717246Y-22683757D01*
X23651557Y-22481588D01*
X23555051Y-22292184D01*
X23555049Y-22292181D01*
X23555048Y-22292179D01*
X23430109Y-22120213D01*
X23279786Y-21969890D01*
X23107820Y-21844951D01*
X22918414Y-21748444D01*
X22918413Y-21748443D01*
X22918412Y-21748443D01*
X22716243Y-21682754D01*
X22716241Y-21682753D01*
X22716240Y-21682753D01*
X22554957Y-21657208D01*
X22506287Y-21649500D01*
X22293713Y-21649500D01*
X22245042Y-21657208D01*
X22083760Y-21682753D01*
X21881585Y-21748444D01*
X21692179Y-21844951D01*
X21520213Y-21969890D01*
X21369890Y-22120213D01*
X21244951Y-22292179D01*
X21148444Y-22481585D01*
X21082753Y-22683760D01*
X21063338Y-22806342D01*
X21049500Y-22893713D01*
X20500500Y-22893713D01*
X20500500Y-20624500D01*
X20520185Y-20557461D01*
X20572989Y-20511706D01*
X20624500Y-20500500D01*
X39375500Y-20500500D01*
X39442539Y-20520185D01*
G37*
%TD.AperFunction*%
%TA.AperFunction,Conductor*%
G36*
X24495516Y-30547049D02*
G01*
X24510814Y-30560049D01*
X25137291Y-31186526D01*
X25170776Y-31247849D01*
X25173610Y-31274207D01*
X25173610Y-31626000D01*
X25153925Y-31693039D01*
X25101121Y-31738794D01*
X25049612Y-31750000D01*
X25001694Y-31750000D01*
X25001676Y-31750001D01*
X24902392Y-31760144D01*
X24741518Y-31813452D01*
X24741507Y-31813457D01*
X24597271Y-31902424D01*
X24516390Y-31983305D01*
X24513955Y-31984634D01*
X24512523Y-31987008D01*
X24483469Y-32001280D01*
X24455066Y-32016789D01*
X24451540Y-32016964D01*
X24449812Y-32017814D01*
X24437609Y-32017659D01*
X24414532Y-32018810D01*
X24409485Y-32018229D01*
X24315328Y-31999500D01*
X24246748Y-31999500D01*
X24239684Y-31998687D01*
X24213792Y-31987734D01*
X24186822Y-31979815D01*
X24181462Y-31974058D01*
X24175334Y-31971466D01*
X24165089Y-31956472D01*
X24149362Y-31939580D01*
X24149111Y-31939769D01*
X24147359Y-31937429D01*
X24145027Y-31934924D01*
X24143795Y-31932668D01*
X24121154Y-31902424D01*
X24117936Y-31898125D01*
X24093520Y-31832662D01*
X24108371Y-31764389D01*
X24129521Y-31736134D01*
X24155472Y-31710185D01*
X24243478Y-31564606D01*
X24294086Y-31402196D01*
X24300500Y-31331616D01*
X24300500Y-30668384D01*
X24299642Y-30658953D01*
X24313176Y-30590412D01*
X24361620Y-30540063D01*
X24429594Y-30523898D01*
X24495516Y-30547049D01*
G37*
%TD.AperFunction*%
%TA.AperFunction,Conductor*%
G36*
X30105703Y-29805383D02*
G01*
X30112181Y-29811415D01*
X30919479Y-30618713D01*
X30919481Y-30618716D01*
X30921697Y-30620932D01*
X30921718Y-30620970D01*
X30944047Y-30653824D01*
X30944285Y-30653684D01*
X30946517Y-30657459D01*
X30947802Y-30659349D01*
X30948256Y-30660400D01*
X31031916Y-30801861D01*
X31036702Y-30808031D01*
X31034369Y-30809840D01*
X31061210Y-30858995D01*
X31056226Y-30928687D01*
X31035470Y-30961021D01*
X31037097Y-30962283D01*
X31032313Y-30968449D01*
X30948717Y-31109803D01*
X30948716Y-31109804D01*
X30921739Y-31202661D01*
X30884133Y-31261546D01*
X30820660Y-31290752D01*
X30751473Y-31281006D01*
X30714982Y-31255746D01*
X29936819Y-30477583D01*
X29903334Y-30416260D01*
X29900500Y-30389902D01*
X29900500Y-29899096D01*
X29920185Y-29832057D01*
X29972989Y-29786302D01*
X30042147Y-29776358D01*
X30105703Y-29805383D01*
G37*
%TD.AperFunction*%
%TA.AperFunction,Conductor*%
G36*
X27898918Y-23452830D02*
G01*
X27954851Y-23494702D01*
X27979268Y-23560166D01*
X27978057Y-23588410D01*
X27959062Y-23708343D01*
X27949500Y-23768713D01*
X27949500Y-24231287D01*
X27959062Y-24291657D01*
X27968381Y-24350500D01*
X27982754Y-24441243D01*
X28016297Y-24544478D01*
X28048444Y-24643414D01*
X28144951Y-24832820D01*
X28269890Y-25004786D01*
X28420213Y-25155109D01*
X28592184Y-25280051D01*
X28592184Y-25280052D01*
X28631793Y-25300233D01*
X28682590Y-25348206D01*
X28699500Y-25410718D01*
X28699500Y-26852695D01*
X28679815Y-26919734D01*
X28627011Y-26965489D01*
X28557853Y-26975433D01*
X28517592Y-26961263D01*
X28517554Y-26961353D01*
X28516278Y-26960800D01*
X28512386Y-26959431D01*
X28510401Y-26958257D01*
X28510393Y-26958254D01*
X28352573Y-26912402D01*
X28352567Y-26912401D01*
X28315701Y-26909500D01*
X28315694Y-26909500D01*
X26484306Y-26909500D01*
X26484298Y-26909500D01*
X26447432Y-26912401D01*
X26447426Y-26912402D01*
X26289606Y-26958254D01*
X26289603Y-26958255D01*
X26148137Y-27041917D01*
X26148129Y-27041923D01*
X26031923Y-27158129D01*
X26031917Y-27158137D01*
X25948255Y-27299603D01*
X25948254Y-27299606D01*
X25902402Y-27457426D01*
X25902401Y-27457432D01*
X25899500Y-27494298D01*
X25899500Y-27925701D01*
X25902401Y-27962567D01*
X25902402Y-27962573D01*
X25948254Y-28120393D01*
X25948255Y-28120396D01*
X26031917Y-28261862D01*
X26036702Y-28268031D01*
X26034256Y-28269927D01*
X26060857Y-28318642D01*
X26055873Y-28388334D01*
X26035069Y-28420703D01*
X26036702Y-28421969D01*
X26031917Y-28428137D01*
X25948255Y-28569603D01*
X25948254Y-28569606D01*
X25902402Y-28727426D01*
X25902401Y-28727432D01*
X25899500Y-28764298D01*
X25899500Y-29195701D01*
X25902401Y-29232567D01*
X25902402Y-29232573D01*
X25948254Y-29390393D01*
X25948255Y-29390396D01*
X26031917Y-29531862D01*
X26036702Y-29538031D01*
X26034256Y-29539927D01*
X26060857Y-29588642D01*
X26055873Y-29658334D01*
X26035069Y-29690703D01*
X26036702Y-29691969D01*
X26031917Y-29698137D01*
X25948255Y-29839603D01*
X25948253Y-29839606D01*
X25903326Y-29994248D01*
X25865720Y-30053134D01*
X25802247Y-30082340D01*
X25733061Y-30072594D01*
X25696569Y-30047334D01*
X24978337Y-29329102D01*
X24944852Y-29267779D01*
X24949836Y-29198087D01*
X24978337Y-29153740D01*
X25021789Y-29110289D01*
X25109394Y-28979179D01*
X25169737Y-28833497D01*
X25200500Y-28678842D01*
X25200500Y-28521158D01*
X25200500Y-28521155D01*
X25200499Y-28521153D01*
X25180518Y-28420703D01*
X25169737Y-28366503D01*
X25154802Y-28330446D01*
X25109397Y-28220827D01*
X25109390Y-28220814D01*
X25021789Y-28089711D01*
X25021786Y-28089707D01*
X24910292Y-27978213D01*
X24910288Y-27978210D01*
X24779185Y-27890609D01*
X24779172Y-27890602D01*
X24633501Y-27830264D01*
X24633489Y-27830261D01*
X24478845Y-27799500D01*
X24478842Y-27799500D01*
X24321337Y-27799500D01*
X24254298Y-27779815D01*
X24208543Y-27727011D01*
X24198599Y-27657853D01*
X24215220Y-27611350D01*
X24225000Y-27595172D01*
X24243478Y-27564606D01*
X24294086Y-27402196D01*
X24300500Y-27331616D01*
X24300500Y-27000097D01*
X24320185Y-26933058D01*
X24336819Y-26912416D01*
X25969615Y-25279620D01*
X27767905Y-23481329D01*
X27829226Y-23447846D01*
X27898918Y-23452830D01*
G37*
%TD.AperFunction*%
%TA.AperFunction,Conductor*%
G36*
X32050000Y-25452230D02*
G01*
X32116126Y-25441757D01*
X32116129Y-25441757D01*
X32318217Y-25376095D01*
X32507557Y-25279620D01*
X32679459Y-25154727D01*
X32679464Y-25154723D01*
X32829721Y-25004466D01*
X32949371Y-24839781D01*
X33004701Y-24797115D01*
X33074314Y-24791136D01*
X33136110Y-24823741D01*
X33150008Y-24839781D01*
X33269890Y-25004785D01*
X33269894Y-25004790D01*
X33420213Y-25155109D01*
X33592179Y-25280048D01*
X33592181Y-25280049D01*
X33592184Y-25280051D01*
X33781588Y-25376557D01*
X33983757Y-25442246D01*
X34193713Y-25475500D01*
X34193714Y-25475500D01*
X34406286Y-25475500D01*
X34406287Y-25475500D01*
X34616243Y-25442246D01*
X34752873Y-25397851D01*
X34822708Y-25395856D01*
X34878867Y-25428102D01*
X36063584Y-26612819D01*
X36097069Y-26674142D01*
X36092085Y-26743834D01*
X36050213Y-26799767D01*
X35984749Y-26824184D01*
X35975903Y-26824500D01*
X35918384Y-26824500D01*
X35899145Y-26826248D01*
X35847807Y-26830913D01*
X35685393Y-26881522D01*
X35539811Y-26969530D01*
X35539810Y-26969531D01*
X35492858Y-27016484D01*
X35431535Y-27049969D01*
X35361843Y-27044985D01*
X35317496Y-27016484D01*
X35303044Y-27002032D01*
X35303040Y-27002029D01*
X35158705Y-26913001D01*
X35158699Y-26912998D01*
X35158697Y-26912997D01*
X35063711Y-26881522D01*
X34997709Y-26859651D01*
X34898346Y-26849500D01*
X34301662Y-26849500D01*
X34301644Y-26849501D01*
X34202292Y-26859650D01*
X34202289Y-26859651D01*
X34041305Y-26912996D01*
X34041294Y-26913001D01*
X33896959Y-27002029D01*
X33842148Y-27056840D01*
X33780824Y-27090324D01*
X33711132Y-27085339D01*
X33666786Y-27056839D01*
X33651870Y-27041923D01*
X33651862Y-27041917D01*
X33522628Y-26965489D01*
X33510398Y-26958256D01*
X33510397Y-26958255D01*
X33510396Y-26958255D01*
X33510393Y-26958254D01*
X33352573Y-26912402D01*
X33352567Y-26912401D01*
X33315701Y-26909500D01*
X33315694Y-26909500D01*
X31484306Y-26909500D01*
X31484298Y-26909500D01*
X31447432Y-26912401D01*
X31447426Y-26912402D01*
X31289606Y-26958254D01*
X31289603Y-26958255D01*
X31238621Y-26988406D01*
X31170897Y-27005589D01*
X31104634Y-26983429D01*
X31060871Y-26928963D01*
X31051500Y-26881674D01*
X31051500Y-25461110D01*
X31071185Y-25394071D01*
X31123989Y-25348316D01*
X31193147Y-25338372D01*
X31231796Y-25350626D01*
X31281780Y-25376094D01*
X31281779Y-25376094D01*
X31483871Y-25441757D01*
X31550000Y-25452231D01*
X31550000Y-24404145D01*
X31616657Y-24442630D01*
X31737465Y-24475000D01*
X31862535Y-24475000D01*
X31983343Y-24442630D01*
X32050000Y-24404145D01*
X32050000Y-25452230D01*
G37*
%TD.AperFunction*%
%TD*%
M02*
