%TF.GenerationSoftware,KiCad,Pcbnew,9.0.2*%
%TF.CreationDate,2025-06-14T09:22:04-04:00*%
%TF.ProjectId,plimsoll,706c696d-736f-46c6-9c2e-6b696361645f,rev?*%
%TF.SameCoordinates,Original*%
%TF.FileFunction,Copper,L3,Inr*%
%TF.FilePolarity,Positive*%
%FSLAX46Y46*%
G04 Gerber Fmt 4.6, Leading zero omitted, Abs format (unit mm)*
G04 Created by KiCad (PCBNEW 9.0.2) date 2025-06-14 09:22:04*
%MOMM*%
%LPD*%
G01*
G04 APERTURE LIST*
G04 Aperture macros list*
%AMRoundRect*
0 Rectangle with rounded corners*
0 $1 Rounding radius*
0 $2 $3 $4 $5 $6 $7 $8 $9 X,Y pos of 4 corners*
0 Add a 4 corners polygon primitive as box body*
4,1,4,$2,$3,$4,$5,$6,$7,$8,$9,$2,$3,0*
0 Add four circle primitives for the rounded corners*
1,1,$1+$1,$2,$3*
1,1,$1+$1,$4,$5*
1,1,$1+$1,$6,$7*
1,1,$1+$1,$8,$9*
0 Add four rect primitives between the rounded corners*
20,1,$1+$1,$2,$3,$4,$5,0*
20,1,$1+$1,$4,$5,$6,$7,0*
20,1,$1+$1,$6,$7,$8,$9,0*
20,1,$1+$1,$8,$9,$2,$3,0*%
G04 Aperture macros list end*
%TA.AperFunction,ComponentPad*%
%ADD10R,1.700000X1.700000*%
%TD*%
%TA.AperFunction,ComponentPad*%
%ADD11C,1.700000*%
%TD*%
%TA.AperFunction,ComponentPad*%
%ADD12RoundRect,0.250000X0.600000X0.725000X-0.600000X0.725000X-0.600000X-0.725000X0.600000X-0.725000X0*%
%TD*%
%TA.AperFunction,ComponentPad*%
%ADD13O,1.700000X1.950000*%
%TD*%
%TA.AperFunction,HeatsinkPad*%
%ADD14O,1.000000X2.100000*%
%TD*%
%TA.AperFunction,HeatsinkPad*%
%ADD15O,1.000000X1.800000*%
%TD*%
%TA.AperFunction,ViaPad*%
%ADD16C,0.600000*%
%TD*%
G04 APERTURE END LIST*
D10*
%TO.N,GND*%
%TO.C,J4*%
X38600000Y-52200000D03*
D11*
%TO.N,VBUS*%
X38600000Y-54740000D03*
%TD*%
D12*
%TO.N,/Signal+*%
%TO.C,J3*%
X36800000Y-24000000D03*
D13*
%TO.N,/Signal-*%
X34300000Y-24000000D03*
%TO.N,GND*%
X31800000Y-24000000D03*
%TO.N,+3.3VADC*%
X29300000Y-24000000D03*
%TD*%
D14*
%TO.N,Net-(J2-SHIELD)*%
%TO.C,J2*%
X25680000Y-63180000D03*
D15*
X25680000Y-67380000D03*
D14*
X34320000Y-63180000D03*
D15*
X34320000Y-67380000D03*
%TD*%
D16*
%TO.N,GND*%
X34700000Y-34000000D03*
X24200000Y-35556000D03*
X20800000Y-37700000D03*
X24600000Y-41600000D03*
X27800000Y-48400000D03*
X30800000Y-31300000D03*
X30800000Y-35300000D03*
X22200000Y-40100000D03*
X38400000Y-31100000D03*
X35200000Y-30400000D03*
X38100000Y-66800000D03*
X20800000Y-31100000D03*
X32600000Y-53900000D03*
X29900000Y-61059000D03*
X36000000Y-51800000D03*
X26600000Y-40800000D03*
X21400000Y-63600000D03*
X37600000Y-36800000D03*
X25174110Y-31600002D03*
X29000000Y-47600000D03*
X35800000Y-52600000D03*
X21100000Y-45300000D03*
X27200000Y-60900000D03*
X33700000Y-37700000D03*
X39200000Y-45700000D03*
X28800000Y-35300000D03*
X32600000Y-52600000D03*
X35800000Y-54300000D03*
X25200000Y-27000000D03*
X32000000Y-44000000D03*
X34500000Y-61200000D03*
X24800000Y-48000000D03*
X37900000Y-62600000D03*
%TO.N,VBUS*%
X32600000Y-61300000D03*
X36700000Y-42200000D03*
X37000000Y-56800000D03*
X32600000Y-58700000D03*
%TO.N,+3V3*%
X22800000Y-36300000D03*
X39200000Y-48600000D03*
X24601000Y-37735526D03*
X33700000Y-38900000D03*
X34700000Y-49800000D03*
X28600000Y-36300000D03*
X21200000Y-43300000D03*
X24236486Y-32800000D03*
X39200000Y-57300000D03*
X21100000Y-49800000D03*
%TO.N,/nRESET*%
X33219558Y-46776638D03*
X39200000Y-46800000D03*
%TO.N,/BOOT0*%
X23900000Y-39500000D03*
X32900000Y-43000000D03*
%TO.N,Net-(J2-SHIELD)*%
X36000000Y-68000000D03*
%TO.N,Net-(JP1-C)*%
X22600000Y-30200000D03*
%TO.N,Net-(JP2-C)*%
X24400000Y-28600000D03*
%TO.N,Net-(U6-XI)*%
X22700000Y-31674998D03*
X28800000Y-34100000D03*
%TD*%
%TA.AperFunction,Conductor*%
%TO.N,GND*%
G36*
X39442539Y-20520185D02*
G01*
X39488294Y-20572989D01*
X39499500Y-20624500D01*
X39499500Y-43214313D01*
X39479815Y-43281352D01*
X39427011Y-43327107D01*
X39357853Y-43337051D01*
X39306610Y-43317415D01*
X39234280Y-43269086D01*
X39234266Y-43269078D01*
X39118563Y-43221153D01*
X39098542Y-43212860D01*
X39098538Y-43212859D01*
X39098534Y-43212858D01*
X38954459Y-43184200D01*
X38954455Y-43184200D01*
X38807545Y-43184200D01*
X38807540Y-43184200D01*
X38663465Y-43212858D01*
X38663455Y-43212861D01*
X38527733Y-43269078D01*
X38527724Y-43269083D01*
X38405580Y-43350698D01*
X38405576Y-43350701D01*
X38301701Y-43454576D01*
X38301698Y-43454580D01*
X38220083Y-43576724D01*
X38220078Y-43576733D01*
X38163861Y-43712455D01*
X38163858Y-43712465D01*
X38135200Y-43856540D01*
X38135200Y-44003459D01*
X38163858Y-44147534D01*
X38163861Y-44147544D01*
X38220078Y-44283266D01*
X38220083Y-44283275D01*
X38301698Y-44405419D01*
X38301701Y-44405423D01*
X38405576Y-44509298D01*
X38405580Y-44509301D01*
X38527724Y-44590916D01*
X38527730Y-44590919D01*
X38527731Y-44590920D01*
X38663458Y-44647140D01*
X38807540Y-44675799D01*
X38807544Y-44675800D01*
X38807545Y-44675800D01*
X38954456Y-44675800D01*
X38954457Y-44675799D01*
X39098542Y-44647140D01*
X39234269Y-44590920D01*
X39306609Y-44542584D01*
X39373286Y-44521706D01*
X39440666Y-44540190D01*
X39487357Y-44592169D01*
X39499500Y-44645686D01*
X39499500Y-45892297D01*
X39479815Y-45959336D01*
X39427011Y-46005091D01*
X39357853Y-46015035D01*
X39351309Y-46013914D01*
X39278845Y-45999500D01*
X39278842Y-45999500D01*
X39121158Y-45999500D01*
X39121155Y-45999500D01*
X38966510Y-46030261D01*
X38966498Y-46030264D01*
X38820827Y-46090602D01*
X38820814Y-46090609D01*
X38689711Y-46178210D01*
X38689707Y-46178213D01*
X38578213Y-46289707D01*
X38578210Y-46289711D01*
X38490609Y-46420814D01*
X38490602Y-46420827D01*
X38430264Y-46566498D01*
X38430261Y-46566510D01*
X38399500Y-46721153D01*
X38399500Y-46878846D01*
X38430261Y-47033489D01*
X38430264Y-47033501D01*
X38490602Y-47179172D01*
X38490609Y-47179185D01*
X38578210Y-47310288D01*
X38578213Y-47310292D01*
X38689707Y-47421786D01*
X38689711Y-47421789D01*
X38820814Y-47509390D01*
X38820827Y-47509397D01*
X38910104Y-47546376D01*
X38966503Y-47569737D01*
X38966507Y-47569737D01*
X38966508Y-47569738D01*
X39009967Y-47578383D01*
X39071878Y-47610768D01*
X39106452Y-47671484D01*
X39102712Y-47741253D01*
X39061845Y-47797925D01*
X39009967Y-47821617D01*
X38966508Y-47830261D01*
X38966498Y-47830264D01*
X38820827Y-47890602D01*
X38820814Y-47890609D01*
X38689711Y-47978210D01*
X38689707Y-47978213D01*
X38578213Y-48089707D01*
X38578210Y-48089711D01*
X38490609Y-48220814D01*
X38490604Y-48220823D01*
X38447782Y-48324207D01*
X38403941Y-48378610D01*
X38337647Y-48400675D01*
X38269948Y-48383396D01*
X38264331Y-48379857D01*
X38218273Y-48349082D01*
X38218266Y-48349078D01*
X38082544Y-48292861D01*
X38082545Y-48292861D01*
X38082542Y-48292860D01*
X38082538Y-48292859D01*
X38082534Y-48292858D01*
X37938459Y-48264200D01*
X37938455Y-48264200D01*
X37791545Y-48264200D01*
X37791540Y-48264200D01*
X37647465Y-48292858D01*
X37647455Y-48292861D01*
X37511733Y-48349078D01*
X37511724Y-48349083D01*
X37389580Y-48430698D01*
X37389576Y-48430701D01*
X37285701Y-48534576D01*
X37285698Y-48534580D01*
X37204083Y-48656724D01*
X37204078Y-48656733D01*
X37147861Y-48792455D01*
X37147858Y-48792465D01*
X37119200Y-48936540D01*
X37119200Y-49083459D01*
X37147858Y-49227534D01*
X37147861Y-49227544D01*
X37204078Y-49363266D01*
X37204083Y-49363275D01*
X37285698Y-49485419D01*
X37285701Y-49485423D01*
X37389576Y-49589298D01*
X37389580Y-49589301D01*
X37511724Y-49670916D01*
X37511730Y-49670919D01*
X37511731Y-49670920D01*
X37647458Y-49727140D01*
X37791540Y-49755799D01*
X37791544Y-49755800D01*
X37791545Y-49755800D01*
X37938456Y-49755800D01*
X37938457Y-49755799D01*
X38082542Y-49727140D01*
X38218269Y-49670920D01*
X38340420Y-49589301D01*
X38444301Y-49485420D01*
X38525920Y-49363269D01*
X38549503Y-49306332D01*
X38593343Y-49251931D01*
X38659637Y-49229865D01*
X38727336Y-49247143D01*
X38732955Y-49250684D01*
X38820814Y-49309390D01*
X38820827Y-49309397D01*
X38950902Y-49363275D01*
X38966503Y-49369737D01*
X39121153Y-49400499D01*
X39121156Y-49400500D01*
X39121158Y-49400500D01*
X39278843Y-49400500D01*
X39294564Y-49397372D01*
X39351309Y-49386085D01*
X39420899Y-49392312D01*
X39476077Y-49435174D01*
X39499322Y-49501063D01*
X39499500Y-49507702D01*
X39499500Y-50726000D01*
X39479815Y-50793039D01*
X39427011Y-50838794D01*
X39375500Y-50850000D01*
X38850000Y-50850000D01*
X38850000Y-51766988D01*
X38792993Y-51734075D01*
X38665826Y-51700000D01*
X38534174Y-51700000D01*
X38407007Y-51734075D01*
X38350000Y-51766988D01*
X38350000Y-50850000D01*
X37702155Y-50850000D01*
X37642627Y-50856401D01*
X37642620Y-50856403D01*
X37507913Y-50906645D01*
X37507906Y-50906649D01*
X37392812Y-50992809D01*
X37392809Y-50992812D01*
X37306649Y-51107906D01*
X37306645Y-51107913D01*
X37256403Y-51242620D01*
X37256401Y-51242627D01*
X37250000Y-51302155D01*
X37250000Y-51950000D01*
X38166988Y-51950000D01*
X38134075Y-52007007D01*
X38100000Y-52134174D01*
X38100000Y-52265826D01*
X38134075Y-52392993D01*
X38166988Y-52450000D01*
X37250000Y-52450000D01*
X37250000Y-53097844D01*
X37256401Y-53157372D01*
X37256403Y-53157379D01*
X37306645Y-53292086D01*
X37306649Y-53292093D01*
X37392809Y-53407187D01*
X37392812Y-53407190D01*
X37507906Y-53493350D01*
X37507913Y-53493354D01*
X37639470Y-53542422D01*
X37695404Y-53584293D01*
X37719821Y-53649758D01*
X37704969Y-53718031D01*
X37683819Y-53746285D01*
X37569889Y-53860215D01*
X37444951Y-54032179D01*
X37348444Y-54221585D01*
X37282753Y-54423760D01*
X37249500Y-54633713D01*
X37249500Y-54846286D01*
X37282753Y-55056239D01*
X37348444Y-55258414D01*
X37444951Y-55447820D01*
X37569890Y-55619786D01*
X37720213Y-55770109D01*
X37892179Y-55895048D01*
X37892181Y-55895049D01*
X37892184Y-55895051D01*
X38081588Y-55991557D01*
X38283757Y-56057246D01*
X38493713Y-56090500D01*
X38493714Y-56090500D01*
X38706286Y-56090500D01*
X38706287Y-56090500D01*
X38916243Y-56057246D01*
X39118412Y-55991557D01*
X39307816Y-55895051D01*
X39307834Y-55895037D01*
X39310710Y-55893277D01*
X39311962Y-55892938D01*
X39312157Y-55892839D01*
X39312177Y-55892879D01*
X39378156Y-55875033D01*
X39444759Y-55896150D01*
X39489372Y-55949921D01*
X39499500Y-55999005D01*
X39499500Y-56392297D01*
X39479815Y-56459336D01*
X39427011Y-56505091D01*
X39357853Y-56515035D01*
X39351309Y-56513914D01*
X39278845Y-56499500D01*
X39278842Y-56499500D01*
X39121158Y-56499500D01*
X39121155Y-56499500D01*
X38966510Y-56530261D01*
X38966498Y-56530264D01*
X38820827Y-56590602D01*
X38820814Y-56590609D01*
X38689711Y-56678210D01*
X38689707Y-56678213D01*
X38578213Y-56789707D01*
X38578210Y-56789711D01*
X38490609Y-56920814D01*
X38490602Y-56920827D01*
X38430264Y-57066498D01*
X38430261Y-57066510D01*
X38399500Y-57221153D01*
X38399500Y-57378846D01*
X38430261Y-57533489D01*
X38430264Y-57533501D01*
X38490602Y-57679172D01*
X38490609Y-57679185D01*
X38578210Y-57810288D01*
X38578213Y-57810292D01*
X38689707Y-57921786D01*
X38689711Y-57921789D01*
X38820814Y-58009390D01*
X38820827Y-58009397D01*
X38966498Y-58069735D01*
X38966503Y-58069737D01*
X39121153Y-58100499D01*
X39121156Y-58100500D01*
X39121158Y-58100500D01*
X39278843Y-58100500D01*
X39294564Y-58097372D01*
X39351309Y-58086085D01*
X39420899Y-58092312D01*
X39476077Y-58135174D01*
X39499322Y-58201063D01*
X39499500Y-58207702D01*
X39499500Y-69375500D01*
X39479815Y-69442539D01*
X39427011Y-69488294D01*
X39375500Y-69499500D01*
X20624500Y-69499500D01*
X20557461Y-69479815D01*
X20511706Y-69427011D01*
X20500500Y-69375500D01*
X20500500Y-66893713D01*
X21049500Y-66893713D01*
X21049500Y-67106287D01*
X21082754Y-67316243D01*
X21139117Y-67489711D01*
X21148444Y-67518414D01*
X21244951Y-67707820D01*
X21369890Y-67879786D01*
X21520213Y-68030109D01*
X21692179Y-68155048D01*
X21692181Y-68155049D01*
X21692184Y-68155051D01*
X21881588Y-68251557D01*
X22083757Y-68317246D01*
X22293713Y-68350500D01*
X22293714Y-68350500D01*
X22506286Y-68350500D01*
X22506287Y-68350500D01*
X22716243Y-68317246D01*
X22918412Y-68251557D01*
X23107816Y-68155051D01*
X23212707Y-68078844D01*
X23279786Y-68030109D01*
X23279788Y-68030106D01*
X23279792Y-68030104D01*
X23430104Y-67879792D01*
X23430106Y-67879788D01*
X23430109Y-67879786D01*
X23431012Y-67878543D01*
X24679499Y-67878543D01*
X24717947Y-68071829D01*
X24717950Y-68071839D01*
X24793364Y-68253907D01*
X24793371Y-68253920D01*
X24902860Y-68417781D01*
X24902863Y-68417785D01*
X25042214Y-68557136D01*
X25042218Y-68557139D01*
X25206079Y-68666628D01*
X25206092Y-68666635D01*
X25388160Y-68742049D01*
X25388165Y-68742051D01*
X25388169Y-68742051D01*
X25388170Y-68742052D01*
X25581456Y-68780500D01*
X25581459Y-68780500D01*
X25778543Y-68780500D01*
X25908582Y-68754632D01*
X25971835Y-68742051D01*
X26153914Y-68666632D01*
X26317782Y-68557139D01*
X26457139Y-68417782D01*
X26566632Y-68253914D01*
X26642051Y-68071835D01*
X26672023Y-67921158D01*
X26680500Y-67878543D01*
X33319499Y-67878543D01*
X33357947Y-68071829D01*
X33357950Y-68071839D01*
X33433364Y-68253907D01*
X33433371Y-68253920D01*
X33542860Y-68417781D01*
X33542863Y-68417785D01*
X33682214Y-68557136D01*
X33682218Y-68557139D01*
X33846079Y-68666628D01*
X33846092Y-68666635D01*
X34028160Y-68742049D01*
X34028165Y-68742051D01*
X34028169Y-68742051D01*
X34028170Y-68742052D01*
X34221456Y-68780500D01*
X34221459Y-68780500D01*
X34418543Y-68780500D01*
X34548582Y-68754632D01*
X34611835Y-68742051D01*
X34793914Y-68666632D01*
X34957782Y-68557139D01*
X35097139Y-68417782D01*
X35103666Y-68408012D01*
X35157277Y-68363208D01*
X35226602Y-68354499D01*
X35289630Y-68384653D01*
X35309871Y-68408012D01*
X35378210Y-68510288D01*
X35378213Y-68510292D01*
X35489707Y-68621786D01*
X35489711Y-68621789D01*
X35620814Y-68709390D01*
X35620827Y-68709397D01*
X35766498Y-68769735D01*
X35766503Y-68769737D01*
X35921153Y-68800499D01*
X35921156Y-68800500D01*
X35921158Y-68800500D01*
X36078844Y-68800500D01*
X36078845Y-68800499D01*
X36233497Y-68769737D01*
X36379179Y-68709394D01*
X36510289Y-68621789D01*
X36621789Y-68510289D01*
X36709394Y-68379179D01*
X36769737Y-68233497D01*
X36800500Y-68078842D01*
X36800500Y-67921158D01*
X36800500Y-67921155D01*
X36800499Y-67921153D01*
X36792272Y-67879792D01*
X36769737Y-67766503D01*
X36745428Y-67707816D01*
X36709397Y-67620827D01*
X36709390Y-67620814D01*
X36621789Y-67489711D01*
X36621786Y-67489707D01*
X36510292Y-67378213D01*
X36510288Y-67378210D01*
X36379185Y-67290609D01*
X36379172Y-67290602D01*
X36233501Y-67230264D01*
X36233489Y-67230261D01*
X36078845Y-67199500D01*
X36078842Y-67199500D01*
X35921158Y-67199500D01*
X35921155Y-67199500D01*
X35766510Y-67230261D01*
X35766498Y-67230264D01*
X35620827Y-67290602D01*
X35620814Y-67290609D01*
X35513391Y-67362388D01*
X35446713Y-67383266D01*
X35379333Y-67364782D01*
X35332643Y-67312803D01*
X35320500Y-67259286D01*
X35320500Y-66881456D01*
X35282052Y-66688170D01*
X35282051Y-66688169D01*
X35282051Y-66688165D01*
X35280225Y-66683757D01*
X35206635Y-66506092D01*
X35206628Y-66506079D01*
X35097139Y-66342218D01*
X35097136Y-66342214D01*
X34957785Y-66202863D01*
X34957781Y-66202860D01*
X34793920Y-66093371D01*
X34793907Y-66093364D01*
X34611839Y-66017950D01*
X34611829Y-66017947D01*
X34418543Y-65979500D01*
X34418541Y-65979500D01*
X34221459Y-65979500D01*
X34221457Y-65979500D01*
X34028170Y-66017947D01*
X34028160Y-66017950D01*
X33846092Y-66093364D01*
X33846079Y-66093371D01*
X33682218Y-66202860D01*
X33682214Y-66202863D01*
X33542863Y-66342214D01*
X33542860Y-66342218D01*
X33433371Y-66506079D01*
X33433364Y-66506092D01*
X33357950Y-66688160D01*
X33357947Y-66688170D01*
X33319500Y-66881456D01*
X33319500Y-66881459D01*
X33319500Y-67878541D01*
X33319500Y-67878543D01*
X33319499Y-67878543D01*
X26680500Y-67878543D01*
X26680500Y-66881456D01*
X26642052Y-66688170D01*
X26642051Y-66688169D01*
X26642051Y-66688165D01*
X26640225Y-66683757D01*
X26566635Y-66506092D01*
X26566628Y-66506079D01*
X26457139Y-66342218D01*
X26457136Y-66342214D01*
X26317785Y-66202863D01*
X26317781Y-66202860D01*
X26153920Y-66093371D01*
X26153907Y-66093364D01*
X25971839Y-66017950D01*
X25971829Y-66017947D01*
X25778543Y-65979500D01*
X25778541Y-65979500D01*
X25581459Y-65979500D01*
X25581457Y-65979500D01*
X25388170Y-66017947D01*
X25388160Y-66017950D01*
X25206092Y-66093364D01*
X25206079Y-66093371D01*
X25042218Y-66202860D01*
X25042214Y-66202863D01*
X24902863Y-66342214D01*
X24902860Y-66342218D01*
X24793371Y-66506079D01*
X24793364Y-66506092D01*
X24717950Y-66688160D01*
X24717947Y-66688170D01*
X24679500Y-66881456D01*
X24679500Y-66881459D01*
X24679500Y-67878541D01*
X24679500Y-67878543D01*
X24679499Y-67878543D01*
X23431012Y-67878543D01*
X23555048Y-67707820D01*
X23555047Y-67707820D01*
X23555051Y-67707816D01*
X23651557Y-67518412D01*
X23717246Y-67316243D01*
X23750500Y-67106287D01*
X23750500Y-66893713D01*
X23717246Y-66683757D01*
X23651557Y-66481588D01*
X23555051Y-66292184D01*
X23555049Y-66292181D01*
X23555048Y-66292179D01*
X23430109Y-66120213D01*
X23279786Y-65969890D01*
X23107820Y-65844951D01*
X22918414Y-65748444D01*
X22918413Y-65748443D01*
X22918412Y-65748443D01*
X22716243Y-65682754D01*
X22716241Y-65682753D01*
X22716240Y-65682753D01*
X22554957Y-65657208D01*
X22506287Y-65649500D01*
X22293713Y-65649500D01*
X22245042Y-65657208D01*
X22083760Y-65682753D01*
X21881585Y-65748444D01*
X21692179Y-65844951D01*
X21520213Y-65969890D01*
X21369890Y-66120213D01*
X21244951Y-66292179D01*
X21148444Y-66481585D01*
X21082753Y-66683760D01*
X21082055Y-66688170D01*
X21049500Y-66893713D01*
X20500500Y-66893713D01*
X20500500Y-63828543D01*
X24679499Y-63828543D01*
X24717947Y-64021829D01*
X24717950Y-64021839D01*
X24793364Y-64203907D01*
X24793371Y-64203920D01*
X24902860Y-64367781D01*
X24902863Y-64367785D01*
X25042214Y-64507136D01*
X25042218Y-64507139D01*
X25206079Y-64616628D01*
X25206092Y-64616635D01*
X25388160Y-64692049D01*
X25388165Y-64692051D01*
X25388169Y-64692051D01*
X25388170Y-64692052D01*
X25581456Y-64730500D01*
X25581459Y-64730500D01*
X25778543Y-64730500D01*
X25908582Y-64704632D01*
X25971835Y-64692051D01*
X26153914Y-64616632D01*
X26317782Y-64507139D01*
X26457139Y-64367782D01*
X26566632Y-64203914D01*
X26566635Y-64203906D01*
X26569446Y-64198648D01*
X26618405Y-64148800D01*
X26686542Y-64133335D01*
X26752223Y-64157163D01*
X26754300Y-64158722D01*
X26756632Y-64160512D01*
X26756635Y-64160515D01*
X26887865Y-64236281D01*
X27034234Y-64275500D01*
X27034236Y-64275500D01*
X27185764Y-64275500D01*
X27185766Y-64275500D01*
X27332135Y-64236281D01*
X27463365Y-64160515D01*
X27570515Y-64053365D01*
X27646281Y-63922135D01*
X27685500Y-63775766D01*
X27685500Y-63624234D01*
X32314500Y-63624234D01*
X32314500Y-63775765D01*
X32353719Y-63922136D01*
X32391602Y-63987750D01*
X32429485Y-64053365D01*
X32536635Y-64160515D01*
X32667865Y-64236281D01*
X32814234Y-64275500D01*
X32814236Y-64275500D01*
X32965764Y-64275500D01*
X32965766Y-64275500D01*
X33112135Y-64236281D01*
X33243365Y-64160515D01*
X33243372Y-64160507D01*
X33245694Y-64158726D01*
X33248021Y-64157825D01*
X33250403Y-64156451D01*
X33250617Y-64156822D01*
X33310861Y-64133525D01*
X33379307Y-64147556D01*
X33429302Y-64196365D01*
X33430551Y-64198644D01*
X33433369Y-64203916D01*
X33542860Y-64367781D01*
X33542863Y-64367785D01*
X33682214Y-64507136D01*
X33682218Y-64507139D01*
X33846079Y-64616628D01*
X33846092Y-64616635D01*
X34028160Y-64692049D01*
X34028165Y-64692051D01*
X34028169Y-64692051D01*
X34028170Y-64692052D01*
X34221456Y-64730500D01*
X34221459Y-64730500D01*
X34418543Y-64730500D01*
X34548582Y-64704632D01*
X34611835Y-64692051D01*
X34793914Y-64616632D01*
X34957782Y-64507139D01*
X35097139Y-64367782D01*
X35206632Y-64203914D01*
X35282051Y-64021835D01*
X35320500Y-63828541D01*
X35320500Y-62531459D01*
X35320500Y-62531456D01*
X35282052Y-62338170D01*
X35282051Y-62338169D01*
X35282051Y-62338165D01*
X35282049Y-62338160D01*
X35206635Y-62156092D01*
X35206628Y-62156079D01*
X35097139Y-61992218D01*
X35097136Y-61992214D01*
X34957785Y-61852863D01*
X34957781Y-61852860D01*
X34793920Y-61743371D01*
X34793907Y-61743364D01*
X34611839Y-61667950D01*
X34611829Y-61667947D01*
X34418543Y-61629500D01*
X34418541Y-61629500D01*
X34221459Y-61629500D01*
X34221457Y-61629500D01*
X34028170Y-61667947D01*
X34028160Y-61667950D01*
X33846092Y-61743364D01*
X33846079Y-61743371D01*
X33682218Y-61852860D01*
X33682214Y-61852863D01*
X33542863Y-61992214D01*
X33542860Y-61992218D01*
X33433371Y-62156079D01*
X33433364Y-62156092D01*
X33357950Y-62338160D01*
X33357947Y-62338170D01*
X33319500Y-62531456D01*
X33319500Y-63068666D01*
X33299815Y-63135705D01*
X33247011Y-63181460D01*
X33177853Y-63191404D01*
X33133501Y-63176054D01*
X33112137Y-63163719D01*
X33007584Y-63135705D01*
X32965766Y-63124500D01*
X32814234Y-63124500D01*
X32667863Y-63163719D01*
X32536635Y-63239485D01*
X32536632Y-63239487D01*
X32429487Y-63346632D01*
X32429485Y-63346635D01*
X32353719Y-63477863D01*
X32314500Y-63624234D01*
X27685500Y-63624234D01*
X27646281Y-63477865D01*
X27570515Y-63346635D01*
X27463365Y-63239485D01*
X27380087Y-63191404D01*
X27332136Y-63163719D01*
X27227584Y-63135705D01*
X27185766Y-63124500D01*
X27034234Y-63124500D01*
X26887862Y-63163719D01*
X26866499Y-63176054D01*
X26798598Y-63192525D01*
X26732572Y-63169673D01*
X26689382Y-63114751D01*
X26680500Y-63068666D01*
X26680500Y-62531456D01*
X26642052Y-62338170D01*
X26642051Y-62338169D01*
X26642051Y-62338165D01*
X26642049Y-62338160D01*
X26566635Y-62156092D01*
X26566628Y-62156079D01*
X26457139Y-61992218D01*
X26457136Y-61992214D01*
X26317785Y-61852863D01*
X26317781Y-61852860D01*
X26153920Y-61743371D01*
X26153907Y-61743364D01*
X25971839Y-61667950D01*
X25971829Y-61667947D01*
X25778543Y-61629500D01*
X25778541Y-61629500D01*
X25581459Y-61629500D01*
X25581457Y-61629500D01*
X25388170Y-61667947D01*
X25388160Y-61667950D01*
X25206092Y-61743364D01*
X25206079Y-61743371D01*
X25042218Y-61852860D01*
X25042214Y-61852863D01*
X24902863Y-61992214D01*
X24902860Y-61992218D01*
X24793371Y-62156079D01*
X24793364Y-62156092D01*
X24717950Y-62338160D01*
X24717947Y-62338170D01*
X24679500Y-62531456D01*
X24679500Y-62531459D01*
X24679500Y-63828541D01*
X24679500Y-63828543D01*
X24679499Y-63828543D01*
X20500500Y-63828543D01*
X20500500Y-61221153D01*
X31799500Y-61221153D01*
X31799500Y-61378846D01*
X31830261Y-61533489D01*
X31830264Y-61533501D01*
X31890602Y-61679172D01*
X31890609Y-61679185D01*
X31978210Y-61810288D01*
X31978213Y-61810292D01*
X32089707Y-61921786D01*
X32089711Y-61921789D01*
X32220814Y-62009390D01*
X32220827Y-62009397D01*
X32366498Y-62069735D01*
X32366503Y-62069737D01*
X32521153Y-62100499D01*
X32521156Y-62100500D01*
X32521158Y-62100500D01*
X32678844Y-62100500D01*
X32678845Y-62100499D01*
X32833497Y-62069737D01*
X32979179Y-62009394D01*
X33110289Y-61921789D01*
X33221789Y-61810289D01*
X33309394Y-61679179D01*
X33369737Y-61533497D01*
X33400500Y-61378842D01*
X33400500Y-61221158D01*
X33400500Y-61221155D01*
X33400499Y-61221153D01*
X33369738Y-61066510D01*
X33369737Y-61066503D01*
X33369735Y-61066498D01*
X33309397Y-60920827D01*
X33309390Y-60920814D01*
X33221789Y-60789711D01*
X33221786Y-60789707D01*
X33110292Y-60678213D01*
X33110288Y-60678210D01*
X32979185Y-60590609D01*
X32979172Y-60590602D01*
X32833501Y-60530264D01*
X32833489Y-60530261D01*
X32678845Y-60499500D01*
X32678842Y-60499500D01*
X32521158Y-60499500D01*
X32521155Y-60499500D01*
X32366510Y-60530261D01*
X32366498Y-60530264D01*
X32220827Y-60590602D01*
X32220814Y-60590609D01*
X32089711Y-60678210D01*
X32089707Y-60678213D01*
X31978213Y-60789707D01*
X31978210Y-60789711D01*
X31890609Y-60920814D01*
X31890602Y-60920827D01*
X31830264Y-61066498D01*
X31830261Y-61066510D01*
X31799500Y-61221153D01*
X20500500Y-61221153D01*
X20500500Y-58621153D01*
X31799500Y-58621153D01*
X31799500Y-58778846D01*
X31830261Y-58933489D01*
X31830264Y-58933501D01*
X31890602Y-59079172D01*
X31890609Y-59079185D01*
X31978210Y-59210288D01*
X31978213Y-59210292D01*
X32089707Y-59321786D01*
X32089711Y-59321789D01*
X32220814Y-59409390D01*
X32220827Y-59409397D01*
X32366498Y-59469735D01*
X32366503Y-59469737D01*
X32521153Y-59500499D01*
X32521156Y-59500500D01*
X32521158Y-59500500D01*
X32678844Y-59500500D01*
X32678845Y-59500499D01*
X32833497Y-59469737D01*
X32979179Y-59409394D01*
X33110289Y-59321789D01*
X33221789Y-59210289D01*
X33309394Y-59079179D01*
X33369737Y-58933497D01*
X33400500Y-58778842D01*
X33400500Y-58621158D01*
X33400500Y-58621155D01*
X33400499Y-58621153D01*
X33369738Y-58466510D01*
X33369737Y-58466503D01*
X33369735Y-58466498D01*
X33309397Y-58320827D01*
X33309390Y-58320814D01*
X33221789Y-58189711D01*
X33221786Y-58189707D01*
X33110292Y-58078213D01*
X33110288Y-58078210D01*
X32979185Y-57990609D01*
X32979172Y-57990602D01*
X32833501Y-57930264D01*
X32833489Y-57930261D01*
X32678845Y-57899500D01*
X32678842Y-57899500D01*
X32521158Y-57899500D01*
X32521155Y-57899500D01*
X32366510Y-57930261D01*
X32366498Y-57930264D01*
X32220827Y-57990602D01*
X32220814Y-57990609D01*
X32089711Y-58078210D01*
X32089707Y-58078213D01*
X31978213Y-58189707D01*
X31978210Y-58189711D01*
X31890609Y-58320814D01*
X31890602Y-58320827D01*
X31830264Y-58466498D01*
X31830261Y-58466510D01*
X31799500Y-58621153D01*
X20500500Y-58621153D01*
X20500500Y-56721153D01*
X36199500Y-56721153D01*
X36199500Y-56878846D01*
X36230261Y-57033489D01*
X36230264Y-57033501D01*
X36290602Y-57179172D01*
X36290609Y-57179185D01*
X36378210Y-57310288D01*
X36378213Y-57310292D01*
X36489707Y-57421786D01*
X36489711Y-57421789D01*
X36620814Y-57509390D01*
X36620827Y-57509397D01*
X36766498Y-57569735D01*
X36766503Y-57569737D01*
X36921153Y-57600499D01*
X36921156Y-57600500D01*
X36921158Y-57600500D01*
X37078844Y-57600500D01*
X37078845Y-57600499D01*
X37233497Y-57569737D01*
X37379179Y-57509394D01*
X37510289Y-57421789D01*
X37621789Y-57310289D01*
X37709394Y-57179179D01*
X37769737Y-57033497D01*
X37800500Y-56878842D01*
X37800500Y-56721158D01*
X37800500Y-56721155D01*
X37800499Y-56721153D01*
X37774531Y-56590606D01*
X37769737Y-56566503D01*
X37766050Y-56557602D01*
X37709397Y-56420827D01*
X37709390Y-56420814D01*
X37621789Y-56289711D01*
X37621786Y-56289707D01*
X37510292Y-56178213D01*
X37510288Y-56178210D01*
X37379185Y-56090609D01*
X37379172Y-56090602D01*
X37233501Y-56030264D01*
X37233489Y-56030261D01*
X37078845Y-55999500D01*
X37078842Y-55999500D01*
X36921158Y-55999500D01*
X36921155Y-55999500D01*
X36766510Y-56030261D01*
X36766498Y-56030264D01*
X36620827Y-56090602D01*
X36620814Y-56090609D01*
X36489711Y-56178210D01*
X36489707Y-56178213D01*
X36378213Y-56289707D01*
X36378210Y-56289711D01*
X36290609Y-56420814D01*
X36290602Y-56420827D01*
X36230264Y-56566498D01*
X36230261Y-56566510D01*
X36199500Y-56721153D01*
X20500500Y-56721153D01*
X20500500Y-50594168D01*
X20520185Y-50527129D01*
X20572989Y-50481374D01*
X20642147Y-50471430D01*
X20693392Y-50491067D01*
X20720812Y-50509389D01*
X20720827Y-50509397D01*
X20866498Y-50569735D01*
X20866503Y-50569737D01*
X21021153Y-50600499D01*
X21021156Y-50600500D01*
X21021158Y-50600500D01*
X21178844Y-50600500D01*
X21178845Y-50600499D01*
X21333497Y-50569737D01*
X21479179Y-50509394D01*
X21610289Y-50421789D01*
X21721789Y-50310289D01*
X21809394Y-50179179D01*
X21869737Y-50033497D01*
X21900500Y-49878842D01*
X21900500Y-49721158D01*
X21900500Y-49721155D01*
X21900499Y-49721153D01*
X33899500Y-49721153D01*
X33899500Y-49878846D01*
X33930261Y-50033489D01*
X33930264Y-50033501D01*
X33990602Y-50179172D01*
X33990609Y-50179185D01*
X34078210Y-50310288D01*
X34078213Y-50310292D01*
X34189707Y-50421786D01*
X34189711Y-50421789D01*
X34320814Y-50509390D01*
X34320827Y-50509397D01*
X34466498Y-50569735D01*
X34466503Y-50569737D01*
X34621153Y-50600499D01*
X34621156Y-50600500D01*
X34621158Y-50600500D01*
X34778844Y-50600500D01*
X34778845Y-50600499D01*
X34933497Y-50569737D01*
X35079179Y-50509394D01*
X35210289Y-50421789D01*
X35321789Y-50310289D01*
X35409394Y-50179179D01*
X35469737Y-50033497D01*
X35500500Y-49878842D01*
X35500500Y-49721158D01*
X35500500Y-49721155D01*
X35500499Y-49721153D01*
X35490506Y-49670916D01*
X35469737Y-49566503D01*
X35436151Y-49485419D01*
X35409397Y-49420827D01*
X35409390Y-49420814D01*
X35321789Y-49289711D01*
X35321786Y-49289707D01*
X35210292Y-49178213D01*
X35210288Y-49178210D01*
X35079185Y-49090609D01*
X35079172Y-49090602D01*
X34933501Y-49030264D01*
X34933489Y-49030261D01*
X34778845Y-48999500D01*
X34778842Y-48999500D01*
X34621158Y-48999500D01*
X34621155Y-48999500D01*
X34466510Y-49030261D01*
X34466498Y-49030264D01*
X34320827Y-49090602D01*
X34320814Y-49090609D01*
X34189711Y-49178210D01*
X34189707Y-49178213D01*
X34078213Y-49289707D01*
X34078210Y-49289711D01*
X33990609Y-49420814D01*
X33990602Y-49420827D01*
X33930264Y-49566498D01*
X33930261Y-49566510D01*
X33899500Y-49721153D01*
X21900499Y-49721153D01*
X21890506Y-49670916D01*
X21869737Y-49566503D01*
X21836151Y-49485419D01*
X21809397Y-49420827D01*
X21809390Y-49420814D01*
X21721789Y-49289711D01*
X21721786Y-49289707D01*
X21610292Y-49178213D01*
X21610288Y-49178210D01*
X21479185Y-49090609D01*
X21479172Y-49090602D01*
X21333501Y-49030264D01*
X21333489Y-49030261D01*
X21178845Y-48999500D01*
X21178842Y-48999500D01*
X21021158Y-48999500D01*
X21021155Y-48999500D01*
X20866510Y-49030261D01*
X20866498Y-49030264D01*
X20720827Y-49090602D01*
X20720816Y-49090608D01*
X20693390Y-49108934D01*
X20626712Y-49129811D01*
X20559332Y-49111326D01*
X20512643Y-49059346D01*
X20500500Y-49005831D01*
X20500500Y-46697791D01*
X32419058Y-46697791D01*
X32419058Y-46855484D01*
X32449819Y-47010127D01*
X32449822Y-47010139D01*
X32510160Y-47155810D01*
X32510167Y-47155823D01*
X32597768Y-47286926D01*
X32597771Y-47286930D01*
X32709265Y-47398424D01*
X32709269Y-47398427D01*
X32840372Y-47486028D01*
X32840385Y-47486035D01*
X32976457Y-47542397D01*
X32986061Y-47546375D01*
X33103499Y-47569735D01*
X33140711Y-47577137D01*
X33140714Y-47577138D01*
X33140716Y-47577138D01*
X33298402Y-47577138D01*
X33298403Y-47577137D01*
X33453055Y-47546375D01*
X33598737Y-47486032D01*
X33729847Y-47398427D01*
X33841347Y-47286927D01*
X33928952Y-47155817D01*
X33989295Y-47010135D01*
X34020058Y-46855480D01*
X34020058Y-46697796D01*
X34020058Y-46697793D01*
X34020057Y-46697791D01*
X33989296Y-46543148D01*
X33989295Y-46543141D01*
X33989293Y-46543136D01*
X33928955Y-46397465D01*
X33928948Y-46397452D01*
X33841347Y-46266349D01*
X33841344Y-46266345D01*
X33729850Y-46154851D01*
X33729846Y-46154848D01*
X33598743Y-46067247D01*
X33598730Y-46067240D01*
X33453059Y-46006902D01*
X33453047Y-46006899D01*
X33298403Y-45976138D01*
X33298400Y-45976138D01*
X33140716Y-45976138D01*
X33140713Y-45976138D01*
X32986068Y-46006899D01*
X32986056Y-46006902D01*
X32840385Y-46067240D01*
X32840372Y-46067247D01*
X32709269Y-46154848D01*
X32709265Y-46154851D01*
X32597771Y-46266345D01*
X32597768Y-46266349D01*
X32510167Y-46397452D01*
X32510160Y-46397465D01*
X32449822Y-46543136D01*
X32449819Y-46543148D01*
X32419058Y-46697791D01*
X20500500Y-46697791D01*
X20500500Y-44027350D01*
X20520185Y-43960311D01*
X20572989Y-43914556D01*
X20642147Y-43904612D01*
X20693391Y-43924248D01*
X20820814Y-44009390D01*
X20820827Y-44009397D01*
X20966498Y-44069735D01*
X20966503Y-44069737D01*
X21121153Y-44100499D01*
X21121156Y-44100500D01*
X21121158Y-44100500D01*
X21278844Y-44100500D01*
X21278845Y-44100499D01*
X21433497Y-44069737D01*
X21579179Y-44009394D01*
X21710289Y-43921789D01*
X21821789Y-43810289D01*
X21909394Y-43679179D01*
X21969737Y-43533497D01*
X22000500Y-43378842D01*
X22000500Y-43221158D01*
X22000500Y-43221155D01*
X22000499Y-43221153D01*
X21995467Y-43195854D01*
X21969737Y-43066503D01*
X21938476Y-42991031D01*
X21926666Y-42962518D01*
X21909532Y-42921153D01*
X32099500Y-42921153D01*
X32099500Y-43078846D01*
X32130261Y-43233489D01*
X32130264Y-43233501D01*
X32190602Y-43379172D01*
X32190609Y-43379185D01*
X32278210Y-43510288D01*
X32278213Y-43510292D01*
X32389707Y-43621786D01*
X32389711Y-43621789D01*
X32520814Y-43709390D01*
X32520827Y-43709397D01*
X32666498Y-43769735D01*
X32666503Y-43769737D01*
X32821153Y-43800499D01*
X32821156Y-43800500D01*
X32821158Y-43800500D01*
X32978844Y-43800500D01*
X32978845Y-43800499D01*
X33133497Y-43769737D01*
X33279179Y-43709394D01*
X33410289Y-43621789D01*
X33521789Y-43510289D01*
X33609394Y-43379179D01*
X33669737Y-43233497D01*
X33700500Y-43078842D01*
X33700500Y-42921158D01*
X33700500Y-42921155D01*
X33700499Y-42921153D01*
X33680734Y-42821789D01*
X33669737Y-42766503D01*
X33646452Y-42710288D01*
X33609397Y-42620827D01*
X33609390Y-42620814D01*
X33521789Y-42489711D01*
X33521786Y-42489707D01*
X33410292Y-42378213D01*
X33410288Y-42378210D01*
X33279185Y-42290609D01*
X33279172Y-42290602D01*
X33133501Y-42230264D01*
X33133489Y-42230261D01*
X32978845Y-42199500D01*
X32978842Y-42199500D01*
X32821158Y-42199500D01*
X32821155Y-42199500D01*
X32666510Y-42230261D01*
X32666498Y-42230264D01*
X32520827Y-42290602D01*
X32520814Y-42290609D01*
X32389711Y-42378210D01*
X32389707Y-42378213D01*
X32278213Y-42489707D01*
X32278210Y-42489711D01*
X32190609Y-42620814D01*
X32190602Y-42620827D01*
X32130264Y-42766498D01*
X32130261Y-42766510D01*
X32099500Y-42921153D01*
X21909532Y-42921153D01*
X21909395Y-42920823D01*
X21909390Y-42920814D01*
X21821789Y-42789711D01*
X21821786Y-42789707D01*
X21710292Y-42678213D01*
X21710288Y-42678210D01*
X21579185Y-42590609D01*
X21579172Y-42590602D01*
X21433501Y-42530264D01*
X21433489Y-42530261D01*
X21278845Y-42499500D01*
X21278842Y-42499500D01*
X21121158Y-42499500D01*
X21121155Y-42499500D01*
X20966510Y-42530261D01*
X20966498Y-42530264D01*
X20820827Y-42590602D01*
X20820814Y-42590609D01*
X20693391Y-42675751D01*
X20626713Y-42696629D01*
X20559333Y-42678144D01*
X20512643Y-42626165D01*
X20500500Y-42572649D01*
X20500500Y-42121153D01*
X35899500Y-42121153D01*
X35899500Y-42278846D01*
X35930261Y-42433489D01*
X35930264Y-42433501D01*
X35990602Y-42579172D01*
X35990609Y-42579185D01*
X36078210Y-42710288D01*
X36078213Y-42710292D01*
X36189707Y-42821786D01*
X36189711Y-42821789D01*
X36320814Y-42909390D01*
X36320827Y-42909397D01*
X36466498Y-42969735D01*
X36466503Y-42969737D01*
X36499558Y-42976312D01*
X36573553Y-42991031D01*
X36635464Y-43023416D01*
X36670038Y-43084131D01*
X36666299Y-43153901D01*
X36625432Y-43210573D01*
X36596815Y-43227209D01*
X36495734Y-43269078D01*
X36495724Y-43269083D01*
X36373580Y-43350698D01*
X36373576Y-43350701D01*
X36269701Y-43454576D01*
X36269698Y-43454580D01*
X36188083Y-43576724D01*
X36188078Y-43576733D01*
X36131861Y-43712455D01*
X36131858Y-43712465D01*
X36103200Y-43856540D01*
X36103200Y-44003459D01*
X36131858Y-44147534D01*
X36131861Y-44147544D01*
X36188078Y-44283266D01*
X36188083Y-44283275D01*
X36269698Y-44405419D01*
X36269701Y-44405423D01*
X36373576Y-44509298D01*
X36373580Y-44509301D01*
X36495724Y-44590916D01*
X36495730Y-44590919D01*
X36495731Y-44590920D01*
X36631458Y-44647140D01*
X36775540Y-44675799D01*
X36775544Y-44675800D01*
X36775545Y-44675800D01*
X36922456Y-44675800D01*
X36922457Y-44675799D01*
X37066542Y-44647140D01*
X37202269Y-44590920D01*
X37324420Y-44509301D01*
X37428301Y-44405420D01*
X37509920Y-44283269D01*
X37566140Y-44147542D01*
X37594800Y-44003455D01*
X37594800Y-43856545D01*
X37566140Y-43712458D01*
X37509920Y-43576731D01*
X37509919Y-43576730D01*
X37509916Y-43576724D01*
X37428301Y-43454580D01*
X37428298Y-43454576D01*
X37324423Y-43350701D01*
X37324419Y-43350698D01*
X37202275Y-43269083D01*
X37202266Y-43269078D01*
X37086563Y-43221153D01*
X37066542Y-43212860D01*
X37066538Y-43212859D01*
X37066534Y-43212858D01*
X36981047Y-43195854D01*
X36919136Y-43163470D01*
X36884562Y-43102754D01*
X36888301Y-43032984D01*
X36929167Y-42976312D01*
X36957784Y-42959676D01*
X36996769Y-42943528D01*
X37079173Y-42909397D01*
X37079176Y-42909395D01*
X37079179Y-42909394D01*
X37210289Y-42821789D01*
X37321789Y-42710289D01*
X37409394Y-42579179D01*
X37469737Y-42433497D01*
X37500500Y-42278842D01*
X37500500Y-42121158D01*
X37500500Y-42121155D01*
X37500499Y-42121153D01*
X37469738Y-41966510D01*
X37469737Y-41966503D01*
X37469735Y-41966498D01*
X37409397Y-41820827D01*
X37409390Y-41820814D01*
X37321789Y-41689711D01*
X37321786Y-41689707D01*
X37210292Y-41578213D01*
X37210288Y-41578210D01*
X37079185Y-41490609D01*
X37079172Y-41490602D01*
X36933501Y-41430264D01*
X36933489Y-41430261D01*
X36778845Y-41399500D01*
X36778842Y-41399500D01*
X36621158Y-41399500D01*
X36621155Y-41399500D01*
X36466510Y-41430261D01*
X36466498Y-41430264D01*
X36320827Y-41490602D01*
X36320814Y-41490609D01*
X36189711Y-41578210D01*
X36189707Y-41578213D01*
X36078213Y-41689707D01*
X36078210Y-41689711D01*
X35990609Y-41820814D01*
X35990602Y-41820827D01*
X35930264Y-41966498D01*
X35930261Y-41966510D01*
X35899500Y-42121153D01*
X20500500Y-42121153D01*
X20500500Y-39421153D01*
X23099500Y-39421153D01*
X23099500Y-39578846D01*
X23130261Y-39733489D01*
X23130264Y-39733501D01*
X23190602Y-39879172D01*
X23190609Y-39879185D01*
X23278210Y-40010288D01*
X23278213Y-40010292D01*
X23389707Y-40121786D01*
X23389711Y-40121789D01*
X23520814Y-40209390D01*
X23520827Y-40209397D01*
X23666498Y-40269735D01*
X23666503Y-40269737D01*
X23821153Y-40300499D01*
X23821156Y-40300500D01*
X23821158Y-40300500D01*
X23978844Y-40300500D01*
X23978845Y-40300499D01*
X24133497Y-40269737D01*
X24279179Y-40209394D01*
X24410289Y-40121789D01*
X24521789Y-40010289D01*
X24609394Y-39879179D01*
X24669737Y-39733497D01*
X24700500Y-39578842D01*
X24700500Y-39421158D01*
X24700500Y-39421155D01*
X24700499Y-39421153D01*
X24698338Y-39410288D01*
X24669737Y-39266503D01*
X24669735Y-39266498D01*
X24609397Y-39120827D01*
X24609390Y-39120814D01*
X24521789Y-38989711D01*
X24521786Y-38989707D01*
X24410292Y-38878213D01*
X24410288Y-38878210D01*
X24324897Y-38821153D01*
X32899500Y-38821153D01*
X32899500Y-38978846D01*
X32930261Y-39133489D01*
X32930264Y-39133501D01*
X32990602Y-39279172D01*
X32990609Y-39279185D01*
X33078210Y-39410288D01*
X33078213Y-39410292D01*
X33189707Y-39521786D01*
X33189711Y-39521789D01*
X33320814Y-39609390D01*
X33320827Y-39609397D01*
X33466498Y-39669735D01*
X33466503Y-39669737D01*
X33621153Y-39700499D01*
X33621156Y-39700500D01*
X33621158Y-39700500D01*
X33778844Y-39700500D01*
X33778845Y-39700499D01*
X33933497Y-39669737D01*
X34079179Y-39609394D01*
X34210289Y-39521789D01*
X34321789Y-39410289D01*
X34409394Y-39279179D01*
X34469737Y-39133497D01*
X34500500Y-38978842D01*
X34500500Y-38821158D01*
X34500500Y-38821155D01*
X34500499Y-38821153D01*
X34482419Y-38730261D01*
X34469737Y-38666503D01*
X34469735Y-38666498D01*
X34409397Y-38520827D01*
X34409390Y-38520814D01*
X34321789Y-38389711D01*
X34321786Y-38389707D01*
X34210292Y-38278213D01*
X34210288Y-38278210D01*
X34079185Y-38190609D01*
X34079172Y-38190602D01*
X33933501Y-38130264D01*
X33933489Y-38130261D01*
X33778845Y-38099500D01*
X33778842Y-38099500D01*
X33621158Y-38099500D01*
X33621155Y-38099500D01*
X33466510Y-38130261D01*
X33466498Y-38130264D01*
X33320827Y-38190602D01*
X33320814Y-38190609D01*
X33189711Y-38278210D01*
X33189707Y-38278213D01*
X33078213Y-38389707D01*
X33078210Y-38389711D01*
X32990609Y-38520814D01*
X32990602Y-38520827D01*
X32930264Y-38666498D01*
X32930261Y-38666510D01*
X32899500Y-38821153D01*
X24324897Y-38821153D01*
X24279185Y-38790609D01*
X24279172Y-38790602D01*
X24133501Y-38730264D01*
X24133489Y-38730261D01*
X23978845Y-38699500D01*
X23978842Y-38699500D01*
X23821158Y-38699500D01*
X23821155Y-38699500D01*
X23666510Y-38730261D01*
X23666498Y-38730264D01*
X23520827Y-38790602D01*
X23520814Y-38790609D01*
X23389711Y-38878210D01*
X23389707Y-38878213D01*
X23278213Y-38989707D01*
X23278210Y-38989711D01*
X23190609Y-39120814D01*
X23190602Y-39120827D01*
X23130264Y-39266498D01*
X23130261Y-39266510D01*
X23099500Y-39421153D01*
X20500500Y-39421153D01*
X20500500Y-37656679D01*
X23800500Y-37656679D01*
X23800500Y-37814372D01*
X23831261Y-37969015D01*
X23831264Y-37969027D01*
X23891602Y-38114698D01*
X23891609Y-38114711D01*
X23979210Y-38245814D01*
X23979213Y-38245818D01*
X24090707Y-38357312D01*
X24090711Y-38357315D01*
X24221814Y-38444916D01*
X24221827Y-38444923D01*
X24367498Y-38505261D01*
X24367503Y-38505263D01*
X24522153Y-38536025D01*
X24522156Y-38536026D01*
X24522158Y-38536026D01*
X24679844Y-38536026D01*
X24679845Y-38536025D01*
X24834497Y-38505263D01*
X24980179Y-38444920D01*
X25111289Y-38357315D01*
X25222789Y-38245815D01*
X25310394Y-38114705D01*
X25370737Y-37969023D01*
X25401500Y-37814368D01*
X25401500Y-37656684D01*
X25401500Y-37656681D01*
X25401499Y-37656679D01*
X25370738Y-37502036D01*
X25370737Y-37502029D01*
X25370735Y-37502024D01*
X25310397Y-37356353D01*
X25310390Y-37356340D01*
X25222789Y-37225237D01*
X25222786Y-37225233D01*
X25111292Y-37113739D01*
X25111288Y-37113736D01*
X24980185Y-37026135D01*
X24980172Y-37026128D01*
X24834501Y-36965790D01*
X24834489Y-36965787D01*
X24679845Y-36935026D01*
X24679842Y-36935026D01*
X24522158Y-36935026D01*
X24522155Y-36935026D01*
X24367510Y-36965787D01*
X24367498Y-36965790D01*
X24221827Y-37026128D01*
X24221814Y-37026135D01*
X24090711Y-37113736D01*
X24090707Y-37113739D01*
X23979213Y-37225233D01*
X23979210Y-37225237D01*
X23891609Y-37356340D01*
X23891602Y-37356353D01*
X23831264Y-37502024D01*
X23831261Y-37502036D01*
X23800500Y-37656679D01*
X20500500Y-37656679D01*
X20500500Y-36221153D01*
X21999500Y-36221153D01*
X21999500Y-36378846D01*
X22030261Y-36533489D01*
X22030264Y-36533501D01*
X22090602Y-36679172D01*
X22090609Y-36679185D01*
X22178210Y-36810288D01*
X22178213Y-36810292D01*
X22289707Y-36921786D01*
X22289711Y-36921789D01*
X22420814Y-37009390D01*
X22420827Y-37009397D01*
X22566498Y-37069735D01*
X22566503Y-37069737D01*
X22721153Y-37100499D01*
X22721156Y-37100500D01*
X22721158Y-37100500D01*
X22878844Y-37100500D01*
X22878845Y-37100499D01*
X23033497Y-37069737D01*
X23179179Y-37009394D01*
X23310289Y-36921789D01*
X23421789Y-36810289D01*
X23509394Y-36679179D01*
X23569737Y-36533497D01*
X23600500Y-36378842D01*
X23600500Y-36221158D01*
X23600500Y-36221155D01*
X23600499Y-36221153D01*
X27799500Y-36221153D01*
X27799500Y-36378846D01*
X27830261Y-36533489D01*
X27830264Y-36533501D01*
X27890602Y-36679172D01*
X27890609Y-36679185D01*
X27978210Y-36810288D01*
X27978213Y-36810292D01*
X28089707Y-36921786D01*
X28089711Y-36921789D01*
X28220814Y-37009390D01*
X28220827Y-37009397D01*
X28366498Y-37069735D01*
X28366503Y-37069737D01*
X28521153Y-37100499D01*
X28521156Y-37100500D01*
X28521158Y-37100500D01*
X28678844Y-37100500D01*
X28678845Y-37100499D01*
X28833497Y-37069737D01*
X28979179Y-37009394D01*
X29110289Y-36921789D01*
X29221789Y-36810289D01*
X29309394Y-36679179D01*
X29369737Y-36533497D01*
X29400500Y-36378842D01*
X29400500Y-36221158D01*
X29400500Y-36221155D01*
X29400499Y-36221153D01*
X29369738Y-36066510D01*
X29369737Y-36066503D01*
X29369735Y-36066498D01*
X29309397Y-35920827D01*
X29309390Y-35920814D01*
X29221789Y-35789711D01*
X29221786Y-35789707D01*
X29110292Y-35678213D01*
X29110288Y-35678210D01*
X28979185Y-35590609D01*
X28979172Y-35590602D01*
X28833501Y-35530264D01*
X28833489Y-35530261D01*
X28678845Y-35499500D01*
X28678842Y-35499500D01*
X28521158Y-35499500D01*
X28521155Y-35499500D01*
X28366510Y-35530261D01*
X28366498Y-35530264D01*
X28220827Y-35590602D01*
X28220814Y-35590609D01*
X28089711Y-35678210D01*
X28089707Y-35678213D01*
X27978213Y-35789707D01*
X27978210Y-35789711D01*
X27890609Y-35920814D01*
X27890602Y-35920827D01*
X27830264Y-36066498D01*
X27830261Y-36066510D01*
X27799500Y-36221153D01*
X23600499Y-36221153D01*
X23569738Y-36066510D01*
X23569737Y-36066503D01*
X23569735Y-36066498D01*
X23509397Y-35920827D01*
X23509390Y-35920814D01*
X23421789Y-35789711D01*
X23421786Y-35789707D01*
X23310292Y-35678213D01*
X23310288Y-35678210D01*
X23179185Y-35590609D01*
X23179172Y-35590602D01*
X23033501Y-35530264D01*
X23033489Y-35530261D01*
X22878845Y-35499500D01*
X22878842Y-35499500D01*
X22721158Y-35499500D01*
X22721155Y-35499500D01*
X22566510Y-35530261D01*
X22566498Y-35530264D01*
X22420827Y-35590602D01*
X22420814Y-35590609D01*
X22289711Y-35678210D01*
X22289707Y-35678213D01*
X22178213Y-35789707D01*
X22178210Y-35789711D01*
X22090609Y-35920814D01*
X22090602Y-35920827D01*
X22030264Y-36066498D01*
X22030261Y-36066510D01*
X21999500Y-36221153D01*
X20500500Y-36221153D01*
X20500500Y-34021153D01*
X27999500Y-34021153D01*
X27999500Y-34178846D01*
X28030261Y-34333489D01*
X28030264Y-34333501D01*
X28090602Y-34479172D01*
X28090609Y-34479185D01*
X28178210Y-34610288D01*
X28178213Y-34610292D01*
X28289707Y-34721786D01*
X28289711Y-34721789D01*
X28420814Y-34809390D01*
X28420827Y-34809397D01*
X28566498Y-34869735D01*
X28566503Y-34869737D01*
X28721153Y-34900499D01*
X28721156Y-34900500D01*
X28721158Y-34900500D01*
X28878844Y-34900500D01*
X28878845Y-34900499D01*
X29033497Y-34869737D01*
X29179179Y-34809394D01*
X29310289Y-34721789D01*
X29421789Y-34610289D01*
X29509394Y-34479179D01*
X29569737Y-34333497D01*
X29600500Y-34178842D01*
X29600500Y-34021158D01*
X29600500Y-34021155D01*
X29600499Y-34021153D01*
X29569738Y-33866510D01*
X29569737Y-33866503D01*
X29569735Y-33866498D01*
X29509397Y-33720827D01*
X29509390Y-33720814D01*
X29421789Y-33589711D01*
X29421786Y-33589707D01*
X29310292Y-33478213D01*
X29310288Y-33478210D01*
X29179185Y-33390609D01*
X29179172Y-33390602D01*
X29033501Y-33330264D01*
X29033489Y-33330261D01*
X28878845Y-33299500D01*
X28878842Y-33299500D01*
X28721158Y-33299500D01*
X28721155Y-33299500D01*
X28566510Y-33330261D01*
X28566498Y-33330264D01*
X28420827Y-33390602D01*
X28420814Y-33390609D01*
X28289711Y-33478210D01*
X28289707Y-33478213D01*
X28178213Y-33589707D01*
X28178210Y-33589711D01*
X28090609Y-33720814D01*
X28090602Y-33720827D01*
X28030264Y-33866498D01*
X28030261Y-33866510D01*
X27999500Y-34021153D01*
X20500500Y-34021153D01*
X20500500Y-32721153D01*
X23435986Y-32721153D01*
X23435986Y-32878846D01*
X23466747Y-33033489D01*
X23466750Y-33033501D01*
X23527088Y-33179172D01*
X23527095Y-33179185D01*
X23614696Y-33310288D01*
X23614699Y-33310292D01*
X23726193Y-33421786D01*
X23726197Y-33421789D01*
X23857300Y-33509390D01*
X23857313Y-33509397D01*
X24002984Y-33569735D01*
X24002989Y-33569737D01*
X24157639Y-33600499D01*
X24157642Y-33600500D01*
X24157644Y-33600500D01*
X24315330Y-33600500D01*
X24315331Y-33600499D01*
X24469983Y-33569737D01*
X24615665Y-33509394D01*
X24746775Y-33421789D01*
X24858275Y-33310289D01*
X24945880Y-33179179D01*
X25006223Y-33033497D01*
X25036986Y-32878842D01*
X25036986Y-32721158D01*
X25036986Y-32721155D01*
X25036985Y-32721153D01*
X25006224Y-32566510D01*
X25006223Y-32566503D01*
X24968528Y-32475498D01*
X24945883Y-32420827D01*
X24945876Y-32420814D01*
X24858275Y-32289711D01*
X24858272Y-32289707D01*
X24746778Y-32178213D01*
X24746774Y-32178210D01*
X24615671Y-32090609D01*
X24615658Y-32090602D01*
X24469987Y-32030264D01*
X24469975Y-32030261D01*
X24315331Y-31999500D01*
X24315328Y-31999500D01*
X24157644Y-31999500D01*
X24157641Y-31999500D01*
X24002996Y-32030261D01*
X24002984Y-32030264D01*
X23857313Y-32090602D01*
X23857300Y-32090609D01*
X23726197Y-32178210D01*
X23726193Y-32178213D01*
X23614699Y-32289707D01*
X23614696Y-32289711D01*
X23527095Y-32420814D01*
X23527088Y-32420827D01*
X23466750Y-32566498D01*
X23466747Y-32566510D01*
X23435986Y-32721153D01*
X20500500Y-32721153D01*
X20500500Y-30121153D01*
X21799500Y-30121153D01*
X21799500Y-30278846D01*
X21830261Y-30433489D01*
X21830264Y-30433501D01*
X21890602Y-30579172D01*
X21890609Y-30579185D01*
X21978210Y-30710288D01*
X21978213Y-30710292D01*
X22089707Y-30821786D01*
X22162752Y-30870594D01*
X22207556Y-30924207D01*
X22216263Y-30993532D01*
X22186108Y-31056559D01*
X22181542Y-31061377D01*
X22078210Y-31164709D01*
X21990609Y-31295812D01*
X21990602Y-31295825D01*
X21930264Y-31441496D01*
X21930261Y-31441508D01*
X21899500Y-31596151D01*
X21899500Y-31753844D01*
X21930261Y-31908487D01*
X21930264Y-31908499D01*
X21990602Y-32054170D01*
X21990609Y-32054183D01*
X22078210Y-32185286D01*
X22078213Y-32185290D01*
X22189707Y-32296784D01*
X22189711Y-32296787D01*
X22320814Y-32384388D01*
X22320827Y-32384395D01*
X22466498Y-32444733D01*
X22466503Y-32444735D01*
X22621153Y-32475497D01*
X22621156Y-32475498D01*
X22621158Y-32475498D01*
X22778844Y-32475498D01*
X22778845Y-32475497D01*
X22933497Y-32444735D01*
X23079179Y-32384392D01*
X23210289Y-32296787D01*
X23321789Y-32185287D01*
X23409394Y-32054177D01*
X23469737Y-31908495D01*
X23500500Y-31753840D01*
X23500500Y-31596156D01*
X23500500Y-31596153D01*
X23500499Y-31596151D01*
X23469738Y-31441508D01*
X23469737Y-31441501D01*
X23469735Y-31441496D01*
X23409397Y-31295825D01*
X23409390Y-31295812D01*
X23321789Y-31164709D01*
X23321786Y-31164705D01*
X23210292Y-31053211D01*
X23210286Y-31053206D01*
X23137247Y-31004402D01*
X23092443Y-30950790D01*
X23083736Y-30881465D01*
X23113891Y-30818438D01*
X23118439Y-30813638D01*
X23221789Y-30710289D01*
X23309394Y-30579179D01*
X23369737Y-30433497D01*
X23400500Y-30278842D01*
X23400500Y-30121158D01*
X23400500Y-30121155D01*
X23400499Y-30121153D01*
X23369738Y-29966510D01*
X23369737Y-29966503D01*
X23369735Y-29966498D01*
X23309397Y-29820827D01*
X23309390Y-29820814D01*
X23221789Y-29689711D01*
X23221786Y-29689707D01*
X23110292Y-29578213D01*
X23110288Y-29578210D01*
X22979185Y-29490609D01*
X22979172Y-29490602D01*
X22833501Y-29430264D01*
X22833489Y-29430261D01*
X22678845Y-29399500D01*
X22678842Y-29399500D01*
X22521158Y-29399500D01*
X22521155Y-29399500D01*
X22366510Y-29430261D01*
X22366498Y-29430264D01*
X22220827Y-29490602D01*
X22220814Y-29490609D01*
X22089711Y-29578210D01*
X22089707Y-29578213D01*
X21978213Y-29689707D01*
X21978210Y-29689711D01*
X21890609Y-29820814D01*
X21890602Y-29820827D01*
X21830264Y-29966498D01*
X21830261Y-29966510D01*
X21799500Y-30121153D01*
X20500500Y-30121153D01*
X20500500Y-28521153D01*
X23599500Y-28521153D01*
X23599500Y-28678846D01*
X23630261Y-28833489D01*
X23630264Y-28833501D01*
X23690602Y-28979172D01*
X23690609Y-28979185D01*
X23778210Y-29110288D01*
X23778213Y-29110292D01*
X23889707Y-29221786D01*
X23889711Y-29221789D01*
X24020814Y-29309390D01*
X24020827Y-29309397D01*
X24166498Y-29369735D01*
X24166503Y-29369737D01*
X24316131Y-29399500D01*
X24321153Y-29400499D01*
X24321156Y-29400500D01*
X24321158Y-29400500D01*
X24478844Y-29400500D01*
X24478845Y-29400499D01*
X24633497Y-29369737D01*
X24779179Y-29309394D01*
X24910289Y-29221789D01*
X25021789Y-29110289D01*
X25109394Y-28979179D01*
X25169737Y-28833497D01*
X25200500Y-28678842D01*
X25200500Y-28521158D01*
X25200500Y-28521155D01*
X25200499Y-28521153D01*
X25169738Y-28366510D01*
X25169737Y-28366503D01*
X25169735Y-28366498D01*
X25109397Y-28220827D01*
X25109390Y-28220814D01*
X25021789Y-28089711D01*
X25021786Y-28089707D01*
X24910292Y-27978213D01*
X24910288Y-27978210D01*
X24779185Y-27890609D01*
X24779172Y-27890602D01*
X24633501Y-27830264D01*
X24633489Y-27830261D01*
X24478845Y-27799500D01*
X24478842Y-27799500D01*
X24321158Y-27799500D01*
X24321155Y-27799500D01*
X24166510Y-27830261D01*
X24166498Y-27830264D01*
X24020827Y-27890602D01*
X24020814Y-27890609D01*
X23889711Y-27978210D01*
X23889707Y-27978213D01*
X23778213Y-28089707D01*
X23778210Y-28089711D01*
X23690609Y-28220814D01*
X23690602Y-28220827D01*
X23630264Y-28366498D01*
X23630261Y-28366510D01*
X23599500Y-28521153D01*
X20500500Y-28521153D01*
X20500500Y-22893713D01*
X21049500Y-22893713D01*
X21049500Y-23106287D01*
X21052021Y-23122203D01*
X21082753Y-23316239D01*
X21148444Y-23518414D01*
X21244951Y-23707820D01*
X21369890Y-23879786D01*
X21520213Y-24030109D01*
X21692179Y-24155048D01*
X21692181Y-24155049D01*
X21692184Y-24155051D01*
X21881588Y-24251557D01*
X22083757Y-24317246D01*
X22293713Y-24350500D01*
X22293714Y-24350500D01*
X22506286Y-24350500D01*
X22506287Y-24350500D01*
X22716243Y-24317246D01*
X22918412Y-24251557D01*
X23107816Y-24155051D01*
X23129789Y-24139086D01*
X23279786Y-24030109D01*
X23279788Y-24030106D01*
X23279792Y-24030104D01*
X23430104Y-23879792D01*
X23430106Y-23879788D01*
X23430109Y-23879786D01*
X23510807Y-23768713D01*
X27949500Y-23768713D01*
X27949500Y-24231287D01*
X27959062Y-24291657D01*
X27968381Y-24350500D01*
X27982754Y-24441243D01*
X27993722Y-24475000D01*
X28048444Y-24643414D01*
X28144951Y-24832820D01*
X28269890Y-25004786D01*
X28420213Y-25155109D01*
X28592179Y-25280048D01*
X28592181Y-25280049D01*
X28592184Y-25280051D01*
X28781588Y-25376557D01*
X28983757Y-25442246D01*
X29193713Y-25475500D01*
X29193714Y-25475500D01*
X29406286Y-25475500D01*
X29406287Y-25475500D01*
X29616243Y-25442246D01*
X29818412Y-25376557D01*
X30007816Y-25280051D01*
X30029789Y-25264086D01*
X30179786Y-25155109D01*
X30179788Y-25155106D01*
X30179792Y-25155104D01*
X30330104Y-25004792D01*
X30449991Y-24839779D01*
X30505320Y-24797115D01*
X30574933Y-24791136D01*
X30636729Y-24823741D01*
X30650627Y-24839781D01*
X30770272Y-25004459D01*
X30770276Y-25004464D01*
X30920535Y-25154723D01*
X30920540Y-25154727D01*
X31092442Y-25279620D01*
X31281782Y-25376095D01*
X31483871Y-25441757D01*
X31550000Y-25452231D01*
X31550000Y-24404145D01*
X31616657Y-24442630D01*
X31737465Y-24475000D01*
X31862535Y-24475000D01*
X31983343Y-24442630D01*
X32050000Y-24404145D01*
X32050000Y-25452230D01*
X32116126Y-25441757D01*
X32116129Y-25441757D01*
X32318217Y-25376095D01*
X32507557Y-25279620D01*
X32679459Y-25154727D01*
X32679464Y-25154723D01*
X32829721Y-25004466D01*
X32949371Y-24839781D01*
X33004701Y-24797115D01*
X33074314Y-24791136D01*
X33136110Y-24823741D01*
X33150008Y-24839781D01*
X33269890Y-25004785D01*
X33269894Y-25004790D01*
X33420213Y-25155109D01*
X33592179Y-25280048D01*
X33592181Y-25280049D01*
X33592184Y-25280051D01*
X33781588Y-25376557D01*
X33983757Y-25442246D01*
X34193713Y-25475500D01*
X34193714Y-25475500D01*
X34406286Y-25475500D01*
X34406287Y-25475500D01*
X34616243Y-25442246D01*
X34818412Y-25376557D01*
X35007816Y-25280051D01*
X35179792Y-25155104D01*
X35318604Y-25016291D01*
X35379923Y-24982809D01*
X35449615Y-24987793D01*
X35505549Y-25029664D01*
X35511821Y-25038878D01*
X35515185Y-25044333D01*
X35515186Y-25044334D01*
X35607288Y-25193656D01*
X35731344Y-25317712D01*
X35880666Y-25409814D01*
X36047203Y-25464999D01*
X36149991Y-25475500D01*
X37450008Y-25475499D01*
X37552797Y-25464999D01*
X37719334Y-25409814D01*
X37868656Y-25317712D01*
X37992712Y-25193656D01*
X38084814Y-25044334D01*
X38139999Y-24877797D01*
X38150500Y-24775009D01*
X38150499Y-23224992D01*
X38148851Y-23208863D01*
X38139999Y-23122203D01*
X38139998Y-23122200D01*
X38102104Y-23007845D01*
X38084814Y-22955666D01*
X37992712Y-22806344D01*
X37868656Y-22682288D01*
X37719334Y-22590186D01*
X37552797Y-22535001D01*
X37552795Y-22535000D01*
X37450010Y-22524500D01*
X36149998Y-22524500D01*
X36149981Y-22524501D01*
X36047203Y-22535000D01*
X36047200Y-22535001D01*
X35880668Y-22590185D01*
X35880663Y-22590187D01*
X35731342Y-22682289D01*
X35607289Y-22806342D01*
X35511821Y-22961121D01*
X35459873Y-23007845D01*
X35390910Y-23019068D01*
X35326828Y-22991224D01*
X35318601Y-22983705D01*
X35179786Y-22844890D01*
X35007820Y-22719951D01*
X34818414Y-22623444D01*
X34818413Y-22623443D01*
X34818412Y-22623443D01*
X34616243Y-22557754D01*
X34616241Y-22557753D01*
X34616240Y-22557753D01*
X34454957Y-22532208D01*
X34406287Y-22524500D01*
X34193713Y-22524500D01*
X34145042Y-22532208D01*
X33983760Y-22557753D01*
X33781585Y-22623444D01*
X33592179Y-22719951D01*
X33420213Y-22844890D01*
X33269894Y-22995209D01*
X33269890Y-22995214D01*
X33150008Y-23160218D01*
X33094678Y-23202884D01*
X33025065Y-23208863D01*
X32963270Y-23176257D01*
X32949372Y-23160218D01*
X32829727Y-22995540D01*
X32829723Y-22995535D01*
X32679464Y-22845276D01*
X32679459Y-22845272D01*
X32507557Y-22720379D01*
X32318215Y-22623903D01*
X32116124Y-22558241D01*
X32050000Y-22547768D01*
X32050000Y-23595854D01*
X31983343Y-23557370D01*
X31862535Y-23525000D01*
X31737465Y-23525000D01*
X31616657Y-23557370D01*
X31550000Y-23595854D01*
X31550000Y-22547768D01*
X31549999Y-22547768D01*
X31483875Y-22558241D01*
X31281784Y-22623903D01*
X31092442Y-22720379D01*
X30920540Y-22845272D01*
X30920535Y-22845276D01*
X30770276Y-22995535D01*
X30770272Y-22995540D01*
X30650627Y-23160218D01*
X30595297Y-23202884D01*
X30525684Y-23208863D01*
X30463889Y-23176257D01*
X30449991Y-23160218D01*
X30330109Y-22995214D01*
X30330105Y-22995209D01*
X30179786Y-22844890D01*
X30007820Y-22719951D01*
X29818414Y-22623444D01*
X29818413Y-22623443D01*
X29818412Y-22623443D01*
X29616243Y-22557754D01*
X29616241Y-22557753D01*
X29616240Y-22557753D01*
X29454957Y-22532208D01*
X29406287Y-22524500D01*
X29193713Y-22524500D01*
X29145042Y-22532208D01*
X28983760Y-22557753D01*
X28781585Y-22623444D01*
X28592179Y-22719951D01*
X28420213Y-22844890D01*
X28269890Y-22995213D01*
X28144951Y-23167179D01*
X28048444Y-23356585D01*
X27982753Y-23558760D01*
X27959144Y-23707821D01*
X27949500Y-23768713D01*
X23510807Y-23768713D01*
X23555047Y-23707821D01*
X23555048Y-23707820D01*
X23555051Y-23707816D01*
X23651557Y-23518412D01*
X23717246Y-23316243D01*
X23750500Y-23106287D01*
X23750500Y-22893713D01*
X23717246Y-22683757D01*
X23651557Y-22481588D01*
X23555051Y-22292184D01*
X23555049Y-22292181D01*
X23555048Y-22292179D01*
X23430109Y-22120213D01*
X23279786Y-21969890D01*
X23107820Y-21844951D01*
X22918414Y-21748444D01*
X22918413Y-21748443D01*
X22918412Y-21748443D01*
X22716243Y-21682754D01*
X22716241Y-21682753D01*
X22716240Y-21682753D01*
X22554957Y-21657208D01*
X22506287Y-21649500D01*
X22293713Y-21649500D01*
X22245042Y-21657208D01*
X22083760Y-21682753D01*
X21881585Y-21748444D01*
X21692179Y-21844951D01*
X21520213Y-21969890D01*
X21369890Y-22120213D01*
X21244951Y-22292179D01*
X21148444Y-22481585D01*
X21082753Y-22683760D01*
X21063338Y-22806342D01*
X21049500Y-22893713D01*
X20500500Y-22893713D01*
X20500500Y-20624500D01*
X20520185Y-20557461D01*
X20572989Y-20511706D01*
X20624500Y-20500500D01*
X39375500Y-20500500D01*
X39442539Y-20520185D01*
G37*
%TD.AperFunction*%
%TD*%
M02*
