M48
; DRILL file {KiCad 9.0.2} date 2025-06-14T09:22:11-0400
; FORMAT={-:-/ absolute / inch / decimal}
; #@! TF.CreationDate,2025-06-14T09:22:11-04:00
; #@! TF.GenerationSoftware,Kicad,Pcbnew,9.0.2
; #@! TF.FileFunction,Plated,1,4,PTH
FMAT,2
INCH
; #@! TA.AperFunction,Plated,PTH,ViaDrill
T1C0.0118
; #@! TA.AperFunction,Plated,PTH,ComponentDrill
T2C0.0236
; #@! TA.AperFunction,Plated,PTH,ComponentDrill
T3C0.0374
; #@! TA.AperFunction,Plated,PTH,ComponentDrill
T4C0.0394
%
G90
G05
T1
X0.8189Y-1.2244
X0.8189Y-1.4843
X0.8307Y-1.7835
X0.8307Y-1.9606
X0.8346Y-1.7047
X0.8425Y-2.5039
X0.874Y-1.5787
X0.8898Y-1.189
X0.8937Y-1.247
X0.8976Y-1.4291
X0.9409Y-1.5551
X0.9528Y-1.3998
X0.9542Y-1.2913
X0.9606Y-1.126
X0.9685Y-1.6378
X0.9685Y-1.4857
X0.9764Y-1.8898
X0.9911Y-1.2441
X0.9921Y-1.063
X1.0472Y-1.6063
X1.0709Y-2.3976
X1.0945Y-1.9055
X1.126Y-1.4291
X1.1339Y-1.3425
X1.1339Y-1.3898
X1.1417Y-1.874
X1.1772Y-2.4039
X1.2126Y-1.2323
X1.2126Y-1.3898
X1.2598Y-1.7323
X1.2835Y-2.0709
X1.2835Y-2.122
X1.2835Y-2.311
X1.2835Y-2.4134
X1.2953Y-1.6929
X1.3079Y-1.8416
X1.3268Y-1.4843
X1.3268Y-1.5315
X1.3583Y-2.4094
X1.3661Y-1.3386
X1.3661Y-1.9606
X1.3858Y-1.1969
X1.4094Y-2.0709
X1.4094Y-2.1378
X1.4173Y-2.0394
X1.4173Y-2.6772
X1.4449Y-1.6614
X1.4567Y-2.2362
X1.4803Y-1.4488
X1.4921Y-2.4646
X1.5Y-2.6299
X1.5118Y-1.2244
X1.5433Y-1.7992
X1.5433Y-1.8425
X1.5433Y-1.9134
X1.5433Y-2.2559
T3
X1.1535Y-0.9449
X1.252Y-0.9449
X1.3504Y-0.9449
X1.4488Y-0.9449
T4
X1.5197Y-2.0551
X1.5197Y-2.1551
T2
G00X1.011Y-2.4657
M15
G01X1.011Y-2.5091
M16
G05
G00X1.011Y-2.637
M15
G01X1.011Y-2.6685
M16
G05
G00X1.3512Y-2.4657
M15
G01X1.3512Y-2.5091
M16
G05
G00X1.3512Y-2.637
M15
G01X1.3512Y-2.6685
M16
G05
M30
