%TF.GenerationSoftware,KiCad,Pcbnew,9.0.2*%
%TF.CreationDate,2025-06-14T09:22:04-04:00*%
%TF.ProjectId,plimsoll,706c696d-736f-46c6-9c2e-6b696361645f,rev?*%
%TF.SameCoordinates,Original*%
%TF.FileFunction,Soldermask,Top*%
%TF.FilePolarity,Negative*%
%FSLAX46Y46*%
G04 Gerber Fmt 4.6, Leading zero omitted, Abs format (unit mm)*
G04 Created by KiCad (PCBNEW 9.0.2) date 2025-06-14 09:22:04*
%MOMM*%
%LPD*%
G01*
G04 APERTURE LIST*
G04 Aperture macros list*
%AMRoundRect*
0 Rectangle with rounded corners*
0 $1 Rounding radius*
0 $2 $3 $4 $5 $6 $7 $8 $9 X,Y pos of 4 corners*
0 Add a 4 corners polygon primitive as box body*
4,1,4,$2,$3,$4,$5,$6,$7,$8,$9,$2,$3,0*
0 Add four circle primitives for the rounded corners*
1,1,$1+$1,$2,$3*
1,1,$1+$1,$4,$5*
1,1,$1+$1,$6,$7*
1,1,$1+$1,$8,$9*
0 Add four rect primitives between the rounded corners*
20,1,$1+$1,$2,$3,$4,$5,0*
20,1,$1+$1,$4,$5,$6,$7,0*
20,1,$1+$1,$6,$7,$8,$9,0*
20,1,$1+$1,$8,$9,$2,$3,0*%
%AMFreePoly0*
4,1,9,3.862500,-0.866500,0.737500,-0.866500,0.737500,-0.450000,-0.737500,-0.450000,-0.737500,0.450000,0.737500,0.450000,0.737500,0.866500,3.862500,0.866500,3.862500,-0.866500,3.862500,-0.866500,$1*%
G04 Aperture macros list end*
%ADD10RoundRect,0.200000X-0.200000X-0.275000X0.200000X-0.275000X0.200000X0.275000X-0.200000X0.275000X0*%
%ADD11R,1.700000X1.700000*%
%ADD12C,1.700000*%
%ADD13RoundRect,0.250000X0.600000X0.725000X-0.600000X0.725000X-0.600000X-0.725000X0.600000X-0.725000X0*%
%ADD14O,1.700000X1.950000*%
%ADD15RoundRect,0.225000X-0.250000X0.225000X-0.250000X-0.225000X0.250000X-0.225000X0.250000X0.225000X0*%
%ADD16RoundRect,0.243750X0.456250X-0.243750X0.456250X0.243750X-0.456250X0.243750X-0.456250X-0.243750X0*%
%ADD17R,2.000000X1.050000*%
%ADD18RoundRect,0.225000X0.225000X-0.425000X0.225000X0.425000X-0.225000X0.425000X-0.225000X-0.425000X0*%
%ADD19FreePoly0,90.000000*%
%ADD20C,2.200000*%
%ADD21RoundRect,0.250000X-0.250000X-0.475000X0.250000X-0.475000X0.250000X0.475000X-0.250000X0.475000X0*%
%ADD22RoundRect,0.150000X0.150000X-0.587500X0.150000X0.587500X-0.150000X0.587500X-0.150000X-0.587500X0*%
%ADD23RoundRect,0.250000X-0.475000X0.250000X-0.475000X-0.250000X0.475000X-0.250000X0.475000X0.250000X0*%
%ADD24RoundRect,0.150000X0.150000X-0.512500X0.150000X0.512500X-0.150000X0.512500X-0.150000X-0.512500X0*%
%ADD25RoundRect,0.200000X-0.275000X0.200000X-0.275000X-0.200000X0.275000X-0.200000X0.275000X0.200000X0*%
%ADD26RoundRect,0.075000X-0.075000X0.700000X-0.075000X-0.700000X0.075000X-0.700000X0.075000X0.700000X0*%
%ADD27RoundRect,0.075000X-0.700000X0.075000X-0.700000X-0.075000X0.700000X-0.075000X0.700000X0.075000X0*%
%ADD28RoundRect,0.200000X0.200000X0.275000X-0.200000X0.275000X-0.200000X-0.275000X0.200000X-0.275000X0*%
%ADD29RoundRect,0.150000X0.850000X0.150000X-0.850000X0.150000X-0.850000X-0.150000X0.850000X-0.150000X0*%
%ADD30RoundRect,0.250000X-0.450000X0.262500X-0.450000X-0.262500X0.450000X-0.262500X0.450000X0.262500X0*%
%ADD31RoundRect,0.225000X0.250000X-0.225000X0.250000X0.225000X-0.250000X0.225000X-0.250000X-0.225000X0*%
%ADD32C,0.990600*%
%ADD33C,0.787400*%
%ADD34C,0.650000*%
%ADD35R,0.600000X1.240000*%
%ADD36R,0.300000X1.240000*%
%ADD37O,1.000000X2.100000*%
%ADD38O,1.000000X1.800000*%
%ADD39RoundRect,0.225000X0.225000X0.250000X-0.225000X0.250000X-0.225000X-0.250000X0.225000X-0.250000X0*%
%ADD40RoundRect,0.200000X0.275000X-0.200000X0.275000X0.200000X-0.275000X0.200000X-0.275000X-0.200000X0*%
G04 APERTURE END LIST*
D10*
%TO.C,R4*%
X20950000Y-38800000D03*
X22600000Y-38800000D03*
%TD*%
D11*
%TO.C,J4*%
X38600000Y-52200000D03*
D12*
X38600000Y-54740000D03*
%TD*%
D10*
%TO.C,R12*%
X21750000Y-31000000D03*
X23400000Y-31000000D03*
%TD*%
D13*
%TO.C,J3*%
X36800000Y-24000000D03*
D14*
X34300000Y-24000000D03*
X31800000Y-24000000D03*
X29300000Y-24000000D03*
%TD*%
D15*
%TO.C,C8*%
X34900000Y-31600000D03*
X34900000Y-33150000D03*
%TD*%
D16*
%TO.C,D2*%
X25600000Y-54200000D03*
X25600000Y-52325000D03*
%TD*%
D17*
%TO.C,SW2*%
X22700000Y-37140000D03*
X22700000Y-32700000D03*
%TD*%
D18*
%TO.C,U4*%
X32600000Y-55850000D03*
D19*
X34100000Y-55762500D03*
D18*
X35600000Y-55850000D03*
%TD*%
D20*
%TO.C,H1*%
X22400000Y-23000000D03*
%TD*%
D21*
%TO.C,C11*%
X36500000Y-34800000D03*
X38400000Y-34800000D03*
%TD*%
%TO.C,C2*%
X32650000Y-59700000D03*
X34550000Y-59700000D03*
%TD*%
D22*
%TO.C,U2*%
X21250000Y-53737500D03*
X23150000Y-53737500D03*
X22200000Y-51862500D03*
%TD*%
D23*
%TO.C,C4*%
X36450000Y-57900000D03*
X36450000Y-59800000D03*
%TD*%
D10*
%TO.C,R11*%
X21750000Y-29200000D03*
X23400000Y-29200000D03*
%TD*%
D17*
%TO.C,SW1*%
X22900000Y-61840000D03*
X22900000Y-57400000D03*
%TD*%
D24*
%TO.C,U5*%
X36650000Y-39137500D03*
X37600000Y-39137500D03*
X38550000Y-39137500D03*
X38550000Y-36862500D03*
X36650000Y-36862500D03*
%TD*%
D25*
%TO.C,R13*%
X27200000Y-57800000D03*
X27200000Y-59450000D03*
%TD*%
D26*
%TO.C,U3*%
X32550000Y-39125000D03*
X32050000Y-39125000D03*
X31550000Y-39125000D03*
X31050000Y-39125000D03*
X30550000Y-39125000D03*
X30050000Y-39125000D03*
X29550000Y-39125000D03*
X29050000Y-39125000D03*
X28550000Y-39125000D03*
X28050000Y-39125000D03*
X27550000Y-39125000D03*
X27050000Y-39125000D03*
X26550000Y-39125000D03*
X26050000Y-39125000D03*
X25550000Y-39125000D03*
X25050000Y-39125000D03*
D27*
X23125000Y-41050000D03*
X23125000Y-41550000D03*
X23125000Y-42050000D03*
X23125000Y-42550000D03*
X23125000Y-43050000D03*
X23125000Y-43550000D03*
X23125000Y-44050000D03*
X23125000Y-44550000D03*
X23125000Y-45050000D03*
X23125000Y-45550000D03*
X23125000Y-46050000D03*
X23125000Y-46550000D03*
X23125000Y-47050000D03*
X23125000Y-47550000D03*
X23125000Y-48050000D03*
X23125000Y-48550000D03*
D26*
X25050000Y-50475000D03*
X25550000Y-50475000D03*
X26050000Y-50475000D03*
X26550000Y-50475000D03*
X27050000Y-50475000D03*
X27550000Y-50475000D03*
X28050000Y-50475000D03*
X28550000Y-50475000D03*
X29050000Y-50475000D03*
X29550000Y-50475000D03*
X30050000Y-50475000D03*
X30550000Y-50475000D03*
X31050000Y-50475000D03*
X31550000Y-50475000D03*
X32050000Y-50475000D03*
X32550000Y-50475000D03*
D27*
X34475000Y-48550000D03*
X34475000Y-48050000D03*
X34475000Y-47550000D03*
X34475000Y-47050000D03*
X34475000Y-46550000D03*
X34475000Y-46050000D03*
X34475000Y-45550000D03*
X34475000Y-45050000D03*
X34475000Y-44550000D03*
X34475000Y-44050000D03*
X34475000Y-43550000D03*
X34475000Y-43050000D03*
X34475000Y-42550000D03*
X34475000Y-42050000D03*
X34475000Y-41550000D03*
X34475000Y-41050000D03*
%TD*%
D28*
%TO.C,R5*%
X24025000Y-63600000D03*
X22375000Y-63600000D03*
%TD*%
D29*
%TO.C,U6*%
X32400000Y-36600000D03*
X32400000Y-35330000D03*
X32400000Y-34060000D03*
X32400000Y-32790000D03*
X32400000Y-31520000D03*
X32400000Y-30250000D03*
X32400000Y-28980000D03*
X32400000Y-27710000D03*
X27400000Y-27710000D03*
X27400000Y-28980000D03*
X27400000Y-30250000D03*
X27400000Y-31520000D03*
X27400000Y-32790000D03*
X27400000Y-34060000D03*
X27400000Y-35330000D03*
X27400000Y-36600000D03*
%TD*%
D15*
%TO.C,C17*%
X21100000Y-46700000D03*
X21100000Y-48250000D03*
%TD*%
D30*
%TO.C,R1*%
X36400000Y-65087500D03*
X36400000Y-66912500D03*
%TD*%
D31*
%TO.C,C7*%
X34600000Y-29350000D03*
X34600000Y-27800000D03*
%TD*%
D24*
%TO.C,U1*%
X28900000Y-59875000D03*
X29850000Y-59875000D03*
X30800000Y-59875000D03*
X30800000Y-57600000D03*
X29850000Y-57600000D03*
X28900000Y-57600000D03*
%TD*%
D15*
%TO.C,C13*%
X21200000Y-40550000D03*
X21200000Y-42100000D03*
%TD*%
D10*
%TO.C,R10*%
X21750000Y-27000000D03*
X23400000Y-27000000D03*
%TD*%
D31*
%TO.C,C9*%
X25300000Y-34250000D03*
X25300000Y-32700000D03*
%TD*%
D32*
%TO.C,J1*%
X37865000Y-49010000D03*
X36849000Y-43930000D03*
X38881000Y-43930000D03*
D33*
X38500000Y-47740000D03*
X37230000Y-47740000D03*
X38500000Y-46470000D03*
X37230000Y-46470000D03*
X38500000Y-45200000D03*
X37230000Y-45200000D03*
%TD*%
D10*
%TO.C,R8*%
X36175000Y-29600000D03*
X37825000Y-29600000D03*
%TD*%
D20*
%TO.C,H2*%
X22400000Y-67000000D03*
%TD*%
D16*
%TO.C,D1*%
X28400000Y-54237500D03*
X28400000Y-52362500D03*
%TD*%
D31*
%TO.C,C5*%
X38400000Y-59600000D03*
X38400000Y-58050000D03*
%TD*%
D15*
%TO.C,C14*%
X25300000Y-35800000D03*
X25300000Y-37350000D03*
%TD*%
D25*
%TO.C,R14*%
X25500000Y-57850000D03*
X25500000Y-59500000D03*
%TD*%
D10*
%TO.C,R7*%
X36175000Y-27800000D03*
X37825000Y-27800000D03*
%TD*%
D34*
%TO.C,J2*%
X27110000Y-63700000D03*
X32890000Y-63700000D03*
D35*
X26800000Y-62580000D03*
X27600000Y-62580000D03*
D36*
X28750000Y-62580000D03*
X29750000Y-62580000D03*
X30250000Y-62580000D03*
X31250000Y-62580000D03*
D35*
X32400000Y-62580000D03*
X33200000Y-62580000D03*
X33200000Y-62580000D03*
X32400000Y-62580000D03*
D36*
X31750000Y-62580000D03*
X30750000Y-62580000D03*
X29250000Y-62580000D03*
X28250000Y-62580000D03*
D35*
X27600000Y-62580000D03*
X26800000Y-62580000D03*
D37*
X25680000Y-63180000D03*
D38*
X25680000Y-67380000D03*
D37*
X34320000Y-63180000D03*
D38*
X34320000Y-67380000D03*
%TD*%
D15*
%TO.C,C15*%
X34900000Y-38250000D03*
X34900000Y-39800000D03*
%TD*%
D39*
%TO.C,C3*%
X34250000Y-57900000D03*
X32700000Y-57900000D03*
%TD*%
D31*
%TO.C,C12*%
X34700000Y-36650000D03*
X34700000Y-35100000D03*
%TD*%
D39*
%TO.C,C16*%
X36050000Y-50900000D03*
X34500000Y-50900000D03*
%TD*%
D40*
%TO.C,R6*%
X36400000Y-63200000D03*
X36400000Y-61550000D03*
%TD*%
D21*
%TO.C,C6*%
X36700000Y-41200000D03*
X38600000Y-41200000D03*
%TD*%
D39*
%TO.C,C1*%
X23000000Y-55600000D03*
X21450000Y-55600000D03*
%TD*%
D21*
%TO.C,C10*%
X36500000Y-32600000D03*
X38400000Y-32600000D03*
%TD*%
M02*
