%TF.GenerationSoftware,KiCad,Pcbnew,9.0.2*%
%TF.CreationDate,2025-06-14T09:22:04-04:00*%
%TF.ProjectId,plimsoll,706c696d-736f-46c6-9c2e-6b696361645f,rev?*%
%TF.SameCoordinates,Original*%
%TF.FileFunction,Legend,Bot*%
%TF.FilePolarity,Positive*%
%FSLAX46Y46*%
G04 Gerber Fmt 4.6, Leading zero omitted, Abs format (unit mm)*
G04 Created by KiCad (PCBNEW 9.0.2) date 2025-06-14 09:22:04*
%MOMM*%
%LPD*%
G01*
G04 APERTURE LIST*
%ADD10C,0.187500*%
%ADD11C,0.100000*%
%ADD12C,0.150000*%
%ADD13C,0.120000*%
G04 APERTURE END LIST*
D10*
X36533787Y-51563191D02*
X36676645Y-51491762D01*
X36676645Y-51491762D02*
X36890930Y-51491762D01*
X36890930Y-51491762D02*
X37105216Y-51563191D01*
X37105216Y-51563191D02*
X37248073Y-51706048D01*
X37248073Y-51706048D02*
X37319502Y-51848905D01*
X37319502Y-51848905D02*
X37390930Y-52134619D01*
X37390930Y-52134619D02*
X37390930Y-52348905D01*
X37390930Y-52348905D02*
X37319502Y-52634619D01*
X37319502Y-52634619D02*
X37248073Y-52777476D01*
X37248073Y-52777476D02*
X37105216Y-52920334D01*
X37105216Y-52920334D02*
X36890930Y-52991762D01*
X36890930Y-52991762D02*
X36748073Y-52991762D01*
X36748073Y-52991762D02*
X36533787Y-52920334D01*
X36533787Y-52920334D02*
X36462359Y-52848905D01*
X36462359Y-52848905D02*
X36462359Y-52348905D01*
X36462359Y-52348905D02*
X36748073Y-52348905D01*
X35819502Y-52991762D02*
X35819502Y-51491762D01*
X35819502Y-51491762D02*
X34962359Y-52991762D01*
X34962359Y-52991762D02*
X34962359Y-51491762D01*
X34248073Y-52991762D02*
X34248073Y-51491762D01*
X34248073Y-51491762D02*
X33890930Y-51491762D01*
X33890930Y-51491762D02*
X33676644Y-51563191D01*
X33676644Y-51563191D02*
X33533787Y-51706048D01*
X33533787Y-51706048D02*
X33462358Y-51848905D01*
X33462358Y-51848905D02*
X33390930Y-52134619D01*
X33390930Y-52134619D02*
X33390930Y-52348905D01*
X33390930Y-52348905D02*
X33462358Y-52634619D01*
X33462358Y-52634619D02*
X33533787Y-52777476D01*
X33533787Y-52777476D02*
X33676644Y-52920334D01*
X33676644Y-52920334D02*
X33890930Y-52991762D01*
X33890930Y-52991762D02*
X34248073Y-52991762D01*
X37533787Y-53906678D02*
X37033787Y-55406678D01*
X37033787Y-55406678D02*
X36533787Y-53906678D01*
X36033788Y-55406678D02*
X36033788Y-53906678D01*
X36033788Y-54478107D02*
X35890931Y-54406678D01*
X35890931Y-54406678D02*
X35605216Y-54406678D01*
X35605216Y-54406678D02*
X35462359Y-54478107D01*
X35462359Y-54478107D02*
X35390931Y-54549535D01*
X35390931Y-54549535D02*
X35319502Y-54692392D01*
X35319502Y-54692392D02*
X35319502Y-55120964D01*
X35319502Y-55120964D02*
X35390931Y-55263821D01*
X35390931Y-55263821D02*
X35462359Y-55335250D01*
X35462359Y-55335250D02*
X35605216Y-55406678D01*
X35605216Y-55406678D02*
X35890931Y-55406678D01*
X35890931Y-55406678D02*
X36033788Y-55335250D01*
X34033788Y-54406678D02*
X34033788Y-55406678D01*
X34676645Y-54406678D02*
X34676645Y-55192392D01*
X34676645Y-55192392D02*
X34605216Y-55335250D01*
X34605216Y-55335250D02*
X34462359Y-55406678D01*
X34462359Y-55406678D02*
X34248073Y-55406678D01*
X34248073Y-55406678D02*
X34105216Y-55335250D01*
X34105216Y-55335250D02*
X34033788Y-55263821D01*
X33390930Y-55335250D02*
X33248073Y-55406678D01*
X33248073Y-55406678D02*
X32962359Y-55406678D01*
X32962359Y-55406678D02*
X32819502Y-55335250D01*
X32819502Y-55335250D02*
X32748073Y-55192392D01*
X32748073Y-55192392D02*
X32748073Y-55120964D01*
X32748073Y-55120964D02*
X32819502Y-54978107D01*
X32819502Y-54978107D02*
X32962359Y-54906678D01*
X32962359Y-54906678D02*
X33176645Y-54906678D01*
X33176645Y-54906678D02*
X33319502Y-54835250D01*
X33319502Y-54835250D02*
X33390930Y-54692392D01*
X33390930Y-54692392D02*
X33390930Y-54620964D01*
X33390930Y-54620964D02*
X33319502Y-54478107D01*
X33319502Y-54478107D02*
X33176645Y-54406678D01*
X33176645Y-54406678D02*
X32962359Y-54406678D01*
X32962359Y-54406678D02*
X32819502Y-54478107D01*
X36109498Y-27790930D02*
X36038069Y-27576645D01*
X36038069Y-27576645D02*
X36038069Y-27219502D01*
X36038069Y-27219502D02*
X36109498Y-27076645D01*
X36109498Y-27076645D02*
X36180926Y-27005216D01*
X36180926Y-27005216D02*
X36323783Y-26933787D01*
X36323783Y-26933787D02*
X36466640Y-26933787D01*
X36466640Y-26933787D02*
X36609498Y-27005216D01*
X36609498Y-27005216D02*
X36680926Y-27076645D01*
X36680926Y-27076645D02*
X36752355Y-27219502D01*
X36752355Y-27219502D02*
X36823783Y-27505216D01*
X36823783Y-27505216D02*
X36895212Y-27648073D01*
X36895212Y-27648073D02*
X36966640Y-27719502D01*
X36966640Y-27719502D02*
X37109498Y-27790930D01*
X37109498Y-27790930D02*
X37252355Y-27790930D01*
X37252355Y-27790930D02*
X37395212Y-27719502D01*
X37395212Y-27719502D02*
X37466640Y-27648073D01*
X37466640Y-27648073D02*
X37538069Y-27505216D01*
X37538069Y-27505216D02*
X37538069Y-27148073D01*
X37538069Y-27148073D02*
X37466640Y-26933787D01*
X36609498Y-26290931D02*
X36609498Y-25148074D01*
X36038069Y-25719502D02*
X37180926Y-25719502D01*
X33694582Y-27790930D02*
X33623153Y-27576645D01*
X33623153Y-27576645D02*
X33623153Y-27219502D01*
X33623153Y-27219502D02*
X33694582Y-27076645D01*
X33694582Y-27076645D02*
X33766010Y-27005216D01*
X33766010Y-27005216D02*
X33908867Y-26933787D01*
X33908867Y-26933787D02*
X34051724Y-26933787D01*
X34051724Y-26933787D02*
X34194582Y-27005216D01*
X34194582Y-27005216D02*
X34266010Y-27076645D01*
X34266010Y-27076645D02*
X34337439Y-27219502D01*
X34337439Y-27219502D02*
X34408867Y-27505216D01*
X34408867Y-27505216D02*
X34480296Y-27648073D01*
X34480296Y-27648073D02*
X34551724Y-27719502D01*
X34551724Y-27719502D02*
X34694582Y-27790930D01*
X34694582Y-27790930D02*
X34837439Y-27790930D01*
X34837439Y-27790930D02*
X34980296Y-27719502D01*
X34980296Y-27719502D02*
X35051724Y-27648073D01*
X35051724Y-27648073D02*
X35123153Y-27505216D01*
X35123153Y-27505216D02*
X35123153Y-27148073D01*
X35123153Y-27148073D02*
X35051724Y-26933787D01*
X34194582Y-26290931D02*
X34194582Y-25148074D01*
X31993951Y-27719502D02*
X31993951Y-27219502D01*
X31208237Y-27005216D02*
X31208237Y-27719502D01*
X31208237Y-27719502D02*
X32708237Y-27719502D01*
X32708237Y-27719502D02*
X32708237Y-27005216D01*
X31779666Y-26362359D02*
X31779666Y-25219502D01*
X29579035Y-27719502D02*
X29579035Y-27219502D01*
X28793321Y-27005216D02*
X28793321Y-27719502D01*
X28793321Y-27719502D02*
X30293321Y-27719502D01*
X30293321Y-27719502D02*
X30293321Y-27005216D01*
X29364750Y-26362359D02*
X29364750Y-25219502D01*
X28793321Y-25790930D02*
X29936178Y-25790930D01*
D11*
X29643734Y-34324800D02*
X29500877Y-34372419D01*
X29500877Y-34372419D02*
X29262782Y-34372419D01*
X29262782Y-34372419D02*
X29167544Y-34324800D01*
X29167544Y-34324800D02*
X29119925Y-34277180D01*
X29119925Y-34277180D02*
X29072306Y-34181942D01*
X29072306Y-34181942D02*
X29072306Y-34086704D01*
X29072306Y-34086704D02*
X29119925Y-33991466D01*
X29119925Y-33991466D02*
X29167544Y-33943847D01*
X29167544Y-33943847D02*
X29262782Y-33896228D01*
X29262782Y-33896228D02*
X29453258Y-33848609D01*
X29453258Y-33848609D02*
X29548496Y-33800990D01*
X29548496Y-33800990D02*
X29596115Y-33753371D01*
X29596115Y-33753371D02*
X29643734Y-33658133D01*
X29643734Y-33658133D02*
X29643734Y-33562895D01*
X29643734Y-33562895D02*
X29596115Y-33467657D01*
X29596115Y-33467657D02*
X29548496Y-33420038D01*
X29548496Y-33420038D02*
X29453258Y-33372419D01*
X29453258Y-33372419D02*
X29215163Y-33372419D01*
X29215163Y-33372419D02*
X29072306Y-33420038D01*
X28453258Y-33372419D02*
X28358020Y-33372419D01*
X28358020Y-33372419D02*
X28262782Y-33420038D01*
X28262782Y-33420038D02*
X28215163Y-33467657D01*
X28215163Y-33467657D02*
X28167544Y-33562895D01*
X28167544Y-33562895D02*
X28119925Y-33753371D01*
X28119925Y-33753371D02*
X28119925Y-33991466D01*
X28119925Y-33991466D02*
X28167544Y-34181942D01*
X28167544Y-34181942D02*
X28215163Y-34277180D01*
X28215163Y-34277180D02*
X28262782Y-34324800D01*
X28262782Y-34324800D02*
X28358020Y-34372419D01*
X28358020Y-34372419D02*
X28453258Y-34372419D01*
X28453258Y-34372419D02*
X28548496Y-34324800D01*
X28548496Y-34324800D02*
X28596115Y-34277180D01*
X28596115Y-34277180D02*
X28643734Y-34181942D01*
X28643734Y-34181942D02*
X28691353Y-33991466D01*
X28691353Y-33991466D02*
X28691353Y-33753371D01*
X28691353Y-33753371D02*
X28643734Y-33562895D01*
X28643734Y-33562895D02*
X28596115Y-33467657D01*
X28596115Y-33467657D02*
X28548496Y-33420038D01*
X28548496Y-33420038D02*
X28453258Y-33372419D01*
D12*
X28754657Y-69015601D02*
X29954657Y-69015601D01*
X28754657Y-68501316D02*
X29383228Y-68501316D01*
X29383228Y-68501316D02*
X29497514Y-68558458D01*
X29497514Y-68558458D02*
X29554657Y-68672744D01*
X29554657Y-68672744D02*
X29554657Y-68844173D01*
X29554657Y-68844173D02*
X29497514Y-68958458D01*
X29497514Y-68958458D02*
X29440371Y-69015601D01*
X29554657Y-68101316D02*
X29554657Y-67644173D01*
X29954657Y-67929887D02*
X28926085Y-67929887D01*
X28926085Y-67929887D02*
X28811800Y-67872744D01*
X28811800Y-67872744D02*
X28754657Y-67758459D01*
X28754657Y-67758459D02*
X28754657Y-67644173D01*
X29554657Y-67415602D02*
X29554657Y-66958459D01*
X29954657Y-67244173D02*
X28926085Y-67244173D01*
X28926085Y-67244173D02*
X28811800Y-67187030D01*
X28811800Y-67187030D02*
X28754657Y-67072745D01*
X28754657Y-67072745D02*
X28754657Y-66958459D01*
X29554657Y-66558459D02*
X28354657Y-66558459D01*
X29497514Y-66558459D02*
X29554657Y-66444174D01*
X29554657Y-66444174D02*
X29554657Y-66215602D01*
X29554657Y-66215602D02*
X29497514Y-66101316D01*
X29497514Y-66101316D02*
X29440371Y-66044174D01*
X29440371Y-66044174D02*
X29326085Y-65987031D01*
X29326085Y-65987031D02*
X28983228Y-65987031D01*
X28983228Y-65987031D02*
X28868942Y-66044174D01*
X28868942Y-66044174D02*
X28811800Y-66101316D01*
X28811800Y-66101316D02*
X28754657Y-66215602D01*
X28754657Y-66215602D02*
X28754657Y-66444174D01*
X28754657Y-66444174D02*
X28811800Y-66558459D01*
X28811800Y-65529888D02*
X28754657Y-65415602D01*
X28754657Y-65415602D02*
X28754657Y-65187031D01*
X28754657Y-65187031D02*
X28811800Y-65072745D01*
X28811800Y-65072745D02*
X28926085Y-65015602D01*
X28926085Y-65015602D02*
X28983228Y-65015602D01*
X28983228Y-65015602D02*
X29097514Y-65072745D01*
X29097514Y-65072745D02*
X29154657Y-65187031D01*
X29154657Y-65187031D02*
X29154657Y-65358460D01*
X29154657Y-65358460D02*
X29211800Y-65472745D01*
X29211800Y-65472745D02*
X29326085Y-65529888D01*
X29326085Y-65529888D02*
X29383228Y-65529888D01*
X29383228Y-65529888D02*
X29497514Y-65472745D01*
X29497514Y-65472745D02*
X29554657Y-65358460D01*
X29554657Y-65358460D02*
X29554657Y-65187031D01*
X29554657Y-65187031D02*
X29497514Y-65072745D01*
X28868942Y-64501316D02*
X28811800Y-64444173D01*
X28811800Y-64444173D02*
X28754657Y-64501316D01*
X28754657Y-64501316D02*
X28811800Y-64558459D01*
X28811800Y-64558459D02*
X28868942Y-64501316D01*
X28868942Y-64501316D02*
X28754657Y-64501316D01*
X29497514Y-64501316D02*
X29440371Y-64444173D01*
X29440371Y-64444173D02*
X29383228Y-64501316D01*
X29383228Y-64501316D02*
X29440371Y-64558459D01*
X29440371Y-64558459D02*
X29497514Y-64501316D01*
X29497514Y-64501316D02*
X29383228Y-64501316D01*
X30011800Y-63072744D02*
X28468942Y-64101316D01*
X30011800Y-61815601D02*
X28468942Y-62844173D01*
X29554657Y-60901316D02*
X28583228Y-60901316D01*
X28583228Y-60901316D02*
X28468942Y-60958458D01*
X28468942Y-60958458D02*
X28411800Y-61015601D01*
X28411800Y-61015601D02*
X28354657Y-61129887D01*
X28354657Y-61129887D02*
X28354657Y-61301316D01*
X28354657Y-61301316D02*
X28411800Y-61415601D01*
X28811800Y-60901316D02*
X28754657Y-61015601D01*
X28754657Y-61015601D02*
X28754657Y-61244173D01*
X28754657Y-61244173D02*
X28811800Y-61358458D01*
X28811800Y-61358458D02*
X28868942Y-61415601D01*
X28868942Y-61415601D02*
X28983228Y-61472744D01*
X28983228Y-61472744D02*
X29326085Y-61472744D01*
X29326085Y-61472744D02*
X29440371Y-61415601D01*
X29440371Y-61415601D02*
X29497514Y-61358458D01*
X29497514Y-61358458D02*
X29554657Y-61244173D01*
X29554657Y-61244173D02*
X29554657Y-61015601D01*
X29554657Y-61015601D02*
X29497514Y-60901316D01*
X28754657Y-60329887D02*
X29554657Y-60329887D01*
X29954657Y-60329887D02*
X29897514Y-60387030D01*
X29897514Y-60387030D02*
X29840371Y-60329887D01*
X29840371Y-60329887D02*
X29897514Y-60272744D01*
X29897514Y-60272744D02*
X29954657Y-60329887D01*
X29954657Y-60329887D02*
X29840371Y-60329887D01*
X29554657Y-59929887D02*
X29554657Y-59472744D01*
X29954657Y-59758458D02*
X28926085Y-59758458D01*
X28926085Y-59758458D02*
X28811800Y-59701315D01*
X28811800Y-59701315D02*
X28754657Y-59587030D01*
X28754657Y-59587030D02*
X28754657Y-59472744D01*
X28754657Y-59072744D02*
X29954657Y-59072744D01*
X28754657Y-58558459D02*
X29383228Y-58558459D01*
X29383228Y-58558459D02*
X29497514Y-58615601D01*
X29497514Y-58615601D02*
X29554657Y-58729887D01*
X29554657Y-58729887D02*
X29554657Y-58901316D01*
X29554657Y-58901316D02*
X29497514Y-59015601D01*
X29497514Y-59015601D02*
X29440371Y-59072744D01*
X29554657Y-57472745D02*
X28754657Y-57472745D01*
X29554657Y-57987030D02*
X28926085Y-57987030D01*
X28926085Y-57987030D02*
X28811800Y-57929887D01*
X28811800Y-57929887D02*
X28754657Y-57815602D01*
X28754657Y-57815602D02*
X28754657Y-57644173D01*
X28754657Y-57644173D02*
X28811800Y-57529887D01*
X28811800Y-57529887D02*
X28868942Y-57472745D01*
X28754657Y-56901316D02*
X29954657Y-56901316D01*
X29497514Y-56901316D02*
X29554657Y-56787031D01*
X29554657Y-56787031D02*
X29554657Y-56558459D01*
X29554657Y-56558459D02*
X29497514Y-56444173D01*
X29497514Y-56444173D02*
X29440371Y-56387031D01*
X29440371Y-56387031D02*
X29326085Y-56329888D01*
X29326085Y-56329888D02*
X28983228Y-56329888D01*
X28983228Y-56329888D02*
X28868942Y-56387031D01*
X28868942Y-56387031D02*
X28811800Y-56444173D01*
X28811800Y-56444173D02*
X28754657Y-56558459D01*
X28754657Y-56558459D02*
X28754657Y-56787031D01*
X28754657Y-56787031D02*
X28811800Y-56901316D01*
X28868942Y-55815602D02*
X28811800Y-55758459D01*
X28811800Y-55758459D02*
X28754657Y-55815602D01*
X28754657Y-55815602D02*
X28811800Y-55872745D01*
X28811800Y-55872745D02*
X28868942Y-55815602D01*
X28868942Y-55815602D02*
X28754657Y-55815602D01*
X28811800Y-54729888D02*
X28754657Y-54844173D01*
X28754657Y-54844173D02*
X28754657Y-55072745D01*
X28754657Y-55072745D02*
X28811800Y-55187030D01*
X28811800Y-55187030D02*
X28868942Y-55244173D01*
X28868942Y-55244173D02*
X28983228Y-55301316D01*
X28983228Y-55301316D02*
X29326085Y-55301316D01*
X29326085Y-55301316D02*
X29440371Y-55244173D01*
X29440371Y-55244173D02*
X29497514Y-55187030D01*
X29497514Y-55187030D02*
X29554657Y-55072745D01*
X29554657Y-55072745D02*
X29554657Y-54844173D01*
X29554657Y-54844173D02*
X29497514Y-54729888D01*
X28754657Y-54044174D02*
X28811800Y-54158459D01*
X28811800Y-54158459D02*
X28868942Y-54215602D01*
X28868942Y-54215602D02*
X28983228Y-54272745D01*
X28983228Y-54272745D02*
X29326085Y-54272745D01*
X29326085Y-54272745D02*
X29440371Y-54215602D01*
X29440371Y-54215602D02*
X29497514Y-54158459D01*
X29497514Y-54158459D02*
X29554657Y-54044174D01*
X29554657Y-54044174D02*
X29554657Y-53872745D01*
X29554657Y-53872745D02*
X29497514Y-53758459D01*
X29497514Y-53758459D02*
X29440371Y-53701317D01*
X29440371Y-53701317D02*
X29326085Y-53644174D01*
X29326085Y-53644174D02*
X28983228Y-53644174D01*
X28983228Y-53644174D02*
X28868942Y-53701317D01*
X28868942Y-53701317D02*
X28811800Y-53758459D01*
X28811800Y-53758459D02*
X28754657Y-53872745D01*
X28754657Y-53872745D02*
X28754657Y-54044174D01*
X28754657Y-53129888D02*
X29554657Y-53129888D01*
X29440371Y-53129888D02*
X29497514Y-53072745D01*
X29497514Y-53072745D02*
X29554657Y-52958460D01*
X29554657Y-52958460D02*
X29554657Y-52787031D01*
X29554657Y-52787031D02*
X29497514Y-52672745D01*
X29497514Y-52672745D02*
X29383228Y-52615603D01*
X29383228Y-52615603D02*
X28754657Y-52615603D01*
X29383228Y-52615603D02*
X29497514Y-52558460D01*
X29497514Y-52558460D02*
X29554657Y-52444174D01*
X29554657Y-52444174D02*
X29554657Y-52272745D01*
X29554657Y-52272745D02*
X29497514Y-52158460D01*
X29497514Y-52158460D02*
X29383228Y-52101317D01*
X29383228Y-52101317D02*
X28754657Y-52101317D01*
X30011800Y-50672745D02*
X28468942Y-51701317D01*
X28754657Y-50272745D02*
X29554657Y-50272745D01*
X29440371Y-50272745D02*
X29497514Y-50215602D01*
X29497514Y-50215602D02*
X29554657Y-50101317D01*
X29554657Y-50101317D02*
X29554657Y-49929888D01*
X29554657Y-49929888D02*
X29497514Y-49815602D01*
X29497514Y-49815602D02*
X29383228Y-49758460D01*
X29383228Y-49758460D02*
X28754657Y-49758460D01*
X29383228Y-49758460D02*
X29497514Y-49701317D01*
X29497514Y-49701317D02*
X29554657Y-49587031D01*
X29554657Y-49587031D02*
X29554657Y-49415602D01*
X29554657Y-49415602D02*
X29497514Y-49301317D01*
X29497514Y-49301317D02*
X29383228Y-49244174D01*
X29383228Y-49244174D02*
X28754657Y-49244174D01*
X29554657Y-48158460D02*
X28754657Y-48158460D01*
X29554657Y-48672745D02*
X28926085Y-48672745D01*
X28926085Y-48672745D02*
X28811800Y-48615602D01*
X28811800Y-48615602D02*
X28754657Y-48501317D01*
X28754657Y-48501317D02*
X28754657Y-48329888D01*
X28754657Y-48329888D02*
X28811800Y-48215602D01*
X28811800Y-48215602D02*
X28868942Y-48158460D01*
X28754657Y-47415603D02*
X28811800Y-47529888D01*
X28811800Y-47529888D02*
X28926085Y-47587031D01*
X28926085Y-47587031D02*
X29954657Y-47587031D01*
X28811800Y-46444175D02*
X28754657Y-46558460D01*
X28754657Y-46558460D02*
X28754657Y-46787032D01*
X28754657Y-46787032D02*
X28811800Y-46901317D01*
X28811800Y-46901317D02*
X28868942Y-46958460D01*
X28868942Y-46958460D02*
X28983228Y-47015603D01*
X28983228Y-47015603D02*
X29326085Y-47015603D01*
X29326085Y-47015603D02*
X29440371Y-46958460D01*
X29440371Y-46958460D02*
X29497514Y-46901317D01*
X29497514Y-46901317D02*
X29554657Y-46787032D01*
X29554657Y-46787032D02*
X29554657Y-46558460D01*
X29554657Y-46558460D02*
X29497514Y-46444175D01*
X28754657Y-45929889D02*
X29554657Y-45929889D01*
X29440371Y-45929889D02*
X29497514Y-45872746D01*
X29497514Y-45872746D02*
X29554657Y-45758461D01*
X29554657Y-45758461D02*
X29554657Y-45587032D01*
X29554657Y-45587032D02*
X29497514Y-45472746D01*
X29497514Y-45472746D02*
X29383228Y-45415604D01*
X29383228Y-45415604D02*
X28754657Y-45415604D01*
X29383228Y-45415604D02*
X29497514Y-45358461D01*
X29497514Y-45358461D02*
X29554657Y-45244175D01*
X29554657Y-45244175D02*
X29554657Y-45072746D01*
X29554657Y-45072746D02*
X29497514Y-44958461D01*
X29497514Y-44958461D02*
X29383228Y-44901318D01*
X29383228Y-44901318D02*
X28754657Y-44901318D01*
X29554657Y-43815604D02*
X28754657Y-43815604D01*
X29554657Y-44329889D02*
X28926085Y-44329889D01*
X28926085Y-44329889D02*
X28811800Y-44272746D01*
X28811800Y-44272746D02*
X28754657Y-44158461D01*
X28754657Y-44158461D02*
X28754657Y-43987032D01*
X28754657Y-43987032D02*
X28811800Y-43872746D01*
X28811800Y-43872746D02*
X28868942Y-43815604D01*
X30011800Y-42387032D02*
X28468942Y-43415604D01*
X29554657Y-41987032D02*
X28354657Y-41987032D01*
X29497514Y-41987032D02*
X29554657Y-41872747D01*
X29554657Y-41872747D02*
X29554657Y-41644175D01*
X29554657Y-41644175D02*
X29497514Y-41529889D01*
X29497514Y-41529889D02*
X29440371Y-41472747D01*
X29440371Y-41472747D02*
X29326085Y-41415604D01*
X29326085Y-41415604D02*
X28983228Y-41415604D01*
X28983228Y-41415604D02*
X28868942Y-41472747D01*
X28868942Y-41472747D02*
X28811800Y-41529889D01*
X28811800Y-41529889D02*
X28754657Y-41644175D01*
X28754657Y-41644175D02*
X28754657Y-41872747D01*
X28754657Y-41872747D02*
X28811800Y-41987032D01*
X28754657Y-40729890D02*
X28811800Y-40844175D01*
X28811800Y-40844175D02*
X28926085Y-40901318D01*
X28926085Y-40901318D02*
X29954657Y-40901318D01*
X28754657Y-40272747D02*
X29554657Y-40272747D01*
X29954657Y-40272747D02*
X29897514Y-40329890D01*
X29897514Y-40329890D02*
X29840371Y-40272747D01*
X29840371Y-40272747D02*
X29897514Y-40215604D01*
X29897514Y-40215604D02*
X29954657Y-40272747D01*
X29954657Y-40272747D02*
X29840371Y-40272747D01*
X28754657Y-39701318D02*
X29554657Y-39701318D01*
X29440371Y-39701318D02*
X29497514Y-39644175D01*
X29497514Y-39644175D02*
X29554657Y-39529890D01*
X29554657Y-39529890D02*
X29554657Y-39358461D01*
X29554657Y-39358461D02*
X29497514Y-39244175D01*
X29497514Y-39244175D02*
X29383228Y-39187033D01*
X29383228Y-39187033D02*
X28754657Y-39187033D01*
X29383228Y-39187033D02*
X29497514Y-39129890D01*
X29497514Y-39129890D02*
X29554657Y-39015604D01*
X29554657Y-39015604D02*
X29554657Y-38844175D01*
X29554657Y-38844175D02*
X29497514Y-38729890D01*
X29497514Y-38729890D02*
X29383228Y-38672747D01*
X29383228Y-38672747D02*
X28754657Y-38672747D01*
X28811800Y-38158461D02*
X28754657Y-38044175D01*
X28754657Y-38044175D02*
X28754657Y-37815604D01*
X28754657Y-37815604D02*
X28811800Y-37701318D01*
X28811800Y-37701318D02*
X28926085Y-37644175D01*
X28926085Y-37644175D02*
X28983228Y-37644175D01*
X28983228Y-37644175D02*
X29097514Y-37701318D01*
X29097514Y-37701318D02*
X29154657Y-37815604D01*
X29154657Y-37815604D02*
X29154657Y-37987033D01*
X29154657Y-37987033D02*
X29211800Y-38101318D01*
X29211800Y-38101318D02*
X29326085Y-38158461D01*
X29326085Y-38158461D02*
X29383228Y-38158461D01*
X29383228Y-38158461D02*
X29497514Y-38101318D01*
X29497514Y-38101318D02*
X29554657Y-37987033D01*
X29554657Y-37987033D02*
X29554657Y-37815604D01*
X29554657Y-37815604D02*
X29497514Y-37701318D01*
X28754657Y-36958461D02*
X28811800Y-37072746D01*
X28811800Y-37072746D02*
X28868942Y-37129889D01*
X28868942Y-37129889D02*
X28983228Y-37187032D01*
X28983228Y-37187032D02*
X29326085Y-37187032D01*
X29326085Y-37187032D02*
X29440371Y-37129889D01*
X29440371Y-37129889D02*
X29497514Y-37072746D01*
X29497514Y-37072746D02*
X29554657Y-36958461D01*
X29554657Y-36958461D02*
X29554657Y-36787032D01*
X29554657Y-36787032D02*
X29497514Y-36672746D01*
X29497514Y-36672746D02*
X29440371Y-36615604D01*
X29440371Y-36615604D02*
X29326085Y-36558461D01*
X29326085Y-36558461D02*
X28983228Y-36558461D01*
X28983228Y-36558461D02*
X28868942Y-36615604D01*
X28868942Y-36615604D02*
X28811800Y-36672746D01*
X28811800Y-36672746D02*
X28754657Y-36787032D01*
X28754657Y-36787032D02*
X28754657Y-36958461D01*
X28754657Y-35872747D02*
X28811800Y-35987032D01*
X28811800Y-35987032D02*
X28926085Y-36044175D01*
X28926085Y-36044175D02*
X29954657Y-36044175D01*
X28754657Y-35244176D02*
X28811800Y-35358461D01*
X28811800Y-35358461D02*
X28926085Y-35415604D01*
X28926085Y-35415604D02*
X29954657Y-35415604D01*
D11*
X29543734Y-30824800D02*
X29400877Y-30872419D01*
X29400877Y-30872419D02*
X29162782Y-30872419D01*
X29162782Y-30872419D02*
X29067544Y-30824800D01*
X29067544Y-30824800D02*
X29019925Y-30777180D01*
X29019925Y-30777180D02*
X28972306Y-30681942D01*
X28972306Y-30681942D02*
X28972306Y-30586704D01*
X28972306Y-30586704D02*
X29019925Y-30491466D01*
X29019925Y-30491466D02*
X29067544Y-30443847D01*
X29067544Y-30443847D02*
X29162782Y-30396228D01*
X29162782Y-30396228D02*
X29353258Y-30348609D01*
X29353258Y-30348609D02*
X29448496Y-30300990D01*
X29448496Y-30300990D02*
X29496115Y-30253371D01*
X29496115Y-30253371D02*
X29543734Y-30158133D01*
X29543734Y-30158133D02*
X29543734Y-30062895D01*
X29543734Y-30062895D02*
X29496115Y-29967657D01*
X29496115Y-29967657D02*
X29448496Y-29920038D01*
X29448496Y-29920038D02*
X29353258Y-29872419D01*
X29353258Y-29872419D02*
X29115163Y-29872419D01*
X29115163Y-29872419D02*
X28972306Y-29920038D01*
X28019925Y-30872419D02*
X28591353Y-30872419D01*
X28305639Y-30872419D02*
X28305639Y-29872419D01*
X28305639Y-29872419D02*
X28400877Y-30015276D01*
X28400877Y-30015276D02*
X28496115Y-30110514D01*
X28496115Y-30110514D02*
X28591353Y-30158133D01*
X22127580Y-58096115D02*
X23127580Y-58096115D01*
X23127580Y-58096115D02*
X23127580Y-57715163D01*
X23127580Y-57715163D02*
X23079961Y-57619925D01*
X23079961Y-57619925D02*
X23032342Y-57572306D01*
X23032342Y-57572306D02*
X22937104Y-57524687D01*
X22937104Y-57524687D02*
X22794247Y-57524687D01*
X22794247Y-57524687D02*
X22699009Y-57572306D01*
X22699009Y-57572306D02*
X22651390Y-57619925D01*
X22651390Y-57619925D02*
X22603771Y-57715163D01*
X22603771Y-57715163D02*
X22603771Y-58096115D01*
X22222819Y-56524687D02*
X22175200Y-56572306D01*
X22175200Y-56572306D02*
X22127580Y-56715163D01*
X22127580Y-56715163D02*
X22127580Y-56810401D01*
X22127580Y-56810401D02*
X22175200Y-56953258D01*
X22175200Y-56953258D02*
X22270438Y-57048496D01*
X22270438Y-57048496D02*
X22365676Y-57096115D01*
X22365676Y-57096115D02*
X22556152Y-57143734D01*
X22556152Y-57143734D02*
X22699009Y-57143734D01*
X22699009Y-57143734D02*
X22889485Y-57096115D01*
X22889485Y-57096115D02*
X22984723Y-57048496D01*
X22984723Y-57048496D02*
X23079961Y-56953258D01*
X23079961Y-56953258D02*
X23127580Y-56810401D01*
X23127580Y-56810401D02*
X23127580Y-56715163D01*
X23127580Y-56715163D02*
X23079961Y-56572306D01*
X23079961Y-56572306D02*
X23032342Y-56524687D01*
X22651390Y-55762782D02*
X22603771Y-55619925D01*
X22603771Y-55619925D02*
X22556152Y-55572306D01*
X22556152Y-55572306D02*
X22460914Y-55524687D01*
X22460914Y-55524687D02*
X22318057Y-55524687D01*
X22318057Y-55524687D02*
X22222819Y-55572306D01*
X22222819Y-55572306D02*
X22175200Y-55619925D01*
X22175200Y-55619925D02*
X22127580Y-55715163D01*
X22127580Y-55715163D02*
X22127580Y-56096115D01*
X22127580Y-56096115D02*
X23127580Y-56096115D01*
X23127580Y-56096115D02*
X23127580Y-55762782D01*
X23127580Y-55762782D02*
X23079961Y-55667544D01*
X23079961Y-55667544D02*
X23032342Y-55619925D01*
X23032342Y-55619925D02*
X22937104Y-55572306D01*
X22937104Y-55572306D02*
X22841866Y-55572306D01*
X22841866Y-55572306D02*
X22746628Y-55619925D01*
X22746628Y-55619925D02*
X22699009Y-55667544D01*
X22699009Y-55667544D02*
X22651390Y-55762782D01*
X22651390Y-55762782D02*
X22651390Y-56096115D01*
X22127580Y-53762782D02*
X22603771Y-54096115D01*
X22127580Y-54334210D02*
X23127580Y-54334210D01*
X23127580Y-54334210D02*
X23127580Y-53953258D01*
X23127580Y-53953258D02*
X23079961Y-53858020D01*
X23079961Y-53858020D02*
X23032342Y-53810401D01*
X23032342Y-53810401D02*
X22937104Y-53762782D01*
X22937104Y-53762782D02*
X22794247Y-53762782D01*
X22794247Y-53762782D02*
X22699009Y-53810401D01*
X22699009Y-53810401D02*
X22651390Y-53858020D01*
X22651390Y-53858020D02*
X22603771Y-53953258D01*
X22603771Y-53953258D02*
X22603771Y-54334210D01*
X22175200Y-52953258D02*
X22127580Y-53048496D01*
X22127580Y-53048496D02*
X22127580Y-53238972D01*
X22127580Y-53238972D02*
X22175200Y-53334210D01*
X22175200Y-53334210D02*
X22270438Y-53381829D01*
X22270438Y-53381829D02*
X22651390Y-53381829D01*
X22651390Y-53381829D02*
X22746628Y-53334210D01*
X22746628Y-53334210D02*
X22794247Y-53238972D01*
X22794247Y-53238972D02*
X22794247Y-53048496D01*
X22794247Y-53048496D02*
X22746628Y-52953258D01*
X22746628Y-52953258D02*
X22651390Y-52905639D01*
X22651390Y-52905639D02*
X22556152Y-52905639D01*
X22556152Y-52905639D02*
X22460914Y-53381829D01*
X22794247Y-52572305D02*
X22127580Y-52334210D01*
X22127580Y-52334210D02*
X22794247Y-52096115D01*
X22127580Y-51715162D02*
X22794247Y-51715162D01*
X23127580Y-51715162D02*
X23079961Y-51762781D01*
X23079961Y-51762781D02*
X23032342Y-51715162D01*
X23032342Y-51715162D02*
X23079961Y-51667543D01*
X23079961Y-51667543D02*
X23127580Y-51715162D01*
X23127580Y-51715162D02*
X23032342Y-51715162D01*
X22175200Y-51286591D02*
X22127580Y-51191353D01*
X22127580Y-51191353D02*
X22127580Y-51000877D01*
X22127580Y-51000877D02*
X22175200Y-50905639D01*
X22175200Y-50905639D02*
X22270438Y-50858020D01*
X22270438Y-50858020D02*
X22318057Y-50858020D01*
X22318057Y-50858020D02*
X22413295Y-50905639D01*
X22413295Y-50905639D02*
X22460914Y-51000877D01*
X22460914Y-51000877D02*
X22460914Y-51143734D01*
X22460914Y-51143734D02*
X22508533Y-51238972D01*
X22508533Y-51238972D02*
X22603771Y-51286591D01*
X22603771Y-51286591D02*
X22651390Y-51286591D01*
X22651390Y-51286591D02*
X22746628Y-51238972D01*
X22746628Y-51238972D02*
X22794247Y-51143734D01*
X22794247Y-51143734D02*
X22794247Y-51000877D01*
X22794247Y-51000877D02*
X22746628Y-50905639D01*
X22127580Y-50429448D02*
X22794247Y-50429448D01*
X23127580Y-50429448D02*
X23079961Y-50477067D01*
X23079961Y-50477067D02*
X23032342Y-50429448D01*
X23032342Y-50429448D02*
X23079961Y-50381829D01*
X23079961Y-50381829D02*
X23127580Y-50429448D01*
X23127580Y-50429448D02*
X23032342Y-50429448D01*
X22127580Y-49810401D02*
X22175200Y-49905639D01*
X22175200Y-49905639D02*
X22222819Y-49953258D01*
X22222819Y-49953258D02*
X22318057Y-50000877D01*
X22318057Y-50000877D02*
X22603771Y-50000877D01*
X22603771Y-50000877D02*
X22699009Y-49953258D01*
X22699009Y-49953258D02*
X22746628Y-49905639D01*
X22746628Y-49905639D02*
X22794247Y-49810401D01*
X22794247Y-49810401D02*
X22794247Y-49667544D01*
X22794247Y-49667544D02*
X22746628Y-49572306D01*
X22746628Y-49572306D02*
X22699009Y-49524687D01*
X22699009Y-49524687D02*
X22603771Y-49477068D01*
X22603771Y-49477068D02*
X22318057Y-49477068D01*
X22318057Y-49477068D02*
X22222819Y-49524687D01*
X22222819Y-49524687D02*
X22175200Y-49572306D01*
X22175200Y-49572306D02*
X22127580Y-49667544D01*
X22127580Y-49667544D02*
X22127580Y-49810401D01*
X22794247Y-49048496D02*
X22127580Y-49048496D01*
X22699009Y-49048496D02*
X22746628Y-49000877D01*
X22746628Y-49000877D02*
X22794247Y-48905639D01*
X22794247Y-48905639D02*
X22794247Y-48762782D01*
X22794247Y-48762782D02*
X22746628Y-48667544D01*
X22746628Y-48667544D02*
X22651390Y-48619925D01*
X22651390Y-48619925D02*
X22127580Y-48619925D01*
X23127580Y-47191353D02*
X23127580Y-47096115D01*
X23127580Y-47096115D02*
X23079961Y-47000877D01*
X23079961Y-47000877D02*
X23032342Y-46953258D01*
X23032342Y-46953258D02*
X22937104Y-46905639D01*
X22937104Y-46905639D02*
X22746628Y-46858020D01*
X22746628Y-46858020D02*
X22508533Y-46858020D01*
X22508533Y-46858020D02*
X22318057Y-46905639D01*
X22318057Y-46905639D02*
X22222819Y-46953258D01*
X22222819Y-46953258D02*
X22175200Y-47000877D01*
X22175200Y-47000877D02*
X22127580Y-47096115D01*
X22127580Y-47096115D02*
X22127580Y-47191353D01*
X22127580Y-47191353D02*
X22175200Y-47286591D01*
X22175200Y-47286591D02*
X22222819Y-47334210D01*
X22222819Y-47334210D02*
X22318057Y-47381829D01*
X22318057Y-47381829D02*
X22508533Y-47429448D01*
X22508533Y-47429448D02*
X22746628Y-47429448D01*
X22746628Y-47429448D02*
X22937104Y-47381829D01*
X22937104Y-47381829D02*
X23032342Y-47334210D01*
X23032342Y-47334210D02*
X23079961Y-47286591D01*
X23079961Y-47286591D02*
X23127580Y-47191353D01*
D13*
%TO.C,JP2*%
X23550000Y-30050000D02*
X23550000Y-30650000D01*
X24200000Y-31350000D02*
X27000000Y-31350000D01*
X27000000Y-29350000D02*
X24200000Y-29350000D01*
X27650000Y-30650000D02*
X27650000Y-30050000D01*
X23550000Y-30050000D02*
G75*
G02*
X24250000Y-29350000I699999J1D01*
G01*
X24250000Y-31350000D02*
G75*
G02*
X23550000Y-30650000I-1J699999D01*
G01*
X26950000Y-29350000D02*
G75*
G02*
X27650000Y-30050000I0J-700000D01*
G01*
X27650000Y-30650000D02*
G75*
G02*
X26950000Y-31350000I-700000J0D01*
G01*
%TO.C,JP1*%
X23550000Y-33600000D02*
X23550000Y-34200000D01*
X24200000Y-34900000D02*
X27000000Y-34900000D01*
X27000000Y-32900000D02*
X24200000Y-32900000D01*
X27650000Y-34200000D02*
X27650000Y-33600000D01*
X23550000Y-33600000D02*
G75*
G02*
X24250000Y-32900000I699999J1D01*
G01*
X24250000Y-34900000D02*
G75*
G02*
X23550000Y-34200000I-1J699999D01*
G01*
X26950000Y-32900000D02*
G75*
G02*
X27650000Y-33600000I0J-700000D01*
G01*
X27650000Y-34200000D02*
G75*
G02*
X26950000Y-34900000I-700000J0D01*
G01*
%TD*%
M02*
